<?xml version="1.0" encoding="UTF-8"?>
<svg width="32" height="32" version="1.1" viewBox="0 0 8.4667 8.4667" xmlns="http://www.w3.org/2000/svg">
 <path d="m1.4693 7.0482s-0.66503 0.027164-0.5715 0.33884c0.093533 0.31168 1.627 0.36547 3.4404 0.3916 1.8134 0.026127 3.264-0.067228 3.3878-0.379 0.12378-0.31178-0.578-0.34672-0.578-0.34672s0.2398-2.8215-2.8285-2.8306c-3.0683-0.00915-2.8502 2.8259-2.8502 2.8259z" fill="#834b2a"/>
 <g stroke-linecap="round">
  <path d="m1.5135 7.0482s0.52403 0.18821 2.7537 0.17974c2.2428-0.00852 2.8367-0.17502 2.8367-0.17502" fill="none" stroke="#6f442b" stroke-width=".19115"/>
  <path d="m4.188 3.6223c-0.39427 0.021073-0.69668 0.35797-0.67523 0.75221 0.0078893 0.13772 0.055476 0.27022 0.13702 0.38149 0.18388-0.053052 0.39126-0.058375 0.58235-0.068853 0.20944-0.011155 0.40138-0.023026 0.60716 0.017522 0.073616-0.12256 0.10877-0.26439 0.1009-0.40714-0.021073-0.39427-0.35797-0.69668-0.75221-0.67523z" fill="#c43d3d" stroke-width=".35979"/>
  <path d="m4.4297 3.8349s0.20343-0.49924 0.49233-0.80983c0.28889-0.3106 0.48081-0.35336 0.48081-0.35336" fill="none" stroke="#48774d" stroke-width=".19115"/>
 </g>
 <g fill="#834b2a">
  <ellipse cx="1.5436" cy="7.6781" rx=".65815" ry=".18467"/>
  <ellipse cx="4.399" cy="8.1363" rx=".65815" ry=".18467"/>
  <ellipse cx="6.703" cy="8.3355" rx=".46716" ry=".13108"/>
  <ellipse cx="2.5182" cy="7.9496" rx=".28426" ry=".079763"/>
  <ellipse cx=".64534" cy="8.068" rx=".35367" ry=".099237"/>
  <ellipse cx="7.9731" cy="7.7805" rx=".28426" ry=".079763"/>
  <ellipse cx="5.2069" cy="7.7721" rx="1.3234" ry=".35032"/>
 </g>
</svg>
