<?xml version="1.0" encoding="UTF-8"?>
<svg width="32" height="32" version="1.1" viewBox="0 0 8.4667 8.4667" xmlns="http://www.w3.org/2000/svg">
 <g fill="#fff" stroke-linecap="round" stroke-linejoin="round">
  <path d="m3.1838 3.2033-0.21394 1.2268-0.69763 0.21394 0.69763 0.21394 0.21394 1.2268 0.21394-1.2268 0.69763-0.21394-0.69763-0.21394zm-5.167e-4 1.248a0.19455 0.19455 0 0 1 0.1943 0.1943 0.19455 0.19455 0 0 1-0.1943 0.19482 0.19455 0.19455 0 0 1-0.1943-0.19482 0.19455 0.19455 0 0 1 0.1943-0.1943z" opacity=".333" stroke-width=".17648"/>
  <path d="m6.2987 1.528-0.13521 0.77534-0.44091 0.13521 0.44091 0.13521 0.13521 0.77534 0.13521-0.77534 0.44091-0.13521-0.44091-0.13521zm-3.265e-4 0.78873a0.12295 0.12295 0 0 1 0.1228 0.1228 0.12295 0.12295 0 0 1-0.1228 0.12313 0.12295 0.12295 0 0 1-0.1228-0.12313 0.12295 0.12295 0 0 1 0.1228-0.1228z" opacity=".333" stroke-width=".11153"/>
  <path d="m5.1135 5.8514-0.13521 0.77534-0.44091 0.13521 0.44091 0.13521 0.13521 0.77534 0.13521-0.77534 0.44091-0.13521-0.44091-0.13521zm-3.265e-4 0.78873a0.12295 0.12295 0 0 1 0.1228 0.1228 0.12295 0.12295 0 0 1-0.1228 0.12313 0.12295 0.12295 0 0 1-0.1228-0.12313 0.12295 0.12295 0 0 1 0.1228-0.1228z" opacity=".333" stroke-width=".11153"/>
  <g stroke-width=".17648">
   <circle cx="1.046" cy="1.7362" r=".26496" opacity=".333"/>
   <circle cx="5.3769" cy="4.5893" r=".26496" opacity=".333"/>
   <circle cx="2.1274" cy="6.2835" r=".26496" opacity=".333"/>
  </g>
  <g stroke-width=".11765">
   <circle cx="7.4832" cy="4.8301" r=".17663" opacity=".333"/>
   <circle cx="5.866" cy="1.0739" r=".17663" opacity=".333"/>
   <circle cx="5.0949" cy="1.3048" r=".17663" opacity=".333"/>
  </g>
 </g>
</svg>
