<?xml version="1.0" encoding="UTF-8"?>
<svg width="32" height="32" version="1.1" viewBox="0 0 8.4667 8.4667" xmlns="http://www.w3.org/2000/svg">
 <g transform="matrix(6.4313 0 0 6.4313 -146.53 -94.338)">
  <path d="m23.624 15.542c0.092-0.11506-0.36981-0.10794-0.319-0.0073 0.05084 0.10052 0.03461 0.39421 0.03461 0.39421s-0.01639 0.05159 0.09529 0.05056c0.11172-1e-3 0.11203-0.05366 0.11203-0.05366s-0.01499-0.26877 0.07707-0.38381z" fill="#b6ae7b"/>
  <path d="m23.812 15.5c-0.0891-0.17857-0.35313-0.35834-0.60137-0.12818s-0.09229 0.24212-0.0031 0.24986c0.08915 0.0078 0.20656 0.0075 0.30366 0.01238 0.0971 0.0051 0.38994 0.04445 0.30084-0.13412z" fill="#84392d"/>
 </g>
</svg>
