<?xml version="1.0" encoding="UTF-8"?>
<svg width="32" height="32" version="1.1" viewBox="0 0 8.4667 8.4667" xmlns="http://www.w3.org/2000/svg">
 <g transform="matrix(-2.0529 0 0 2.0529 10.49 -8.9527)">
  <path d="m1.7306 8.033 0.00465-0.92212s0.048502-0.18066 0.31242-0.1876c0.26392-0.00694 0.34537 0.18744 0.34537 0.18744l1.3266-3.194e-4s0.035223-0.22549 0.32811-0.2174c0.29288 0.00809 0.32512 0.21724 0.32512 0.21724l0.017007 0.94798-0.66861 0.024506-0.01175-0.55304 0.00426 0.59226-0.66171-6.085e-4v-0.19501z" fill="#6d4f17"/>
  <circle cx="2.0678" cy="8.0328" r=".33501" fill="#4f3911"/>
  <path d="m2.0061 7.4086 0.00856-0.92378s0.017468-0.18137 0.31685-0.17365c0.29938 0.00773 0.30509 0.17558 0.30509 0.17558l-0.00365-0.089545s0.026206-0.2414 0.36812-0.23375c0.34191 0.00764 0.3274 0.22723 0.3274 0.22723l0.00175 0.32872s0.027264-0.21146 0.3132-0.20764c0.28594 0.00382 0.32344 0.20591 0.32344 0.20591l0.022059 0.78909-1.0007-0.13016z" fill="#815c1b"/>
  <circle cx="2.336" cy="7.4129" r=".33501" fill="#5e4415"/>
  <circle cx="2.7114" cy="7.958" r=".33501" fill="#4f3911"/>
  <circle cx="3.3826" cy="8.11" r=".33501" fill="#4f3911"/>
  <circle cx="2.9963" cy="7.3755" r=".33501" fill="#5e4415"/>
  <circle cx="3.6553" cy="7.5112" r=".33501" fill="#5e4415"/>
  <circle cx="4.0587" cy="8.0462" r=".33501" fill="#4f3911"/>
 </g>
</svg>
