<?xml version="1.0" encoding="UTF-8"?>
<svg width="32" height="32" version="1.1" viewBox="0 0 8.4667 8.4667" xml:space="preserve" xmlns="http://www.w3.org/2000/svg"><path d="m2.7942 8.0786s0.23789 0.23196 0.38749 0.24561c0.1496 0.013642 0.32658-0.03374 0.32658-0.03374s0.1297 0.16424 1.0893 0.16159c0.95956-0.00265 1.1165-0.60172 1.1165-0.60172s-0.083691-0.37679-0.12987-0.62946c-0.046178-0.25267-0.11016-0.65838-0.11016-0.65838s0.33046-0.13645 0.20558-0.52644-0.28124-0.68651-0.19336-0.77618c0.087874-0.089675 0.16834-0.15575 0.16941-0.18131 0.00108-0.025562-0.016899-0.03989-0.016899-0.03989s0.041013-0.035788 0.00516-0.070382c-0.035854-0.034594-0.23588-0.15698-0.24605-0.20385-0.010168-0.046876-0.00889-0.16593-0.00889-0.16593s0.55694-0.37955 0.36156-0.66299-0.45845-0.59838-0.45845-0.59838-0.029244-0.21878-0.11933-0.35838c-0.090091-0.13959-0.18847-0.23701-0.069557-0.52095 0.11892-0.28395 0.24632-0.44983 0.094001-0.78383-0.15231-0.334-0.30842-0.74255-0.65596-0.79357-0.34754-0.051023-1.0247-0.091176-1.3158 0.20273-0.29108 0.2939-0.26516 0.5331-0.26516 0.5331s-0.20596 0.11116-0.19744 1.0694c0.00852 0.95827-0.078332 1.8214 0.041631 1.898 0.11996 0.076603 0.17809 0.074695 0.17809 0.074695s0.037665 0.25435 0.046051 0.50814c0.00838 0.25378-0.015224 0.43276-0.015224 0.43276s0.10197 0.2252 0.26024 0.34376 0.2649 0.19129 0.2649 0.19129 0.00452 0.18804-0.28082 0.39396-0.43056 0.38656-0.45065 0.66397c-0.020085 0.27741-0.012898 0.88635-0.012898 0.88635z" fill="#eee"/><g fill="none" stroke-width=".26458px"><path d="m3.5385 6.1343s0.47589 0.33295 0.93305 0.48665 1.0024-0.058469 1.0024-0.058469" stroke="#c4c4c4"/><g stroke="#848484"><path d="m3.5007 2.452s0.17694-0.11897 0.31447-0.12933c0.13753-0.010367 0.2647 0.023813 0.2647 0.023813"/><path d="m4.2096 5.118s0.24256 0.099849 0.67456 0.08093c0.43201-0.018918 0.75463-0.16031 0.75463-0.16031"/><path d="m4.796 2.2945s0.095817-0.030104 0.23281-0.028928c0.13699 0.00117 0.1661 0.015558 0.1661 0.015558"/></g><path d="m2.9603 1.6162s0.12134 1.294 0.21455 2.1756c0.093208 0.8816-0.19226 0.86652-0.19226 0.86652" stroke="#c4c4c4"/><path d="m3.4578 7.38 0.050469 0.91046" stroke="#c4c4c4"/></g></svg>
