<?xml version="1.0" encoding="UTF-8"?>
<svg width="32" height="32" version="1.1" viewBox="0 0 8.4667 8.4667" xmlns="http://www.w3.org/2000/svg">
 <g fill="none" stroke="#895b86" stroke-linecap="round" stroke-width=".14525">
  <path d="m6.9215 5.7765s0.014079-0.3103-0.23294-0.58069c-0.3026-0.33122 0.010966-0.80608 0.35104-0.62147 0.24156 0.13114 0.19998 0.44113 0.0091955 0.47879-0.1908 0.037671-0.21969-0.14543-0.14945-0.2136"/>
  <path d="m3.9212 3.1829s0.014079-0.3103-0.23294-0.58069c-0.3026-0.33122 0.010966-0.80608 0.35104-0.62147 0.24156 0.13114 0.19998 0.44113 0.0092 0.47879-0.1908 0.037671-0.21969-0.14543-0.14945-0.2136"/>
  <path d="m6.8387 3.9858s-0.00799-0.085935-0.045076-0.2067c-0.034908-0.11366-0.098649-0.19488-0.098649-0.19488"/>
  <path d="m7.0331 3.9738s6.173e-4 -0.066374 0.019111-0.14562c0.021076-0.09034 0.05971-0.14726 0.05971-0.14726"/>
  <path d="m3.8319 8.072s-0.00799-0.085936-0.045076-0.2067c-0.034907-0.11366-0.098649-0.19488-0.098649-0.19488"/>
  <path d="m4.0263 8.06s6.173e-4 -0.066374 0.019112-0.14562c0.021077-0.09034 0.05971-0.14726 0.05971-0.14726"/>
  <path d="m1.3475 3.1768s-0.00799-0.085936-0.045076-0.2067c-0.034907-0.11366-0.098649-0.19488-0.098649-0.19488"/>
  <path d="m2.0315 3.7378s6.173e-4 -0.066374 0.019112-0.14562c0.021076-0.09034 0.05971-0.14726 0.05971-0.14726"/>
  <path d="m1.5498 2.7733s6.173e-4 -0.066374 0.019111-0.14562c0.021076-0.09034 0.05971-0.14726 0.05971-0.14726"/>
  <path d="m2.4095 3.2116s-6.172e-4 -0.066374-0.019112-0.14562c-0.021076-0.09034-0.05971-0.14726-0.05971-0.14726"/>
  <path d="m4.8004 1.5275s-6.172e-4 -0.066374-0.019112-0.14562c-0.021076-0.09034-0.05971-0.14726-0.05971-0.14726"/>
  <path d="m5.2409 4.4404s-6.173e-4 -0.066374-0.019112-0.14562c-0.021076-0.09034-0.05971-0.14726-0.05971-0.14726"/>
  <path d="m2.3965 5.8639s0.00799-0.085936 0.045076-0.2067c0.034909-0.11366 0.098649-0.19488 0.098649-0.19488"/>
  <path d="m1.9422 7.1606s0.00799-0.085936 0.045076-0.2067c0.034907-0.11366 0.098649-0.19488 0.098649-0.19488"/>
  <path d="m2.3908 1.6948s-0.00463-0.086183 0.014462-0.21106c0.017967-0.11753 0.069187-0.20718 0.069187-0.20718"/>
  <path d="m7.5639 6.5888s-0.00463-0.086183 0.014463-0.21106c0.017968-0.11753 0.069185-0.20718 0.069185-0.20718"/>
  <path d="m2.2022 5.8515s-6.173e-4 -0.066374-0.019112-0.14562c-0.021076-0.09034-0.05971-0.14726-0.05971-0.14726"/>
  <path d="m4.7867 7.6439s-6.173e-4 -0.11353-0.019112-0.24906c-0.021076-0.15451-0.05971-0.25187-0.05971-0.25187"/>
  <path d="m7.3267 6.8379s-6.174e-4 -0.066374-0.019112-0.14562c-0.021076-0.09034-0.05971-0.14726-0.05971-0.14726"/>
  <path d="m4.4649 5.6358s-6.173e-4 -0.066374-0.019112-0.14562c-0.021077-0.09034-0.05971-0.14726-0.05971-0.14726"/>
  <path d="m4.1606 3.2602s0.00799-0.085936 0.045076-0.2067c0.034909-0.11366 0.098649-0.19488 0.098649-0.19488"/>
  <path d="m3.6558 3.2751s-6.174e-4 -0.066374-0.019112-0.14562c-0.021076-0.09034-0.059713-0.14726-0.059713-0.14726"/>
  <path d="m6.1049 2.42s-0.014079-0.3103 0.23294-0.58069c0.3026-0.33122-0.010963-0.80608-0.35104-0.62147-0.24156 0.13114-0.19998 0.44113-0.0091908 0.47879 0.19079 0.037671 0.21968-0.14543 0.14945-0.2136"/>
  <path d="m0.83967 4.951s-0.014079-0.3103 0.23294-0.58069c0.3026-0.33122-0.010963-0.80608-0.35104-0.62147-0.24156 0.13114-0.19998 0.44113-0.009191 0.47879 0.19079 0.037671 0.21968-0.14543 0.14945-0.2136"/>
  <path d="m5.8628 2.4266s-6.174e-4 -0.066374-0.019112-0.14562c-0.021077-0.09034-0.059713-0.14726-0.059713-0.14726"/>
  <g stroke-linejoin="round">
   <path d="m1.7118 0.84903c0.1102 0.075256 0.055734 0.27642-0.11067 0.20755-0.29892-0.12371-0.057967-0.59677 0.22789-0.42628 0.23339 0.1392 0.26147 0.91851 0.26147 0.91851s-0.034283-0.41099 0.1854-0.60473"/>
   <path d="m2.5431 7.6421c-0.19294-0.080837-0.037418-0.38997 0.14709-0.27856 0.15065 0.090953 0.16877 0.60019 0.16877 0.60019s-0.022128-0.26856 0.11967-0.39516"/>
   <path d="m7.5003 1.6903c0.19294-0.080837 0.037418-0.38997-0.14709-0.27856-0.15065 0.090953-0.16877 0.60019-0.16877 0.60019s0.02213-0.26856-0.11967-0.39516"/>
   <path d="m5.9941 6.3559c-0.19294-0.080837-0.037417-0.38997 0.14709-0.27856 0.15065 0.090953 0.16877 0.60019 0.16877 0.60019s-0.02213-0.26856 0.11967-0.39516"/>
   <path d="m3.3188 4.1317c-0.10334 0.084425-0.031832 0.28018 0.12806 0.1973 0.28721-0.14888 0.00659-0.59957-0.26359-0.40518-0.2206 0.15869-0.18177 0.93754-0.18177 0.93754s-0.00109-0.41241-0.23656-0.5866"/>
   <path d="m0.22417 3.7455s-0.035584-0.40983 0.12749-0.60992"/>
  </g>
 </g>
 <g fill="#895b86" stroke-width=".36313">
  <circle cx="6.318" cy="3.699" r=".1068"/>
  <circle cx="2.3243" cy="4.402" r=".1068"/>
  <circle cx="3.3851" cy="5.0429" r=".1068"/>
  <circle cx="4.2043" cy="4.3809" r=".1068"/>
  <circle cx="3.2381" cy="3.2992" r=".1068"/>
  <circle cx="6.9723" cy="3.0125" r=".1068"/>
  <circle cx="5.3961" cy="3.8256" r=".1068"/>
  <circle cx="2.346" cy="2.2856" r=".1068"/>
  <circle cx="1.6275" cy="1.8044" r=".1068"/>
  <circle cx=".92726" cy="2.3329" r=".1068"/>
  <circle cx="3.2015" cy="1.9452" r=".1068"/>
  <circle cx="1.9726" cy="4.2059" r=".1068"/>
  <circle cx=".8553" cy="5.7488" r=".1068"/>
  <circle cx="1.778" cy="6.2928" r=".1068"/>
  <circle cx="1.0503" cy="6.7895" r=".1068"/>
  <circle cx="3.1412" cy="5.6065" r=".1068"/>
  <circle cx="4.1833" cy="6.839" r=".1068"/>
  <circle cx="7.8718" cy="5.1729" r=".1068"/>
  <circle cx="6.7947" cy="7.2288" r=".1068"/>
  <circle cx="5.3673" cy="6.6739" r=".1068"/>
  <circle cx="8.2151" cy="3.6183" r=".1068"/>
  <circle cx="7.6367" cy="4.6643" r=".1068"/>
  <circle cx="5.1394" cy="5.2949" r=".1068"/>
  <circle cx="5.0001" cy="6.1534" r=".1068"/>
  <circle cx="4.924" cy="2.4396" r=".1068"/>
  <circle cx="3.9601" cy="1.4008" r=".1068"/>
  <circle cx="5.5121" cy=".26939" r=".1068"/>
  <circle cx="6.6809" cy=".86206" r=".1068"/>
  <circle cx="3.529" cy=".86206" r=".1068"/>
  <circle cx="4.7413" cy=".53878" r=".1068"/>
  <circle cx="3.4482" cy=".26939" r=".1068"/>
  <circle cx=".4799" cy="5.3812" r=".1068"/>
  <circle cx="5.7779" cy="7.7197" r=".1068"/>
 </g>
</svg>
