<?xml version="1.0" encoding="UTF-8"?>
<svg width="32" height="32" version="1.1" viewBox="0 0 8.4667 8.4667" xmlns="http://www.w3.org/2000/svg">
 <g transform="matrix(1.0141 0 0 1.0141 -.11793 -.1182)" opacity=".333" stroke-linecap="round" stroke-linejoin="round">
  <path d="m8.3892 0.19069a8.2177 8.2177 0 0 0-8.2176 8.2181 8.2177 8.2177 0 0 0 8.2176 8.2176 8.2177 8.2177 0 0 0 8.2176-8.2176 8.2177 8.2177 0 0 0-8.2176-8.2181zm0 1.3183a6.8997 6.8997 0 0 1 6.8999 6.8999 6.8997 6.8997 0 0 1-6.8999 6.8993 6.8997 6.8997 0 0 1-6.8999-6.8993 6.8997 6.8997 0 0 1 6.8999-6.8999z" fill="#f00" stroke-width=".17648"/>
  <path d="m8.3892 0.86403a7.5446 7.5446 0 0 0-7.5448 7.5448 7.5446 7.5446 0 0 0 7.5448 7.5443 7.5446 7.5446 0 0 0 7.5448-7.5443 7.5446 7.5446 0 0 0-7.5448-7.5448zm0 1.3276a6.217 6.217 0 0 1 6.2172 6.2172 6.217 6.217 0 0 1-6.2172 6.2167 6.217 6.217 0 0 1-6.2172-6.2167 6.217 6.217 0 0 1 6.2172-6.2172z" fill="#ffab00" stroke-width=".16202"/>
  <path d="m8.3892 1.509a6.8997 6.8997 0 0 0-6.8999 6.8999 6.8997 6.8997 0 0 0 6.8999 6.8993 6.8997 6.8997 0 0 0 6.8999-6.8993 6.8997 6.8997 0 0 0-6.8999-6.8999zm0 1.4118a5.488 5.488 0 0 1 5.4881 5.4881 5.488 5.488 0 0 1-5.4881 5.4881 5.488 5.488 0 0 1-5.4881-5.4881 5.488 5.488 0 0 1 5.4881-5.4881z" fill="#fff800" stroke-width=".14817"/>
  <path d="m8.3892 2.1916a6.217 6.217 0 0 0-6.2172 6.2172 6.217 6.217 0 0 0 6.2172 6.2167 6.217 6.217 0 0 0 6.2172-6.2167 6.217 6.217 0 0 0-6.2172-6.2172zm0 1.4283a4.7885 4.7885 0 0 1 4.7884 4.7889 4.7885 4.7885 0 0 1-4.7884 4.7884 4.7885 4.7885 0 0 1-4.7884-4.7884 4.7885 4.7885 0 0 1 4.7884-4.7889z" fill="#03ff00" stroke-width=".13351"/>
  <path d="m8.3892 2.9208a5.488 5.488 0 0 0-5.4881 5.4881 5.488 5.488 0 0 0 5.4881 5.4881 5.488 5.488 0 0 0 5.4881-5.4881 5.488 5.488 0 0 0-5.4881-5.4881zm0 1.0718a4.416 4.416 0 0 1 4.4158 4.4163 4.416 4.416 0 0 1-4.4158 4.4158 4.416 4.416 0 0 1-4.4163-4.4158 4.416 4.416 0 0 1 4.4163-4.4163z" fill="#009eff" stroke-width=".11786"/>
  <path d="m8.3892 3.6199a4.7885 4.7885 0 0 0-4.7884 4.7889 4.7885 4.7885 0 0 0 4.7884 4.7884 4.7885 4.7885 0 0 0 4.7884-4.7884 4.7885 4.7885 0 0 0-4.7884-4.7889zm0 0.72606a4.0627 4.0627 0 0 1 4.0628 4.0628 4.0627 4.0627 0 0 1-4.0628 4.0623 4.0627 4.0627 0 0 1-4.0628-4.0623 4.0627 4.0627 0 0 1 4.0628-4.0628z" fill="#fc00ff" stroke-width=".10284"/>
 </g>
</svg>
