<?xml version="1.0" encoding="UTF-8"?>
<svg width="32" height="32" version="1.1" viewBox="0 0 8.4667 8.4667" xmlns="http://www.w3.org/2000/svg">
 <g transform="matrix(2.0648 0 0 2.0648 -9.0375 -602.8)">
  <path d="m8.4605 295.45-4.0292 0.0165s0.034217 0.31903 0.45372 0.56275c0.21345-6e-3 0.62487-0.0151 1.0118-3e-3 0.48614 0.0147 1.3746-0.022 1.7611-3e-3 0.57064-0.24859 0.80254-0.57361 0.80253-0.57361z" fill="#957a30"/>
  <g fill="none" stroke="#957a30" stroke-width=".17648">
   <path d="m6.2391 295.54v-2.3804"/>
   <path d="m7.2246 295.6v-2.0713"/>
   <path d="m5.2702 295.59v-2.0713"/>
  </g>
  <g fill="#ececec">
   <path d="m4.6856 294.14 1.186-0.7871 0.016703 1.5117-1.2194 0.80141z"/>
   <path d="m5.627 294.14 1.186-0.7871 0.016703 1.5117-1.2194 0.80141z"/>
   <path d="m6.6352 294.14 1.186-0.7871 0.016703 1.5117-1.2194 0.80141z"/>
  </g>
  <g fill="none">
   <path d="m5.9635 293.56h0.5596" stroke="#957a30" stroke-width=".13229"/>
   <g stroke="#5f4e1f" stroke-width=".19844">
    <path d="m4.8777 295.77h0.22551"/>
    <path d="m5.3078 295.77h0.22551"/>
    <path d="m5.7505 295.77h0.22551"/>
    <path d="m6.1931 295.77h0.22551"/>
    <path d="m6.6525 295.77h0.22551"/>
    <path d="m7.1035 295.77h0.22551"/>
    <path d="m7.5462 295.77h0.22551"/>
   </g>
  </g>
 </g>
</svg>
