<?xml version="1.0" encoding="UTF-8"?>
<svg width="32" height="32" version="1.1" viewBox="0 0 8.4667 8.4667" xmlns="http://www.w3.org/2000/svg">
 <g transform="matrix(2.3015 0 0 2.3015 -5.5032 -2.6557)" fill="#f8f6e8">
  <path d="m3.3314 4.4016-0.094888 6.25e-4 -0.00998 0.069331 0.10101-0.0043z"/>
  <path d="m3.5646 4.1776s-0.027155-0.037451-0.046665-0.18897c-0.01951-0.15152 0.057233-0.27187 0.057233-0.27187s-0.014491 0.1417 0.00667 0.25134c0.021164 0.10964 0.081648 0.21525 0.081648 0.21525z"/>
  <path d="m3.7965 4.0846s-0.027155-0.032831-0.046665-0.16564c-0.01951-0.13282 0.057233-0.23831 0.057233-0.23831s-0.014491 0.1242 0.00667 0.22031c0.021164 0.096102 0.081648 0.18868 0.081648 0.18868z"/>
  <path d="m4.0231 4.0376s-0.024599-0.02966-0.042273-0.14967c-0.017674-0.12001 0.051847-0.21534 0.051847-0.21534s-0.013127 0.11223 0.00604 0.19907c0.019172 0.086831 0.073964 0.17049 0.073964 0.17049z"/>
  <path d="m4.2987 4.0186s-0.024599-0.02966-0.042273-0.14967c-0.017674-0.12001 0.051847-0.21534 0.051847-0.21534s-0.013127 0.11223 0.00604 0.19907c0.019172 0.086831 0.073964 0.17049 0.073964 0.17049z"/>
  <path d="m3.8389 4.6896s-0.027155-0.037451-0.046665-0.18897c-0.01951-0.15152 0.057233-0.27187 0.057233-0.27187s-0.014491 0.1417 0.00667 0.25134c0.021164 0.10964 0.081648 0.21525 0.081648 0.21525z"/>
  <path d="m4.1376 4.7006s-0.027156-0.032831-0.046665-0.16564c-0.01951-0.13282 0.057233-0.23831 0.057233-0.23831s-0.014491 0.1242 0.00667 0.22031c0.021164 0.096102 0.081648 0.18868 0.081648 0.18868z"/>
  <path d="m4.3931 4.6736s-0.024599-0.02966-0.042273-0.14967c-0.017674-0.12001 0.051847-0.21534 0.051847-0.21534s-0.013127 0.11223 0.00604 0.19907c0.019172 0.086831 0.073964 0.17049 0.073964 0.17049z"/>
  <path d="m4.6226 4.6206s-0.024599-0.02966-0.042273-0.14967c-0.017674-0.12001 0.051847-0.21534 0.051847-0.21534s-0.013127 0.11223 0.00604 0.19907c0.019172 0.086832 0.073964 0.17049 0.073964 0.17049z"/>
  <path d="m4.6157 4.0536 0.032534-0.094571 0.035359 0.095301z"/>
  <path d="m4.9138 4.5076 0.032533-0.094572 0.035359 0.095302z"/>
  <path d="m5.0235 4.2026 0.092391-0.02163 0.025953 0.065061-0.099216 0.01946z"/>
  <path d="m5.176 4.1536 0.10296-0.049041 0.04698 0.074671-0.055764 0.02398-0.071167-6.76e-4z"/>
  <path d="m2.8598 4.4246s-0.05488-0.087851-0.22987-0.074961c-0.17499 0.01289-0.20975 0.10292-0.20975 0.10292s0.039995 0.02124 0.23085 0.0163c0.19085-0.0049 0.20878-0.044261 0.20878-0.044261z"/>
  <path d="m3.1157 4.7326 0.034299-0.064041 0.028437 0.067361z"/>
  <path d="m2.4617 4.5546 0.034299-0.064041 0.028437 0.067361z"/>
  <path d="m2.8106 4.6256 0.034299-0.02771 0.028437 0.029151z"/>
  <path d="m3.6234 4.3186 0.034299-0.027711 0.028437 0.029151z"/>
  <path d="m4.7356 4.2536 0.034299-0.02771 0.028437 0.02915z"/>
  <path d="m5.3242 4.4606 0.034299-0.02771 0.028437 0.029151z"/>
  <path d="m4.5669 4.8216 0.034299-0.02771 0.028438 0.029151z"/>
  <path d="m5.6644 3.9466 0.034299-0.02771 0.028437 0.029151z"/>
  <path d="m5.8862 3.7336 0.034299-0.02771 0.028437 0.029151z"/>
  <path d="m5.9838 3.8236 0.034299-0.056441 0.028437 0.059371z"/>
 </g>
</svg>
