<?xml version="1.0" encoding="UTF-8"?>
<svg width="32" height="32" version="1.1" viewBox="0 0 8.4667 8.4667" xmlns="http://www.w3.org/2000/svg">
 <path d="m1.9146 8.4479s0.37525-0.86405 2.3187-0.86405 2.3187 0.86405 2.3187 0.86405v-3.2892h-4.6332z" fill-opacity=".31072"/>
 <path d="m1.4e-7 6.0673 0.007503 2.3803 1.9071 3.514e-4s0.00304-2.5331 2.3187-2.5331c2.3157 0 2.3187 2.5331 2.3187 2.5331l1.9121-8.292e-4 0.0025263-2.3798-1.571-1.0935s0.16415 0.39091 0 0c-0.28708-0.68366-0.98648-1.6233-2.6623-1.6233-1.617 0-2.325 0.87485-2.6306 1.5504-0.19221 0.42491 0 0 0 0z" fill="#afafaf"/>
 <path d="m0 8.1839 0.0075033 0.2636 1.9071 3.513e-4s0.00304-2.3523 2.3187-2.3523c2.3157 0 2.3187 2.3523 2.3187 2.3523l1.9121-8.291e-4 0.0025263-0.26312-1.571-1.0935s0.16415 0.39091 0 0c-0.28708-0.68366-0.98648-1.6233-2.6623-1.6233-1.617 0-2.325 0.87485-2.6306 1.5504-0.19221 0.42491 0 0 0 0z" fill="#838383"/>
 <g fill="none" stroke="#838383" stroke-width=".26458px">
  <path d="m1.3775 7.3756v-0.87931"/>
  <path d="m2.0445 6.5968v-1.1215"/>
  <path d="m4.2333 5.547v-0.87931"/>
  <path d="m3.0802 5.7763v-0.87931"/>
  <path d="m7.9932 8.1555v-0.87931l-0.90402-0.81618s-0.58935-1.7923-2.8558-1.7923c-2.2665 0-2.8558 1.7923-2.8558 1.7923l-0.90402 0.81618v0.87931"/>
  <path d="m7.0892 7.3756v-0.87931"/>
  <path d="m6.4222 6.5968v-1.1009"/>
  <path d="m5.3865 5.7763v-0.87931"/>
  <path d="m1.3775 5.2589v-0.87931"/>
  <path d="m2.0445 4.4801v-1.1215"/>
  <path d="m4.2333 3.4304v-0.87931"/>
  <path d="m3.0802 3.6597v-0.87931"/>
  <path d="m7.9932 6.0388v-0.87931l-0.90402-0.81618s-0.58935-1.7923-2.8558-1.7923c-2.2665 0-2.8558 1.7923-2.8558 1.7923l-0.90402 0.81618v0.87931"/>
  <path d="m7.0892 5.2589v-0.87931"/>
  <path d="m6.4222 4.4801v-1.1009"/>
  <path d="m5.3865 3.6597v-0.87931"/>
 </g>
</svg>
