<?xml version="1.0" encoding="UTF-8"?>
<svg width="32" height="32" version="1.1" viewBox="0 0 8.4667 8.4667" xmlns="http://www.w3.org/2000/svg">
 <g transform="matrix(.75855 0 0 .75855 2.5077 4.0527)">
  <g fill="none" stroke="#000">
   <path d="m2.3913 5.1155v0.66615" stroke-width=".26458"/>
   <path d="m3.1438 5.2229v0.55513" stroke-width=".26458"/>
   <path d="m2.5799 5.1159h0.57086" stroke-linecap="round" stroke-width=".79375"/>
  </g>
  <ellipse cx="3.5982" cy="5.3281" rx=".27475" ry=".28323" style="paint-order:markers fill stroke"/>
  <path d="m2.3913 5.1155s-0.30677 0.037591-0.38811 0.2908" fill="none" stroke="#000" stroke-width=".13229"/>
 </g>
 <g transform="matrix(1.1814 0 0 1.1814 2.8581 1.0488)">
  <g fill="none" stroke="#000">
   <path d="m2.3913 5.1155v0.66615" stroke-width=".26458"/>
   <path d="m3.1438 5.2229v0.55513" stroke-width=".26458"/>
   <path d="m2.5799 5.1159h0.57086" stroke-linecap="round" stroke-width=".79375"/>
  </g>
  <ellipse cx="3.5982" cy="5.3281" rx=".27475" ry=".28323" style="paint-order:markers fill stroke"/>
  <path d="m2.3913 5.1155s-0.30677 0.037591-0.38811 0.2908" fill="none" stroke="#000" stroke-width=".13229"/>
 </g>
 <g transform="matrix(-1 0 0 1 5.015 -1.1832)">
  <g fill="none" stroke="#000">
   <path d="m2.3913 5.1155v0.66615" stroke-width=".26458"/>
   <path d="m3.1438 5.2229v0.55513" stroke-width=".26458"/>
   <path d="m2.5799 5.1159h0.57086" stroke-linecap="round" stroke-width=".79375"/>
  </g>
  <ellipse cx="3.5982" cy="5.0078" rx=".27475" ry=".28323" style="paint-order:markers fill stroke"/>
  <path d="m2.3913 5.1155s-0.30677 0.037591-0.38811 0.2908" fill="none" stroke="#000" stroke-width=".13229"/>
 </g>
</svg>
