<?xml version="1.0" encoding="UTF-8"?>
<svg width="32" height="32" version="1.1" viewBox="0 0 8.4667 8.4667" xmlns="http://www.w3.org/2000/svg">
 <path d="m7.595 2.2441 0.46621-0.093582 0.18218-0.76708s-1.8575 0.27054-4.0171 0.27054c-2.1596-4e-7 -4.0171-0.27054-4.0171-0.27054l0.18218 0.76708 0.46621 0.093582 3.3747 0.32296z" fill="#4a758c"/>
 <g fill="#a63e3e">
  <path d="m0.85769 2.2441v0.34679h6.7373v-0.34679z" color="#000000" stroke-width="1.237"/>
  <path d="m1.6246 2.4072v6.0408h0.31134v-6.0408z" color="#000000" stroke-width="1.237"/>
  <path d="m6.5877 2.4072v6.0408h0.30905v-6.0408z" color="#000000"/>
 </g>
 <g>
  <path d="m2.2724 5.5608 0.093462-0.2624-0.57903-0.085512-0.57903 0.085511 0.093462 0.2624 0.49127 0.69086z" fill="#4a758c"/>
  <rect x="1.4698" y="2.9765" width=".60657" height=".27927" fill="#a63e3e"/>
  <rect x="1.3012" y="5.5608" width=".97303" height=".18076" fill="#a63e3e"/>
  <path d="m7.2339 5.5608 0.093462-0.2624-0.57903-0.085512-0.57903 0.085511 0.093462 0.2624 0.49127 0.69086z" fill="#4a758c"/>
 </g>
 <g fill="#a63e3e">
  <rect x="6.2627" y="5.5608" width=".97303" height=".18076"/>
  <rect x="6.4318" y="2.9765" width=".60657" height=".27927"/>
  <rect x="1.4043" y="5.6834" width=".765" height="2.7834"/>
  <rect x="6.3662" y="5.6834" width=".765" height="2.7834"/>
 </g>
 <path d="m3.9972 3.0957-0.12926-0.57721h0.18104v-0.11723h0.3591v0.11723h0.18867l-0.12926 0.57721-0.22871 0.060392z" fill="#4f3623"/>
 <path d="m0.85769 3.0939v0.34424h6.7373v-0.34424z" color="#000000" fill="#a63e3e" stroke-width="1.237"/>
 <g fill="#b5a569">
  <rect x="1.5469" y="5.9063" width=".47387" height=".16473"/>
  <rect x="6.5082" y="5.9063" width=".47387" height=".16473"/>
  <rect x="1.5469" y="7.1054" width=".47387" height=".16473"/>
  <rect x="6.5082" y="7.1054" width=".47387" height=".16473"/>
 </g>
 <g fill="#a63e3e">
  <path d="m2.2716 8.4668-0.047759-0.10846-0.87409-2e-7 -0.047759 0.10846z"/>
  <path d="m7.234 8.4668-0.047759-0.10846-0.87409-2e-7 -0.047759 0.10846z"/>
  <path d="m2.2716 2.5788-0.047759 0.10846-0.87409 2e-7 -0.047759-0.10846 0.48394-0.028939z"/>
  <path d="m7.234 2.5788-0.047759 0.10846-0.87409 2e-7 -0.047759-0.10846 0.49267-0.028939z"/>
 </g>
 <rect x="4.1474" y="2.6515" width=".17249" height=".30212" fill="#6f6540"/>
</svg>
