<?xml version="1.0" encoding="UTF-8"?>
<svg width="32" height="32" version="1.1" viewBox="0 0 8.4667 8.4667" xmlns="http://www.w3.org/2000/svg">
 <path d="m0.60201 8.4015s0.30668-0.51926 3.6242-0.51926c3.3175 0 3.6741 0.52845 3.6741 0.52845v-2.1699h-7.3067z" fill-opacity=".23383"/>
 <path d="m8.3156 5.2248-0.41527 0.010865s-0.10989-0.87912-3.6568-0.87912c-3.5469 0-3.6415 0.86993-3.6415 0.86993l-0.43052-0.00168-1e-8 3.175 0.43052 0.00168s0.094635-0.86993 3.6415-0.86993c3.5469 0 3.6568 0.87912 3.6568 0.87912l0.41527-0.010865z" fill="#8d6d37"/>
 <g fill="none" stroke="#634d27" stroke-width=".25777px">
  <path d="m0.39238 8.2849 4e-8 -0.53107s0.22382-0.87137 3.8511-0.87137c3.6273 0 3.8511 0.87137 3.8511 0.87137v0.53107"/>
  <path d="m4.2435 7.4135v-0.53107"/>
  <path d="m5.2444 7.4641v-0.53107"/>
  <path d="m3.2426 7.4641v-0.53107"/>
  <path d="m6.2555 7.5469v-0.53107"/>
  <path d="m2.2518 7.5469v-0.53107"/>
  <path d="m1.2508 7.7494v-0.53107"/>
  <path d="m7.2564 7.7494v-0.53107"/>
  <path d="m0.39238 5.3847 1e-7 -0.53107s0.22382-0.87137 3.8511-0.87137c3.6273 0 3.8511 0.87137 3.8511 0.87137v0.53107"/>
  <path d="m4.2435 4.5133v-0.53107"/>
  <path d="m5.2444 4.5639v-0.53107"/>
  <path d="m3.2426 4.5639v-0.53107"/>
  <path d="m6.2555 4.6467v-0.53107"/>
  <path d="m2.2518 4.6467v-0.53107"/>
  <path d="m1.2508 4.8492v-0.53107"/>
  <path d="m7.2564 4.8492v-0.53107"/>
 </g>
</svg>
