<?xml version="1.0" encoding="UTF-8"?>
<svg width="32" height="32" version="1.1" viewBox="0 0 8.4667 8.4667" xmlns="http://www.w3.org/2000/svg">
 <g fill="#3d82aa">
  <path transform="matrix(1.1207 0 0 1.1207 -.62959 -.75241)" d="m1.7004 2.4835 0.26664 0.7671 0.81195 0.016546-0.64716 0.49064 0.23517 0.77733-0.66661-0.46387-0.66661 0.46387 0.23517-0.77733-0.64716-0.49064 0.81195-0.016546z" opacity=".19668"/>
  <path transform="matrix(.62103 0 0 .62103 4.3192 -1.1842)" d="m1.7004 2.4835 0.26664 0.7671 0.81195 0.016546-0.64716 0.49064 0.23517 0.77733-0.66661-0.46387-0.66661 0.46387 0.23517-0.77733-0.64716-0.49064 0.81195-0.016546z" opacity=".1404"/>
  <path transform="matrix(.62103 0 0 .62103 1.0362 4.3847)" d="m1.7004 2.4835 0.26664 0.7671 0.81195 0.016546-0.64716 0.49064 0.23517 0.77733-0.66661-0.46387-0.66661 0.46387 0.23517-0.77733-0.64716-0.49064 0.81195-0.016546z" opacity=".1404"/>
  <path transform="matrix(.62103 0 0 .62103 6.187 .72643)" d="m1.7004 2.4835 0.26664 0.7671 0.81195 0.016546-0.64716 0.49064 0.23517 0.77733-0.66661-0.46387-0.66661 0.46387 0.23517-0.77733-0.64716-0.49064 0.81195-0.016546z" opacity=".1404"/>
  <path transform="matrix(2.3343 0 0 2.3343 1.9275 -2.8129)" d="m1.7004 2.4835 0.26664 0.7671 0.81195 0.016546-0.64716 0.49064 0.23517 0.77733-0.66661-0.46387-0.66661 0.46387 0.23517-0.77733-0.64716-0.49064 0.81195-0.016546z" opacity=".26766"/>
 </g>
</svg>
