<?xml version="1.0" encoding="UTF-8"?>
<svg width="32" height="32" version="1.1" viewBox="0 0 8.4667 8.4667" xmlns="http://www.w3.org/2000/svg">
 <g transform="translate(0 -288.53)">
  <g transform="rotate(30 5.6635 291.86)" opacity=".33438">
   <path d="m0.74517 291.45c-0.14085-2e-3 -0.23409 0.0522-0.27285 0.12195-0.088588 0.15945 0.33671 0.40743 0.34261 0.81494 0.005906 0.40747 0.16551 0.38977 0.27182 0.37207 0.10631-0.0178 0.2775-0.0119 0.2775-0.0119s-0.63791 0.24221-0.25993 0.75602c0.37798 0.51381 0.69091 0.40762 0.89762 0.0651 0.20671-0.34254 0.23616-0.52555 0.23616-0.52555s-0.013398 0.18448 0.065112 0.18448c0.078511 0 0.065112-0.18448 0.065112-0.18448s0.029456 0.18301 0.23616 0.52555c0.20671 0.3425 0.51964 0.44869 0.89762-0.0651 0.37798-0.51381-0.25993-0.75602-0.25993-0.75602s0.1712-6e-3 0.2775 0.0119c0.10631 0.0177 0.26591 0.0354 0.27182-0.37207 0.00591-0.40751 0.4312-0.65549 0.34261-0.81494-0.088588-0.15946-0.46044-0.23623-1.0392 0.24805-0.36739 0.30742-0.58708 0.60236-0.69867 0.77722-0.010957-0.018-0.02282-0.0379-0.034107-0.0568-0.033781-0.0569-0.095823-0.0603-0.13126-6e-3 -0.012701 0.0196-0.023677 0.0334-0.032556 0.0439-0.11498-0.17673-0.33152-0.46178-0.68626-0.75861-0.32556-0.27241-0.58579-0.3675-0.76688-0.37z" fill="#6f3d3d"/>
   <path d="m2.2723 292.54s-0.051676-0.12402-0.084159-0.29825c-0.032482-0.17422-0.032482-0.251-0.032482-0.251" fill="none" stroke="#6f3d3d" stroke-width=".026458"/>
   <circle cx="2.1587" cy="291.98" r=".053153" fill="#6f3d3d" opacity="1" style="paint-order:markers stroke fill"/>
   <path d="m2.3132 292.55s0.051676-0.12402 0.084159-0.29825c0.032482-0.17422 0.032482-0.251 0.032482-0.251" fill="none" stroke="#6f3d3d" stroke-width=".026458"/>
   <circle transform="scale(-1,1)" cx="-2.4267" cy="291.99" r=".053153" fill="#6f3d3d" style="paint-order:markers stroke fill"/>
  </g>
  <g transform="matrix(-1.3394 .3589 .3589 1.3394 -96.028 -98.065)" opacity=".33438">
   <path d="m0.74517 291.45c-0.14085-2e-3 -0.23409 0.0522-0.27285 0.12195-0.088588 0.15945 0.33671 0.40743 0.34261 0.81494 0.005906 0.40747 0.16551 0.38977 0.27182 0.37207 0.10631-0.0178 0.2775-0.0119 0.2775-0.0119s-0.63791 0.24221-0.25993 0.75602c0.37798 0.51381 0.69091 0.40762 0.89762 0.0651 0.20671-0.34254 0.23616-0.52555 0.23616-0.52555s-0.013398 0.18448 0.065112 0.18448c0.078511 0 0.065112-0.18448 0.065112-0.18448s0.029456 0.18301 0.23616 0.52555c0.20671 0.3425 0.51964 0.44869 0.89762-0.0651 0.37798-0.51381-0.25993-0.75602-0.25993-0.75602s0.1712-6e-3 0.2775 0.0119c0.10631 0.0177 0.26591 0.0354 0.27182-0.37207 0.00591-0.40751 0.4312-0.65549 0.34261-0.81494-0.088588-0.15946-0.46044-0.23623-1.0392 0.24805-0.36739 0.30742-0.58708 0.60236-0.69867 0.77722-0.010957-0.018-0.02282-0.0379-0.034107-0.0568-0.033781-0.0569-0.095823-0.0603-0.13126-6e-3 -0.012701 0.0196-0.023677 0.0334-0.032556 0.0439-0.11498-0.17673-0.33152-0.46178-0.68626-0.75861-0.32556-0.27241-0.58579-0.3675-0.76688-0.37z" fill="#3d556f"/>
   <path d="m2.2723 292.54s-0.051676-0.12402-0.084159-0.29825c-0.032482-0.17422-0.032482-0.251-0.032482-0.251" fill="none" stroke="#3d556f" stroke-width=".026458"/>
   <circle cx="2.1587" cy="291.98" r=".053153" fill="#3d556f" opacity="1" style="paint-order:markers stroke fill"/>
   <path d="m2.3132 292.55s0.051676-0.12402 0.084159-0.29825c0.032482-0.17422 0.032482-0.251 0.032482-0.251" fill="none" stroke="#3d556f" stroke-width=".026458"/>
   <circle transform="scale(-1,1)" cx="-2.4267" cy="291.99" r=".053153" fill="#3d556f" style="paint-order:markers stroke fill"/>
  </g>
  <g>
   <circle cx="1.5201" cy="294.46" r=".4009" fill="#3d6f50" opacity=".33438" style="paint-order:markers stroke fill"/>
   <circle cx="6.2641" cy="290.52" r=".4009" fill="#3d6f50" opacity=".33438" style="paint-order:markers stroke fill"/>
   <circle cx="7.8009" cy="291.11" r=".26727" fill="#3d6f6e" opacity=".33438" style="paint-order:markers stroke fill"/>
   <circle cx=".96885" cy="292.96" r=".26727" fill="#686f3d" opacity=".33438" style="paint-order:markers stroke fill"/>
   <circle cx="3.3075" cy="296.05" r=".26727" fill="#3d556f" opacity=".33438" style="paint-order:markers stroke fill"/>
   <circle cx="5.312" cy="289.67" r=".18375" fill="#576f3d" opacity=".33438" style="paint-order:markers stroke fill"/>
   <circle cx="7.4334" cy="289.25" r=".18375" fill="#3d556f" opacity=".33438" style="paint-order:markers stroke fill"/>
   <circle cx="5.4623" cy="291.99" r=".18375" fill="#3d6f4d" opacity=".33438" style="paint-order:markers stroke fill"/>
   <circle cx="3.7919" cy="292.88" r=".18375" fill="#3d6f4d" opacity=".33438" style="paint-order:markers stroke fill"/>
   <circle cx="1.2862" cy="295.9" r=".18375" fill="#3d6d6f" opacity=".33438" style="paint-order:markers stroke fill"/>
  </g>
 </g>
</svg>
