<?xml version="1.0" encoding="UTF-8"?>
<svg width="32" height="32" version="1.1" viewBox="0 0 8.4667 8.4667" xmlns="http://www.w3.org/2000/svg">
 <g fill="none" stroke="#7f197a" stroke-linecap="round" stroke-width=".26458">
  <path transform="translate(.084176 -.083491)" d="m3.1053 3.7547c0.083181 0.022288 0.010994 0.12312-0.037045 0.13825-0.13018 0.041001-0.23407-0.096091-0.23946-0.21234-0.0096494-0.20795 0.19455-0.35085 0.38764-0.34067 0.28337 0.014946 0.46995 0.29392 0.44188 0.56294-0.037412 0.35855-0.39357 0.58995-0.73823 0.54308-0.43372-0.05898-0.71042-0.49334-0.64429-0.91353 0.080088-0.50891 0.59316-0.83115 1.0888-0.7455 0.58412 0.10093 0.95204 0.69303 0.84671 1.2641-0.12161 0.65935-0.79292 1.073-1.4394 0.94792-0.7346-0.14218-1.1941-0.89283-1.0491-1.6147 0.16267-0.80985 0.99275-1.3153 1.79-1.1503 0.88512 0.1831 1.4364 1.0927 1.2515 1.9653-0.20349 0.96039-1.1926 1.5576-2.1406 1.3527-1.0357-0.22385-1.6789-1.2926-1.454-2.3159 0.24418-1.1109 1.3925-1.8001 2.4912-1.5552 1.1537 0.25725 1.8884 1.4302 1.6738 2.5818" opacity=".18134"/>
  <path transform="translate(3.6115 2.8297)" d="m3.1053 3.7547c0.083181 0.022288 0.010994 0.12312-0.037045 0.13825-0.13018 0.041001-0.23407-0.096091-0.23946-0.21234-0.0096494-0.20795 0.19455-0.35085 0.38764-0.34067 0.28337 0.014946 0.46995 0.29392 0.44188 0.56294-0.037412 0.35855-0.39357 0.58995-0.73823 0.54308-0.43372-0.05898-0.71042-0.49334-0.64429-0.91353 0.080088-0.50891 0.59316-0.83115 1.0888-0.7455 0.58412 0.10093 0.95204 0.69303 0.84671 1.2641-0.084772 0.45962-0.44943 0.82647-0.90064 0.93591" opacity=".18134"/>
  <path transform="translate(3.8148 -1.8907)" d="m3.1053 3.7547c0.083181 0.022288 0.010994 0.12312-0.037045 0.13825-0.13018 0.041001-0.23407-0.096091-0.23946-0.21234-0.0096494-0.20795 0.19455-0.35085 0.38764-0.34067 0.28337 0.014946 0.46995 0.29392 0.44188 0.56294-0.037412 0.35855-0.39357 0.58995-0.73823 0.54308-0.43372-0.05898-0.71042-0.49334-0.64429-0.91353 0.080088-0.50891 0.59316-0.83115 1.0888-0.7455 0.018822 0.00325 0.037551 0.00705 0.056157 0.01137" opacity=".18134"/>
  <path transform="rotate(-90 4.3271 5.6512)" d="m3.1053 3.7547c0.083181 0.022288 0.010994 0.12312-0.037045 0.13825-0.13018 0.041001-0.23407-0.096091-0.23946-0.21234-0.0096494-0.20795 0.19455-0.35085 0.38764-0.34067 0.28337 0.014946 0.46995 0.29392 0.44188 0.56294-0.037412 0.35855-0.39357 0.58995-0.73823 0.54308-0.43372-0.05898-0.71042-0.49334-0.64429-0.91353 0.080088-0.50891 0.59316-0.83115 1.0888-0.7455 0.018822 0.00325 0.037551 0.00705 0.056157 0.01137" opacity=".18134"/>
 </g>
 <g fill="#801b79">
  <circle cx="1.039" cy=".99243" r=".18267" opacity=".091872"/>
  <circle cx="2.4374" cy=".48748" r=".18267" opacity=".091872"/>
  <circle cx="5.2578" cy="1.4624" r=".18267" opacity=".091872"/>
  <circle cx="6.7202" cy="3.5516" r=".18267" opacity=".091872"/>
  <circle cx="7.8345" cy="3.099" r=".18267" opacity=".091872"/>
  <circle cx="8.0434" cy="4.631" r=".18267" opacity=".091872"/>
  <circle cx="5.8846" cy="4.8051" r=".18267" opacity=".091872"/>
  <circle cx="4.2132" cy="6.3024" r=".18267" opacity=".091872"/>
  <circle cx="5.3274" cy="7.2425" r=".18267" opacity=".091872"/>
  <circle cx="4.5614" cy="7.9389" r=".18267" opacity=".091872"/>
  <circle cx=".48748" cy="5.8846" r=".18267" opacity=".091872"/>
  <circle cx=".27856" cy="3.7954" r=".18267" opacity=".091872"/>
  <circle cx="1.9847" cy="1.1142" r=".18267" opacity=".091872"/>
  <circle cx="3.8998" cy="7.1032" r=".18267" opacity=".091872"/>
  <circle cx="5.1882" cy="5.5364" r=".18267" opacity=".091872"/>
  <circle cx="7.1381" cy="4.84" r=".18267" opacity=".091872"/>
  <circle cx="4.1436" cy="1.1142" r=".18267" opacity=".091872"/>
  <circle cx=".94014" cy="4.7703" r=".18267" opacity=".091872"/>
  <circle cx="1.7062" cy="5.7801" r=".18267" opacity=".091872"/>
 </g>
</svg>
