<?xml version="1.0" encoding="UTF-8"?>
<svg width="32" height="32" version="1.1" viewBox="0 0 8.4667 8.4667" xmlns="http://www.w3.org/2000/svg">
 <path d="m1.6419 6.3752c0.44055-0.1491 0.86249 0.042421 0.86249 0.042421s-0.086918 0.31731-0.59568 0.50105c-0.50876 0.18374-0.88152-0.043228-0.88152-0.043228s0.17416-0.35115 0.61471-0.50025z" fill="#fff"/>
 <path d="m2.0209 6.6095s0.23813-0.03447 0.48346-0.2127c0.22599-0.16418 0.34235-0.3444 0.34235-0.3444" fill="none" stroke="#fffffe" stroke-linecap="round" stroke-width=".11629"/>
 <path d="m5.4627 3.5469c-0.4639 0.033278-0.77865 0.37334-0.77865 0.37334s0.20309 0.25884 0.7433 0.23106c0.54021-0.027777 0.79588-0.38146 0.79588-0.38146s-0.29663-0.25622-0.76053-0.22294z" fill="#fff"/>
 <path d="m5.2041 3.9098s-0.23288 0.060507-0.52811-0.00872c-0.27195-0.063771-0.44907-0.18482-0.44907-0.18482" fill="none" stroke="#fffffe" stroke-linecap="round" stroke-width=".11629"/>
 <path d="m7.1409 6.8408c-0.25376-0.38977-0.70371-0.50047-0.70371-0.50047s-0.12811 0.30303 0.15779 0.76223c0.2859 0.4592 0.71916 0.51162 0.71916 0.51162s0.08053-0.38361-0.17323-0.77337z" fill="#fff"/>
 <path d="m6.6982 6.7903s-0.16571-0.17446-0.2481-0.46628c-0.075902-0.26882-0.055761-0.4824-0.055761-0.4824" fill="none" stroke="#fffffe" stroke-linecap="round" stroke-width=".11629"/>
 <path d="m4.9475 5.5154c-0.40214 0.23366-0.85372 0.1298-0.85372 0.1298s0.022136-0.32826 0.48424-0.60942c0.46211-0.28117 0.87253-0.13279 0.87253-0.13279s-0.10092 0.37875-0.50305 0.61241z" fill="#fff"/>
 <path d="m4.5294 5.3611s-0.22654 0.0811-0.43156 0.30452c-0.18886 0.20581-0.2671 0.40556-0.2671 0.40556" fill="none" stroke="#fffffe" stroke-linecap="round" stroke-width=".11629"/>
 <path d="m6.6583 1.5141c0.44804-0.12479 0.68894-0.52062 0.68894-0.52062s-0.25047-0.21332-0.77439-0.078757c-0.52392 0.13456-0.70422 0.53199-0.70422 0.53199s0.34163 0.19217 0.78967 0.067378z" fill="#fff"/>
 <path d="m6.8397 1.107s0.21622-0.10557 0.51931-0.096383c0.2792 0.00846 0.47684 0.0919 0.47684 0.0919" fill="none" stroke="#fffffe" stroke-linecap="round" stroke-width=".11629"/>
 <path d="m0.96185 1.7243c0.32615 0.33157 0.78912 0.35067 0.78912 0.35067s0.065347-0.32245-0.30609-0.71568c-0.37144-0.39323-0.80647-0.35852-0.80647-0.35852s-0.002703 0.39196 0.32344 0.72353z" fill="#fff"/>
 <path d="m1.4058 1.6858s0.19707 0.13805 0.33581 0.40769c0.1278 0.24838 0.1505 0.4617 0.1505 0.4617" fill="none" stroke="#fffffe" stroke-linecap="round" stroke-width=".11629"/>
 <path d="m1.0426 3.9349c-0.35035-0.032062-0.62699 0.18316-0.62699 0.18316s0.11984 0.21811 0.52647 0.26364c0.40663 0.045528 0.64084-0.18711 0.64084-0.18711s-0.18998-0.22763-0.54033-0.25969z" fill="#fff"/>
 <path d="m0.80511 4.1741s-0.18125 0.016599-0.39312-0.071285c-0.19517-0.080956-0.31252-0.19303-0.31252-0.19303" fill="none" stroke="#fffffe" stroke-linecap="round" stroke-width=".087967"/>
 <path d="m3.3446 7.6113c0.34712-0.057252 0.63857 0.13745 0.63857 0.13745s-0.1038 0.22619-0.50608 0.30093c-0.40228 0.074743-0.65267-0.14039-0.65267-0.14039s0.17307-0.24074 0.52019-0.29799z" fill="#fff"/>
 <path d="m3.5987 7.8327s0.18197 0.00348 0.38695-0.099462c0.18882-0.094821 0.29778-0.21507 0.29778-0.21507" fill="none" stroke="#fffffe" stroke-linecap="round" stroke-width=".087967"/>
 <path d="m2.8981 2.9788c0.29739-0.18796 0.64167-0.12218 0.64167-0.12218s-0.00748 0.24875-0.34886 0.47431c-0.34138 0.22556-0.6558 0.12497-0.6558 0.12497s0.065605-0.28914 0.36299-0.4771z" fill="#fff"/>
 <path d="m3.2185 3.0837s0.16895-0.06769 0.31763-0.24235c0.13696-0.16089 0.19047-0.31409 0.19047-0.31409" fill="none" stroke="#fffffe" stroke-linecap="round" stroke-width=".087967"/>
 <path d="m7.441 5.1144c0.33699 0.10104 0.65088-0.054927 0.65088-0.054927s-0.074116-0.23757-0.46359-0.36299c-0.38947-0.12542-0.66524 0.056041-0.66524 0.056041s0.14097 0.26084 0.47795 0.36187z" fill="#fff"/>
 <path d="m7.7213 4.9272s0.18093 0.019747 0.37112 0.14798c0.17519 0.11812 0.26793 0.25128 0.26793 0.25128" fill="none" stroke="#fffffe" stroke-linecap="round" stroke-width=".087967"/>
 <path d="m3.1802 0.6634c-0.35157-0.012862-0.59852-0.2616-0.59852-0.2616s0.14667-0.20105 0.55579-0.19437c0.40911 0.006683 0.61176 0.26728 0.61176 0.26728s-0.21745 0.20155-0.56902 0.18869z" fill="#fff"/>
 <path d="m2.9751 0.39592s-0.17766-0.039567-0.399 0.020592c-0.2039 0.055415-0.33458 0.15161-0.33458 0.15161" fill="none" stroke="#fffffe" stroke-linecap="round" stroke-width=".087967"/>
 <path d="m5.0231 0.90123c-0.32881 0.12512-0.65315-0.007758-0.65315-0.007758s0.056756-0.24231 0.43615-0.39554c0.37939-0.15323 0.66756 0.007835 0.66756 0.007835s-0.12175 0.27034-0.45056 0.39546z" fill="#fff"/>
 <path d="m4.73 0.73478s-0.17903 0.032769-0.35945 0.17441c-0.1662 0.13047-0.24908 0.26998-0.24908 0.26998" fill="none" stroke="#fffffe" stroke-linecap="round" stroke-width=".087967"/>
</svg>
