<?xml version="1.0" encoding="UTF-8"?>
<svg width="32" height="32" version="1.1" viewBox="0 0 8.4667 8.4667" xmlns="http://www.w3.org/2000/svg">
 <g>
  <path transform="translate(2.9945 -1.1114)" d="m3.4762 1.441 1.3176 0.7607v1.5214l-1.3176 0.7607-1.3176-0.7607 1e-7 -1.5214z" fill="#19cc32" opacity=".14695"/>
  <path transform="matrix(.60944 0 0 .60944 2.6178 5.4681)" d="m3.4762 1.441 1.3176 0.7607v1.5214l-1.3176 0.7607-1.3176-0.7607 1e-7 -1.5214z" fill="#3777ae" opacity=".21518"/>
  <path transform="matrix(.60944 0 0 .60944 4.9147 3.4695)" d="m3.4762 1.441 1.3176 0.7607v1.5214l-1.3176 0.7607-1.3176-0.7607 1e-7 -1.5214z" fill="#37ae8d" opacity=".21518"/>
  <path transform="matrix(1.2439 0 0 1.2439 -2.5562 1.7088)" d="m3.4762 1.441 1.3176 0.7607v1.5214l-1.3176 0.7607-1.3176-0.7607 1e-7 -1.5214z" fill="#3777ae" opacity=".31938"/>
  <path transform="matrix(.60944 0 0 .60944 .53931 -.25968)" d="m3.4762 1.441 1.3176 0.7607v1.5214l-1.3176 0.7607-1.3176-0.7607 1e-7 -1.5214z" fill="#37ae8d" opacity=".21518"/>
 </g>
</svg>
