<?xml version="1.0" encoding="UTF-8"?>
<svg width="32" height="32" version="1.1" viewBox="0 0 8.4667 8.4667" xmlns="http://www.w3.org/2000/svg">
 <g fill="#fdfdfd">
  <path d="m0.91148 3.4475c-0.073467-2.876e-4 -0.1331 0.059342-0.13281 0.13281v0.3483l0.26562 0.00155v-0.34985c2.875e-4 -0.073467-0.059342-0.1331-0.13281-0.13281zm-0.59583 0.59583c-0.073467-2.875e-4 -0.1331 0.059342-0.13281 0.13281-2.876e-4 0.073467 0.059342 0.1331 0.13281 0.13281h0.34882l-5.167e-4 -0.26562zm0.84078 0-0.00103 0.26562h0.3514c0.073467 2.876e-4 0.1331-0.059342 0.13281-0.13281 2.875e-4 -0.073467-0.059342-0.1331-0.13281-0.13281zm-0.11214 0.37724-0.26562 0.00155v0.34933c-2.875e-4 0.073467 0.059342 0.1331 0.13281 0.13281 0.073467 2.875e-4 0.1331-0.059342 0.13281-0.13281z" color="#000000" opacity=".54468"/>
  <path d="m5.8222 2.7825c-0.073467-2.876e-4 -0.1331 0.059342-0.13281 0.13281v0.3483l0.26562 0.00155v-0.34985c2.875e-4 -0.073467-0.059342-0.1331-0.13281-0.13281zm-0.59583 0.59583c-0.073467-2.875e-4 -0.1331 0.059342-0.13281 0.13281-2.876e-4 0.073467 0.059342 0.1331 0.13281 0.13281h0.34882l-5.167e-4 -0.26562zm0.84078 0-0.00103 0.26562h0.3514c0.073467 2.876e-4 0.1331-0.059342 0.13281-0.13281 2.875e-4 -0.073467-0.059342-0.1331-0.13281-0.13281zm-0.11214 0.37724-0.26562 0.00155v0.34933c-2.875e-4 0.073467 0.059342 0.1331 0.13281 0.13281 0.073467 2.875e-4 0.1331-0.059342 0.13281-0.13281z" color="#000000" opacity=".54468"/>
  <path d="m7.6481 0.9235c-0.073467-2.876e-4 -0.1331 0.059342-0.13281 0.13281v0.3483l0.26562 0.00155v-0.34985c2.875e-4 -0.073467-0.059342-0.1331-0.13281-0.13281zm-0.59583 0.59583c-0.073467-2.875e-4 -0.1331 0.059342-0.13281 0.13281-2.876e-4 0.073467 0.059342 0.1331 0.13281 0.13281h0.34882l-5.167e-4 -0.26562zm0.84078 0-0.00103 0.26562h0.3514c0.073467 2.876e-4 0.1331-0.059342 0.13281-0.13281 2.875e-4 -0.073467-0.059342-0.1331-0.13281-0.13281zm-0.11214 0.37724-0.26562 0.00155v0.34933c-2.875e-4 0.073467 0.059342 0.1331 0.13281 0.13281 0.073467 2.875e-4 0.1331-0.059342 0.13281-0.13281z" color="#000000" opacity=".54468"/>
  <path d="m2.3691 0.63895c-0.073467-2.8755e-4 -0.1331 0.059342-0.13281 0.13281v0.3483l0.26562 0.00155v-0.34985c2.875e-4 -0.073467-0.059342-0.1331-0.13281-0.13281zm-0.59583 0.59583c-0.073467-2.875e-4 -0.1331 0.059342-0.13281 0.13281-2.876e-4 0.073467 0.059342 0.1331 0.13281 0.13281h0.34882l-5.168e-4 -0.26562zm0.84078 0-0.00103 0.26562h0.3514c0.073467 2.876e-4 0.1331-0.059342 0.13281-0.13281 2.875e-4 -0.073467-0.059342-0.1331-0.13281-0.13281zm-0.11214 0.37724-0.26562 0.00155v0.34933c-2.875e-4 0.073467 0.059342 0.1331 0.13281 0.13281 0.073467 2.875e-4 0.1331-0.059342 0.13281-0.13281z" color="#000000" opacity=".54468"/>
  <path d="m7.557 4.5134c-0.073467-2.876e-4 -0.1331 0.059342-0.13281 0.13281v0.3483l0.26562 0.00155v-0.34985c2.875e-4 -0.073467-0.059342-0.1331-0.13281-0.13281zm-0.59583 0.59583c-0.073467-2.875e-4 -0.1331 0.059342-0.13281 0.13281-2.876e-4 0.073467 0.059342 0.1331 0.13281 0.13281h0.34882l-5.167e-4 -0.26562zm0.84078 0-0.00103 0.26562h0.3514c0.073467 2.876e-4 0.1331-0.059342 0.13281-0.13281 2.875e-4 -0.073467-0.059342-0.1331-0.13281-0.13281zm-0.11214 0.37724-0.26562 0.00155v0.34933c-2.875e-4 0.073467 0.059342 0.1331 0.13281 0.13281 0.073467 2.875e-4 0.1331-0.059342 0.13281-0.13281z" color="#000000" opacity=".54468"/>
  <path d="m4.2005 4.893c-0.073467-2.876e-4 -0.1331 0.059342-0.13281 0.13281v0.3483l0.26562 0.00155v-0.34985c2.875e-4 -0.073467-0.059342-0.1331-0.13281-0.13281zm-0.59583 0.59583c-0.073467-2.875e-4 -0.1331 0.059342-0.13281 0.13281-2.876e-4 0.073467 0.059342 0.1331 0.13281 0.13281h0.34882l-5.167e-4 -0.26562zm0.84078 0-0.00103 0.26562h0.3514c0.073467 2.876e-4 0.1331-0.059342 0.13281-0.13281 2.875e-4 -0.073467-0.059342-0.1331-0.13281-0.13281zm-0.11214 0.37724-0.26562 0.00155v0.34933c-2.875e-4 0.073467 0.059342 0.1331 0.13281 0.13281 0.073467 2.875e-4 0.1331-0.059342 0.13281-0.13281z" color="#000000" opacity=".54468"/>
  <path d="m4.8008 0.12334c-0.073467-2.876e-4 -0.1331 0.059342-0.13281 0.13281v0.3483l0.26562 0.00155v-0.34985c2.875e-4 -0.073467-0.059342-0.1331-0.13281-0.13281zm-0.59583 0.59583c-0.073467-2.875e-4 -0.1331 0.059342-0.13281 0.13281-2.876e-4 0.073467 0.059342 0.1331 0.13281 0.13281h0.34882l-5.167e-4 -0.26562zm0.84078 0-0.00103 0.26562h0.3514c0.073467 2.876e-4 0.1331-0.059342 0.13281-0.13281 2.875e-4 -0.073467-0.059342-0.1331-0.13281-0.13281zm-0.11214 0.37724-0.26562 0.00155v0.34933c-2.875e-4 0.073467 0.059342 0.1331 0.13281 0.13281 0.073467 2.875e-4 0.1331-0.059342 0.13281-0.13281z" color="#000000" opacity=".54468"/>
  <path d="m6.4371 6.6037c-0.073467-2.876e-4 -0.1331 0.059342-0.13281 0.13281v0.3483l0.26562 0.00155v-0.34985c2.875e-4 -0.073467-0.059342-0.1331-0.13281-0.13281zm-0.59583 0.59583c-0.073467-2.875e-4 -0.1331 0.059342-0.13281 0.13281-2.876e-4 0.073467 0.059342 0.1331 0.13281 0.13281h0.34882l-5.167e-4 -0.26562zm0.84078 0-0.00103 0.26562h0.3514c0.073467 2.876e-4 0.1331-0.059342 0.13281-0.13281 2.875e-4 -0.073467-0.059342-0.1331-0.13281-0.13281zm-0.11214 0.37724-0.26562 0.00155v0.34933c-2.875e-4 0.073467 0.059342 0.1331 0.13281 0.13281 0.073467 2.875e-4 0.1331-0.059342 0.13281-0.13281z" color="#000000" opacity=".54468"/>
  <path d="m1.8779 5.7861c-0.073467-2.876e-4 -0.1331 0.059342-0.13281 0.13281v0.3483l0.26562 0.00155v-0.34985c2.875e-4 -0.073467-0.059342-0.1331-0.13281-0.13281zm-0.59583 0.59583c-0.073467-2.875e-4 -0.1331 0.059342-0.13281 0.13281-2.876e-4 0.073467 0.059342 0.1331 0.13281 0.13281h0.34882l-5.168e-4 -0.26562zm0.84078 0-0.00103 0.26562h0.3514c0.073467 2.876e-4 0.1331-0.059342 0.13281-0.13281 2.875e-4 -0.073467-0.059342-0.1331-0.13281-0.13281zm-0.11214 0.37724-0.26562 0.00155v0.34933c-2.875e-4 0.073467 0.059342 0.1331 0.13281 0.13281 0.073467 2.875e-4 0.1331-0.059342 0.13281-0.13281z" color="#000000" opacity=".54468"/>
 </g>
</svg>
