<?xml version="1.0" encoding="UTF-8"?>
<svg width="32" height="32" version="1.1" viewBox="0 0 8.4667 8.4667" xmlns="http://www.w3.org/2000/svg">
 <g stroke-linecap="round">
  <g opacity=".29022">
   <circle cx="1.0712" cy="2.7222" r=".3036" fill="#464646" stroke-dasharray="0.0661461, 0.198438" stroke-width=".066146"/>
   <path d="m1.2748 2.7124v-1.0042l0.27037 0.27037" fill="none" stroke="#464646" stroke-linejoin="round" stroke-width=".19844"/>
  </g>
  <g transform="translate(5.7555 1.4132)" opacity=".29022">
   <circle cx="1.0712" cy="2.7222" r=".3036" fill="#464646" stroke-dasharray="0.0661461, 0.198438" stroke-width=".066146"/>
   <path d="m1.2748 2.7124v-1.0042l0.27037 0.27037" fill="none" stroke="#464646" stroke-linejoin="round" stroke-width=".19844"/>
  </g>
  <g transform="translate(2.6873 2.3429)" opacity=".3817">
   <circle cx="1.0712" cy="2.7222" r=".3036" fill="#464646" stroke-dasharray="0.0661461, 0.198438" stroke-width=".066146"/>
   <path d="m1.2748 2.7124v-1.0042l0.27037 0.27037" fill="none" stroke="#464646" stroke-linejoin="round" stroke-width=".19844"/>
  </g>
  <g transform="translate(1.2927 4.8416)" opacity=".51735">
   <circle cx="1.0712" cy="2.7222" r=".3036" fill="#464646" stroke-dasharray="0.0661461, 0.198438" stroke-width=".066146"/>
   <path d="m1.2748 2.7124v-1.0042l0.27037 0.27037" fill="none" stroke="#464646" stroke-linejoin="round" stroke-width=".19844"/>
  </g>
  <g transform="translate(6.3366 3.8886)" opacity=".53312">
   <circle cx="1.0712" cy="2.7222" r=".3036" fill="#464646" stroke-dasharray="0.0661461, 0.198438" stroke-width=".066146"/>
   <path d="m1.2748 2.7124v-1.0042l0.27037 0.27037" fill="none" stroke="#464646" stroke-linejoin="round" stroke-width=".19844"/>
  </g>
  <g transform="matrix(1 0 0 -1 5.4334 8.9365)" opacity=".29022">
   <circle cx="1.0712" cy="2.7222" r=".3036" fill="#464646" stroke-dasharray="0.0661461, 0.198438" stroke-width=".066146"/>
   <path d="m1.2748 2.7124v-1.0042l0.27037 0.27037" fill="none" stroke="#464646" stroke-linejoin="round" stroke-width=".19844"/>
  </g>
  <g transform="matrix(1 0 0 -1 -.48542 7.6983)" opacity=".29022">
   <circle cx="1.0712" cy="2.7222" r=".3036" fill="#464646" stroke-dasharray="0.0661461, 0.198438" stroke-width=".066146"/>
   <path d="m1.2748 2.7124v-1.0042l0.27037 0.27037" fill="none" stroke="#464646" stroke-linejoin="round" stroke-width=".19844"/>
  </g>
  <g transform="matrix(1 0 0 -1 3.6636 3.2704)" opacity=".53312">
   <circle cx="1.0712" cy="2.7222" r=".3036" fill="#464646" stroke-dasharray="0.0661461, 0.198438" stroke-width=".066146"/>
   <path d="m1.2748 2.7124v-1.0042l0.27037 0.27037" fill="none" stroke="#464646" stroke-linejoin="round" stroke-width=".19844"/>
  </g>
 </g>
 <g fill="none" stroke="#3c3c3c" stroke-linecap="round" stroke-width=".26458">
  <path d="m2.775 2.8823s0.41394-0.39861 0.84322-0.091987c0.42928 0.30663 0.88921 0.01533 0.88921 0.01533" opacity=".097792"/>
  <path d="m3.0126 5.9892s0.41394-0.39861 0.84322-0.091987c0.42928 0.30663 0.88921 0.01533 0.88921 0.01533" opacity=".097792"/>
  <path d="m6.1095 2.1033s0.41394-0.39861 0.84322-0.091987c0.42928 0.30663 0.88921 0.01533 0.88921 0.01533" opacity=".097792"/>
  <path d="m0.60559 3.8664s0.41394-0.39861 0.84322-0.091987c0.42928 0.30663 0.88921 0.01533 0.88921 0.01533" opacity=".097792"/>
  <path d="m5.0057 7.9905s0.41394-0.39861 0.84322-0.091987c0.42928 0.30663 0.88921 0.01533 0.88921 0.01533" opacity=".097792"/>
  <path d="m5.8795 4.9396s0.41394-0.39861 0.84322-0.091987c0.42928 0.30663 0.88921 0.01533 0.88921 0.01533" opacity=".097792"/>
  <path d="m2.0161 1.3367s0.41394-0.39861 0.84322-0.091987c0.42928 0.30663 0.88921 0.01533 0.88921 0.01533" opacity=".097792"/>
 </g>
</svg>
