<?xml version="1.0" encoding="UTF-8"?>
<svg width="32" height="32" version="1.1" viewBox="0 0 8.4667 8.4667" xmlns="http://www.w3.org/2000/svg">
 <g fill="#41d76d">
  <path transform="matrix(1.2955 0 0 1.2955 -3.7905 -3.9207)" d="m4.5912 3.2868 0.22053 1.5703 1.2496 0.97612-1.4702-0.59416-1.4702 0.59416 1.2496-0.97612z" opacity=".30847"/>
  <path transform="matrix(.63513 0 0 -.63513 -1.874 7.9177)" d="m4.5912 3.2868 1.4702 2.5464h-1.4702l-1.4702-1e-7 0.73508-1.2732z" opacity=".18446"/>
  <path transform="matrix(2.0658 0 0 2.0658 -4.6104 -4.3454)" d="m4.5912 3.2868 0.22053 1.5703 1.2496 0.97612-1.4702-0.59416-1.4702 0.59416 1.2496-0.97612z" opacity=".45407"/>
  <path transform="matrix(.63513 0 0 .63513 2.7378 -1.8056)" d="m4.5912 3.2868 1.4702 2.5464h-1.4702l-1.4702-1e-7 0.73508-1.2732z" opacity=".18446"/>
  <path transform="matrix(.38541 0 0 .38541 5.511 2.8054)" d="m4.5912 3.2868 1.4702 2.5464h-1.4702l-1.4702-1e-7 0.73508-1.2732z" opacity=".18446"/>
  <path transform="matrix(.38541 0 0 -.38541 2.4793 9.7183)" d="m4.5912 3.2868 1.4702 2.5464h-1.4702l-1.4702-1e-7 0.73508-1.2732z" opacity=".18446"/>
  <path transform="matrix(.38541 0 0 .38541 1.3586 2.6717)" d="m4.5912 3.2868 1.4702 2.5464h-1.4702l-1.4702-1e-7 0.73508-1.2732z" opacity=".18446"/>
  <path transform="matrix(.38541 0 0 .38541 -.053165 4.651)" d="m4.5912 3.2868 1.4702 2.5464h-1.4702l-1.4702-1e-7 0.73508-1.2732z" opacity=".18446"/>
  <path transform="matrix(.22499 0 0 -.22499 5.0973 4.5426)" d="m4.5912 3.2868 1.4702 2.5464h-1.4702l-1.4702-1e-7 0.73508-1.2732z" opacity=".18446"/>
  <path transform="matrix(.22499 0 0 -.22499 6.1091 6.9971)" d="m4.5912 3.2868 1.4702 2.5464h-1.4702l-1.4702-1e-7 0.73508-1.2732z" opacity=".18446"/>
  <path transform="matrix(.22499 0 0 .22499 7.0088 2.4343)" d="m4.5912 3.2868 1.4702 2.5464h-1.4702l-1.4702-1e-7 0.73508-1.2732z" opacity=".18446"/>
  <path transform="matrix(.22499 0 0 .22499 2.2059 .63497)" d="m4.5912 3.2868 1.4702 2.5464h-1.4702l-1.4702-1e-7 0.73508-1.2732z" opacity=".18446"/>
  <path transform="matrix(.22499 0 0 .22499 2.0536 4.552)" d="m4.5912 3.2868 1.4702 2.5464h-1.4702l-1.4702-1e-7 0.73508-1.2732z" opacity=".18446"/>
  <path transform="matrix(.22499 0 0 .22499 4.4897 6.3929)" d="m4.5912 3.2868 1.4702 2.5464h-1.4702l-1.4702-1e-7 0.73508-1.2732z" opacity=".18446"/>
 </g>
</svg>
