<?xml version="1.0" encoding="UTF-8"?>
<svg width="32" height="32" version="1.1" viewBox="0 0 8.4667 8.4667" xmlns="http://www.w3.org/2000/svg">
 <g>
  <path d="m3.199 7.3892-0.61837-2.5768 0.54431-0.43851 0.63776 0.10975 0.53624 2.7876-0.52461 0.24607z" fill="#9d60b9"/>
  <path d="m3.3817 2.5462 0.68427-1.0923 0.8982 0.76062 0.43844 5.6463-0.81582 0.29784-1.0403-0.25986z" fill="#b95ce3"/>
  <path d="m4.873 8.1747 0.17015-3.8943 0.67045-0.55561 0.59659 0.26669-0.31513 4.1909-0.59267 0.27564z" fill="#d270ff"/>
  <path d="m4.2152 7.7055-0.35871-1.5375-0.92058-0.2178-0.6644 0.59089 0.53375 1.6388 0.83487 0.089631z" fill="#d270ff"/>
 </g>
 <g fill="#a250c8">
  <path transform="matrix(.47499 -1.0799 1.0799 .47499 3.2 8.7069)" d="m6.6753 1.1616-0.47154-0.16053-0.096748-0.48863 0.3748-0.3281 0.47154 0.16053 0.096748 0.48863z" fill-opacity=".34061"/>
  <path transform="matrix(.38787 -.51672 .51672 .38787 3.2392 5.8893)" d="m6.6753 1.1616-0.47154-0.16053-0.096748-0.48863 0.3748-0.3281 0.47154 0.16053 0.096748 0.48863z" fill-opacity=".47282"/>
  <path transform="matrix(.84031 -.41842 .41842 .84031 -3.8491 6.2412)" d="m6.6753 1.1616-0.47154-0.16053-0.096748-0.48863 0.3748-0.3281 0.47154 0.16053 0.096748 0.48863z" fill-opacity=".47282"/>
  <g fill-opacity=".23527">
   <path transform="matrix(.5467 -.34433 .34433 .5467 2.6652 2.5692)" d="m6.6753 1.1616-0.47154-0.16053-0.096748-0.48863 0.3748-0.3281 0.47154 0.16053 0.096748 0.48863z"/>
   <path transform="matrix(.41581 -.49452 .49452 .41581 -2.0735 5.1607)" d="m6.6753 1.1616-0.47154-0.16053-0.096748-0.48863 0.3748-0.3281 0.47154 0.16053 0.096748 0.48863z"/>
   <path transform="matrix(.41581 -.49452 .49452 .41581 4.7961 7.8083)" d="m6.6753 1.1616-0.47154-0.16053-0.096748-0.48863 0.3748-0.3281 0.47154 0.16053 0.096748 0.48863z"/>
   <path transform="matrix(.41581 -.49452 .49452 .41581 .44153 3.7218)" d="m6.6753 1.1616-0.47154-0.16053-0.096748-0.48863 0.3748-0.3281 0.47154 0.16053 0.096748 0.48863z"/>
   <path transform="matrix(.64491 .039121 -.039121 .64491 -3.4974 3.2377)" d="m6.6753 1.1616-0.47154-0.16053-0.096748-0.48863 0.3748-0.3281 0.47154 0.16053 0.096748 0.48863z"/>
  </g>
 </g>
</svg>
