<?xml version="1.0" encoding="UTF-8"?>
<svg width="32" height="32" version="1.1" viewBox="0 0 8.4667 8.4667" xml:space="preserve" xmlns="http://www.w3.org/2000/svg"><rect x="-1.2806" y="5.7849" width="11.012" height="3.3137" fill="#d3d394"/><path d="m6.0792 0.53947c-0.32948-0.0046892-0.75049 0.11299-0.95705 0.48628-0.30046 0.54296 0.039274 1.0227 0.039274 1.0227l-0.30438 0.57309-0.72812-0.37517s-0.18464-0.03698-0.2806 0.14624c-0.095964 0.18323 0.097669 0.30593 0.097669 0.30593l0.67335 0.37311s-0.84508 1.7016-1.2004 2.1125c-0.35536 0.41097-0.69572 0.95458-1.1963 0.053744-0.50059-0.90083-0.65991-1.6764-0.65991-1.6764l0.91313 0.30024s-0.098463-0.66172-0.31419-1.0439c-0.21573-0.38215-0.51832-0.76223-0.51832-0.76223s-0.50301 0.25366-0.82838 0.75603c-0.32536 0.50237-0.43047 0.83096-0.43047 0.83096l0.8537-0.12092s-0.51179 1.6606 0.57826 2.8675c0.20499 0.22697 0.36252 0.41389 0.48679 0.57103 0 0 0.50417 0.043985 1.0789-0.03914 0.57471-0.083125 1.2622 0.075838 1.9612 0.026093 0.69904-0.049745 1.3654 0.013047 1.3654 0.013047 0.18782-0.16249 0.34158-0.34572 0.34158-0.34572l0.1788 0.34572h0.43667c0.089299-0.17001 0.18507-0.36433 0.24856-0.52917 0.148-0.38424 0.11317-0.99788 0.11317-0.99788s-0.48077-0.036514-0.97307 0.010852c-0.4923 0.047365-0.99529 0.31109-0.99529 0.31109l0.78704 0.58601s-0.72161 0.33785-1.3736 0.37259c-0.65195 0.034744-1.2572 0.16273-1.1586-0.5147 0.09862-0.67743 1.1994-2.6712 1.1994-2.6712l0.6842 0.36174s0.20577 0.075682 0.30696-0.091468c0.10119-0.16715-0.038241-0.32091-0.038241-0.32091l-0.72451-0.39584 0.31471-0.56017s0.6144 0.02697 0.8878-0.63201c0.27341-0.65897-0.23533-1.1514-0.50126-1.28-0.083103-0.040192-0.21404-0.067632-0.3638-0.069763zm-0.066146 0.49351c0.27041-1.329e-4 0.48974 0.21896 0.48989 0.48938 1.33e-4 0.27062-0.21928 0.49003-0.48989 0.48989-0.27041-1.525e-4 -0.48951-0.21948-0.48938-0.48989 1.527e-4 -0.27021 0.21917-0.48922 0.48938-0.48938z" fill="#555"/></svg>
