<?xml version="1.0" encoding="UTF-8"?>
<svg width="32" height="32" version="1.1" viewBox="0 0 8.4667 8.4667" xml:space="preserve" xmlns="http://www.w3.org/2000/svg"><g><path d="m-0.52435 6.1588h6.5787l0.4223-0.29483 1.3523 0.00363 0.56068 0.34259 0.88683-0.015285v2.3345h-10.035z" fill="#554b40"/><path d="m4.5067 1.9592c-0.67809 0.0064252-1.2287 0.1647-1.0648 0.52248 0.27174 0.59275 0.16724 2.3749 0.059948 3.5606-0.12303-0.45471-0.21175-1.0071-0.075897-1.4014 0.27211-0.78987-2.2549 0.091117-1.7704 0.54228 0.4844 0.4508 0.99327 2.0679 0.99327 2.0679s0.57072 0.30452 1.1126 0.34539c0.11967 0.039209 0.27483 0.071569 0.47683 0.091297 1.0311 0.10073 1.0598-0.35199 1.0598-0.35199s0.17727-3.5782 1.0824-4.4785c0.55155-0.54869-0.81596-0.90814-1.8738-0.89812z" fill="#aba373" stroke-width="14.008"/><path d="m8.1465 2.6924c-0.73435-1.6249-3.082-3.4314-5.4846-1.693-2.4027 1.7385-0.96991 1.9943-0.15124 2.1481 0.81859 0.15442 1.9018 0.26652 2.795 0.40451s3.5752 0.76487 2.8408-0.86001z" fill="#964133" stroke-width="14.008"/><path d="m4.3847 4.0754c-0.85386-0.80299-2.6729-1.2933-3.5704 0.40394-0.89749 1.6972-0.014905 1.4774 0.49148 1.3565 0.50648-0.12052 1.1519-0.33654 1.6964-0.48676 0.54446-0.15021 2.2364-0.47095 1.3825-1.2739z" fill="#7b352a" stroke-width="9.0657"/></g><g fill="#723127" stroke-linecap="round" stroke-linejoin="round"><ellipse cx="3.6803" cy="1.2589" rx=".58319" ry=".31957" stroke-dasharray="0.0807809, 0.242343" stroke-width=".080781"/><ellipse cx="2.8794" cy="1.7218" rx=".31169" ry=".17079" stroke-dasharray="0.0431733, 0.12952" stroke-width=".043173"/><ellipse cx="4.6249" cy="2.4581" rx=".24176" ry=".13248" stroke-dasharray="0.0334879, 0.100464" stroke-width=".033488"/></g><g><ellipse transform="rotate(-10.312)" cx="1.0298" cy="4.6396" rx=".38385" ry=".21033" fill="#53241c" stroke-dasharray="0.0531681, 0.159505" stroke-linecap="round" stroke-linejoin="round" stroke-width=".053168"/><ellipse transform="rotate(-10.312)" cx="2.8139" cy="5.1132" rx=".23738" ry=".13007" fill="#53241c" stroke-dasharray="0.03288, 0.0986402" stroke-linecap="round" stroke-linejoin="round" stroke-width=".03288"/><path d="m0.25805 7.5298 0.3661-0.66876 0.89068 0.35846 0.13957 0.32198z" fill="#39322b"/><path d="m7.6489 7.8956-0.38256-0.43251-0.27145 0.26009-0.036734 0.18409z" fill="#39322b"/></g></svg>
