<?xml version="1.0" encoding="UTF-8"?>
<svg width="32" height="32" version="1.1" viewBox="0 0 8.4667 8.4667" xml:space="preserve" xmlns="http://www.w3.org/2000/svg"><g><rect x="1.1102e-16" y="6.8792" width="8.4667" height="1.5875" fill="#b2ad89"/><path d="m0.62305 0.21585s0.37087 0.80287 0.5515 1.632c0.087722 0.40269 0.32867 1.7837 0.55878 1.7554 0.4109-0.050503 1.8426-0.12832 2.5066-0.042121 0.66402 0.086201 1.4278-0.18244 1.8904-1.2469 0.46263-1.0645 0.95772-1.0971 0.95772-1.0971s-0.1331-0.082216-0.021472-0.24665c0.11163-0.16443 0.29508-0.043791 0.23958 0.036249-0.055495 0.08004-0.10896 0.047939-0.10678 0.015991 0.00218-0.031949 0.045776 0.00783 0.054497-0.023637 0.00871-0.03147 0.00551-0.091459-0.081139-0.046462-0.086648 0.044996-0.099823 0.14129-0.053522 0.18479 0.046301 0.043501 0.23087 0.099862 0.30695 0.095098 0.07608-0.00477 0.35867-0.024417 0.54446 0.033631 0.18579 0.058048 0.5521 0.13945 0.4427 0.24504-0.10941 0.10559-0.09635 0.1737-0.68524 0.18215-0.58889 0.0084516-0.86799 0.093942-1.0891 0.62769-0.22113 0.53375-0.28158 1.2626-0.27945 1.8869 0.00212 0.62424-0.00483 0.79283-0.10083 0.87658-0.096005 0.083755-0.13371 0.1097-0.13371 0.1097s0.22482 0.6763 0.50498 1.1962c0.28015 0.51989 0.37933 0.81933 0.49555 0.76547 0.11621-0.053857 0.17952-0.012465 0.22984 0.11629 0.050315 0.12876 0.026694 0.14166 0.026694 0.14166l-0.58402-0.00182s-0.09038-0.13788-0.33573-0.53176c-0.24535-0.39388-1.0663-1.3617-1.0663-1.3617s-0.18542 0.4008-0.37788 0.78414c-0.19246 0.38334-0.37888 0.86885-0.28379 0.89885 0.095085 0.030003 0.1837 0.06989 0.22761 0.11981 0.043913 0.049917 0.041671 0.11482 0.041671 0.11482l-0.39122 0.032576s-0.33024-0.17451-0.30578-0.27768c0.02446-0.10318 0.13191-0.71168 0.30689-1.1492 0.17498-0.43755 0.14089-0.76599 0.14089-0.76599s-0.33162-0.00842-0.89135-0.059377c-0.55973-0.050954-0.99078-0.2075-0.99167-0.077556-8.815e-4 0.12994 0.00179 0.31221-0.030736 0.5673-0.032526 0.25509-0.099845 0.4495-0.047119 0.51582 0.052725 0.06632 0.20862 0.35248 0.34392 0.58427 0.1353 0.23179 0.18921 0.37777 0.18921 0.37777s0.59408 0.042972 0.61874 0.016347c0.024659-0.026625 0.055072-0.048984 0.13889 0.039609 0.083821 0.088592 0.09803 0.11031 0.061763 0.17016-0.036267 0.059856-0.045021 0.067817-0.045021 0.067817l-0.076911 1.532e-4s0.06742-0.081256 0.020936-0.12999c-0.046479-0.048741-0.19805-0.049554-0.19805-0.049554s0.045853 0.053842 0.051646 0.096033c0.00579 0.042189 0.00813 0.080862 0.00813 0.080862l-0.099016-0.00403s0.00886-0.12509-0.17612-0.15455c-0.18499-0.029457-0.20396-0.025815-0.20396-0.025815s0.12808 0.063512 0.12808 0.086328 0.00273 0.088969 0.00273 0.088969l-0.089724-0.00467s-0.089891-0.14963-0.22115-0.137c-0.13126 0.012635-0.13763 0.13187-0.13763 0.13187h-0.081777l0.00307-0.087293s-0.094527-0.02546-0.14557-0.073361c-0.051043-0.047899-0.10373-0.037155-0.08981 0.036648 0.013923 0.073804 0.00119 0.11801 0.00119 0.11801h-0.059328s-0.01808-0.084568-0.028125-0.17074c-0.010048-0.086172 0.049868-0.14333 0.13406-0.10828 0.084194 0.035054 0.28175 0.16707 0.20745 0.019177-0.074301-0.14791-0.62143-0.80221-0.64534-0.88387-0.023908-0.081665-0.21959-0.84306-0.32319-0.89802-0.1036-0.054957-0.1128 0.028826-0.21005 0.17677-0.097244 0.14794-0.60983 0.69108-0.64595 0.71793-0.036121 0.026848-0.046292 0.032356-0.079597 0.20707-0.033306 0.17472-0.38278 0.6718-0.30327 0.73862 0.079509 0.066822 0.32257 0.067819 0.42383 0.021908 0.10126-0.045906 0.13512-0.042414 0.16969 0.021028 0.034568 0.063441 0.08419 0.18706 0.08419 0.18706l-0.11872 0.00401s-0.011482-0.11775-0.073624-0.11354c-0.062143 0.00422-0.039592 0.11132-0.039592 0.11132l-0.34225 0.023358s-0.14682-0.037649-0.20655-0.090035c-0.059732-0.052385-0.046656-0.054794-0.13593-0.016063-0.089278 0.038734-0.22126 0.032683-0.2612 0.0699-0.039941 0.037217-0.052792 0.070315-0.052792 0.070315l-0.072615 3.5e-6s-0.006182-0.054089-0.029434-0.079913c-0.023252-0.025823-0.064234 0.014537-0.064234 0.014537l-0.011561 0.066306-0.081775 0.00276s0.0030944-0.061952 0.029835-0.17314c0.026741-0.1112-0.007613-0.10542 0.12784-0.10379 0.13545 0.00163 0.34369 0.067123 0.42233-0.22264 0.078639-0.28977 0.13208-0.93618 0.17829-1.0005 0.04621-0.064358 0.49944-0.49461 0.4823-0.77349-0.017139-0.27888-0.037249-0.91998 0.017779-1.1749 0.055028-0.25489-0.23882-1.3368-0.30204-1.7004-0.063224-0.36354-0.19526-1.0091-0.33388-1.4407-0.13862-0.4316-0.16665-0.74523-0.22996-0.57166-0.063306 0.17357-0.16561 0.11871-0.21149-0.07591-0.045875-0.19462 0.2378-0.35529 0.30418-0.28645 0.066378 0.068845 0.10671 0.19724 0.10671 0.19724z"/><ellipse cx="7.8761" cy="1.3977" rx=".14437" ry=".071262" fill="#ff008c"/></g><g fill="none" stroke="#b2ad89" stroke-linecap="square" stroke-width=".26458"><path d="m2.0223 2.7421v-1.2037h1.2888v1.1957h-0.85678v-0.75315h0.38817v0.30508"/><path d="m6.86 3.2322h1.2037v1.2888h-1.1957v-0.85678h0.75315v0.38817h-0.30508"/><path d="m5.3075 1.72h-1.2037v-1.3112h1.1957v0.85678h-0.75315v-0.38817h0.30507"/></g><g fill="#b2ad89"><rect x=".34154" y="3.4023" width=".41754" height=".41754"/><rect x="1.2288" y=".42755" width=".41754" height=".41754"/><rect x="4.1747" y="2.525" width=".41754" height=".41754"/><rect x="5.8716" y=".38041" width=".41754" height=".41754"/><rect x="7.2385" y="5.4002" width=".41754" height=".41754"/><rect x="3.6563" y="5.4945" width=".41754" height=".41754"/><rect x="2.984" y="6.0056" width=".41754" height=".41754"/></g></svg>
