<?xml version="1.0" encoding="UTF-8"?>
<svg width="32" height="32" version="1.1" viewBox="0 0 8.4667 8.4667" xml:space="preserve" xmlns="http://www.w3.org/2000/svg"><rect x="-1.5565" y="-.52222" width="10.724" height="9.6426" fill="#396faa"/><path d="m0.63359 8.5846s0.10333-1.0233-0.11594-2.3685c-0.14495-0.88926 0.086795-1.4493 0.086795-1.4493" fill="none" stroke="#1db52f" stroke-linecap="round" stroke-width=".42025"/><path d="m7.3013 9.9054s0.86988-0.27651 0.23574-1.2344c-0.63414-0.95792 0.10408-2.3376-0.15359-3.329s-0.15387-2.2834-0.43511-2.9809-0.74667 0.28562-0.60834 1.867c0.13832 1.5814 0.2826 1.6184-0.16724 3.0124-0.44984 1.394-0.073188 2.0033-0.091346 2.667-0.018158 0.66372 1.2199-2e-3 1.2199-2e-3z" fill="#1db52f"/><path d="m4.9109 8.8169s-0.10333-1.0233 0.11594-2.3685c0.14495-0.88926-0.086795-1.4493-0.086795-1.4493" fill="none" stroke="#1db52f" stroke-linecap="round" stroke-width=".42025"/><path d="m7.935 9.8404s-0.10333-1.0233 0.11594-2.3685c0.14495-0.88926-0.086795-1.4493-0.086795-1.4493" fill="none" stroke="#1db52f" stroke-linecap="round" stroke-width=".42025"/><g transform="rotate(-68.238 3.9676 4.3559)"><g transform="matrix(-.41128 -.91151 -.91151 .41128 9.4259 6.943)"><path d="m3.9804 3.2039-0.20151 0.067076-0.056085-0.069231-0.18057 0.048948-0.07394-0.11732s-0.022723-0.062682-0.18486-0.093603c-0.16214-0.03092-0.28159 0.037071-0.28159 0.037071l-0.072561 0.037053-0.036962-0.050896-0.056657 0.036503-0.050292-0.074408-0.27396-0.020029-0.00302-0.1401-0.19331-0.056012 0.012308-0.082109s0.029127-0.083542-0.146-0.1677c-0.17513-0.084161-0.26468-0.015735-0.26468-0.015735l-0.10095 0.035634 0.0079-0.080003-0.10267-0.010017 0.011318-0.067401-0.12575-0.01037-0.039481-0.11305-0.087011-0.00381-0.032096-0.089508-0.13407-0.053309-0.027651-0.12047-0.082568-0.038828-0.0092-0.074355-0.098704-0.083775-0.049303-0.25362s-0.41921 0.16934-0.31803 0.63129c0.10119 0.46195 0.47569 1.0325 1.1114 1.5765 0.63568 0.54394 1.2139 0.74083 1.2139 0.74083l0.036802 0.079012 0.4373 0.017291 0.84333 0.30372 0.31287-1.7454z" fill="#b95b53"/><path d="m3.1644 0.24782c1.5086 0.025068 2.148 0.72945 2.478 1.0256 0.33002 0.2962 0.93429 1.0433 1.1662 1.5854 0.23188 0.54214 0.90768 1.3365 1.0983 2.0659 0.19064 0.72933 0.17698 0.94619 0.17698 0.94619s-0.21987 0.16824-0.25241 0.30997c-0.032545 0.14173-0.048552 0.3327-0.48349 0.53145-0.43493 0.19874-0.63988-0.46601-0.88861-0.29888-0.31715 0.25898-0.34097 0.1612-0.50604 0.072173l-0.10112-0.016516c-0.3684 0.11194-0.19773-0.022115-0.2977-0.12782-0.33228 0.20573-0.19878-0.019612-0.27512-0.061947-0.39799 0.033825-0.21188-0.082202-0.28042-0.19134l-0.35897-0.17872c-0.39839-0.00122-0.20043-0.095479-0.26643-0.22224 0 0-0.16003-0.12519-0.27148-0.23046-0.11145-0.10527-0.15965-0.17315-0.15965-0.17315s-0.35542-0.15504-0.41417-0.22916c-0.058748-0.074115-5.1e-4 -0.42886-5.1e-4 -0.42886s0.51216-0.24235 0.53121-0.75516c0.019056-0.51281-0.12239-0.78926-0.12239-0.78926l-0.19426-0.038783 0.027871-0.16146-0.17042-0.01612-0.080555-0.13008s-0.35326-0.10721-0.45315-0.16792c-0.099898-0.060706-0.13524-0.3053-0.13524-0.3053l0.089287-0.11838-0.1033-0.00126 0.00913-0.092422s-0.12755 0.05298-0.18547 0.020625c-0.057913-0.032357-0.059731-0.10083-0.059731-0.10083s-0.14023 0.058097-0.42046-0.15334c-0.28023-0.21144-0.13018-0.38731-0.13018-0.38731l-0.0865-0.035169 0.00498-0.1136s-0.14297-0.083093-0.37307-0.1226c-0.2301-0.039504-0.37785-0.046705-0.37785-0.046705s0.35811-0.88758 1.8667-0.86252z" fill="#d76a60"/></g><g fill="#e68c84"><circle cx="5.1345" cy="3.7953" r=".14997"/><circle cx="5.5345" cy="3.627" r=".14997"/><circle cx="5.4445" cy="2.9903" r=".14997"/><circle cx="6.9576" cy="3.9077" r=".14997"/><circle cx="6.481" cy="4.2413" r=".14997"/><circle cx="3.443" cy="3.5622" r=".14997"/><circle cx="2.4542" cy="3.7766" r=".14997"/></g><circle cx="4.9561" cy="5.9807" r=".14997" fill="#d76a60"/><circle cx="5.6352" cy="6.5287" r=".14997" fill="#d76a60"/><g fill="#e68c84"><circle cx="2.0849" cy="3.1452" r=".14997"/><circle cx="2.4542" cy="2.3112" r=".14997"/><circle cx="3.2167" cy="2.2159" r=".14997"/><circle cx="1.4654" cy="3.0022" r=".14997"/><circle cx="3.896" cy="2.7047" r=".090664"/><circle cx="2.7521" cy="2.5614" r=".090664"/><circle cx="2.3232" cy="2.7759" r=".090664"/><circle cx="2.2755" cy="3.4311" r=".090664"/><circle cx="2.5733" cy="3.5145" r=".090664"/><circle cx="3.3835" cy="3.0737" r=".090664"/><circle cx="3.6694" cy="3.038" r=".090664"/><circle cx="3.8124" cy="3.8362" r=".090664"/><circle cx="3.3835" cy="4.4081" r=".090664"/><circle cx="2.5138" cy="4.9203" r=".090664"/><circle cx="1.8585" cy="4.551" r=".090664"/><circle cx="1.513" cy="3.6694" r=".090664"/><circle cx="1.1556" cy="2.3708" r=".090664"/><circle cx="1.8585" cy="2.0968" r=".090664"/><circle cx="4.694" cy="2.7521" r=".090664"/><circle cx="4.6702" cy="3.3239" r=".090664"/><circle cx="5.385" cy="3.2524" r=".090664"/><circle cx="5.9822" cy="3.4388" r=".090664"/><circle cx="5.846" cy="3.9773" r=".090664"/><circle cx="6.2093" cy="4.5289" r=".090664"/><circle cx="6.35" cy="3.0142" r=".090664"/><circle cx="6.6002" cy="3.5741" r=".090664"/><circle cx="7.1601" cy="3.6813" r=".090664"/><circle cx="7.7796" cy="4.7416" r=".090664"/><circle cx="8.006" cy="5.0395" r=".090664"/><circle cx="6.8384" cy="4.7178" r=".090664"/><circle cx="6.8027" cy="4.3842" r=".090664"/><circle cx="4.9799" cy="4.2532" r=".090664"/><circle cx="3.9315" cy="4.5272" r=".090664"/><circle cx="3.5503" cy="4.8965" r=".090664"/><circle cx="3.2763" cy="5.5637" r=".090664"/><circle cx="2.5614" cy="4.5034" r=".090664"/><circle cx=".77439" cy="3.0975" r=".090664"/></g><g fill="#d76a60"><circle cx="4.6582" cy="5.4088" r=".090664"/><circle cx="4.2174" cy="5.242" r=".090664"/><circle cx="4.2532" cy="5.8258" r=".090664"/><circle cx="4.7297" cy="5.7543" r=".090664"/><circle cx="5.385" cy="5.9449" r=".090664"/><circle cx="5.2301" cy="6.2308" r=".090664"/><circle cx="6.4572" cy="6.8146" r=".090664"/><circle cx="6.9695" cy="6.8503" r=".090664"/><circle cx="5.9092" cy="6.8384" r=".090664"/><circle cx="6.076" cy="6.2547" r=".090664"/></g></g><path d="m1.1549 8.4951s0.05011-0.33143 0.19368-1.2201c0.18978-1.1747-0.39653-2.352-0.24272-3.3434 0.15381-0.99141 0.091851-2.2834 0.25973-2.9809 0.16788-0.69755 0.44571 0.28562 0.36314 1.867-0.082568 1.5814-0.16869 1.6184 0.099831 3.0124 0.26852 1.394 0.043688 2.0033 0.054527 2.667 0.010839 0.66372-0.72819-0.00204-0.72819-0.00204z" fill="#1db52f"/><path d="m3.3639 11.958s0.05011-0.33143 0.19368-1.2201c0.18978-1.1747-0.39653-2.352-0.24272-3.3434s0.091851-2.2834 0.25973-2.9809c0.16788-0.69755 0.44571 0.28562 0.36314 1.867-0.082568 1.5814-0.16869 1.6184 0.099831 3.0124 0.26852 1.394 0.043688 2.0033 0.054527 2.667 0.010839 0.66372-0.72819-2e-3 -0.72819-2e-3z" fill="#1db52f"/><path d="m2.9482 8.8489s-0.058162-0.7351 0.058811-1.3793c0.11697-0.64417-0.022651-1.3654-0.022651-1.3654" fill="none" stroke="#1db52f" stroke-linecap="round" stroke-width=".26458"/><g fill="#4e85c0"><circle cx=".70082" cy="1.3911" r=".24319"/><circle cx="8.1094" cy="5.0021" r=".24319"/><circle cx="5.5978" cy="5.4155" r=".1486"/><circle cx="5.4063" cy="6.9473" r=".1486"/><circle cx="5.8989" cy="6.7957" r=".1486"/><circle cx="7.5663" cy="4.7115" r=".1486"/><circle cx="8.0842" cy="2.9431" r=".1486"/><circle cx="7.2757" cy=".45473" r=".1486"/><circle cx="8.0336" cy=".40421" r=".1486"/><circle cx="2.0463" cy="1.4779" r=".1486"/><circle cx="3.2716" cy=".45473" r=".1486"/><circle cx="1.3642" cy=".21474" r=".1486"/><circle cx=".84631" cy=".78315" r=".1486"/><circle cx=".20744" cy=".86943" r=".1486"/><circle cx=".40351" cy="2.1646" r=".1486"/><circle cx=".56113" cy="3.3159" r=".1486"/><circle cx="5.8989" cy="6.0757" r=".24319"/><circle cx="7.8189" cy="4.1179" r=".24319"/><circle cx="2.3154" cy=".62331" r=".47527"/><circle cx="2.3779" cy="7.6563" r=".1486"/></g></svg>
