<?xml version="1.0" encoding="UTF-8"?>
<svg width="32" height="32" version="1.1" viewBox="0 0 8.4667 8.4667" xml:space="preserve" xmlns="http://www.w3.org/2000/svg"><g><path d="m2.3875 4.1019s-0.15129 0.30439 0.10095 0.96453c0.25224 0.66014 2.2731 1.1911 2.2731 1.1911l1.6505-1.0894s0.18165-0.71221-0.14866-1.0777c-0.33031-0.36552-3.8759 0.011431-3.8759 0.011431z" fill="#515046"/><path d="m2.0544 1.5314s0.57493 0.027871 0.46759 0.29605c-0.10735 0.26818-0.61312 0.6687-0.42138 0.83071 0.19174 0.16201 0.37886 0.645 0.20895 0.95429-0.16991 0.30929-0.1344 0.78644 0.15084 0.70848 0.28524-0.077957 0.34391-0.20057 1.006-0.010095 0.66207 0.19048 1.0341 0.19622 1.7737 0.064987 0.66193-0.11746 1.1104 0.082578 1.2352-0.30392 0.1248-0.3865-0.31152-0.55184-0.32085-0.88029-0.0093363-0.32845 0.42623-0.53444 0.23762-0.7463-0.18862-0.21186-0.41991-0.45847-0.22524-0.71723 0.19466-0.25876 0.51283-0.19707 0.51283-0.19707s-0.18082-0.12026-0.55429-0.08824c-0.37347 0.032022-0.26963 0.25509-0.64617-0.027196-0.37653-0.28229-0.79808-0.44204-1.3381-0.4339-0.54002 0.0081439-0.82098 0.19906-1.0258 0.38967-0.22331 0.20779-0.23576 0.19044-0.50895 0.10509-0.26943-0.084172-0.55189 0.054965-0.55189 0.054965z" fill="#e3e1c9"/><path d="m1.9475 4.7366s-0.45072-0.15252-0.39565 0.12344c0.055065 0.27596-0.23818 0.64367-0.23101 0.78401 0.00717 0.14035 0.21721 0.22542 0.25969 0.46922 0.042479 0.2438 0.24601 0.56746 0.70357 0.63221 0.45756 0.064745 0.41665 0.056995 0.82105 0.4669 0.4044 0.4099 1.9509 0.44493 2.3298 0.0026 0.37893-0.44232 0.5443-0.40218 0.82915-0.45684 0.31892-0.061196 0.5977-0.29908 0.70042-0.64108 0.10272-0.342 0.46605-0.34898 0.17589-0.674s0.0889-0.77621-0.37052-0.70182c-0.45942 0.074389-1.0591 0.29121-1.4175 0.43104-0.35841 0.13983-1.3193 0.28397-1.9575 0.030479-0.63817-0.25349-0.85789-0.49075-1.1246-0.48752-0.26671 0.0032332-0.32282 0.021355-0.32282 0.021355z" fill="#e3e1c9"/></g><g fill="#f7f4db"><path d="m1.8679 2.8566s0.19822 0.97813 0.35886 1.3443c0.16064 0.36616 0.30697 0.63699 0.30697 0.63699s0.047614 0.67202-0.31098 0.57846c-0.35859-0.093564-0.56192-1.35-0.58848-1.7971-0.026567-0.44713 0.23363-0.76265 0.23363-0.76265z"/><path d="m6.8169 3.3541s0.13258 0.67354 0.03358 1.2593c-0.098997 0.58575-0.30961 0.90134-0.51911 0.88471-0.2095-0.016626-0.25198-0.52972-0.25198-0.52972s0.17231-0.1833 0.41788-0.71682c0.24557-0.53352 0.31963-0.89747 0.31963-0.89747z"/><path d="m3.0558 4.4279s-0.12585 0.18759-0.18249 0.42487c-0.05664 0.23729-0.055674 0.38955 0.06283 0.5239 0.1185 0.13436 0.20736 0.14913 0.21115-0.14827 0.00379-0.2974-0.091487-0.8005-0.091488-0.8005z"/><path d="m3.8383 4.7168s-0.13739 0.46891-0.14095 0.67017c-0.00356 0.20126 0.13995 0.51611 0.1955 0.43688 0.055548-0.079224 0.070111-0.44178 0.051813-0.65446-0.018299-0.21268-0.10636-0.45259-0.10636-0.45259z"/><path d="m4.2132 4.7251s-0.092992 0.23919-0.081364 0.57843c0.011629 0.33924 0.073971 0.73728 0.12086 0.59445 0.046889-0.14283 0.097703-0.51298 0.086687-0.66696-0.011015-0.15398-0.12618-0.50592-0.12618-0.50592z"/><path d="m3.4711 4.6769s-0.12136-0.17627-0.092412-0.38417c0.028943-0.20791 0.18179-0.20297 0.26408-0.1482 0.082289 0.054768 0.070925 0.16908 0.016706 0.29377-0.05422 0.12469-0.18837 0.23861-0.18837 0.23861z"/><path d="m3.8693 4.3694s-0.015362 0.20414 0.034303 0.43375c0.049664 0.22961 0.12546 0.33071 0.12546 0.33071s0.021072-0.28576 0.056789-0.42501c0.035718-0.13925 0.10684-0.25935 0.10684-0.25935s-0.11638-0.16041-0.20241-0.17268c-0.086024-0.012269-0.12098 0.092581-0.12098 0.092581z"/><path d="m3.5612 4.6649s-0.28347 0.24906-0.30227 0.54112c-0.018799 0.29206 0.16701 0.51682 0.20469 0.44094 0.037674-0.075873 0.15915-0.29815 0.10907-0.5225-0.050084-0.22435-0.011484-0.45956-0.011484-0.45956z"/><path d="m4.4324 4.9881s0.040168-0.14185-0.099763-0.34022c-0.13993-0.19837 0.0084-0.31916 0.098689-0.31319 0.090294 0.00597 0.11157 0.17491 0.086032 0.34161-0.02554 0.1667-0.084959 0.31179-0.084959 0.31179z"/><path d="m4.7889 4.9565s0.055183-0.2096-0.044826-0.41167c-0.10001-0.20208-0.19512-0.23541-0.14493-0.27974 0.050184-0.044328 0.364-0.15804 0.364 0.015462 0 0.1735-0.00815 0.40572-0.054268 0.52166-0.046115 0.11594-0.11997 0.15429-0.11997 0.15429z"/><path d="m5.1914 4.9702s0.087564-0.26032-0.00228-0.41978c-0.089848-0.15946-0.27034-0.24501-0.12312-0.30033 0.14722-0.055314 0.35855-0.059404 0.44924 0.11728 0.090693 0.17668-0.32383 0.60283-0.32383 0.60283z"/><path d="m5.757 4.681s0.02907-0.22904-0.10606-0.29517c-0.13513-0.066134-0.085854-0.16014 0.02658-0.25539 0.11243-0.095245 0.27516 0.084602 0.34546 0.13822 0.070307 0.053622-0.03389 0.21779-0.13591 0.32417-0.10202 0.10638-0.13008 0.088169-0.13008 0.088168z"/><path d="m5.6123 4.7307s0.14732 0.12918 0.23125 0.3355c0.083938 0.20632 0.038037 0.60528-0.092151 0.40121-0.13019-0.20408-0.10723-0.30617-0.10723-0.4715-4.8e-6 -0.16533-0.031871-0.2652-0.031871-0.2652z"/><path d="m4.5689 4.8088s0.12866 0.16925 0.13518 0.60029c0.00652 0.43104-0.10695 0.60959-0.12324 0.48521-0.01629-0.12438-0.037372-0.4059-0.090018-0.50722s0.0027-0.084356 0.047762-0.27997c0.045061-0.19561 0.030313-0.2983 0.030312-0.2983z"/><path d="m4.8899 4.8706s0.14211 0.15603 0.15858 0.44147c0.016473 0.28543-0.079948 0.57548-0.14391 0.4142-0.063957-0.16128-0.080428-0.17264-0.037109-0.45701 0.043318-0.28438 0.022434-0.39866 0.022434-0.39866z"/><path d="m5.3119 4.8097s0.18031 0.12675 0.2067 0.36351-0.10178 0.66047-0.21305 0.40552c-0.11127-0.25495-0.09687-0.20986-0.023643-0.39741 0.073227-0.18755 0.029989-0.37163 0.029989-0.37163z"/><path d="m2.8904 4.168s-0.022912 0.24255 0.044946 0.37175 0.093549 0.16218 0.093549 0.16218 0.037056-0.20503 0.16823-0.31851c0.13117-0.11347 0.1628-0.11977 0.1628-0.11977s-0.035211-0.149-0.25624-0.1699c-0.22103-0.020899-0.21328 0.074239-0.21328 0.074239z"/></g><g fill="#515046"><path d="m3.8252 3.22s0.21343-0.13202 0.27792-0.042803c0.064489 0.089221-0.29285 0.41619-0.46093 0.34695-0.16809-0.069244 0.18301-0.30415 0.18301-0.30415z"/><path d="m4.6723 3.2513s0.20478 0.23726 0.010782 0.27931c-0.16219 0.035158-0.29383-0.18233-0.26369-0.36149 0.030143-0.17916 0.25291 0.082185 0.25291 0.082185z"/><path d="m3.264 2.813s-0.28927-0.20201-0.47837 0.12624c-0.1891 0.32825 0.16204 0.46075 0.41089 0.37285 0.24885-0.087899 0.41788-0.27232 0.26367-0.3772-0.1542-0.10488-0.19619-0.12189-0.19619-0.12189z"/><path d="m5.2973 2.8065s0.30396-0.18209 0.43851 0.12838c0.11279 0.26025-0.18525 0.40769-0.41664 0.33993-0.23139-0.067763-0.37879-0.23288-0.24193-0.33157 0.13685-0.098687 0.22006-0.13674 0.22006-0.13674z"/></g></svg>
