<?xml version="1.0" encoding="UTF-8"?>
<svg width="32" height="32" version="1.1" viewBox="0 0 8.4667 8.4667" xml:space="preserve" xmlns="http://www.w3.org/2000/svg"><rect x="-1.0885" y="-1.1034" width="11.294" height="10.876" fill="#1f4053"/><g fill="#af5757"><path d="m1.6879 7.4371-0.074545 0.17255s0.047844 0.042501 0.22591 0.14428c0.17807 0.10178 0.32899 0.15448 0.32899 0.15448l0.075941-0.17132 0.45115 0.10409-0.0089 0.2433s0.063239 0.10379 0.3653 0.10773c0.30206 0.00394 0.37071-0.04245 0.37071-0.04245l0.019106-0.21368 0.35863-0.032193 0.021455 0.18447s0.13196 0.078525 0.40439 0.026548c0.27243-0.051978 0.31009-0.1347 0.31009-0.1347l-0.043576-0.26105 0.35739-0.13371 0.070803 0.17495s0.10449 0.046808 0.32171-0.077608c0.21722-0.12442 0.20375-0.24169 0.20375-0.24169l-0.066642-0.15709 0.26099-0.20164 0.1412 0.13232s0.072435-0.050337 0.18841-0.16154c0.11598-0.1112 0.1493-0.22529 0.1493-0.22529l-0.14715-0.1636 0.22388-0.48519 0.23258 0.07694s0.036575-0.038646 0.078248-0.17899c0.041674-0.14035 0.027011-0.20866 0.027011-0.20866l-0.17-0.072136z"/><path d="m1.7437 1.9494-0.22469-0.22866s0.00884-0.073905 0.17447-0.18665c0.16563-0.11275 0.27032-0.12988 0.27032-0.12988l0.15205 0.16945 0.98792-0.58178-0.089255-0.16634s0.028668-0.054855 0.22228-0.14141c0.19361-0.086553 0.26074-0.085581 0.26074-0.085581l0.057378 0.1477 0.89948-0.31003-0.014232-0.11652s0.036254-0.035331 0.31291-0.072133c0.27666-0.036802 0.3386-0.013136 0.3386-0.013136l0.011393 0.10588 0.97392-0.009454 0.026491-0.093405s0.15701-0.05965 0.48691 0.023626c0.3299 0.083276 0.41795 0.14085 0.41795 0.14085l-0.059368 0.27168z"/><path d="m5.7216 0.26335c-0.49939 0.002149-1.1065 0.0096971-1.7254 0.21983-3.047 1.0345-4.4163 3.5716-3.4411 5.765 0.97516 2.1934 3.7874 2.0627 5.0099 0.89642 1.2225-1.1663 1.1691-2.4034 0.58462-3.172-0.55735-0.73289-1.1117-0.92602-1.1117-0.92602s1.0463-0.19944 1.8848 1.0219c0.83852 1.2213 0.033989 3.0453-0.77873 3.8773-0.81272 0.83198-1.3322 1.1064-1.3322 1.1064l4.2111-0.081132-0.36174-7.5257s-0.98028-1.1905-2.9394-1.182zm-2.3233 3.6181c0.011354 1.078e-4 0.022566 7.276e-4 0.034107 0.00207 0.36931 0.042862 1.2928 0.31848 1.5508 1.0537 0.25802 0.73521-0.61939 1.0917-0.72554 1.1147-0.10615 0.022976-0.30477 0.035592-0.30477 0.035592s0.28112-0.71641-0.12002-1.1195c-0.47601-0.47834-1.0459-0.51961-1.0459-0.51961 0 0 0.25938-0.57023 0.61133-0.56689zm-0.1881 1.1421s0.36006 0.11251 0.36277 0.54054c0.00271 0.42803-0.47707 0.51215-0.56793 0.52865-0.090851 0.016505-0.25167-0.03204-0.25167-0.03204s0.30104 0.0089 0.52142-0.30696c0.22038-0.31586-0.064596-0.73019-0.064596-0.73019zm-0.54829 0.025838c-8e-7 -3e-7 -0.087772 0.23824 0.035657 0.34572 0.12343 0.10748 0.20722 0.012402 0.20722 0.012402s-0.062323-0.042759-0.068213-0.075965-0.016076-0.20527 0.13901-0.1571c0.15509 0.048168 0.1508 0.35366 0.00465 0.4408-0.14615 0.087146-0.42492 0.018397-0.50643-0.21342-0.081514-0.23182 0.1881-0.35243 0.1881-0.35243z"/></g><path d="m5.0377 3.0466s-0.37068-0.15552-0.66581-0.21373c-0.29512-0.058208-0.45995-0.067714-0.45995-0.067714s0.89368-0.44442 2.1847-0.068193c1.291 0.37622 1.8977 1.2781 2.361 2.2629s0.2872 3.9293 0.2872 3.9293l-3.9333 0.16308s1.7441-1.2154 2.1695-2.429c0.4254-1.2136 0.12836-2.4579-0.69022-3.0466-0.81858-0.58866-1.2531-0.53005-1.2531-0.53005z" fill="#733939"/><g fill="#e38f8f"><ellipse cx="5.5464" cy=".72604" rx=".54138" ry=".4008"/><ellipse cx="7.0823" cy=".98264" rx=".54082" ry=".46648"/><ellipse cx="8.3664" cy="1.6678" rx=".46159" ry=".44315"/><ellipse cx="4.1684" cy=".82997" rx=".43387" ry=".29735"/><ellipse transform="rotate(-14.376)" cx="2.3065" cy="1.8407" rx=".48463" ry=".24516"/><ellipse cx=".79513" cy="5.7186" rx=".24306" ry=".32683"/><ellipse cx="3.6885" cy="7.641" rx=".27941" ry=".25596"/><ellipse transform="rotate(21.29)" cx="2.1999" cy="3.9331" rx=".28461" ry=".3592"/><ellipse transform="matrix(.82336 .56751 -.65637 .75444 0 0)" cx="2.8266" cy="2.2031" rx=".28577" ry=".39864"/><ellipse transform="matrix(.9206 .3905 -.49139 .87094 0 0)" cx="2.2814" cy="1.4394" rx=".28577" ry=".39864"/><ellipse transform="matrix(-.99713 .075749 .2867 .95802 0 0)" cx=".52799" cy="7.051" rx=".27366" ry=".35031"/><ellipse transform="rotate(12.605)" cx="4.1056" cy="6.6434" rx=".311" ry=".28964"/><ellipse transform="rotate(17.156)" cx="3.6156" cy="1.8215" rx=".14576" ry=".11779"/><ellipse transform="rotate(26.781)" cx="5.8791" cy=".52664" rx=".18525" ry=".10926"/><ellipse transform="matrix(.90215 .43142 -.24329 .96995 0 0)" cx="6.3575" cy=".67409" rx=".19233" ry=".099965"/><ellipse transform="rotate(10.021)" cx="3.8577" cy="2.1324" rx=".15526" ry=".084903"/><ellipse transform="matrix(.97745 .21115 -.2581 .96612 0 0)" cx="4.567" cy="1.9226" rx=".15492" ry=".068945"/><ellipse cx="2.3861" cy="2.9488" rx=".1289" ry=".090652"/><ellipse transform="matrix(.95597 .29347 -.38159 .92433 0 0)" cx="5.312" cy="1.4866" rx=".1788" ry=".072919"/><ellipse transform="rotate(-28.289)" cx=".64469" cy="8.846" rx=".30137" ry=".23439"/><ellipse transform="matrix(.74469 -.66741 .45348 .89127 0 0)" cx="1.8825" cy="9.2267" rx=".29378" ry=".17036"/><ellipse transform="matrix(.51591 -.85664 .41067 .91178 0 0)" cx="3.785" cy="10.5" rx=".22888" ry=".16652"/><ellipse cx="6.541" cy="5.4725" rx=".12286" ry=".2647"/><ellipse transform="matrix(1 0 .1415 .98994 0 0)" cx="5.7953" cy="4.6993" rx=".10141" ry=".24395"/><ellipse transform="matrix(1 0 .56802 .82301 0 0)" cx="3.4044" cy="4.7787" rx=".069717" ry=".20172"/></g><path d="m3.9568 5.9567 0.09255-0.015708 0.017904-0.1192-0.12097-0.084305 0.14845-0.02987-0.0034052-0.14031-0.085077-0.024675 0.11269-0.070144-0.033655-0.14424-0.11252-0.040444 0.071909-0.053131-0.072953-0.13191-0.14973 0.038345 0.10128-0.13266-0.078841-0.090854-0.10346 0.040531 0.037042-0.11287-0.067312-0.078246-0.087788 0.031854-0.0079376-0.11167-0.057421-0.032425-0.10156 0.049396-0.013293-0.12373-0.086506-0.042439-0.11194 0.05682-0.042834-0.10696-0.096594-0.015542-0.011684 0.077681-0.11361-0.041238-0.00132-0.055041-0.078551-0.012377-0.040937 0.07188 0.75528 0.6797z" fill="#af5757"/><g fill="#e38f8f"><ellipse transform="rotate(-6.4451)" cx="1.6053" cy="3.4173" rx=".13338" ry=".086339"/><ellipse transform="rotate(-39.48)" cx="-1.0051" cy="3.7931" rx=".11788" ry=".077785"/><ellipse cx="1.2306" cy="4.3899" rx=".089948" ry=".096245"/><ellipse cx="1.4786" cy="3.9428" rx=".082382" ry=".10311"/><ellipse cx="1.1917" cy="4.7766" rx=".08679" ry=".10674"/><ellipse cx="1.189" cy="5.1139" rx=".083053" ry=".099688"/><ellipse transform="matrix(1 0 .092539 .99571 0 0)" cx=".74462" cy="5.5562" rx=".076635" ry=".098457"/><ellipse cx="1.407" cy="5.8584" rx=".070323" ry=".070192"/><ellipse cx="1.638" cy="6.1513" rx=".055204" ry=".056512"/><ellipse cx="1.8933" cy="6.3378" rx=".048813" ry=".049618"/><ellipse cx="2.2211" cy="6.4924" rx=".043461" ry=".04165"/><ellipse cx="2.4925" cy="6.5709" rx=".026634" ry=".028019"/></g><path d="m2.7869 4.4483s-0.16794-0.011344-0.33456 0.12133c-0.17928 0.14275-0.26225 0.36989-0.26225 0.36989s-0.069478-0.47243 0.16872-0.76459c0.2382-0.29216 0.52652-0.31834 0.71888-0.32167 0.14529-0.00252 0.32055 0.028151 0.32055 0.028151s-0.22392 0.033345-0.3844 0.22455c-0.16048 0.1912-0.22694 0.34234-0.22694 0.34234z" fill="#733939"/></svg>
