<?xml version="1.0" encoding="UTF-8"?>
<svg width="32" height="32" version="1.1" viewBox="0 0 8.4667 8.4667" xmlns="http://www.w3.org/2000/svg">
 <g fill="none" stroke-linecap="round">
  <path d="m2.6207 5.6823-0.5876-2.4766s-0.096843-0.41355 0.20658-0.53554c0.5403-0.21723 0.82625 0.34126 0.59099 0.52356-0.22959 0.17791-0.34932-0.08245-0.34932-0.08245" stroke="#4a2f15" stroke-width=".35842px"/>
  <path d="m6.0442 5.7004 0.62687-3.919s0.078239-0.41747-0.23034-0.52576c-0.54948-0.19284-0.81015 0.3779-0.56697 0.54949 0.23732 0.16745 0.34528-0.098001 0.34528-0.098001" stroke="#4a2f15" stroke-width=".35842px"/>
  <path d="m1.4394 2.656 5.5546-2.0555" stroke="#7b4f23" stroke-width=".4301"/>
 </g>
 <g transform="matrix(1.3546 0 0 1.3546 -1.0202 -1.3601)" fill="none" opacity=".51314" stroke="#7c7c7c" stroke-width=".14649">
  <path d="m3.1424 2.4444 0.35488 3.1274"/>
  <path d="m3.6577 2.25 0.16506 3.1274"/>
  <path d="m4.1512 2.0868 0.016506 3.2429"/>
  <path d="m4.6055 1.9125-0.10729 3.4328"/>
 </g>
 <path d="m2.3582 8.1522-0.35579-2.4519h4.6027l-0.35579 2.4519z" fill="#7b4f23"/>
 <g fill="#cf9c70">
  <rect x="3.0017" y="1.727" width=".48653" height=".48653"/>
  <rect transform="rotate(43.926)" x="3.793" y="-1.7359" width=".48653" height=".48653"/>
  <rect transform="rotate(-8.0882)" x="4.0986" y="1.8795" width=".48653" height=".48653"/>
  <rect transform="rotate(29.615)" x="4.9143" y="-1.7262" width=".48653" height=".48653"/>
 </g>
 <path d="m3.7097 6.3596-0.25675 0.21816a0.34701 0.34701 0 0 1 0.020041 0.00441 0.34701 0.34701 0 0 1 0.17456 0.11072zm-0.64199-0.00115 0.05954 0.32509a0.34701 0.34701 0 0 1 0.19483-0.10747zm0.6424 0.44312a0.34701 0.34701 0 0 1 0.0077 0.20597 0.34701 0.34701 0 0 1-0.00662 0.020925l0.31866-0.11262zm-0.65502 0.003244-0.30889 0.10933 0.30676 0.1093a0.34701 0.34701 0 0 1-0.00487-0.19632 0.34701 0.34701 0 0 1 0.00699-0.022306zm0.59252 0.33687a0.34701 0.34701 0 0 1-0.19138 0.11482l0.25177 0.21446zm-0.52213 0.0084313-0.059131 0.32028 0.24982-0.21262a0.34701 0.34701 0 0 1-0.023723-0.0054057 0.34701 0.34701 0 0 1-0.16697-0.10225z" fill="#4a2f15"/>
 <path d="m5.5862 6.3648-0.25675 0.21816a0.34701 0.34701 0 0 1 0.020041 0.00441 0.34701 0.34701 0 0 1 0.17456 0.11072zm-0.64199-0.00115 0.05954 0.32509a0.34701 0.34701 0 0 1 0.19483-0.10747zm0.6424 0.44312a0.34701 0.34701 0 0 1 0.0077 0.20597 0.34701 0.34701 0 0 1-0.00662 0.020925l0.31866-0.11262zm-0.65502 0.0032441-0.30889 0.10933 0.30676 0.1093a0.34701 0.34701 0 0 1-0.00487-0.19632 0.34701 0.34701 0 0 1 0.00699-0.022306zm0.59252 0.33687a0.34701 0.34701 0 0 1-0.19138 0.11482l0.25177 0.21446zm-0.52213 0.0084314-0.059131 0.32028 0.24982-0.21262a0.34701 0.34701 0 0 1-0.023723-0.0054057 0.34701 0.34701 0 0 1-0.16697-0.10225z" fill="#4a2f15"/>
 <path d="m2.3995 7.804h3.8136" fill="none" stroke="#dfb900" stroke-linecap="round" stroke-width=".17648"/>
 <path d="m2.1471 6.0331h4.3206" fill="none" stroke="#dfb900" stroke-linecap="round" stroke-width=".17648"/>
</svg>
