<?xml version="1.0" encoding="UTF-8"?>
<svg width="32" height="32" version="1.1" viewBox="0 0 8.4667 8.4667" xmlns="http://www.w3.org/2000/svg">
 <g>
  <rect transform="rotate(-19.693)" x=".15377" y="2.7979" width="5.3174" height=".45549" fill="#57322e"/>
  <path d="m3.0028 5.8112s-0.58283-0.43133-0.65854-0.93069c-0.075714-0.49936 0.006345-1.0354-0.52088-1.811-0.52723-0.77563-0.92815-1.257-0.92815-1.257s-0.046749-0.10128 0.17172-0.2306c0.21847-0.12933 0.28988-0.016185 0.28988-0.016185l2.569 4.3047 0.00999 0.77225z" fill="#8e3f36"/>
  <path d="m6.6504 4.5057s0.17689-0.70315-0.08138-1.1372c-0.25827-0.43404-0.66175-0.79632-0.74626-1.7303-0.084516-0.93403-0.079977-1.5605-0.079977-1.5605s-0.028114-0.10794-0.27904-0.069326c-0.25093 0.038616-0.23435 0.17138-0.23435 0.17138l0.7451 4.9573 0.48221 0.6033z" fill="#8e3f36"/>
  <path d="m6.9563 6.3484c-0.32942-0.84501-0.20818-1.7774-0.20818-1.7774s-0.4174 0.042469-0.84955 0.57547c-0.43214 0.533-1.3209 0.80725-1.9078 0.68281-0.58685-0.12444-1.0218 0.094302-1.0218 0.094302s0.68538 0.64374 0.96697 1.5059c0.28159 0.86213 1.1865 1.2478 2.0408 0.94205 0.85426-0.30575 1.3089-1.178 0.97951-2.023z" fill="#a57d51"/>
 </g>
 <path d="m4.6495 7.18 1.5468-0.55361" fill="none" stroke="#57322e" stroke-linecap="round" stroke-width=".26458px"/>
 <g transform="matrix(.80968 -.2898 .3239 .90496 -.27545 2.0566)" fill="none" opacity=".48953" stroke="#666" stroke-width=".29102px">
  <path d="m2.7444 1.125 1.3822 6.5262"/>
  <path d="m3.5155 1.1266 0.77248 6.4728"/>
  <path d="m4.3816 7.6324-0.018788-6.4579"/>
  <path d="m5.2128 1.1553-0.70064 6.461"/>
  <path d="m5.9994 1.1209-1.3879 6.5216"/>
 </g>
 <path d="m6.0808 7.5642s0.025086 0.85634-0.073747 0.89171c-0.098834 0.035374-0.62283-0.6424-0.62283-0.6424s0.1219-0.19022 0.30186-0.25461c0.17995-0.064392 0.39472 0.0053 0.39472 0.0053z" fill="#57322e"/>
 <ellipse transform="rotate(-19.693)" cx="2.8079" cy="9.3768" rx=".1345" ry=".15032" fill="#a0925d"/>
 <g fill="#8e3f36">
  <ellipse transform="rotate(-19.693)" cx="1.4118" cy="2.8208" rx=".2291" ry=".25606"/>
  <ellipse transform="rotate(-19.693)" cx="2.1088" cy="2.8134" rx=".2291" ry=".25606"/>
  <ellipse transform="rotate(-19.693)" cx="2.8129" cy="2.7917" rx=".2291" ry=".25606"/>
  <ellipse transform="rotate(-19.693)" cx="3.5233" cy="2.7983" rx=".2291" ry=".25606"/>
  <ellipse transform="rotate(-19.693)" cx="4.2155" cy="2.8062" rx=".2291" ry=".25606"/>
 </g>
</svg>
