<?xml version="1.0" encoding="UTF-8"?>
<svg width="32" height="32" version="1.1" viewBox="0 0 8.4667 8.4667" xml:space="preserve" xmlns="http://www.w3.org/2000/svg" xmlns:xlink="http://www.w3.org/1999/xlink"><g transform="translate(-.028714 .76775)" fill="none" stroke-width=".13229"><g stroke="#333"><rect x=".21796" y=".50054" width="8.1114" height="4.9792" stroke-linecap="round" stroke-linejoin="bevel"/><path d="m5.2032 0.51288v4.9545"/><path d="m5.1998 3.5733h3.1349"/><path d="m6.4028 5.4644v-1.8537"/><path d="m5.2228 4.31h1.1701"/><path d="m5.9585 3.5713v0.78483"/><path d="m6.404 4.0054h-0.45646"/></g></g><path d="m0.24602 6.1588s-0.06931-1.8203 1.2211-3.1376c1.2904-1.3173 3.0706-2.1279 4.8586-1.4501 1.788 0.67786 1.8963 2.1861 1.9035 2.8327 0.00693 0.6217-0.17899 0.96857-0.68046 1.3733-0.48292 0.38974-1.5236 0.64413-2.0269 0.080478-0.58676-0.65712-0.14107-1.373 0.27042-1.4393 0.3069-0.049435 0.49914 0.071752 0.51474 0.35487 0.0156 0.28312-0.19434 0.28276-0.28675 0.15999-0.09819-0.13046 0.17105-0.029121 0.17105-0.029121" fill="none" stroke="#333" stroke-linecap="round" stroke-width=".26458"/></svg>
