<?xml version="1.0" encoding="UTF-8"?>
<svg width="32" height="32" version="1.1" viewBox="0 0 8.4667 8.4667" xml:space="preserve" xmlns="http://www.w3.org/2000/svg"><path d="m3.3635 8.1202s0.65208-0.83969 0.63526-1.8038c-0.016817-0.96411-0.085755-1.7593-0.085755-1.7593" fill="none" stroke="#333" stroke-linecap="round" stroke-width=".26458px"/><path d="m4.6133 5.6495s-0.34917 0.34194-0.46432 0.51407c-0.11515 0.17214-0.16256 0.41408-0.16256 0.41408" fill="none" stroke="#333" stroke-linecap="round" stroke-width=".26458px"/><path d="m2.8369 0.29837s-0.85649 0.97494-1.0661 2.0345c-0.20959 1.0596 0.48726 1.9746 1.3054 2.1389 0.73795 0.14822 0.86145 0.447 0.86145 0.447s0.069542-0.32585 0.64286-0.66921c0.57332-0.34336 0.55173-1.4633 0.096118-2.3673-0.45561-0.90398-1.8397-1.5839-1.8397-1.5839zm0.066663 0.26562s0.57627 1.1858 0.83096 2.1565c0.25447 0.96979 0.1788 1.6531 0.1788 1.6531s-0.1853-0.63688-0.4346-1.587c-0.24908-0.94927-0.57516-2.2226-0.57516-2.2226z" fill="#333"/><path d="m7.3736 3.1954c-0.3265 4.356e-4 -1.2672 0.051145-2.0123 0.57826-0.91706 0.64876-1.0112 1.014-0.94827 1.3963 0.062911 0.38228 0.05116 0.66198 0.05116 0.66198s0.17986-0.052169 0.63562 0.17983c0.45576 0.232 1.0438 0.32609 1.5606-0.60462 0.51682-0.93071 0.83148-2.2092 0.83148-2.2092s-0.042993-0.00268-0.11834-0.00258zm-0.15451 0.21446s-0.79423 0.6585-1.4475 1.2129c-0.64707 0.54913-0.9648 0.93741-0.9648 0.93741s0.11123-0.5601 0.79272-1.1384c0.67533-0.57311 1.6195-1.0118 1.6195-1.0118z" fill="#333"/></svg>
