<?xml version="1.0" encoding="UTF-8"?>
<svg width="32" height="32" version="1.1" viewBox="0 0 8.4667 8.4667" xml:space="preserve" xmlns="http://www.w3.org/2000/svg">
  <g fill="none" stroke-linecap="round" stroke="#333" stroke-width=".26458px">
    <path d="m0.87984 1.6857s0.86922 0.1852 2.1102 1.2066c1.2141 0.99921 1.1888 1.8904 0.65778 2.6107-0.53106 0.72031-1.7549 0.76821-2.4184 0.074087-0.64218-0.67187-0.57257-1.5449-0.39919-2.0325 0.21885-0.61545 0.99739-1.0607 0.99739-1.0607"/><path d="m2.5586 2.0717s0.72606-0.34559 1.741-0.32739c1.0149 0.018201 1.8501 0.304 1.8501 0.304"/>
    <path d="m6.7869 2.4204s0.77639 0.47565 1.0758 1.2522c0.29942 0.77656 0.19386 1.5136-0.58079 2.1066-0.68727 0.52605-1.5516 0.40953-2.0674-0.13151-0.51587-0.54104-0.37864-1.5092-0.083245-2.1047 0.2954-0.59548 1.151-1.2104 1.5211-1.4279 0.37015-0.21757 0.98643-0.38255 0.98643-0.38255"/>
    <path d="m4.4059 4.9301-0.35407 0.54879 0.34781 0.56937 0.28483-0.6215z"/>
    <circle cx="2.4891" cy="4.4961" r=".66507"/>
    <circle cx="6.2811" cy="4.4881" r=".66507"/>
  </g>
  <g fill="#333">
    <circle cx="2.4843" cy="4.4944" r=".39344"/>
    <circle cx="6.2814" cy="4.4873" r=".39344"/>
    <path d="m4.4059 4.9301-0.00626 1.1182 0.28483-0.6215z"/>
  </g>
</svg>
