<?xml version="1.0" encoding="UTF-8"?>
<svg enable-background="new 0 0 64 64" version="1.1" viewBox="0 0 64 64" xmlns="http://www.w3.org/2000/svg">
 <path d="m40.531 14.091c-2.3204 0-4.7132 0.44926-7.0787 1.3857 0.11562-1.1509 0.64167-1.2392 0.64167-3.6956 0-1.0821-0.85262-1.6902-1.6496-1.7282-1.5508-2.1192-3.1139-2.1607-3.722-2.0777-0.4625-0.72199-1.6417-2.2251-3.5234-2.406-8.806-0.83938-17.872 9.3047-17.872 9.3047s4.4378-1.6743 9.0531-1.4961c-4.5605 5.6894-10.859 8.941-10.859 8.941 1.9886-0.752 4.0062-1.662 5.9745-2.8632 1.9718-1.1995 3.8447-2.6549 5.67-4.2066 1.8279-1.5305 3.6876-3.1898 5.7565-4.5076 1.0274-0.65403 2.0777-1.2154 3.0998-1.639 1.0168-0.40777 2.0036-0.71051 2.9268-0.88439-1.9533 0.62225-3.9904 1.5578-5.9092 2.888-1.9224 1.3248-3.6991 2.9241-5.5553 4.4952-1.8535 1.5631-3.8562 3.106-5.9321 4.2604-1.0344 0.57989-2.068 1.0742-3.0804 1.4908-1.008 0.39365-1.9991 0.73082-2.9506 0.96648 0 0 1.8562 0.19153 4.5958-0.0556-1.5384 2.888-2.4334 6.3929-2.4334 10.331 0 13.652 7.9463 21.027 17.554 23.879 2.3787 0.70698 2.3187 1.9585 4.8059 2.0036 0.06884 0 0.13946 8.83e-4 0.21095 8.83e-4 3.444 0 9.2358-1.406 12.363-2.5693 8.8298-3.286 15.862-10.473 15.862-23.315-8.83e-4 -10.993-8.3558-18.503-17.947-18.503m-11.635-5.211c0.47397-0.049427 1.5375 0.032657 2.6991 1.3928-0.30274 0.2083-0.50928 0.56135-0.50928 1.0786 0 2.0768-0.95147 2.9753-1.1571 4.0327-1.0742-0.45544-2.1368-0.79613-3.1836-1.03 1.5684-1.9003 2.0256-4.3249 2.151-5.4741m12.796 44.547c-3.0548 1.1368-8.5032 2.4034-11.439 2.4034l-0.16417-8.83e-4c-0.60283-0.01147-0.65932-0.05208-1.211-0.44308-0.6099-0.43072-1.4466-1.023-2.888-1.4519-5.8483-1.7352-15.66-6.8174-15.66-21.341 0-4.1784 1.1404-7.9737 3.2128-10.836 3.4352-0.70345 7.4397-2.158 10.895-5.0945 1.9824 0.18094 4.0062 0.81643 6.0336 1.91l0.82967 0.44837c1.6249 1.91 2.85 3.9436 3.8447 6.0098 1.4316 3.0945 2.3372 6.2719 2.7194 9.4318 0.37335 3.1563 0.2233 6.2922-0.61872 9.2746-0.87204 2.9718-2.5005 5.7547-5.1607 8.1246 3.6964-1.3928 6.4017-4.1404 7.8695-7.2455 1.5164-3.1183 1.9171-6.6091 1.5066-10.071-0.42807-3.4661-1.6585-6.956-3.7679-10.186-1.3028-2.0124-2.9921-3.9851-5.0583-5.6082l0.2842-0.14387c2.4572-1.2392 5.0177-1.8676 7.6091-1.8676 8.7212 0 15.299 6.8165 15.299 15.855 8.82e-4 12.87-7.6868 18.433-14.137 20.833" fill="#333" stroke-width=".88263"/>
</svg>
