<?xml version="1.0" encoding="UTF-8"?>
<svg width="32" height="32" version="1.1" viewBox="0 0 8.4667 8.4667" xmlns="http://www.w3.org/2000/svg">
 <path d="m1.5511 8.0702s3.6082-1.1119 3.2333-0.22702c-0.37489 0.88486 3.2833 0.068305 3.2833 0.068305" fill="none" stroke="#363636" stroke-linecap="round" stroke-width=".26458"/>
 <path d="m2.5952 6.569c0.85554 0.32764 1.8923-0.25486 3.2422-2.3239 0.34628-0.53077 0.60532-1.03 0.7984-1.4847 0.04708-0.11086-0.58323-0.59844-0.54364-0.70384 0.043737-0.11644 0.75628 0.15013 0.79169 0.040824 0.38406-1.1856 0.30334-1.9368 0.30334-1.9368l-2e-5 9.6e-5s-2.531 0.48293-4.3517 2.467c-0.19337 0.21073-0.36256 0.41176-0.50953 0.60358-0.065185 0.085079 0.98159 0.92672 0.92501 1.0082-0.085163 0.12265-1.2682-0.51731-1.3348-0.40256-0.72855 1.2555-0.37789 2.0456 0.33538 2.5466" fill="#7e6141"/>
 <path d="m2.5952 6.569c-0.74509 1.1123-1.2046 1.5942-1.2046 1.5942s0.13697-0.763 0.86093-1.7797c0 0 1.3659-2.0766 1.7189-2.5648 0.35303-0.48827 0.89086-1.0365 0.89086-1.0365z" fill="#54402c"/>
 <g fill="#fff">
  <path d="m5.7171 5.5537v0.66094h0.26355v-0.66094zm-0.80874 0.80874v0.26355h0.66043v-0.26355zm1.2201 0v0.26355h0.66094v-0.26355zm-0.41135 0.41186v0.66198h0.26355v-0.66198z" color="#000000" opacity=".63895"/>
  <path d="m7.178 3.7134v0.66094h0.26355v-0.66094zm-0.80874 0.80874v0.26355h0.66043v-0.26355zm1.2201 0v0.26355h0.66094v-0.26355zm-0.41135 0.41186v0.66198h0.26355v-0.66198z" color="#000000" opacity=".63895"/>
  <path d="m1.1394 0.93227v0.66094h0.26355v-0.66094zm-0.80874 0.80874v0.26355h0.66043v-0.26355zm1.2201 0v0.26355h0.66094v-0.26355zm-0.41135 0.41186v0.66198h0.26355v-0.66198z" color="#000000" opacity=".63895"/>
 </g>
</svg>
