<?xml version="1.0" encoding="UTF-8"?>
<!-- Created with Inkscape (http://www.inkscape.org/) -->
<svg width="32" height="32" version="1.1" viewBox="0 0 8.4667 8.4667" xmlns="http://www.w3.org/2000/svg">
 <g transform="rotate(45 4.9022 4.7387)" stroke-linecap="round" stroke-linejoin="round">
  <rect x="2.8038" y="3.6169" width="2.5385" height="2.4698" fill="#fffefd" stroke-width=".26458"/>
  <path transform="scale(.26458)" d="m15.264-1c-2.5857 0-4.666 2.0822-4.666 4.668 0 0.22693-0.0155 0.55892-0.0155 0.55892l0.0155 9.443h9.5938l0.01551-9.4431s-0.01551-0.33193-0.01551-0.5589c0-2.5857-2.0822-4.668-4.668-4.668z" fill="#f5dbb8"/>
  <path transform="scale(.26458)" d="m10.598 23.004-0.01547 9.4449s0.01547 0.33236 0.01547 0.55904c0 2.5857 2.0803 4.666 4.666 4.666h0.25977c2.5857 0 4.668-2.0803 4.668-4.666 0-0.22661 0.01546-0.55906 0.01546-0.55906l-0.01546-9.4448z" fill="#f5dbb8"/>
 </g>
 <g fill="#fcf4eb" stroke-linecap="round" stroke-linejoin="round" stroke-width=".26458">
  <circle cx="3.3258" cy="4.1988" r=".20129"/>
  <circle cx="4.2083" cy="3.3343" r=".20129"/>
  <circle cx="4.2007" cy="5.1368" r=".20129"/>
  <circle cx="5.1608" cy="4.3207" r=".20129"/>
  <circle cx="4.2007" cy="4.2247" r=".20129"/>
  <circle cx="1.5652" cy="5.9915" r=".20129"/>
  <circle cx="2.4477" cy="5.1269" r=".20129"/>
  <circle cx="2.4401" cy="6.9294" r=".20129"/>
  <circle cx="3.4002" cy="6.1133" r=".20129"/>
  <circle cx="2.4401" cy="6.0173" r=".20129"/>
  <circle cx="5.2332" cy="2.4026" r=".20129"/>
  <circle cx="6.1157" cy="1.5381" r=".20129"/>
  <circle cx="6.1081" cy="3.3406" r=".20129"/>
  <circle cx="7.0682" cy="2.5245" r=".20129"/>
  <circle cx="6.1081" cy="2.4284" r=".20129"/>
  <circle cx="7.1077" cy="1.3629" r=".20129"/>
  <circle cx="1.4362" cy="6.9904" r=".20129"/>
 </g>
</svg>
