<?xml version="1.0" encoding="UTF-8"?>
<svg width="32" height="32" version="1.1" viewBox="0 0 8.4667 8.4667" xml:space="preserve" xmlns="http://www.w3.org/2000/svg"><g opacity=".31243"><g fill="none" stroke="#fff"><circle cx="4.8854" cy="3.1545" r="2.5504" stroke-linecap="round" stroke-linejoin="round" stroke-width=".26458"/><g stroke-width=".26458px"><path d="m3.2494 2.3774-2.5905-1.2392"/><path d="m6.1859 2.1122 2.0441-1.6744"/><path d="m8.0643 3.5322-1.4218-0.18103"/><path d="m1.3108 4.1707 2.0294-0.57987"/><path d="m3.2689 0.12987 0.74111 1.3316"/></g></g><g fill="#fff"><circle cx="1.0426" cy="2.5832" r=".20178"/><circle cx="1.7634" cy=".77265" r=".20178"/><circle cx="5.1635" cy="1.3816" r=".20178"/><circle cx="6.8889" cy=".5316" r=".20178"/><circle cx="7.9926" cy="2.0413" r=".20178"/><circle cx="6.4194" cy="2.9294" r=".20178"/><circle cx="7.8784" cy="5.3906" r=".20178"/><circle cx="6.153" cy="3.9951" r=".20178"/><circle cx="3.4635" cy="4.2361" r=".20178"/><circle cx="1.4082" cy="4.6421" r=".20178"/><circle cx="1.6746" cy="3.2592" r=".20178"/></g></g><path d="m0.18502 7.3154s1.6892-2.1028 1.9175-2.2396c0.22829-0.13677 1.1174-0.43968 1.8429-0.36591 0.72545 0.073772 0.80579 0.18048 1.4159 0.056909 0.6101-0.12357 0.90442-0.22461 1.0357-0.13455 0.13128 0.090065 0.18195 0.18011-0.076682 0.33406-0.25863 0.15395-0.56716 0.27543-0.7665 0.33184-0.19934 0.056414-0.37128 0.071298-0.45764 0.12638-0.08636 0.055077-0.11611 0.075779-0.11611 0.075779s0.54582-0.10292 0.9364-0.18604c0.39058-0.083122 0.54298-0.12074 0.54298-0.12074s0.99758-0.68022 1.1918-0.74235c0.19418-0.062127 0.2973 0.099057 0.21269 0.19953-0.084605 0.10047-1.0834 1.0777-1.1543 1.122-0.070978 0.044284-1.4785 0.56031-1.5913 0.56874-0.11272 0.008435-0.82514-0.16642-1.2059-0.26964-0.38078-0.10322-0.78212-0.26132-0.9577-0.019058-0.17557 0.24226-1.336 2.3827-1.336 2.3827z" fill="#795f14"/><rect x="4.0752" y="2.2982" width="1.6685" height="1.6685" fill="#e6c158"/></svg>
