<?xml version="1.0" encoding="UTF-8"?>
<svg width="32" height="32" version="1.1" viewBox="0 0 8.4667 8.4667" xml:space="preserve" xmlns="http://www.w3.org/2000/svg"><g><path d="m2.2386 4.6376-0.51018-2.2602 0.7619-0.61021 1.4351 0.47635 0.15252 3.8948-1.4993-0.13558z" fill="#48b3b5"/><path d="m5.4695 2.9454 0.86671-0.59837 0.5305 0.82217-0.71675 3.1707-1.3931-0.36873z" fill="#48b3b5"/><path d="m1.8461 5.7539c0.40327-0.28406 0.40811-0.62997 1.3825-0.47915 0.97443 0.15082 1.1232-0.13242 1.9303 0.054881 0.8071 0.1873 0.73336 0.55391 1.2997 0.79321 0.56638 0.23931 0.51847 0.80612 0.51847 0.80612s-0.65918 0.20776-1.5952 0.26356c-1.131 0.067425-1.1369-0.13066-2.3818-0.062094-1.0994 0.060545-1.6788-0.24826-1.6788-0.24826s0.12145-0.84421 0.52472-1.1283z" fill="#897b65"/><path d="m1.2582 5.9164-0.13717-0.59441 0.5047-0.48432 0.57387 0.30554 0.20698 0.74145-0.63456 0.44159z" fill="#50c6c8"/><path d="m4.3504 5.0861-0.18359-0.58453-0.69853-0.22808-0.35386 0.50311 0.19706 0.74357 0.79219 0.13775z" fill="#50c6c8"/><path d="m1.1386 3.9877 0.70164 2.5756 0.7769 0.016172 0.64697-0.31813-0.92388-2.6876-0.61474-0.075733z" fill="#57d9db"/><path d="m4.4586 5.7294-0.34451-0.38223 0.277-0.47258 0.63246 0.064897 0.46218 0.46741-0.41032 0.47647z" fill="#50c6c8"/><path d="m5.7601 5.6296 0.27856-0.34509 0.45123 0.17678 0.039932 0.55131-0.33442 0.4571-0.47486-0.29073z" fill="#50c6c8"/><path d="m3.5697 1.7523 0.66735-0.86501 0.69499 0.71575-0.095843 4.7994-0.7128 0.18397-0.85621-0.30503z" fill="#57d9db"/><path d="m5.7471 6.3323 0.86836-1.4809 0.72378-0.14451 0.33764 0.43911-1.0959 1.6438-0.55305-0.033008z" fill="#57d9db"/><path d="m4.5618 6.881-0.2974-0.32853 0.32162-0.46537 0.84844 0.14383 0.19544 0.351-0.48172 0.34667z" fill="#7aedef"/><path d="m3.4319 6.1414 0.43739 0.17451-0.12422 0.41903-0.61724 0.13635-0.57355-0.20157 0.24921-0.46038z" fill="#7aedef"/></g><g fill="#50c6c8"><path transform="translate(-.32504 .43869)" d="m6.6753 1.1616-0.47154-0.16053-0.096748-0.48863 0.3748-0.3281 0.47154 0.16053 0.096748 0.48863z" fill-opacity=".32056"/><path transform="rotate(-48.488 5.0822 7.8869)" d="m6.6753 1.1616-0.47154-0.16053-0.096748-0.48863 0.3748-0.3281 0.47154 0.16053 0.096748 0.48863z" fill-opacity=".34061"/><path transform="matrix(.44676 -.31674 .31674 .44676 -1.3897 3.2674)" d="m6.6753 1.1616-0.47154-0.16053-0.096748-0.48863 0.3748-0.3281 0.47154 0.16053 0.096748 0.48863z" fill-opacity=".47282"/><path transform="matrix(.53037 -.1365 .1365 .53037 -2.962 1.3004)" d="m6.6753 1.1616-0.47154-0.16053-0.096748-0.48863 0.3748-0.3281 0.47154 0.16053 0.096748 0.48863z" fill-opacity=".23527"/><path transform="matrix(.53037 -.1365 .1365 .53037 3.7032 2.026)" d="m6.6753 1.1616-0.47154-0.16053-0.096748-0.48863 0.3748-0.3281 0.47154 0.16053 0.096748 0.48863z" fill-opacity=".23527"/><g fill-opacity=".47282"><path transform="matrix(.52862 .1431 -.1431 .52862 2.0896 .50044)" d="m6.6753 1.1616-0.47154-0.16053-0.096748-0.48863 0.3748-0.3281 0.47154 0.16053 0.096748 0.48863z"/><path transform="matrix(.52862 .1431 -.1431 .52862 4.2779 2.6888)" d="m6.6753 1.1616-0.47154-0.16053-0.096748-0.48863 0.3748-0.3281 0.47154 0.16053 0.096748 0.48863z"/><path transform="matrix(.52862 .1431 -.1431 .52862 -2.6154 3.5641)" d="m6.6753 1.1616-0.47154-0.16053-0.096748-0.48863 0.3748-0.3281 0.47154 0.16053 0.096748 0.48863z"/></g></g></svg>
