<?xml version="1.0" encoding="UTF-8"?>
<svg width="32" height="32" version="1.1" viewBox="0 0 8.4667 8.4667" xmlns="http://www.w3.org/2000/svg">
 <g>
  <path d="m6.0091 7.2628-0.25726 0.012704s0.16866 0.12225 0.17083 0.11528c-0.36334 0.24204-1.7482 0.22939-1.7482 0.22939s-1.8346 0.01676-1.8346-0.35737c0-0.37413 1.8346-0.35737 1.8346-0.35737s1.8346-0.01676 1.8346 0.35737z" fill="#774c28"/>
  <path d="m5.3285 4.0935s-0.90262 0.82719-0.90262 1.9585c0 1.1313 0.70403 1.1423 0.70403 1.1423s0.029764 0.1664-0.94728 0.16541c-0.97705-9.967e-4 -0.93232-0.16541-0.93232-0.16541s0.70403-0.011033 0.70403-1.1423c0-1.1313-0.90262-1.9585-0.90262-1.9585l1.1309-0.48084z" fill="#603e20"/>
  <path d="m7.8479 1.7661s0.37704 2.4047-3.6734 2.4047c-4.0504 0-3.6734-2.4047-3.6734-2.4047" fill="#85552d"/>
  <path d="m4.1745 2.38c-3.7008 0-3.6734-0.61384-3.6734-0.61384s-0.006825-0.24191 0.90116-0.422l0.19657 0.14364 0.14013-0.20081c0.54099-0.078434 1.3184-0.13467 2.4355-0.13467 3.6907 0 3.6734 0.61384 3.6734 0.61384s0.027408 0.61384-3.6734 0.61384z" fill="#5b391e"/>
  <path d="m4.1574 1.7337c-3.0615 0-3.1585 0.33011-3.1611 0.35403 0.47027 0.1484 1.3868 0.29249 3.1781 0.29249 1.7126 0 2.626-0.13161 3.114-0.27285 0.00116-0.00635 0.040066-0.37366-3.1311-0.37366z" fill="#a32f2f"/>
 </g>
</svg>
