<?xml version="1.0" encoding="UTF-8"?>
<svg width="32" height="32" version="1.1" viewBox="0 0 8.4667 8.4667" xmlns="http://www.w3.org/2000/svg">
 <g fill="none">
  <g stroke="#838383" stroke-width=".088107">
   <path d="m2.5701 2.3163 0.020613-0.49833"/>
   <path d="m2.8013 1.8039 1.3888-0.83677 1.3559 0.86258"/>
   <path d="m5.6994 1.8365 0.03217 0.42476"/>
  </g>
  <path d="m4.2025 9.9572-0.00688-9.6797" stroke="#4f4738" stroke-width=".26458px"/>
  <path d="m2.4893 1.8114h3.3477" stroke="#4f4738" stroke-width=".26458px"/>
 </g>
 <g>
  <path d="m2.2933 4.6607 0.17742 0.20828 0.21776-0.18253-0.16622-0.21308z" fill="#6a6129"/>
  <path d="m2.2933 4.6607 0.055153-2.3998 0.40211 0.018559-0.062085 2.407z" fill="#840000"/>
  <path d="m3.0051 1.6771 0.041998 2.5317 0.23885 1.6772 0.42146-1.698 0.49544 1.7412 0.43959-1.7046 0.42237 1.6438 0.28597-1.5776-0.0067654-2.6143z" fill="#840000"/>
  <path d="m5.7125 4.8132 0.25852 0.14511 0.19176-0.22369-0.24243-0.14868z" fill="#6a6129"/>
  <path d="m5.531 2.2351 0.18145 2.5781 0.45028-0.078574-0.22329-2.5513z" fill="#840000"/>
 </g>
 <g fill="#6a6129">
  <circle cx="4.2009" cy=".37591" r=".36725"/>
  <circle transform="rotate(-2.0341)" cx="2.4745" cy="2.3863" r=".25226"/>
  <circle cx="3.3026" cy="5.7186" r=".25226"/>
  <circle cx="4.198" cy="5.7593" r=".25226"/>
  <circle cx="5.0629" cy="5.7496" r=".25226"/>
  <circle cx="5.7399" cy="2.2851" r=".25226"/>
 </g>
 <path d="m3.5948 3.8396 0.16713 0.10066 0.18208-0.30259 0.34288 0.20414 0.10876-0.21326-0.2735-0.15289 0.60184-0.97599 0.054293-0.45959-0.36158 0.26294-0.60479 0.98259-0.25607-0.14418-0.10221 0.19241 0.30638 0.20205z" fill="#b6b6b6"/>
</svg>
