<?xml version="1.0" encoding="UTF-8"?>
<svg width="32" height="32" version="1.1" viewBox="0 0 8.4667 8.4667" xmlns="http://www.w3.org/2000/svg">
 <path d="m6.613 3.336s0.6772-0.87246 1.1257 0.049533c0.4485 0.92199 0.53633 1.3279-0.40283 1.8987-0.93917 0.57083-1.3065-0.55063-1.3065-0.55063" fill="none" stroke="#975c32" stroke-width=".45041"/>
 <path d="m1.8269 3.3257s-0.6772-0.87246-1.1257 0.049532c-0.4485 0.92199-0.53633 1.3279 0.40283 1.8987 0.93917 0.57083 1.3065-0.55063 1.3065-0.55063" fill="none" stroke="#975c32" stroke-width=".45041"/>
 <g>
  <path d="m1.9471 3.8681v-1.5655s0.05274-0.4695 2.2805-0.4695c2.2277 0 2.2652 0.4695 2.2652 0.4695v1.586" fill="#6f4424"/>
  <path d="m2.4136 2.5924s0.4147-0.18711 1.8409-0.18711c1.4262 0 2.0048 0.25394 2.0048 0.25394l-2.3134 2.1096z" fill="#80802a"/>
  <path d="m4.2276 2.7721c-2.2277 0-2.2805-0.4695-2.2805-0.4695s-1.6086 1.3904-0.47552 2.6209c1.1331 1.2304 1.247 1.2466 1.247 1.2466l0.60231 0.47811h1.7999l0.60055-0.47811s0.11391-0.016203 1.247-1.2466c1.1331-1.2304-0.47553-2.6209-0.47553-2.6209s-0.037489 0.4695-2.2652 0.4695z" fill="#a86637"/>
  <path d="m1.1977 3.3388c-0.03395 0.083173-0.06282 0.16964-0.08475 0.25838 0.08438 0.049528 0.34542 0.19234 0.77257 0.33228 0.52636 0.17244 1.3086 0.34365 2.3415 0.34365 1.0329 0 1.8156-0.17121 2.342-0.34365 0.40638-0.13313 0.66292-0.26987 0.75965-0.32556-0.021949-0.090408-0.051323-0.17837-0.085783-0.26303-0.041904 0.02708-0.29826 0.18644-0.75603 0.33641-0.5018 0.16439-1.2561 0.33021-2.2598 0.33021-1.0037-1e-7 -1.758-0.16582-2.2598-0.33021-0.43393-0.14216-0.7041-0.29853-0.76947-0.33848zm6.1702 0.50488c-0.065943 0.041592-0.35799 0.21673-0.81081 0.3607-0.5175 0.16454-1.2952 0.33021-2.3301 0.33021-1.0349 0-1.8126-0.16568-2.3301-0.33021-0.42599-0.13544-0.7295-0.30411-0.82476-0.36019-0.00844 0.10418-0.0056 0.21019 0.011369 0.31781 0.12357 0.065763 0.36792 0.18318 0.73122 0.29869 0.5419 0.1723 1.3487 0.34365 2.4123 0.34365 1.0636 0 1.8704-0.17135 2.4123-0.34365 0.34563-0.10989 0.58612-0.22204 0.71572-0.28939 0.01833-0.11098 0.021657-0.22027 0.012919-0.32763z" fill="#3a7c49"/>
  <path d="m2.7186 6.1703 0.00176 0.47798s0.2625 0.16598 1.5072 0.16539c1.2447-5.97e-4 1.4938-0.16539 1.4938-0.16539v-0.47798s-0.24901 0.16479-1.4938 0.16539c-1.2447 5.971e-4 -1.5072-0.16539-1.5072-0.16539z" fill="#86512c"/>
  <path d="m3.2658 2.915c0.18614 0.00604 0.44528-0.089895 0.5188 0.17072 0.073515 0.26061 0.063205 1.4353 0.24468 1.4353 0.18147 0 0.093633-1.2279 0.22364-1.0921 0.13 0.13579 0.31129-0.083181 0.31418-0.29903 0.00288-0.21585 0.00516-0.36108 0.00516-0.36108s-0.31403-6.606e-4 -0.68744-6.606e-4c-0.31247 0-0.84383-0.054551-0.84383-0.054551s0.038671 0.19537 0.22482 0.20141z" fill="#d4d546"/>
  <ellipse cx="2.8061" cy="7.3149" rx=".42914" ry=".14051" fill="#d4d546"/>
 </g>
 <g fill="#626262">
  <circle cx="4.2276" cy="5.9388" r=".18251"/>
  <circle cx="3.5084" cy="5.9082" r=".18251"/>
  <circle cx="2.7506" cy="5.8266" r=".18251"/>
  <circle cx="4.9467" cy="5.9082" r=".18251"/>
  <circle cx="5.7045" cy="5.8266" r=".18251"/>
 </g>
</svg>
