<?xml version="1.0" encoding="UTF-8"?>
<svg width="32" height="32" version="1.1" viewBox="0 0 8.4667 8.4667" xmlns="http://www.w3.org/2000/svg">
 <g transform="translate(0 -288.53)">
  <g>
   <circle cx="7.5979" cy="289.53" r=".33959" fill="#a0a0a0" style="paint-order:markers fill stroke"/>
   <path d="m6.3311 290.42 0.92722-0.88589s0.082682 0.0236 0.16536 0.11812c0.082682 0.0945 0.082682 0.20671 0.082682 0.20671l-0.90951 0.85044-0.36616 0.0532z" fill="#776023"/>
   <path d="m0.48705 296.28 0.33164-0.97105 1.2695-1.2361 0.46688 0.74901-1.1108 1.1275z" fill="#b2b2b2"/>
  </g>
  <path d="m0.96856 295.8 5.2621-5.0377" fill="none" stroke="#cdcdcd" stroke-linecap="round" stroke-width=".26458"/>
  <g>
   <path d="m5.586 290.76s-0.2157 0.12909-0.23493-0.13634c-0.019223-0.26543 0.042825-0.60385 0.14305-0.68737 0.10023-0.0835 0.19628-0.0125 0.38002 0.19628 0.18375 0.2088 0.19114-5e-3 0.4569 0.28429 0.26576 0.28938 0.29897 0.0623 0.49524 0.47158 0.19628 0.40926 0.54289 0.63059 0.32991 0.77258-0.21298 0.14198-0.4398 0.82779-0.55124 0.44266-0.089172-0.30817-0.70576-0.29651-0.70576-0.29651z" fill="#e5e5e5"/>
   <path d="m4.9722 291.4s0.070994-0.10022 0.11693-0.25474c0.045937-0.15451 0.13781-0.25056 0.27145-0.30485 0.13363-0.0543 0.15452-0.15869 0.25474-0.11276 0.10023 0.0459 0.13781 0.14617 0.30903 0.32574 0.17122 0.17957 0.3842 0.24221 0.30485 0.43013-0.079346 0.18793-0.18375 0.30068-0.30903 0.3675-0.12528 0.0668-0.44684 0.21716-0.44684 0.21716z" fill="#fff"/>
   <path d="m4.4836 291.86s0.020881-0.0835 0.19628-0.22551c0.1754-0.14199 0.20463-0.26309 0.35079-0.30486 0.14616-0.0418 0.24639-0.0501 0.31738 0.096 0.070994 0.14617 0.27562 0.16705 0.26727 0.32992-0.00835 0.16286-0.058465 0.30067-0.058465 0.30067s-0.12111 0.11693-0.2088 0.18375c-0.087698 0.0668-0.15869 0.12107-0.15869 0.12107z" fill="#e5e5e5"/>
   <path d="m3.356 292.86s0.054289-0.16287 0.14616-0.22134c0.091874-0.0585 0.079346-0.2088 0.34244-0.30903 0.26309-0.10022 0.49278-0.30067 0.53454-0.38837 0.041761-0.0877 0.07517-0.15452 0.07517-0.15452s0.070993 8e-3 0.26309-0.0418c0.1921-0.0501 0.53872 0.15452 0.56795 0.25474 0.029232 0.10023-0.09605 0.3675-0.09605 0.3675s-0.17122 0.071-0.23386 0.26727c-0.062641 0.19627-0.2088 0.20463-0.3842 0.42596-0.1754 0.22133-0.35497 0.48025-0.46772 0.53454-0.11275 0.0543-0.14616 0.22968-0.2965 0.32573-0.15034 0.096-0.4009 0.27562-0.4009 0.27562z" fill="#fff"/>
   <path d="m2.667 293.49s0.070994-4e-3 0.15869-0.17125c0.087698-0.16704 0.22968-0.30068 0.32991-0.4009 0.10023-0.10023 0.1044-0.13364 0.1044-0.13364s0.23804 8e-3 0.21298 0.35915c-0.025056 0.35079 0.13781 0.55959 0.11275 0.73499-0.025056 0.17539-0.070994 0.24221-0.070994 0.24221s-0.025056 0.071-0.13781 0.15452c-0.11275 0.0835-0.33826 0.1921-0.33826 0.1921l-0.37585-0.53872z" fill="#e5e5e5"/>
   <path d="m2.2472 293.93s0.047247-0.062 0.13879-0.0797c0.091541-0.0177 0.038388-0.12993 0.15946-0.17718 0.12107-0.0472 0.12153-0.18676 0.12153-0.18676s0.23386 0.10858 0.36332 0.39255c0.12946 0.28398 0.13363 0.52619 0.13363 0.52619s-0.033409 0.0543-0.22551 0.30903c-0.1921 0.25474-0.33982 0.3764-0.33982 0.3764l-0.57892-0.62282z" fill="#fff"/>
   <path d="m1.7481 294.28-0.020671-0.11811s0.12107-0.0325 0.24509-0.11811c0.12402-0.0856 0.27167-0.18013 0.27167-0.18013s0.026576 0.1506 0.19489 0.3573c0.16832 0.20671 0.20375 0.51677 0.20671 0.62307 0.00295 0.10631-0.047247 0.251-0.047247 0.251s-0.21556 0.0974-0.26576 0.18308c-0.0502 0.0856-0.14469 0.17718-0.14469 0.17718l-0.57582-0.69689z" fill="#e5e5e5"/>
   <path d="m1.1576 294.83s0.047247 0.37207 0.31301 0.54334c0.26576 0.17127 0.4016 0.22442 0.43113 0.67327 0.029529 0.44884-0.041341 0.68508-0.041341 0.68508l0.64374 0.0118s0.088588-1.004-0.25986-1.382c-0.34845-0.37798-0.49609-1.0808-0.49609-1.0808s-0.14765 0.13584-0.27167 0.28348c-0.12402 0.14765-0.31892 0.26577-0.31892 0.26577z" fill="#fff"/>
  </g>
 </g>
</svg>
