<?xml version="1.0" encoding="UTF-8"?>
<svg width="200" height="250" version="1.1" viewBox="0 0 52.917 66.146" xmlns="http://www.w3.org/2000/svg">
 <g transform="translate(0 -288.53)">
  <g fill="#713d15">
   <path d="m41.641 320.51s-0.30896 2.1993 0.02377 3.7587c0.33272 1.5595 0.52285 6.3979 0.76051 9.077 0.23766 2.6791 0.28519 8.4372 0.42779 11.156 0.14259 2.7191-1.1883 4.5985-1.1883 4.5985l1.9013 1.3596s0 2.839 0.09506 4.4385-5.181 1.7994-5.181 1.7994 1.2358-2.3592 1.1883-4.5585c-0.04754-2.1993-0.42779-3.039-0.42779-3.039l0.66545-2.999-0.90311-0.9197s0.41626-1.7166-0.34425-5.5153c-0.76051-3.7987-0.65392-6.6806-0.65392-6.6806l-1.1883-12.396z"/>
   <path d="m25.26 314.1 0.18203 0.8178 0.41491 2.9131 5.559-0.22385 1.3804-3.3951-0.08274-2.0138 1.6155-3.9251-0.68592-8.5212-6.5162-3.3768-6.7272 5.9094 2.2688 9.6028z"/>
   <path d="m15.3 323.37s-0.23006 4.1525-1.0783 8.1675c-0.84824 4.015-2.0358 8.03-1.4137 16.795 0.62205 8.7652 1.131 14.081 1.131 14.081l4.1281-0.50894 0.16965-10.066s-0.6786-3.3364-0.6786-6.2205c0-2.884 1.5837-14.017 1.5837-14.017l3.5057-5.8323-6.6163-3.9443z"/>
  </g>
  <g>
   <path d="m36.196 317.96s2.4212-0.3506 4.2306 0.48884c1.8095 0.83946 1.1969 2.6958 1.1969 2.6958s-1.3275 0.27024-2.111 1.0164c-0.78349 0.74617-0.89541 1.7162-0.89541 1.7162l-1.7162 2.9101-10.558 1.567-3.7682-1.2312-2.6489 0.93272s1.1566-1.9027 0.14924-3.4697c-1.0073-1.567-1.7908-2.2758-1.7908-2.2758l2.7982-3.4324 2.7609-1.8281z" fill="#b08534"/>
   <path d="m25.335 314.85s1.6043 1.1939 3.6563 1.082c2.052-0.11192 3.4648-2.1661 3.4648-2.1661s1.3661 1.2152 2.2621 2.278c0.88577 1.0507 1.4776 1.9176 1.4776 1.9176s-2.1484 2.4641-6.1778 2.3522c-4.0294-0.11193-6.1754-3.2624-6.1754-3.2624s0.29083-0.6881 0.6156-1.1752c0.33578-0.50366 0.87676-1.026 0.87676-1.026z" fill="#dcc840"/>
   <path d="m15.409 321.3s0.03071 0.44854 0.01072 0.8684c-0.01999 0.41985-0.11996 1.1996-0.11996 1.1996s0.37987-0.73975 2.0193-0.25991c1.6395 0.47985 2.5791 2.1193 2.7991 2.6791 0.21993 0.55981-0.19304 2.2682-0.19304 2.2682l4.2917-4.3875-5.898-3.7388z" fill="#b08534"/>
   <path d="m38.617 323.88s-0.67156-0.55963-2.3131 0.52233c-1.6416 1.082-3.8801 2.4624-7.7229 2.2385-3.8428-0.22385-5.3062-1.1378-7.1717-0.2051-1.8654 0.93271-1.8197 3.1525-2.1182 3.9733-0.29847 0.82079-0.14924 1.1939-0.14924 1.1939l3.4324 3.2086 15.222-2.5743 2.052-3.1712z" fill="#366841"/>
   <path d="m19.142 331.6s1.6416-2.8355 3.6563-3.1712c2.0147-0.33579 4.9621 1.0073 5.7083 1.6416 0.74618 0.63425 0.74618 1.7908 1.7162 1.7535 0.97003-0.0373 0.8208-1.082 1.3431-1.8654 0.52232-0.78348 2.8728-2.052 5.4471-2.052 2.5743 0 2.7982 1.082 2.7982 1.082s0.44771 2.6862-0.22385 4.2532c-0.67156 1.567-1.8543 6.7176-1.7487 11.625 0.10552 4.9069 2.6909 9.0224 3.0075 12.083 0.31658 3.0602-23.479 2.9547-23.479 2.9547s-1.0553-5.5401 0.47486-8.9696c1.5301-3.4296 2.1633-7.1757 1.6356-12.346-0.52763-5.1707-0.3351-6.9874-0.3351-6.9874z" fill="#c6b64a"/>
   <path d="m22.947 317.35s2.108 1.996 0.03731 2.966c-2.0706 0.97002-2.6303 0.54097-3.4884 1.1193-0.8581 0.57828-1.2125 0.87675-1.2125 0.87675s-0.62053-0.9749-2.0041-0.76125c-1.8115 0.27973-2.6391-0.49983-3.019-1.1596-0.37987-0.65978-0.35988-1.4595-0.35988-1.4595s0.91969 1.3596 2.5791 0.89971c1.6594-0.45984 2.3392-1.2796 4.5185-1.9194 2.1793-0.63979 2.9489-0.56204 2.9489-0.56204z" fill="#dcc840"/>
  </g>
  <path d="m44.006 346.56-0.62662 0.23274 0.46549 0.25065" fill="none" stroke="#366841" stroke-linecap="round" stroke-width=".26458"/>
  <path d="m38.958 345.16s1.1859 0.17895 2.0652 0.13895c0.87934-0.04 1.8775-0.21991 1.8775-0.21991s0.40402 0.73975 0.2139 0.91969c-0.19013 0.17994 0.55038 0.60557 0.29354 0.72482-0.08579 0.0398 0.7799 0.68849 0.34708 1.1063-0.36397 0.35138-0.18908 0.68799-0.18908 0.68799s0.46863 0.51018 0.46863 0.93003c0 0.41987-0.3708 1.0093-0.3708 1.0093s-0.85833 0.13995-2.0229 0.13995c-1.1645 0-2.2222-0.18928-2.2222-0.18928l-0.22572-0.65044s-0.61791-0.43986-0.57038-1.2596c0.04754-0.81973 0.30895-1.1196 0.30895-1.1196s-0.38025-0.53982-0.33272-1.2196c0.04754-0.67977 0.35888-0.99867 0.35888-0.99867z" fill="#366841"/>
  <g>
   <path d="m20.64 313.19s-0.05655 0.84825 0.05655 1.6965c0.1131 0.84825 0.36757 1.442 0.36757 1.442s-0.7917-1.0179-1.0744-2.1206c-0.28275-1.1027-0.53722-2.0923-0.53722-2.0923s-0.14137 1.0462 0 1.753c0.14138 0.70688 0.76342 1.7248 0.73515 2.1489-0.02828 0.42413-0.25447 0.84825-0.25447 0.84825s0.14137-0.84825-0.48067-1.7813-0.76342-2.884-0.76342-2.884-0.3393 1.131-0.31102 2.0358c0.02828 0.90479 0.42412 2.0923 0.42412 2.0923s-0.79169-0.87652-1.0462-1.7813c-0.25447-0.90479-0.4524-2.0641-0.4524-3.1668 0-1.1027 0.14137-2.4882 0.14137-2.4882l-1.5834 0.48067s0.36757-1.3006 1.3006-2.2903c0.93307-0.98962 1.2724-1.2441 1.2724-1.2441s0.1131-1.1593 0.65032-2.5165 0.50895-3.0537 1.3006-4.3543c0.79169-1.3006 4.6088-2.1772 4.0716-3.2799-0.53722-1.1027 0.6786-2.7144 1.9792-2.6013 1.3006 0.1131 1.7248-0.42412 1.7248-0.42412s0.02828 0.70687 0.70687 0.76342c0.6786 0.0565 2.7144 1.6399 4.3826 3.8736 1.6682 2.2337 2.4034 4.3543 2.6296 6.5032 0.2262 2.1489 0.67859 2.3468 0.67859 2.3468s-0.4524 1.3289-0.02828 2.4599c0.42412 1.131 1.0744 2.8558 1.2441 3.8454 0.16965 0.98962 0.1131 2.0923 0.1131 2.0923s-0.70687-1.6117-1.3006-0.73515c-0.59377 0.87652-0.42412 1.7248-0.42412 1.7248s-0.87652-0.65033-0.87652 0.14136c0 0.79171-0.19792 1.442-0.19792 1.442s-0.56148-1.2964-1.2441-2.0075c-0.80731-0.84104-1.3883-1.3439-1.3883-1.3439l-0.38061 0.46353-0.09544-2.0095 0.39402-0.65863s0.65032-0.80583 0.81997-3.3223c0.16965-2.5165-0.4524-4.9764-0.81997-6.0225-0.36757-1.0462-0.98962-1.5551-0.98962-1.5551s0.1131 0.65032 0.3393 1.4138c0.2262 0.76341 0.31102 1.1593 0.31102 1.1593s-0.48067-0.63619-0.73514-1.0462c-0.25447-0.40998-0.29689-0.69272-0.29689-0.69272l-0.39585 0.77755s0.63618-1.852 0.08483-2.4599c-0.55136-0.60791-0.87652-1.0886-1.7813-1.0038-0.9048 0.0848-1.2017 0.65031-1.442 1.2299-0.24034 0.57965-0.26861 1.2158-0.26861 1.2158s-0.07069-0.721 0.07069-1.2865c0.14138-0.56549 0.36758-1.0603 0.36758-1.0603s-0.57964 0.22621-0.91893 0.81998-0.38171 1.0603-0.38171 1.0603-0.04241-0.72101 0.01413-0.93307c0.05655-0.21206 0.12724-0.39585 0.12724-0.39585s-0.62237-0.0217-1.782 1.3378c-1.1596 1.3596-1.7594 2.979-1.5395 4.7784 0.21993 1.7994 0.97967 4.0986 1.0397 4.9584 0.05998 0.85971 1.227 2.0489 1.227 2.0489l0.01848 2.3386s-0.5512-0.91744-0.81111-0.4576c-0.25991 0.45985 0.26678 1.8794 0.26678 1.8794s-1.281-1.5706-1.181-1.0108c0.09997 0.55982 0.12197 1.1148 0.12197 1.1148s-0.36189-0.415-0.80174-1.0148c-0.43985-0.59981-0.77974-1.6594-0.77974-1.6594s0.17994 0.85971 0.35988 1.3995c0.17994 0.53982 0.49983 1.1996 0.49983 1.1996s-0.63979-0.25992-1.3995-1.4195c-0.75975-1.1596-1.0778-1.7657-1.0778-1.7657z"/>
   <path d="m23.657 304.56s0.79973-0.2999 1.6994-0.06c0.8997 0.23992 2.7391 1.3995 1.7794 0.41986-0.95968-0.97967-2.2592-1.2996-3.139-0.85971-0.87971 0.43985-0.33989 0.49983-0.33989 0.49983z"/>
   <path d="m29.355 305.24s-1.2396 0.2999-0.49984-0.23992c0.73975-0.53982 2.0593-0.91969 3.019-0.73975 0.95968 0.17994 1.6994 0.69977 0.19993 0.51983-1.4995-0.17994-2.7191 0.45984-2.7191 0.45984z"/>
  </g>
  <path d="m26.656 306.12s-0.17994-0.87972-1.2396-0.89971c-1.0596-0.02-1.4595 0.77975-1.4595 0.77975" fill="none" stroke="#000" stroke-linecap="round" stroke-width=".29547"/>
  <path d="m29.515 306s0.25991-0.71977 1.4595-0.59981c1.1996 0.11996 1.2796 0.83973 1.2796 0.83973" fill="none" stroke="#000" stroke-linecap="round" stroke-width=".29547"/>
  <ellipse cx="25.327" cy="305.74" rx=".50983" ry=".53982" style="paint-order:markers fill stroke"/>
  <ellipse cx="30.755" cy="305.84" rx=".50983" ry=".53982" style="paint-order:markers fill stroke"/>
  <g>
   <path d="m26.875 310.97s0.69273-0.18378 0.98962-0.0142c0.29689 0.16964 0.69273-0.0565 1.1169 0.0283 0.42412 0.0849 0.55136 0.19792 0.55136 0.19792" fill="none" stroke="#000" stroke-linecap="round" stroke-width=".29547px"/>
   <path d="m29.719 335.87s0.2899-0.90971 0.41718-2.4355c0.12728-1.5258-0.68082-2.6641-0.68082-2.6641m1.389-0.0598s-0.25025 0.52559-0.43078 1.2133c-0.18053 0.68771-0.2774 1.5107-0.2774 1.5107" fill="none" stroke="#366841" stroke-width=".73868"/>
   <path d="m27.285 337.19 2.3846 2.4381 2.4856-2.1979-2.2279-2.6037z" fill="#366841" stroke="#366841" stroke-linejoin="round" stroke-width=".29547"/>
  </g>
  <g fill="none">
   <path d="m28.276 338.18s-2.2646 1.117-4.5197 1.7599c-2.255 0.64299-4.022 1.0198-4.022 1.0198" stroke="#366841" stroke-linecap="round" stroke-width=".45441"/>
   <path d="m30.73 338.07s2.2029 1.2384 3.2836 1.529c1.0806 0.2906 3.9451 0.59583 3.9451 0.59583" stroke="#366841" stroke-linecap="round" stroke-width=".44947"/>
   <path d="m34.014 339.6s0.08483 1.1875-0.08483 1.753c-0.16965 0.5655-0.02828 1.3289-0.1131 1.8944-0.08483 0.5655 0 1.5551-0.08483 1.951s-0.2262 1.5268-0.25448 2.0641c-0.02828 0.53722-0.14137 2.4316-0.08483 3.1102 0.05655 0.67859 0.14137 1.753 0.14137 1.753" stroke="#7d7d7d" stroke-opacity=".63306" stroke-width=".29547"/>
  </g>
  <g fill="#b08534">
   <circle cx="34.138" cy="339.5" r=".65978" style="paint-order:markers fill stroke"/>
   <circle cx="33.922" cy="341.21" r=".60323" style="paint-order:markers fill stroke"/>
   <ellipse cx="33.79" cy="343.12" rx=".65978" ry=".73047" style="paint-order:markers fill stroke"/>
   <circle cx="33.687" cy="344.96" r=".68805" style="paint-order:markers fill stroke"/>
   <ellipse cx="33.515" cy="346.85" rx=".67392" ry=".61737" style="paint-order:markers fill stroke"/>
   <circle cx="33.348" cy="348.87" r=".65978" style="paint-order:markers fill stroke"/>
   <ellipse cx="33.425" cy="350.58" rx=".53254" ry=".50427" style="paint-order:markers fill stroke"/>
   <ellipse cx="33.514" cy="352.02" rx=".46186" ry=".49013" style="paint-order:markers fill stroke"/>
  </g>
  <path d="m18.006 350.55s0.93233 5.4288 1.4387 8.8215c0.50638 3.3928-2.8357 2.2787-2.8357 2.2787l-0.86085-9.6212z" fill="#713d15"/>
  <path d="m13.678 334.31s0.99135 0.0694 2.5847 0.0515c1.5934-0.0179 2.4878-0.31556 2.4878-0.31556" fill="none" stroke="#e1af2c" stroke-linecap="round" stroke-width=".39688"/>
  <path d="m13.857 333.61s0.42968 0.37596 2.2379 0.73403c1.8082 0.35806 2.596 0.30435 2.596 0.30435" fill="none" stroke="#a768a4" stroke-linecap="round" stroke-width=".52917"/>
 </g>
</svg>
