<?xml version="1.0" encoding="UTF-8"?>
<svg width="200" height="250" version="1.1" viewBox="0 0 52.917 66.146" xml:space="preserve" xmlns="http://www.w3.org/2000/svg"><g><path d="m28.393 32.378-3.125-0.48859c-3.3643 0.66327-6.013 1.5678-9.0592 2.6852-2.1296 0.76425-2.9944 2.5158-3.3983 3.9145-0.40388 1.3987-2.2958 6.0391-4.3346 9.6692-2.0388 3.6301-2.6831 4.4756-3.127 4.7997-0.44384 0.3241-0.2329 0.8408 0.091984 1.171 0.32489 0.33019 0.76602 1.7982 3.515 5.1274 2.749 3.3292 4.6434 4.93 5.7325 5.7418 1.0891 0.81175 1.4707 1.5839 1.4707 1.5839h21.565s0.53963-3.6208-0.74724-6.8254c-1.2869-3.2046-1.0485-6.1836-1.0485-6.1836s1.0575 1.2777 1.9074 4.4426c0.84985 3.165 0.98391 5.1773 0.60668 6.8632-0.37722 1.6858-0.33435 1.7524-0.33435 1.7524l3.9241-0.01032s0.87074-5.0806 0.68852-7.2012c-0.09982-1.1616-0.81788-5.4388-1.3198-6.0239-0.50194-0.58514-2.1772-8.7472-3.099-10.115-0.92184-1.368-0.97514-3.2897-0.97514-3.2897s0.18908-2.0954 0.35192-2.8784c0.16284-0.78294-1.4349-1.7135-3.1817-2.8965-1.7468-1.183-6.1041-1.8379-6.1041-1.8379zm-10.959 13.728s0.31888 0.78152 0.80719 1.8381c0.48831 1.0566 1.7285 2.6511 2.403 3.976 0.67448 1.3249-0.3867 4.3502-0.97049 6.1092-0.58379 1.759-0.90538 3.714-0.90538 3.714s-2.3282-3.3423-3.3977-5.4105c-1.0696-2.0683-1.9343-2.8257-1.9343-2.8257s0.60169-0.39586 0.2775-0.66714c-0.32419-0.27129-0.36277-0.92191-0.36277-0.92191s1.2728-0.32919 2.002-1.4247c0.72919-1.0955 2.081-4.3873 2.081-4.3873z" fill="#2c6430"/><path d="m18.768 61.743s0.35303-1.8342 0.58661-2.6781c0.23358-0.84388 2.387 0.20504 2.387 0.20504l9.0447 1.0609 5.2595-0.9811 0.93103 0.40678s0.97569 2.1992 0.91948 6.289c-0.05622 4.0898-15.255 1.179-15.255 1.179z" fill="#685b2e"/><path d="m23.455 31.862s-0.26219 0.73026 0.7482 2.4758c1.0104 1.7455 2.2823 2.5375 3.188 3.4155 0.90575 0.87803 2.467 2.1417 2.467 2.1417s1.0748-1.62 1.1058-3.43c0.03095-1.81-0.94057-2.7514-1.138-3.3471-0.19745-0.59568-0.20258-0.95119-0.20258-0.95119s-0.11295-1.5441-1.7322-0.71025c-1.6193 0.83382-2.6735-0.20553-3.567-0.21379-0.8935-0.0083-0.86924 0.61938-0.86924 0.61938z" fill="#fff"/><path d="m24.33 33.361s1.7167 2.6465 4.0537 2.7231c2.337 0.07663 1.7955-1.28 1.265-2.2689-0.53046-0.98897-0.41096-3.27-0.41096-3.27s0.67277-0.11309 1.0969-0.64886c0.42409-0.53577 1.0064-0.84059 1.993-2.3269s1.2594-2.4641 1.2594-2.4641l0.90862-2.9487 0.18027-3.7396-5.2765-3.3283-10.339 7.4136 0.9049 5.4272 4.0823 2.9118s0.09996 2.1364 0.28271 2.5195z" fill="#e2ad64"/></g><path d="m24.155 32.342c0.01544 0.15565 0.03198 0.3066 0.05064 0.44442 0.26168 0.27421 0.69898 0.70985 1.2242 1.1405 0.8576 0.70315 1.941 1.4085 2.914 1.3358 0.47468-0.03546 0.811-0.20196 1.0294-0.43563s0.31497-0.52606 0.3514-0.8046c0.0022-0.01715 0.0039-0.03409 0.0057-0.05116-0.02701-0.05268-0.05431-0.10457-0.08165-0.15555-0.1161-0.21646-0.2012-0.49479-0.26303-0.79737l-0.0067 0.0021s0.14747 0.48542 0.08423 0.96894c-0.03162 0.24176-0.11333 0.4761-0.28319 0.65784-0.16986 0.18174-0.43119 0.3202-0.85576 0.35192-0.82548 0.06166-1.8882-0.59016-2.7265-1.2774-0.81566-0.66876-1.4107-1.3433-1.4428-1.3798z" color="#000000" fill="#c63232"/><g><path d="m26.419 13.695c-0.05132-8.69e-4 -0.10209 4.81e-4 -0.1517 4e-3 -0.79367 0.056-1.0042 0.42125-1.0042 0.42125s-0.92172-0.21804-2.4216 1.0591c-1.4999 1.2771-1.2514 1.7698-1.2514 1.7698s-0.13628-0.04876-0.96832 0.35476c-0.83203 0.40352-1.0603 0.79631-1.0603 0.79631l0.73739 0.10392s-0.42374 0.35704-0.79711 0.95239c-0.37337 0.59534-0.4113 1.0384-0.4113 1.0384s-0.60584 0.58264-1.4342 1.0014c-0.82832 0.41872-1.2076 0.79591-1.2076 0.79591s0.44788-0.0666 0.76128-0.02349c0.3134 0.04311-0.02861 0.53602-0.53194 1.0245-0.50332 0.48844-1.0952 1.2382-1.0527 1.6655 0.04248 0.42727 0.37268 0.82299 0.37268 0.82299s-0.30712 0.46229-0.31375 1.0842c-0.0066 0.62189 0.11467 0.78238 0.11467 0.78238s-0.12004 0.04649-0.33604 0.432c-0.21601 0.38551-0.49132 1.0444-0.49132 1.0444l0.71827-0.85763s-0.31976 0.65971-0.89585 1.644-0.29703 1.2801 0.66412 0.05375c0.96115-1.2263 1.4576-1.2096 1.4576-1.2096s-0.11603 0.70943-0.39298 1.9991c-0.27695 1.2897 0.57843 1.2153 0.9289 0.70354 0.35047-0.51175 0.94244-1.1228 0.94244-1.1228s-0.01107 0.24506-0.0024 0.4977c0.0087 0.25264 0.11164 0.66598 1.2514 0.64063 1.1398-0.02534 0.87037-0.74296 0.87037-0.74296s0.41709 0.4836 1.0898 0.47659c0.67266-7e-3 0.83892-0.17559 0.83892-0.17559s0.18322 0.13719 0.7569 0.17439c0.57368 0.0372 0.84807-0.0645 0.84807-0.0645l-0.02986-2.86s-0.16124-0.12797-0.24726-0.5188c-0.08601-0.39083-0.11148-1.1869-0.11148-1.1869l0.49969 0.25004s-0.11366-0.42297-0.217-1.3494c-0.10333-0.92638 0.45447-1.8501 0.79512-3.206 0.34065-1.3558 0.7014-1.4305 1.6265-2.2962 0.92506-0.86565 1.3621-1.6109 1.3621-1.6109s-0.1004-0.21582-0.01235-0.35316c0.08806-0.13734 0.36596-0.37154 1.5273-0.31813 1.1614 0.05341 2.1755 0.76446 2.1755 0.76446s0.17615-0.1395 0.432-0.10033c0.25585 0.03917 1.1672 0.54454 1.8685 1.2669s0.27694 1.4605 0.21978 2.5681c-0.05715 1.1076-0.20784 2.1138-0.20784 2.1138l-0.1947 0.7987c-0.19472 0.79887-0.80428 2.0891-0.80428 2.0891s0.32645-0.25463 0.58011-0.75729c0.25366-0.50266 0.5837-1.2566 0.5837-1.2566s0.07167 0.55644 0.07167 1.3251c0 0.76862 0.42085 1.1718 0.42085 1.1718s0.38712-0.35372 0.46226-0.82936c0.07513-0.47564-0.05131-1.2901-0.44713-2.0617-0.39582-0.77154 0.27632-0.51362 0.27632-0.51362s0.3532-2.8655 0.65059-3.3123c0.29737-0.44676 0.0068-1.0053 0.0068-1.0053s0.61159-1.4231-0.8636-3.2585c-1.4752-1.8355-2.1481-1.7312-2.1481-1.7312s-0.52426-0.67691-1.8546-0.82538c-1.3304-0.14846-1.7176 0.33405-1.7176 0.33405l-0.30817-0.20306-0.32689 0.21222s-0.92638-0.47352-1.6961-0.48655zm-4.6162 9.6011c0.41517-3.27e-4 0.84051 0.22735 0.84051 0.22735s-0.01882 0.42437-0.0075 1.2136c0.01125 0.78921 0.46186 1.3139 0.46186 1.3139s-0.50552 0.55954-0.9504 0.32927c-0.44487-0.23027-1.3581-1.5462-1.0675-2.5422 0.1226-0.4202 0.42009-0.54165 0.72305-0.54189z" fill="#6d4917"/><path d="m19.812 57.611s2.9943 1.8087 8.7727 1.9111c5.7784 0.10238 7.7907-1.6282 7.7907-1.6282s0.21558 0.24549 0.39018 0.83142c0.17992 0.60378 0.21166 1.0307 0.21166 1.0307s-2.3134 1.5019-8.3758 1.3753c-6.0623-0.12657-9.2464-2.067-9.2464-2.067s-0.03441-0.19288 0.12568-0.74084c0.1591-0.54458 0.33121-0.71261 0.33121-0.71261z" fill="#ba9353"/><path d="m19.768 63.442s-1.6145 1.3229-2.3399 2.6652c-0.72542 1.3424-0.68645 1.6935-0.68645 1.6935l7.81-1.2637s-0.17758-0.81974-1.1488-1.4486c-0.97126-0.6289-1.8869-2.0854-2.6814-1.9623s-0.95343 0.31591-0.95343 0.31591z" fill="#e2ad64"/></g><g fill="none" stroke-linecap="round" stroke-width=".26458"><path d="m28.048 27.877c0.39577 0.23127 0.91103 0.46914 1.3949 0.50035 0.39292 0.02535 0.74151-0.08548 0.98212-0.19506" stroke="#6d1717"/><path d="m25.55 22.409s0.88511-0.53146 1.7868-0.33688c0.90164 0.19458 1.27 1.3677 1.27 1.3677" stroke="#323232"/><path d="m31.236 23.504s0.32559-0.61882 0.91978-0.74037c0.59419-0.12156 0.97238 0.57756 0.97238 0.57756" stroke="#323232"/></g><g><path d="m27.489 22.047s-0.45774-0.01025-0.57517 0.48972c-0.11743 0.49996 0.32973 0.98885 0.76094 0.74614 0.4312-0.24271 0.15993-1.1329 0.15993-1.1329z" fill="#323232"/><path d="m32.09 22.889s-0.19809 0.32985-0.1118 0.70915c0.0863 0.3793 0.52881 0.52796 0.75656 0.03274 0.22775-0.49521-0.23873-0.94479-0.23873-0.94479z" fill="#323232"/><path d="m25.488 21.305s0.92942-0.38433 1.9855 0.05972c1.0561 0.44405 2.1595 0.0933 2.1595 0.0933s-0.59926-0.09936-1.783-0.65484c-1.1838-0.55549-2.3621 0.50182-2.3621 0.50182z" fill="#6d4917"/><path d="m31.022 22.676s1.0418-0.75276 1.6007-0.88124c0.5589-0.12848 1.5063 0.35448 1.5063 0.35448s-0.48131-1.0829-1.3726-0.90581c-0.89124 0.17707-1.7345 1.4326-1.7345 1.4326z" fill="#6d4917"/></g><g fill="#ffdaa6"><ellipse cx="31.36" cy="46.923" rx=".71396" ry=".68601"/><ellipse cx="30.577" cy="42.338" rx=".71396" ry=".68601"/><ellipse cx="31.96" cy="51.926" rx=".71396" ry=".68601"/><ellipse cx="32.223" cy="57.057" rx=".71396" ry=".68601"/></g><g fill="none" stroke="#3f3f3f"><path d="m29.961 61.303-0.09201-1.9229 1.64-0.11215 0.12762 1.9889z" stroke-width=".52917"/><path d="m29.915 60.342 0.87132-0.01083" stroke-width=".26458px"/><path d="m30.723 59.336 0.12762 1.9889" stroke-width=".26458px"/></g></svg>
