<?xml version="1.0" encoding="UTF-8"?>
<svg width="200" height="250" version="1.1" viewBox="0 0 52.917 66.146" xml:space="preserve" xmlns="http://www.w3.org/2000/svg"><path d="m44.291 61.67s0.39628 0.63261 0.4171 1.2974c0.02082 0.66475 0.42847 0.78545 0.47023 1.7802 0.04176 0.99478 0.54002 1.9205 0.54002 1.9205l-4.5362 0.09775s0.2473-0.65269 0.40453-1.5294c0.15723-0.87674-0.73963-0.59123-0.62719-1.9463l0.11244-1.355 0.90556-1.9909z" fill="#363636"/><path d="m20.967 34.555 8.3273-0.72571 2.6608 20.902 4.7599 12.811-20.588 0.02741 4.2802-17.15z" fill="#513e34"/><path d="m23.411 9.8777 4.582 0.16864" fill="none" stroke="#525252" stroke-width=".39688"/><path d="m22.153 29.134s-0.1857-0.07303-0.328-0.3489c-0.14229-0.27587-0.04475-0.51301-0.04475-0.51301s-0.37019-0.04039-0.75109-0.57361c-0.3809-0.53323-0.1647-1.1923-0.1647-1.1923s-0.63304-0.62009-1.0266-1.4367-0.27114-1.5296-0.27114-1.5296-0.30029-0.28139-0.4172-0.70092c-0.1169-0.41953 0.15862-0.85991 0.15862-0.85991s-0.46413-0.46628-0.48036-1.3838c-0.01623-0.91751 0.25962-1.4031 0.25962-1.4031s0.1209-1.1318 0.33705-2.2744 0.93446-2.382 1.3605-3.5131c0.42602-1.1311 1.1075-2.1112 2.076-2.444s1.3528-0.37602 1.3528-0.37602 0.43876-1.8992 1.0121-1.6303c0.57338 0.26891 0.78377 0.35474 1.1569 0.15124s0.73619 0.20384 0.77493 0.71295 0.38802 0.84613 0.38802 0.84613 2.4471 0.75548 3.0228 1.2479c0.57567 0.49244 1.0751 2.1076 1.0751 2.1076s0.63785 0.54078 1.4091 2.0576c0.77126 1.5168 0.75583 2.103 0.75583 2.103s0.37544 0.40289 0.59129 1.1319c0.21585 0.72903 0.02096 1.8243 0.02096 1.8243s0.22145 1.659-0.19844 2.71c-0.38883 0.97328-2.6985 3.0988-3.033 4.8009-0.19213 0.97773-9.0364 0.48592-9.0364 0.48592z" fill="#aa4929"/><path d="m23.8 27.518s0.03729-0.27818 0.06087-0.72398-0.0029-1.0372-0.0029-1.0372-1.0555-0.64898-1.5056-1.319c-0.45006-0.66998-0.78641-1.1592-0.98091-2.5006s0.08459-2.2446 0.34277-3.1381c0.25818-0.89347 0.05873-1.1004 0.90944-1.9802 0.8507-0.87979 2.0313-0.92669 2.0313-0.92669s0.75781 1.5407 1.9712 2.2276c1.2134 0.68693 3.1556 1.4994 3.1556 1.4994s0.11404 0.42062 0.12578 0.91844-0.06262 0.99512-0.06262 0.99512 0.69504-0.63314 0.80968-0.31135c0.11463 0.32179-0.27623 1.475-0.7377 2.011-0.46147 0.53598-0.83419 1.5197-0.83419 1.5197l0.1303 3.0064-1.1472 2.3847-5.2818-0.86856z" fill="#ddb59e"/><path d="m23.657 28.427s0.79975 0.8491 1.8311 0.84792c1.0313-0.0011 2.0989-0.50526 2.0989-0.50526l1.7077 5.0602s-2.0228 1.2427-3.3279 2.6632-2.5033 2.6413-3.899 3.209c-1.3958 0.56765 0.39259-10.607 0.39259-10.607z" fill="#ddd"/><path d="m21.618 51.942s1.7803 0.31172 3.8473 0.31419c2.067 0.0024 3.1022-0.31307 3.1022-0.31307" fill="none" stroke="#363636" stroke-width=".66146"/><path d="m18.021 60.195s4.1264 0.69414 7.9362 0.7901 7.5968-0.75425 7.5968-0.75425l1.0778 3.616s-5.0494 1.0771-9.9483 0.85584-7.0002-0.67021-7.0002-0.67021z" fill="#363636"/><path d="m42.972 51.914s0.43135 2.2872 0.74565 3.7683 0.57357 5.9884 0.57357 5.9884-0.3425 0.26506-1.4786 0.33992-1.7405-0.07476-1.7405-0.07476-0.45584-2.1118-0.91694-3.5409-0.8145-3.17-1.1601-4.1927c-0.34563-1.0227-0.89824-2.241-0.89824-2.241l3.6334-1.2526z" fill="#ddb59e"/><path d="m36.777 50.253s-0.0098 0.47947 0.15457 1.0498c0.16439 0.57038 0.54487 0.81737 0.54487 0.81737s0.25341 0.22758 0.62168 0.18081c0.36827-0.0468 0.6532-0.67064 0.6532-0.67064l3.735-0.71867s0.21269 0.30632 0.7378 0.24645c0.5251-0.05988 0.22997-0.77811 0.22997-0.77811s0.55613 0.16829 0.62695-0.23548-0.36462-0.86097-0.8097-1.2922c-0.44508-0.43119-0.37567-0.83957-0.37567-0.83957l-5.4556-1.1472z" fill="#513e34"/><path d="m34.776 35.413s0.32678 6.8852 0.5054 9.1059 1.5234 5.7335 1.5234 5.7335 0.41432-0.92055 2.3365-1.5028l0.77322-7.4909-3.5901-5.5833z" fill="#704b36"/><path d="m36.325 35.676c-0.24849 1.0991-0.40549 2.4299 0.006718 3.251 0.80005 1.5936 1.7348 1.8371 1.7348 1.8371s-0.81142 2.7411-0.3266 4.9227c0.27584 1.2413 0.90791 2.343 1.402 3.0634 0.030959-0.009377 0.061801-0.019226 0.093018-0.028422 1.9694-0.58017 3.6608-0.709 3.6608-0.709l-0.72399-1.3942 0.20826-0.34313-0.97617-1.7751 0.28732-0.21032-0.70229-2.2603 0.21084-0.20929-0.45062-2.0857 0.29301-0.27337-0.20206-0.85008 0.23926-0.22996 0.01292-2.2154-4.7672-0.4899z" fill="#969696"/><path d="m22.742 30.43s1.4102 1.5042 2.7057 2.2907c1.2954 0.78649 3.3732 1.5586 3.3732 1.5586" fill="none" stroke="#8a8a8a" stroke-width=".52917"/><path d="m33.766 29.088-4.5868 0.46716-0.97514 4.0701-1.6862 6.9784 0.56741 9.1545 2.1963 5.7165 2.3198 4.1693 2.4841 11.216s5.7 0.36002 4.7579-3.7962c-0.94211-4.1562-2.6479-9.3499-2.6479-9.3499l-1.1467-2.8644s-0.55213-1.7751-1.3798-3.7781c-0.82764-2.0029-0.51421-2.6712 0.17932-4.3848s1.347-5.0806 1.5162-7.0694c0.16916-1.9888-0.052193-8.4078-0.052193-8.4078l-1.5462-2.1218z" fill="#9f0000"/><path d="m35.443 45.537s-0.55639-2.7378-0.9164-5.4872c-0.36001-2.7494-0.6696-5.3953-0.6696-5.3953l1.9598 2.1966 0.75809 6.5596z" fill="#704b36"/><path d="m28.278 31.139s-1.0991 0.8055-2.8303 1.5811c-1.7312 0.77562-3.0152 1.2865-3.0152 1.2865" fill="none" stroke="#8a8a8a" stroke-width=".52917"/><path d="m20.191 29.101s-1.5523 0.25244-3.2044 1.0634c-1.6521 0.81101-1.8289 1.7128-1.7975 3.4263 0.03138 1.7135 0.10952 7.1656-0.83253 10.896s-1.0223 5.4131-2.0405 8.2088-1.7765 7.36-1.8898 8.0682-0.16115 1.4776-0.16115 1.4776l1.2216 1.403 1.5182-1.3531s0.99258-3.4702 1.9716-5.5818c0.97901-2.1116 2.6554-6.5607 3.3258-7.8345s1.7132-9.581 1.7132-9.581z" fill="#ddb59e"/><path d="m20.191 29.101s-0.92764 2.0421-0.74363 2.3828c0.18401 0.34073 0.39274 0.53124 0.39274 0.53124l-0.59686-0.006201s-0.97211 3.3104-1.4847 4.0876c-0.51256 0.77723-0.25061 2.9656-0.095085 3.112 0.15552 0.14641 0.60565 0.21032 0.60565 0.21032l-0.76688 0.099736s-0.06316 1.8795 0.84543 4.3228 0.69445 6.3828 0.38706 7.3856c-0.3074 1.0029-2.9285 7.8497-2.9285 7.8497s-1.356 3.4613-1.9647 7.5675 5.0018 2.7487 5.0018 2.7487l1.1353-9.4765 2.8939-8.9933-1.1663-12.903 1.2072-6.3407-2.7223-2.5787z" fill="#9f0000"/><path d="m23.8 27.518s-1.19 0.97748-1.9746 1.2676c-0.78453 0.29015-1.634 0.31574-1.634 0.31574s-0.52617 0.84498-0.28577 1.2206 1.6809 1.1348 1.9911 2.2061c0.31015 1.0713-0.63854 3.6005-0.78858 5.5248s0.27236 6.5529 0.5426 8.6817 0.5112 4.8124-0.70074 7.6094c-1.2119 2.797-2.1022 6.718-2.1022 6.718s-0.87261 3.9427-1.1348 6.1133c-0.26221 2.1707 1.8471-0.41548 1.8471-0.41548s-0.14192-0.02161 0.22479-2.1048c0.36671-2.0832 0.73056-4.1919 0.73056-4.1919s2.2682-6.6453 2.6373-8.7893c0.47481-2.758-0.79854-9.4419-0.7459-12.816 0.04113-2.6367 0.93121-6.3375 1.0459-7.6673 0.11472-1.3298 0.34727-3.6721 0.34727-3.6721z"/><path d="m29.64 26.926s-9e-3 0.19877-0.8046 0.87178c-0.79556 0.67301-1.91 0.83664-1.91 0.83664s0.30177 1.5386 0.7717 2.1722c0.67507 0.91014-0.81155 5.668-1.3303 8.2742-0.51878 2.6062-0.2127 6.692 0.30438 10.071 0.51708 3.3788 1.4429 4.788 2.6693 7.6073s2.5327 5.6147 3.247 8.6219 2.3204 2.2968 2.3204 2.2968-1.065-3.1161-1.496-4.6235c-0.43102-1.5074-1.1033-3.1817-1.1033-3.1817s-3.4366-7.0939-4.1894-9.3504c-0.75286-2.2564-0.92706-7.9539-0.74129-10.19 0.18577-2.2362 1.146-5.8068 1.4671-7.075 0.32106-1.2682 0.70696-2.7954 2.8255-2.9223 2.1185-0.12694 2.0954-1.247 2.0954-1.247s-1.3416-0.75368-2.2286-0.9524c-1.0346-0.23179-1.8973-1.2092-1.8973-1.2092z"/><path d="m41.092 36.166s-0.90216 0.95741-2.2949 1.541c-1.3927 0.58361-1.3419 0.6058-2.5661 0.07999s-3.9401-2.1688-4.1269-3.8387c-0.18685-1.6699 0.54948-4.6629 2.412-5.3733 1.8625-0.71033 3.1937-0.2506 4.4693-0.31458 1.2757-0.06398 1.9754-0.60873 2.1891 0.53825 0.21368 1.147 0.45984 2.8848 0.75716 3.2133 0.29732 0.32853-0.34373 1.4065-0.43297 2.6178-0.08924 1.2112-0.40673 1.5362-0.40673 1.5362z" fill="#ddd"/><path d="m10.265 62.241s-0.65001 0.68567-0.53464 1.4221c0.11538 0.73646-0.50162 3.742-0.50162 3.742l3.7477-0.61201s0.42202-1.5491 0.1032-2.5236c-0.31881-0.97446-0.07481-1.9786-0.07481-1.9786s-0.45686 0.23798-1.5185 0.20774c-1.0616-0.03024-1.2213-0.25762-1.2213-0.25762z" fill="#363636"/><path d="m37.517 50.902s0.19072 0.42062 0.78868 0.21419c0.598-0.20643 0.54943-0.71061 0.54943-0.71061s0.5374 0.16348 1.1175 0.0351 0.71557-0.47375 0.71557-0.47375 0.12498 0.20592 0.56149 0.20592 0.55502-0.25223 0.55502-0.25223l0.59221-0.08659 0.57498 2.0796s-1.0971-0.20245-2.3935 0.30512-1.9199 1.2038-1.9199 1.2038z" fill="#7990a9"/><g fill="#285779"><ellipse cx="24.827" cy="52.256" rx=".63769" ry=".67948"/><ellipse cx="23.129" cy="62.689" rx="1.5189" ry="1.3887"/><ellipse cx="27.416" cy="62.654" rx="1.1621" ry=".87108"/></g><path d="m22.155 20.623s0.31994-0.33868 0.87778-0.33868 1.1376 0.35986 1.1376 0.35986" fill="none" stroke="#26392a" stroke-linecap="round" stroke-width=".26458"/><path d="m26.396 20.456s0.37831-0.37711 1.1272-0.39065c0.74893-0.01355 1.1375 0.2255 1.1375 0.2255" fill="none" stroke="#26392a" stroke-linecap="round" stroke-width=".26458"/><path d="m27.107 20.194s-0.09357 0.4955 0.42174 0.52665c0.51531 0.03114 0.43317-0.62938 0.43317-0.62938z" fill="#26392a"/><path d="m22.556 20.39s0.0573 0.67402 0.51906 0.63714 0.48703-0.65557 0.48703-0.65557z" fill="#26392a"/><g fill="none" stroke-linecap="round"><path d="m24.427 24.665s0.36296 0.03761 0.5479-0.04051 0.54612 0.07051 0.80862 0.03448c0.26251-0.03603 0.54392 0.04244 0.68716 0.04244s0.32481-0.0714 0.32481-0.0714" stroke="#762d2d" stroke-width=".26458px"/><path d="m24.51 19.948s-0.34317-0.49281-1.7149-0.59743-1.9337 0.21285-1.9337 0.21285" stroke="#aa4929" stroke-width=".26458"/><path d="m26.062 19.796s0.76578-0.48973 2.1201-0.57059c1.3543-0.08086 1.895 0.20531 1.895 0.20531" stroke="#aa4929" stroke-width=".26458"/></g><ellipse cx="25.441" cy="32.605" rx="1.6158" ry="1.4146" fill="#285779"/><circle cx="23.658" cy="9.8603" r=".56882" fill="#064505"/><circle cx="27.949" cy="10.032" r=".56882" fill="#064505"/></svg>
