<?xml version="1.0" encoding="UTF-8"?>
<svg width="200" height="250" version="1.1" viewBox="0 0 52.917 66.146" xmlns="http://www.w3.org/2000/svg">
 <g transform="translate(0 -288.53)">
  <path d="m23.962 307.48 13.307 1.2574-0.49771 13.229 1.6765 10.897-1.9355 8.3589 0.55569 8.4094-16.337-3.4453z" fill="#e2d6bc"/>
  <path d="m22.468 343.37s0.89064-0.78587 3.5102 0.89065c2.6195 1.6765 5.8678 2.0956 7.4395 1.9385 1.5717-0.15718 2.8291-0.78587 2.8291-0.78587l1.0478 9.9019-23.733 0.83825z" fill="#524d44"/>
  <path d="m31.218 345.94s0-2.0432-0.05239-3.353c-0.05239-1.3098 0.34525-2.6646 1.1799-5.501 0.9324-3.1685 1.2794-10.845 0.20956-15.455-1.1305-4.8719-2.2801-6.8108-2.2801-6.8108l-0.10928-0.29714" fill="none" stroke="#deb14e" stroke-width=".26458px"/>
  <path d="m30.769 348.23s0.23386 1.8375-0.06682 3.3075c-0.30068 1.47-0.56795 3.7418-0.56795 3.7418" fill="none" stroke="#5f5f5f" stroke-width=".26458px"/>
  <g>
   <path d="m22.395 342.28s4.5967 2.5936 8.3456 2.7775c3.7489 0.18386 6.6889-0.64575 6.6889-0.64575l0.36714 3.584s-4.7017 1.1576-9.9921 0.24182c-5.2904-0.91584-8.0828-3.5532-8.0828-3.5532" fill="#34240d"/>
   <path d="m20.792 315s-1.1792-0.15668-4.1917 1.7294c-3.0125 1.8861-4.6626 5.6319-6.3915 9.6136-1.7289 3.9817-3.0909 7.9106-2.9075 9.1942 0.18337 1.2836 1.1002 5.0036 1.1002 5.0036l0.78562 0.0521s0.62894 1.4671 1.2314 2.5935c0.60249 1.1264 1.2727 2.4096 1.2727 2.4096s-0.22211 0.81474-0.81484 3.3338c-0.59274 2.5191-1.8827 6.1263-1.8827 6.1263l5.8097 2.4312 1.8893-5.2604 4.9635-7.1806s1.2577-1.336 2.6199-2.3053c1.3622-0.96923 2.7504-2.3315 3.4576-3.5889 0.70728-1.2574 1.5718-0.1049 1.5718-0.1049s1.4667-5.6057 1.3357-7.6751c-0.13098-2.0694-2.446-7.0203-2.446-7.0203l-2.2693-6.6538zm-5.8781 18.797s0.29651 1.4262 0.55583 2.4634c0.25933 1.0373 0.27792 1.7225 0.27792 1.7225s-0.35205-0.20389-0.44467-0.50026c-0.09261-0.29635-0.22216-0.55531-0.29625-1.5185-0.07409-0.96319-0.29628-0.88929-0.40742-1.4635-0.11114-0.5742 0.31459-0.70367 0.31459-0.70367z" fill="#7a0000"/>
   <path d="m26.581 314.32-3.1258 0.36787c0.24403 1.6594 0.56252 3.4846 0.90595 4.5321 0.74092 2.2598 2.0744 6.7423 3.7785 9.9282 1.6686 3.1196 1.9355 6.3959 1.946 6.5319 0.3259-1.585 0.61736-3.3348 0.55584-4.3068-0.13098-2.0694-0.52391-4.6889-1.1002-6.8631-0.5763-2.1742-1.4409-5.475-1.6767-6.6276-0.23576-1.1526-1.3357-1.8858-1.3357-1.8858l1.2051 0.0258z" fill="#4d0000"/>
  </g>
  <path d="m24.803 310.59s1.54 1.6998 2.3921 2.5704c0.85206 0.87057 2.5747 1.4263 3.0192 1.3892 0.44455-0.037 2.1365-0.88012 2.9221-1.9986 0.62489-0.88966 1.1114-1.0743 1.1114-1.0743" fill="none" stroke="#deb14e" stroke-width=".26458px"/>
  <g>
   <path d="m38.919 320.48s0.39293 0.86446 0.44532 6.4703c0.05239 5.6058 0.15718 7.2823 0 9.0374-0.15717 1.7551-0.05239 3.6674-0.05239 3.6674s-1.1144-0.20394-1.4478 0.24062c-0.33341 0.44454-0.4075 0.66683-0.4075 0.66683s0.94467 1.7782 0.90763 3.3341c-0.03705 1.5559 0.4816 2.5191 0.92615 3.8157 0.44455 1.2966 0.74092 3.1489 2.0375 4.5196 1.2966 1.3707 1.9264 2.4821 1.9264 2.4821l-6.9025 0.18674s0.36674-2.0432-0.10478-4.4008c-0.47152-2.3576-0.78586-4.9247-0.5763-5.9726 0.20956-1.0478-0.36674-2.9339-0.31435-3.9293 0.05239-0.99543 0.44532-2.3576 0.44532-2.3576s0.15718-1.8075 0.36674-4.0341c0.20956-2.2266 0.20956-4.5842 0.20956-4.5842s0.34054-0.57629 0.36674-2.8553c0.0262-2.279-0.73347-3.4578-0.73347-3.4578z" fill="#7a0000"/>
   <path d="m22.694 319.85c1.3707 0.51865 1.9264-0.22227 1.9264-0.22227s0.25932 1.3707 2.0005 0.70387c1.7412-0.66683 0.37046-2.9637 0.37046-2.9637s0.03705-0.33341-0.07409-1.1484c-0.11114-0.81501-0.92615-1.0373-0.92615-1.0373s0.96319-0.25933 0.81501-1.6671c-0.14818-1.4077-1.1484-1.8152-1.1484-1.8152s0.07409-0.59274-0.53716-1.1855c-0.61126-0.59274-0.90762-0.59274-0.90762-0.59274l0.63932-0.0808s-0.34054-0.28816-0.13098-0.5763c0.20956-0.28815 0.5763-0.28815 0.5763-0.28815l8.0682 1.9123s0.15717 0.94304-0.13098 1.6241c-0.28815 0.68108-0.15717 1.1526-0.15717 1.1526l0.86445 0.28814s0.07859 1.1002 0.28815 1.1788c0.20956 0.0786 0.99543 0.70728 0.47152 1.2312-0.52391 0.52391-0.5501 0.60249-0.44532 1.3098 0.10478 0.70728 0.60249 1.3622 0.83825 2.5148 0.23576 1.1526 0.94304 3.0649 0.94304 3.0649s0.10478 0.18336 0.81206-0.10479c0.70728-0.28815 0.60249-1.0478 0.60249-1.0478s0.78586 0.15717 1.1788-0.28815c0.39293-0.44532 0.41913-1.1788 0.31434-1.205-0.10478-0.0262 1.2836 0.23576 1.6503-1.5193 0.36674-1.7551 0.15717-2.8553 0.39293-3.615 0.23576-0.75966-0.39293-1.6503-0.36674-2.4886 0.0262-0.83825 0.28815-2.9077-0.68108-4.1127-0.96923-1.205-1.4931-1.2836-1.4931-1.2836s-0.0262-1.3884-0.26195-2.3838c-0.23576-0.99542-0.70728-1.1526-0.70728-1.1526s0.20956-0.68108 0.05239-1.205c-0.15717-0.52391-0.52391-0.81206-0.52391-0.81206s-0.13098-1.7551-0.52391-2.7243-2.5148-3.6412-3.9031-4.0079c-1.3884-0.36674-2.4362 0.28815-2.4362 0.28815s-1.7551-1.4931-3.484-0.15717c-1.7289 1.336-2.6457 2.5934-3.353 3.1958-0.70728 0.6025-1.1002 4.1127-1.9385 5.3962-0.83825 1.2836-1.336 1.3884-1.336 1.3884l1.3622-0.60249s-0.44532 0.44532-0.62869 0.96923c-0.18337 0.52391-0.13098 0.73347-0.13098 0.73347s-1.4931 1.2574-1.8337 1.9908c-0.34054 0.73347 0.78586 1.1788 0.78586 1.1788s-0.07859 0.13098 0.15717 0.6025c0.23576 0.47152 0.39293 0.5239 0.39293 0.5239s-0.39293 0.49772-0.5501 0.81206c-0.15717 0.31435-0.15717 0.78587-0.15717 0.78587s-0.94303 0.47151-0.83825 1.4931c0.10478 1.0216 1.2129 1.17 1.2129 1.17s1.5189 4.2603 2.8896 4.7789z" fill="#265e5b"/>
   <path d="m25.195 308.94s1.0743 1.7041 2.0005 2.445c0.92615 0.74092 1.298 0.97527 1.9079 1.4078 0.70968 0.50329 1.3183 0.48609 2.4821-0.4075 1.0931-0.83934 2.2783-2.2968 2.8155-4.0565 0.53717-1.7597 0.33341-3.2415 0.22227-4.0565-0.11114-0.81501-0.38898-1.7967-0.38898-1.7967s-1.5004-0.31488-1.1484 0.2408c0.35194 0.55569 1.0929 1.1299 1.0929 1.1299s-0.83353 0.11114-2.9081-0.53716-2.7784-2.4636-2.7784-2.4636v1.2596s-0.37046-0.66682-0.61126-1.3336c-0.2408-0.66682-0.50012-1.6671-0.94467-1.4818-0.44455 0.18524-0.66683 0.8891-0.66683 1.5559 0 0.66683 0.2408 1.204 0.2408 1.204s-0.37046-0.27783-0.61126-0.55568c-0.2408-0.27784-0.44455-0.77797-0.44455-0.77797l-0.12966 1.2781-0.79649-0.33342s-0.09261 0.87059-0.07409 1.6486c0.01853 0.77796 0.27784 1.1299 0.07409 2.0746-0.20375 0.94468 0.22228 2.3339 0.35194 2.7784 0.12966 0.44455 0.31489 0.77797 0.31489 0.77797z" fill="#ba8f3e"/>
   <path d="m15.063 355.56 1.4818-6.7424s0.4075 0.0741 0.96319-0.11114c0.55569-0.18524 1.4077-0.81501 1.4077-0.81501l2.445-0.29636s0.11114 2.2598-0.14818 3.186c-0.25932 0.92614-0.92615 1.0373-1.1484 2.2228-0.22228 1.1855-0.25932 4.2232-0.25932 4.2232z" fill="#e2d6bc"/>
   <path d="m17.989 344s0.96319-0.96319 1.63-0.70387c0.66683 0.25932 1.5004-0.0926 1.982 0.14818 0.4816 0.2408 0.85206 0.51865 0.87058 0.87058 0.01853 0.35194-0.22228 0.59274-0.22228 0.59274s0.42603 0.33341 0.42603 0.70386c0 0.37047-0.12966 0.51864-0.12966 0.51864s0.09261 0.037 0.05557 0.74093c-0.03705 0.70387-0.03705 1.2225-0.42603 1.3151-0.38898 0.0926-0.42603-0.35194-0.42603-0.35194s-0.05556 0.1667-0.55569 0.70387c-0.50012 0.53716-1.0373 1.204-1.7782 0.90763-0.74092-0.29637-0.81501-0.53716-1.1855-1.241s-0.51864-2.3339-0.51864-2.3339 0.27784-0.0741 0.81501-0.0741 0.87058 0.11113 0.87058 0.11113-0.12966-0.50012-0.61126-1.1669c-0.4816-0.66683-0.79649-0.74092-0.79649-0.74092z" fill="#ba8f3e"/>
  </g>
  <g fill="#918a79">
   <ellipse cx="28.195" cy="333.22" rx=".94467" ry="1.0373" opacity=".71681" style="paint-order:markers fill stroke"/>
   <ellipse transform="rotate(8.8076)" cx="77.741" cy="328.6" rx=".94467" ry="1.0373" opacity=".71681" style="paint-order:markers fill stroke"/>
   <ellipse cx="16.674" cy="345.34" rx=".38898" ry=".4075" opacity=".71681" style="paint-order:markers fill stroke"/>
  </g>
  <path d="m25.73 304.3s0.44532-0.66799 1.0609-0.5501c0.61559 0.11787 1.6634 0.23575 2.1218 0.40602 0.45842 0.17027 1.8861 0.51081 0.35364-0.24885-1.5324-0.75967-2.4231-0.94304-3.0649-0.537-0.64179 0.40602-0.91684 1.3491-0.73347 1.2312 0.18337-0.11788 0.26196-0.30124 0.26196-0.30124z" fill="#265e5b"/>
  <path d="m34.219 304.31s-0.43824-0.51368-0.8992-0.41378-1.2718 0.29147-1.615 0.43577c-0.34327 0.14429-1.4123 0.43288-0.26481-0.21089 1.1475-0.64379 1.8668-0.94326 2.426-0.59917 0.50338 0.30977 0.68654 1.1433 0.54923 1.0434-0.13731-0.0999-0.19615-0.2553-0.19615-0.2553z" fill="#265e5b"/>
  <path d="m26.345 304.79s0.34093-0.32109 1.1661-0.38658c0.82516-0.0655 1.3491 0.41914 1.3491 0.41914" fill="none" stroke="#34240d" stroke-linecap="round" stroke-width=".26458"/>
  <path d="m31.375 304.99s0.35364-0.537 1.1002-0.4977c0.74657 0.0392 1.1919 0.537 1.1919 0.537" fill="none" stroke="#34240d" stroke-linecap="round" stroke-width=".26458"/>
  <path d="m31.742 304.69s-0.09168 0.537 0.5763 0.537c0.66798 0 0.61559-0.65488 0.61559-0.65488l-0.75967-0.10479z" fill="#34240d"/>
  <path d="m27.236 304.52s-0.15717 0.69417 0.53701 0.5894c0.69418-0.10479 0.45842-0.68108 0.45842-0.68108z" fill="#34240d"/>
  <path d="m28.288 310.13s0.42603 0.0185 0.83353 0.0926c0.4075 0.0741 0.62978-0.14819 1.1299-0.037 0.50012 0.11114 1.241-0.11114 1.241-0.11114" fill="none" stroke="#4b2e2e" stroke-linecap="round" stroke-width=".26458px"/>
  <path d="m16.584 328.91s-1.1812-0.18899-2.9766-1.1812c-1.7954-0.99218-3.0238-2.3151-3.0238-2.3151l1.5592-3.26s1.4174 1.6064 2.7876 2.2678c1.3702 0.66146 3.1298 1.1005 3.1298 1.1005z" fill="#2c0000"/>
  <g fill="#275a2e">
   <ellipse cx="23.541" cy="344.94" rx=".43703" ry=".50791" opacity=".71681" style="paint-order:markers fill stroke"/>
   <ellipse cx="25.277" cy="345.78" rx=".43703" ry=".50791" opacity=".71681" style="paint-order:markers fill stroke"/>
   <ellipse cx="27.025" cy="346.39" rx=".43703" ry=".50791" opacity=".71681" style="paint-order:markers fill stroke"/>
   <ellipse cx="29.175" cy="346.79" rx=".43703" ry=".50791" opacity=".71681" style="paint-order:markers fill stroke"/>
   <ellipse cx="31.254" cy="346.98" rx=".43703" ry=".50791" opacity=".71681" style="paint-order:markers fill stroke"/>
   <ellipse cx="33.286" cy="346.96" rx=".43703" ry=".50791" opacity=".71681" style="paint-order:markers fill stroke"/>
   <ellipse cx="35.317" cy="346.79" rx=".43703" ry=".50791" opacity=".71681" style="paint-order:markers fill stroke"/>
  </g>
  <path d="m25.653 299.06-1.8845-0.79021" fill="none" stroke="#7c7c7c" stroke-linecap="round" stroke-width=".26458"/>
  <path transform="matrix(-.22493 .13933 .052734 .18315 50.561 272.57)" d="m119.64 50c-0.43303-0.69285 2.4307-2.9817 2.4876-3.7968 0.0569-0.81506-2.4609-3.4797-1.9358-4.1057 0.52512-0.62594 3.5869 1.3904 4.3796 1.1926 0.79275-0.19774 2.5489-3.4158 3.3065-3.1098 0.75758 0.306-0.2139 3.841 0.21914 4.5338 0.43303 0.69285 4.0362 1.3687 3.9793 2.1837-0.0569 0.81506-3.7191 0.9835-4.2442 1.6094-0.52512 0.62594-0.0544 4.2616-0.84715 4.4594-0.79276 0.19774-2.0846-3.2331-2.8422-3.5391-0.75757-0.306-4.0699 1.2652-4.5029 0.57233z" fill="#b8b8b8" style="paint-order:markers fill stroke"/>
  <path d="m24.188 329.96s-1.2361-0.0334-1.8709-0.30067-1.4032-0.66818-1.4032-0.66818" fill="none" stroke="#4d0000" stroke-linecap="round" stroke-width=".26458px"/>
  <path d="m21.471 338.02s-1.2125-0.24287-1.7926-0.61407-1.2693-0.8968-1.2693-0.8968" fill="none" stroke="#4d0000" stroke-linecap="round" stroke-width=".26458px"/>
 </g>
</svg>
