<?xml version="1.0" encoding="UTF-8"?>
<svg width="200" height="250" version="1.1" viewBox="0 0 52.917 66.146" xmlns="http://www.w3.org/2000/svg">
 <g transform="translate(0 -288.53)">
  <g>
   <path d="m7.4693 343.53s0.30374 1.7974 0.47221 5.0004c0.16847 3.203 0.47787 7.3697 0.47787 7.3697l1.6219 0.39977 2.2139-1.3755s-0.34814-1.7437-0.15205-3.2452c0.17654-1.3517 0.21609-1.628 0.21609-1.628s0.14336 0.22803 0.39351-0.18378c0.25015-0.4118-0.06996-0.86645-0.06996-0.86645s0.49954-1.5366 0.44836-2.7997c-0.05114-1.2631-2.8317-4.5566-2.8317-4.5566z" fill="#fb5b00"/>
   <path d="m21.451 317.94s-0.58796 0.60729-3.1723 0.99997c-2.5843 0.39268-2.9225 0.82848-3.8026 1.3672s-0.7814 0.50108-0.55681 1.8626c0.22459 1.3615 0.44996 4.328-1.5723 7.1218s-3.7926 6.0116-3.7926 6.0116l0.033772 0.8011-0.76068 0.19925s-0.71182 0.56503-1.0466 1.3482c-0.3348 0.7832 0.13289 1.566 0.13289 1.566l1.4459 1.7782 4.3956 1.1522 1.9788-0.65188s-0.22357-2.1306 0.07223-3.0459c0.2958-0.91531 2.226-4.3071 2.5924-5.9276 0.36638-1.6205 0.81409-0.23417 0.81409-0.23417l-0.49128 3.1688s-0.11776 1.1363 0.2888 2.0554c0.40657 0.91913 0.82518 3.7103 0.54385 5.7619-0.30176 2.2005-0.627 3.3703-0.627 3.3703s-1.0232 4.746-2.6643 7.3216c-1.6411 2.5755-3.2748 4.2049-3.2748 4.2049s0.25449 1.5498 1.0769 1.988c0.82239 0.43822 1.2964 0.46552 1.2964 0.46552l1.181-2.2724 0.0031 2.317s0.49394 0.49935 1.0152 0.52467c0.52124 0.0253 0.99329 5e-3 0.99329 5e-3l0.0088-2.0338 1.2964 0.46552 0.19336 1.2214 0.60913-1.2552 1.214 0.75274-0.15642 1.8982s0.37493 0.48073 0.99855 0.69088c0.62362 0.21016 1.2755-0.0301 1.2755-0.0301s0.65816 0.4688 1.3732 0.60416 1.4703 0.10352 1.4703 0.10352-0.07009-0.54086-0.17871-1.4348-0.42596-2.2519-0.42596-2.2519 0.76678 1.3627 1.2866 2.4757c0.51981 1.113 0.8555 1.7846 0.8555 1.7846l2.1655-0.23317-0.02886-0.68447 0.54811 0.66258 1.4976-0.3705-0.79763-2.0944s0.7833-1.0497 1.8822-0.22121c1.0989 0.82852 1.4495 1.8541 1.4495 1.8541l2.1862-0.78039s-0.08544-1.2336-0.46004-2.1876c-0.3746-0.95392-0.7309-1.4739-0.28189-1.9275 0.44902-0.45363 0.6131-0.52743 0.6131-0.52743l-1.2187-3.5265s1.0285 1.3945 2.1059 3.1547c1.0774 1.7602 2.401 3.8111 2.401 3.8111s1.4627-0.99793 2.946-2.2977c1.4834-1.2998 2.1172-2.129 2.1172-2.129l-4.2218-6.0587-3.1697-3.4527s-2.5667-1.1834-2.8342-5.2968c-0.18559-2.8539 0.47435-5.8112 0.96376-6.5412s2.7957-6.5964 2.7957-6.5964l6.4156 2.9925-2.7027 7.6802s-0.37581 1.7419-1.0093 3.5419c-0.63345 1.8-1.7994 2.7477-1.7994 2.7477l0.09326 1.6512 3.2543 2.0381s1.7803-1.5174 3.3718-3.0268c1.5915-1.5094 3.0805-5.4499 3.147-6.1147 0.06655-0.66484-5.3715-15.805-5.3715-15.805l-13.617-6.1173z" fill="#fb5b00"/>
   <path d="m23.511 314.63s0.14849 0.64317-0.16752 1.4757c-0.316 0.83256-0.7975 1.7055-0.7975 1.7055l3.7366 1.7819 5.3249-3.6021 4.2523-8.5021-5.6672-8.5751-8.1582 0.81206-3.1828 10.166z" fill="#ad5c10"/>
   <path d="m18.347 344.72s1.0896 1.2582 2.6701 2.2616c1.5805 1.0034 3.4412 0.72433 5.9598 0.18345 2.5185-0.54086 5.5612-1.3379 5.5612-1.3379l0.66657 0.74098s0.21345-0.0926 0.9504-0.45804c0.73696-0.36546 1.1742-0.70155 1.1742-0.70155s0.44626 0.33466 1.4428 1.3514c1.2562 1.2817 2.6248 3.1251 2.6248 3.1251s-3.9337 1.8712-5.1511 3.9288c-1.2174 2.0576-3.7819 2.2995-5.3728 2.6341-1.5909 0.33458-2.932 2.6315-4.0437 1.6418-1.1118-0.98972-0.09952-1.5674 0.84033-2.2758 0.93985-0.70839 0.99918-1.6806 0.99918-1.6806l-5.0617-1.0907-2.9939 1.3253s-1.0979-0.80491-1.8329-1.4123c-0.73494-0.60741-1.0557-0.92491-1.0557-0.92491s0.14333-0.52622 0.67496-1.3762c0.53164-0.84998 0.6869-1.093 0.6869-1.093s-0.23984-1.7632 0.16753-3.3173c0.40738-1.5541 1.0931-1.5241 1.0931-1.5241z" fill="#5a2706"/>
   <path d="m23.511 314.63s-0.40893 0.39555-1.3766 0.43635c-0.9677 0.0408-2.1487-1.6118-2.1487-1.6118s0.12724 0.77491 0.50218 1.2556c0.37493 0.48074 1.2661 0.86876 1.2661 0.86876l-0.97069-0.03 0.07407 0.63528s-0.83333-0.69784-1.4532-1.381c-0.61991-0.6832-1.0001-1.8494-1.0001-1.8494s0.04378 1.0385 0.35885 1.7818c0.31507 0.74335 0.88778 1.4285 0.88778 1.4285s-0.73992-0.72543-1.2734-1.6014c-0.53346-0.87601-0.70294-1.5309-0.98816-1.5662-0.28522-0.0352-0.4375 0.27853-0.4375 0.27853s0.0017-0.52025-0.27185-0.83974c-0.27356-0.3195-0.52722-0.16694-0.52722-0.16694s7.14e-4 -0.54385-0.13421-0.94012c-0.13493-0.39627-0.50262-0.14432-0.50262-0.14432s0.16992-0.45641-0.12824-0.7985c-0.29816-0.3421-0.76722-0.25139-0.76722-0.25139s-0.11658-1.0827 0.55568-1.9623 1.2238-1.2575 1.2238-1.2575-0.09497-1.1309 0.81774-3.0373c0.9127-1.9064 2.1767-3.331 2.6691-3.9902 0.49239-0.65916 1.2653-0.83361 1.2653-0.83361s0.395-0.72598 1.3604-1.3814c0.96544-0.65545 2.0139-0.4632 2.0139-0.4632s0.10408-0.33541 0.66059-0.59532c0.55651-0.2599 1.1389 0.0939 1.1389 0.0939s0.50831-0.28152 1.118-0.40181c0.60969-0.12028 1.081 0.40368 1.081 0.40368s0.17218 0.15825 0.46409-0.20872c0.29191-0.36697 0.35675-0.51157 0.35675-0.51157s0.34238 0.2693 0.3573 0.62333c0.01492 0.35404 0.02985 0.70808 0.02985 0.70808s0.36299 0.1975 1.1033-0.18838c0.74036-0.38588 2.2435 0.49653 2.2435 0.49653l-0.78557 0.43507s0.57343 0.14135 1.1402 0.68492c0.56674 0.54358 0.69271 0.72743 0.69271 0.72743s0.37565-0.0632 0.96273-0.15881c0.58708-0.0957 1.0904-0.49522 1.0904-0.49522s0.05147 0.65988-0.23945 1.0505c-0.29091 0.39057-0.83178 0.46066-0.83178 0.46066s1.1392 0.66131 1.5161 1.1892c0.37692 0.52794 0.31535 1.3108 0.31535 1.3108s0.8686 0.41263 1.0783 0.90032c0.20972 0.4877 0.08828 1.5332 0.08828 1.5332s1.5499 1.9917 0.98756 4.3562-2.2456 3.3812-2.2456 3.3812-0.02134 0.61565-0.36144 0.96101c-0.34011 0.34537-0.60372 0.2619-0.60372 0.2619s-0.10408 0.33542-0.33613 0.43977c-0.23205 0.10437-0.59703-0.14034-0.59703-0.14034s-0.30755 0.55679-0.49637 0.56475c-0.18882 8e-3 -0.49367 0.0681-0.49367 0.0681s-0.14261-0.0176-0.86804 0.7223c-0.72543 0.73991-1.0852 1.1807-1.0852 1.1807s-0.78812-0.74704-1.1919-1.9122c-0.40379-1.1652-0.14898-2.9729 0.0818-3.6683 0.23077-0.69542 0.62676-1.3978 0.62676-1.3978s1.3779 0.15472 1.7423-0.73549c0.36443-0.89021 0.44905-2.809-0.23542-2.7801-0.68448 0.0288-0.81017 0.41247-0.81017 0.41247s0.17478-2.5846-0.3557-3.3898c-0.53048-0.80519-1.0887-0.0251-1.0887-0.0251s0.2871-2.1638-0.68017-3.2343c-0.96727-1.0705-2.3652-0.0185-2.3652-0.0185s0.18257-0.71704-0.4773-0.66557c-0.65988 0.0514-2.151 1.6985-2.151 1.6985s-0.22989-1.5272-1.0361-1.0203c-0.80619 0.50687-1.2079 1.6351-2.0719 2.4518-0.86406 0.8167-0.95521 1.4589-0.93531 1.931s-0.04977 0.78237 0.19869 1.0674c0.24846 0.28507 0.27121 0.54421 0.30192 0.99216 0.0307 0.44795-0.09015 0.66585-0.31474 0.94723-0.22458 0.28138-0.0441 1.5928 0.40711 2.7776 0.4512 1.1848 0.50358 1.634 1.2097 2.1225s0.71613 1.1234 0.71613 1.1234z"/>
  </g>
  <path d="m27.345 306.32s0.45304-0.75475 1.4224-0.76217c0.9694-7e-3 1.3668 0.69475 1.3668 0.69475" fill="none" stroke="#000" stroke-linecap="round" stroke-width=".26458"/>
  <path d="m21.737 306.15s0.26332-0.49596 0.96639-0.47544c0.70307 0.0205 1.143 0.93824 1.143 0.93824" fill="none" stroke="#000" stroke-linecap="round" stroke-width=".26458px"/>
  <ellipse transform="rotate(-2.414)" cx="9.9255" cy="307.11" rx=".65147" ry=".74334" style="paint-order:markers fill stroke"/>
  <ellipse transform="rotate(-2.414)" cx="15.672" cy="307.18" rx=".65147" ry=".74334" style="paint-order:markers fill stroke"/>
  <path d="m31.154 333.95-0.11693 2.2217" fill="none" stroke="#e7d4b2" stroke-width=".26458px"/>
  <path d="m32.26 317.44-2.4449 0.89495 0.33321 1.1683 0.66583 0.0899s0.3593 0.67084 0.39711 1.5677c0.03781 0.89689-0.21381 1.6639-0.21381 1.6639s-0.39489 0.15881-0.33774 0.39285c0.05716 0.23403 0.60605 0.35254 0.60605 0.35254s-0.15756 0.19571-0.19581 0.41013-0.09582 0.52438-0.09582 0.52438-0.46764-0.42936-2.5277 0.0595c-2.0601 0.48881-3.6098 2.4216-4.1188 3.247-0.50903 0.82538-0.76682 1.4514-1.3691 0.62563-0.60228-0.82582-1.7687-1.9592-1.7687-1.9592s-0.5505-1.3036-0.69235-2.2647 0.20518-2.8411 0.65726-4.015c0.45209-1.1739 0.86779-1.9167 0.86779-1.9167l-0.57145-0.34158s-0.0065 2e-3 -0.71673 0.23781c-0.71028 0.23522-0.97904 0.44178-0.97904 0.44178l-0.2196 3.5141-0.80747-3.2902s-0.08702-0.0352-0.54552 0.0375c-0.4585 0.0727-0.53448 0.14564-0.53448 0.14564s0.12539 0.60064 0.25227 1.2306c0.12688 0.62997 0.23854 2.0687 0.23854 2.0687s0.1872 0.87007-0.05809 1.4352c-0.30108 0.69363-1.1376 1.6808-1.4871 2.6368-0.34949 0.956-0.41536 1.5592-0.41536 1.5592s-0.2163 1.3188-0.14947 2.2156c0.154 2.0667 1.2199 3.5597 2.872 3.0888 1.6521-0.4709 3.8974-1.9363 3.8974-1.9363s1.7627 0.56077 4.4099 1.4858c2.6472 0.925 3.3178 0.9639 3.3178 0.9639s1.1811 1.0538 1.938 1.5569c0.75685 0.50311 2.3543 1.1768 2.3543 1.1768s0.13814-0.0772 0.33181-0.49285c0.19366-0.41567 0.11158-0.64696 0.11158-0.64696s-0.26084-0.14414-1.3919-0.79866c-1.1311-0.65452-1.4566-1.2425-1.4566-1.2425s1.0002-1.6475 1.1611-2.5906c0.16087-0.94306-0.24918-1.1596-0.79489-2.2066-0.54571-1.047-0.75697-2.8775-0.75697-2.8775l1.3955 0.57684s0.29947 0.75631 1.0272 1.361c0.7277 0.60464 1.0628 0.62396 1.0628 0.62396s0.25351 0.45741 1.3445 1.749c1.091 1.2915 2.9497 2.5507 2.9497 2.5507s-0.39498 0.21808 0.20858 1.635c0.60355 1.4169 1.5214 1.307 1.5214 1.307l-0.01763 0.71037s-0.82326 0.10537-0.81005 0.97963c0.01321 0.87429 0.56022 0.94618 0.56022 0.94618s-0.18577 0.0787-0.21606 0.48185c-0.03029 0.40324 0.69768 0.84521 0.69768 0.84521s0.33824 0.33259 3.3104 0.72747c2.9722 0.39488 3.7529 0.24582 3.7529 0.24582s0.03049-0.39734 0.54875-0.44284 0.65589-0.14603 0.63898-0.54726c-0.01691-0.40124-0.48994-0.97242-0.48994-0.97242s0.14269 0.0177 0.23583-0.57733c0.09314-0.59503-0.3302-1.0971-0.3302-1.0971s0.80895-0.43606 0.65213-1.3516c-0.15682-0.91552-1.2014-1.5812-1.2014-1.5812s8e-3 -0.37843 0.18984-0.55161c0.18186-0.17318 0.37217-0.7013 0.18136-0.74054-0.19081-0.0393-0.26268-0.0598-0.26268-0.0598s0.22325-1.9956-0.27368-2.5658c-0.49693-0.57017-1.92-0.67576-1.92-0.67576s-0.14524-0.44741 0.4172-2.1765c0.56244-1.7291 0.83491-2.4095 0.6831-2.8378-0.15181-0.42829-0.82662-0.56668-0.82662-0.56668s0.27066-0.71404-0.07298-0.93362c-0.34364-0.21958-0.89131-0.53085-0.89131-0.53085s0.02773-2.5088-0.46913-3.1901c-0.49686-0.68126-3.3751-1.5298-4.3013-1.2902-0.92617 0.23967-2.002 0.88713-2.002 0.88713s-0.47201-0.35243-2.198-0.3506c-1.726 2e-3 -2.2086 0.32947-2.2086 0.32947s-0.54512-0.59169-1.3595-0.84109c-0.81443-0.2494-1.2892-0.28858-1.2892-0.28858zm-13.037 7.1975c0.12392-0.0152 0.43747 1.0544 0.68254 1.9708-0.17721 0.0233-0.36574 0.0491-0.57897 0.0813-0.59248 0.0894-1.1349 0.0448-1.5393-0.0256 0.27707-0.44843 1.2505-2.0044 1.4357-2.0265z" fill="#748a72"/>
  <path d="m22.075 319.11s-0.20757 0.8512 0.20091 1.4192 0.81376 0.26664 0.60122 0.77718c-0.21255 0.51053-0.74039 1.8703 0.35396 2.844 1.0944 0.97374 1.7596 0.49428 2.4346-0.15278 0.67493-0.64706 1.1988-1.7057 1.3904-2.3157 0.19164-0.60996 0.22904-0.91249 0.93825-1.143 0.70921-0.23054 1.2165-0.2637 1.7434-0.66421 0.52694-0.40053 0.96118-1.3173 0.96118-1.3173z" fill="#e6ddb8"/>
  <path d="m30.936 318.92-0.42748-1.0186" fill="none" stroke="#e7d4b2" stroke-linecap="round" stroke-width=".26458"/>
  <g>
   <path d="m22.932 317.04s0.77304 0.88696 2.4754 0.8152c1.7023-0.0718 2.9739-0.8443 4.1182-1.461 1.1443-0.6167 1.4321-0.92978 1.4321-0.92978s0.40978 0.42773 0.74782 0.87455c0.33804 0.44681 0.55472 1.0997 0.55472 1.0997s-3.4923 2.9727-6.9944 2.9076c-3.5021-0.0652-3.8149-2.4078-3.8149-2.4078s0.17638-0.303 0.62618-0.57023 0.85492-0.32825 0.85492-0.32825z" fill="#a6a6a6"/>
   <path d="m23.607 321.56c-0.31758 0.60126-0.3511 1.5864-0.09845 2.0272 0.25265 0.44077 0.5046 0.86484 1.3046 0.0119 0.8-0.85296 1.7792-2.2151 0.86738-2.4274-0.91179-0.21235-1.6384 2e-3 -1.6384 2e-3s-0.27256 0.0784-0.43514 0.38616z" fill="#3b2744"/>
   <path d="m8.5539 335.3s0.59122 0.31295 0.88838 0.63144c0.29716 0.3185 0.58166 0.89762 0.58166 0.89762s0.9168 0.43424 1.3037 1.1982c0.38687 0.76397 0.54739 1.2064 0.54739 1.2064s0.94338 0.50405 1.4609 1.0024c0.51754 0.49837 1.3976 1.257 1.3976 1.257s0.19253 0.56755 0.28324 1.0366c0.09071 0.46907-0.50803 0.84897-0.50803 0.84897s0.3866 0.19651 0.07109 0.56448c-0.31551 0.36797-0.83974 0.27184-0.83974 0.27184s0.1153 0.49168-0.11646 1.1635c-0.23177 0.67181-0.53263 0.82636-0.53263 0.82636s-1.8561-0.28365-3.3483-0.90645c-1.4922-0.62278-2.2203-1.2569-2.2203-1.2569s-0.13787-0.39422-0.073182-1.0475c0.042925-0.43347 0.35759-0.98791 0.35759-0.98791l-0.19407-0.67751s-0.14872-0.44298-0.47197-0.81949c-0.32325-0.37651-0.45655-0.45364-0.45655-0.45364s-0.069454-0.24535-0.032198-0.48336c0.037255-0.23802 0.26123-0.35753 0.26123-0.35753s0.484-0.0204 0.98347 0.32637c0.49947 0.34676 0.64143 0.5414 0.64143 0.5414s0.37823-0.14969 0.99363-0.2258c0.6154-0.0761 1.4158-0.12654 1.4158-0.12654s-0.30624-0.52211-0.93641-0.79649c-0.63018-0.27438-0.85648-0.88345-0.85648-0.88345s-0.43307-0.35792-0.64997-0.94231c-0.21691-0.58438-0.67773-0.80739-0.67773-0.80739s-0.018544-0.24164 0.16072-0.55015c0.17927-0.3085 0.56619-0.4502 0.56619-0.4502z" fill="#748a72"/>
  </g>
  <path d="m24.252 311.47s0.43252-0.0517 1.42-0.0264c0.9875 0.0252 1.5168 0.28716 1.5168 0.28716" fill="none" stroke="#000" stroke-linecap="round" stroke-width=".26458"/>
  <path d="m37.752 346.16-0.99414 0.61037 0.75846 0.93773s-1.8226 1.5816-2.9794 2.2991c-1.1568 0.71753-2.328 1.8871-1.9933 2.291 0.33469 0.40387 2.2383-0.44546 2.2383-0.44546s-0.90577 0.72367-0.21638 1.2129c0.68939 0.48924 2.1819-0.59356 2.1819-0.59356s-0.09853 0.43885 0.21243 0.67654c0.31096 0.23768 0.97151 0.0426 0.97151 0.0426s0.08294 0.38104 1.1419 0.11906c1.059-0.262 2.21-1.5143 2.4462-1.8586 0.23627-0.34434 0.25941-1.3819 0.25941-1.3819l-1.8137-2.9664z" fill="#e6ddb8"/>
  <path d="m38.937 345.71-0.3831-0.35211-0.80211 0.80289s0.54603 0.26122 2.1177 1.8502c1.5717 1.5889 1.9092 2.0596 1.9092 2.0596l0.59606-0.53506s-0.30589-0.51376-1.6195-1.9297c-1.3136-1.4159-1.8183-1.8958-1.8183-1.8958z" fill="#5a2706"/>
  <path d="m17.156 349.62s1.166 0.84709 3.0051 1.639c1.8391 0.79187 5.205 0.73404 5.205 0.73404" fill="none" stroke="#000" stroke-linecap="round" stroke-width=".79375"/>
  <path d="m33.005 346.57s-2.3136 1.4351-6.0366 1.9598c-3.723 0.52478-4.7953 0.46966-4.7953 0.46966" fill="none" stroke="#000" stroke-linecap="round" stroke-width=".52917"/>
  <path d="m21.786 350.93s-1.644-0.13133-1.4445-1.7448c0.19949-1.6135 0.21356-1.2797 1.2395-2.3261s1.8727-1.5837 3.1292-0.33256c1.2565 1.2511 1.5282 2.1425 1.4548 2.7809-0.0734 0.63843-0.74903 1.2688-0.74903 1.2688s0.72629 0.57128 1.8626 0.55682c1.1363-0.0145 1.6356-0.069 2.2913 1.2075 0.6557 1.2765 1.4196 1.9465-0.13937 2.2462-1.559 0.29978-1.9891-0.38429-2.9886 0.49381-0.99957 0.87809-1.9318 0.18175-2.8095-0.0153-0.8777-0.19707-0.99293 0.24249-1.8755 1.5169-0.88255 1.2744-1.2773 2.0165-2.9619 1.128-1.6846-0.88845-1.5094-4.0425 0.08832-4.2504 1.5977-0.20794 2.8157-1.4228 3.1618-1.939 0.34606-0.51616-0.25898-0.59097-0.25898-0.59097z" fill="#e6ddb8"/>
  <g fill="#3b2744">
   <path d="m24.313 350.48s-0.92818 0.41744-2.2415-0.44933-1.2428-1.4372-0.84754-1.5957c0.39527-0.15853 0.58807-0.0721 0.58807-0.0721s0.59719-1.5384 1.3299-1.5457c0.73267-7e-3 0.68105 1.0116 0.65502 2.0768-0.02603 1.0651 0.51611 1.5861 0.51611 1.5861z"/>
   <path d="m23.957 353.24s0.65788-0.0987 0.94283-0.63087c0.28494-0.53219 0.39699-0.67878 0.39699-0.67878s0.93913-0.15781 1.8912-9e-3c0.95206 0.14902 1.8582 0.89108 1.5231 1.3545-0.33513 0.46338-1.0495-0.21585-2.2668 0.0719-1.2174 0.28777-2.4872-0.10794-2.4872-0.10794z"/>
   <path d="m18.733 354.95s0.64324 0.11475 0.5511 0.73339c-0.09214 0.61864-0.15897 0.71605 0.34862 0.97838s0.96572-0.0879 1.2052-1.1384c0.23945-1.0505 0.53705-1.8433 0.53705-1.8433s-0.62049 0.14437-1.5113 0.60753c-0.89079 0.46315-1.1307 0.66242-1.1307 0.66242z"/>
   <path d="m23.421 351.75s0.32916-0.60498 1.1024-0.21198c0.77319 0.393 0.09596 1.1545-0.58951 1.1598-0.68547 5e-3 -0.66051-0.24407-0.68127-0.45599-0.02075-0.21194 0.16842-0.49182 0.16842-0.49182z"/>
  </g>
  <g fill="none" stroke-linecap="round">
   <path d="m39.802 332.51s0.36994 0.0513 3.2025-0.97095c2.8326-1.0222 3.7739-2.3137 3.7739-2.3137" stroke="#4b3917" stroke-width=".79375"/>
   <path d="m34.202 319.46 0.7064-0.88876" stroke="#e7d4b2" stroke-width=".26458"/>
   <path d="m35.507 328.21s1.6807-1.56 2.9735-4.5464c1.2928-2.9864 0.83415-5.0772 0.83415-5.0772" stroke="#e7d4b2" stroke-width=".52917"/>
   <path d="m46.087 322.18s-0.8248 2.0711-4.6518 3.8665c-3.827 1.7954-5.9283 2.164-5.9283 2.164" stroke="#4b3917" stroke-width=".26458"/>
   <path d="m47.052 323.65s-1.0259 1.0462-5.1669 2.759c-4.141 1.7127-6.3774 1.807-6.3774 1.807" stroke="#e7d4b2" stroke-width=".52917"/>
   <path d="m48.972 332.47s-2.3153 2.958-4.654 4.281c-2.3387 1.3229-3.0536 1.3403-3.0536 1.3403" stroke="#dcdcdc" stroke-width=".26458"/>
   <path d="m41.505 335.95s2.4539-0.12266 4.4206-0.58391c1.9667-0.46122 2.9377-1.5427 2.9377-1.5427" stroke="#e7d4b2" stroke-width="1.0583"/>
  </g>
  <path d="m17.484 324.76s0.10336 0.20844 0.47915 0.42905c0.37579 0.2206 0.60399 0.30555 0.60399 0.30555s0.59359-0.85258 0.65526-0.8271c0.06167 0.0255 0.33015 0.78556 0.33015 0.78556s0.35304-0.0385 0.6972-0.1476c0.34416-0.1091 0.47738-0.17383 0.47738-0.17383s-0.24576-0.78172-0.21461-1.4451c0.03115-0.66336 0.21643-1.877 0.21643-1.877s-0.35443-0.27471-1.2541-0.3018c-0.89964-0.0271-1.4334 0.0722-1.4334 0.0722s0.19595 1.0025 0.11269 1.6917c-0.08326 0.68921-0.67024 1.4883-0.67024 1.4883z" fill="#d2d2d2"/>
  <path d="m19.324 322.98c0.94659 0.0192 1.2699-0.024 1.2699-0.024l-0.06015 0.67641s-0.41031 0.0824-1.2807 0.048c-0.87038-0.0343-1.1854-0.0742-1.1854-0.0742s0.07241-0.24541 0.07724-0.41112c0.0048-0.16572 0.02787-0.32032 0.02787-0.32032s0.2046 0.086 1.1512 0.10522z" fill="#5a2706"/>
  <g fill="none">
   <path d="m19.005 322.85-0.10316 0.9239 0.68638 0.0212 0.10492-0.88218z" stroke="#909090" stroke-width=".26458px"/>
   <path d="m19.31 323.34 0.65476 0.0644" stroke="#909090" stroke-width=".26458px"/>
   <path d="m7.8068 342.01s0.89717 0.52964 2.8644 1.2033c1.9672 0.67369 3.0689 1.0056 3.0689 1.0056" stroke="#e7d4b2" stroke-linecap="round" stroke-width=".52917"/>
   <path d="m11.875 339.23s-0.14176 0.17759-0.43536 0.32672c-0.29791 0.15133-0.49206 0.16958-0.49206 0.16958" stroke="#4b3917" stroke-linecap="round" stroke-width=".26458"/>
   <g stroke="#e7d4b2" stroke-linecap="round" stroke-width=".26458px">
    <path d="m10.948 339.73s0.54337 0.48932 1.7278 1.1014c1.1844 0.61211 2.0582 0.66166 2.0582 0.66166"/>
    <path d="m8.5382 340.08s1.0363 0.66701 3.0654 1.1253c2.0291 0.45828 3.13 0.28546 3.13 0.28546"/>
    <path d="m31.235 322.85-0.18727 1.1665"/>
   </g>
  </g>
  <path d="m30.997 322.82s0.0658-0.6881-0.05876-1.9599c-0.12455-1.2718-0.54767-1.7739-0.13576-2.0986 0.41191-0.32475 0.88894-0.22665 1.2117 0.13807 0.32275 0.3647 0.77048 0.88951 1.8323 0.27742 1.0618-0.61208 1.1342 0.5433 0.52379 1.2074-0.6104 0.66414-2.025 2.0232-2.7112 2.4032-0.68618 0.38003-0.66208 0.0319-0.66208 0.0319z" fill="#d2d2d2"/>
  <ellipse transform="matrix(.69125 -.72261 .70712 .7071 0 0)" cx="-207.68" cy="247.53" rx=".9602" ry="1.1595" fill="none" stroke="#d2d2d2" stroke-linecap="round" stroke-linejoin="round" stroke-width=".59684" style="paint-order:markers fill stroke"/>
  <path d="m30.526 333.77s0.46782-3e-3 0.93232-0.0894c0.46449-0.0864 0.9548-0.3578 0.9548-0.3578l0.54183 0.56221s-0.29197 0.21294-0.76963 0.38355c-0.47766 0.17061-0.96447 0.12423-0.96447 0.12423z" fill="#5a2706"/>
  <g fill="none" stroke-linecap="round">
   <path d="m49.507 338.43s-1.5512 0.35346-4.3624 0.28259c-2.8112-0.0709-3.8804-0.62042-3.8804-0.62042" stroke="#4b3917" stroke-width=".26458px"/>
   <path d="m49.413 336.75s-1.4332 0.63408-4.1735 0.94119c-2.7403 0.3071-3.9749 0.39539-3.9749 0.39539" stroke="#e7d4b2" stroke-width=".52917"/>
   <path d="m9.1547 338.05s0.17656-0.28502 0.43642-0.63938c0.25986-0.35435 0.43283-0.58162 0.43283-0.58162" stroke="#4b3917" stroke-width=".26458px"/>
  </g>
  <g fill="#980000">
   <circle transform="rotate(175.6)" cx="-5.3729" cy="-338.25" r=".43431" style="paint-order:markers fill stroke"/>
   <circle transform="rotate(175.6)" cx="-5.1528" cy="-337.63" r=".43431" style="paint-order:markers fill stroke"/>
   <circle transform="rotate(175.6)" cx="-5.2473" cy="-336.96" r=".43431" style="paint-order:markers fill stroke"/>
  </g>
 </g>
</svg>
