<?xml version="1.0" encoding="UTF-8"?>
<svg width="200" height="250" version="1.1" viewBox="0 0 52.917 66.146" xmlns="http://www.w3.org/2000/svg">
 <g transform="translate(0 -288.53)">
  <g>
   <path d="m15.254 351.29-1.0838 7.636 22.563-0.88677 4.5324-8.6706-10.641-13.203-12.957 9.5081z" fill="#3d7875"/>
   <path d="m16.24 356.21s3.0052-1.6257 8.3257-2.611c5.3206-0.9853 15.715-1.5272 15.715-1.5272l-1.8228 7.0941h-22.366z" fill="#979797"/>
   <path d="m17.767 315.82s-1.6257 0.64044-3.3007 1.675c-1.675 1.0346-2.9559 2.7588-2.9559 2.7588s-0.68971 0.8375-0.93603 2.2662c-0.24632 1.4287-0.47317 1.6972-0.47317 1.6972s-0.1402 1.2959-0.43579 2.5767c-0.29559 1.2809-1.0616 5.8746-1.0616 5.8746s-0.105 4.7164-0.17467 5.866c-0.06967 1.1496-0.69671 2.4036-0.69671 2.4036l-0.76638 6.3749s0.25158 1.594 0.91345 2.4997c0.66187 0.90573 5.0086 6.5924 5.0086 6.5924l2.5261-1.1456-3.0486-6.5182s-0.39514-0.78504-0.29064-2.4223c0.10451-1.6373 0.11646-4.0223 0.11646-4.0223s0.94056-1.8114 1.4283-3.5184c0.4877-1.7069 0.5922-3.7622 0.5922-3.7622l0.13934-0.41803 1.2541 4.877 22.311-1.5352s-0.14779-0.57885-0.12316-2.18c0.02464-1.6011 0.46802-3.9535 0.46802-3.9535s0.04927 1.2316 0.09854 1.9706c0.04927 0.73897 0.22169 1.9213 0.66507 3.4485 0.44338 1.5272 1.0099 2.5125 1.0099 2.5125l0.78824 1.207-0.54191 0.8375s0.0051 0.35748-0.06458 1.2109c-0.06967 0.85348-0.24385 1.8289-0.24385 1.8289l-3.8298 9.8183 3.9904 3.35 3.3993-2.9066 4.2588-8.5632s0.01064-1.7703-0.04469-2.9019-0.39606-2.9448-0.39606-2.9448l-0.7636-1.8967s-0.93603-2.0198-0.8375-3.9904c0.09853-1.9706-0.29559-4.7787-0.29559-4.7787l-0.9853-1.7735 1.0838-2.0691s-0.85955-1.0427-1.3472-2.5232c-0.4877-1.4805-0.45286-1.7418-0.62704-2.1424-0.17418-0.40061-0.43544-0.31351-0.43544-0.31351s0.33094-1.0276-0.71412-1.8811c-1.0451-0.85348-4.9641-2.6998-5.922-2.8391-0.95798-0.13935-1.5502-0.13935-1.5502-0.13935z" fill="#d2c6ae"/>
   <path d="m22.041 311.28s1.6627 1.3302 4.0767 1.5026c2.414 0.17242 5.6408-1.3302 5.6408-1.3302l1.0961-0.61581s1.353 1.4244 2.0497 2.8178c0.69671 1.3934 1.0799 2.7868 0 5.6085-1.0799 2.8217-2.2295 9.0572-2.0901 12.332 0.13934 3.2745 0.71783 10.131 0.71783 10.131s-2.7588 2.6603-6.9463 3.0544c-4.1875 0.39412-8.8677 0.49265-9.0154 0.24633-0.14779-0.24633 0.39412-6.6508 0.44338-12.907 0.04927-6.2566-0.24632-16.307-0.24632-16.307s0.81287-1.1824 1.8967-2.5125c1.0838-1.3302 2.377-2.0199 2.377-2.0199z" fill="#936628"/>
   <path d="m22.792 310.05s0.29559 1.6011 0.71434 2.3154c0.41875 0.71434-0.17243 3.079-0.17243 3.079l7.4882-0.61583 0.54191-2.7834 0.39412-0.59117s0.19706-0.34485 0.46801-0.78823c0.27096-0.44339 0.41875-1.207 0.41875-1.207s0.71434 0.44339 0.96066-0.5419c0.24632-0.9853 1.4287-2.414 1.0592-3.079-0.36949-0.66508-1.0346 0.34485-1.0346 0.34485l0.64044-4.8772-0.88677-2.5864-10.346 0.73898-2.2169 6.2566s-0.0739 0.34486 0.22169 0.56655c0.29559 0.22169 0.46802 0.9114 0.54191 2.2908 0.0739 1.3794 1.207 1.4779 1.207 1.4779z" fill="#ba9476"/>
   <path d="m20.821 305.72s-0.14779-0.46802-0.27095-1.404c-0.12316-0.93603-0.66507-2.2908-0.64044-3.2515 0.02464-0.96067 0.64044-1.7243 0.64044-1.7243s0.49265-1.1085 0.78824-1.7243c0.29559-0.61581 1.0838-0.46801 1.0838-0.46801s0.36948-0.54192 0.71434-0.9853c0.34485-0.44339 0.81287-0.36949 0.81287-0.36949s0.29559-0.44338 0.66508-0.78823c0.36949-0.34486 1.0592-0.24632 1.0592-0.24632s0-0.59119 2.414-0.54192c2.414 0.0493 4.2121 1.4533 4.2121 1.4533s0.46802 0.17242 0.64044 0.41875c0.17243 0.24631 0.19706 0.51727 0.19706 0.51727s0.56654 0.12317 0.64044 0.64044c0.0739 0.51729 0.49265 1.2316 0.49265 1.2316s0.88676 1.5272 0.8375 3.2022c-0.04927 1.675-0.51728 2.9559-0.8375 3.4485-0.32022 0.49265-0.64044 1.0592-0.64044 1.0592s-0.49264-0.8375-0.56654-2.1184c-0.0739-1.2809-0.46802-1.7243-0.46802-1.7243s-0.56654 0.0246-1.2562-0.56655c-0.68971-0.59118-0.78824-1.0346-0.78824-1.0346s-0.66508 0.29559-0.8375 0.8375c-0.17243 0.54192-0.12316 0.96067-0.12316 0.96067s-0.68971 0.0985-0.9114 0.49265c-0.22169 0.39411-0.49265 0.64044-0.49265 0.64044s-0.09853-0.36949-0.86213-0.64044c-0.7636-0.27096-0.9114-0.71435-0.9114-0.71435s-1.0592 0.1478-1.404 0.32022c-0.34485 0.17244-0.46802 0.59119-0.46802 0.59119s-0.29559-0.14781-0.56654 0.0739c-0.27096 0.22169-0.22169 0.73896-0.22169 0.73896s-0.9114 0-1.3055 0.44338c-0.39412 0.44339-0.29559 2.1923-0.29559 2.1923s-0.03694-1.2439-0.67739-1.2686c-0.64044-0.0246-0.65276 0.3079-0.65276 0.3079z" fill="#ddcbaf"/>
   <path d="m27.029 312.96s-0.68971 1.1085-1.3055 1.0838c-0.61581-0.0246-1.8967-0.96066-1.8967-0.96066l0.0739 1.3794 4.9757 0.93603 2.0938-1.946s-0.59118 0.68971-1.6257 0.71434c-1.0346 0.0246-1.1577-0.51728-1.2316-0.81287-0.0739-0.29558-0.0739-0.41875-0.0739-0.41875z" fill="#ddcbaf"/>
   <path d="m23.555 312.56s0.73897 1.5765 3.079 1.946c2.3401 0.36949 3.5717-0.41875 3.9165-0.96066s0.81287-1.5026 0.81287-1.5026 2.143 1.1824 0.39412 2.414c-1.7489 1.2316-4.1629 3.4978-4.6555 4.0644-0.49265 0.56654-0.9114 1.2562-0.9114 1.2562s-0.95409-1.2816-1.7727-2.5532-1.6024-2.2469-1.6024-2.2469 0.34836-0.55737 0.52253-1.2192c0.17418-0.66187 0.21696-1.198 0.21696-1.198z" fill="#f2f8f4"/>
  </g>
  <g fill="#4e3615">
   <path d="m14.212 335.01 0.32224-0.18614s-0.42674-1.5556-0.53125-2.5659c-0.10451-1.0102-0.17418-2.0553 0.03484-2.2295 0.20901-0.17417 2.8565-1.5328 2.8565-1.5328s-0.06967-0.38318 0.34835-0.83605c0.41802-0.45286 0.8883-0.71413 0.8883-0.71413l0.01741-3.7448s-4.2673-0.12193-4.7028 0.0871c-0.43544 0.20901-1.6373 0.88831-2.2643 1.167s-1.0799-0.24385-1.0799-0.24385-1.9508 4.4241-1.9508 5.7479c0 1.3237 0.52253 2.6823 0.52253 2.6823s0.69671 1.1496 1.3586 1.4282c0.66187 0.27869 3.2524 1.1424 3.6096 1.1301 0.35717-0.0123 0.57069-0.18951 0.57069-0.18951z"/>
   <path d="m34.103 325.78 1.0102 0.38319s1.5676 0.4877 2.3688 0.90572c0.80122 0.41803 1.198 0.64376 1.3951 0.47133 0.19706-0.17242 0.71434-1.1824 0.64044-1.6011-0.0739-0.41875-2.7835-2.0198-2.9805-2.0198-0.19706 0-1.8228-0.12317-1.8228-0.12317z"/>
   <path d="m45.552 326.16s0.12316 1.0099 0.22169 1.2809c0.09853 0.27095-0.1478 0.88676-0.22169 1.2562-0.0739 0.36948-0.09853 1.3055-0.09853 1.3055s-1.3055 0.68971-2.7835 0.66508c-1.4779-0.0246-2.5864-0.61581-2.7835-1.1331-0.19706-0.51728 0.44338-2.6357 1.2316-2.7834 0.78824-0.1478 2.3401-0.17242 3.1283-0.29559 0.78824-0.12316 1.3055-0.2956 1.3055-0.2956z"/>
  </g>
  <g>
   <path d="m17.25 327.39s1.1771-0.23646 1.2816-0.39321c0.10451-0.15676-0.07838-0.66187-0.07838-0.66187s1.6808-1.3586 1.646-1.9856c-0.03484-0.62704-0.27868-2.4733-1.3934-2.4733s-2.6475 1.2889-2.8217 1.8463c-0.17418 0.55737 1.2541 2.8217 1.2541 2.8217s-0.87089 0.48769-0.69671 0.76637c0.17418 0.2787 0.80849 0.0797 0.80849 0.0797z" fill="#979797"/>
   <path d="m35.775 324.67s-0.1045 1.4979-0.87088 1.6721c-0.76638 0.17417-3.0655 0.27868-3.0655-0.55737 0-0.83606 0.20901-2.1946 1.2192-2.4733 1.0102-0.27869 2.7259-0.0262 2.7259-0.0262s0.67929-0.73155 0.75767-0.73155c0.07838 0 0.62704 0.54866 0.50511 0.70542-0.12192 0.15676-0.70542 1.0799-0.89701 1.2628-0.1916 0.18288-0.37448 0.14804-0.37448 0.14804z" fill="#979797"/>
   <path d="m14.417 341.58s-0.24632 3.6456 0.14779 5.4684c0.39412 1.8228 0.68971 4.2368 0.68971 4.2368s0.78824 0.93603 2.9559 0.78824c2.1676-0.1478 3.5471-1.478 3.5471-1.478s-0.43143-1.15-0.87481-4.0566c-0.44338-2.9066-0.36565-5.4668-0.36565-5.4668l-4.9118-1.6024z" fill="#f2f8f4"/>
   <path d="m14.664 336.48s1.2541 1.1496 1.7069 1.6721c0.45286 0.52253 0.83605 0.83605 0.83605 0.83605s0.80122-0.69672 1.3237-1.0451c0.52253-0.34836 1.3586-0.83606 1.4283 0.20901 0.06967 1.0451 0.55737 2.9262 0.55737 2.9262s-0.87089 0.27869-1.5676 0.66187c-0.69671 0.3832-0.87089 0.3832-0.87089 0.3832l-0.06967-1.3586-1.8463 0.45286-0.10451 1.1147s-1.2889 0.13934-1.6721-0.34836-0.34836-1.2889-0.06967-2.6127c0.27868-1.3237 0.34836-2.8913 0.34835-2.8913z" fill="#4e3615"/>
   <path d="m26.857 340.27-1.9856 0.45286s-0.62704-1.6373-1.5676-1.9856c-0.94056-0.34836-1.8463-1.3586-1.3237-2.7868 0.52253-1.4283 1.2541-1.9856 2.0901-2.125s2.543-0.66187 3.5881 0.34836c1.0451 1.0102 1.6024 2.8217 1.6024 2.8217h0.66187s-0.38319 1.4283-1.7069 1.5676c-1.3237 0.13934-1.7766 0.10451-1.7766 0.10451z" fill="#723f3f"/>
   <path d="m31.462 341.58s0.33696 1.8315 0.47275 3.4396c0.11842 1.4023-0.22643 3.5068-0.22643 3.5068l0.8375 1.2809s1.5765-0.0493 2.8574-0.2956c1.2809-0.24632 1.9706-0.34484 1.9706-0.34484s-0.29559-1.3794 0.49265-1.5765c0.78824-0.19706 1.1331-0.78823 1.1331-0.78823l0.29559-2.8081-5.1728-6.2074z" fill="#f2f8f4"/>
   <path d="m38.771 347.66s0.05226-1.1322 0.1916-1.585c0.13934-0.45287 1.7244-0.71413 1.7244-0.71413s0.62704-0.69671 3.2049-0.66187c2.5778 0.0348 4.2151 0.27868 4.2151 1.9856 0 1.7069-0.69671 2.0204-0.69671 2.0204s0 1.0102 0.27868 1.4283c0.27869 0.41802 0.52253 0.87088-0.83605 0.94055-1.3586 0.0696-6.2007-0.76638-6.2007-0.76638z" fill="#979797"/>
   <path d="m31.462 341.58s1.3513-1.1698 2.1525-0.78662c0.80122 0.38318 1.2541 1.0799 1.7418 1.0102 0.4877-0.0697 1.1147-0.34836 1.1147-0.34836s-0.37812 2.6372 0.95203 3.0806c1.3301 0.44339 1.8721-0.5419 1.8721-0.5419s-0.41875-1.6011-0.73897-3.0544c-0.32022-1.4533-0.64044-3.0052-0.64044-3.0052s-2.2169-0.86213-3.6702-0.81286c-1.4533 0.0492-2.5301 0.2254-2.8449 1.2684-0.34344 1.1381 0.06143 3.19 0.06143 3.19z" fill="#4e3615"/>
   <path d="m7.7322 340.93s1.3934-0.24384 2.9262 0.55736c1.5328 0.80122 2.8913 1.707 2.752 2.8913-0.13934 1.1844-1.2889 2.2295-1.2889 2.2295l0.13934 1.2889s-1.7418-1.9856-2.6823-1.8463c-0.94056 0.13935-2.6127 1.2541-2.6127 1.2541s-0.66187-0.6967-1.0102-1.9508c-0.34835-1.2541-0.17418-1.1496 0.80122-2.7868l0.97539-1.6373z" fill="#979797"/>
  </g>
  <g fill="#4e3615">
   <path d="m7.1051 348.01s-0.17666 0.86699 0.26672 2.074c0.44338 1.207 0.91763 2.0196 0.91763 2.0196h-1.0103s0.20929 1.4454 1.0453 1.846c0.83605 0.40061 1.2148 0.34687 1.9538 1.5292 0.73897 1.1824 2.6446 3.9922 2.6446 3.9922h6.2004s-0.13951-1.1146-0.6272-2.3687c-0.4877-1.2541-3.0446-2.1659-3.414-3.2497-0.36949-1.0838-0.62666-2.3935-0.62666-2.3935s-0.41795-1.9161-1.0798-2.0206c-0.66187-0.1045-1.0103-0.69671-1.0103-0.69671s-2.9609 0.20918-3.6576 0.6272c-0.69671 0.41803-1.6025-1.3589-1.6025-1.3589zm6.0554 4.7838s0.19683 0.36932 0.56631 0.83734 0.98553 0.93596 0.98553 0.93596-0.73905 1.8e-4 -1.3056 0.0248c-0.56654 0.0246-0.86213 0.19722-0.86213 0.19722s1.54e-4 -0.29605 0.19721-1.1089c0.19706-0.81286 0.41867-0.88638 0.41867-0.88638z"/>
   <path d="m39.885 340.74c0.0174 0.47027 0.39551 1.0359 0.39551 1.0359s0.7636-0.27096 3.079-0.46802c2.3154-0.19705 3.9904-0.64044 3.9904-0.64044s0.04927-0.44338-0.12316-0.86213c-0.17243-0.41875-0.64044-1.0346-0.64044-1.0346s-0.68971 0.6897-2.4879 1.0346c-1.7982 0.34485-2.9313 0.19706-3.3993 0.0493-0.46802-0.14779-0.70975-0.28163-0.70975-0.28163s-0.12192 0.69669-0.10451 1.167z"/>
   <path d="m38.771 347.66s2.543 0.55737 4.2151 1.2889c1.6721 0.73155 3.8667 2.125 3.8667 2.125s-0.38885 0.53555-0.63518 0.65871c-0.24632 0.12317-0.46802 0.19706-0.46802 0.19706s-0.34485 1.1331-0.86213 1.9706-1.3548 1.1824-1.3548 1.1824-0.51728-0.61581-1.4533-1.0592c-0.93603-0.44339-0.88677 0.17242-1.6996-1.1577-0.81287-1.3302-2.3647-2.8574-2.3154-3.3254 0.04927-0.46802 0.70667-1.8803 0.70667-1.8803z"/>
  </g>
  <path d="m24 306.01s0.20901-0.57478 0.83605-0.36577c0.62704 0.20901 1.1147 0.26126 1.6024 0.24385 0.4877-0.0174 0.34835 0.45286 0.34835 0.45286" fill="none" stroke="#4e3615" stroke-linecap="round" stroke-width=".27588px"/>
  <path d="m31.929 306.16s-0.1676-0.58819-0.80792-0.42431c-0.64032 0.16389-1.0434 0.33808-1.5286 0.28602-0.48522-0.052-0.37968 0.42694-0.37968 0.42694" fill="none" stroke="#4e3615" stroke-linecap="round" stroke-width=".27588px"/>
  <path d="m25.462 305.82s-0.45286 0.73154 0.10451 0.74895c0.55737 0.0174 0.43544-0.62703 0.43544-0.62703z" fill="#4e3615"/>
  <path d="m30.502 305.88 0.5172-0.17418s0.39551 0.81863-0.16733 0.92314c-0.56284 0.1045-0.34987-0.74896-0.34987-0.74896z" fill="#4e3615"/>
  <path d="m25.341 311.22s0.74896 0.0871 1.3934 0.20901c0.64446 0.12192 1.1147 0.0697 1.9334 0.0522 0.81864-0.0174 1.5676-0.0174 1.5676-0.0174" fill="none" stroke="#4e3615" stroke-linecap="round" stroke-width=".27588"/>
  <g>
   <circle cx="18.108" cy="323.88" r=".90203" fill="#6e6e6e" style="paint-order:markers fill stroke"/>
   <circle cx="15.166" cy="341.31" r=".52406" style="paint-order:markers fill stroke"/>
   <circle cx="13.276" cy="333.89" r=".52406" style="paint-order:markers fill stroke"/>
  </g>
  <path d="m38.32 326.22 2.8063 1.9377" fill="none" stroke="#b22222" stroke-width=".26458px"/>
  <path d="m38.161 326.73 3.2566 1.0124" fill="none" stroke="#b22222" stroke-width=".26458"/>
  <g>
   <circle cx="41.483" cy="328.08" r=".64218" style="paint-order:markers fill stroke"/>
   <circle cx="38.176" cy="326.38" r=".52406" style="paint-order:markers fill stroke"/>
   <circle cx="12.965" cy="331.41" r=".45724" style="paint-order:markers fill stroke"/>
   <circle cx="15.101" cy="325.88" r=".75792" style="paint-order:markers fill stroke"/>
   <circle cx="19.182" cy="340.6" r=".52406" style="paint-order:markers fill stroke"/>
  </g>
  <circle cx="20.86" cy="335.76" r=".71305" fill="#723f3f" style="paint-order:markers fill stroke"/>
  <circle cx="21.923" cy="334.2" r=".52406" fill="#723f3f" style="paint-order:markers fill stroke"/>
  <g>
   <circle cx="37.798" cy="343.58" r=".52406" style="paint-order:markers fill stroke"/>
   <circle cx="32.411" cy="339.8" r=".52406" style="paint-order:markers fill stroke"/>
   <circle cx="37.184" cy="340.38" r=".52406" style="paint-order:markers fill stroke"/>
  </g>
  <g>
   <circle cx="33.843" cy="324.82" r=".90203" fill="#6e6e6e" style="paint-order:markers fill stroke"/>
   <path d="m20.836 314.61s2.5513 4.2995 3.9215 5.7641c1.3702 1.4647 4.5357 0.0945 6.4256-1.4646 1.8899-1.5592 3.9688-1.9844 3.9688-1.9844l-0.89769 2.2679s-1.5592-0.61421-3.26 0.75595-2.4568 3.827-5.5279 2.9766c-3.0711-0.85044-2.6931-3.2128-4.016-5.3389-1.3229-2.1261-2.1261-2.8821-2.1261-2.8821l0.94494-0.89769z" fill="#388350"/>
   <circle cx="36.593" cy="325.39" r=".45724" style="paint-order:markers fill stroke"/>
  </g>
 </g>
</svg>
