<?xml version="1.0" encoding="UTF-8"?>
<svg width="200" height="250" version="1.1" viewBox="0 0 52.917 66.146" xml:space="preserve" xmlns="http://www.w3.org/2000/svg"><g><path d="m20.613 22.517s0.42347-0.13807 0.92394-0.63885c0.50047-0.50077 1.9561-0.6141 1.9561-0.6141l4.0665 1.0477 3.8702-1.4544s0.30335 0.18415 0.64441 0.18415c0.34106 0 0.51497-0.26724 0.51497-0.26724s0.20694 0.37218 0.49476 0.75992c0.28781 0.38774 0.62728 0.55999 0.62728 0.55999s-0.02159-0.40087 0.26346-0.38638c0.28504 0.01449 0.27339 0.2573 0.27339 0.2573s0.07554-0.3823 0.03549-0.72324c-0.04005-0.34093-0.20309-0.5868-0.20309-0.5868s0.50044-0.30228 0.7979-0.72485c0.29746-0.42258 0.32473-0.80413 0.32473-0.80413s-1.3577 0.41154-1.0458-0.20732c0.31186-0.61886 0.91526-0.27027 1.3236-0.41704 0.40833-0.14677 0.55847-0.63562 0.55847-0.63562s-0.58784 0.51248-1.0877 0.03014c-0.49987-0.48234 0.24089-0.9965 0.24089-0.9965s-0.34753-0.3273-0.57194-0.8542c-0.2244-0.5269-0.24048-1.0894-0.24048-1.0894s0.57505 0.40565 1.119 0.56246 0.93327-0.15751 0.93327-0.15751-0.57086-0.27637-1.3757-0.99773c-0.80483-0.72136-0.94606-1.2006-0.94606-1.2006l0.84149 0.46216s-1.2726-1.0507-1.2713-1.7496c0.0014-0.69893-0.16117-2.4713-0.94353-3.9434-0.78236-1.4722-2.0316-2.128-2.0316-2.128s-5.1017-2.2995-7.4413-0.20833c-2.3395 2.0912-1.9127 3.3545-1.9127 3.3545s-0.05825 0.5409-0.17733 1.1895c-0.11907 0.64857 0.05715 1.1972 0.05715 1.1972s-0.5247-0.0523-0.7582 0.83603c-0.2335 0.88834 0.17524 1.642 0.17524 1.642l1.0228 0.26936-0.71235 0.96924s-0.60299 0.0429-1.2256 0.72244c-0.62263 0.67954-1.3571 0.99866-1.3571 0.99866s0.14256 0.33749 0.40123 0.5844c0.25867 0.24691 1.1005 0.30212 1.1005 0.30212s-0.71762 0.39738-1.1691 1.0681c-0.45143 0.67068 0.08898 1.171 0.08898 1.171s0.18619-1.1093 0.73248-0.93683 0.12152 0.63704-0.11868 1.1599c-0.2402 0.52285 0.24696 1.3901 0.24696 1.3901s-0.15205-1.4042 0.27384-0.925c0.42589 0.47918 0.45136 0.97735 0.45136 0.97735l1.0542-0.67144s-0.49957 0.85221-0.69142 1.1194c-0.19185 0.26719-0.13373 0.50358-0.13373 0.50358z" fill="#513e20"/><path d="m22.687 13.318s0.08118-1.16 0.0036-1.887c-0.07754-0.72699 0.20618-1.2783 0.86177-1.9329 0.65559-0.65458 0.72753-1.2024 1.2406-1.3277 0.51307-0.12531 0.73138-0.59013 1.4873 0.40461 0.75591 0.99474 1.8683 1.6175 2.458 1.863 0.58963 0.24554 1.12 0.56384 1.2988 0.76227 0.17885 0.19843 0.26326 0.77632 0.26326 0.77632s0.10967-0.81474 0.40205-0.62166c0.29239 0.19308 0.29324 0.83194 0.29324 0.83194s0.42156-0.28529 0.59024-0.0271c0.16868 0.2582 0.29044 0.88139 0.21914 1.597-0.0713 0.7156 0.27724 1.4134-8.45e-4 1.9598-0.27805 0.54636-0.5647 1.047-0.63364 2.1201-0.06895 1.073-1.9145 2.3292-2.428 2.6496-0.51348 0.32041-0.89311 0.22951-0.89311 0.22951l0.0053-1.3326s0.0092-0.35383-0.41014-0.36589c-0.41934-0.01206-0.44514 0.45978-0.44514 0.45978l-0.06671 1.2015s-0.91634-0.24254-1.6335-0.77309c-0.71712-0.53055-0.97828-0.68707-1.5609-1.4779-0.58265-0.79081-0.57967-0.89217-0.64868-1.1573-0.06902-0.2651-0.0576-0.4335-0.0576-0.4335s-0.27233-0.61488-1.1727-1.1988c-0.90041-0.58395-1.4575-1.351-0.9546-2.5929 0.50286-1.2419 1.7822 0.27301 1.7822 0.27301z" fill="#c5b182"/><path d="m12.851 26.297s-1.8476 0.8082-2.5165 2.641c-0.66889 1.8328-0.71012 5.0023-1.3309 5.9876-0.6208 0.98535-0.38001 2.4702-0.38001 2.4702s-0.96893 1.5427-1.4057 3.6744-0.56155 4.8411-0.56155 4.8411-0.095988 2.3552-0.54946 5.3497c-0.52508 3.4673-0.77186 5.708-0.76274 9.6424 0.00836 3.6085 0.14372 6.3657 0.14372 6.3657h3.5528s0.43922-4.2089 1.1794-6.4924c0.7402-2.2836 2.2432-5.4131 2.2432-5.4131l3.6245-3.396-0.04205-25.78z" fill="#ab9f9f"/><path d="m22.737 21.828s-1.1725 0.35941-2.6718 1.1169c-1.4993 0.75748-2.261 1.4325-2.261 1.4325l-2.2311 11.069-1.756 35.95 23.568-1.1869-2.1055-19.961 0.83274-18.472 1.1465-6.7844-3.5475-2.8969s-1.488-0.77155-3.3312-0.62395c-1.8432 0.1476-7.643 0.35748-7.643 0.35748z"/><path d="m19.001 54.661s-0.32664 3.104-0.73502 6.7341c-0.40838 3.6302-0.43304 6.2886-0.43304 6.2886l4.8937-0.0037s0.07492-1.6124 0.33811-3.1857c0.26318-1.5733 0.43691-3.8814 0.43691-3.8814s0.56037 2.1194 0.89765 3.9704c0.33728 1.8511 0.54288 3.3467 0.54288 3.3467l5.6861-0.10327s-0.18009-3.2392-0.45656-6.0956c-0.27647-2.8564-0.2776-7.1099-0.2776-7.1099s-2.7241 0.4104-5.7678 0.3943c-3.0438-0.01609-5.1253-0.35457-5.1253-0.35457z" fill="#483e38"/><ellipse cx="24.242" cy="55.976" rx="3.6034" ry="3.2928" fill="#3f6372"/><path d="m21.027 27.465s-0.9306 2.1059-1.3334 6.3252c-0.4028 4.2193-0.58971 7.9897-0.5618 11.673 0.02792 3.6836 0.01651 6.2084 0.01651 6.2084s1.5967-0.30563 2.4138 0.06294c0.81711 0.36857 1.2451 2.4153 2.2871 2.5073 1.042 0.09198 2.0408-2.1701 3.2961-2.0746 1.2553 0.09548 2.959 0.21732 2.959 0.21732s1.2309-3.6776 1.8597-5.8152c0.62879-2.1376 0.48443-7.6469 0.17313-11.033-0.3113-3.3863-0.16618-8.0593-0.16618-8.0593l-5.2256-1.7542z" fill="#483e38"/></g><path d="m19.153 50.81s1.4413 0.36125 5.3253 0.62775c3.8854 0.2666 5.9169 0.08867 5.9169 0.08867l0.09408-0.28716s-2.1203 0.18318-5.9903-0.08237c-3.8714-0.26564-5.3438-0.61756-5.3438-0.61756z" color="#000000" fill="#62544c" stroke-width="1.0616"/><path d="m19.155 50.179s1.4662 0.36125 5.4172 0.62775c3.9525 0.2666 6.0191 0.08867 6.0191 0.08867l0.0957-0.28716s-2.1569 0.18318-6.0938-0.08237c-3.9383-0.26564-5.4361-0.61756-5.4361-0.61756z" color="#000000" fill="#62544c" stroke-width="1.0707"/><g fill="none"><g stroke="#62544c" stroke-width="1.4091"><path d="m25.438 35.48 0.95498 0.99076"/><path d="m30.138 35.036 1.1779 0.71147"/><path d="m30.384 30.059 1.1779 0.71147"/><path d="m30.272 32.548 1.1779 0.71147"/><path d="m27.966 32.908 1.0324 0.90981"/><path d="m20.589 34.659 0.75211 1.1524"/><path d="m27.831 35.396 1.0324 0.90981"/><path d="m25.146 38.181 0.95498 0.99076"/><path d="m22.712 37.964 0.85817 1.0757"/><path d="m22.844 40.651 0.85817 1.0757"/><path d="m20.229 40.15 0.79368 1.1241"/><path d="m20.07 43.066 0.88776 1.0514"/></g><path d="m18.404 44.932s1.9438-2.1416 4.04-3.9529c2.0962-1.8112 4.7053-4.8965 6.7438-6.7048 2.0385-1.8083 3.9135-3.3215 3.9135-3.3215" stroke="#000" stroke-width="1.6909"/><g stroke="#62544c" stroke-width="1.4091"><path d="m23.005 35.263 0.85817 1.0757"/><path d="m30.165 37.71 1.0912 0.83841"/><path d="m20.097 37.463 0.79368 1.1241"/><path d="m27.713 38.019 0.95454 0.99118"/><path d="m25.277 40.868 0.95498 0.99076"/><path d="m30.353 40.332 0.97824 0.9678"/><path d="m27.845 40.706 0.95454 0.99118"/><path d="m22.711 43.274 0.85817 1.0757"/><path d="m25.144 43.491 0.95498 0.99076"/><path d="m30.409 43.15 0.95496 0.99078"/><path d="m27.711 43.329 0.95454 0.99118"/><path d="m19.88 45.597 0.88776 1.0514"/><path d="m22.478 45.842 0.94352 1.0017"/><path d="m24.954 46.022 0.95498 0.99076"/><path d="m30.218 45.681 0.95496 0.99078"/><path d="m27.521 45.86 0.95454 0.99118"/><path d="m19.883 48.192 0.88776 1.0514"/><path d="m22.528 48.397 0.84926 1.0828"/><path d="m24.957 48.617 0.95498 0.99076"/></g></g><path d="m30.729 47.789-1.0152 0.97775 0.95486 0.99023 0.43684-0.42073 0.29384-0.85208z" color="#000000" fill="#62544c" stroke-width="1.0651"/><path d="m27.524 48.456 0.95454 0.99118" fill="none" stroke="#62544c" stroke-width="1.4091"/><path d="m23.27 18.947s0.98509 1.4063 2.1817 2.0229c1.1966 0.61659 2.2414 1.0105 3.3004 0.49493 1.0589-0.51555 1.6207-1.0597 1.9173-1.3748 0.29665-0.31507 0.70051-0.74922 0.70051-0.74922s-0.04843 1.9958-0.06251 3.7089c-0.01409 1.7131 0.66388 4.4277 0.66388 4.4277s-2.3183 1.6901-5.6275 1.6826c-3.3092-0.0075-5.3164-1.0226-5.3164-1.6946 0-0.67195 1.2805-2.7943 1.2805-2.7943s0.38928-1.051 0.42948-2.8426c0.0402-1.7916 0.2744-3.2789 0.2744-3.2789z" fill="#c5b182"/><path d="m23.827 13.565s0.1893-0.36292 1.1225-0.40018c0.93317-0.03726 1.1113 0.45602 1.1113 0.45602" fill="none" stroke="#000" stroke-linecap="round" stroke-width=".28181"/><ellipse cx="29.613" cy="13.627" rx=".52138" ry=".50545" fill="#7a7a7a"/><path d="m28.552 13.717s0.21573-0.55219 1.0192-0.56976c0.8035-0.01756 1.0358 0.4241 1.0358 0.4241" fill="none" stroke="#000" stroke-linecap="round" stroke-width=".28181px"/><ellipse cx="25.008" cy="13.697" rx=".52138" ry=".50545"/><g fill="none"><g stroke-linecap="round"><path d="m25.272 17.936s0.34071 0.27664 0.61129 0.07739c0.27058-0.19924 0.54431-0.40403 0.81085-0.43022 0.26654-0.02618 0.48053-0.06223 0.48053-0.06223" stroke="#513e20" stroke-width=".42272"/><path d="m29.935 17.828s-0.32302 0.2971-0.60536 0.11491c-0.28234-0.18219-0.56817-0.36973-0.83581-0.37945-0.26764-0.0097-0.57727-0.04323-0.57727-0.04323" stroke="#513e20" stroke-width=".42272"/><path d="m26.439 18.09s0.37674-0.08659 0.90799-0.07444 1.2126-0.04928 1.2126-0.04928" stroke="#000" stroke-width=".28182"/><path d="m8.6232 37.396s1.102 0.42056 2.2978 0.48371c1.1957 0.06315 2.7289-0.14682 2.7289-0.14682s-2.2937-0.6488-3.2687-1.4475c-0.97493-0.79867-1.378-1.3596-1.378-1.3596" stroke="#000" stroke-width=".28182"/></g><path d="m20.866 32.175 0.75211 1.1524" stroke="#62544c" stroke-width="1.4091"/></g><path d="m20.774 22.61s-2.5074 0.63145-4.8395 1.7492c-2.3321 1.1177-3.084 1.938-3.084 1.938s0.96982 1.6813 1.1884 4.6124c0.21857 2.9311-2.2756 8.3439-1.7349 10.224 0.54076 1.8799 0.59238 6.2755 0.32998 8.4953-0.26241 2.2198-1.9368 8.4461-2.1314 11.992-0.1677 3.0551-0.36694 6.4677-0.36694 6.4677h6.038s0.28323-5.9083 0.75441-8.8585c0.47118-2.9503 1.4009-6.2964 1.4009-6.2964s-0.48428-6.5281-0.59883-13.092c-0.11455-6.5637 0.6634-8.0986 0.96542-10.402 0.26286-2.0046 0.7185-3.5823 1.2859-4.6812 0.53932-1.0445 0.79252-2.1486 0.79252-2.1486z" fill="#7d1616"/><path d="m23.164 32.757 0.80929 1.1129" fill="none" stroke="#62544c" stroke-width="1.4091"/><path d="m38.054 23.683c3.0278 1.378 4.1226 2.5325 4.1226 2.5325l-3.3275 18.113s-0.93269 3.0281-1.1113 5.2602c-0.1786 2.2322-1.6643 3.3047-1.6643 3.3047s0.92469 0.03619 2.0617 1.9866c1.1074 1.8996 1.1504 3.2755 1.1504 3.2755s0.86294 1.9781 1.4984 5.4327c0.47064 2.5585 0.43045 4.5435 0.43045 4.5435l-8.7039 0.10012s-0.31245-3.9781-0.87705-7.7415c-0.56459-3.7634-0.62395-7.3817-0.62395-7.3817s2.1799-3.2084 2.9645-7.2116c0.78467-4.0032 0.20683-11.829-0.09919-15.126-0.30602-3.2963-0.16299-8.677-0.16299-8.677s1.3142 0.21091 4.3421 1.5889z" fill="#7d1616"/><path d="m25.573 32.993 0.95498 0.99076" fill="none" stroke="#62544c" stroke-width="1.4091"/><path d="m19.401 30.276s0.08351 0.56426 1.2931 3.1464c1.2096 2.5822 2.3213 4.3198 3.8458 5.7448 1.5245 1.425 3.4185 3.44 5.4675 5.1051 2.0491 1.6651 3.0326 2.7277 3.0326 2.7277" fill="none" stroke="#000" stroke-width="1.6909"/><g><path d="m41.179 59.191s0.29368 0.89606 0.57915 2.3849c0.28547 1.4889 0.44794 5.6629 0.44794 5.6629l4.264 0.09627s0.19881-2.2869 0.49102-4.7617c0.29221-2.4747 0.16481-5.1165 0.16481-5.1165l-3.8873-1.8943z" fill="#483e38"/><path d="m40.344 56.477 0.83528 2.7141s0.93449-1.1841 2.9586-1.5969c2.0242-0.41282 2.9883-0.13715 2.9883-0.13715l-0.0015-3.5943-4.9791-2.0189z" fill="#292626"/><path d="m38.188 40.381s0.12206 2.484 0.6 4.9491c0.47795 2.4651 1.1944 4.0046 1.1944 4.0046s-0.29256 2.0123-0.29256 3.0467c0 1.0344 0.41828 2.2504 0.41828 2.2504l0.23602 1.8445s0.78832-1.423 3.2189-2.1912c2.4306-0.76812 3.5619-0.42316 3.5619-0.42316l-0.02229-2.0338 0.53414-0.72952-0.81238-1.177s0.11586-0.35062-0.04393-1.0203c-0.15979-0.66971-0.60294-0.87658-0.60294-0.87658s0.24103-1.1492 0.35085-3.4231c0.10983-2.2739-0.54807-4.7259-0.54807-4.7259z" fill="#ab9f9f"/></g><path d="m20.694 26.585s-0.12052 1.9574 3.279 2.4029c3.3995 0.44551 6.1689-0.19073 7.3106-1.0522 1.1417-0.8615 1.5735-1.1333 1.5735-1.1333" fill="none" stroke="#000" stroke-width=".84544"/><g><path d="m18.697 52.025s-1.3985-0.04989-3.3673-0.83645c-1.9688-0.78657-2.6953-1.5603-2.6953-1.5603s-0.11627 0.26672-0.19504 0.88589c-0.07877 0.61917-0.04951 0.87423-0.04951 0.87423s1.4319 0.91002 2.981 1.4146c1.5491 0.50457 3.4677 0.91865 3.4677 0.91865"/><path d="m36.961 51.883s-1.7677 0.52757-3.6323 0.59858c-1.8646 0.071-2.6742 0.02525-2.6742 0.02525l-0.07071 1.509s1.675 0.11378 3.4865-0.02105c1.8116-0.13484 3.0857-0.4349 3.0857-0.4349s0.07102-0.27315 0.01749-0.88835c-0.05352-0.6152-0.2125-0.78851-0.2125-0.78851z"/><path d="m40.794 26.017s1.7841-0.09281 2.9852 1.1432c1.2011 1.236 1.5398 3.099 1.7806 4.4473 0.24086 1.3482 0.60458 4.272 0.72454 6.3086 0.11996 2.0366 0.13013 3.3724 0.13013 3.3724s-1.0003 2.1682-4.0514 1.8383c-3.0511-0.32998-4.5787-3.2008-4.5787-3.2008s-1.0217-4.3184-0.98287-7.5715c0.03881-3.2531 1.7991-5.4154 2.4374-5.8978 0.6383-0.48243 1.5552-0.4397 1.5552-0.4397z" fill="#6e6666"/><ellipse cx="44.138" cy="56.735" rx=".63773" ry=".8585" fill="#3f6372"/><path d="m42.176 26.216s-2.2903 1.9756-2.9962 6.9939c-0.70592 5.0183-0.1344 10.166-0.1344 10.166l-0.36587 1.384-2.917-6.4564-0.27747-14.761z" fill="#7d1616"/><path d="m23.621 39.041 0.83476 0.8781 0.87895-0.84454-0.87734-0.82632z" fill="#3f6372"/></g><g fill="none" stroke="#62544c" stroke-width="1.4091"><path d="m20.978 29.685 0.75211 1.1524"/><path d="m23.276 30.268 0.80929 1.1129"/><path d="m25.685 30.503 0.95498 0.99076"/><path d="m28.078 30.419 1.0324 0.90981"/></g><ellipse cx="23.981" cy="53.132" rx=".6062" ry=".55061" fill="#62544c"/></svg>
