<?xml version="1.0" encoding="UTF-8"?>
<svg width="200" height="250" version="1.1" viewBox="0 0 52.917 66.146" xml:space="preserve" xmlns="http://www.w3.org/2000/svg"><g transform="matrix(.94451 0 0 .94451 2.4516 3.3011)" stroke-width="1.121"><path d="m40.677 65.462-0.4068 1.672 4.4491-0.31552-0.40192-1.9093-1.8501-1.7845z" fill="#a48158"/><path d="m18.862 22.701s-1.1939-0.16324-1.6309-2.2828c-0.43702-2.1196 1.3069-3.3975 1.3065-5.3882-3.44e-4 -1.9907 0.083-3.3347-0.37722-4.1499s0.1865-3.1291 0.59744-3.7702c0.41094-0.64108 0.11805-0.93119 0.40507-1.306 0.28702-0.37483 0.51478-0.28113 0.51478-0.28113s0.5026-0.60166 0.37412-0.96665 0.25116-1.1674 0.25116-1.1674-0.23791 1.2761 0.25742 1.143c0.49532-0.13302 0.5762-0.84291 1.4983-1.6946 0.92207-0.85173 2.4486-0.95792 2.4486-0.95792s1.3657-0.99129 4.2244 0.47166c2.8587 1.463 3.1783 2.139 3.462 2.8523s1.9279 3.709 1.7404 4.4802c-0.18754 0.7712-0.11718 3.0167-0.77844 3.652s0.47681 1.2128 0.47681 1.2128-0.90881 0.0528-0.61502 0.77c0.29378 0.71719 0.6342 1.9401-0.03487 2.2909-0.66907 0.35079-1.0021 1.0416-0.6496 1.3285s0.78206 0.35527 0.78206 0.35527-0.35673 0.13723-0.33334 0.69457-1.1172 0.99944-1.0795 1.6131c0.03769 0.61368-7.1182-0.15561-7.1182-0.15561l-2.1474 3.3905-3.2906-2.5126s0.06756-0.90702-0.11012-1.3637c-0.36271-0.93231-0.56796-1.6072-0.6615-2.4578-0.09355-0.85055-0.06351-1.1488-0.06351-1.1488s-1.2474 1.2007-0.90229 2.8915 1.4536 2.457 1.4536 2.457z" fill="#3d3021"/><path d="m10.555 26.687s-1.2483 1.1556-1.3945 4.2001c-0.14624 3.0444-1.1147 14.543-1.4618 15.175-0.34709 0.63178-0.37699 3.3889-0.37699 3.3889l-0.16193 5.7907 2.6522 3.7215 3.8865-4.9834s-0.32704-1.6751-0.01192-3.6004 1.3946-4.4188 1.7868-5.6436c0.39222-1.2248 1.6237-11.104 1.6237-11.104l18.379 15.074s0.20745 2.6759 0.87154 4.232c0.66408 1.5561 2.3495 4.9068 2.872 7.0076 0.52249 2.1009 0.76177 2.7541 0.76177 2.7541l2.4851 0.42686 1.4937-1.1529s-1.1725-4.6384-1.8501-8.979c-0.67752-4.3405-2.2953-7.1025-2.492-8.3313-0.19665-1.2288 0.04647-4.1833-0.24425-7.0351-0.2012-1.9737 0.45817-6.5553-0.06245-8.5367s-1.1338-3.0362-3.1297-3.678c-1.9959-0.64176-6.3924 4.9835-6.3924 4.9835z" fill="#a48158"/><path d="m20.768 22.321s1.2244-1.4745 1.2535-2.1663c0.02911-0.6918-0.22796-1.6636-0.61285-2.499s-0.32551-1.4644-0.32551-1.4644l-0.18916 1.3824s-0.46061-1.2676-1.1643-2.1632c-0.70366-0.89561-0.93026-2.9929-0.6192-2.9124 0.31106 0.08049 0.42661 0.77244 0.42661 0.77244s0.2211-0.0632 0.2211 0.24918 0.19869 1.1682 0.19869 1.1682l0.31444-1.1275s0.23851 1.077 0.35535 1.4535 0.20034 0.70831 0.20034 0.70831 0.14728-1.8828 0.34498-3.0782c0.1977-1.1953 1.0617-2.5697 1.0617-2.5697s0.58498 0.1386 0.73941-0.3196c0.15443-0.45821 0.01949-0.89753 0.01949-0.89753s0.69369-0.24151 1.0935-0.58902 0.49411-0.47084 0.49411-0.47084 0.29943 0.35685-0.25528 0.83556-0.84775 1.5747-0.84775 1.5747 0.48779-0.97016 0.8849-1.286c0.39711-0.31582 0.73925-1.0946 0.73925-1.0946s0.96389 0.30668 2.3811 0.76486c1.4172 0.45818 3.1173 1.9755 3.337 3.1446 0.21964 1.1691 0.33067 3.4218 0.09992 4.14-0.23075 0.71818-0.50991 0.81055-0.64906 1.4752s-0.84452 1.8413-0.84452 1.8413-0.0643 3.424 0.12471 3.9467c0.18901 0.52268 1.4217 1.3092 1.4217 1.3092l-0.56945 6.7817-11.233-3.8421z" fill="#a48158"/><path d="m23.085 25.912c1.5687 2.4011 3.5688 2.7594 4.9284 2.6024 1.3595-0.15692 2.0857-2.6762 2.3432-3.9843 0.05604-0.28471 0.2467-1.2714 0.2467-1.2714s0.86696 0.65632 1.6684 0.83844c1.4544 0.33051 2.7844 0.68173 4.2467 1.425 0.25114 1.21 0.4204 3.3596 0.30876 4.4383s-0.33782 4.5856-0.33782 4.5856-0.24333 3.2369-0.5085 4.5709-0.46862 5.3188-0.47111 7.7619c-0.0024 2.4431 0.15455 5.087 0.784 7.3134s0.81197 2.56 0.81197 2.56l-2.8453 3.9905-15.454-0.91763-2.9819-4.2389s1.134-6.9936 1.134-8.3953-0.64942-3.5209-0.64942-3.5209-0.24364-2.5781-0.10128-3.8499c0.17928-1.6016 0.89787-3.9227 0.26001-5.8802-0.63786-1.9576-2.447-5.5897-3.9042-6.3821-1.4271-0.77598-2.1448-0.76264-2.1448-0.76264s0.23459-0.62476 2.7468-1.6875c2.5122-1.0628 5.9456-2.066 6.5522-2.4513 0.60655-0.38532 1.5639-1.0301 1.5639-1.0301s-0.03473-0.17563 0 0c0.13009 0.65792 0.56573 2.3905 1.8039 4.2857z" fill="#8c4417"/><path d="m20.511 25.982s-0.69992-0.72194-1.0767-1.5585-0.28834-2.1004-0.28834-2.1004l1.0784-0.36142s-0.39607 0.7588-0.25907 2.079 0.54578 1.9413 0.54578 1.9413z" fill="#3d3021"/><path d="m29.42 20.125s0.03212 0.56889-0.69378 1.9428c-0.34124 0.64587 0.11356 1.5831 1.0742 2.6813 0.96062 1.0982 0.96583 2.496 0.96583 2.496s0.17327-0.66948 0.08275-1.5781c-0.09053-0.90864-0.56702-1.4873-0.56702-1.4873s0.73573 0.63057 0.98224 1.342c0.24651 0.7114 0.33382 1.2433 0.33382 1.2433s0.18837-1.5922-0.27479-2.6626-1.2036-1.4502-0.89121-1.8639c0.31241-0.41366 1.5567-0.28878 1.5567-0.28878s-0.44504-0.52742 0.12217-0.9038 0.6838-1.395 0.6838-1.395z" fill="#3d3021"/></g><path d="m23.543 15.868s0.47498-0.2529 1.2614-0.23583c0.78644 0.01708 1.1126 0.39581 1.1126 0.39581" fill="none" stroke="#2c342a" stroke-linecap="round" stroke-width=".26458"/><path d="m28.925 16.061s0.44092-0.19923 1.0667-0.19923c0.62582 0 0.99674 0.3514 0.99674 0.3514" fill="none" stroke="#2c342a" stroke-linecap="round" stroke-width=".26458"/><g transform="matrix(.94451 0 0 .94451 2.4516 3.3011)" stroke-width="1.121"><path d="m23.401 13.087s-0.08909 0.51851 0.47048 0.56571 0.41599-0.52419 0.41599-0.52419z" fill="#2c342a"/><path d="m29.583 13.419s0.11728 0.41136-0.44921 0.4234c-0.56648 0.01204-0.46484-0.52926-0.46484-0.52926z" fill="#2c342a"/><path d="m22.128 12.237s0.37669-0.23276 1.5357 0.11452c1.159 0.34728 2.691 0.88312 1.4804 0.28918-1.2107-0.59394-1.9001-0.78561-2.5646-0.70369s-0.65613 0.27767-0.58276 0.31258c0.07338 0.03491 0.13132-0.0126 0.13132-0.0126z" fill="#3d3021"/><path d="m27.898 12.953s0.95871-0.35203 1.651-0.37741c0.69232-0.02538 1.6978-0.11806 0.53717-0.345-1.1607-0.22694-2.7758 0.76931-2.5522 0.79744 0.22355 0.0281 0.36403-0.07504 0.36403-0.07504z" fill="#3d3021"/></g><path d="m25.559 21.052s0.78904-0.17663 1.1837 4.75e-4c0.39459 0.1771 0.81696-0.0346 1.3225 0.07571 0.50549 0.11031 0.76511 0.03092 0.76511 0.03092" fill="none" stroke="#663625" stroke-linecap="round" stroke-width=".26458"/><g transform="matrix(.94451 0 0 .94451 2.4516 3.3011)" stroke-width="1.121"><path d="m26.667 27.678c2.2224 0.21089 3.1964-1.4343 3.1964-1.4343s0.15025-0.23326 0.09789 0.14936c-0.17137 1.2522-0.55953 4.1027-0.74796 5.599-0.19784 1.5711-0.24582 3.6748 0.21538 5.8075 0.46119 2.1327 0.97511 8.181 1.0304 12.254 0.05531 4.0725-0.5913 8.9733-0.5913 8.9733l-2.9842-0.09239s-0.07194-4.6139-0.41905-8.7945c-0.34712-4.1805 0.14787-8.1627-0.02374-12.168-0.17161-4.005-0.50326-4.8811-1.7088-7.1185-0.90135-1.6728-1.3848-3.6734-1.5617-4.5181-0.05404-0.25805 0.1702 0.03486 0.1702 0.03486s1.104 1.0968 3.3264 1.3077z" fill="#d3cdb6"/><path d="m14.828 59.718s-1.2152 5.2197-1.4965 7.4239c-0.28129 2.2042 25.839-0.22771 25.839-0.22771s-0.20744-1.681-0.53224-3.3479-0.4391-2.3344-0.4391-2.3344l-21.143-2.1904z" fill="#4e3e2a"/><path d="m15.824 55.587s5.1677 3.3932 12.52 3.2773c7.3518-0.11593 8.7621-2.1112 8.7621-2.1112l0.32357 1.3251-9.8156 3.5473-10.557-2.5836-1.429-2.6401z" fill="#4e3e2a"/><path d="m15.707 56.069s5.2378 3.4166 12.59 3.3006c7.3518-0.11593 8.9416-2.0922 8.9416-2.0922l0.961 3.9541s-2.433 1.6868-10.558 1.6537c-8.1246-0.03307-12.813-3.1676-12.813-3.1676z" fill="#2f2519"/><path d="m23.083 25.912s2.0005 1.695 3.9422 1.6523c1.9666-0.0433 3.0224-1.7879 3.0224-1.7879l-0.09057 0.6564s-1.138 1.551-2.9725 1.5468c-1.8346-0.0042-3.7871-1.5128-3.7871-1.5128l-0.06374-0.27731z" fill="#36332f"/></g><path d="m23.242 25.876c0.40475 0.70794 0.90265 1.5553 1.4278 2.394 0.6405 1.0231 1.3207 2.0331 1.9259 2.7671 0.30262 0.36704 0.58582 0.66639 0.84305 0.86519 0.25722 0.1988 0.50051 0.31519 0.72867 0.23982 0.37631-0.12432 0.70335-0.51292 1.0183-1.0128 0.31495-0.49985 0.6092-1.1184 0.86334-1.723 0.50829-1.2093 0.8426-2.3324 0.8426-2.3324l-0.16668-0.24364s-0.40449 1.2839-0.90652 2.4782c-0.25101 0.59719-0.54036 1.2057-0.84305 1.6861-0.30269 0.4804-0.62693 0.82344-0.88732 0.90946-0.09019 0.0298-0.26497-0.02235-0.49624-0.20108-0.23126-0.17873-0.50645-0.46557-0.80246-0.8246-0.59204-0.71806-1.27-1.723-1.9074-2.7412-0.91013-1.4538-1.7455-2.9348-2.146-3.6634 0 0 0.13794 0.46974 0.24527 0.76194 0.10733 0.29219 0.26086 0.64021 0.26086 0.64021z" color="#000000" fill="#b1973a"/><g transform="matrix(.94451 0 0 .94451 2.4516 3.3011)" stroke-width="1.121"><path d="m12.794 64.593s-0.26418 0.54382-0.21964 1.4538c0.04454 0.91 0.2712 0.96983 0.2712 0.96983l-5.3069-0.08039-0.15316-1.2776 2.5218-4.4076z" fill="#a48158"/><path d="m10.431 54.131c2.2023-0.40325 3.2676-0.15175 3.2676-0.15175l-0.90477 10.614s-1.469-0.26004-3.1821 0.09652c-1.713 0.35655-2.2264 0.96915-2.2264 0.96915s-0.248-2.2531-0.3491-5.9564c-0.07479-2.7395 0.12365-4.4617 0.12365-4.4617s1.0688-0.70682 3.2711-1.1101z" fill="#d8ccbd"/><path d="m20.812 58.008s-0.33226 0.85346-0.60344 2.1386c-0.27118 1.2851-0.53267 2.5574-0.53267 2.5574l1.2519 0.12982s-0.03771-1.2615 0.29717-2.5637 0.64033-2.0411 0.64033-2.0411" fill="#4e3e2a"/><path d="m32.596 58.9s0.20078 0.66554 0.31879 1.7067c0.11801 1.0411 0.2021 2.2843 0.2021 2.2843l1.1322-0.48488s-0.22554-1.1871-0.40343-2.3552-0.29409-1.4758-0.29409-1.4758" fill="#4e3e2a"/><path d="m39.982 62.698s0.85379-0.42929 2.1218-0.63365c1.268-0.20437 1.857-0.09237 1.857-0.09237s0.31695 0.65622 0.40348 1.3827c0.08653 0.72646-0.0471 1.5547-0.0471 1.5547s-0.7503-0.16715-1.9157-0.05867-1.7246 0.61149-1.7246 0.61149-0.28662-0.43837-0.5199-1.3896c-0.2127-0.86728-0.17487-1.3746-0.17487-1.3746z" fill="#6f3b3b"/><path d="m28.647 59.064c1.8154-0.03775 1.8648 0.20066 1.8648 0.20066s0.0862 0.94561 0.06305 2.1236c-0.02315 1.1779-0.0077 1.7331-2.168 1.8415-2.1058 0.10564-1.9948-0.8322-1.9257-2.1112 0.06917-1.279 0.30388-1.8187 0.30388-1.8187s0.03761-0.19787 1.862-0.2358z" fill="#6b685b"/></g><g opacity=".58623"><path d="m9.1666 56.193 6.013 0.74876" fill="none" stroke="#fefefe" stroke-width=".26458px"/><path d="m9.0774 57.511 6.2145-2.0638-0.091516 0.91872-6.1244 1.9999z" fill="#fefefe"/><path d="m9.0767 57.939 6.0288-0.11092" fill="none" stroke="#fff" stroke-width=".39688"/></g></svg>
