<?xml version="1.0" encoding="UTF-8"?>
<svg width="200" height="250" version="1.1" viewBox="0 0 52.917 66.146" xml:space="preserve" xmlns="http://www.w3.org/2000/svg"><g><path d="m36.634 45.67s1.4617 3.154 1.4838 4.5007c0.02202 1.3467 1.1149 4.2187 1.8735 6.1991 0.89122 2.3266 3.2489 12.099 3.2489 12.099l3.2155 0.09921s-0.68504-8.8405-1.1493-11.075c-0.46422-2.234-0.79418-4.9596-1.9255-8.2757s-1.4392-4.9173-1.4392-4.9173l-1.1534-1.1689-3.5584 1.2123z" fill="#9f502d"/><path d="m13.845 40.465s0.19687-2.2383 0.15883-5.2263c-0.03111-2.4438-0.53368-3.8483 1.3893-5.2618 1.3554-0.9963 3.7247-0.75252 3.7247-0.75252l-0.08942 5.582-0.10486 5.7207-2.7139 2.7355z" fill="#d2b168"/><path d="m14.426 40.622c-0.84859-0.2171-1.2109-0.3879-1.2109-0.3879s0.1273 1.0961 0.12484 1.9193c-0.0025 0.82315-0.54931 7.2467-1.4376 8.5146-0.88826 1.2679-2.0725 4.2023-3.6167 8.8215-1.5442 4.6191-2.5753 8.8855-2.5753 8.8855l3.6434-0.10652s0.071665-1.7644 2.1062-5.719c2.0346-3.9545 4.4446-7.0428 4.59-8.8425 0.14537-1.7998 1.4066-5.1688 1.5646-6.4436 0.158-1.2748 0.72313-5.8853 0.72313-5.8853s-3.063-0.53894-3.9116-0.75604z" fill="#9f502d"/><path d="m18.723 30.515s-1.789 2.5037-3.2541 3.6137l-1.454 1.1101-0.04751-1.138s-2.8826 1.5182-2.3985 2.6496 1.458 0.53323 2.4207 0.05995c0.9627-0.47329 4.1776-3.1448 4.1776-3.1448s-1.209 2.2686-2.1316 3.935c-0.92269 1.6664-1.0082 4.2634-1.0082 4.2634l1.6569 0.69023s-0.08261-1.7812 0.60138-3.1773c0.68399-1.3961 5.1419-1.6789 6.322-3.8819 1.18-2.203 1.8243-5.6492 1.8243-5.6492l-2.8053-4.0087-3.2822 0.8087z" fill="#fff"/><path d="m35.157 35.428s-2.1046 8.0426-0.85899 11.682c1.2456 3.6393 1.4492 6.9998 1.4492 6.9998l1.8907-0.39054s-0.01402-3.2148-1.5-6.7297c-1.2361-2.9237-0.45776-6.0107-0.45776-6.0107" fill="#fff"/><path d="m16.675 21.198c1.0447-2.2716 1.3002-3.4696 1.3002-3.4696s2.108-6.1541 2.6817-7.1602 1.7539-1.4559 1.7539-1.4559 2.0834-2.7032 3.6166-3.1379c1.5332-0.43476 3.7543-0.33505 5.8712 2.9211 2.1169 3.2561 1.8219 5.5302 3.8875 9.3551 0.63986 1.1848 1.5312 0.87105 1.5312 0.87105s-0.22289 0.51607-0.95076 0.39868c-0.72787-0.11739 0.0071 2.6423 0.27211 3.8884 0.26492 1.2461 1.2636 4.0869 1.2636 4.0869l-0.954-1.1968 0.76266 3.3428-15.084-0.73454s-0.78927-0.25777-0.95965 0.20774c-0.17038 0.46552-0.15238 1.6299-0.15238 1.6299s-1.0056-2.2645-1.3859-1.1598c-0.38029 1.1047-0.05897 4.8387-0.05897 4.8387l-1.1109-1.1107-0.19595 0.79055s-0.60031-1.2717-0.79296-2.1456c-0.19264-0.87398-0.23303-2.2661-0.23303-2.2661l-0.40568 0.26635s0.25066-3.1374-0.16061-3.1101c-0.41128 0.02725-0.61694 0.5257-0.61694 0.5257l0.27395-1.3751-0.88878 0.64586s1.1071-1.8235 0.67242-2.0199c-0.4347-0.19635-1.859 0.66623-1.859 0.66623s0.87755-1.8213 1.9222-4.0929z" fill="#92536d"/><path d="m23.998 28.535-2.0162 0.93236-0.16128 0.90738s-0.33499 1.9169-1.515 4.1199c-1.18 2.203-2.3352 3.4862-3.0192 4.8823-0.04791 0.0978-0.09182 0.19729-0.1325 0.29812l0.13413 0.58266 7.7766 4.7519 10.592-3.9407 0.51315 2.3849 3.4617 1.6443 1.9261-3.4267-0.04006-0.77326-0.13545-1.6532s-0.41336-2.4943-0.75306-5.56c-0.33971-3.0657-2.038-4.4353-3.7914-4.6835-0.33863-0.04794-0.70549-0.08284-1.077-0.10798-1.5524-0.10497-3.6062 0.16083-3.6062 0.16083z" fill="#d2b168"/><path d="m17.609 37.226s0.85039-1.2869 3.1046-1.4751c2.2542-0.1882 5.236 2.8873 5.236 2.8873s1.147-2.7659 4.7129-2.8754c3.566-0.10947 6.1591 1.8065 5.7969 3.5566-0.36216 1.75-2.1947 6.497-2.1799 10.127 0.01482 3.6303 1.2928 6.5362 2.9303 10.551 1.6375 4.0145 3.1051 9.7725 3.1051 9.7725l-28.566-0.10315s0.7547-4.0397 2.3842-8.4664c1.6295-4.4267 3.7156-7.039 4.127-11.013 0.41147-3.974-0.90629-8.5485-1.0391-10.221-0.13281-1.6721 0.38835-2.7408 0.38835-2.7408z" fill="#9f502d"/></g><path d="m32.347 51.03 1.4703 3.2814" fill="none" stroke="#8e8e8e" stroke-width=".52917"/><path d="m31.588 51.538 1.6073 3.2165" fill="none" stroke="#8e8e8e" stroke-width=".52917"/><g><path d="m27.34 53.707s4.1299-0.67078 5.2553-1.2914c1.1255-0.62058 1.8121-1.2175 1.8121-1.2175l0.11762 0.73001s-0.60266 0.75013-3.1884 1.508c-2.5857 0.75787-4.0925 1.0453-4.0925 1.0453" fill="#53340b"/><path d="m26.403 32.521c0.99276-0.0367 1.655-0.7242 3.0394-0.74451 1.3843-0.02032 3.4226 2.0069 3.4226 2.0069s0.1438-2.1202 0.64426-2.4241c0.50046-0.30385 1.2021-0.39419 1.2021-0.39419l-1.4923-0.40714s0.61434-0.65138 1.2229-0.98898c0.60852-0.33761 1.3612-0.69879 1.3612-0.69879s-0.89968-0.03435-1.8699-0.03776c-0.97018-0.0034-1.7651 0.02206-1.7651 0.02206s-7.3442 0.05123-9.5411 0.05297c-1.1598 9.23e-4 -1.0955 2.6122-1.0955 2.6122s0.14504-0.56723 1.3937-0.10675 2.485 1.1448 3.4778 1.1081z" fill="#fff"/><path d="m24.218 29.721s0.41245 1.236 0.07023 2.1616c-0.34222 0.92552 0.04434 1.9519 1.0727 2.0794 1.0283 0.12756 0.88084 1.418 0.88084 1.418s0.43911-1.3771 1.5444-1.5702c1.3555-0.23675 1.4409-1.0975 1.4287-1.7408-0.01821-0.96142 0.76498-2.1387 0.76498-2.1387z" fill="#908029"/><path d="m24.204 26.646s0.21923-0.45906 0.26985-1.5079c0.05062-1.0489-0.1541-1.4135-0.1541-1.4135s-1.2332-1.9128-1.2996-2.4587c-0.06892-0.5671-0.25302-1.4431-0.48613-2.107-0.23311-0.66393-0.25084-2.284-0.48575-3.0778-0.23491-0.79376-0.19957-1.5406 0.18805-2.6687 0.38762-1.1281 1.745-3.3369 2.5645-3.4877 0.81952-0.15074 1.8357 0.41343 1.4384 0.98377s-1.2504 1.6123-1.2504 1.6123 1.4936-1.6997 1.9302-1.6282c0.43656 0.07145 1.7765 1.5813 2.2156 2.1871 0.43917 0.6058 1.5586 1.1598 1.5586 1.1598s0.22621 1.1345 0.60383 2.2961c0.37762 1.1616-0.1235 2.1119-0.12013 3.2985 0.0034 1.1866-1.2133 3.2462-1.2133 3.2462s-0.2935 0.63685-0.24876 1.8491c0.04473 1.2122 0.44122 1.8381 0.44122 1.8381l-3.5175 2.7838z" fill="#d2b168"/></g><g fill="#9f8d2d"><path d="m22.324 28.886s0.20974-0.5382 0.79187-1.3519c0.60872-0.85084 0.99666-1.1554 0.99666-1.1554s0.94346 0.94754 2.9101 0.81784c1.9667-0.1297 3.1201-0.88367 3.1201-0.88367s0.6316 0.42872 1.255 1.2631c0.58721 0.78584 0.7703 1.2791 0.7703 1.2791s-1.7349 1.739-5.1128 1.5578c-3.3779-0.18124-4.7313-1.5268-4.7313-1.5268z"/><path d="m41.226 37.22s-0.78197-0.55743-1.5412 0.0064c-0.75919 0.56382-1.249 1.2381-2.4009 1.2578-1.152 0.01966-1.1407-1.2116-0.11739-1.3811 1.0233-0.16947 2.6269-1.7665 2.6269-1.7665s0.25823 0.34088 0.48348 0.43117c0.22525 0.09029 0.56914-0.0048 0.56914-0.0048s0.24419 0.27002 0.32877 0.6885c0.08458 0.41848 0.05127 0.76855 0.05127 0.76855z"/><path d="m41.448 39.245s0.09892 0.42567 0.12788 0.78299c0.02895 0.35733 0.0076 0.87018 0.0076 0.87018s-0.43116 0.37624-1.3657 0.1143c-0.93452-0.26193-1.4981 0.2299-2.5691 0.25062-1.071 0.02071-1.5926-0.32364-1.5926-0.32364s0.9343-0.19881 1.3378-0.55097c0.40348-0.35216 1.8204-0.60026 2.6962-0.57076 0.87576 0.0295 1.3579-0.57273 1.3579-0.57273z"/><path d="m40.101 41.683s-0.22913 0.54268-0.63683 0.99209c-0.4077 0.4494-0.59452 0.80459-0.59452 0.80459s1.1389-0.95485 1.6697-1.3077c0.53082-0.35288 1.0174-0.50016 1.0174-0.50016s0.27947 0.3168 0.37239 0.63617c0.09291 0.31937 0.01716 0.59262 0.01716 0.59262s0.09257 0.27326 0.14017 0.56286c0.0476 0.2896-0.14488 0.837-0.14488 0.837s-0.5242-0.40629-1.65 0.43101c-1.1258 0.83731-2.0904 1.0915-2.0904 1.0915l-1.7312-1.0735s-0.21478-0.26655-0.27345-0.55679c-0.05868-0.29024-0.02764-0.73838-0.02764-0.73838s0.61368-0.41488 1.9806-0.89397c1.367-0.47908 1.9515-0.87732 1.9515-0.87732z"/></g><path d="m22.923 15.663s0.36766-0.27854 1.0555-0.31266c0.68788-0.03412 1.0695 0.32612 1.0695 0.32612" fill="none" stroke="#273b45" stroke-linecap="round" stroke-width=".26458"/><path d="m27.978 15.655s0.48625-0.25542 1.2369-0.2555c0.75062-7.9e-5 0.91725 0.28304 0.91725 0.28304" fill="none" stroke="#273b45" stroke-linecap="round" stroke-width=".26458"/><path d="m23.611 15.395s-0.20575 0.50422 0.12534 0.80745c0.3311 0.30322 0.70595 0.07249 0.74059-0.25071 0.03465-0.3232-0.07618-0.57918-0.07618-0.57918z" fill="#273b45"/><path d="m28.711 15.396s-0.17738 0.47925 0.10806 0.76746c0.28543 0.2882 0.60859 0.0689 0.63846-0.2383 0.02985-0.3072-0.06568-0.55049-0.06568-0.55049z" fill="#273b45"/><path d="m24.876 21.095s0.65442-0.07024 1.1788 0.03567c0.5244 0.10591 1.0809-0.08965 1.3406-0.02382 0.25965 0.06583 0.58768 0.12947 0.58768 0.12947" fill="none" stroke="#865f3d" stroke-linecap="round" stroke-width=".26458px"/><g><path d="m37.145 44.797c0.28034-0.01632 0.62014-0.21006 0.62014-0.21006l0.34816 0.71966s-0.48007 0.26274-0.81447 0.29905c-0.3344 0.03632-0.66496 0.06467-0.66496 0.06467s-0.11135-0.09867-0.18275-0.42959c-0.0714-0.33091 0.01894-0.4911 0.01894-0.4911s0.39461 0.06367 0.67495 0.04737z" fill="#1b5a1a"/><path d="m37.579 44.436s-0.53962 0.23662-0.34314 0.98743c0.19648 0.7508 0.64359 0.62483 1.1509 0.47752 0.50726-0.14731 1.2373-0.63655 1.2373-0.63655l-0.96069-0.07589 0.82454-0.45532-1.0864-0.08286 0.62377-0.49197s-0.95087 0.16388-1.145 0.20319c-0.19412 0.03931-0.30127 0.07444-0.30127 0.07444z" fill="#247622"/><path d="m17.153 39.675s0.50668-1.1568 1.3268-2.2812c0.75141-1.0302 0.9427-1.3826 0.9427-1.3826l-1.9834-0.15671-1.1059 3.4671z" fill="#fff"/><path d="m28.572 21.068s0.96967-0.8299 1.0249-1.1896c0.05527-0.35974 0.12444-0.9245 0.12444-0.9245s0.23765 0.10611 0.35416-0.09761c0.11652-0.20372 0.45683-0.29754 0.61134-0.19878 0.15451 0.09877 0.08128 0.65478 0.08128 0.65478s-0.03306-0.64383-0.37418-0.34952c-0.34113 0.29432-0.14296 0.87806-0.47983 1.2122s-1.3422 0.89303-1.3422 0.89303z" fill="#bc995d"/><path d="m17.7 52.852s1.9104 0.48866 7.0515 0.61628c5.1411 0.12762 9.9242-0.74722 9.9242-0.74722s0.2119 0.476 0.38759 1.1534c0.26338 1.0155 0.34601 1.4667 0.34601 1.4667s-4.9942 0.84859-10.032 0.76229c-5.0378-0.0863-8.5945-0.90711-8.5945-0.90711s0.06946-0.30304 0.455-1.3104c0.32256-0.84281 0.46242-1.034 0.46242-1.034z" fill="#fff"/><ellipse transform="rotate(6.1264)" cx="29.927" cy="29.086" rx=".90276" ry="1.0703" fill="#53340b"/></g></svg>
