<?xml version="1.0" encoding="UTF-8"?>
<svg width="200" height="250" version="1.1" viewBox="0 0 52.917 66.146" xml:space="preserve" xmlns="http://www.w3.org/2000/svg"><g><path d="m27.767 8.5122c-1.6715-0.019602-1.5508 0.34055-1.5508 0.34055s-0.53317 0.00741-1.3849-0.03359c-0.85176-0.040994-1.1689 0.30822-1.6821 1.5456-0.51318 1.2374-0.85887 1.1369-0.85887 1.1369s-0.05215 1.7526-0.35295 2.8138c-0.3008 1.0612-0.96842 1.9771-0.96842 1.9771s0.61668 0.5785 0.42892 1.6991c-0.18777 1.1206-0.55346 1.4842-0.55346 1.4842l0.59015 0.98857-0.32246 0.21704s0.23872 0.43135 0.31936 0.87282c0.08064 0.44147-0.30386 1.5477-0.30386 1.5477s0.09526 0.05677 0.43098 0.54674c0.33572 0.48997 0.39564 2.3459 0.78859 3.6406 0.39294 1.2947 0.94878 0.55811 0.94878 0.55811s0.14127 0.79804-0.38241 1.2408c-0.52368 0.44272-2.13 1.6084-1.7834 3.5621 0.3466 1.9537 1.5431 2.8128 1.5431 2.8128l7.859 1.2289s0.20039-0.34879 0.30489-0.52969l4.6922 0.49041s-0.55676-1.0993-0.18242-1.7472c0.37434-0.6479 1.1694-1.8503 0.09457-3.1161-1.0748-1.2658-0.84078-2.8836-0.84078-2.8836 0.07934-0.93635 0.49093-1.1565 0.49093-1.1565s-0.26145-1.8404 0.54537-3.1301c0.59959-0.95847 0.48599-2.0674 0.48599-2.0674l-0.42416 0.24126s0.29511-0.46292 0.39998-1.2506c0.10486-0.78766 0.4483-3.0527-0.09043-5.3072-0.53873-2.2545-1.7994-2.7342-1.7994-2.7342s-0.70271-2.573-1.5978-3.591c-0.89513-1.018-2.4386-1.3102-4.4855-1.3886-0.12793-0.0049-0.2472-0.00799-0.35864-0.0093z"/><path d="m9.218 66.461s0.46222-1.9728 1.2091-3.9657c0.74693-1.9929 1.5882-2.703 1.5882-2.703s0.48443-7.0067 0.40193-11.73c-0.0825-4.7234-0.33596-8.5595 1.7056-10.538s3.668-2.1416 5.8639-2.0421c2.1959 0.09948 14.302 0.17684 14.302 0.17684s2.7122-0.5854 5.3777 0.973 2.8066 5.5785 2.8015 8.8946c-0.0051 3.3162-0.19784 7.5359 0.49311 10.396 0.69096 2.8606 2.9416 10.975 2.9416 10.975h-6.5594s0.23169-2.0377-0.49819-3.8872c-0.72988-1.8495-1.3834-7.3051-1.6432-8.7885-0.25981-1.4834-0.42351-3.482-0.42351-3.482l-19.027 3.7164s0.01836 4.7236-0.21682 6.0437c-0.23519 1.3201-0.82746 3.2314-1.4193 4.0363-0.59179 0.8049-0.59256 2.2966-0.59256 2.2966z" fill="#c4b48d"/><path d="m25.475 33.252s-2.3181 1.3063-3.9031 1.7679l-1.5849 0.46147s-0.58152 1.745-0.93276 5.1873c-0.35124 3.4423-0.32143 5.6607-0.32143 5.6607l1.6872 6.6322 16.136-4.838s-0.71962-1.8508-0.85525-5.6415c-0.13562-3.7908 0.04537-6.9534 0.04537-6.9534s-1.0691 0.1233-3.2938-0.48287c-2.2247-0.60618-2.3864-1.4511-2.3864-1.4511l-1.6283-2.2402z" fill="#554315"/><path d="m19.075 47.084s0.88011-1.9356 1.1884-4.2936c0.30832-2.358 0.41388-3.4796 0.41388-3.4796s0.82574-0.50296 1.695-1.2886c0.86925-0.78565 1.693-1.8013 1.693-1.8013s0.94434 0.68112 1.834 0.8197c0.88965 0.13858 1.3501 0.21568 1.3501 0.21568l-0.10359 3.0985s1.2335-0.4744 1.9477-1.1304c0.71417-0.65599 1.6757-2.1013 1.6757-2.1013s0.57584 0.43027 1.3458 0.75866c0.62296 0.2657 1.226 0.40326 1.226 0.40326s0.187 2.7209 0.88526 4.3547c0.74971 1.7541 1.9574 6.5994 1.9574 6.5994l-14.435 1.1775z" fill="#6c5928"/><path d="m28.845 17.272c-0.17253 3.84e-4 -0.35528 0.0064-0.54881 0.01912-2.0643 0.1361-3.1241 1.3652-3.7941 2.0655-0.66997 0.70029-0.86523 1.4174-0.83561 2.3508 0.02962 0.93333 0.14883 1.4857 0.14883 1.4857s-1.3668-0.6558-1.233 0.89762c0.13376 1.5534 0.48094 1.8882 1.0449 2.7528 0.56396 0.86462 1.0227 0.78238 1.0227 0.78238s0.11744 0.67282 0.42892 1.6288c0.31148 0.95603 0.85576 1.6004 0.85576 1.6004s0.01727 0.33248-0.09922 1.0465c-0.11649 0.71397-0.35708 1.2888-0.35708 1.2888s0.54122 1.2224 2.3229 1.1715c1.7817-0.0509 2.2645-0.76688 2.2645-0.76688l0.04341-0.63149s0.36728 0.34088 2.0144-1.9337c1.6471-2.2746 1.673-2.8405 1.8185-3.623 0.14552-0.78254 0.6343-1.6956 0.72192-2.7166 0.08762-1.0211 0.65964-5.0382-0.80874-6.1382-1.4684-1.1-2.6422-0.76326-2.6422-0.76326s-0.70008-0.52047-2.3678-0.51677z" fill="#c4b48d"/><circle cx="33.101" cy="24.07" r=".54748" fill="#131212"/><circle cx="27.908" cy="23.749" r=".54748" fill="#131212"/><path d="m19.075 47.084s1.577-0.27091 3.9947-1.3031c2.4177-1.0322 3.7308-2.1784 3.7308-2.1784s1.6549 1.4092 3.5713 2.0584c1.9164 0.64924 4.0284 1.8743 4.0284 1.8743l1.2736-0.80867s-0.59272-0.81311-2.8323-1.8731c-2.2396-1.06-3.9996-2.2172-3.9996-2.2172s1.1811-0.58836 2.3354-1.7563c1.1543-1.168 1.7483-2.4091 1.7483-2.4091l-1.9219-0.74258s-0.68968 1.5703-1.9155 2.3507c-1.2258 0.78043-2.2306 1.2466-2.2306 1.2466s-0.39257-0.12719-1.7878-1.3218c-1.3952-1.1946-1.99-1.8448-1.99-1.8448l-1.6968 1.1642s0.86716 1.0257 1.7649 1.8601c0.89774 0.83445 1.6503 1.2355 1.6503 1.2355s-1.9796 1.4012-3.7458 2.3473c-1.7661 0.94611-3.1376 1.4876-3.1376 1.4876z" fill="#251e09"/><path d="m17.637 64.804s1.0992-2.2397 1.3056-4.1924c0.20636-1.9527-1.1899-6.1547-1.1899-6.1547s-0.87984-1.1677-0.99376-3.9414c-0.11392-2.7736 0.40552-3.8556 0.93194-4.2003 0.52642-0.3447 2.1853-0.16926 3.616 0.48978 1.4307 0.65904 3.4989 1.2298 5.3217 1.1901 1.8228-0.03969 4.8662-2.0409 7.0531-1.8704 2.1868 0.1705 3.3525 0.80831 3.5559 3.799 0.20344 2.9907-1.9713 5.4453-1.9713 5.4453l-1.3441 4.7609 2.0705 4.8278 0.06869 3.5049-19.087 0.25622z" fill="#3b2f0e"/><path d="m35.266 55.369s-1.3315 3.2164-3.0335 6.3182c-1.702 3.1019-2.4498 5.6715-2.4498 5.6715l6.2785 1.1039-0.06869-3.5049s-1.0199-2.2888-1.0634-4.7361c-0.04343-2.4472 0.33689-4.8526 0.33689-4.8526z" fill="#251e09"/></g><g fill="none" stroke="#000" stroke-linecap="round" stroke-width=".52917"><path d="m31.677 63.889 0.65377 3.1642"/><path d="m33.86 60.007s0.29444 2.6692 0.42451 3.6738c0.13007 1.0046 0.66761 3.0519 0.66761 3.0519"/><path d="m33.032 61.592s0.27028 1.7803 0.4181 2.6831c0.14782 0.90289 0.64928 2.8953 0.64928 2.8953"/><path d="m32.29 62.58 0.849 4.5806"/><path d="m31.085 65.352 0.36106 1.9074"/></g><g><path d="m17.637 64.804s1.4354 1.1372 3.8789 2.1065c2.4435 0.96929 8.434 1.1066 10.457 0.2556 2.0229-0.85103 4.0199-2.2083 4.0199-2.2083s1.0276 0.46844 1.5514 1.9114c0.52384 1.4429-21.023 0.93745-21.023 0.93745s-0.0064-0.75365 0.24619-1.6444c0.2526-0.89076 0.86967-1.3582 0.86967-1.3582z" fill="#947729"/><path d="m28.925 22.853s-0.73659-0.48832-1.9444-0.5827c-1.2078-0.09438-2.05 0.38572-2.1505-0.15064-0.10047-0.53636 0.71284-0.67526 2.0953-0.2838 1.3824 0.39146 2.4904 1.0812 2.3315 1.1168-0.15894 0.03553-0.3319-0.09961-0.3319-0.09961z"/><path d="m31.708 23.151s0.42008-0.30322 1.1593-0.31556c0.73918-0.01233 1.1567 0.05691 1.2837-0.29206s-1.1743-0.41469-1.6949-0.18427c-0.52054 0.23042-1.2534 1.0575-1.0805 1.0239s0.33247-0.23197 0.33247-0.23197z"/></g><g fill="none" stroke="#000" stroke-linecap="round"><path d="m28.054 29.402s0.82168-0.05063 1.6615-0.0094c0.83978 0.04122 1.9219 0.06751 1.9219 0.06751" stroke-width=".26458"/><path d="m26.187 23.671s0.54661-0.48939 1.437-0.40739c0.89038 0.082 1.2438 0.38252 1.2438 0.38252" stroke-width=".26458px"/><path d="m31.802 23.964s0.46606-0.48939 1.2252-0.40739c0.75917 0.082 1.0605 0.38252 1.0605 0.38252" stroke-width=".24431px"/></g><g fill="#251e09"><circle cx="31.81" cy="36.908" r=".29585"/><circle cx="32.048" cy="35.934" r=".29585"/><circle cx="33.128" cy="36.044" r=".29585"/><circle cx="32.823" cy="37.316" r=".29585"/><circle transform="scale(-1,1)" cx="-21.998" cy="37.503" r=".29585"/><circle transform="scale(-1,1)" cx="-21.709" cy="36.52" r=".29585"/><circle transform="scale(-1,1)" cx="-21.547" cy="35.52" r=".29585"/><circle transform="scale(-1,1)" cx="-20.595" cy="36.977" r=".29585"/><circle transform="scale(-1,1)" cx="-20.385" cy="35.854" r=".29585"/><circle transform="scale(-1,1)" cx="-21.042" cy="38.042" r=".29585"/></g><g fill="none"><g stroke="#6c5928"><path d="m24.752 33.662s1.0065 1.7032 2.8278 1.723c2.2453 0.02439 3.1362-1.0829 3.1362-1.0829" stroke-width=".79375"/><path d="m24.399 36.864 1.3351-1.9948" stroke-width=".52917"/><path d="m26.546 37.407 0.42998-2.1242" stroke-width=".52917"/></g><g stroke="#251e09" stroke-linecap="round"><path d="m19.69 60.13s1.759 0.64617 4.412 0.99224c2.653 0.34607 6.5697 0.46723 6.5697 0.46723" stroke-width=".26458"/><g stroke-width=".26458"><path d="m19.631 62.041s2.1473 1.0977 4.6763 1.454c2.7285 0.38452 6.0695 0.35152 6.0695 0.35152"/><path d="m19.138 64.032s2.0163 0.94227 4.6071 1.3167c2.6782 0.38712 5.5855 0.25851 5.5855 0.25851"/><path d="m19.755 58.039s2.2384 0.75108 6.2843 1.0504c4.0458 0.2993 6.2862 0.10801 6.2862 0.10801"/></g><path d="m19.239 56.187s3.732 1.0207 7.527 1.2242c3.795 0.20342 6.8114-0.36313 6.8114-0.36313" stroke-width=".26458"/><path d="m17.955 54.498s1.4951 0.52417 3.6687 0.58698 4.6365-0.16081 4.6365-0.16081 2.9861 0.48654 5.1295 0.53258c2.1434 0.04604 3.6634-0.16793 3.6634-0.16793" stroke-width=".26458"/></g></g></svg>
