<?xml version="1.0" encoding="UTF-8"?>
<svg width="200" height="250" version="1.1" viewBox="0 0 52.917 66.146" xml:space="preserve" xmlns="http://www.w3.org/2000/svg"><g><path d="m3.7425 64.634s-0.31698 0.88209-0.7982 1.3917c-0.48123 0.50959-0.57626 1.4731-0.57626 1.4731l5.2867-0.33554s-0.56987-1.0445-0.17605-1.8757c0.39382-0.83124 0.85461-1.7704 0.85461-1.7704l-4.8137 0.2659z" fill="#cd9d64"/><path d="m34.456 25.06s-1.4647-0.35736-3.6925-0.17201c-1.0411 0.08662-9.1724 1.1185-9.1724 1.1185l0.29416 6.0233 3.0125 3.0005 2.6833-0.15475 5.5805-5.6506z" fill="#fff"/><path d="m11.766 40.562s-0.78253 5.2381-1.1847 6.4114-0.86505 2.3585-0.86505 2.3585l3.4046 2.2582 2.0063-1.1294s0.30992-2.0279 0.89893-3.867c0.58901-1.8391 1.2176-3.8585 1.2176-3.8585z" fill="#cd9d64"/><path d="m20.647 26.719s-3.6432 0.01876-5.3578 1.1703c-1.7146 1.1515-1.7778 2.9002-1.9462 4.5083-0.1684 1.6081-0.73891 4.3057-0.73891 4.3057s-1.8942 1.5428-1.6801 2.3288c0.21409 0.78598 0.55124 2.5598 2.8812 3.9291 2.3299 1.3693 3.5857 0.96804 3.5857 0.96804s0.85844 3.1288 0.88016 4.3357c0.01911 1.0618-1.2581 2.6753-1.4395 3.9211-0.25536 1.7534-0.36096 3.1274-0.36096 3.1274s-2.2877 1.0486-3.1191 4.9976c-1.0611 5.0401-1.2407 6.8558-1.2407 6.8558h29.426l-1.7377-2.97 0.22504-1.2371 0.50887-0.62316s-2.499-6.5918-3.6618-8.3909c-0.82281-1.2732-2.4355-4.549-2.4355-4.549s0.51386-1.4086 1.4535-4.1445c0.93966-2.7359 1.1197-5.1634 1.1197-5.1634l0.68043 1.9657 1.3451 0.0014 2.9781 1.465 3.091-4.0229-0.90499-2.2693s-0.67312-1.7761-1.1626-4.3987c-0.53588-2.8713-1.0093-5.0045-2.5858-6.0345-1.5765-1.03-3.8917-1.2516-3.8917-1.2516l-2.7489 1.5981-5.0422 7.6849-4.7696 0.97764z" fill="#4c628a"/><path d="m38.145 42.004s1.391 3.3933 2.0734 5.1732c0.6824 1.7799 0.60719 6.2454 1.4596 7.3407 0.85241 1.0952 1.6619 2.7564 2.2978 4.0919 0.6359 1.3355 0.99748 3.0274 0.99748 3.0274l3.3256-1.6482s-0.32702-4.5227-1.0104-7.8136c-0.68333-3.2909-0.88392-5.5883-1.5816-7.1035-0.69764-1.5152-1.1543-4.891-1.1543-4.891s-1.3971 0.09965-3.2638 0.7312c-1.8667 0.63155-3.1439 1.092-3.1439 1.092z" fill="#cd9d64"/><path d="m34.634 25.022c-0.078182 7.25e-4 -0.13937 0.012689-0.17725 0.038241-0.30301 0.20441-2.2106 3.4002-2.3611 4.1398s-1.3257 2.3807-2.2397 2.6195c-0.91401 0.23875-2.6342 1.417-3.1151 1.9999-0.4809 0.58293-0.7121 0.91674-0.7121 0.91674s-0.76629-1.2541-1.4418-1.7115c-0.67549-0.45748-1.2586-0.4504-1.7735-1.803-0.51498-1.3526-1.0656-5.2586-1.0656-5.2586s-0.40994 0.14155-0.69143 0.36639c-0.28149 0.22484-0.40928 0.39016-0.40928 0.39016s-0.11801 1.8643-0.2005 4.0091c-0.08249 2.1448 0.39119 3.3238 0.39119 3.3238l1.5694 1.3963s0.18772 0.72846 0.92656 1.0444c0.73884 0.31593 1.3852 0.26468 1.1105 2.0526-0.27464 1.7879-0.6263 3.1378-0.68937 5.4591-0.06306 2.3213-0.82414 4.6853 0.41755 4.7522 1.2417 0.06693 3.1035 0.33452 3.1104-1.0692 0.0069-1.4037-0.61526-7.9433-0.48628-8.629 0.12898-0.68569 0.056679-1.31 0.83148-2.2826l0.77515-0.97256s2.211-2.7218 3.8711-4.8054c1.6601-2.0837 2.617-3.6778 3.022-4.1667 0.40508-0.48884 1.2619-1.2873 1.2619-1.2873s-1.3772-0.52752-1.9244-0.52245z" fill="#ece6bb"/><path d="m19.018 29.519s2.1322-2.3652 2.5736-3.5121c0.44144-1.1469 1.4021-2.0643 1.4021-2.0643l0.01599-1.1086-0.8532 0.58621s0.50689-1.2329 0.06276-1.3908c-0.44413-0.15789-1.0285 0.45973-1.0285 0.45973s1.0754-2.2161 0.4486-2.2936c-0.6268-0.07749-0.81022 0.53768-0.81022 0.53768s-0.0412-3.0633-0.27791-3.0868c-0.23671-0.02359-0.28574 0.20894-0.28574 0.20894s0.0434-2.3693-0.20504-2.5097c-0.24844-0.14044-0.51683 0.02807-0.51683 0.02807s0.24426-2.0895 0.04785-2.243c-0.19641-0.15352-0.34881-0.02323-0.34881-0.02323l0.0091-1.1858-0.28672 0.07252s-0.38258-1.0309-9.26e-4 -1.6622c0.38165-0.63131 0.59853-0.81986 0.59853-0.81986l-0.56366 0.24653s0.07329-0.9171 0.53454-1.4128c0.46125-0.49566 0.71139-0.60833 0.71139-0.60833l2.6963-0.64683 8.5074 4.1561-5.6303 18.629-3.4762-0.30168s0.06631-0.51112-0.3391-0.51489c-0.40541-0.0038-0.75333 0.67846-0.75333 0.67846s0.07062-0.39371-0.40886-0.49962c-0.47948-0.10591-0.72145 0.47606-0.72145 0.47606s0.05783-0.52788-0.2448-0.56459c-0.30263-0.03671-0.85639 0.369-0.85639 0.369z" fill="#83452e"/><path d="m31.136 14.375s0.03317 3.2228 0.19428 4.922c0.16111 1.6992 0.28632 4.5362 0.28632 4.5362s0.23394-3.5339 0.70954-2.7931c0.4756 0.74079 0.484 2.3735 0.484 2.3735s-7e-3 -2.1985 0.34772-1.9654c0.35481 0.23307 0.38264 0.8455 0.38264 0.8455s0.36378-1.4934 0.94313-1.4934c0.57936 0 1.3017 0.76086 1.3017 0.76086s-0.10424-0.75071-0.365-2.1528c-0.26076-1.4021-0.20862-3.6807-0.20862-3.6807l-4.0082-2.0805z" fill="#83452e"/><path d="m22.221 13.302s0.54574-0.84695 0.81656-1.0893c0.27082-0.24232 0.57486-0.54632 0.57486-0.54632l-0.81146-0.08996s0.66115-1.1577 1.7615-1.2356c1.1003-0.07797 1.4806 0.72696 2.4728 0.96875s4.0422 1.3072 4.0422 1.3072l0.9981 1.0304s-0.20039 3.6369-0.3182 4.8304c-0.11781 1.1936-0.70709 1.1432-0.74983 3.1159-0.06057 2.7955 0.43452 3.2663 0.43452 3.2663l-1.7531 1.99s1.2304-0.1582 1.1711 0.87677c-0.05927 1.035-1.1648 1.3584-1.1648 1.3584l0.97025 0.94673-4.7585 3.2003s-2.5986-2.1155-3.0817-2.8866l-0.48311-0.77108s0.12098-0.51556 0.8682-1.279c0.74722-0.76342 0.92838-1.0662 0.92838-1.0662s0.33225-0.68967 0.36062-2.8324c0.02837-2.1428-0.09924-3.7987-0.09924-3.7987s-1.0707-0.98797-1.5592-3.3357c-0.48852-2.3477-0.34826-2.8349-0.6048-3.1944-0.25655-0.35955-0.01526-0.76584-0.01526-0.76584z" fill="#cd9d64"/><path d="m25.496 9.546s-0.81442-0.5696-1.7684-0.60033c-0.954-0.030725-1.7592 0.48107-1.7592 0.48107s-0.26848-0.63089-0.69307-1.1443c-0.42459-0.51339-1.0301-0.54543-1.0301-0.54543s0.47863-1.1658 1.214-2.1614c0.73536-0.99557 1.8557-1.0034 1.8557-1.0034s0.90324-0.89851 1.7641-1.3104c0.86089-0.41194 1.7851 0.33179 1.7851 0.33179s1.8363-0.5356 3.3019 0.52785c1.4656 1.0634 1.5922 2.0474 1.5922 2.0474s1.1312 0.43162 2.2149 3.0552c1.0837 2.6235 0.92512 4.8852 0.92512 4.8852z" fill="#e3e3e3"/><path d="m26.097 10.197s1.4224 0.05266 2.7381 1.0841c1.3156 1.0314 3.4717 3.9257 4.7442 4.9934 1.2724 1.0676 2.9191 2.5547 3.3318 2.6459 0.41274 0.09117 1.9653-0.11715 0.76803-1.0921-1.1972-0.97494-1.8606-2.7192-2.0064-3.2924-0.14585-0.57326-1.9509-1.7148-2.9584-2.5031-1.0074-0.78831-3.7739-3.6658-4.9944-4.1547-1.2206-0.4889-1.7589 0.33985-1.7589 0.33985z" fill="#b7b7b7"/><path d="m26.097 10.197s-0.80593-0.44424-0.87601-1.6061c-0.07009-1.1619-0.13189-2.1211 0.77565-2.0604 0.90754 0.060624 0.7613 0.86938 0.77289 1.8328 0.01159 0.96341-0.67252 1.8338-0.67252 1.8338z" fill="#868686"/><path d="m23.152 18.384s0.61763 1.4844 1.0489 1.7098 1.0966 1.3596 1.5777 1.6631c0.48114 0.30354 0.92329 0.19952 0.92329 0.19952s-0.01235-0.6311 0.148-0.69707c0.16033-0.06597 0.73127-0.15869 0.87174-0.0063 0.14047 0.15241 0.14622 0.64525 0.14622 0.64525s0.678 0.40164 2.0516-1.1356c1.3736-1.5373 2.0358-3.1871 2.0358-3.1871s-0.18095 1.1972-0.48782 2.2164c-0.36248 1.2039-1.0804 2.5652-2.4876 2.7762-2.5985 0.3895-3.2683 0.20472-4.6021-1.4749-1.3338-1.6796-1.2259-2.7093-1.2259-2.7093z" fill="#83452e"/><path d="m7.49 51.528c-0.88642 3.7577-2.1479 7.8776-3.2303 10.11-1.0824 2.2322-1.3205 3.192-1.3205 3.192s0.52197 0.29474 0.80323-0.1967c0.28126-0.49144 1.0635-0.73868 2.3149-0.44553 1.2514 0.29315 1.6075 0.85212 1.4213 1.099-0.18625 0.24689 0.59547 0.61504 0.90528-0.42219 0.30981-1.0372 1.1731-3.3456 3.0175-5.2221 1.8444-1.8765 3.7447-5.3252 3.9149-6.7588 0.17017-1.4336-0.02713-3.296-0.02713-3.296s-0.73578 0.94589-2.7822 0.62491c-2.0464-0.32097-2.4359-1.7151-2.4359-1.7151s-1.6947-0.72701-2.5812 3.0307z" fill="#8d8d8d"/><path d="m44.782 60.954s0.48256-0.18332 1.5828-0.58897c1.1003-0.40565 1.934-0.37607 1.934-0.37607s0.20432 0.43837 0.15184 0.57586c-0.05248 0.1375-0.25828 0.23275-0.25828 0.23275s0.71155 0.56739 0.98918 1.079c0.27763 0.51158 0.26486 1.8891 0.41869 2.6876 0.15383 0.79843 0.31063 2.6041 0.31063 2.6041l-4.8259-0.45845s0.47156-0.90778 0.43917-1.4742c-0.03239-0.56645-0.11006-1.1463-0.31187-1.1801-0.2018-0.03384-0.24291-0.63354-0.20029-1.007 0.04262-0.37343-0.60034-0.54704-0.55717-0.97311 0.04317-0.42607 0.32716-1.1213 0.32716-1.1213z"/></g><path d="m22.846 15.444s0.24144-0.4562 1.0822-0.49937c0.84079-0.04317 1.2816 0.25816 1.2816 0.25816" fill="none" stroke="#582e2e" stroke-linecap="round" stroke-width=".26458"/><path d="m30.374 14.314s-0.34058-0.38784-1.1685-0.23502-1.1869 0.54809-1.1869 0.54809" fill="none" stroke="#582e2e" stroke-linecap="round" stroke-width=".26458"/><circle cx="24.03" cy="15.326" r=".50868" fill="#582e2e"/><circle cx="29.261" cy="14.466" r=".50868" fill="#582e2e"/><path d="m25.894 20.162s0.7995-0.12183 1.4399-0.16088c0.64044-0.03906 1.2533-0.14668 1.2533-0.14668" fill="none" stroke="#582e2e" stroke-linecap="round" stroke-width=".26458px"/><path d="m31.55 55.664s0.87743 4.1607 1.4931 6.4815c0.61567 2.3208 0.96571 4.5068 0.96571 4.5068l4.0412-0.24679s-0.88384-3.9014-2.1477-6.5989c-1.2638-2.6976-2.7114-5.1401-2.7114-5.1401l-14.793 0.1811s-2.027 7.7406-2.5419 11.192c-0.51483 3.4512 1.301 2.505 1.301 2.505s0.18719-3.1287 0.78615-6.7173c0.59896-3.5886 1.7139-5.9409 1.7139-5.9409l2.1038 0.14268s0.26384 4.0101 0.41756 6.5571c0.15373 2.547 0.32859 5.2746 0.32859 5.2746l1.5603-0.17018s-0.37842-4.5983-0.59292-6.7902c-0.2145-2.1919-0.10395-4.8817-0.10395-4.8817l3.4142 0.22394s0.31921 2.5349 0.09466 5.7426c-0.22454 3.2077-0.68578 4.7669-0.68578 4.7669l3.5287 0.03358s-0.39946-1.8608-0.60526-4.594-0.44658-6.11-0.44658-6.11z" fill="#3e5070"/><path d="m16.738 53.01s1.4308 0.6194 5.2798 0.71322c3.849 0.09382 8.5202-0.44179 8.5202-0.44179s0.35995-3.4076 0.65762-3.8349c0.29767-0.42734 0.97132-0.40848 2.5107-0.37956 1.5393 0.02891 1.9458 0.41126 1.9458 0.41126s0.12173 1.0602 0.3065 1.8843c0.18477 0.82407 0.2148 1.4669 0.2148 1.4669s0.73776-0.09443 1.03 1.1172c0.20825 0.8634 1.0243 1.8663-0.08026 1.9094-1.1045 0.04303-7.3374 0.68827-12.729 0.72602-5.3921 0.03775-7.923-1.2676-7.923-1.2676s-0.01451-0.49282-8.74e-4 -1.1575c0.01362-0.66466 0.26823-1.1469 0.26823-1.1469z" fill="#895a20"/><path d="m25.251 43.028c-1.3331-0.07648-2.2866-0.32824-2.2866-0.32824s1.3445 0.97281 2.1662 1.3951 2.7581 1.093 2.7581 1.093-1.7397 1.0833-2.5998 1.4951c-0.86018 0.41184-2.5376 0.98762-2.5376 0.98762s0.93315 0.37641 2.2647 0.40553 2.8395-0.25108 2.8395-0.25108-2.0408-0.72225-2.8617-1.1884c-0.82088-0.4662-2.0588-1.5308-2.0588-1.5308s1.7334-0.67132 2.4781-1.0521c0.74473-0.38078 1.9908-1.2036 1.9908-1.2036s-0.81983 0.25446-2.1529 0.17798z" fill="none" stroke="#895a20" stroke-linecap="round" stroke-linejoin="round" stroke-width=".52917"/><circle cx="35.535" cy="53.002" r=".33132" fill="#c3c3c3"/><circle cx="35.008" cy="54.229" r=".33132" fill="#c3c3c3"/><path d="m20.993 35.044s0.04157 1.1773-0.21341 1.6643c-0.25498 0.48699-0.33482 1.2391-0.33482 1.2391" fill="none" stroke="#815252" stroke-width="1.0583"/><path d="m20.844 34.046-0.80602 0.98255 1.6698 1.3374 0.7056-0.92368z" fill="#cdcdcd"/></svg>
