<?xml version="1.0" encoding="UTF-8"?>
<svg width="200" height="250" version="1.1" viewBox="0 0 52.917 66.146" xmlns="http://www.w3.org/2000/svg">
 <g transform="translate(0 -288.53)">
  <g>
   <path d="m40.911 344.11s1.1359 3.7585 1.7707 7.0325c0.63477 3.274 1.2027 7.0158 1.2027 7.0158s-0.50113-0.90203-0.96885-0.13363c-0.46772 0.7684-0.80181 1.7707-0.80181 1.7707l-3.6415-17.205z" fill="#3d3d3d"/>
   <path d="m24.748 323.62s-0.28348 2.2442-1.6773 4.6066c-1.3938 2.3624-2.1497 2.9057-2.1497 2.9057l0.7087 0.47247-1.6328 4.9004 0.43431 2.2384-1.6953 17.106 23.244 0.0998s-0.23386-9.0204-1.5368-13.163c-1.3029-4.1427 0-7.9847 0-7.9847l-2.1883-2.1382 0.70158-0.10023-0.84921-2.2339s1.8014-0.99008 0.21444-3.0781-1.3363-3.4745-1.3363-3.4745l-7.6172-3.7752z" fill="#1a95db"/>
   <path d="m35.098 342.39 6.6984 9.889-0.17546-2.2892-0.20874-2.0539-5.5458-8.0181z" fill="#f8edc2"/>
   <path d="m39.022 340.27s0.15964 4.043 2.1204 4.1138c1.9608 0.0709 1.819-4.6538 1.4174-5.5752-0.4016-0.92131-3.2388-2.523-3.2388-2.523z" fill="#f8edc2"/>
   <path d="m41.284 343.54c1.2757-0.25986 0.96856-4.3704 0.42522-5.3153s-1.2835-2.4589-2.4096-0.56697 0.62658 6.0287 1.9844 5.8823z" fill="#4e431b"/>
   <path d="m27.514 315.93s0.43431 0.51783 0.90204 0.96885 0.98556 0.86862 0.98556 0.86862l-0.03341 2.2384 3.4745 0.16704 0.05012-1.8208s0.75169-0.33409 1.3196-0.65147c0.56795-0.31739 1.186-0.70159 1.186-0.70159l0.71829 0.3842 2.94-2.372-0.35079-5.195-5.8799-6.2808-5.5793 2.2718-3.6415 5.9133 1.3363 3.7084z" fill="#894511"/>
   <path d="m32.258 323.61 2.3386 6.5815 1.5368 0.63476-1.9377-7.5002z" fill="#f8edc2"/>
   <path d="m24.54 317.7 1.5368 2.9734s-1.1693 0.13364-0.96885 1.0023c0.20045 0.86863 2.8731 2.205 6.047 2.5391s6.9156-0.16704 6.9156-0.16704l-1.1025-1.4366s0.46772-0.7684 0.53454-1.0691c0.06682-0.30068-0.11693-0.48443-0.11693-0.48443s0.55124-0.50113 0.80181-1.2361c0.25057-0.73499 0.20045-1.4366 0.20045-1.4366s-2.9567-0.71828-7.0993-1.1526c-4.1427-0.43432-6.7486 0.46772-6.7486 0.46772z" fill="#2a3450"/>
   <path d="m27.514 315.93s-0.25056 1.7372-1.2027 1.47c-0.95215-0.26727-1.5535-1.0858-1.5535-1.0858s-1.5368 0.0668-2.3219-0.90204c-0.7851-0.96885 0.66817-1.9878 0.66817-1.9878s-0.63476-0.55124-0.60136-1.8876c0.03341-1.3364 2.2718-3.5079 2.2718-3.5079s-0.58465-1.0858 1.2862-3.3409c1.8709-2.2551 5.3621-1.5034 5.3621-1.5034s0.50113-1.1693 2.5057-0.7684c2.0045 0.4009 4.3431 2.0212 5.6461 4.6605 1.3029 2.6393-0.23386 4.0424-0.23386 4.0424s1.9377 1.5869 1.1192 4.1427c-0.81851 2.5558-3.0736 2.3553-3.0736 2.3553s-0.82634 0.50318-1.4642 0.16064c-0.63784-0.34254-0.52364-0.7787-0.52364-0.7787s0.70082-0.40248 1.1024-0.79227c0.4016-0.38978 0.4016-1.1339 0.4016-1.1339s1.2689 0.12213 1.4025-1.4481c0.13363-1.5702-0.4009-1.2695-0.71829-0.86863-0.31738 0.4009-0.70158 0.7684-0.70158 0.7684l0.01669-1.0357s-1.3363-0.3675-2.3219-1.5702c-0.98555-1.2027-1.2027-2.0045-1.2027-2.0045s0.0167 1.0023-1.5535 1.0524c-1.5702 0.0501-2.3887-2.3219-2.3887-2.3219s-0.88533 1.3698-1.5535 2.0379-0.7684 0.7851-0.7684 0.7851 0.04468 0.64827-0.14431 1.0617c-0.18899 0.41341-0.36616 0.55515-0.36616 0.55515l-0.02362-1.004s-1.6418 0.0709-1.3111 1.6182c0.33073 1.5473 1.252 1.0749 1.252 1.0749s0.09449 0.67327 0.36616 1.2166c0.27167 0.54334 0.6279 0.93981 0.6279 0.93981z" fill="#e47723"/>
   <path d="m0.69926 301.09 0.42522 3.071 33.073 29.435 1.8426-0.66146 0.66146-1.8899-33.215-29.671z" fill="#d8d8d8"/>
   <path d="m45.354 340.28-9.2876-8.2185-1.0691 1.7038 10.256 7.2163z" fill="#826842"/>
   <path d="m33.418 337.42 1.9844 0.61421 0.73233-0.56697s1.2284 0 1.7481-0.0236c0.51972-0.0236 0.77958-0.16536 0.77958-0.16536s0.33073 1.1576 1.5592 1.1576c1.2284 0 1.7245-1.2284 1.4647-2.0552-0.25986-0.82682-0.7498-1.4026-1.2431-1.5754-0.49326-0.17277-0.85943 0.0635-0.85943 0.0635s-0.11812-0.70871-1.2875-1.3584c-1.1694-0.64965-1.4528-0.17718-1.4528-0.17718l-0.87701 0.97093-2.4657 1.545z" fill="#894511"/>
   <path d="m32.898 334.92 4.4412-5.1027 0.47247 0.37797 0.09449 1.1576-3.8034 3.9451-0.82682-0.0236z" fill="#919191"/>
   <circle cx="45.621" cy="340.92" r=".90203" fill="#826842" stroke-linecap="round" stroke-linejoin="bevel" stroke-width=".26458" style="paint-order:markers fill stroke"/>
  </g>
  <g fill="none" stroke="#000" stroke-width=".26458px">
   <path d="m29.752 315.53s0.41761 1.019 1.8041 1.0691c1.3865 0.0501 1.921-0.70158 1.921-0.70158"/>
   <path d="m27.731 312.02s0.23386-0.7684 1.019-0.80181c0.7851-0.0334 1.1526 0.80181 1.1526 0.80181"/>
   <path d="m34.212 312.57s0.26727-0.50113 1.019-0.50113c0.75169 0 0.86863 0.71829 0.86863 0.71829"/>
  </g>
  <g>
   <path d="m28.783 311.25s-0.16704 0.68488 0.23386 0.75169c0.4009 0.0668 0.33409-0.58465 0.33409-0.58465z"/>
   <path d="m35.131 312.14s-0.18375 0.63476 0.25057 0.68488c0.43431 0.0501 0.23386-0.80181 0.23386-0.80181z"/>
   <path d="m25.71 308.38s1.2695-1.2361 3.2741-2.6727c2.0045-1.4366 4.5185-2.2467 4.5185-2.2467s-1.3011-1.085-2.187-0.6243c-0.88588 0.46065-4.0396 2.4805-4.0396 2.4805s0.33073-1.0158 0.04725-1.7245c-0.28348-0.70871-1.8663-2.3624-1.8663-2.3624s-0.01422 1.2702 0.0025 2.239c0.01671 0.96886 0.10023 1.2695 0.10023 1.2695s-0.61806-0.45101-1.4199-0.85192c-0.80181-0.4009-1.6036-0.56795-1.6036-0.56795s0.3675 1.5702 1.1192 2.6393 1.3363 1.0023 1.3363 1.0023z" fill="#fff"/>
   <path d="m35.827 337.47s-1.0158 0.33073-1.3702-0.92131c-0.35436-1.252-1.7009 2.0789-1.7009 2.0789l1.0394 5.079 1.1576 0.25986 0.96857-2.4805z" fill="#4e431b"/>
   <path d="m30.512 333.31s2.2469 1.1616 3.1489 1.2952c0.90204 0.13364 2.3052-0.30067 2.3052-0.30067s-1.8709 1.6036-2.0713 4.4768c-0.20045 2.8732 0.53875 5.9388 1.2475 4.3561 0.7087-1.5828 0.68508-5.6696 0.68508-5.6696h0.3071s0.07087 2.9529-0.33073 4.9137c-0.4016 1.9608-0.51972 2.1734-1.2048 2.1734-0.68508 0-5.7169-1.3229-5.7169-1.3229s-0.47247-2.2206 0-5.3862c0.47247-3.1656 1.63-4.5357 1.63-4.5357z" fill="#f8edc2"/>
   <path d="m25.15 339.71s-0.87642 1.9425-3.1482 9.8269-3.0736 11.493-3.0736 11.493-0.13292-0.81432-0.79438-0.60171c-0.66146 0.21261-0.61421 1.0631-0.61421 1.0631s-0.89769-1.5355-1.3229-2.5277c-0.42522-0.99219-0.42522-1.9371-0.42522-1.9371l-0.42522 0.85045-0.09449-2.4096-1.0158 1.6773s-0.87407-2.1497 1.4883-9.3785c2.3624-7.2288 4.5069-10.891 4.5069-10.891s-0.26727 0.60135 1.9711 1.5702c2.2384 0.96886 2.9478 1.2648 2.9478 1.2648z" fill="#2a3450"/>
  </g>
  <g fill="#bfa427">
   <circle cx="22.799" cy="336.89" r=".67327" style="paint-order:markers fill stroke"/>
   <circle cx="25.622" cy="338.15" r=".67327" style="paint-order:markers fill stroke"/>
   <circle cx="39.347" cy="351.17" r=".67327" style="paint-order:markers fill stroke"/>
   <circle cx="40.954" cy="353.2" r=".67327" style="paint-order:markers fill stroke"/>
  </g>
 </g>
</svg>
