<?xml version="1.0" encoding="UTF-8"?>
<svg width="48" height="48" version="1.1" viewBox="0 0 12.7 12.7" xml:space="preserve" xmlns="http://www.w3.org/2000/svg"><g><path d="m8.3489 8.5519c2.019-1.3359 3.1341-2.3804 3.127-3.6343-0.0071-1.2539-0.93392-2.6758-2.6589-2.6846-1.725-0.00881-2.523 1.4998-2.523 1.4998s-0.79804-1.5086-2.523-1.4998c-1.725 0.00881-2.6519 1.4307-2.6589 2.6846-0.00706 1.2539 1.108 2.2983 3.127 3.6343 2.019 1.3359 2.055 1.9494 2.055 1.9494s0.036052-0.61342 2.055-1.9494z" fill="#cf2059"/><path d="m7.7435 7.9083c1.4242-0.9424 2.2108-1.6792 2.2058-2.5637-0.0050081-0.88449-0.6588-1.8875-1.8756-1.8937-1.2168-0.0062147-1.7798 1.058-1.7798 1.058s-0.56295-1.0642-1.7798-1.058c-1.2168 0.00621-1.8707 1.0092-1.8756 1.8937-0.00498 0.88449 0.7816 1.6213 2.2058 2.5637 1.4242 0.9424 1.4496 1.3751 1.4496 1.3751s0.025432-0.43272 1.4496-1.3751z" fill="#ec3f78"/><path d="m7.2004 7.331c0.89067-0.58936 1.3826-1.0501 1.3795-1.6033-0.0031469-0.55315-0.412-1.1804-1.173-1.1843-0.761-0.003885-1.1131 0.66166-1.1131 0.66166s-0.35206-0.66555-1.1131-0.66166c-0.76099 0.00388-1.1699 0.63116-1.173 1.1843-0.00311 0.55315 0.4888 1.0139 1.3795 1.6033 0.89067 0.58936 0.90658 0.85998 0.90658 0.85998s0.015905-0.27062 0.90658-0.85998z" fill="#ff5b91"/></g></svg>
