<?xml version="1.0" encoding="UTF-8"?>
<svg width="64" height="64" version="1.1" viewBox="0 0 16.933 16.933" xmlns="http://www.w3.org/2000/svg">
 <path d="m5.7014 12.279s0.31278 0.37294 0.64963 0.69775c0.33685 0.32482 0.70978 0.62556 0.70978 0.62556s0.44981 0.38662 1.2852 0.49632c0.83534 0.1097 1.2292-0.07527 1.2292-0.07527s0.54135-0.2406 0.95036-0.46917c0.40903-0.22858 0.85412-0.50528 0.85412-0.50528l0.5173 0.2767 2.1173-1.7082-0.25263-3.7413-4.2346-4.5233-4.0181 1.6361-2.6226 4.2587 0.96239 2.6707z" fill="#894511" stroke-width=".8026"/>
 <path d="m5.7014 12.279s-0.18045 1.2511-0.86616 1.0586c-0.68572-0.19248-1.1188-0.78197-1.1188-0.78197s-1.1068 0.04811-1.6722-0.64963c-0.56541-0.69774 0.4812-1.4316 0.4812-1.4316s-0.45714-0.39699-0.43309-1.3594c0.024061-0.96247 1.6361-2.5263 1.6361-2.5263s-0.42105-0.78197 0.92628-2.406c1.3474-1.6241 3.8617-1.0827 3.8617-1.0827s0.3609-0.84208 1.8046-0.55338c1.4436 0.28872 3.1278 1.4556 4.0662 3.3564 0.93832 1.9008-0.16842 2.9113-0.16842 2.9113s1.3955 1.1428 0.80605 2.9835c-0.58948 1.8407-2.2136 1.6962-2.2136 1.6962s-0.59511 0.36238-1.0545 0.11569c-0.45936-0.24669-0.37712-0.56081-0.37712-0.56081s0.50471-0.28986 0.79393-0.57057c0.28922-0.28071 0.28922-0.81664 0.28922-0.81664s0.91384 0.08796 1.0101-1.0429c0.09624-1.1309-0.28872-0.91424-0.5173-0.62557-0.22857 0.28872-0.50527 0.55338-0.50527 0.55338l0.01202-0.74589s-0.96239-0.26466-1.6722-1.1309c-0.70977-0.86616-0.86616-1.4436-0.86616-1.4436s0.012031 0.72184-1.1188 0.75792c-1.1309 0.036081-1.7203-1.6722-1.7203-1.6722s-0.6376 0.98647-1.1188 1.4676c-0.4812 0.48115-0.55338 0.56541-0.55338 0.56541s0.032178 0.46687-0.10393 0.76462c-0.13611 0.29773-0.2637 0.39981-0.2637 0.39981l-0.01701-0.72306s-1.1824 0.05106-0.94426 1.1654c0.23819 1.1143 0.90164 0.77412 0.90164 0.77412s0.06805 0.48487 0.2637 0.87619c0.19565 0.39131 0.4522 0.67683 0.4522 0.67683z" fill="#e47723" stroke-width=".8026"/>
 <path d="m7.3134 11.986s0.30075 0.73386 1.2993 0.76994c0.99853 0.03608 1.3835-0.50526 1.3835-0.50526" fill="none" stroke="#000" stroke-linecap="round" stroke-width=".21235px"/>
 <g transform="matrix(.8026 0 0 .8026 1.6825 1.562)">
  <path d="m6.146 9.1533s-0.14989 0.61455 0.20985 0.6745c0.35973 0.05994 0.29978-0.52461 0.29978-0.52461z"/>
  <path d="m11.842 9.9519s-0.16488 0.56958 0.22484 0.61455c0.38971 0.04495 0.20985-0.71947 0.20985-0.71947z"/>
  <path d="m3.3886 6.578s1.1391-1.1092 2.9379-2.3982c1.7987-1.2891 4.0545-2.016 4.0545-2.016s-1.1675-0.97358-1.9624-0.56019c-0.79491 0.41335-3.6248 2.2258-3.6248 2.2258s0.29677-0.91149 0.042398-1.5474c-0.25437-0.63593-1.6747-2.1198-1.6747-2.1198s-0.01276 1.1398 0.00224 2.0091c0.014994 0.86937 0.089938 1.1391 0.089938 1.1391s-0.55459-0.4047-1.2741-0.76444c-0.71947-0.35973-1.4389-0.50963-1.4389-0.50963s0.32976 1.409 1.0043 2.3683 1.1991 0.89938 1.1991 0.89938z" fill="#fff"/>
 </g>
 <path d="m5.1916 8.4091 3.4852 0.37542s-0.27362 1.5268-2.0141 1.3036c-1.7405-0.22319-1.471-1.6791-1.471-1.6791z"/>
 <path d="m9.4254 8.893 3.4852 0.37542s-0.27362 1.5268-2.0141 1.3036c-1.7405-0.22319-1.471-1.6791-1.471-1.6791z"/>
 <g fill="none" stroke-width=".26458px">
  <g stroke="#000">
   <path d="m8.521 9s0.28383 0.098006 0.51891 0.13163c0.23508 0.03362 0.54735 0.00901 0.54735 0.00901"/>
   <path d="m12.706 9.4137 0.35106 0.416"/>
   <path d="m5.028 8.8703 0.26957-0.18468"/>
  </g>
  <path d="m5.6775 9.3463 0.87503-0.54492" stroke="#535353" stroke-linecap="round"/>
  <path d="m9.9926 9.8448 0.87503-0.54492" stroke="#535353" stroke-linecap="round"/>
 </g>
</svg>
