<?xml version="1.0" encoding="UTF-8"?>
<svg width="32" height="32" version="1.1" viewBox="0 0 8.4667 8.4667" xmlns="http://www.w3.org/2000/svg">
 <g stroke="#000" stroke-miterlimit="1" stroke-width=".4492">
  <g transform="matrix(1.0693 .3452 0 1.2978 .92666 -380.23)">
   <path d="m6.3553 293.91 0.47524 1.0325-2.0258 1.3503-0.76552-1.1849 0.251-0.88991z" fill="#a1a1a1"/>
   <path d="m2.1239 294.58 1.0026-0.72881 3.2174 0.0685-1.1865 0.73016" fill="#e0e0e0"/>
   <path d="m1.673 296.27 3.1717 0.0228 0.31264-1.6412-3.109-0.0456z" fill="#c2c2c2"/>
  </g>
  <g transform="matrix(1.0693 .3452 0 1.2978 -1.5499 -379)">
   <path d="m6.3553 293.91 0.47524 1.0325-2.0258 1.3503-0.76552-1.1849 0.251-0.88991z" fill="#a1a1a1"/>
   <path d="m2.1239 294.58 1.0026-0.72881 3.2174 0.0685-1.1865 0.73016" fill="#e0e0e0"/>
   <path d="m1.673 296.27 3.1717 0.0228 0.31264-1.6412-3.109-0.0456z" fill="#c2c2c2"/>
  </g>
  <g transform="matrix(1.0693 .3452 0 1.2978 -.62936 -381.81)">
   <path d="m6.3553 293.91 0.47524 1.0325-2.0258 1.3503-0.76552-1.1849 0.251-0.88991z" fill="#a1a1a1"/>
   <path d="m2.1239 294.58 1.0026-0.72881 3.2174 0.0685-1.1865 0.73016" fill="#e0e0e0"/>
   <path d="m1.673 296.27 3.1717 0.0228 0.31264-1.6412-3.109-0.0456z" fill="#c2c2c2"/>
  </g>
 </g>
</svg>
