<?xml version="1.0" encoding="UTF-8"?>
<!-- Created with Inkscape (http://www.inkscape.org/) -->
<svg width="32" height="32" version="1.1" viewBox="0 0 8.4667 8.4667" xmlns="http://www.w3.org/2000/svg">
 <g>
  <path d="m1.8082 5.7573 0.88489 0.042328 0.00352 0.86136-0.3235 0.3235-0.032342 0.76849-0.77803 0.20752-1.106-0.91776 0.12749-0.81669 0.91838-0.16314z" fill="#fff7f5"/>
  <path d="m1.8082 5.7573s0.1238 0.23673 0.38835 0.45831c0.26455 0.22158 0.50005 0.44538 0.50005 0.44538l0.75087 0.16313 0.94465-0.44959 1.6502-0.058631 1.8547-1.5426 0.10207-1.2204-1.5865-2.2233-1.8478-0.96535-0.95912 0.26113-1.5706 1.7529-8.076e-4 1.7451-0.37395 1.1559z" fill="#ff5c2e"/>
  <ellipse transform="matrix(.71413 .70002 -.70001 .71413 0 0)" cx="6.0285" cy="-2.127" rx="2.388" ry="1.015" fill="#ffb5a1"/>
  <ellipse transform="matrix(.71413 .70002 -.70001 .71413 0 0)" cx="6.1422" cy="-2.2231" rx=".99191" ry=".4216" fill="#fff7f5"/>
 </g>
 <path d="m0.99132 7.477s-0.70999-0.24461-0.50665-0.93397c0.20334-0.68936 1.018-0.48012 1.018-0.48012l0.30559-0.30559s-0.21747-0.38111-0.10334-0.87807c0.11413-0.49696 0.3905-0.56585 0.34046-1.4755-0.050045-0.90969 0.059004-1.6486 1.6691-2.7818 1.6101-1.1332 4.831 2.7151 4.2483 3.8187-0.58264 1.1036-1.8952 2.0891-2.9245 1.9575-1.0293-0.13153-1.1004 0.36699-1.6392 0.35883-0.53884-0.0081533-0.70242-0.096017-0.70242-0.096017l-0.32349 0.3235s0.25788 0.74712-0.41797 0.96002c-0.67585 0.21289-0.96387-0.46752-0.96387-0.46752z" fill="none" stroke="#000" stroke-width=".52917"/>
</svg>
