<?xml version="1.0" encoding="UTF-8"?>
<!-- Created with Inkscape (http://www.inkscape.org/) -->
<svg width="32" height="32" version="1.1" viewBox="0 0 8.4667 8.4667" xmlns="http://www.w3.org/2000/svg">
 <g stroke="#000" stroke-width=".52917">
  <path d="m1.4945 4.6678s-0.14975-3.3708 2.4256-3.3713c2.5754-5.43e-4 2.3979 3.4148 2.3979 3.4148s-0.24778 0.56355-2.4683 0.56947c-2.2205 0.0059365-2.3552-0.61296-2.3552-0.61296z" fill="#6b6b6b"/>
  <path d="m0.26584 6.0143s-0.094637-1.839 1.5329-1.8393c1.6275-2.962e-4 1.5153 1.8631 1.5153 1.8631s-0.15659 0.30746-1.5598 0.31069c-1.4033 0.0032348-1.4884-0.33442-1.4884-0.33442z" fill="#9e9e9e"/>
  <path d="m3.9348 7.0396s-0.034048-0.61767 0.55151-0.61777c0.58556-9.94e-5 0.54519 0.62574 0.54519 0.62574s-0.056337 0.10327-0.56121 0.10435c-0.50487 0.0010861-0.53549-0.11232-0.53549-0.11232z" fill="#9e9e9e"/>
  <path d="m4.1742 5.4879s-0.12498-2.4506 2.0243-2.451c2.1493-3.947e-4 2.0011 2.4826 2.0011 2.4826s-0.20679 0.40971-2.0599 0.41402c-1.8531 0.0043093-1.9655-0.44564-1.9655-0.44564z" fill="#898989"/>
 </g>
</svg>
