<?xml version="1.0" encoding="UTF-8"?>
<!-- Created with Inkscape (http://www.inkscape.org/) -->
<svg width="32" height="32" version="1.1" viewBox="0 0 8.4667 8.4667" xmlns="http://www.w3.org/2000/svg">
 <path d="m0.28439 8.1591 4.8053-4.7683" fill="#e0c933" stroke="#000" stroke-width=".52917"/>
 <path d="m5.8252 0.22502s-0.76946 1.0523-0.77393 1.8324c-0.00447 0.78011 0.038475 1.3334 0.038475 1.3334s0.64296 0.14073 1.5469-0.00175c0.9039-0.14246 1.5647-0.84042 1.5647-0.84042" fill="none" stroke="#000" stroke-width=".52917"/>
 <g stroke="#000" stroke-width=".52917">
  <path d="m1.1842 7.2531s-0.70004-0.46826-0.76325-1.4583c-0.063214-0.99003 0.72645-1.875 0.72645-1.875s0.68759 0.571 0.74944 1.6715c0.061853 1.1005-0.71264 1.6618-0.71264 1.6618z" fill="#e0c933"/>
  <path d="m2.7367 5.7086s-0.70004-0.46826-0.76325-1.4583c-0.063214-0.99003 0.72645-1.875 0.72645-1.875s0.68759 0.571 0.74944 1.6715c0.061853 1.1005-0.71264 1.6618-0.71264 1.6618z" fill="#b29e1b"/>
  <path d="m4.2426 4.1377s-0.70004-0.46826-0.76325-1.4583c-0.063214-0.99003 0.72645-1.875 0.72645-1.875s0.68759 0.571 0.74944 1.6715c0.061853 1.1005-0.71264 1.6618-0.71264 1.6618z" fill="#ecdc7c"/>
  <path d="m3.7819 4.7197s0.46826-0.70004 1.4583-0.76325c0.99003-0.063214 1.875 0.72645 1.875 0.72645s-0.571 0.68759-1.6715 0.74944c-1.1005 0.061853-1.6618-0.71264-1.6618-0.71264z" fill="#e0c933"/>
  <path d="m2.1784 6.3129s0.46826-0.70004 1.4583-0.76325c0.99003-0.063214 1.875 0.72645 1.875 0.72645s-0.571 0.68759-1.6715 0.74944c-1.1005 0.061853-1.6618-0.71264-1.6618-0.71264z" fill="#ecdc7c"/>
  <path d="m5.0897 3.3908s-0.16001-0.82687 0.49884-1.5685c0.65885-0.74167 1.8433-0.8035 1.8433-0.8035s0.078258 0.89034-0.66002 1.7088c-0.73828 0.81844-1.6821 0.66326-1.6821 0.66326z" fill="#e0c933"/>
 </g>
</svg>
