<?xml version="1.0" encoding="UTF-8"?>
<svg width="32" height="32" version="1.1" viewBox="0 0 8.4667 8.4667" xmlns="http://www.w3.org/2000/svg">
 <g stroke="#000" stroke-width=".52917">
  <path d="m0.84621 6.9693 3.4418 1.2297" fill="none"/>
  <path d="m1.0434 7.0565 1.6465 0.055708 1.3315 0.99671"/>
  <path d="m2.6899 7.1122 1.1736-3.321" fill="none"/>
 </g>
 <path d="m2.7594 1.7033s0.5483 0.37347 1.8235 0.35345c1.2752-0.020022 1.9033-0.34795 1.9033-0.34795s-1.2139 2.6169-2.6227 2.0824c-1.4088-0.53451-1.1041-2.0879-1.1041-2.0879z" fill="#9d3d3d"/>
 <g fill="none" stroke-width=".52917">
  <path d="m6.4862 1.7088s-0.94221 2.6515-2.6227 2.0824c-1.6805-0.56907-0.73188-3.2679-0.73188-3.2679z" stroke="#000"/>
  <path d="m6.6477 0.84336s0.2657 0.026559 0.70221-0.16419c0.41896-0.18307 0.53802-0.41459 0.53802-0.41459" stroke="#9d3d3d" stroke-linecap="round"/>
  <path d="m7.3834 1.4927s0.11254 0.018441 0.27037 0.17104c0.15147 0.14646 0.17804 0.29198 0.17804 0.29198" stroke="#9d3d3d" stroke-linecap="round"/>
 </g>
</svg>
