<?xml version="1.0" encoding="UTF-8"?>
<!-- Created with Inkscape (http://www.inkscape.org/) -->
<svg width="32" height="32" version="1.1" viewBox="0 0 8.4667 8.4667" xmlns="http://www.w3.org/2000/svg">
 <g stroke="#000" stroke-linecap="round" stroke-linejoin="bevel" stroke-width=".52917">
  <path d="m7.2753 3.4897-0.012094 2.8996-3.6881-0.025605 1.08e-5 -0.0031c-0.019406 0.00175-0.038841 0.0027-0.058281 0.00286-0.56078-0.00245-1.0126-0.65357-1.0091-1.4543 0.00342-0.8005 0.46059-1.4475 1.0212-1.4453 0.019441 3.141e-4 0.038865 0.00143 0.058256 0.00334l1.06e-5 -0.0031z" fill="#61471a"/>
  <ellipse transform="matrix(-.99999 -.0041708 -.0041708 .99999 0 0)" cx="-7.2026" cy="4.9067" rx="1.0153" ry="1.4497" fill="#61471a"/>
  <path d="m5.7959 1.3877-0.012094 2.8996-3.6037-0.021631 1.07e-5 -0.0031c-0.019406 0.00175-0.038841 0.0027-0.058281 0.00286-0.56078-0.00245-1.0126-0.65357-1.0091-1.4543 0.003416-0.8005 0.46059-1.4475 1.0212-1.4453 0.019441 3.141e-4 0.038865 0.00143 0.058256 0.00334l1.07e-5 -0.0031z" fill="#7a5921"/>
  <ellipse transform="matrix(-.99999 -.0041708 -.0041708 .99999 0 0)" cx="-5.7989" cy="2.8145" rx="1.0153" ry="1.4497" fill="#7a5921"/>
  <path d="m5.0343 4.0281-0.012094 2.8996-3.6881-0.025605 1.07e-5 -0.0031c-0.019406 0.00175-0.03884 0.0027-0.058281 0.00286-0.56078-0.00245-1.0126-0.65357-1.0091-1.4543 0.00342-0.8005 0.46059-1.4475 1.0212-1.4453 0.019441 3.141e-4 0.038865 0.00143 0.058256 0.00334l1.07e-5 -0.0031z" fill="#a0752b"/>
  <ellipse transform="matrix(-.99999 -.0041708 -.0041708 .99999 0 0)" cx="-4.9639" cy="5.4544" rx="1.0153" ry="1.4497" fill="#a0752b"/>
 </g>
</svg>
