<?xml version="1.0" encoding="UTF-8"?>
<svg width="32" height="32" version="1.1" viewBox="0 0 8.4667 8.4667" xml:space="preserve" xmlns="http://www.w3.org/2000/svg"><rect width="8.4667" height="8.4667" fill="#322e27"/><path d="m2.133 9.7189-0.008409-2.0732 1.0665-1.0048 1.6109 0.47459 0.73662 1.8565 3.8468 0.23993-0.11722-5.3878-1.7553-1.7861-3.2351-0.80236-1.3373-1.752 6.5957-0.082792 0.38065 11.295z" fill="#0d4154"/><g fill="none" stroke="#f00" stroke-linecap="round" stroke-width=".26458"><path d="m6.2835 4.1579s-1.1596 0.25413-2.2454-0.93467-3.8149 0.55834-3.1019 2.1905c0.71292 1.6322 0.52172 4.0225 0.52172 4.0225" stroke-dasharray="0.264584, 0.740836"/><path d="m7.7101 4.5357-0.88208-0.88208"/><path d="m6.8281 4.5357 0.88208-0.88208"/></g><g transform="matrix(-2.715 -.39945 -.39945 2.715 70.692 -32.223)"><path d="m23.069 15.868c-0.05457-0.073 0.25063-0.05633 0.21148 4e-3 -0.03915 0.06029-0.04454 0.33096-0.04454 0.33096s8e-3 0.03207-0.06582 0.02847c-0.07387-0.0036-0.07119-0.03588-0.07119-0.03588s0.02464-0.25455-0.02993-0.32754z" fill="#58543c"/><path d="m22.946 15.838c0.06875-0.10713 0.25333-0.21033 0.40496-0.06258s0.04778 0.15093-0.01164 0.15329c-0.05942 0.0024-0.13709-9.38e-4 -0.20161-4.74e-4s-0.26046 0.01687-0.1917-0.09026z" fill="#84392d"/></g><g transform="matrix(-1.6495 .46882 .50284 1.7692 31.216 -36.895)"><path d="m23.069 15.868c-0.05457-0.073 0.25063-0.05633 0.21148 4e-3 -0.03915 0.06029-0.04454 0.24081-0.04454 0.24081s-0.08888 0.07985-0.1627 0.07625c-0.07387-0.0036 0.02569-0.08369 0.02569-0.08369s0.02464-0.16438-0.02993-0.23737z" fill="#58543c"/><path d="m22.946 15.838c0.06875-0.10713 0.25333-0.21033 0.40496-0.06258s0.04778 0.15093-0.01164 0.15329c-0.05942 0.0024-0.13709-9.38e-4 -0.20161-4.74e-4s-0.26046 0.01687-0.1917-0.09026z" fill="#84392d"/></g><g transform="matrix(2.7442 0 0 2.7442 -57.145 -41.524)"><path d="m23.068 15.868c-0.04765-0.073 0.21884-0.05633 0.18466 4e-3 -0.03419 0.06029-0.03889 0.24081-0.03889 0.24081s7e-3 0.03207-0.05747 0.02847c-0.0645-0.0036-0.06216-0.03588-0.06216-0.03588s0.02152-0.1644-0.02613-0.2374z" fill="#58543c"/><path d="m22.946 15.838c0.06875-0.10713 0.20433-0.26984 0.35595-0.1221 0.15163 0.14775 0.09678 0.21044 0.03736 0.21281-0.05942 0.0024-0.13709-9.38e-4 -0.20161-4.74e-4s-0.26046 0.01687-0.1917-0.09026z" fill="#84392d"/></g><g transform="matrix(-2.7399 -.18913 -.15336 3.379 71.37 -47.705)"><path d="m23.068 15.868c-0.04765-0.073 0.21884-0.05633 0.18466 4e-3 -0.03419 0.06029-0.03889 0.24081-0.03889 0.24081s7e-3 0.03207-0.05747 0.02847c-0.0645-0.0036-0.06216-0.03588-0.06216-0.03588s0.02152-0.1644-0.02613-0.2374z" fill="#58543c"/><path d="m22.946 15.838c0.06875-0.10713 0.20433-0.26984 0.35595-0.1221 0.15163 0.14775 0.09678 0.21044 0.03736 0.21281-0.05942 0.0024-0.13709-9.38e-4 -0.20161-4.74e-4s-0.26046 0.01687-0.1917-0.09026z" fill="#84392d"/></g><g transform="matrix(1.2612 0 0 1.2612 -26.469 -18.883)"><path d="m23.624 15.542c0.092-0.11506-0.36981-0.10794-0.319-0.0073 0.05084 0.10052 0.03461 0.39421 0.03461 0.39421s-0.01639 0.05159 0.09529 0.05056c0.11172-1e-3 0.11203-0.05366 0.11203-0.05366s-0.01499-0.26877 0.07707-0.38381z" fill="#58543c"/><path d="m23.812 15.5c-0.0891-0.17857-0.35313-0.35834-0.60137-0.12818s-0.09229 0.24212-0.0031 0.24986c0.08915 0.0078 0.20656 0.0075 0.30366 0.01238 0.0971 0.0051 0.38994 0.04445 0.30084-0.13412z" fill="#84392d"/></g><path d="m2.4154 4.6399s-0.26798 0.18653-0.30743-0.079179c-0.032087-0.21725 0.2122-0.13505 0.2122-0.13505s0.00802-0.11216 0.14633-0.081491c0.1384 0.030671-0.022178 0.17044 0.29624 0.39397 0.31847 0.22353 0.41501 0.27392 0.50992 0.30997 0.094751 0.036334 0.12887 0.12575 0.044355 0.15015-0.084511 0.024537-0.15275-0.00103-0.15275-0.00103s0.019818 0.11561-0.10579 0.07446c-0.12585-0.041056-0.061956-0.16417-0.061956-0.16417z" fill="#8b8b75"/><path d="m3.8934 5.2732s0.20456-0.00897 0.3104-0.10565c0.10584-0.096544 0.23438-0.080642 0.23438-0.080642s0.061059 0.00225 0.073941 0.075735c0.01274 0.073422-0.1408 0.060352-0.1408 0.060352s0.15435 0.071865-0.10202 0.098148c-0.25637 0.026425-0.36636 0.03539-0.36636 0.03539l-0.057332-0.037749z" fill="#8b8b75"/><path d="m7.2818 8.4638-0.37086-2.1064 0.44944-0.96808 0.72595 1.142-0.23524 1.9862z" fill="#933474"/><path d="m8.4182 8.6235 0.20634-1.3075-0.42918-0.6874-0.58169 0.71433 0.23524 1.3161z" fill="#c7469d"/><path d="m6.6881 8.9-0.15978-0.77629 0.36043-0.6874 0.48851 0.71433-0.21106 0.78497z" fill="#c7469d"/><path d="m5.5485 8.2168-0.15978-0.77629 0.38053-0.47177 0.33938 0.57954-0.082026 0.70412z" fill="#933474"/><path d="m-1.0713-0.55306v9.6022h13.604v-9.6022zm8.3341 0.67084c2.1741-2.2e-7 3.9366 1.7625 3.9366 3.9366 0 2.1741-1.7625 3.9366-3.9366 3.9366-2.1741 1e-7 -3.9366-1.7625-3.9366-3.9366-1e-7 -2.1741 1.7625-3.9366 3.9366-3.9366z" fill-opacity=".7" stroke-dasharray="0.0615093, 0.184528" stroke-linecap="round" stroke-linejoin="round" stroke-width=".061509"/></svg>
