<?xml version="1.0" encoding="UTF-8"?>
<!-- Created with Inkscape (http://www.inkscape.org/) -->
<svg width="32" height="32" version="1.1" viewBox="0 0 8.4667 8.4667" xmlns="http://www.w3.org/2000/svg">
 <g fill="#e9cc4e">
  <path d="m0.075125 4.165 1.8322 2.5371 5.1026-0.0337-1.9475-2.545z"/>
  <path d="m5.2072 3.208 0.74568 1.0325 2.0766-0.013715-0.79259-1.0357z"/>
  <path d="m1.5057 0.062324 1.8322 2.5371 5.1026-0.0337-1.9475-2.545z"/>
 </g>
 <g fill="none" stroke-width=".26458px">
  <g stroke="#427c3f">
   <path d="m0.56764 4.5983h4.6487"/>
   <path d="m0.97614 5.1119h4.6487"/>
   <path d="m1.3721 5.6456h4.6487"/>
   <path d="m1.7949 6.1991h4.6487"/>
  </g>
  <g stroke="#667c3f">
   <path d="m1.9868 0.49943h4.6487"/>
   <path d="m2.3953 1.013h4.6487"/>
   <path d="m2.7913 1.5467h4.6487"/>
   <path d="m3.2141 2.1003h4.6487"/>
  </g>
 </g>
 <g fill="#ff1313">
  <circle cx="5.6733" cy="3.2773" r=".15566"/>
  <circle cx="6.1256" cy="3.2684" r=".15566"/>
  <circle cx="6.5918" cy="3.2684" r=".15566"/>
  <circle cx="7.1075" cy="3.2669" r=".15566"/>
  <circle cx="5.8742" cy="3.6541" r=".15566"/>
  <circle cx="6.3624" cy="3.6236" r=".15566"/>
  <circle cx="6.8583" cy="3.6357" r=".15566"/>
  <circle cx="7.394" cy="3.6252" r=".15566"/>
  <circle cx="6.1629" cy="3.9755" r=".15566"/>
  <circle cx="6.6334" cy="3.9647" r=".15566"/>
  <circle cx="7.1536" cy="3.9526" r=".15566"/>
  <circle cx="7.6582" cy="3.9276" r=".15566"/>
 </g>
 <g fill="#bc8f1b">
  <path d="m0.6418 2.7835s0.13874-0.51476 0.50829-0.50947c0.36955 0.00529 0.4525 0.55 0.4525 0.55s-0.05821 0.1575-0.47237 0.14512c-0.41416-0.01238-0.48842-0.18565-0.48842-0.18565z"/>
  <path d="m1.2675 3.0666s0.092001-0.34134 0.33705-0.33784c0.24505 0.00351 0.30006 0.36471 0.30006 0.36471s-0.0386 0.10444-0.31323 0.096234c-0.27463-0.0082092-0.32388-0.12311-0.32388-0.12311z"/>
  <path d="m0.4326 1.6337s0.092001-0.34134 0.33705-0.33784c0.24505 0.00351 0.30006 0.36471 0.30006 0.36471s-0.0386 0.10444-0.31323 0.096234c-0.27463-0.00821-0.32388-0.12311-0.32388-0.12311z"/>
  <path d="m1.0883 1.3539s0.057083-0.21179 0.20913-0.20962c0.15205 0.00218 0.18617 0.22629 0.18617 0.22629s-0.02395 0.064802-0.19435 0.059709c-0.1704-0.00509-0.20095-0.076384-0.20095-0.076384z"/>
  <path d="m0.38279 3.4198s0.057083-0.21179 0.20913-0.20962c0.15205 0.00218 0.18617 0.22629 0.18617 0.22629s-0.02395 0.064802-0.19435 0.059709c-0.1704-0.00509-0.20095-0.076384-0.20095-0.076384z"/>
  <path d="m2.5509 3.01s0.057083-0.21179 0.20913-0.20962c0.15205 0.00218 0.18617 0.22629 0.18617 0.22629s-0.02395 0.064802-0.19435 0.059709c-0.1704-0.00509-0.20095-0.076384-0.20095-0.076384z"/>
  <path d="m3.7801 3.4027s0.057083-0.21179 0.20913-0.20962c0.15205 0.00218 0.18617 0.22629 0.18617 0.22629s-0.02395 0.064802-0.19435 0.059709c-0.1704-0.00509-0.20095-0.076384-0.20095-0.076384z"/>
 </g>
</svg>
