<?xml version="1.0" encoding="UTF-8"?>
<svg width="32" height="32" version="1.1" viewBox="0 0 8.4667 8.4667" xmlns="http://www.w3.org/2000/svg">
 <g fill="none">
  <path d="m0.17815 3.2661s0.53468-0.29213 0.98525-0.21488c0.45056 0.077257 1.3135-0.081596 1.7566-0.039806 0.44313 0.04179 0.73644-0.66395 1.1136-0.73082 0.37712-0.066864 0.8886 0.011358 0.61903-0.67216-0.26957-0.68352-0.089185-1.469-0.089185-1.469" stroke="#6f5714" stroke-linecap="round" stroke-width=".26458px"/>
  <path d="m3.5786 2.4959-3.8879 2.52v0.63588l4.3131-2.9858"/>
  <path d="m5.4664 7.3889-0.54608-0.5286" stroke="#91a9b1" stroke-opacity=".4251" stroke-width=".052917"/>
  <path d="m4.63 7.1969 0.33542-0.34951" stroke="#763e3e" stroke-width=".066146"/>
 </g>
 <path d="m3.8789 7.1322s0.079868 0.15304 0.13532 0.19708c0.055455 0.044042 0.2526-0.05285 0.40689 0.028767s0.40679-0.046052 0.40679-0.046052l0.13328-0.18007z" fill="#957a30"/>
 <path d="m6.9602 4.8575 0.24653-0.4696" fill="none" stroke="#91a9b1" stroke-opacity=".4251" stroke-width=".052917"/>
 <path d="m7.497 4.7244-0.33542-0.34951" fill="none" stroke="#765e5e" stroke-width=".066146"/>
 <path d="m8.2481 4.6597s-0.079868 0.15304-0.13532 0.19708c-0.055455 0.044042-0.2526-0.05285-0.40689 0.028767s-0.40679-0.046052-0.40679-0.046052l-0.13328-0.18007z" fill="#957a30"/>
 <path d="m1.6258 6.7877 0.37386-0.48199" fill="none" stroke="#91a9b1" stroke-opacity=".4251" stroke-width=".052917"/>
 <path d="m2.29 6.6423-0.33542-0.34951" fill="none" stroke="#3e7641" stroke-width=".066146"/>
 <g transform="translate(1.2937 .45944)" fill="none" stroke="#625020" stroke-width=".052917">
  <path d="m1.465 5.8907v0.35986"/>
  <path d="m1.3008 6.1625v-0.26975h0.32485v0.29336"/>
  <path d="m1.2953 6.0225h0.32466"/>
 </g>
 <g transform="translate(5.353 -.27262)" fill="none" stroke="#625020" stroke-width=".052917">
  <path d="m1.465 5.8907v0.35986"/>
  <path d="m1.3008 6.1625v-0.26975h0.32485v0.29336"/>
  <path d="m1.2953 6.0225h0.32466"/>
 </g>
 <g transform="translate(5.6778 -.33543)" fill="none" stroke="#625020" stroke-width=".052917">
  <path d="m1.465 5.8907v0.35986"/>
  <path d="m1.3008 6.1625v-0.26975h0.32485v0.29336"/>
  <path d="m1.2953 6.0225h0.32466"/>
 </g>
 <path d="m3.0411 6.5775s-0.079868 0.15304-0.13532 0.19708c-0.055455 0.044042-0.2526-0.05285-0.40689 0.028767s-0.40679-0.046052-0.40679-0.046052l-0.13328-0.18007z" fill="#957a30"/>
 <g fill="none" stroke="#625020">
  <path d="m5.7182 4.9058v0.35986" stroke-width=".052917"/>
  <path d="m5.8829 4.9196v0.35986" stroke-width=".052917"/>
  <path d="m5.564 5.1914v-0.26975h0.47952v0.29336" stroke-width=".052917"/>
  <path d="m5.5659 5.0514h0.47202" stroke-width=".052917"/>
 </g>
 <g>
  <path d="m6.7837 5.1347s-0.10968 0.18919-0.18583 0.24363c-0.076153 0.054445-0.34071-0.047972-0.55541 5.527e-4 -0.2289 0.051734-0.56197-0.02192-0.56197-0.02192l-0.18303-0.2226z" fill="#957a30"/>
  <path d="m6.5228 5.7937s0.094415 0.18919 0.15997 0.24363c0.065556 0.054445 0.2933-0.047972 0.47812 5.527e-4 0.19705 0.051734 0.48377-0.02192 0.48377-0.02192l0.15756-0.2226z" fill="#957a30"/>
  <rect x=".44178" y="1.6153" width="1.6053" height=".83159" fill="#a58735"/>
  <rect x=".36886" y="1.3778" width="1.7396" height=".46095" fill="#d2d243"/>
  <rect x="2.442" y="1.0647" width="1.0003" height=".83159" fill="#828282"/>
  <rect x="2.3799" y=".82723" width="1.1172" height=".46095" fill="#ff3535"/>
  <rect x=".75565" y=".25967" width=".62171" height=".83159" fill="#a58735"/>
  <rect x=".68097" y=".022169" width=".76598" height=".46095" fill="#d2d243"/>
  <rect x="7.6867" y=".84711" width=".65178" height=".83159" fill="#a58735"/>
  <rect x="7.6271" y=".60961" width=".76598" height=".46095" fill="#d2d243"/>
  <rect x="1.5321" y="3.0546" width="1.0003" height=".83159" fill="#a58735"/>
  <rect x="1.47" y="2.8171" width="1.1172" height=".46095" fill="#d2d243"/>
  <rect x="5.4974" y=".70365" width="1.0003" height=".83159" fill="#a58735"/>
  <rect x="5.4353" y=".46615" width="1.1172" height=".46095" fill="#d2d243"/>
  <rect x="6.2253" y="1.4341" width="1.0003" height=".83159" fill="#a58735"/>
  <rect x="6.1631" y="1.1966" width="1.1172" height=".46095" fill="#d2d243"/>
 </g>
 <g fill="none" stroke="#6f5714">
  <path d="m2.963 3.0217s0.44828-0.15817 0.92983 0.00422c0.48155 0.16239 0.63364 0.62292 1.0229 0.57335 0.38926-0.049574 0.9587 0.32626 0.9587 0.32626" stroke-linecap="round" stroke-width=".23813"/>
  <path d="m4.7133 1.9755s0.077343 0.22913 0.33376 0.30712c0.25642 0.077995 0.71542-0.063137 1.0314 0.24413 0.31596 0.30727 1.2695 0.16414 1.2695 0.16414" stroke-linecap="round" stroke-width=".21167"/>
  <path d="m5.0891 3.6009s0.28156-0.05689 0.57797-0.29429c0.29641-0.2374 0.2654-0.39285 0.50492-0.52483 0.23951-0.13198 0.44333-0.060687 0.44333-0.060687" stroke-width=".18521"/>
 </g>
 <g transform="matrix(1.2313 0 0 1 -.55078 -.014585)" stroke-width=".9012">
  <rect x="4.0396" y="2.2513" width="1.0003" height=".83159" fill="#a58735"/>
  <rect x="3.9775" y="2.0138" width="1.1172" height=".46095" fill="#d2d243"/>
 </g>
 <g fill="#7f6829">
  <rect x="2.293" y="1.7985" width=".24175" height=".30292"/>
  <rect x="2.6558" y="2.0298" width=".24175" height=".30292"/>
  <rect x="2.1766" y="1.9839" width=".24175" height=".30292"/>
  <rect x="3.6462" y="1.3485" width=".24175" height=".30292"/>
  <rect x="3.9516" y="1.4506" width=".24175" height=".30292"/>
  <rect x="3.7617" y="1.566" width=".24175" height=".30292"/>
  <rect x="3.2967" y="3.2034" width=".24175" height=".30292"/>
  <rect x="3.61" y="3.0566" width=".24175" height=".30292"/>
  <rect x="7.4064" y="2.0509" width=".24175" height=".30292"/>
  <rect x="8.1944" y="1.5294" width=".24175" height=".30292"/>
  <rect x="7.5662" y="2.2068" width=".24175" height=".30292"/>
 </g>
</svg>
