<?xml version="1.0" encoding="UTF-8"?>
<!-- Created with Inkscape (http://www.inkscape.org/) -->
<svg width="32" height="32" version="1.1" viewBox="0 0 8.4667 8.4667" xmlns="http://www.w3.org/2000/svg">
 <path d="m3.2436 2.4223c1.8399-0.090217 1.4447 0.5877 2.812 0.6544 1.4936 0.072852 3.1493 1.6891 1.5833 1.7548-1.5808 0.066313-0.79636 0.71906-2.5054 0.66438-1.7091-0.054682-1.2993-0.42599-2.4948-0.43592-1.1955-0.0099298-3.3609-1.5984-1.9837-1.8054 1.2636-0.18998 1.0941-0.49181 1.5913-0.6792 0.092045-0.034691 0.059331-0.38276 0.2104-0.40817 0.16449-0.02767 0.51947 0.26831 0.78693 0.2552z" fill="#a9a9a9"/>
 <path transform="scale(.26458)" d="m13.688 14.516c-0.37232-9.7e-5 -0.77436 0.009939-1.209 0.03125-6.1792 0.30298-3.8779 1.7646-7.9336 2.7852 1.7637 1.015 3.8254 1.7797 5.4277 1.793 4.5186 0.03753 2.9702 1.4398 9.4297 1.6465 5.9786 0.19129 3.889-1.9076 8.2812-2.4199-1.3896-0.72731-3.0064-1.2555-4.5762-1.332-4.8448-0.23632-3.8351-2.5024-9.4199-2.5039z" fill="#6c6c6c"/>
 <path d="m2.5835 3.8992 1.1205 0.18458 0.084262-0.019638-0.82885-0.26713z" fill="#a9a9a9"/>
 <g fill="none" stroke="#6c6c6c" stroke-linecap="round" stroke-opacity=".57962" stroke-width=".26458">
  <path d="m5.2626 3.1223v1.3268"/>
  <path d="m4.485 2.7934v1.3268"/>
  <path d="m1.6559 3.1867v1.3268"/>
  <path d="m2.4192 2.7023v1.3268"/>
 </g>
 <path d="m6.6437 3.3695v1.3268" fill="none" stroke="#6c6c6c" stroke-linecap="round" stroke-opacity=".57962" stroke-width=".26458"/>
 <path d="m2.2309 5.908s0.022933-0.27226 0.29487-0.27215c0.27193 1.124e-4 0.29119 0.2798 0.29119 0.2798s-0.027613 0.080294-0.29648 0.076032c-0.26886-0.00426-0.28958-0.083685-0.28958-0.083685z" fill="#6c6c6c"/>
 <path d="m2.6384 2.0015 1.6517 1.0522 0.034514-0.56278z" fill="#a9a9a9"/>
 <g fill="#6c6c6c">
  <path d="m7.4487 2.9077s0.022933-0.27226 0.29487-0.27215c0.27193 1.124e-4 0.29119 0.2798 0.29119 0.2798s-0.027613 0.080294-0.29648 0.076032c-0.26886-0.00426-0.28958-0.083685-0.28958-0.083685z"/>
  <path d="m7.8495 3.3802s0.022933-0.27226 0.29487-0.27215c0.27193 1.124e-4 0.29119 0.2798 0.29119 0.2798s-0.027613 0.080294-0.29648 0.076032c-0.26886-0.00426-0.28958-0.083685-0.28958-0.083685z"/>
  <path d="m2.6696 6.0162s0.014176-0.16829 0.18227-0.16822c0.16809 6.95e-5 0.17999 0.17295 0.17999 0.17295s-0.017068 0.049632-0.18326 0.046998c-0.16619-0.00263-0.179-0.051728-0.179-0.051728z"/>
  <path d="m7.1944 3.1801s0.014176-0.16829 0.18227-0.16822c0.16809 6.95e-5 0.17999 0.17295 0.17999 0.17295s-0.017068 0.049632-0.18326 0.046998c-0.16619-0.00263-0.179-0.051728-0.179-0.051728z"/>
  <path d="m7.9071 3.0004s0.014176-0.16829 0.18227-0.16822c0.16809 6.95e-5 0.17999 0.17295 0.17999 0.17295s-0.017068 0.049632-0.18326 0.046998c-0.16619-0.00263-0.179-0.051728-0.179-0.051728z"/>
  <path d="m7.6551 3.5003s0.014176-0.16829 0.18227-0.16822c0.16809 6.95e-5 0.17999 0.17295 0.17999 0.17295s-0.017068 0.049632-0.18326 0.046998c-0.16619-0.00263-0.179-0.051728-0.179-0.051728z"/>
  <path d="m1.6417 6.3469s0.014176-0.16829 0.18227-0.16822c0.16809 6.95e-5 0.17999 0.17295 0.17999 0.17295s-0.017068 0.049632-0.18326 0.046998c-0.16619-0.00263-0.179-0.051728-0.179-0.051728z"/>
  <path d="m6.0237 6.9343s0.014176-0.16829 0.18227-0.16822c0.16809 6.96e-5 0.17999 0.17295 0.17999 0.17295s-0.017068 0.049632-0.18326 0.046998c-0.16619-0.00263-0.179-0.051728-0.179-0.051728z"/>
 </g>
 <path d="m3.3386 4.5395s0.014176-0.16829 0.18227-0.16822c0.16809 6.95e-5 0.17999 0.17295 0.17999 0.17295s-0.017068 0.049632-0.18326 0.046998c-0.16619-0.00263-0.179-0.051728-0.179-0.051729z" fill="#2f2f2f"/>
 <path d="m1.3366 1.619 0.066743-0.12418 0.5978 0.00399 0.059122 0.1222-0.37676 0.30586z" fill="#3a3a3a"/>
 <path d="m2.7186 2.0549-0.31393 0.12115 0.95495 0.39347 0.52992 0.32241 0.078189 0.16108-0.1513 0.1103-0.96973 0.18252-0.24412 0.11846 0.041843 0.17902 0.82193 0.33242 0.31454-0.12515-0.61906-0.20698-0.17962-0.098212 0.093306-0.05261 0.75392-0.098381 0.36554-0.14753 0.088245-0.143-0.047209-0.18022-0.37289-0.32665z" fill="#777"/>
 <g fill="none">
  <path d="m3.9349 4.0986s-1.561-0.37472-1.3138-0.63999c0.24715-0.26527 1.604-0.19015 1.302-0.51861-0.302-0.32846-1.6781-0.83458-1.6781-0.83458" stroke="#4a4a4a" stroke-width=".066146"/>
  <path d="m4.2125 3.9751s-1.583-0.41173-1.1313-0.47537c0.35901-0.050591 1.8096-0.1221 0.92453-0.79527-0.35515-0.27011-1.4704-0.73284-1.4704-0.73284" stroke="#4a4a4a" stroke-width=".066146"/>
  <g stroke="#604c22">
   <path d="m2.3073 2.2056 0.48456-0.19199" stroke-width=".066146"/>
   <g stroke-width=".066146">
    <path d="m2.5374 2.3005 0.48456-0.19199"/>
    <path d="m2.7917 2.4236 0.48456-0.19199"/>
    <path d="m3.057 2.5466 0.48456-0.19199"/>
    <path d="m3.3201 2.668 0.48456-0.19199"/>
    <path d="m3.5712 2.8016 0.48456-0.19199"/>
    <path d="m3.7772 2.9545 0.50452-0.13083"/>
    <path d="m3.8234 3.0705 0.50243 0.13863"/>
    <path d="m3.5789 3.1391 0.44474 0.27177"/>
   </g>
  </g>
 </g>
 <g transform="matrix(2.6628 -.18978 .18978 2.6628 -2.9666 .2778)" stroke-width=".37459">
  <path d="m2.6842 1.292s0.00225-0.040521 0.027934-0.044905c0.025689-0.00439 0.02799-0.047548 0.045799-0.048152 0.017809-6.033e-4 0.0221-0.043713 0.0221-0.043713l0.043052 0.00173s-0.00419-0.044511 0.021405-0.048037c0.025596-0.00353 0.032878 0.032054 0.049176 0.030391 0.016298-0.00166 0.063261-0.034904 0.063261-0.034904s0.0422 0.029651 0.049354 0.025322c0.00715-0.00433 0.051822-0.023669 0.051822-0.023669s0.025234 0.00925 0.025234 0.044134c0 0.034882 0.052367 0.027109 0.061816 0.050073 0.00945 0.022963 0.029389 0.054583 0.029389 0.054583l0.011668 0.071541z" fill="#aaa12e"/>
  <rect transform="rotate(43.096)" x="2.8586" y="-.95984" width=".044249" height=".041378" fill="#827b29"/>
  <rect transform="rotate(43.096)" x="2.9423" y="-1.0515" width=".044249" height=".041378" fill="#c5bb45"/>
  <rect transform="rotate(43.096)" x="3.0473" y="-1.1425" width=".044249" height=".041378" fill="#827b29"/>
  <rect transform="rotate(43.096)" x="2.8535" y="-1.05" width=".044249" height=".041378" fill="#c5bb45"/>
  <rect transform="rotate(43.096)" x="2.9769" y="-1.2233" width=".044249" height=".041378" fill="#c5bb45"/>
  <g fill="#827b29">
   <rect transform="rotate(43.096)" x="3.0527" y="-1.2045" width=".044249" height=".041378"/>
   <rect transform="rotate(43.096)" x="2.9752" y="-1.1178" width=".044249" height=".041378"/>
   <rect transform="rotate(43.096)" x="2.8886" y="-1.1302" width=".044249" height=".041378"/>
  </g>
  <rect transform="rotate(43.096)" x="2.9519" y="-1.1667" width=".044249" height=".041378" fill="#c5bb45"/>
  <rect transform="rotate(43.096)" x="3.1077" y="-1.2362" width=".044249" height=".041378" fill="#c5bb45"/>
 </g>
 <g fill="none">
  <g transform="translate(.56768 -.27648)" stroke="#735b29">
   <path d="m6.0794 2.6947v-0.40081h0.96403v0.42298" stroke-linejoin="round" stroke-width=".26458px"/>
   <path d="m6.0794 2.2938 0.46381-1.1145 0.50022 1.1145" stroke-linejoin="round" stroke-width=".26458"/>
   <path d="m7.3688 0.98371-3.3156 0.44788" stroke-width=".26458px"/>
   <path d="m4.5309 1.3855v1.8103" stroke-width=".13229"/>
   <path d="m4.1714 3.5636 0.3595-0.3678 0.31384 0.35207" stroke-width=".13229"/>
   <path d="m3.8175 3.5901h1.4604" stroke-width=".26458px"/>
   <path d="m7.0435 2.2938-0.73504-0.61961" stroke-width=".13229"/>
   <path d="m6.0794 2.2938 0.75061-0.62312" stroke-width=".13229"/>
  </g>
  <g stroke="#604c22" stroke-width=".066146">
   <path d="m3.2655 3.1922 0.44474 0.27177"/>
   <path d="m2.9407 3.2561 0.44474 0.27177"/>
   <path d="m2.534 3.5474 0.5212 5.994e-4"/>
   <path d="m2.7914 3.8093 0.48304-0.19578"/>
  </g>
  <g transform="matrix(-1 0 0 1 7.4098 2.7904)" stroke="#735b29">
   <path d="m6.0794 2.6947v-0.40081h0.96403v0.42298" stroke-linejoin="round" stroke-width=".26458px"/>
   <path d="m6.0794 2.2938 0.46381-1.1145 0.50022 1.1145" stroke-linejoin="round" stroke-width=".26458"/>
   <path d="m7.3084 1.4245-2.9229-1.2997" stroke-width=".26458px"/>
   <g stroke-width=".13229">
    <path d="m4.5309 0.26835v2.0086"/>
    <path d="m7.0435 2.2938-0.73504-0.61961"/>
    <path d="m6.0794 2.2938 0.75061-0.62312"/>
   </g>
  </g>
  <g stroke="#604c22" stroke-width=".066146">
   <path d="m3.0998 3.9133 0.48304-0.19578"/>
   <path d="m3.4034 4.006 0.48304-0.19578"/>
   <path d="m3.704 4.0838 0.48304-0.19578"/>
  </g>
  <path d="m1.2309 1.744 0.36568 0.17822" stroke="#3a3a3a" stroke-width=".066146"/>
 </g>
 <g>
  <path d="m1.4029 1.6278s0.00271-0.048789 0.033634-0.054067c0.030931-0.00529 0.033701-0.05725 0.055144-0.057977 0.021443-7.264e-4 0.026609-0.052632 0.026609-0.052632l0.051836 0.00208s-0.00504-0.053593 0.025772-0.057838c0.030819-0.00425 0.039586 0.038594 0.05921 0.036592 0.019624-2e-3 0.076169-0.042026 0.076169-0.042026s0.050811 0.035701 0.059424 0.030489c0.00861-0.00521 0.062396-0.028498 0.062396-0.028498s0.030383 0.011137 0.030383 0.053139c0 0.041999 0.063052 0.03264 0.074429 0.06029 0.011378 0.027648 0.035386 0.06572 0.035386 0.06572l0.014049 0.086138z" fill="#aaa12e"/>
  <rect transform="rotate(43.096)" x="2.1555" y=".14659" width=".053277" height=".04982" fill="#827b29"/>
  <rect transform="rotate(43.096)" x="2.2563" y=".036184" width=".053277" height=".04982" fill="#c5bb45"/>
  <rect transform="rotate(43.096)" x="2.3829" y="-.073297" width=".053277" height=".04982" fill="#827b29"/>
  <path d="m1.4201 2.0111 0.55349-0.0055867 0.086646-0.38451-0.72367-0.0020108z" fill="#6c6c6c"/>
  <circle cx="1.5478" cy="1.9802" r=".096534" fill="#a9a9a9"/>
  <circle cx="1.8452" cy="1.9761" r=".096534" fill="#a9a9a9"/>
  <rect transform="rotate(43.096)" x="2.1494" y=".037981" width=".053277" height=".04982" fill="#c5bb45"/>
  <rect transform="rotate(43.096)" x="2.2981" y="-.17066" width=".053277" height=".04982" fill="#c5bb45"/>
 </g>
 <g fill="#827b29">
  <rect transform="rotate(43.096)" x="2.3893" y="-.14795" width=".053277" height=".04982"/>
  <rect transform="rotate(43.096)" x="2.296" y="-.043644" width=".053277" height=".04982"/>
  <rect transform="rotate(43.096)" x="2.1917" y="-.058555" width=".053277" height=".04982"/>
 </g>
 <g>
  <rect transform="rotate(43.096)" x="2.268" y="-.10242" width=".053277" height=".04982" fill="#c5bb45"/>
  <rect transform="rotate(43.096)" x="2.4555" y="-.18613" width=".053277" height=".04982" fill="#c5bb45"/>
  <path d="m4.1209 6.0887-0.066743-0.12418-0.5978 0.00399-0.059122 0.1222 0.37676 0.30586z" fill="#3a3a3a"/>
 </g>
 <path d="m4.2265 6.2137-0.36568 0.17822" fill="none" stroke="#3a3a3a" stroke-width=".066146"/>
 <g>
  <path d="m4.0545 6.0975s-0.00271-0.048789-0.033634-0.054067c-0.030931-0.00529-0.033701-0.05725-0.055144-0.057977-0.021443-7.264e-4 -0.026609-0.052632-0.026609-0.052632l-0.051836 0.00208s0.00504-0.053593-0.025772-0.057838c-0.030819-0.00425-0.039586 0.038594-0.05921 0.036592-0.019624-2e-3 -0.076169-0.042026-0.076169-0.042026s-0.050811 0.035701-0.059424 0.030489c-0.00861-0.00521-0.062396-0.028498-0.062396-0.028498s-0.030383 0.011137-0.030383 0.053139c0 0.041999-0.063052 0.03264-0.074429 0.06029-0.011378 0.027648-0.035386 0.06572-0.035386 0.06572l-0.014049 0.086138z" fill="#aaa12e"/>
  <rect transform="matrix(-.73021 .68323 .68323 .73021 0 0)" x="1.2243" y="7.1391" width=".053277" height=".04982" fill="#827b29"/>
  <rect transform="matrix(-.73021 .68323 .68323 .73021 0 0)" x="1.3251" y="7.0287" width=".053277" height=".04982" fill="#c5bb45"/>
  <rect transform="matrix(-.73021 .68323 .68323 .73021 0 0)" x="1.4516" y="6.9192" width=".053277" height=".04982" fill="#827b29"/>
  <path d="m4.0374 6.4808-0.55349-0.0055867-0.086646-0.38451 0.72367-0.0020108z" fill="#6c6c6c"/>
  <circle transform="scale(-1,1)" cx="-3.9097" cy="6.4499" r=".096534" fill="#a9a9a9"/>
  <circle transform="scale(-1,1)" cx="-3.6123" cy="6.4458" r=".096534" fill="#a9a9a9"/>
  <rect transform="matrix(-.73021 .68323 .68323 .73021 0 0)" x="1.2181" y="7.0305" width=".053277" height=".04982" fill="#c5bb45"/>
  <rect transform="matrix(-.73021 .68323 .68323 .73021 0 0)" x="1.3668" y="6.8218" width=".053277" height=".04982" fill="#c5bb45"/>
 </g>
 <g fill="#827b29">
  <rect transform="matrix(-.73021 .68323 .68323 .73021 0 0)" x="1.458" y="6.8445" width=".053277" height=".04982"/>
  <rect transform="matrix(-.73021 .68323 .68323 .73021 0 0)" x="1.3647" y="6.9488" width=".053277" height=".04982"/>
  <rect transform="matrix(-.73021 .68323 .68323 .73021 0 0)" x="1.2605" y="6.9339" width=".053277" height=".04982"/>
 </g>
 <rect transform="matrix(-.73021 .68323 .68323 .73021 0 0)" x="1.3367" y="6.8901" width=".053277" height=".04982" fill="#c5bb45"/>
 <rect transform="matrix(-.73021 .68323 .68323 .73021 0 0)" x="1.5243" y="6.8064" width=".053277" height=".04982" fill="#c5bb45"/>
 <g transform="matrix(1.612 -.11488 .11488 1.612 -.18809 3.3061)" stroke-width=".61878">
  <path d="m2.6842 1.292s0.00225-0.040521 0.027934-0.044905c0.025689-0.00439 0.02799-0.047548 0.045799-0.048152 0.017809-6.033e-4 0.0221-0.043713 0.0221-0.043713l0.043052 0.00173s-0.00419-0.044511 0.021405-0.048037c0.025596-0.00353 0.032878 0.032054 0.049176 0.030391 0.016298-0.00166 0.063261-0.034904 0.063261-0.034904s0.0422 0.029651 0.049354 0.025322c0.00715-0.00433 0.051822-0.023669 0.051822-0.023669s0.025234 0.00925 0.025234 0.044134c0 0.034882 0.052367 0.027109 0.061816 0.050073 0.00945 0.022963 0.029389 0.054583 0.029389 0.054583l0.011668 0.071541z" fill="#aaa12e"/>
  <rect transform="rotate(43.096)" x="2.8586" y="-.95984" width=".044249" height=".041378" fill="#827b29"/>
  <rect transform="rotate(43.096)" x="2.9423" y="-1.0515" width=".044249" height=".041378" fill="#c5bb45"/>
  <rect transform="rotate(43.096)" x="3.0473" y="-1.1425" width=".044249" height=".041378" fill="#827b29"/>
  <rect transform="rotate(43.096)" x="2.8535" y="-1.05" width=".044249" height=".041378" fill="#c5bb45"/>
  <rect transform="rotate(43.096)" x="2.9769" y="-1.2233" width=".044249" height=".041378" fill="#c5bb45"/>
  <g fill="#827b29">
   <rect transform="rotate(43.096)" x="3.0527" y="-1.2045" width=".044249" height=".041378"/>
   <rect transform="rotate(43.096)" x="2.9752" y="-1.1178" width=".044249" height=".041378"/>
   <rect transform="rotate(43.096)" x="2.8886" y="-1.1302" width=".044249" height=".041378"/>
  </g>
  <rect transform="rotate(43.096)" x="2.9519" y="-1.1667" width=".044249" height=".041378" fill="#c5bb45"/>
  <rect transform="rotate(43.096)" x="3.1077" y="-1.2362" width=".044249" height=".041378" fill="#c5bb45"/>
 </g>
 <g stroke-width=".71002">
  <g transform="matrix(-1.4065 -.07428 -.07428 1.4065 11.583 3.8879)">
   <path d="m2.6842 1.292s0.00225-0.040521 0.027934-0.044905c0.025689-0.00439 0.02799-0.047548 0.045799-0.048152 0.017809-6.033e-4 0.0221-0.043713 0.0221-0.043713l0.043052 0.00173s-0.00419-0.044511 0.021405-0.048037c0.025596-0.00353 0.032878 0.032054 0.049176 0.030391 0.016298-0.00166 0.063261-0.034904 0.063261-0.034904s0.0422 0.029651 0.049354 0.025322c0.00715-0.00433 0.051822-0.023669 0.051822-0.023669s0.025234 0.00925 0.025234 0.044134c0 0.034882 0.052367 0.027109 0.061816 0.050073 0.00945 0.022963 0.029389 0.054583 0.029389 0.054583l0.011668 0.071541z" fill="#aaa12e"/>
   <rect transform="rotate(43.096)" x="2.8586" y="-.95984" width=".044249" height=".041378" fill="#827b29"/>
   <rect transform="rotate(43.096)" x="2.9423" y="-1.0515" width=".044249" height=".041378" fill="#c5bb45"/>
   <rect transform="rotate(43.096)" x="3.0473" y="-1.1425" width=".044249" height=".041378" fill="#827b29"/>
   <rect transform="rotate(43.096)" x="2.8535" y="-1.05" width=".044249" height=".041378" fill="#c5bb45"/>
   <rect transform="rotate(43.096)" x="2.9769" y="-1.2233" width=".044249" height=".041378" fill="#c5bb45"/>
   <g fill="#827b29">
    <rect transform="rotate(43.096)" x="3.0527" y="-1.2045" width=".044249" height=".041378"/>
    <rect transform="rotate(43.096)" x="2.9752" y="-1.1178" width=".044249" height=".041378"/>
    <rect transform="rotate(43.096)" x="2.8886" y="-1.1302" width=".044249" height=".041378"/>
   </g>
   <rect transform="rotate(43.096)" x="2.9519" y="-1.1667" width=".044249" height=".041378" fill="#c5bb45"/>
   <rect transform="rotate(43.096)" x="3.1077" y="-1.2362" width=".044249" height=".041378" fill="#c5bb45"/>
  </g>
  <g transform="matrix(-1.4065 -.07428 -.07428 1.4065 5.0523 .81329)">
   <path d="m2.6842 1.292s0.00225-0.040521 0.027934-0.044905c0.025689-0.00439 0.02799-0.047548 0.045799-0.048152 0.017809-6.033e-4 0.0221-0.043713 0.0221-0.043713l0.043052 0.00173s-0.00419-0.044511 0.021405-0.048037c0.025596-0.00353 0.032878 0.032054 0.049176 0.030391 0.016298-0.00166 0.063261-0.034904 0.063261-0.034904s0.0422 0.029651 0.049354 0.025322c0.00715-0.00433 0.051822-0.023669 0.051822-0.023669s0.025234 0.00925 0.025234 0.044134c0 0.034882 0.052367 0.027109 0.061816 0.050073 0.00945 0.022963 0.029389 0.054583 0.029389 0.054583l0.011668 0.071541z" fill="#aaa12e"/>
   <rect transform="rotate(43.096)" x="2.8586" y="-.95984" width=".044249" height=".041378" fill="#827b29"/>
   <rect transform="rotate(43.096)" x="2.9423" y="-1.0515" width=".044249" height=".041378" fill="#c5bb45"/>
   <rect transform="rotate(43.096)" x="3.0473" y="-1.1425" width=".044249" height=".041378" fill="#827b29"/>
   <rect transform="rotate(43.096)" x="2.8535" y="-1.05" width=".044249" height=".041378" fill="#c5bb45"/>
   <rect transform="rotate(43.096)" x="2.9769" y="-1.2233" width=".044249" height=".041378" fill="#c5bb45"/>
   <g fill="#827b29">
    <rect transform="rotate(43.096)" x="3.0527" y="-1.2045" width=".044249" height=".041378"/>
    <rect transform="rotate(43.096)" x="2.9752" y="-1.1178" width=".044249" height=".041378"/>
    <rect transform="rotate(43.096)" x="2.8886" y="-1.1302" width=".044249" height=".041378"/>
   </g>
   <rect transform="rotate(43.096)" x="2.9519" y="-1.1667" width=".044249" height=".041378" fill="#c5bb45"/>
   <rect transform="rotate(43.096)" x="3.1077" y="-1.2362" width=".044249" height=".041378" fill="#c5bb45"/>
  </g>
  <g transform="matrix(1.4065 -.07428 .07428 1.4065 2.7711 4.0378)">
   <path d="m2.6842 1.292s0.00225-0.040521 0.027934-0.044905c0.025689-0.00439 0.02799-0.047548 0.045799-0.048152 0.017809-6.033e-4 0.0221-0.043713 0.0221-0.043713l0.043052 0.00173s-0.00419-0.044511 0.021405-0.048037c0.025596-0.00353 0.032878 0.032054 0.049176 0.030391 0.016298-0.00166 0.063261-0.034904 0.063261-0.034904s0.0422 0.029651 0.049354 0.025322c0.00715-0.00433 0.051822-0.023669 0.051822-0.023669s0.025234 0.00925 0.025234 0.044134c0 0.034882 0.052367 0.027109 0.061816 0.050073 0.00945 0.022963 0.029389 0.054583 0.029389 0.054583l0.011668 0.071541z" fill="#aaa12e"/>
   <rect transform="rotate(43.096)" x="2.8586" y="-.95984" width=".044249" height=".041378" fill="#827b29"/>
   <rect transform="rotate(43.096)" x="2.9423" y="-1.0515" width=".044249" height=".041378" fill="#c5bb45"/>
   <rect transform="rotate(43.096)" x="3.0473" y="-1.1425" width=".044249" height=".041378" fill="#827b29"/>
   <rect transform="rotate(43.096)" x="2.8535" y="-1.05" width=".044249" height=".041378" fill="#c5bb45"/>
   <rect transform="rotate(43.096)" x="2.9769" y="-1.2233" width=".044249" height=".041378" fill="#c5bb45"/>
   <g fill="#827b29">
    <rect transform="rotate(43.096)" x="3.0527" y="-1.2045" width=".044249" height=".041378"/>
    <rect transform="rotate(43.096)" x="2.9752" y="-1.1178" width=".044249" height=".041378"/>
    <rect transform="rotate(43.096)" x="2.8886" y="-1.1302" width=".044249" height=".041378"/>
   </g>
   <rect transform="rotate(43.096)" x="2.9519" y="-1.1667" width=".044249" height=".041378" fill="#c5bb45"/>
   <rect transform="rotate(43.096)" x="3.1077" y="-1.2362" width=".044249" height=".041378" fill="#c5bb45"/>
  </g>
 </g>
 <path d="m5.7258 4.472s0.021473-0.61674 0.36825-0.58802c0.34678 0.02872 0.31939 0.65854 0.31939 0.65854z" fill="#2f2f2f"/>
 <g transform="matrix(1.7227 -.090981 .090981 1.7227 -4.1932 4.1774)" stroke-width=".57968">
  <path d="m2.6842 1.292s0.00225-0.040521 0.027934-0.044905c0.025689-0.00439 0.02799-0.047548 0.045799-0.048152 0.017809-6.033e-4 0.0221-0.043713 0.0221-0.043713l0.043052 0.00173s-0.00419-0.044511 0.021405-0.048037c0.025596-0.00353 0.032878 0.032054 0.049176 0.030391 0.016298-0.00166 0.063261-0.034904 0.063261-0.034904s0.0422 0.029651 0.049354 0.025322c0.00715-0.00433 0.051822-0.023669 0.051822-0.023669s0.025234 0.00925 0.025234 0.044134c0 0.034882 0.052367 0.027109 0.061816 0.050073 0.00945 0.022963 0.029389 0.054583 0.029389 0.054583l0.011668 0.071541z" fill="#aaa12e"/>
  <rect transform="rotate(43.096)" x="2.8586" y="-.95984" width=".044249" height=".041378" fill="#827b29"/>
  <rect transform="rotate(43.096)" x="2.9423" y="-1.0515" width=".044249" height=".041378" fill="#c5bb45"/>
  <rect transform="rotate(43.096)" x="3.0473" y="-1.1425" width=".044249" height=".041378" fill="#827b29"/>
  <rect transform="rotate(43.096)" x="2.8535" y="-1.05" width=".044249" height=".041378" fill="#c5bb45"/>
  <rect transform="rotate(43.096)" x="2.9769" y="-1.2233" width=".044249" height=".041378" fill="#c5bb45"/>
  <g fill="#827b29">
   <rect transform="rotate(43.096)" x="3.0527" y="-1.2045" width=".044249" height=".041378"/>
   <rect transform="rotate(43.096)" x="2.9752" y="-1.1178" width=".044249" height=".041378"/>
   <rect transform="rotate(43.096)" x="2.8886" y="-1.1302" width=".044249" height=".041378"/>
  </g>
  <rect transform="rotate(43.096)" x="2.9519" y="-1.1667" width=".044249" height=".041378" fill="#c5bb45"/>
  <rect transform="rotate(43.096)" x="3.1077" y="-1.2362" width=".044249" height=".041378" fill="#c5bb45"/>
 </g>
</svg>
