<?xml version="1.0" encoding="UTF-8"?>
<svg width="32" height="32" version="1.1" viewBox="0 0 8.4667 8.4667" xmlns="http://www.w3.org/2000/svg">
 <path d="m2.147 4.0395-0.41211-1.5516h1.8089l-0.40358 1.5516z" fill="#241907"/>
 <g>
  <path d="m5.8993 2.642s0.043528 0.16418-0.039729 0.24136c-0.083257 0.077185-0.18033 0.49191 0.091074 0.48183 0.2714-0.010078 0.15414-0.32217 0.097503-0.43337-0.056639-0.1112-0.038542-0.30556-0.038542-0.30556" fill="#7d381b"/>
  <path d="m6.7021 2.7144s0.028935 0.19069-0.066716 0.2229c-0.095651 0.032217-0.045961 0.26334 0.34526 0.27728 0.39122 0.013944 0.59815-0.11439 0.46408-0.19559-0.13406-0.081198-0.093976-0.31327-0.093976-0.31327l-0.11343-0.024845s0.086627 0.24172-0.068287 0.24172c-0.15491 0-0.39332-0.00699-0.39332-0.056992 0-0.050007 0.017174-0.18844 0.017174-0.18844" fill="#947537"/>
  <path d="m6.4335 2.6773s-0.043528 0.25073 0.039729 0.36861c0.083257 0.11788 0.27031 0.74971-0.091074 0.73586-0.375-0.014368-0.14741-0.57698-0.090772-0.74681 0.056639-0.16983 0.031811-0.3817 0.031811-0.3817" fill="#7d381b"/>
 </g>
 <path d="m5.4371 2.6426 2.3134 0.042878" fill="none" stroke="#969696" stroke-width=".088107"/>
 <path d="m1.2094 1.8895-6.93e-5 2.1552 0.49307-0.13446 0.44463 0.13446v-1.3652h0.99316v1.3652l1.2065-0.0862 1.2892 0.0862 1.912e-4 -2.1552-1.8037-0.30035z" fill="#563c11"/>
 <g transform="translate(0 -288.31)" fill="#9a6c1f" stroke-linecap="round" stroke-linejoin="round" stroke-width=".26458">
  <path d="m1.2093 292.06v0.28967h0.9377v-0.28967zm1.9309 0v0.28967h2.4957v-0.28967z"/>
  <path d="m1.2093 291.71v0.28967h0.9377v-0.28967zm1.9309 0v0.28967h2.4957v-0.28967z"/>
  <path d="m1.2093 291.35v0.28924h0.9377v-0.28924zm1.9309 0v0.28924h2.4957v-0.28924z"/>
  <path d="m1.2093 290.99v0.28967h0.9377v-0.28967zm1.9309 0v0.28967h2.4957v-0.28967z"/>
  <rect x="1.2094" y="290.63" width="4.4267" height=".2896"/>
  <rect x="1.2094" y="290.27" width="4.4267" height=".2896"/>
 </g>
 <path d="m1.2094 0.44951 4.4267-1e-5v1.4399l-4.4267 1e-5z" fill="#dac446" stroke-linecap="round" stroke-linejoin="round" stroke-width=".26458"/>
 <g transform="translate(0 -288.31)" fill="#563c11">
  <rect x="1.2094" y="290.2" width=".10904" height="2.1487"/>
  <rect x="2.038" y="290.95" width=".10904" height="1.3986"/>
  <rect x="3.1402" y="290.95" width=".10904" height="1.3986"/>
  <rect x="1.6412" y="290.2" width=".10904" height=".19306"/>
  <rect x="2.0729" y="290.2" width=".10904" height=".19306"/>
  <rect x="2.5047" y="290.2" width=".10904" height=".19306"/>
  <rect x="2.9365" y="290.2" width=".10904" height=".19306"/>
  <rect x="3.3683" y="290.2" width=".10904" height=".19306"/>
  <rect x="3.8001" y="290.2" width=".10904" height=".19306"/>
  <rect x="4.2318" y="290.2" width=".10904" height=".19306"/>
  <rect x="4.6636" y="290.2" width=".10904" height=".19306"/>
  <rect x="5.0954" y="290.2" width=".10904" height=".19306"/>
  <rect x="5.5272" y="290.2" width=".10904" height="2.1487"/>
 </g>
 <path d="m5.1995 4.9651v0.54866s-0.00762 0.16023-0.4115 0.15241c-0.40387-8e-3 -0.4115-0.14479-0.4115-0.14479v-0.54866" fill="#6c4e17"/>
 <path d="m4.788 5.1251c0.40388 8e-3 0.4115-0.1524 0.4115-0.1524s-0.00782-0.13716-0.41149-0.14478c-0.40388-8e-3 -0.4115 0.1524-0.4115 0.1524s0.00762 0.13716 0.41149 0.14478z" fill="#9e7222"/>
 <g transform="matrix(1.0922 .71132 -.71132 1.0922 205.6 -321.13)" stroke-width=".76723">
  <rect x="6.8536" y="293.58" width=".58758" height=".073082" fill="#644815"/>
  <path d="m7.2468 293.56h0.15055v0.19085l-0.045574 0.0269h-0.10497z" fill="#a3a3a3" stroke-linecap="round" stroke-linejoin="round" stroke-width=".203"/>
 </g>
 <path d="m4.4395 5.6851-0.43849-0.0175-0.011692 0.21632h0.5028z" fill="#8d661e"/>
 <path d="m5.5008 6.0351-0.43565-0.0175-0.046771 0.21632h0.5028z" fill="#8d661e"/>
 <path d="m4.5959 5.8551-0.42241 3e-3 -0.011692 0.1944 0.42095 1e-3z" fill="#7c591b"/>
 <path d="m3.8023 5.8751 0.43849-0.0175 0.011692 0.21632h-0.5028z" fill="#6b4d17"/>
 <path d="m0.69453 6.11 1.8025 0.13229-0.049609 0.57878-1.819-0.13229s-0.078427-0.0439-0.050946-0.2932c0.027482-0.24928 0.11709-0.28558 0.11709-0.28558z" fill="#8b641e"/>
 <ellipse transform="rotate(3.2705)" cx="2.8384" cy="6.3699" rx=".12504" ry=".29041" fill="#604515"/>
 <path d="m1.2402 6.18 0.011194-0.10748 0.11191 8e-3 -0.016787 0.1323" fill="#8b641e"/>
 <path d="m7.7294 4.0851v-1.6028" fill="none" stroke="#563c11" stroke-width=".19844"/>
 <ellipse cx="6.8466" cy="5.0972" rx=".59073" ry=".23232" fill="none" stroke="#626262" stroke-linecap="round" stroke-linejoin="round" stroke-width=".088107"/>
 <path d="m6.6011 5.295 0.46344-0.41022" fill="none" stroke="#626262" stroke-width=".088107"/>
 <ellipse cx="6.8356" cy="5.0953" rx=".20639" ry=".068797" fill="#626262"/>
 <g fill="none" stroke="#626262" stroke-width=".088107">
  <path d="m7.2659 4.9367v-0.12189"/>
  <path d="m6.8735 5.3132v-0.12189"/>
  <path d="m7.0728 5.2996v-0.12189"/>
  <path d="m7.2406 5.2494v-0.12189"/>
  <path d="m7.379 5.1838v-0.12189"/>
  <path d="m7.4063 5.027v-0.12189"/>
  <path d="m6.4332 5.1268v0.12189"/>
  <path d="m6.8424 4.7502v0.12189"/>
  <path d="m6.6431 4.7638v0.12189"/>
  <path d="m6.4753 4.8141v0.12189"/>
  <path d="m6.3369 4.8796v0.12189"/>
  <path d="m6.2928 5.0365v0.12189"/>
 </g>
 <g transform="matrix(-1 0 0 1 14.631 .70085)">
  <ellipse cx="6.8466" cy="5.0972" rx=".59073" ry=".23232" fill="none" stroke="#626262" stroke-linecap="round" stroke-linejoin="round" stroke-width=".088107"/>
  <path d="m6.6011 5.295 0.46344-0.41022" fill="none" stroke="#626262" stroke-width=".088107"/>
  <ellipse cx="6.8356" cy="5.0953" rx=".20639" ry=".068797" fill="#626262"/>
  <g fill="none" stroke="#626262" stroke-width=".088107">
   <path d="m7.2659 4.9367v-0.12189"/>
   <path d="m6.8735 5.3132v-0.12189"/>
   <path d="m7.0728 5.2996v-0.12189"/>
   <path d="m7.2406 5.2494v-0.12189"/>
   <path d="m7.379 5.1838v-0.12189"/>
   <path d="m7.4063 5.027v-0.12189"/>
   <path d="m6.4332 5.1268v0.12189"/>
   <path d="m6.8424 4.7502v0.12189"/>
   <path d="m6.6431 4.7638v0.12189"/>
   <path d="m6.4753 4.8141v0.12189"/>
   <path d="m6.3369 4.8796v0.12189"/>
   <path d="m6.2928 5.0365v0.12189"/>
  </g>
 </g>
 <g transform="rotate(28.006 .13563 3.8047)" fill="none" stroke-width=".066146">
  <path d="m0.63546 2.6645-0.012626 1.1338" stroke="#757575" stroke-opacity=".49344"/>
  <path d="m0.62284 3.7983s0.027279-0.10513 0.12325-0.14866c0.095966-0.04353 0.18473-0.17303 0.17905-0.45144-0.0056764-0.27841-0.15762-0.32823-0.2189-0.38801-0.061275-0.059782-0.070771-0.1457-0.070771-0.1457" stroke="#7b5619"/>
 </g>
 <rect x="3.746" y="3.2075e-6" width=".94376" height=".94018" fill="#626262"/>
 <rect x="3.8068" y=".050754" width=".8118" height=".27852" fill="#252525"/>
</svg>
