<?xml version="1.0" encoding="UTF-8"?>
<!-- Created with Inkscape (http://www.inkscape.org/) -->
<svg width="32" height="32" version="1.1" viewBox="0 0 8.4667 8.4667" xmlns="http://www.w3.org/2000/svg">
 <g fill="none">
  <path d="m5.8891 2.6419s-0.56789 0.076648-1.0857-0.17437c-0.51785-0.25102-1.3468-0.45942-1.3468-0.45942" stroke="#4a4a4a" stroke-width=".066146"/>
  <path d="m6.1389 2.4426s-0.56789 0.076648-1.0857-0.17437c-0.51785-0.25102-1.3468-0.45942-1.3468-0.45942" stroke="#4a4a4a" stroke-width=".066146"/>
  <path d="m5.4764 2.7184 0.42127-0.30691" stroke="#604c22" stroke-width=".066146"/>
 </g>
 <rect x="5.7973" y="1.6445" width="1.9204" height="1.1327" fill="#b24a4a" stroke-linecap="round" stroke-linejoin="round" stroke-width=".13229"/>
 <rect x="5.7259" y="1.4379" width="2.0749" height=".51976" fill="#686868" stroke-linecap="round" stroke-linejoin="round" stroke-width=".13229"/>
 <path d="m3.2436 2.4223c1.8399-0.090217 1.4447 0.5877 2.812 0.6544 1.4936 0.072852 3.1493 1.6891 1.5833 1.7548-1.5808 0.066313-0.79636 0.71906-2.5054 0.66438-1.7091-0.054682-1.2993-0.42599-2.4948-0.43592-1.1955-0.0099298-3.3609-1.5984-1.9837-1.8054 1.2636-0.18998 1.0941-0.49181 1.5913-0.6792 0.092045-0.034691 0.059331-0.38276 0.2104-0.40817 0.16449-0.02767 0.51947 0.26831 0.78693 0.2552z" fill="#a9a9a9"/>
 <path transform="scale(.26458)" d="m13.688 14.516c-0.37232-9.7e-5 -0.77436 0.009939-1.209 0.03125-6.1792 0.30298-3.8779 1.7646-7.9336 2.7852 1.7637 1.015 3.8254 1.7797 5.4277 1.793 4.5186 0.03753 2.9702 1.4398 9.4297 1.6465 5.9786 0.19129 3.889-1.9076 8.2812-2.4199-1.3896-0.72731-3.0064-1.2555-4.5762-1.332-4.8448-0.23632-3.8351-2.5024-9.4199-2.5039z" fill="#6c6c6c"/>
 <path d="m2.5835 3.8992 1.1205 0.18458 0.084262-0.019638-0.82885-0.26713z" fill="#a9a9a9"/>
 <g fill="none" stroke="#6c6c6c" stroke-linecap="round" stroke-opacity=".57962" stroke-width=".26458">
  <path d="m5.2626 3.1223v1.3268"/>
  <path d="m4.485 2.7934v1.3268"/>
  <path d="m1.6559 3.1867v1.3268"/>
  <path d="m2.4192 2.7023v1.3268"/>
 </g>
 <path d="m6.6437 3.3695v1.3268" fill="none" stroke="#6c6c6c" stroke-linecap="round" stroke-opacity=".57962" stroke-width=".26458"/>
 <path d="m3.8943 4.8635s0.022933-0.27226 0.29487-0.27215c0.27193 1.124e-4 0.29119 0.2798 0.29119 0.2798s-0.027613 0.080294-0.29648 0.076032c-0.26886-0.00426-0.28958-0.083685-0.28958-0.083685z" fill="#3b3b3b"/>
 <path d="m2.6384 2.0015 1.6517 1.0522 0.034514-0.56278z" fill="#a9a9a9"/>
 <path d="m4.333 4.9717s0.014176-0.16829 0.18227-0.16822c0.16809 6.95e-5 0.17999 0.17295 0.17999 0.17295s-0.017068 0.049632-0.18326 0.046998c-0.16619-0.00263-0.179-0.051728-0.179-0.051728z" fill="#3b3b3b"/>
 <path d="m0.84274 2.8422s0.014176-0.16829 0.18227-0.16822c0.16809 6.95e-5 0.17999 0.17295 0.17999 0.17295s-0.017068 0.049632-0.18326 0.046998c-0.16619-0.00263-0.179-0.051728-0.179-0.051728z" fill="#6c6c6c"/>
 <rect x=".1492" y=".71466" width="1.0051" height="1.1327" fill="#b24a4a" stroke-linecap="round" stroke-linejoin="round" stroke-width=".13229"/>
 <path d="m2.7186 2.0549-0.31393 0.12115 0.95495 0.39347 0.52992 0.32241 0.078189 0.16108-0.1513 0.1103-0.96973 0.18252-0.24412 0.11846 0.041843 0.17902 0.82193 0.33242 0.31454-0.12515-0.61906-0.20698-0.17962-0.098212 0.093306-0.05261 0.75392-0.098381 0.36554-0.14753 0.088245-0.143-0.047209-0.18022-0.37289-0.32665z" fill="#777"/>
 <g fill="none">
  <path d="m3.9349 4.0986s-1.561-0.37472-1.3138-0.63999c0.24715-0.26527 1.604-0.19015 1.302-0.51861s-1.6781-0.83458-1.6781-0.83458" stroke="#4a4a4a" stroke-width=".066146"/>
  <path d="m4.2125 3.9751s-1.583-0.41173-1.1313-0.47537c0.35901-0.050591 1.8096-0.1221 0.92453-0.79527-0.35515-0.27011-1.4704-0.73284-1.4704-0.73284" stroke="#4a4a4a" stroke-width=".066146"/>
  <g stroke="#604c22" stroke-width=".066146">
   <path d="m2.3073 2.2056 0.48456-0.19199"/>
   <path d="m2.5374 2.3005 0.48456-0.19199"/>
   <path d="m2.7917 2.4236 0.48456-0.19199"/>
   <path d="m3.057 2.5466 0.48456-0.19199"/>
   <path d="m3.5375 2.1053 0.42127-0.30691"/>
   <path d="m3.8043 2.1945 0.42127-0.30691"/>
   <path d="m4.1061 2.271 0.42127-0.30691"/>
   <path d="m4.3672 2.3845 0.42127-0.30691"/>
   <path d="m4.6464 2.4861 0.42127-0.30691"/>
   <path d="m4.8907 2.5878 0.42127-0.30691"/>
   <path d="m5.1505 2.6664 0.42127-0.30691"/>
   <path d="m3.3201 2.668 0.48456-0.19199"/>
   <path d="m3.5712 2.8016 0.48456-0.19199"/>
   <path d="m3.7772 2.9545 0.50452-0.13083"/>
   <path d="m3.8234 3.0705 0.50243 0.13863"/>
   <path d="m3.5789 3.1391 0.44474 0.27177"/>
   <path d="m3.2655 3.1922 0.44474 0.27177"/>
   <path d="m2.9407 3.2561 0.44474 0.27177"/>
   <path d="m2.534 3.5474 0.5212 5.994e-4"/>
   <path d="m2.7914 3.8093 0.48304-0.19578"/>
  </g>
  <g transform="matrix(-1,0,0,1,7.4098,2.7904)" stroke="#735b29">
   <path d="m6.0794 2.6947v-0.40081h0.96403v0.42298" stroke-linejoin="round" stroke-width=".26458px"/>
   <path d="m6.0794 2.2938 0.46381-1.1145 0.50022 1.1145" stroke-linejoin="round" stroke-width=".26458"/>
   <path d="m7.3084 1.4245-2.9229-1.2997" stroke-width=".26458px"/>
   <g stroke-width=".13229">
    <path d="m4.5309 0.26835v2.0086"/>
    <path d="m7.0435 2.2938-0.73504-0.61961"/>
    <path d="m6.0794 2.2938 0.75061-0.62312"/>
   </g>
  </g>
 </g>
 <path d="m0.97008 5.5672s0.014176-0.16829 0.18227-0.16822c0.16809 6.96e-5 0.17999 0.17295 0.17999 0.17295s-0.017068 0.049632-0.18326 0.046998c-0.16619-0.00263-0.179-0.051728-0.179-0.051728z" fill="#6c6c6c"/>
 <g fill="none" stroke="#604c22" stroke-width=".066146">
  <path d="m3.0998 3.9133 0.48304-0.19578"/>
  <path d="m3.4034 4.006 0.48304-0.19578"/>
  <path d="m3.704 4.0838 0.48304-0.19578"/>
 </g>
 <g transform="translate(-.51708 .18743)">
  <path d="m1.3366 1.619 0.066743-0.12418 0.5978 0.00399 0.059122 0.1222-0.37676 0.30586z" fill="#3a3a3a"/>
  <path d="m1.2309 1.744 0.36568 0.17822" fill="none" stroke="#3a3a3a" stroke-width=".066146"/>
  <path d="m1.4201 2.0111 0.55349-0.00559 0.086646-0.38451-0.72367-0.00201z" fill="#6c6c6c"/>
  <circle cx="1.5478" cy="1.9802" r=".096534" fill="#a9a9a9"/>
  <circle cx="1.8452" cy="1.9761" r=".096534" fill="#a9a9a9"/>
 </g>
 <path d="m3.1364 1.0337-0.066743-0.12418-0.5978 0.00399-0.059122 0.1222 0.37676 0.30586z" fill="#3a3a3a"/>
 <path d="m3.2421 1.1587-0.36568 0.17822" fill="none" stroke="#3a3a3a" stroke-width=".066146"/>
 <path d="m2.4988 1.1571 1.27e-5 -0.2008h0.12848v-0.10228h0.23882v0.09046h0.082245v0.19947z" fill="#a7a7a7"/>
 <path d="m3.0529 1.4258-0.55349-0.00559-0.086646-0.38451 0.72367-0.00201z" fill="#6c6c6c"/>
 <circle transform="scale(-1,1)" cx="-2.9252" cy="1.3949" r=".096534" fill="#a9a9a9"/>
 <circle transform="scale(-1,1)" cx="-2.6278" cy="1.3908" r=".096534" fill="#a9a9a9"/>
 <path d="m7.7837 5.28-0.066743-0.12418-0.5978 0.00399-0.059122 0.1222 0.37676 0.30586z" fill="#3a3a3a"/>
 <path d="m7.8893 5.405-0.36568 0.17822" fill="none" stroke="#3a3a3a" stroke-width=".066146"/>
 <path d="m7.1864 5.3204 1.27e-5 -0.2008h0.12848v-0.10228h0.23882v0.09046h0.082245v0.19947z" fill="#a7a7a7"/>
 <path d="m7.7002 5.6721-0.55349-0.00559-0.086646-0.38451 0.72367-0.00201z" fill="#6c6c6c"/>
 <circle transform="scale(-1,1)" cx="-7.5725" cy="5.6412" r=".096534" fill="#a9a9a9"/>
 <circle transform="scale(-1,1)" cx="-7.2751" cy="5.6371" r=".096534" fill="#a9a9a9"/>
 <path d="m5.7258 4.472s0.021473-0.61674 0.36825-0.58802c0.34678 0.02872 0.31939 0.65854 0.31939 0.65854z" fill="#2f2f2f"/>
 <g>
  <rect x="6.5282" y=".98542" width=".37637" height=".64429" fill="#949494" stroke-linecap="round" stroke-linejoin="round" stroke-width=".13229"/>
  <rect x="5.9392" y="1.2661" width=".37637" height=".36476" fill="#949494" stroke-linecap="round" stroke-linejoin="round" stroke-width=".13229"/>
  <path d="m6.6561 0.91006s-0.086782-0.067327-0.11875-0.27256c-0.031972-0.20524-0.0016933-0.21378 0.18032-0.34563 0.18201-0.13184 0.31922 0.14348 0.64695-0.030096 0.32773-0.17357 0.7103-0.22079 0.57431-0.098852-0.13599 0.12194-0.67894 0.23702-0.47875 0.30783 0.20018 0.070816 0.14206 0.22022-0.18907 0.21099-0.33113-0.0092374-0.51938 0.030027-0.49749 0.17987 0.021894 0.14984-0.11752 0.048454-0.11752 0.048454z" fill="#f4f4f4"/>
  <path d="m6.0704 1.244s-0.075906-0.067327-0.1797-0.27256c-0.1038-0.20524-0.15976-0.36966 0.038357-0.45064s0.70033-0.17495 0.86725-0.035309c0.16692 0.13964-0.52432 0.14338-0.38473 0.21419 0.13958 0.070816 0.17049 0.22022-0.015048 0.21099-0.18554-0.0092374-0.27231 0.030027-0.19733 0.17987 0.074987 0.14984-0.1288 0.15347-0.1288 0.15347z" fill="#f4f4f4"/>
  <rect x="6.082" y="2.1745" width=".42626" height=".31749" fill="#444"/>
  <rect x=".077863" y=".50804" width="1.1452" height=".51976" fill="#686868" stroke-linecap="round" stroke-linejoin="round" stroke-width=".13229"/>
  <rect x=".43396" y="1.2446" width=".42626" height=".31749" fill="#444"/>
  <rect x="7.0247" y="2.1752" width=".42626" height=".31749" fill="#444"/>
 </g>
 <g fill="none" stroke="#a7a7a7">
  <path d="m6.3825 5.8505 0.52036-2.883e-4" stroke-width=".13229"/>
  <g stroke-width=".26458px">
   <path d="m6.4715 5.6738 0.30447 5.13e-4"/>
   <path d="m0.26167 2.3222 0.30447 5.13e-4"/>
   <path d="m0.44327 2.4507 0.30447 5.13e-4"/>
   <path d="m8.2836 3.3135-0.52029-0.0083753"/>
   <path d="m8.2595 3.1433-0.42075 0.00778"/>
  </g>
  <path d="m7.6019 3.1987-0.32398 0.00467" stroke-width=".19844"/>
 </g>
</svg>
