<?xml version="1.0" encoding="UTF-8"?>
<svg width="32" height="32" version="1.1" viewBox="0 0 8.4667 8.4667" xmlns="http://www.w3.org/2000/svg">
 <path d="m1.4625 4.6078-0.41211-1.5516h1.8089l-0.40358 1.5516z" fill="#241907"/>
 <path d="m8.3971 3.8316 0.00291 0.79564-0.15561-0.00632-0.012041-0.6764-0.94258 0.00976 0.00326 0.6072-0.13719-2.178e-4 -0.00597-0.59986-0.97446-0.00433 0.017693 0.63266-0.14375-0.00736 0.00475-0.62662-0.9877-0.00815 0.011078 0.66442-0.12572-0.00564-0.15499-0.92269 3.5017 0.058405z" fill="#5c5c5c"/>
 <path d="m4.5987 3.8316h3.7984v-0.7654h-3.9049" fill="#8b8b8b"/>
 <path d="m6.827 3.0748v0.74707" fill="none" stroke="#7b7b7b" stroke-width=".26458px"/>
 <path d="m8.0835 3.0687v0.74707" fill="none" stroke="#7b7b7b" stroke-width=".26458px"/>
 <g transform="matrix(-1 0 0 1 7.7815 -6.1633)">
  <path d="m1.7306 8.033 0.00465-0.92212s0.048502-0.18066 0.31242-0.1876c0.26392-0.00694 0.34537 0.18744 0.34537 0.18744l1.3266-3.194e-4s0.035223-0.22549 0.32811-0.2174c0.29288 0.00809 0.32512 0.21724 0.32512 0.21724l0.017007 0.94798-0.66861 0.024506-0.01175-0.55304 0.00426 0.59226-0.66171-6.085e-4v-0.19501z" fill="#6d4f17"/>
  <circle cx="2.0678" cy="8.0328" r=".33501" fill="#4f3911"/>
  <path d="m2.0061 7.4086 0.00856-0.92378s0.017468-0.18137 0.31685-0.17365c0.29938 0.00773 0.30509 0.17558 0.30509 0.17558l-0.00365-0.089545s0.026206-0.2414 0.36812-0.23375c0.34191 0.00764 0.3274 0.22723 0.3274 0.22723l0.00175 0.32872s0.027264-0.21146 0.3132-0.20764c0.28594 0.00382 0.32344 0.20591 0.32344 0.20591l0.022059 0.78909-1.0007-0.13016z" fill="#815c1b"/>
  <circle cx="2.336" cy="7.4129" r=".33501" fill="#5e4415"/>
  <circle cx="2.7114" cy="7.958" r=".33501" fill="#4f3911"/>
  <circle cx="3.3826" cy="8.11" r=".33501" fill="#4f3911"/>
  <circle cx="2.9963" cy="7.3755" r=".33501" fill="#5e4415"/>
  <circle cx="3.6553" cy="7.5112" r=".33501" fill="#5e4415"/>
  <circle cx="4.0587" cy="8.0462" r=".33501" fill="#4f3911"/>
 </g>
 <path d="m5.5194 3.2786h-1.2376c0-0.34175 0.27704-0.6188 0.6188-0.6188s0.6188 0.27704 0.6188 0.6188z" fill="#525252" stroke-linecap="round" stroke-linejoin="round" stroke-opacity=".49344" stroke-width=".066146"/>
 <path d="m5.5102 3.6769h-1.2376c0-0.34175 0.27704-0.6188 0.6188-0.6188s0.6188 0.27704 0.6188 0.6188z" fill="#666" stroke-linecap="round" stroke-linejoin="round" stroke-opacity=".49344" stroke-width=".066146"/>
 <path d="m0.52488 2.4578-6.93e-5 2.1552 0.49307-0.13446 0.44463 0.13446v-1.3652h0.99316v1.3652l1.2065-0.0862 1.2892 0.0862 1.912e-4 -2.1552-1.8037-0.30035z" fill="#563c11"/>
 <g transform="translate(-.68452 -287.74)" fill="#9a6c1f" stroke-linecap="round" stroke-linejoin="round" stroke-width=".26458">
  <path d="m1.2093 292.06v0.28967h0.9377v-0.28967zm1.9309 0v0.28967h2.4957v-0.28967z"/>
  <path d="m1.2093 291.71v0.28967h0.9377v-0.28967zm1.9309 0v0.28967h2.4957v-0.28967z"/>
  <path d="m1.2093 291.35v0.28924h0.9377v-0.28924zm1.9309 0v0.28924h2.4957v-0.28924z"/>
  <path d="m1.2093 290.99v0.28967h0.9377v-0.28967zm1.9309 0v0.28967h2.4957v-0.28967z"/>
  <rect x="1.2094" y="290.63" width="4.4267" height=".2896"/>
  <rect x="1.2094" y="290.27" width="4.4267" height=".2896"/>
 </g>
 <path d="m0.52488 1.0178 4.4267-1e-5v1.4399l-4.4267 1e-5z" fill="#dac446" stroke-linecap="round" stroke-linejoin="round" stroke-width=".26458"/>
 <g transform="translate(-.68452 -287.74)" fill="#563c11">
  <rect x="1.2094" y="290.2" width=".10904" height="2.1487"/>
  <rect x="2.038" y="290.95" width=".10904" height="1.3986"/>
  <rect x="3.1402" y="290.95" width=".10904" height="1.3986"/>
  <rect x="1.6412" y="290.2" width=".10904" height=".19306"/>
  <rect x="2.0729" y="290.2" width=".10904" height=".19306"/>
  <rect x="2.5047" y="290.2" width=".10904" height=".19306"/>
  <rect x="2.9365" y="290.2" width=".10904" height=".19306"/>
  <rect x="3.3683" y="290.2" width=".10904" height=".19306"/>
  <rect x="3.8001" y="290.2" width=".10904" height=".19306"/>
  <rect x="4.2318" y="290.2" width=".10904" height=".19306"/>
  <rect x="4.6636" y="290.2" width=".10904" height=".19306"/>
  <rect x="5.0954" y="290.2" width=".10904" height=".19306"/>
  <rect x="5.5272" y="290.2" width=".10904" height="2.1487"/>
 </g>
 <path d="m7.9352 0.63647v0.54866s-0.00762 0.16023-0.4115 0.15241c-0.40387-8e-3 -0.4115-0.14479-0.4115-0.14479v-0.54866" fill="#6c4e17"/>
 <path d="m7.5237 0.79647c0.40388 8e-3 0.4115-0.1524 0.4115-0.1524s-0.00782-0.13716-0.41149-0.14478c-0.40388-8e-3 -0.4115 0.1524-0.4115 0.1524s0.00762 0.13716 0.41149 0.14478z" fill="#9e7222"/>
 <g transform="matrix(1.0922 .71132 -.71132 1.0922 208.33 -325.46)" stroke-width=".76723">
  <rect x="6.8536" y="293.58" width=".58758" height=".073082" fill="#644815"/>
  <path d="m7.2468 293.56h0.15055v0.19085l-0.045574 0.0269h-0.10497z" fill="#a3a3a3" stroke-linecap="round" stroke-linejoin="round" stroke-width=".203"/>
 </g>
 <path d="m7.1752 1.3565-0.43849-0.0175-0.011692 0.21632h0.5028z" fill="#8d661e"/>
 <path d="m8.2365 1.7065-0.43565-0.0175-0.046771 0.21632h0.5028z" fill="#8d661e"/>
 <path d="m7.3316 1.5265-0.42241 3e-3 -0.011692 0.1944 0.42095 1e-3z" fill="#7c591b"/>
 <path d="m6.538 1.5465 0.43849-0.0175 0.011692 0.21632h-0.5028z" fill="#6b4d17"/>
 <g transform="translate(-1.6483 -1.0533)">
  <path d="m1.7306 8.033 0.00465-0.92212s0.048502-0.18066 0.31242-0.1876c0.26392-0.00694 0.34537 0.18744 0.34537 0.18744l1.3266-3.194e-4s0.035223-0.22549 0.32811-0.2174c0.29288 0.00809 0.32512 0.21724 0.32512 0.21724l0.017007 0.94798-0.66861 0.024506-0.01175-0.55304 0.00426 0.59226-0.66171-6.085e-4v-0.19501z" fill="#6d4f17"/>
  <circle cx="2.0678" cy="8.0328" r=".33501" fill="#4f3911"/>
  <path d="m2.0061 7.4086 0.00856-0.92378s0.017468-0.18137 0.31685-0.17365c0.29938 0.00773 0.30509 0.17558 0.30509 0.17558l-0.00365-0.089545s0.026206-0.2414 0.36812-0.23375c0.34191 0.00764 0.3274 0.22723 0.3274 0.22723l0.00175 0.17923s0.027264-0.21146 0.3132-0.20764c0.28594 0.00382 0.32344 0.20591 0.32344 0.20591l0.022059 0.93858-1.0007-0.13016z" fill="#815c1b"/>
  <circle cx="2.336" cy="7.4129" r=".33501" fill="#5e4415"/>
  <circle cx="2.7114" cy="7.958" r=".33501" fill="#4f3911"/>
  <circle cx="3.3826" cy="8.11" r=".33501" fill="#4f3911"/>
  <circle cx="2.9963" cy="7.3755" r=".33501" fill="#5e4415"/>
  <circle cx="3.6553" cy="7.5112" r=".33501" fill="#5e4415"/>
  <circle cx="4.0587" cy="8.0462" r=".33501" fill="#4f3911"/>
 </g>
 <path d="m5.7004 3.0723v0.74707" fill="none" stroke="#7b7b7b" stroke-width=".26458px"/>
 <g transform="rotate(-3.7822 7.2099 4.5921)">
  <path d="m6.2884 2.8097 1.8025 0.13229-0.049609 0.57878-1.819-0.13229s-0.078427-0.0439-0.050946-0.2932c0.027482-0.24928 0.11709-0.28558 0.11709-0.28558z" fill="#8b641e"/>
  <ellipse transform="rotate(3.2705)" cx="8.2348" cy="2.7559" rx=".12504" ry=".29041" fill="#604515"/>
  <path d="m6.8341 2.8797 0.011194-0.10748 0.11191 8e-3 -0.016787 0.1323" fill="#8b641e"/>
 </g>
</svg>
