<?xml version="1.0" encoding="UTF-8"?>
<!-- Created with Inkscape (http://www.inkscape.org/) -->
<svg width="32" height="32" version="1.1" viewBox="0 0 8.4667 8.4667" xmlns="http://www.w3.org/2000/svg">
 <path d="m3.108 2.4223c1.8399-0.090217 1.4447 0.5877 2.812 0.6544 1.4936 0.072852 3.1493 1.6891 1.5833 1.7548-1.5808 0.066313-0.79636 0.71906-2.5054 0.66438-1.7091-0.054682-1.2993-0.42599-2.4948-0.43592s-3.3609-1.5984-1.9837-1.8054c1.7522-0.26345 0.74868-0.74196 2.5886-0.83217z" fill="#a9a9a9"/>
 <path d="m3.486 3.8406c-0.098508-2.57e-5 -0.20488 0.00263-0.31988 0.00827-1.6349 0.080163-1.026 0.46688-2.0991 0.73691 0.46664 0.26855 1.0121 0.47087 1.4361 0.47439 1.1955 0.00993 0.78586 0.38094 2.4949 0.43563 1.5818 0.05061 1.029-0.50471 2.191-0.64026-0.36766-0.19243-0.79543-0.33218-1.2108-0.35242-1.2818-0.062526-1.0147-0.66208-2.4923-0.66248z" fill="#6c6c6c" stroke-width=".26458"/>
 <g fill="none" stroke="#6c6c6c" stroke-linecap="round" stroke-opacity=".57962" stroke-width=".26458">
  <g transform="translate(-.13555)">
   <path d="m5.2626 3.1223v1.3268"/>
   <path d="m1.6559 3.1867v1.3268"/>
   <path d="m2.4192 2.7023v1.3268"/>
  </g>
  <path d="m4.1509 2.6741v1.3268"/>
  <path d="m6.5081 3.3695v1.3268"/>
 </g>
 <g>
  <rect x="1.7077" y="3.9464" width=".56991" height=".54266" fill="#cdcdcd"/>
  <rect x="1.3634" y="4.2024" width=".43391" height=".41316" fill="#e7e7e7"/>
  <rect transform="scale(-1,1)" x="-7.4236" y="6.0943" width=".56991" height=".54266" fill="#cdcdcd"/>
  <rect transform="scale(-1,1)" x="-1.2128" y="1.6963" width=".56991" height=".54266" fill="#cdcdcd"/>
 </g>
 <g fill="#e7e7e7">
  <rect transform="scale(-1,1)" x="-7.7277" y="6.2987" width=".43391" height=".41316"/>
  <rect transform="scale(-1,1)" x="-7.01" y="6.4276" width=".32122" height=".30586"/>
  <rect transform="scale(-1,1)" x="-1.7904" y="1.9721" width=".32122" height=".30586"/>
 </g>
 <g transform="translate(-.13555)">
  <g>
   <rect x="4.3386" y="2.9958" width=".56991" height=".54266" fill="#cdcdcd"/>
   <rect x="3.9533" y="3.1577" width=".43391" height=".41316" fill="#e7e7e7"/>
   <rect x="4.8667" y="3.2658" width=".32122" height=".30586" fill="#e7e7e7"/>
  </g>
  <g fill="none" stroke="#735b29">
   <path d="m6.0794 2.6947v-0.40081h0.96403v0.42298" stroke-linejoin="round" stroke-width=".26458px"/>
   <path d="m6.0794 2.2938 0.46381-1.1145 0.50022 1.1145" stroke-linejoin="round" stroke-width=".26458"/>
   <path d="m7.3688 0.98371-3.3156 0.44788" stroke-width=".26458px"/>
   <path d="m4.5309 1.3855v1.8103" stroke-width=".13229"/>
   <path d="m4.1714 3.5636 0.3595-0.3678 0.31384 0.35207" stroke-width=".13229"/>
   <path d="m3.8175 3.5901h1.4604" stroke-width=".26458px"/>
   <path d="m7.0435 2.2938-0.73504-0.61961" stroke-width=".13229"/>
   <path d="m6.0794 2.2938 0.75061-0.62312" stroke-width=".13229"/>
  </g>
 </g>
 <rect x="4.1986" y="4.6672" width=".43391" height=".41316" fill="#e7e7e7"/>
 <path d="m3.0835 4.0283s0.022933-0.27226 0.29487-0.27215c0.27193 1.124e-4 0.29119 0.2798 0.29119 0.2798s-0.027613 0.080294-0.29648 0.076032c-0.26886-0.00426-0.28958-0.083685-0.28958-0.083685z" fill="#2f2f2f"/>
 <path d="m7.7139 3.3802s0.022933-0.27226 0.29487-0.27215c0.27193 1.124e-4 0.29119 0.2798 0.29119 0.2798s-0.027613 0.080294-0.29648 0.076032c-0.26886-0.00426-0.28958-0.083685-0.28958-0.083685z" fill="#6c6c6c"/>
 <path d="m0.34364 6.1174s0.022933-0.27226 0.29487-0.27215c0.27193 1.124e-4 0.29119 0.2798 0.29119 0.2798s-0.027613 0.080294-0.29648 0.076032c-0.26886-0.00426-0.28958-0.083685-0.28958-0.083685z" fill="#6c6c6c"/>
 <g>
  <rect x="2.0906" y="5.3712" width=".59941" height=".57074" fill="#c0c0c0"/>
  <rect x="2.4503" y="5.6438" width=".43391" height=".41316" fill="#cdcdcd"/>
  <rect x="7.286" y="2.3252" width=".59941" height=".57074" fill="#c0c0c0"/>
  <rect x="7.7442" y="2.6234" width=".43391" height=".41316" fill="#cdcdcd"/>
 </g>
 <g fill="#6c6c6c">
  <path d="m7.0588 3.1801s0.014176-0.16829 0.18227-0.16822c0.16809 6.95e-5 0.17999 0.17295 0.17999 0.17295s-0.017068 0.049632-0.18326 0.046998c-0.16619-0.00263-0.179-0.051728-0.179-0.051728z"/>
  <path d="m7.5195 3.5003s0.014176-0.16829 0.18227-0.16822c0.16809 6.95e-5 0.17999 0.17295 0.17999 0.17295s-0.017068 0.049632-0.18326 0.046998c-0.16619-0.00263-0.179-0.051728-0.179-0.051728z"/>
  <path d="m1.5061 6.3469s0.014176-0.16829 0.18227-0.16822c0.16809 6.95e-5 0.17999 0.17295 0.17999 0.17295s-0.017068 0.049632-0.18326 0.046998c-0.16619-0.00263-0.179-0.051728-0.179-0.051728z"/>
  <path d="m6.0835 6.0647s0.014176-0.16829 0.18227-0.16822c0.16809 6.95e-5 0.17999 0.17295 0.17999 0.17295s-0.017068 0.049632-0.18326 0.046998c-0.16619-0.00263-0.179-0.051728-0.179-0.051728z"/>
 </g>
 <path d="m4.4642 5.1261s0.014176-0.16829 0.18227-0.16822c0.16809 6.95e-5 0.17999 0.17295 0.17999 0.17295s-0.017068 0.049632-0.18326 0.046998c-0.16619-0.00263-0.179-0.051728-0.179-0.051728z" fill="#2f2f2f"/>
 <rect x="5.9315" y="4.2016" width=".56991" height=".54266" fill="#cdcdcd"/>
 <rect x="6.3451" y="4.5348" width=".32122" height=".30586" fill="#e7e7e7"/>
 <g transform="matrix(-1 0 0 1 8.4333 .39667)" fill="none" stroke="#735b29">
  <path d="m1.2878 5.0842-0.46381-1.1145-0.50022 1.1145" stroke-linejoin="round" stroke-width=".26458"/>
  <path d="m1.2878 5.4851v-0.40081h-0.96403v0.42298" stroke-linejoin="round" stroke-width=".26458px"/>
  <path d="m0.0588 4.2149 2.9229-1.2997" stroke-width=".26458px"/>
  <g transform="matrix(-1 0 0 1 7.3672 2.7904)" stroke-width=".13229">
   <path d="m4.5309 0.26835v2.0086"/>
   <path d="m7.0435 2.2938-0.73504-0.61961"/>
   <path d="m6.0794 2.2938 0.75061-0.62312"/>
  </g>
 </g>
 <g transform="translate(.024864 .006893)" fill="none" stroke="#735b29">
  <path d="m1.2878 5.0842-0.46381-1.1145-0.50022 1.1145" stroke-linejoin="round" stroke-width=".26458"/>
  <path d="m1.2878 5.4851v-0.40081h-0.96403v0.42298" stroke-linejoin="round" stroke-width=".26458px"/>
  <path d="m0.0588 4.2149 2.9229-1.2997" stroke-width=".26458px"/>
  <g transform="matrix(-1 0 0 1 7.3672 2.7904)" stroke-width=".13229">
   <path d="m4.5309 0.26835v2.0086"/>
   <path d="m7.0435 2.2938-0.73504-0.61961"/>
   <path d="m6.0794 2.2938 0.75061-0.62312"/>
  </g>
 </g>
 <rect x="5.8808" y="6.7482" width=".32122" height=".30586" fill="#e7e7e7"/>
 <rect x="5.0608" y="6.4287" width=".32122" height=".30586" fill="#e7e7e7"/>
</svg>
