<?xml version="1.0" encoding="UTF-8"?>
<!-- Created with Inkscape (http://www.inkscape.org/) -->
<svg width="32" height="32" version="1.1" viewBox="0 0 8.4667 8.4667" xmlns="http://www.w3.org/2000/svg">
 <g fill="none">
  <g stroke="#97764a" stroke-width=".13229">
   <path d="m5.3116 3.0251 0.51667 0.20238"/>
   <path d="m0.68929 2.8874 0.5388 0.13268"/>
   <path d="m1.5203 3.056 0.5388 0.13268"/>
   <path d="m2.0809 4.4937 0.46178 0.30769"/>
   <path d="m1.8314 4.7922 0.46178 0.30769"/>
   <path d="m6.1206 3.4072 0.29297 0.47125"/>
  </g>
  <g stroke="#c9c9c9" stroke-linecap="round" stroke-width=".26458">
   <path d="m0.31889 3.249 2.0452 0.34284m3.4487 0.5781 2.4339 0.408"/>
   <path d="m5.5795 2.1218-0.96679 1.1321m-1.1548 1.3522-0.87796 1.0281"/>
   <ellipse cx="4.0842" cy="3.9387" rx="1.8694" ry=".66239" stroke-linejoin="round"/>
  </g>
 </g>
 <g transform="matrix(.478 0 0 .47305 2.0922 .23417)" stroke-width="1.0052">
  <path d="m2.815 8.035 0.44503-6.2394 1.0148-1.6016-0.099058 8.0879z" fill="#b8b8b8"/>
  <path d="m4.2748 0.19407 1.0148 1.6016 0.44503 6.2394-1.5589 0.24691z" fill="#8a8a8a"/>
  <path d="m3.26 1.7957 1.0234 0.29208 1.0062-0.29208-1.0148-1.6016z" fill="#d4d4d4" fill-opacity=".5245"/>
 </g>
 <g stroke-linecap="round" stroke-linejoin="bevel" stroke-opacity=".29533" stroke-width=".52917">
  <g transform="matrix(.478 0 0 .478 2.5475 .25755)">
   <path d="m0.96067 7.4717h0.32818v0.68402h-0.32818z" fill="#eaeaea"/>
   <path d="m1.293 7.2828c0 0.093241-0.075587 0.16883-0.16883 0.16883-0.093241 0-0.16883-0.075587-0.16883-0.16883-2e-8 -0.093241 0.075587-0.42252 0.16883-0.42252 0.093241 0 0.16883 0.32928 0.16883 0.42252z" fill="#ffcf6b" fill-opacity=".69438"/>
  </g>
  <g transform="matrix(.478 0 0 .478 3.1442 .45191)">
   <path d="m0.96067 7.4717h0.32818v0.68402h-0.32818z" fill="#eaeaea"/>
   <path d="m1.293 7.2828c0 0.093241-0.075587 0.16883-0.16883 0.16883-0.093241 0-0.16883-0.075587-0.16883-0.16883-2e-8 -0.093241 0.075587-0.42252 0.16883-0.42252 0.093241 0 0.16883 0.32928 0.16883 0.42252z" fill="#ffcf6b" fill-opacity=".69438"/>
  </g>
  <g transform="matrix(.478 0 0 .478 3.9912 .46292)">
   <path d="m0.96067 7.4717h0.32818v0.68402h-0.32818z" fill="#eaeaea"/>
   <path d="m1.293 7.2828c0 0.093241-0.075587 0.16883-0.16883 0.16883-0.093241 0-0.16883-0.075587-0.16883-0.16883-2e-8 -0.093241 0.075587-0.42252 0.16883-0.42252 0.093241 0 0.16883 0.32928 0.16883 0.42252z" fill="#ffcf6b" fill-opacity=".69438"/>
  </g>
  <g transform="matrix(.478 0 0 .478 4.652 .28459)">
   <path d="m0.96067 7.4717h0.32818v0.68402h-0.32818z" fill="#eaeaea"/>
   <path d="m1.293 7.2828c0 0.093241-0.075587 0.16883-0.16883 0.16883-0.093241 0-0.16883-0.075587-0.16883-0.16883-2e-8 -0.093241 0.075587-0.42252 0.16883-0.42252 0.093241 0 0.16883 0.32928 0.16883 0.42252z" fill="#ffcf6b" fill-opacity=".69438"/>
  </g>
 </g>
 <g transform="matrix(.478 0 0 .478 2.0922 .32597)" fill="none" stroke-width=".13229">
  <g stroke="#6c6c6c">
   <path d="m4.5228 2.2496 0.014229 0.93845 0.3421-0.066641 0.017444 0.68914"/>
   <path d="m4.9107 2.5938 0.25244-0.048325"/>
   <path d="m4.4473 4.2286 0.74473-0.063552 0.035208 0.48126"/>
   <path d="m4.4953 4.6275 0.39433-0.040549 0.015973 0.40382-0.38589 0.0307"/>
   <path d="m4.424 5.6013 0.99997-0.078306"/>
   <path d="m4.5424 3.5477 0.00856 0.27697"/>
  </g>
  <g stroke="#9d9d9d">
   <path d="m3.4283 2.1175-0.017137 0.42053 0.59139 0.091815"/>
   <path d="m3.3228 2.9175 0.70652 0.11614"/>
   <path d="m3.6729 3.2562 0.31233 0.050155-0.017817 0.84784"/>
   <path d="m3.3353 3.6129-0.014359 0.43513"/>
   <path d="m3.6536 3.6689-0.015904 0.43437"/>
   <path d="m3.232 4.3954 0.86047 0.10061"/>
   <path d="m3.1443 5.5024 0.86047 0.10061"/>
   <path d="m3.1367 5.8552 0.86047 0.10061"/>
  </g>
 </g>
</svg>
