<?xml version="1.0" encoding="UTF-8"?>
<!-- Created with Inkscape (http://www.inkscape.org/) -->
<svg width="32" height="32" version="1.1" viewBox="0 0 8.4667 8.4667" xmlns="http://www.w3.org/2000/svg">
 <path d="m3.2436 2.4223c1.8399-0.090217 1.4447 0.5877 2.812 0.6544 1.4936 0.072852 3.1493 1.6891 1.5833 1.7548-1.5808 0.066313-0.79636 0.71906-2.5054 0.66438-1.7091-0.054682-1.2993-0.42599-2.4948-0.43592-1.1955-0.0099298-3.3609-1.5984-1.9837-1.8054 1.7522-0.26345 0.74868-0.74196 2.5886-0.83217z" fill="#a9a9a9"/>
 <path transform="scale(.26458)" d="m13.688 14.516c-0.37232-9.7e-5 -0.77436 0.009939-1.209 0.03125-6.1792 0.30298-3.8779 1.7646-7.9336 2.7852 1.7637 1.015 3.8254 1.7797 5.4277 1.793 4.5186 0.03753 2.9702 1.4398 9.4297 1.6465 5.9786 0.19129 3.889-1.9076 8.2812-2.4199-1.3896-0.72731-3.0064-1.2555-4.5762-1.332-4.8448-0.23632-3.8351-2.5024-9.4199-2.5039z" fill="#6c6c6c"/>
 <g fill="none" stroke="#6c6c6c" stroke-linecap="round" stroke-opacity=".57962" stroke-width=".26458">
  <path d="m5.2626 3.1223v1.3268"/>
  <path d="m1.6559 3.1867v1.3268"/>
  <path d="m2.4192 2.7023v1.3268"/>
 </g>
 <path d="m3.8947 3.4742s0.014176-0.16829 0.18227-0.16822c0.16809 6.95e-5 0.17999 0.17295 0.17999 0.17295s-0.017068 0.049632-0.18326 0.046998c-0.16619-0.00263-0.179-0.051728-0.179-0.051729z" fill="#6c6c6c"/>
 <path d="m3.9019 3.4529s0.014176-0.16829 0.18227-0.16822c0.16809 6.95e-5 0.17999 0.17295 0.17999 0.17295s-0.017068 0.049632-0.18326 0.046998c-0.16619-0.00263-0.179-0.051728-0.179-0.051729z" fill="#6c6c6c"/>
 <path d="m4.2865 2.6741v1.3268" fill="none" stroke="#6c6c6c" stroke-linecap="round" stroke-opacity=".57962" stroke-width=".26458"/>
 <path d="m6.6437 3.3695v1.3268" fill="none" stroke="#6c6c6c" stroke-linecap="round" stroke-opacity=".57962" stroke-width=".26458"/>
 <path d="m4.4812 3.4613s0.022933-0.27226 0.29487-0.27215c0.27193 1.124e-4 0.29119 0.2798 0.29119 0.2798s-0.027613 0.080294-0.29648 0.076032c-0.26886-0.00426-0.28958-0.083685-0.28958-0.083685z" fill="#6c6c6c"/>
 <g fill="none" stroke="#735b29">
  <path d="m6.0794 2.6947v-0.40081h0.96403v0.42298" stroke-linejoin="round" stroke-width=".26458px"/>
  <path d="m6.0794 2.2938 0.46381-1.1145 0.50022 1.1145" stroke-linejoin="round" stroke-width=".26458"/>
  <g>
   <path d="m7.3688 0.98371-3.3156 0.44788" stroke-width=".26458px"/>
   <path d="m4.5309 1.3855v1.8103" stroke-width=".13229"/>
   <path d="m4.1714 3.5636 0.3595-0.3678 0.31384 0.35207" stroke-width=".13229"/>
   <path d="m3.8175 3.5901h1.4604" stroke-width=".26458px"/>
   <path d="m7.0435 2.2938-0.73504-0.61961" stroke-width=".13229"/>
   <path d="m6.0794 2.2938 0.75061-0.62312" stroke-width=".13229"/>
  </g>
 </g>
 <g transform="matrix(-1 0 0 1 7.4098 2.7904)" fill="none" stroke="#735b29">
  <path d="m6.0794 2.6947v-0.40081h0.96403v0.42298" stroke-linejoin="round" stroke-width=".26458px"/>
  <path d="m6.0794 2.2938 0.46381-1.1145 0.50022 1.1145" stroke-linejoin="round" stroke-width=".26458"/>
  <path d="m7.3084 1.4245-2.9229-1.2997" stroke-width=".26458px"/>
  <g stroke-width=".13229">
   <path d="m4.5309 0.26835v2.0086"/>
   <path d="m7.0435 2.2938-0.73504-0.61961"/>
   <path d="m6.0794 2.2938 0.75061-0.62312"/>
  </g>
 </g>
 <path d="m2.2309 5.908s0.022933-0.27226 0.29487-0.27215c0.27193 1.124e-4 0.29119 0.2798 0.29119 0.2798s-0.027613 0.080294-0.29648 0.076032c-0.26886-0.00426-0.28958-0.083685-0.28958-0.083685z" fill="#6c6c6c"/>
 <path d="m4.3697 4.9383s0.022933-0.27226 0.29487-0.27215c0.27193 1.124e-4 0.29119 0.2798 0.29119 0.2798s-0.027613 0.080294-0.29648 0.076032c-0.26886-0.00426-0.28958-0.083685-0.28958-0.083685z" fill="#2f2f2f"/>
 <g fill="#6c6c6c">
  <path d="m7.4487 2.9077s0.022933-0.27226 0.29487-0.27215c0.27193 1.124e-4 0.29119 0.2798 0.29119 0.2798s-0.027613 0.080294-0.29648 0.076032c-0.26886-0.00426-0.28958-0.083685-0.28958-0.083685z"/>
  <path d="m7.8495 3.3802s0.022933-0.27226 0.29487-0.27215c0.27193 1.124e-4 0.29119 0.2798 0.29119 0.2798s-0.027613 0.080294-0.29648 0.076032c-0.26886-0.00426-0.28958-0.083685-0.28958-0.083685z"/>
  <path d="m0.47919 6.1174s0.022933-0.27226 0.29487-0.27215c0.27193 1.124e-4 0.29119 0.2798 0.29119 0.2798s-0.027613 0.080294-0.29648 0.076032c-0.26886-0.00426-0.28958-0.083685-0.28958-0.083685z"/>
  <path d="m2.6696 6.0162s0.014176-0.16829 0.18227-0.16822c0.16809 6.95e-5 0.17999 0.17295 0.17999 0.17295s-0.017068 0.049632-0.18326 0.046998c-0.16619-0.00263-0.179-0.051728-0.179-0.051729z"/>
  <path d="m7.1944 3.1801s0.014176-0.16829 0.18227-0.16822c0.16809 6.95e-5 0.17999 0.17295 0.17999 0.17295s-0.017068 0.049632-0.18326 0.046998c-0.16619-0.00263-0.179-0.051728-0.179-0.051729z"/>
  <path d="m7.9071 3.0004s0.014176-0.16829 0.18227-0.16822c0.16809 6.95e-5 0.17999 0.17295 0.17999 0.17295s-0.017068 0.049632-0.18326 0.046998c-0.16619-0.00263-0.179-0.051728-0.179-0.051729z"/>
  <path d="m7.6551 3.5003s0.014176-0.16829 0.18227-0.16822c0.16809 6.95e-5 0.17999 0.17295 0.17999 0.17295s-0.017068 0.049632-0.18326 0.046998c-0.16619-0.00263-0.179-0.051728-0.179-0.051729z"/>
  <path d="m1.6417 6.3469s0.014176-0.16829 0.18227-0.16822c0.16809 6.95e-5 0.17999 0.17295 0.17999 0.17295s-0.017068 0.049632-0.18326 0.046998c-0.16619-0.00263-0.179-0.051728-0.179-0.051729z"/>
  <path d="m7.0215 5.8639s0.014176-0.16829 0.18227-0.16822c0.16809 6.95e-5 0.17999 0.17295 0.17999 0.17295s-0.017068 0.049632-0.18326 0.046998c-0.16619-0.00263-0.179-0.051728-0.179-0.051729z"/>
  <path d="m6.0237 6.9343s0.014176-0.16829 0.18227-0.16822c0.16809 6.96e-5 0.17999 0.17295 0.17999 0.17295s-0.017068 0.049632-0.18326 0.046998c-0.16619-0.00263-0.179-0.051728-0.179-0.051729z"/>
 </g>
 <path d="m3.3386 4.5395s0.014176-0.16829 0.18227-0.16822c0.16809 6.95e-5 0.17999 0.17295 0.17999 0.17295s-0.017068 0.049632-0.18326 0.046998c-0.16619-0.00263-0.179-0.051728-0.179-0.051729z" fill="#2f2f2f"/>
</svg>
