<?xml version="1.0" encoding="UTF-8"?>
<svg width="32" height="32" version="1.1" viewBox="0 0 8.4667 8.4667" xmlns="http://www.w3.org/2000/svg">
 <g>
  <ellipse cx="4.7396" cy="1.1249" rx="1.4841" ry="1.0351" fill="#5253a7"/>
  <path d="m8.0162 2.1635-1.7944-0.63218-2.9647-2e-7 -1.7944 0.63218 3.2974 1.6251z" fill="#5253a7"/>
  <path d="m1.4626 2.1635v2.1935h6.5536v-2.1935z" fill="#8a8a8a"/>
  <rect x="3.7519" y="3.3621" width="1.9546" height=".78553" fill="#525252"/>
  <path d="m3.2542 1.121v3.4491h2.9704v-3.4491zm0.28966 1.3518h2.3691v1.5207h-2.3691z" fill="#b8b8b8"/>
 </g>
 <g fill="#8a8a8a">
  <rect x="3.4683" y="4.0721" width="2.52" height=".10471"/>
  <rect x="3.3956" y="4.24" width="2.6655" height=".10471"/>
  <rect x="3.3177" y="4.4079" width="2.8214" height=".10471"/>
 </g>
 <g fill="#b8b8b8">
  <rect x="3.868" y="2.3763" width=".26956" height="1.6728"/>
  <rect x="5.3171" y="2.3763" width=".26956" height="1.6728"/>
  <rect x="4.5935" y="2.361" width=".26956" height="1.6728"/>
 </g>
 <g fill="#525252">
  <rect x="1.6573" y="2.3234" width=".18851" height=".33894"/>
  <rect x="2.0599" y="2.3234" width=".18851" height=".33894"/>
  <rect x="2.4624" y="2.3234" width=".18851" height=".33894"/>
  <rect x="2.8649" y="2.3234" width=".18851" height=".33894"/>
  <rect x="3.5026" y="1.4333" width=".52539" height=".33894"/>
  <rect x="4.4474" y="1.4333" width=".52539" height=".33894"/>
  <rect x="5.3923" y="1.4333" width=".52539" height=".33894"/>
  <rect x="1.6573" y="3.0742" width=".18851" height=".33894"/>
  <rect x="2.0599" y="3.0742" width=".18851" height=".33894"/>
  <rect x="2.4624" y="3.0742" width=".18851" height=".33894"/>
  <rect x="2.8649" y="3.0742" width=".18851" height=".33894"/>
  <rect x="1.6573" y="3.825" width=".18851" height=".33894"/>
  <rect x="2.0599" y="3.825" width=".18851" height=".33894"/>
  <rect x="2.4624" y="3.825" width=".18851" height=".33894"/>
 </g>
 <g transform="matrix(.8502 0 0 .8502 -2.9228 2.9759)">
  <g transform="matrix(.478 0 0 .47305 2.0922 .23417)" stroke-width="1.0052">
   <path d="m2.815 8.035 0.44503-6.2394 1.0148-1.6016-0.099058 8.0879z" fill="#b8b8b8"/>
   <path d="m4.2748 0.19407 1.0148 1.6016 0.44503 6.2394-1.5589 0.24691z" fill="#8a8a8a"/>
   <path d="m3.26 1.7957 1.0234 0.29208 1.0062-0.29208-1.0148-1.6016z" fill="#d4d4d4" fill-opacity=".5245"/>
  </g>
  <g transform="matrix(.478 0 0 .478 2.0922 .32597)" fill="none" stroke-width=".13229">
   <g stroke="#6c6c6c">
    <path d="m4.5228 2.2496 0.014229 0.93845 0.3421-0.066641 0.017444 0.68914"/>
    <path d="m4.9107 2.5938 0.25244-0.048325"/>
    <path d="m4.4473 4.2286 0.74473-0.063552 0.035208 0.48126"/>
    <path d="m4.4953 4.6275 0.39433-0.040549 0.015973 0.40382-0.38589 0.0307"/>
    <path d="m4.424 5.6013 0.99997-0.078306"/>
    <path d="m4.5424 3.5477 0.00856 0.27697"/>
   </g>
   <g stroke="#9d9d9d">
    <path d="m3.4283 2.1175-0.017137 0.42053 0.59139 0.091815"/>
    <path d="m3.3228 2.9175 0.70652 0.11614"/>
    <path d="m3.6729 3.2562 0.31233 0.050155-0.017817 0.84784"/>
    <path d="m3.3353 3.6129-0.014359 0.43513"/>
    <path d="m3.6536 3.6689-0.015904 0.43437"/>
    <path d="m3.232 4.3954 0.86047 0.10061"/>
    <path d="m3.1443 5.5024 0.86047 0.10061"/>
    <path d="m3.1367 5.8552 0.86047 0.10061"/>
   </g>
  </g>
 </g>
 <g fill="#525252">
  <rect x="2.8649" y="3.825" width=".18851" height=".33894"/>
  <rect x="6.435" y="2.3234" width=".18851" height=".33894"/>
  <rect x="6.8375" y="2.3234" width=".18851" height=".33894"/>
  <rect x="7.24" y="2.3234" width=".18851" height=".33894"/>
  <rect x="7.6425" y="2.3234" width=".18851" height=".33894"/>
  <rect x="6.435" y="3.0742" width=".18851" height=".33894"/>
  <rect x="6.435" y="3.825" width=".18851" height=".33894"/>
 </g>
 <g fill="none" stroke="#ad855a" stroke-linecap="round">
  <path d="m4.1155 5.5358s0.085022 0.19467 0.7659 0.33519c0.68088 0.14051 1.1264 0.19841 1.4259 0.52443 0.2995 0.32603 0.73003 0.67073 1.0741 0.67071 0.34405-1.93e-5 0.77484 0.17458 0.77484 0.17458" stroke-width=".13229"/>
  <g stroke-width=".13229">
   <path d="m0.23205 7.0367s0.77028-0.091304 1.0544-0.34769c0.35711-0.32225 0.64983-0.68451 1.2579-0.74968 0.62295-0.066766 1.3385-0.18989 1.5712-0.40357 0.23272-0.21368 0.27275-0.38221 0.27275-0.38221"/>
   <path d="m0.90694 6.8902s0.45987-0.12303 0.92371 0.23296c0.46384 0.35599 0.6258 1.1468 0.6258 1.1468"/>
   <path d="m1.734 6.2863s-0.16846 0.17453-0.13568 0.39595c0.032788 0.22142 0.23233 0.44091 0.23233 0.44091"/>
  </g>
 </g>
 <path d="m1.6482 6.4232-0.61218 0.42183 0.63054 0.16275z" fill="#ad855a"/>
 <g transform="translate(-.22894 .0081451)">
  <path d="m2.2342 5.7141-0.00536-0.13687 0.36711-0.068578 0.01071 0.00621-0.36175 0.20544z" fill="#887c6e"/>
  <g fill="none" stroke="#3a352f" stroke-linecap="round" stroke-width=".026458">
   <path d="m2.3446 5.7657v0.054742"/>
   <path d="m2.2668 5.7165v0.054742"/>
   <path d="m2.6791 5.7029v0.054742"/>
  </g>
  <g>
   <path d="m2.2449 5.7203-0.00536-0.13687 0.36711-0.068578 0.00326 0.11207z" fill="#887c6e"/>
   <path d="m2.3263 5.762 0.37493-0.072951-0.091376-0.062119-0.36362 0.065779z" fill="#645c51"/>
   <path d="m2.325 5.7896 0.37493-0.072951 0.00139-0.027598-0.455 0.00366-0.00139 0.027598z" fill="#645c51"/>
  </g>
 </g>
 <g transform="matrix(-1 0 0 1 10.291 1.1509)">
  <path d="m2.2342 5.7141-0.00536-0.13687 0.36711-0.068578 0.01071 0.00621-0.36175 0.20544z" fill="#887c6e"/>
  <g fill="none" stroke="#3a352f" stroke-linecap="round" stroke-width=".026458">
   <path d="m2.3446 5.7657v0.054742"/>
   <path d="m2.2668 5.7165v0.054742"/>
   <path d="m2.6791 5.7029v0.054742"/>
  </g>
  <g>
   <path d="m2.2449 5.7203-0.00536-0.13687 0.36711-0.068578 0.00326 0.11207z" fill="#887c6e"/>
   <path d="m2.3263 5.762 0.37493-0.072951-0.091376-0.062119-0.36362 0.065779z" fill="#645c51"/>
   <path d="m2.325 5.7896 0.37493-0.072951 0.00139-0.027598-0.455 0.00366-0.00139 0.027598z" fill="#645c51"/>
  </g>
 </g>
 <g transform="matrix(.88811 -.15623 0 1 1.5453 .08204)">
  <path d="m2.2342 5.7141-0.00536-0.13687 0.36711-0.068578 0.01071 0.00621-0.36175 0.20544z" fill="#887c6e"/>
  <g fill="none" stroke="#3a352f" stroke-linecap="round" stroke-width=".026458">
   <path d="m2.3446 5.7657v0.054742"/>
   <path d="m2.2668 5.7165v0.054742"/>
   <path d="m2.6791 5.7029v0.054742"/>
  </g>
  <g>
   <path d="m2.2449 5.7203-0.00536-0.13687 0.36711-0.068578 0.00326 0.11207z" fill="#887c6e"/>
   <path d="m2.3263 5.762 0.37493-0.072951-0.091376-0.062119-0.36362 0.065779z" fill="#645c51"/>
   <path d="m2.325 5.7896 0.37493-0.072951 0.00139-0.027598-0.455 0.00366-0.00139 0.027598z" fill="#645c51"/>
  </g>
 </g>
 <g>
  <path d="m7.3689 4.5736s0.07705 0.22222 0.07567 0.48006c-0.00138 0.25783-0.21685 0.27301-0.21685 0.27301s-0.090255 0.19691 0.11903 0.080394c0.20928-0.11652 0.31555-0.087074 0.45363-0.029574s0.48455 0.11316 0.27954-0.00245c-0.20502-0.11562-0.37919-0.11161-0.40244-0.2723s0.048704-0.56038 0.048704-0.56038" fill="#5f4933"/>
  <path d="m6.8222 4.253s-0.023297 0.29248 0.21829 0.33472c0.24159 0.042239 0.24903 0.2514 0.42692 0.1312 0.17789-0.1202 0.31886 0.14949 0.49454-0.11618 0.17568-0.26567 0.4363-0.46792 0.39638-0.58542-0.039921-0.11751-0.37686-0.52933-0.32613-0.75526 0.050732-0.22593 0.35266-0.2183 0.26381-0.355-0.088851-0.1367-0.15467-0.45126-0.37384-0.31483-0.21916 0.13643-0.68955 0.47674-0.78787 0.4224-0.098319-0.054336-0.20675-0.36219-0.35777-0.21133-0.15102 0.15086-0.49548 0.42489-0.19543 0.51321 0.30005 0.08832 0.040712 0.38536 0.1686 0.45506 0.12789 0.0697 0.072496 0.48144 0.072496 0.48144z" fill="#356f40"/>
  <path d="m5.9515 7.1402s-0.061253 0.22222-0.041544 0.48006c0.019709 0.25783 0.17618 0.21018 0.17618 0.21018s0.13282 0.098636-0.11331 0.080394c-0.26934-0.019962-0.24836-0.09594-0.38236-0.03844-0.134 0.0575-0.35052 0.088897-0.15372-0.026718 0.1493-0.07482 0.23942-0.062091 0.2438-0.17633 0.006176-0.16101-0.088541-0.56038-0.088541-0.56038" fill="#5f4933"/>
  <path d="m5.2312 7.252s-0.29248 0.054614-0.33472-0.24092c-0.042239-0.29553-0.2514-0.28634-0.1312-0.51728 0.1202-0.23094-0.14949-0.38181 0.11618-0.62283 0.26567-0.24101 0.46792-0.58165 0.58542-0.54255 0.11751 0.039103 0.3963 0.25074 0.62223 0.168 0.22593-0.082737 0.35133-0.28659 0.48803-0.18857 0.1367 0.098023 0.45126 0.15186 0.31483 0.43535-0.13643 0.28349-0.24563 0.40843-0.19129 0.52544 0.054336 0.117 0.13459 0.524-0.016271 0.72436-0.15086 0.20036-0.2979 0.4103-0.51321 0.28728-0.32513-0.18578-0.38978-0.10302-0.50729 0.016159-0.11758 0.11925-0.43271-0.044445-0.43271-0.044445z" fill="#356f40"/>
 </g>
 <path d="m3.8465 5.6865s0.1596-0.029303 0.28501-0.023455c0.12541 0.00585 0.23521 0.053265 0.23521 0.053265" fill="none" stroke="#ad855a" stroke-linecap="round" stroke-width=".13229"/>
</svg>
