<?xml version="1.0" encoding="UTF-8"?>
<svg width="32" height="32" version="1.1" viewBox="0 0 8.4667 8.4667" xmlns="http://www.w3.org/2000/svg">
 <path d="m8.4605 5.2-4.0292 0.0165s0.034217 0.31903 0.45372 0.56275c0.21345-6e-3 0.62487-0.0151 1.0118-3e-3 0.48614 0.0147 1.3746-0.022 1.7611-3e-3 0.57064-0.24859 0.80254-0.57361 0.80253-0.57361z" fill="#957a30"/>
 <g fill="#bebebe">
  <path d="m4.4509 1.9136-1.9518 1.2676h-2.496v0.3669l2.6588 0.012872 2.0107-1.3058z"/>
  <rect x="4.5326" y="2.0677" width="3.8677" height=".36666"/>
  <rect x="4.3015" y=".010163" width=".4071" height="2.2335"/>
  <rect x="6.5234" y="1.3615" width=".4071" height=".93708"/>
  <rect x=".88442" y="2.4748" width=".4071" height=".93708"/>
  <ellipse cx="4.4941" cy="2.2571" rx="1.0425" ry=".59559"/>
 </g>
 <g transform="translate(4.0597 -1.1222)">
  <rect x=".49554" y="3.7707" width="1.6779" height="1.1327" fill="#b24a4a" stroke-linecap="round" stroke-linejoin="round" stroke-width=".13229"/>
  <g>
   <rect x=".43315" y="3.3688" width="1.8129" height=".71513" fill="#698a94" stroke-linecap="round" stroke-linejoin="round" stroke-width=".13229"/>
   <rect x="1.472" y="4.3636" width=".36461" height=".3322" fill="#484848"/>
   <rect x=".79633" y="4.3614" width=".36461" height=".3322" fill="#484848"/>
  </g>
 </g>
 <g transform="translate(0,-290.25)" fill="none" stroke="#957a30" stroke-width=".17648">
  <path d="m6.2391 295.54v-2.3804"/>
  <path d="m7.2246 295.6v-2.0713"/>
  <path d="m5.2702 295.59v-2.0713"/>
 </g>
 <g transform="translate(0,-290.25)" fill="#ececec">
  <path d="m4.6856 294.14 1.186-0.7871 0.016703 1.5117-1.2194 0.80141z"/>
  <path d="m5.627 294.14 1.186-0.7871 0.016703 1.5117-1.2194 0.80141z"/>
  <path d="m6.6352 294.14 1.186-0.7871 0.016703 1.5117-1.2194 0.80141z"/>
 </g>
 <g transform="translate(0,-290.25)" fill="none">
  <path d="m5.9635 293.56h0.5596" stroke="#957a30" stroke-width=".13229"/>
  <g stroke="#5f4e1f" stroke-width=".19844">
   <path d="m4.8777 295.77h0.22551"/>
   <path d="m5.3078 295.77h0.22551"/>
   <path d="m5.7505 295.77h0.22551"/>
   <path d="m6.1931 295.77h0.22551"/>
   <path d="m6.6525 295.77h0.22551"/>
   <path d="m7.1035 295.77h0.22551"/>
   <path d="m7.5462 295.77h0.22551"/>
  </g>
 </g>
 <path d="m6.103 6.418-4.0292 0.0165s0.034217 0.31903 0.45372 0.56275c0.21345-6e-3 0.62487-0.0151 1.0118-3e-3 0.48614 0.0147 1.3746-0.022 1.7611-3e-3 0.57064-0.24859 0.80254-0.57361 0.80253-0.57361z" fill="#957a30"/>
 <g transform="translate(-2.3575 -289.03)" fill="none" stroke="#957a30" stroke-width=".17648">
  <path d="m6.2391 295.54v-2.3804"/>
  <path d="m7.2246 295.6v-2.0713"/>
  <path d="m5.2702 295.59v-2.0713"/>
 </g>
 <g transform="translate(-2.3575 -289.03)" fill="#ececec">
  <path d="m4.6856 294.14 1.186-0.7871 0.016703 1.5117-1.2194 0.80141z"/>
  <path d="m5.627 294.14 1.186-0.7871 0.016703 1.5117-1.2194 0.80141z"/>
  <path d="m6.6352 294.14 1.186-0.7871 0.016703 1.5117-1.2194 0.80141z"/>
 </g>
 <g transform="translate(-2.3575 -289.03)" fill="none">
  <path d="m5.9635 293.56h0.5596" stroke="#957a30" stroke-width=".13229"/>
  <g stroke="#5f4e1f" stroke-width=".19844">
   <path d="m4.8777 295.77h0.22551"/>
   <path d="m5.3078 295.77h0.22551"/>
   <path d="m5.7505 295.77h0.22551"/>
   <path d="m6.1931 295.77h0.22551"/>
   <path d="m6.6525 295.77h0.22551"/>
   <path d="m7.1035 295.77h0.22551"/>
   <path d="m7.5462 295.77h0.22551"/>
  </g>
 </g>
 <path d="m0.54037 1.5929v1.2822h1.1167v-1.2781z" fill="#b24a4a"/>
 <g stroke-linecap="round" stroke-linejoin="round" stroke-width=".13229">
  <rect x=".55403" y=".79605" width="2.5329" height="1.1327" fill="#b24a4a"/>
  <rect x=".45986" y=".39408" width="2.7367" height=".71513" fill="#698a94"/>
  <rect x="6.2707" y=".79748" width="1.6779" height="1.1327" fill="#b24a4a"/>
  <rect x="6.2083" y=".39551" width="1.8129" height=".71513" fill="#698a94"/>
 </g>
 <path d="m0.4645 0.73812v1.5997l0.64406-0.46922 0.62563 0.43835v-1.4641z" fill="#698a94"/>
 <g fill="#484848">
  <rect x=".8319" y="2.3272" width=".51614" height=".54865"/>
  <rect x="1.8971" y="1.3286" width=".36461" height=".3322"/>
  <rect x="2.4982" y="1.3361" width=".36461" height=".3322"/>
  <rect x="7.2716" y="1.3904" width=".36461" height=".3322"/>
  <rect x="6.4686" y="1.3815" width=".51614" height=".54865"/>
 </g>
 <path d="m3.5786 2.4959-3.8879 2.52v0.63588l4.3131-2.9858" fill="none"/>
</svg>
