<?xml version="1.0" encoding="UTF-8"?>
<svg width="32" height="32" version="1.1" viewBox="0 0 8.4667 8.4667" xmlns="http://www.w3.org/2000/svg">
 <g transform="translate(0 -288.53)">
  <path d="m2.147 292.35-0.41211-1.5516h1.8089l-0.40358 1.5516z" fill="#241907"/>
  <path d="m1.2094 290.2-6.93e-5 2.1552 0.49307-0.13446 0.44463 0.13446v-1.3652h0.99316v1.3652l1.2065-0.0862 1.2892 0.0862 1.912e-4 -2.1552-1.8037-0.30035z" fill="#563c11"/>
  <g fill="#9a6c1f" stroke-linecap="round" stroke-linejoin="round" stroke-width=".26458">
   <path d="m1.2093 292.06v0.28967h0.9377v-0.28967zm1.9309 0v0.28967h2.4957v-0.28967z"/>
   <path d="m1.2093 291.71v0.28967h0.9377v-0.28967zm1.9309 0v0.28967h2.4957v-0.28967z"/>
   <path d="m1.2093 291.35v0.28924h0.9377v-0.28924zm1.9309 0v0.28924h2.4957v-0.28924z"/>
   <path d="m1.2093 290.99v0.28967h0.9377v-0.28967zm1.9309 0v0.28967h2.4957v-0.28967z"/>
   <rect x="1.2094" y="290.63" width="4.4267" height=".2896"/>
   <rect x="1.2094" y="290.27" width="4.4267" height=".2896"/>
  </g>
  <path d="m1.2094 288.76 4.4267-1e-5v1.4399l-4.4267 1e-5z" fill="#dac446" stroke-linecap="round" stroke-linejoin="round" stroke-width=".26458"/>
  <g fill="#563c11">
   <rect x="1.2094" y="290.2" width=".10904" height="2.1487"/>
   <rect x="2.038" y="290.95" width=".10904" height="1.3986"/>
   <rect x="3.1402" y="290.95" width=".10904" height="1.3986"/>
   <rect x="1.6412" y="290.2" width=".10904" height=".19306"/>
   <rect x="2.0729" y="290.2" width=".10904" height=".19306"/>
   <rect x="2.5047" y="290.2" width=".10904" height=".19306"/>
   <rect x="2.9365" y="290.2" width=".10904" height=".19306"/>
   <rect x="3.3683" y="290.2" width=".10904" height=".19306"/>
   <rect x="3.8001" y="290.2" width=".10904" height=".19306"/>
   <rect x="4.2318" y="290.2" width=".10904" height=".19306"/>
   <rect x="4.6636" y="290.2" width=".10904" height=".19306"/>
   <rect x="5.0954" y="290.2" width=".10904" height=".19306"/>
   <rect x="5.5272" y="290.2" width=".10904" height="2.1487"/>
  </g>
  <path d="m7.8518 292.6v0.54866s-0.00762 0.16023-0.4115 0.15241c-0.40387-8e-3 -0.4115-0.14479-0.4115-0.14479v-0.54866" fill="#6c4e17"/>
  <path d="m7.4403 292.76c0.40388 8e-3 0.4115-0.1524 0.4115-0.1524s-0.00782-0.13716-0.41149-0.14478c-0.40388-8e-3 -0.4115 0.1524-0.4115 0.1524s0.00762 0.13716 0.41149 0.14478z" fill="#9e7222"/>
  <g transform="matrix(1.0922 .71132 -.71132 1.0922 208.25 -33.497)" stroke-width=".76723">
   <rect x="6.8536" y="293.58" width=".58758" height=".073082" fill="#644815"/>
   <path d="m7.2468 293.56h0.15055v0.19085l-0.045574 0.0269h-0.10497z" fill="#a3a3a3" stroke-linecap="round" stroke-linejoin="round" stroke-width=".203"/>
  </g>
  <path d="m7.0918 293.32-0.43849-0.0175-0.011692 0.21632h0.5028z" fill="#8d661e"/>
  <path d="m8.1531 293.67-0.43565-0.0175-0.046771 0.21632h0.5028z" fill="#8d661e"/>
  <path d="m7.2482 293.49-0.42241 3e-3 -0.011692 0.1944 0.42095 1e-3z" fill="#7c591b"/>
  <path d="m6.4546 293.51 0.43849-0.0175 0.011692 0.21632h-0.5028z" fill="#6b4d17"/>
  <path d="m0.69453 294.64 1.8025 0.13229-0.049609 0.57878-1.819-0.13229s-0.078427-0.0439-0.050946-0.2932c0.027482-0.24928 0.11709-0.28558 0.11709-0.28558z" fill="#8b641e"/>
  <ellipse transform="rotate(3.2705)" cx="19.299" cy="294.43" rx=".12504" ry=".29041" fill="#604515"/>
  <path d="m1.2402 294.71 0.011194-0.10748 0.11191 8e-3 -0.016787 0.1323" fill="#8b641e"/>
 </g>
</svg>
