<?xml version="1.0" encoding="UTF-8"?>
<svg width="24" height="24" version="1.1" viewBox="0 0 8.4667 4.2334" xmlns="http://www.w3.org/2000/svg">
 <path d="m7.5678-0.82938s-1.1177 0.35355-2.6321 0.81994c-0.10785 0.033214-0.2095 0.061432-0.30661 0.086128l-0.074415-0.40239s-0.23435-0.54517-2.0305-0.12678c-0.49758 0.1159-0.88403 0.21849-1.1872 0.30661l-0.11782-0.54777-0.59669 0.17363 0.12058 0.56362c-0.30847 0.11061-0.40308 0.17088-0.40308 0.17088l0.72899 3.5533s0.072826-0.067325 0.42513-0.20395l0.58842 2.7575 0.6091-0.1633-0.60152-2.7995c0.2582-0.080998 0.57673-0.174 0.97772-0.27974 0.20281-0.05348 0.38605-0.095522 0.5526-0.12954l0.097841 0.452s0.17011 0.4617 1.8624 0.070969c1.6923-0.39073 2.6328-0.9605 2.6328-0.9605l-2.1876-1.2485z" fill="#fefefe"/>
</svg>
