<?xml version="1.0" encoding="UTF-8"?>
<svg width="32" height="32" version="1.1" viewBox="0 0 8.4667 8.4667" xmlns="http://www.w3.org/2000/svg">
 <g>
  <rect x="4.1196" y="1.5046" width="2.925" height="2.4615" fill="#c8c8c8"/>
  <g stroke-width=".75028">
   <path d="m7.4646 1.4185-3.6679 0.018501s-0.3345 0.33942-0.30834 1.2898c0.025459 0.92464 0.41628 1.2209 0.43777 1.2366l1.8532 0.43539 1.6481-0.48991s0.38296-0.53428 0.33378-1.2626c-0.049184-0.72835-0.2968-1.2278-0.2968-1.2278zm-0.86139 0.0596s0.12767 0.35269 0.15169 1.0596c0.024034 0.70688-0.09416 1.3031-0.09416 1.3031s-0.013592-0.30881-0.033408-1.2118c-0.019814-0.90303-0.024137-1.1508-0.024137-1.1508zm-1.037 0.012551s0.063194 0.3768 0.087227 1.0837c0.024034 0.70688-0.029682 1.2789-0.029682 1.2789s-0.051677-0.37006-0.071487-1.2731c-0.019815-0.90303 0.01395-1.0896 0.01395-1.0896zm-0.93672 0.022948s0.00948 0.24771 0.039378 1.1505c0.029894 0.90276 0.03302 1.2118 0.03302 1.2118s-0.1505-0.58891-0.1654-1.296c-0.014892-0.70713 0.092989-1.0661 0.092989-1.0661z" fill="#faf4f1"/>
   <circle transform="rotate(5.9187)" cx="7.199" cy="4.5358" r=".57055" fill="#3a2014"/>
   <circle transform="rotate(5.9187)" cx="5.1488" cy="4.7834" r=".57055" fill="#3a2014"/>
  </g>
 </g>
 <g transform="matrix(-1.3949 0 0 1.3949 5.9587 -2.2765)">
  <g fill="none" stroke="#2d2d2d">
   <path d="m2.3913 5.1155v0.66615" stroke-width=".26458"/>
   <path d="m3.1438 5.2229v0.55513" stroke-width=".26458"/>
   <path d="m2.5799 5.1159h0.57086" stroke-linecap="round" stroke-width=".79375"/>
  </g>
  <ellipse cx="3.5982" cy="5.0078" rx=".27475" ry=".28323" fill="#2d2d2d" style="paint-order:markers fill stroke"/>
  <path d="m2.3913 5.1155s-0.30677 0.037591-0.38811 0.2908" fill="none" stroke="#2d2d2d" stroke-width=".13229"/>
 </g>
 <path d="m1.3227 4.7091 2.9578-0.01845" fill="none" stroke="#6b3b25" stroke-width=".26458px"/>
 <rect x="3.3087" y="4.0943" width=".97183" height=".59629" fill="#6b3b25" stroke-linecap="round" stroke-width=".11265"/>
 <path d="m3.9261 3.9635-0.0276 1.2476 3.5249-0.03099 7.937e-4 -1.271z" fill="#6b3b25"/>
</svg>
