<?xml version="1.0" encoding="UTF-8"?>
<svg width="32" height="38" version="1.1" viewBox="0 0 8.4667 10.054" xmlns="http://www.w3.org/2000/svg">
 <g fill="#414141">
  <rect x=".34197" y=".26458" width="7.6238" height=".52917"/>
  <circle cx=".66146" cy=".52917" r=".52917"/>
  <circle cx="7.8052" cy=".52917" r=".52917"/>
 </g>
 <path d="m1.3942 6.0564 5.657-1.01e-5 5.19e-5 0.2708-0.13545 1.1233-2.6366 1.5011-2.8198-1.6532-0.065205-0.97118z" fill="#fff"/>
 <path d="m1.3942 6.3272v1.0583s0.019207 0.057854 0.097152 0.16743v0.79454h0.24495v-0.50929c0.08945 0.090654 0.20185 0.19383 0.3421 0.30954v0.74493h0.2434v-0.55373c0.093535 0.070106 0.19556 0.1436 0.30851 0.22066 0.026034 0.017762 0.051645 0.034697 0.076998 0.051677v0.75901h0.2434v-0.60088c0.1436 0.090059 0.27463 0.16647 0.39274 0.23099v0.76171h0.24495v-0.63511c0.23911 0.11568 0.40591 0.17259 0.50798 0.20051v0.72332h0.24495v-0.72539c0.097363-0.027397 0.25188-0.079672 0.46664-0.1788v0.61547h0.24546v-0.73691c0.12819-0.067207 0.27072-0.14799 0.4284-0.24495v0.59003h0.2434v-0.74506c0.048568-0.032028 0.097917-0.064859 0.14883-0.099736 0.087951-0.06025 0.16856-0.1181 0.24391-0.17363v0.54081h0.2434v-0.72788c0.14434-0.11682 0.25886-0.22089 0.34933-0.31161v0.4943h0.2434v-0.77749c0.085183-0.12249 0.097152-0.18449 0.097152-0.18449v-1.0583s-0.07499 0.38492-1.1772 1.14c-1.1022 0.75507-1.6552 0.82838-1.6552 0.82838 6e-7 0-0.49149-0.045784-1.5885-0.79427-1.0971-0.74848-1.2361-1.1741-1.2361-1.1741z" fill="#640000"/>
 <path d="m1.3942 0.085783v5.9706s0.13905 0.42561 1.2361 1.1741c1.0971 0.74849 1.5885 0.79427 1.5885 0.79427s0.553-0.07331 1.6552-0.82838c1.1022-0.75506 1.1772-1.14 1.1772-1.14v-5.9706h-0.97927v1.0599h-1.3386v-1.0599h-0.97927v1.0599h-1.3801v-1.0599z" fill="#900"/>
</svg>
