<?xml version="1.0" encoding="UTF-8"?>
<svg width="32" height="32" version="1.1" viewBox="0 0 8.4667 8.4667" xml:space="preserve" xmlns="http://www.w3.org/2000/svg"><g fill="#fff"><path d="m6.3593 1.4686-1.6986 1.6986a1.1834 1.1834 0 0 1 0.6842 0.68317l1.6981-1.6981-0.68368-0.68368zm-4.1853 0.054777-0.68368 0.68368 1.6438 1.6444a1.1834 1.1834 0 0 1 0.6842-0.6842l-1.6444-1.6438zm0.96015 3.1704-1.6986 1.6986 0.68368 0.68368 1.6981-1.6981a1.1834 1.1834 0 0 1-0.68317-0.6842zm2.2107 0.0010336a1.1834 1.1834 0 0 1-0.68317 0.68317l1.7524 1.7529 0.68368-0.68368-1.7529-1.7524z" color="#000000"/><path d="m3.594 7.7755-3.0596 0.20216 0.20216-3.0596z"/><path d="m7.7542 3.6154 0.20216-3.0596-3.0596 0.20216z"/><path d="m4.9391 7.8296 3.0596 0.20216-0.20216-3.0596z"/><path d="m0.77891 3.6695-0.20216-3.0596 3.0596 0.20216z"/></g></svg>
