<?xml version="1.0" encoding="UTF-8"?>
<svg width="32" height="32" version="1.1" viewBox="0 0 8.4667 8.4667" xmlns="http://www.w3.org/2000/svg">
 <path d="m2.0764 0.95247c-1.1135-2.414e-5 -2.016 0.90258-2.016 2.016 3.7434e-4 0.57372 0.24517 1.1201 0.67307 1.5023l2.9535 2.9542 2.9303-2.9303c0.44375-0.38295 0.69887-0.94003 0.69888-1.5262 2.41e-5 -1.1135-0.90258-2.016-2.016-2.016-0.6339 3.8925e-4 -1.2307 0.29891-1.6112 0.80592-0.38076-0.50736-0.97809-0.80592-1.6124-0.80592z" fill="#d81d4f" stroke="none"/>
 <path d="m6.3703 3.2303a1.6385 1.6385 0 0 0-1.6373 1.6227h-0.46299v3.2027h4.1567v-3.2027h-0.41915a1.6385 1.6385 0 0 0-1.6373-1.6227zm0 0.41915a1.2192 1.2192 0 0 1 1.2193 1.2036h-2.4375a1.2192 1.2192 0 0 1 1.2181-1.2036zm-0.029217 1.9081a0.56903 0.56903 0 0 1 0.56974 0.56861 0.56903 0.56903 0 0 1-0.33489 0.51805v0.71696h-0.44951v-0.70909a0.56903 0.56903 0 0 1-0.35398-0.52593 0.56903 0.56903 0 0 1 0.56861-0.56861z" stroke="none" />
</svg>
