<?xml version="1.0" encoding="UTF-8"?>
<svg width="32" height="24" version="1.1" viewBox="0 0 8.4667 6.35" xml:space="preserve" xmlns="http://www.w3.org/2000/svg"><g fill="none" stroke="#333"><g stroke-linecap="round" stroke-linejoin="round" stroke-width=".26458"><path d="m2.5499 1.9576s-0.040928-0.77025-0.97827-0.92949c-0.93735-0.15924-1.0223-0.41541-1.0223-0.41541s0.044252 0.27698 0.095154 0.40563c0.050902 0.12865 0.19326 0.25577 0.19326 0.25577s-0.050252 0.23642 0.076708 0.43767c0.12696 0.20125 0.24528 0.26432 0.24528 0.26432s0.158 0.3645 0.57659 0.41052c0.41859 0.046025 0.71599-0.15958 0.71599-0.15958"/><path d="m5.972 3.4469s0.55639-0.49136 1.33 0.061296c0.77366 0.55266 1.0153 0.43237 1.0153 0.43237s-0.22767 0.16385-0.3548 0.21842c-0.12714 0.054574-0.31765 0.043198-0.31765 0.043198s-0.13228 0.20229-0.36453 0.25409c-0.23225 0.051797-0.36038 0.012326-0.36038 0.012326s-0.36992 0.14485-0.69762-0.11963c-0.3277-0.26448-0.39148-0.62036-0.39148-0.62036"/><rect transform="rotate(24.367)" x="3.1707" y=".16132" width="3.667" height="2.4686" rx=".36652" ry=".36652"/></g><g stroke-width=".26458px"><path d="m2.7136 1.8092 1.1832 1.7309 2.1227-0.287"/><path d="m1.9707 3.5608 1.6173-0.45953"/><path d="m4.4768 3.5121 0.65562 1.4507"/></g></g></svg>
