<?xml version="1.0" encoding="UTF-8"?>
<svg width="32" height="32" version="1.1" viewBox="0 0 8.4667 8.4667" xmlns="http://www.w3.org/2000/svg">
 <g fill="#fff">
  <path d="m5.8606 1.6686c-0.33138 0.22198-0.86498 0.51682-1.6847 0.82011-0.4704 0.17403-0.854 0.40398-1.1622 0.6718h0.57051v5.168e-4c0.0048911-5.422e-4 0.95635-0.1063 1.7296 0.46716 0.47937-0.072213 0.90489-0.10047 1.2289-0.10955-0.26088-0.508-0.5384-1.1782-0.68213-1.85zm-2.5167 2.4014c-0.090864-2.237e-4 -0.14883 0.0036174-0.14883 0.0036174l-5.168e-4 -5.168e-4h-0.89504c-0.25307 0.50293-0.35036 1.0542-0.32866 1.5896 0.024911 0.61465 0.37343 1.1758 0.88574 1.5208l0.072864-0.44804 0.36587-0.29249c-0.18182-0.13675-0.32229-0.31865-0.37207-0.54622-0.099963-0.45667-0.21139-1.3034 0.72709-1.8113-0.11642-0.011533-0.22497-0.015302-0.30644-0.015503z"/>
  <path d="m0.89452 3.1202s-0.21781 0.0404-0.19275 0.49971c0.025057 0.45935 0.23358 0.52658 0.23358 0.52658l0.14211-0.22582h2.3632l5.168e-4 5.1e-4s0.59317-0.0363 0.96067 0.13075c0.3675 0.16709 0.82813 0.52639 0.85318 1.4201 0.015332 0.54591-0.22866 0.9142-0.52939 1.1106l0.15237 0.40903s0.27085 0.19815 0.30118 0.17332c0.96542-0.72894 1.0132-2.3686 0.30478-3.1212-0.79997-0.84997-2.0037-0.71582-2.0092-0.71521 2e-6 0 0-5.1e-4 0-5.1e-4h-2.4138z"/>
  <path d="m6.0586 0.49661c-0.055597 0.003411-0.09047 0.079264-0.086817 0.31678 0.0319 1.2162 0.73941 2.6471 1.1317 3.2324 0.3245 0.4841 0.36359-0.016674 0.53899-0.20877 0.038807-0.042505 0.060644-0.088578 0.06873-0.14676 0 0 5.214e-4 -0.0043038 0.0015503-0.010852 2.208e-4 -0.0020768 8.471e-4 -0.0040928 0.0010335-0.0062012 2.143e-4 -0.0016053 2.948e-4 -0.0043541 5.168e-4 -0.0062012 0.010956-0.091169 0.02851-0.47883-0.27234-1.4387-0.26309-0.83937-0.52183-1.2326-0.63459-1.3767-1.738e-4 -2.2207e-4 -3.436e-4 -2.9588e-4 -5.167e-4 -5.1677e-4 -0.036728-0.05068-0.058395-0.071314-0.058395-0.071314s-0.22553-0.041558-0.40928-0.12506c-0.10336-0.04698-0.20912-0.16252-0.2806-0.15813z"/>
  <path d="m4.8685 6.3707c-0.0044122 1.816e-4 -0.0091242 5.335e-4 -0.013953 0.0010335-0.076621 0.0082909-0.14703 0.051682-0.20929 0.13384-0.016151 0.13808-0.011055 0.35995 0.13229 0.56017v0.0020671c0.090206 0.13426 0.18662 0.21448 0.25942 0.26148 0.070397 0.045453 0.1154 0.057612 0.11834 0.058395 0.030817-0.026467 0.059409-0.05288 0.085783-0.078548 0.23386-0.22759 0.13591-0.34417 0.13591-0.34417s-0.075419 0.12733-0.12971 0.13333c-0.05429 0.00627-0.11898 0.014558-0.26097-0.14831-0.14199-0.16287-0.16071-0.40721-0.16071-0.40721l0.12919-0.14366s-0.020118-0.031147-0.0863-0.028422zm-1.5596 0.015503c-0.10297 7.838e-4 -0.29907 0.053192-0.41496 0.26303-0.15451 0.2798-0.096118 0.63097-0.096118 0.63097s0.045662 0.085485 0.14986 0.1881c-0.0070509-0.14405-0.0049042-0.39356 0.07183-0.60358 0.084806-0.23218 0.31883-0.32742 0.44752-0.36329-0.051201-0.049199-0.081371-0.091719-0.092501-0.10284-0.0073075-0.0073075-0.031308-0.012664-0.065629-0.012402zm0.21808 0.16743c-0.098455 0.023648-0.36191 0.10707-0.44494 0.33435-0.085032 0.23272-0.071492 0.53274-0.062529 0.64544 0.038733 0.031952 0.083031 0.064019 0.13333 0.094568-0.0091833-0.10748-0.013484-0.34584 0.085266-0.61702 0.088824-0.2439 0.25641-0.35821 0.36277-0.40825-0.027057-0.015567-0.051859-0.032168-0.073898-0.049093zm1.0465 0.019637c-0.065327 0.049156-0.14652 0.0923-0.17622 0.10749-0.030912 0.10726-0.074201 0.32407 0.0031006 0.52348 0.10245 0.2693 0.27958 0.38662 0.36742 0.43047 0.13127-0.059605 0.23896-0.12865 0.32866-0.19896-0.024465-0.01071-0.05788-0.027006-0.096118-0.051677-0.079514-0.05132-0.18201-0.13692-0.2775-0.27905-0.13172-0.18395-0.15578-0.38377-0.14935-0.53175zm-0.89452 0.068213c-0.077708 0.025942-0.27795 0.11727-0.37827 0.39274-0.11839 0.32512-0.08133 0.5947-0.074931 0.63459 0.080685 0.0414 0.17412 0.077931 0.28164 0.10335-0.0033982-0.022881-0.0067456-0.051888-0.0093018-0.087334-0.007247-0.10052-0.0089464-0.25412 0.011886-0.47077 0.026111-0.27158 0.13873-0.454 0.22169-0.55449-0.018316-0.0055547-0.035895-0.01129-0.05271-0.018087zm0.12454 0.035657c-0.076597 0.083729-0.20014 0.25926-0.22738 0.5426-0.020509 0.2133-0.018329 0.36446-0.011369 0.46096 0.0035504 0.04925 0.007811 0.083817 0.011369 0.10594 0.081212 0.014832 0.16989 0.02327 0.26613 0.023771 0.073772 4.004e-4 0.14374-0.0022158 0.21084-0.0067179-0.013116-0.024663-0.028755-0.057835-0.044959-0.10129-0.038518-0.10328-0.081478-0.26355-0.094052-0.49196h0.0020671c-0.017298-0.24093 0.045744-0.42105 0.093535-0.51987-0.035208-8.468e-4 -0.072751-0.002105-0.11317-0.0036173-0.032658-0.0012249-0.063669-0.0045452-0.093018-0.0098186zm0.52297 0.012402c-0.048816 0.0018326-0.13005 0.0036669-0.24443 0.0020671-0.043894 0.08004-0.11966 0.25872-0.10129 0.5147 0.012232 0.22221 0.051753 0.37604 0.08785 0.47284 0.023284 0.062421 0.044001 0.10025 0.055811 0.11937 0.22521-0.021293 0.41218-0.069179 0.56844-0.13126-0.10502-0.063814-0.26194-0.19457-0.35502-0.43925h0.0020671c-0.079082-0.20401-0.045597-0.41665-0.013436-0.53847z"/>
 </g>
</svg>
