<?xml version="1.0" encoding="UTF-8"?>
<svg width="32" height="32" version="1.1" viewBox="0 0 8.4667 8.4667" xmlns="http://www.w3.org/2000/svg">
 <g transform="translate(0 -288.53)">
  <g transform="matrix(.14615 .02166 -.02166 .14615 -.41763 287.01)" stroke-width="63.708">
   <path d="m17.036 33.291s1.1216-2.2721 1.438-5.4069c0.31637-3.1348 0.34512-8.5994 0.34512-8.5994s0.05752-5.4645 2.0995-7.9379c2.042-2.4734 5.7808-3.2499 8.4844-2.4446 2.7035 0.80529 4.7454 2.4446 5.2919 6.2123 0.54644 3.7676 0.25884 8.1104 1.1792 12.136 0.92035 4.0264 2.0132 6.1259 2.0132 6.1259z" fill="#197a09"/>
   <path d="m20.085 29.176 6.8331 4.5554 6.6298-4.1893 0.39881 0.52801 9.0167 37.363-30.81 0.2237 7.2546-36.911z" fill="#891111"/>
   <path d="m22.643 28.858 0.16626 4.5845 1.1388 12.284 6.1417 0.08135 1.2101-16.662s-0.2136-0.66519-0.15258-1.499c0.06101-0.8338 0.2237-1.627 0.2237-1.627s0.11582-0.1959 0.23087-0.42598 0.21571-0.60397 0.21571-0.60397-0.41703-0.27322-1.0354-2.646c-0.61834-2.3727-0.40264-3.2787-0.6471-4.2709-0.24447-0.99224-0.40264-2.761-0.40264-2.761s-0.61834-0.33074-1.4811-0.30199c-0.86285 0.02875-1.5243 0.44579-1.5243 0.44579s-0.71901-0.44579-1.8263-0.34512c-1.1072 0.10066-1.4236 0.47454-1.4236 0.47454s-0.0719 1.6825-0.24446 3.2212-0.20132 3.6957-0.51769 4.5585c-0.31637 0.86285-0.53207 1.136-0.53207 1.136s0.21571-0.74777 0.30198-1.51c0.08628-0.76219-0.20132-3.7964-0.20132-3.7964s0.04314 1.9557 0 3.1205-0.43141 2.5597-0.43141 2.5597 0.20132 0.5033 0.40264 0.90598c0.20132 0.40267 0.44579 0.81967 0.44579 0.81967s0.10066 1.0066 0.10785 1.474c0.0072 0.46736-0.16537 0.78372-0.16537 0.78372z" fill="#f8f4e9"/>
  </g>
  <path d="m2.5443 290.43c-0.00512-5.6e-4 -0.0098-1e-3 -0.014645-2e-3 -0.00249 0.0111-0.00489 0.0219-0.00737 0.0331 0.00579 5.1e-4 0.011388 1e-3 0.017623 2e-3 0.076012 0.0102 0.15932 0.0674 0.22233 0.12312 0.063016 0.0557 0.1057 0.10857 0.1057 0.10857 0.00579 7e-3 0.016498 9e-3 0.023787 3e-3 0.00699-5e-3 0.0083-0.0163 0.00248-0.0235 0 0-0.044333-0.0549-0.10963-0.11258-0.065295-0.0577-0.15141-0.11959-0.24017-0.13144zm1.0236 0.16182c-0.0165-3e-3 -0.033902-4e-3 -0.052245-5e-3 -0.23306-3e-3 -0.34577 0.13227-0.34577 0.13227-0.00595 8e-3 -0.00477 0.0179 0.00252 0.0237 0.00713 6e-3 0.017577 5e-3 0.023506-3e-3 0 0 0.099484-0.12276 0.31961-0.11984 0.024624 8.9e-4 0.0471 4e-3 0.067822 7e-3 2.467e-4 -0.0114 6.697e-4 -0.0232 0.00116-0.0343-0.00527-2e-3 -0.010806-2e-3 -0.016327-3e-3zm-1.1525-0.16475c-0.00334 5.1e-4 -0.00684 1e-3 -0.00987 2e-3 -0.00175 0.0128-0.00292 0.0216-0.00484 0.0353 0.00398-1e-3 0.00796-2e-3 0.012566-3e-3 7.235e-4 -0.0113 0.00162-0.0231 0.00229-0.0342z" fill="#725d24" stroke-width=".22777"/>
  <path d="m2.5421 290.45c-0.00982 0.01-0.017726 0.0204-0.023691 0.0326-0.00371 0.0167-0.00737 0.0331-0.011139 0.0498-7.458e-4 0.059 0.041974 0.10958 0.10028 0.11871 0.06374 9e-3 0.12336-0.0338 0.13433-0.0972-0.036139-0.0269-0.078913-0.0541-0.12806-0.0773-0.025974-0.0119-0.049799-0.0204-0.071667-0.0269zm1.0275 0.16371c-0.03931-6e-3 -0.089785-7e-3 -0.15053 3e-3 -0.017037 2e-3 -0.033104 7e-3 -0.048319 0.0102-0.00387 9e-3 -0.00625 0.018-0.00783 0.0275-0.00713 0.0504 0.028668 0.10549 0.063947 0.12263 0.035364 0.0166 0.040005 0.014 0.071708 0.0115 0.031835-3e-3 0.066658-0.0273 0.084385-0.0586-9.622e-4 -0.042-2.831e-4 -0.0796 8.706e-4 -0.11386-0.0044-6.2e-4 -0.00951-2e-3 -0.014302-3e-3z" fill="#725d24" stroke-width=".22777"/>
  <g transform="matrix(.14615 .02166 -.02166 .14615 -.41763 287.01)" stroke-width="63.708">
   <path d="m20.125 32.103s1.0226-0.68267 1.5979-1.3442 0.92035-1.8982 0.92035-1.8982 0.28761 1.2655 1.1792 2.2721c0.8916 1.0066 2.4158 2.7035 2.3583 4.2566-0.05752 1.5531-0.5752 4.9756-0.08628 6.9888 0.48893 2.0132 2.1282 0.69024 1.8982-2.8186-0.23008-3.5088-0.77653-4.918 1.1792-6.96 1.9557-2.042 2.1282-3.4512 2.1282-3.4512s0.37616 1.1245 0.86422 1.6938c0.48808 0.56943 0.89478 0.85414 0.89478 0.85414l1.3626 3.5386-4.3317 10.575-6.1417-0.08135z" fill="#6bc0d7"/>
   <path d="m25.23 37.432 0.85414 0.2237 0.97614-1.3423 0.79313 1.3015 0.79313-0.26437 0.79313 0.79312s-0.95582 0.29489-1.1897 0.62027c-0.23387 0.32539 0.30505 0.35589 0.5796 0.5491 0.27455 0.1932 0.35589 0.35589 0.35589 0.35589s-0.17286 0.33556-0.51859 0.45758c-0.34572 0.12202-0.86431-0.21354-0.86431-0.21354s0.33556 0.37622 0.1627 0.67111-0.56943 0.18304-0.56943 0.18304 0.44741 0.6101-0.31522 0.62026c-0.76262 0.01016-0.35589-0.63043-0.35589-0.63043s-0.30505 0.21353-0.52875-0.06103c-0.2237-0.27454-0.01017-0.72195-0.01017-0.72195s-0.40673 0.34572-0.84398 0.2542c-0.43723-0.09151-0.6101-0.49824-0.6101-0.49824s0.1627-0.35589 0.62027-0.50842c0.45758-0.15253 0.71178-0.14235 0.30505-0.49825-0.40673-0.35589-1.1388-0.47791-1.1388-0.47791z" fill="#d4b96f"/>
   <path d="m20.125 32.103s0.9355 2.359 2.8878 6.345c1.9524 3.986 4.4334 5.6536 4.4334 5.6536s2.5217-2.9285 3.7419-5.7756 1.871-6.6298 1.871-6.6298 1.0575 0.89478 1.9116 1.0982c0.85414 0.20337 3.9046 16.92 3.9046 16.92s-1.0575 4.9621-1.0575 7.5653 0.66094 9.0739 0.66094 9.0739l-21.933-0.14235s1.2405-6.6131 0.97614-9.7857c-0.26438-3.1726-1.5659-6.0603-1.5659-6.0603l3.466-17.881z" fill="#404040"/>
   <path d="m27.08 37.105s0.68128 0.69144 0.70162 1.7489c0.02034 1.0575-0.67112 1.9421-0.67112 1.9421s-0.95582-0.81347-0.89478-1.9116c0.06104-1.0982 0.86431-1.7794 0.86431-1.7794z" fill="#f41f1f"/>
   <path d="m20.085 29.176s-1.0575 2.359-2.5625 3.7013c-1.5049 1.3423-6.345 2.8471-6.345 2.8471l-2.7449 5.8163s-0.31283 2.1043-0.25532 3.1972c0.05752 1.0929 0.92715 3.7261 0.57521 5.2344-0.40264 1.7256-0.23936 2.9573-0.93762 8.1729s-0.60761 9.228-0.60761 9.228l7.7001-0.15632s0-7.8111 0.74778-10.86c0.74778-3.0486 2.9911-10.124 3.5663-13.978 0.5752-3.8539 0.66149-6.7299 0.43141-9.0598-0.23008-2.3296 0.43222-4.144 0.43222-4.144z" fill="#fff"/>
   <path d="m33.947 30.063s1.4956 2.8186 4.3716 3.8539c2.876 1.0354 6.0397 5.7521 6.0397 5.7521s1.5531 3.3362 1.3805 4.3716c-0.17256 1.0354-0.11505 3.6238 0.28761 4.7167 0.40264 1.0929 0.50341 4.2572 0.63008 6.443 0.12756 2.201 0.40529 7.9255 0.57785 9.9388 0.17256 2.0132 0.11505 2.8186 0.11505 2.8186l-7.4202-0.34513s-0.19457-7.3356-0.82732-11.105c-0.63274-3.7698-3.1992-11.776-4.177-16.723-0.97786-4.9468-0.97786-9.7209-0.97786-9.7209z" fill="#fff"/>
   <path d="m13.17 34.342c-2.2777 0.56943-2.9691 0.56943-2.9691 0.56943s-1.3423 3.4979-1.871 4.6368c-0.52875 1.1388-0.44741 2.0642-0.44741 2.0642l0.65077-0.59993 0.29071 0.44726 0.50331-0.70464 0.31637 0.53207 0.71901-1.1072 0.43141 0.60397 0.50331-1.51 0.60397 1.1504 0.33074-1.2655 0.44578 0.73339 0.30198-1.2799 0.34512 0.67587 0.30198-1.2511 0.34512 0.77654 0.28761-0.96348 0.34512 0.63273 0.38827-0.79091 0.33074-1.5675 0.84844 0.48893 0.61835 1.0641 0.23008-1.5531 0.46017 0.64711 0.01438-1.2655 0.54645 0.51768-0.01439-1.0354s-0.02876-0.96348-0.1438-1.4236c-0.11505-0.46017-0.11751-1.2488-0.11751-1.2488s-2.3182 1.4564-4.596 2.0259z" fill="#c92b2b"/>
   <path d="m39.21 33.429c3.3937 0.74778 4.6879 1.1792 4.6879 1.1792s0.37388 1.3805 1.0641 2.8761c0.69025 1.4955 1.1134 2.6472 1.1134 2.6472l-0.1627 0.71178-0.6101-0.69145-0.2237 0.65078-0.65077-1.1999-0.21354 1.0575-0.89478-1.4744-0.46774 0.94566-0.51859-1.6777-0.96598 1.2202-0.23387-1.1999-0.48808 0.74229-0.2237-1.3727-0.44741 0.65078-0.23387-1.3524-0.49825 0.97614-0.2237-1.0778-0.49825 0.9355-0.6406-1.8506-1.0575-0.63044-0.45758 1.6676-0.26437-1.3626-0.24404 0.48808-0.18303-0.86431-0.2542 0.32539-0.26438-1.2304s-0.06101-0.49825 0.06101-1.3423c0.12202-0.84398-0.20466-1.6272-0.20466-1.6272s0.80529 1.1321 4.199 1.8799z" fill="#c92b2b"/>
   <path d="m15.347 33.403s0.04068-0.71179 0.87447-1.0169c0.8338-0.30505 0.97614 0.26437 0.97614 0.26437l-1.1592 0.63044s0.52875 0.18304 0.51859 0.64061c-0.01017 0.45757-0.55926 0.9863-0.55926 0.9863l0.17544 1.7021s0.41433 1.6738 4.7664 3.6668c4.352 1.993 9.0641 2.8769 12.835-0.22989 3.7711-3.1069 3.048-4.5492 3.048-4.5492l0.17321-1.3467s-0.53207-0.47455-0.27322-0.90598c0.25884-0.43142 0.40264-0.40265 0.40264-0.40265l-0.80529-0.36001s0.17975-0.44528 0.63273-0.28709c0.45298 0.15818 0.51049 0.76215 0.51049 0.76215s0.46736 0.35951 0.49612 0.86285c0.02876 0.50331-0.20132 0.76934-0.20132 0.76934l0.12215 1.5385-0.08135 0.37622s0.31522 0.44741 0.4169 0.91519-0.01016 1.0778-0.01016 1.0778 0.31522 0.25421 0.50842 0.69144c0.1932 0.43724 0.06101 0.88463 0.06101 0.88463s0.42707 0.08135 0.44741 0.6406c0.02034 0.55926-0.04068 0.8033-0.04068 0.8033s0.34572 0.08135 0.65077 0.59993c0.30505 0.51859 0.29488 0.81347 0.29488 0.81347s0.4169 0.01016 0.68128 0.4169c0.26437 0.40673 0.35589 0.79313 0.35589 0.79313s0.49825 0.03047 0.8033 0.45758c0.30505 0.42707 0.39657 0.84398 0.39657 0.84398s0.37622-0.09152 0.72195 0.03047c0.34572 0.12202 0.55926 0.51859 0.55926 0.51859s0.65077-0.2237 1.0473 0.1932c0.39656 0.4169 0.49825 0.74229 0.49825 0.74229s0.34572-0.11185 0.70162 0.20337c0.35589 0.31522 0.21354 0.48808-0.1932 0.52875-0.40673 0.04063-0.40673-0.14236-0.40673-0.14236s-0.3864 0.10168-0.85414-0.03048c-0.46774-0.13219-0.81347-0.53893-0.81347-0.53893s-0.45758 0.03048-0.89478-0.2237c-0.43723-0.25421-0.6406-0.68128-0.6406-0.68128s-0.3864-0.17286-0.81347-0.5796c-0.42707-0.40673-0.40673-0.74229-0.40673-0.74229s-0.31522-0.1627-0.68128-0.65077c-0.36607-0.48809-0.42707-0.95582-0.42707-0.95582s-0.36606-0.09151-0.62027-0.55925c-0.2542-0.46774-0.1627-0.83381-0.1627-0.83381s-0.44741-0.2542-0.66095-0.70162-0.06101-0.71178-0.06101-0.71178-0.15253-0.14236-0.3864-0.78297c-0.23387-0.6406 0.03051-1.0676 0.03051-1.0676s-0.43724-0.20337-0.51859-0.77279c-0.08135-0.56943-0.14235-1.149-0.14235-1.149s0.31522 2.2574-1.9218 4.5961c-2.237 2.3387-4.6978 3.4979-10.311 3.0098-5.6129-0.48808-9.2535-6.7213-9.2535-6.7213s0.11185 0.50842-0.04068 1.0067c-0.15253 0.49825-0.49825 0.88463-0.49825 0.88463s0.21354 0.69145-0.03051 1.3015c-0.24404 0.6101-0.44741 0.62027-0.44741 0.62027s0.18303 0.37622-0.10169 0.9355c-0.28471 0.55928-0.5491 0.68128-0.5491 0.68128s0.11185 0.38639-0.23387 0.90494c-0.34572 0.51859-0.58976 0.5491-0.58976 0.5491s0.09152 0.52875-0.34572 1.088c-0.43724 0.55926-0.76262 0.5491-0.76262 0.5491s0.08135 0.44741-0.33556 0.88463c-0.4169 0.43724-0.71178 0.39657-0.71178 0.39657s-0.01017 0.42708-0.31522 0.68128-1.0473 0.29488-1.0473 0.29488-0.17286 0.4169-0.6101 0.62027c-0.43724 0.20336-1.0676 0.18303-0.72195-0.43724 0.34572-0.62026 0.68128-1.1796 0.95582-1.2711 0.27455-0.09151 0.3864 0.1627 0.3864 0.1627s0.20337-0.33556 0.53892-0.58976c0.33556-0.25421 0.50842-0.08135 0.50842-0.08135s0.2237-0.63043 0.5491-0.96598c0.32539-0.33556 0.5796-0.03047 0.5796-0.03047s0.08135-0.43723 0.3864-0.90494 0.74229-0.6101 0.74229-0.6101 0-0.31522 0.20337-0.79312c0.20337-0.47792 0.53892-0.70162 0.53892-0.70162s-0.11185-0.05088 0.08134-0.75246c0.1932-0.70162 0.4169-0.74228 0.4169-0.74228s-0.10168-0.27455 0.06101-0.87447c0.1627-0.59993 0.5796-0.88463 0.5796-0.88463s-0.05376-0.84866 0-1.2507 0.56943-1.2812 0.56943-1.2812l-0.08134-2.0947s-0.11185-0.15252 0.0305-0.65077 0.2542-0.65077 0.2542-0.65077l-0.37623 0.16777z" fill="#ede2c4"/>
   <path d="m37.545 36.941-1.5162-1.5034 1.1287-1.9421 1.8506 1.7693z" fill="#d4b96f"/>
   <path d="m15.682 37.665-1.3626-1.8404 1.6574-1.8913 1.3423 2.0845z" fill="#d4b96f"/>
   <path d="m17.909 17.804s0.78296 0.40673 1.4642 0.95582c0.68128 0.54909 1.6574 1.5049 1.6574 1.5049s-0.02033-0.26438-0.02033-0.5796 0.04068-0.7728 0.04068-0.7728 0.31522 1.3219 0.17286 2.8573c-0.14235 1.5354-0.43724 1.9625-0.43724 1.9625s-0.52875-0.27455-1.0473-1.1592c-0.51859-0.88463-0.6406-1.81-1.0067-2.654-0.36606-0.84398-0.82363-2.115-0.82363-2.115z" fill="#f8f4e9"/>
   <path d="m31.982 20.025s0.12407 0.71282 0.08093 1.5038c-0.04314 0.79091 0.20132 1.8982 0.20132 1.8982s0.77653 0.2157 1.2942-0.79091c0.51769-1.0066 1.0008-1.8806 1.3198-2.7372 0.36372-0.9764 0.9077-2.0086 0.9077-2.0086s-0.9417 0.38303-1.922 1.1666c-0.95031 0.75952-1.5667 1.3953-1.6989 1.2427-0.13218-0.15252-0.18303-0.27454-0.18303-0.27454z" fill="#f8f4e9"/>
   <path d="m14.986 35.831 0.74655 0.9962 0.9355-0.87447-0.73295-1.2147z" fill="#f41f1f"/>
   <path d="m36.588 35.366 0.92535 0.87447 0.90494-0.94566-1.149-1.1185z" fill="#f41f1f"/>
  </g>
  <g transform="matrix(.12581 .018646 -.018646 .12581 5.452 251.41)" fill="#727272">
   <g stroke-width="6.7685">
    <circle cx="25.75" cy="340.69" r=".8032" style="paint-order:markers fill stroke"/>
    <circle cx="25.702" cy="346.98" r=".8032" style="paint-order:markers fill stroke"/>
    <circle cx="25.561" cy="352.6" r=".8032" style="paint-order:markers fill stroke"/>
   </g>
   <circle cx="25.541" cy="358.39" r=".69145" stroke-width="5.8268" style="paint-order:markers fill stroke"/>
  </g>
  <path d="m2.6618 291.32s0.06068 0.14597 0.27642 0.18544c0.21574 0.0394 0.30578-0.0855 0.30578-0.0855" fill="#725d24" stroke="none"/>
  <path d="m2.5302 290.37s0.058044-0.013 0.13438-8e-3c0.07637 6e-3 0.22569-3e-3 0.26084 5e-3 0.035169 8e-3 0.056364 0.0135 0.056364 0.0135s-0.026388-0.0414-0.099156-0.0505c-0.072819-9e-3 -0.24046-0.0197-0.28695-0.0291-0.046505-0.01-0.11457-9e-3 -0.11457-9e-3z" fill="#197a09" stroke-width=".86086"/>
  <path d="m3.3137 290.37c0.057166-2e-3 0.33455 0.0491 0.33455 0.0491l-0.032087 0.0624s-0.079136-0.037-0.15684-0.0458c-0.077583-9e-3 -0.16434-0.0407-0.19429-0.0372-0.030178 4e-3 -0.054255 2e-3 -0.054255 2e-3s0.045835-0.028 0.10297-0.0303z" fill="#197a09" stroke-width=".86086"/>
  <g transform="rotate(-4.2048 -1.3546 295.86)">
   <g transform="matrix(-.16112 .010207 .010207 .16112 9.8551 286.99)">
    <path d="m28.393 32.378-3.125-0.48859c-3.3643 0.66327-6.013 1.5678-9.0592 2.6852-2.1296 0.76425-2.9944 2.5158-3.3983 3.9145-0.40388 1.3987-2.2958 6.0391-4.3346 9.6692s-2.6831 4.4756-3.127 4.7997c-0.44384 0.3241-0.2329 0.8408 0.091984 1.171 0.32489 0.33019 0.76602 1.7982 3.515 5.1274 2.749 3.3292 4.6434 4.93 5.7325 5.7418 1.0891 0.81175 1.4707 1.5839 1.4707 1.5839h21.565s0.53963-3.6208-0.74724-6.8254c-1.2869-3.2046-1.0485-6.1836-1.0485-6.1836s1.0575 1.2777 1.9074 4.4426c0.84985 3.165 0.98391 5.1773 0.60668 6.8632-0.37722 1.6858-0.33435 1.7524-0.33435 1.7524l3.9241-0.01032s0.87074-5.0806 0.68852-7.2012c-0.09982-1.1616-0.81788-5.4388-1.3198-6.0239-0.50194-0.58514-2.1772-8.7472-3.099-10.115-0.92184-1.368-0.97514-3.2897-0.97514-3.2897s0.18908-2.0954 0.35192-2.8784c0.16284-0.78294-1.4349-1.7135-3.1817-2.8965s-6.1041-1.8379-6.1041-1.8379zm-10.959 13.728s0.31888 0.78152 0.80719 1.8381c0.48831 1.0566 1.7285 2.6511 2.403 3.976 0.67448 1.3249-0.3867 4.3502-0.97049 6.1092s-0.90538 3.714-0.90538 3.714-2.3282-3.3423-3.3977-5.4105c-1.0696-2.0683-1.9343-2.8257-1.9343-2.8257s0.60169-0.39586 0.2775-0.66714c-0.32419-0.27129-0.36277-0.92191-0.36277-0.92191s1.2728-0.32919 2.002-1.4247c0.72919-1.0955 2.081-4.3873 2.081-4.3873z" fill="#2c6430"/>
    <path d="m18.768 61.743s0.35303-1.8342 0.58661-2.6781c0.23358-0.84388 2.387 0.20504 2.387 0.20504l9.0447 1.0609 5.2595-0.9811 0.93103 0.40678s0.97569 2.1992 0.91948 6.289c-0.05622 4.0898-15.255 1.179-15.255 1.179z" fill="#685b2e"/>
    <path d="m23.455 31.862s-0.26219 0.73026 0.7482 2.4758c1.0104 1.7455 2.2823 2.5375 3.188 3.4155 0.90575 0.87803 2.467 2.1417 2.467 2.1417s1.0748-1.62 1.1058-3.43c0.03095-1.81-0.94057-2.7514-1.138-3.3471-0.19745-0.59568-0.20258-0.95119-0.20258-0.95119s-0.11295-1.5441-1.7322-0.71025c-1.6193 0.83382-2.6735-0.20553-3.567-0.21379-0.8935-0.0083-0.86924 0.61938-0.86924 0.61938z" fill="#fff"/>
    <path d="m24.33 33.361s1.7167 2.6465 4.0537 2.7231c2.337 0.07663 1.7955-1.28 1.265-2.2689-0.53046-0.98897-0.41096-3.27-0.41096-3.27s0.67277-0.11309 1.0969-0.64886c0.42409-0.53577 1.0064-0.84059 1.993-2.3269s1.2594-2.4641 1.2594-2.4641l0.90862-2.9487 0.18027-3.7396-5.2765-3.3283-10.339 7.4136 0.9049 5.4272 4.0823 2.9118s0.09996 2.1364 0.28271 2.5195z" fill="#e2ad64"/>
   </g>
   <path d="m6.2933 292.45c-8.981e-4 0.0252-0.00203 0.0497-0.00363 0.0721-0.039368 0.0468-0.10538 0.1215-0.1856 0.19627-0.131 0.12203-0.29836 0.24674-0.45588 0.24496-0.076861-1e-3 -0.13273-0.0243-0.17031-0.0598-0.037572-0.0354-0.056117-0.0815-0.064832-0.12606-4.809e-4 -2e-3 -0.00101-6e-3 -0.00143-8e-3 0.00385-8e-3 0.00768-0.0174 0.011569-0.0259 0.0165-0.036 0.027366-0.0818 0.034242-0.13115l0.00111 2.6e-4s-0.018804 0.0797-0.00368 0.15697c0.00757 0.0386 0.023122 0.0756 0.052344 0.10311 0.029227 0.0276 0.072743 0.0472 0.14147 0.0479 0.13364 2e-3 0.29821-0.11438 0.42626-0.23365 0.1246-0.11608 0.21358-0.23084 0.21838-0.23705z" color="#000000" fill="#c63232" stroke-width=".16145"/>
   <g transform="matrix(-.16112 .010207 .010207 .16112 9.8551 286.99)">
    <path d="m26.419 13.695c-0.05132-8.69e-4 -0.10209 4.81e-4 -0.1517 4e-3 -0.79367 0.056-1.0042 0.42125-1.0042 0.42125s-0.92172-0.21804-2.4216 1.0591c-1.4999 1.2771-1.2514 1.7698-1.2514 1.7698s-0.13628-0.04876-0.96832 0.35476c-0.83203 0.40352-1.0603 0.79631-1.0603 0.79631l0.73739 0.10392s-0.42374 0.35704-0.79711 0.95239c-0.37337 0.59534-0.4113 1.0384-0.4113 1.0384s-0.60584 0.58264-1.4342 1.0014c-0.82832 0.41872-1.2076 0.79591-1.2076 0.79591s0.44788-0.0666 0.76128-0.02349-0.02861 0.53602-0.53194 1.0245c-0.50332 0.48844-1.0952 1.2382-1.0527 1.6655 0.04248 0.42727 0.37268 0.82299 0.37268 0.82299s-0.30712 0.46229-0.31375 1.0842c-0.0066 0.62189 0.11467 0.78238 0.11467 0.78238s-0.12004 0.04649-0.33604 0.432c-0.21601 0.38551-0.49132 1.0444-0.49132 1.0444l0.71827-0.85763s-0.31976 0.65971-0.89585 1.644-0.29703 1.2801 0.66412 0.05375c0.96115-1.2263 1.4576-1.2096 1.4576-1.2096s-0.11603 0.70943-0.39298 1.9991c-0.27695 1.2897 0.57843 1.2153 0.9289 0.70354 0.35047-0.51175 0.94244-1.1228 0.94244-1.1228s-0.01107 0.24506-0.0024 0.4977c0.0087 0.25264 0.11164 0.66598 1.2514 0.64063 1.1398-0.02534 0.87037-0.74296 0.87037-0.74296s0.41709 0.4836 1.0898 0.47659c0.67266-7e-3 0.83892-0.17559 0.83892-0.17559s0.18322 0.13719 0.7569 0.17439 0.84807-0.0645 0.84807-0.0645l-0.02986-2.86s-0.16124-0.12797-0.24726-0.5188c-0.08601-0.39083-0.11148-1.1869-0.11148-1.1869l0.49969 0.25004s-0.11366-0.42297-0.217-1.3494c-0.10333-0.92638 0.45447-1.8501 0.79512-3.206 0.34065-1.3558 0.7014-1.4305 1.6265-2.2962 0.92506-0.86565 1.3621-1.6109 1.3621-1.6109s-0.1004-0.21582-0.01235-0.35316c0.08806-0.13734 0.36596-0.37154 1.5273-0.31813 1.1614 0.05341 2.1755 0.76446 2.1755 0.76446s0.17615-0.1395 0.432-0.10033 1.1672 0.54454 1.8685 1.2669 0.27694 1.4605 0.21978 2.5681c-0.05715 1.1076-0.20784 2.1138-0.20784 2.1138l-0.1947 0.7987c-0.19472 0.79887-0.80428 2.0891-0.80428 2.0891s0.32645-0.25463 0.58011-0.75729 0.5837-1.2566 0.5837-1.2566 0.07167 0.55644 0.07167 1.3251c0 0.76862 0.42085 1.1718 0.42085 1.1718s0.38712-0.35372 0.46226-0.82936c0.07513-0.47564-0.05131-1.2901-0.44713-2.0617-0.39582-0.77154 0.27632-0.51362 0.27632-0.51362s0.3532-2.8655 0.65059-3.3123c0.29737-0.44676 0.0068-1.0053 0.0068-1.0053s0.61159-1.4231-0.8636-3.2585c-1.4752-1.8355-2.1481-1.7312-2.1481-1.7312s-0.52426-0.67691-1.8546-0.82538c-1.3304-0.14846-1.7176 0.33405-1.7176 0.33405l-0.30817-0.20306-0.32689 0.21222s-0.92638-0.47352-1.6961-0.48655zm-4.6162 9.6011c0.41517-3.27e-4 0.84051 0.22735 0.84051 0.22735s-0.01882 0.42437-0.0075 1.2136c0.01125 0.78921 0.46186 1.3139 0.46186 1.3139s-0.50552 0.55954-0.9504 0.32927c-0.44487-0.23027-1.3581-1.5462-1.0675-2.5422 0.1226-0.4202 0.42009-0.54165 0.72305-0.54189z" fill="#6d4917"/>
    <path d="m19.812 57.611s2.9943 1.8087 8.7727 1.9111c5.7784 0.10238 7.7907-1.6282 7.7907-1.6282s0.21558 0.24549 0.39018 0.83142c0.17992 0.60378 0.21166 1.0307 0.21166 1.0307s-2.3134 1.5019-8.3758 1.3753c-6.0623-0.12657-9.2464-2.067-9.2464-2.067s-0.03441-0.19288 0.12568-0.74084c0.1591-0.54458 0.33121-0.71261 0.33121-0.71261z" fill="#ba9353"/>
    <path d="m19.768 63.442s-1.6145 1.3229-2.3399 2.6652c-0.72542 1.3424-0.68645 1.6935-0.68645 1.6935l7.81-1.2637s-0.17758-0.81974-1.1488-1.4486c-0.97126-0.6289-1.8869-2.0854-2.6814-1.9623s-0.95343 0.31591-0.95343 0.31591z" fill="#e2ad64"/>
   </g>
   <g transform="matrix(-.16112 .010207 .010207 .16112 9.8551 286.99)" fill="none" stroke-linecap="round" stroke-width=".26458">
    <path d="m28.24 27.206s0.20322 1.0992 1.2028 1.1711c0.39272 0.02823 1.0795-0.91478 1.0795-0.91478" fill="#6d1717" stroke="#6d1717"/>
    <path d="m25.55 22.409s0.75758-0.23014 1.6593-0.03556c0.90164 0.19458 1.3975 1.0664 1.3975 1.0664" stroke="#323232"/>
    <path d="m31.236 23.504s0.2847-0.3963 0.8789-0.51785c0.59419-0.12156 1.0133 0.35504 1.0133 0.35504" stroke="#323232"/>
   </g>
   <g transform="matrix(-.16112 .010207 .010207 .16112 9.8551 286.99)" fill="#6d4917">
    <path d="m25.488 21.305s0.92942-0.38433 1.9855 0.05972c1.0561 0.44405 2.1595 0.0933 2.1595 0.0933s-0.59926-0.09936-1.783-0.65484c-1.1838-0.55549-2.3621 0.50182-2.3621 0.50182z"/>
    <path d="m32.647 22.182c0.5589-0.12848 1.4818-0.03275 1.4818-0.03275s-0.63912-0.71004-1.5304-0.53295c-0.89124 0.17707-1.9907-0.15813-1.9907-0.15813s1.4805 0.85231 2.0394 0.72383z"/>
   </g>
   <g transform="matrix(-.16112 .010207 .010207 .16112 9.8551 286.99)" fill="#ffdaa6">
    <ellipse cx="31.36" cy="46.923" rx=".71396" ry=".68601"/>
    <ellipse cx="30.577" cy="42.338" rx=".71396" ry=".68601"/>
    <ellipse cx="31.96" cy="51.926" rx=".71396" ry=".68601"/>
    <ellipse cx="32.223" cy="57.057" rx=".71396" ry=".68601"/>
   </g>
   <g transform="matrix(-.16112 .010207 .010207 .16112 9.8551 286.99)" fill="none" stroke="#3f3f3f">
    <path d="m29.961 61.303-0.09201-1.9229 1.64-0.11215 0.12762 1.9889z" stroke-width=".52917"/>
    <path d="m29.915 60.342 0.87132-0.01083" stroke-width=".26458px"/>
    <path d="m30.723 59.336 0.12762 1.9889" stroke-width=".26458px"/>
   </g>
  </g>
 </g>
</svg>
