<?xml version="1.0" encoding="UTF-8"?>
<svg width="32" height="32" version="1.1" viewBox="0 0 8.4667 8.4667" xmlns="http://www.w3.org/2000/svg">
 <path d="m1.5511 8.0702s3.6082-1.1119 3.2333-0.22702c-0.37489 0.88486 3.2833 0.068305 3.2833 0.068305" fill="none" stroke="#900" stroke-linecap="round" stroke-width=".26458"/>
 <path d="m7.1872 0.16071s-2.531 0.48293-4.3517 2.467c-0.19337 0.21073-0.36256 0.41176-0.50953 0.60358-0.065185 0.085079 0.98159 0.92672 0.92501 1.0082-0.085163 0.12265-1.2682-0.51731-1.3348-0.40256-0.72855 1.2555-0.37789 2.0456 0.33538 2.5466-0.72396 1.0167-0.86093 1.7797-0.86093 1.7797s0.45951-0.48191 1.2046-1.5942c0.85554 0.32764 1.8923-0.25486 3.2422-2.3239 0.34628-0.53077 0.60532-1.03 0.7984-1.4847 0.04708-0.11086-0.58323-0.59844-0.54364-0.70384 0.043737-0.11644 0.75628 0.15013 0.79169 0.040824 0.38406-1.1856 0.30334-1.9368 0.30334-1.9368z" fill="#900"/>
</svg>
