<?xml version="1.0" encoding="UTF-8"?>
<svg width="32" height="32" version="1.1" viewBox="0 0 8.4667 8.4667" xml:space="preserve" xmlns="http://www.w3.org/2000/svg"><path d="m3.6163 8.3788s-1.0815 0.00387-2.2486-0.95539c-1.1671-0.95925-0.63326-1.9996-0.42877-2.4069 0.20449-0.40728 0.086711-0.79577 0.086711-0.79577s0.30239 0.13989 0.50081 0.39109c0.19842 0.25119 0.27809 0.47841 0.27809 0.47841s0.31672-0.45574 0.38372-1.2196c0.067-0.76386-0.29906-1.5204-0.29906-1.5204s0.45103 0.138 0.92498 0.60766c0.47395 0.46966 0.52963 0.8121 0.52963 0.8121s0.56252-0.9801 0.63075-1.7787c0.068236-0.79861 0.87526-1.9125 0.87526-1.9125s-0.17536 1.3591 0.27289 2.2219c0.44824 0.86284 1.0262 1.3414 1.5369 1.8752 0.51076 0.53378 0.52379 0.89804 0.52379 0.89804s0.16299-0.2037 0.26242-0.44131c0.099432-0.23761 0.20319-0.54263 0.20319-0.54263s0.40538 1.4959-0.23912 2.8082c-0.6445 1.3123-2.232 1.4771-2.232 1.4771s1.1005-1.1589 1.1039-2.3595c0.00338-1.2006-1.681-2.4519-1.681-2.4519s-0.24025 0.94975-1.3447 1.757c-1.1044 0.80726-1.0297 1.7037-0.62092 2.2435 0.40874 0.53978 0.98117 0.81429 0.98117 0.81429z" fill="#900"/><path d="m4.278 8.312s-1.0728-0.37765-1.0674-1.5167c0.00544-1.139 1.0904-1.6928 1.0904-1.6928s-0.892 1.7609 0.036299 1.7104c0.9283-0.050489 0.54527-2.4878 0.54527-2.4878s0.69992 0.84785 0.64595 1.9995c-0.053969 1.1517-1.2505 1.9873-1.2505 1.9873z" fill="#900"/></svg>
