<?xml version="1.0" encoding="UTF-8"?>
<svg width="32" height="32" version="1.1" viewBox="0 0 8.4667 8.4667" xmlns="http://www.w3.org/2000/svg">
 <path d="m2.0565 4.1525 1.8289-1.8824 1.9556-1.5341 2.0844-0.6604-1.2982 1.812-2.0741 1.578-1.6444 1.5431-0.62619-0.16291z" fill="#b5b5b5"/>
 <path d="m1.9629 4.6882-1.05 1.1402 0.26987 0.28998 1.1757-1.0442z" fill="#965528"/>
 <path d="m2.2591 4.8215 2.1705-2.1152 2.2979-1.7237" fill="none" stroke="#a6a6a6" stroke-linecap="round" stroke-width=".26458"/>
 <g transform="matrix(.88536 0 0 .88536 .46986 -.031213)" stroke-width="1.2758">
  <path d="m1.4125 3.7893 0.37954 0.93624 0.96245 0.96697 0.93007 0.25824s-0.89568 0.81408-1.8835-0.27085c-0.98785-1.0849-0.38854-1.8906-0.38854-1.8906z" fill="#68502c"/>
  <circle transform="rotate(46.099)" cx="5.3357" cy="4.482" r=".42387" fill="#7e7e7e"/>
  <path d="m4.0536 2.4406 0.83781 1.3028s0.06255 0.14741-0.16859 0.32059c-0.26038 0.19508-0.29918 0.069637-0.29918 0.069637l-0.79863-1.2951s-0.077556-0.14431 0.13389-0.30893c0.22861-0.17798 0.2947-0.088967 0.2947-0.088968z" fill="#eccbcb"/>
  <path d="m4.3528 2.8944-0.51206 0.33695 0.31493 0.50531 0.53611-0.34857z" fill="#fff"/>
 </g>
 <g transform="matrix(.88536 0 0 .88536 .46986 -.031213)" fill="#dcb4b4" stroke-width="1.1295">
  <circle transform="rotate(46.099)" cx="4.6406" cy="-1.0713" r=".049194"/>
  <circle transform="rotate(46.099)" cx="4.7795" cy="-.88566" r=".049194"/>
  <circle transform="rotate(46.099)" cx="4.9382" cy="-1.0115" r=".049194"/>
  <circle transform="rotate(46.099)" cx="4.8674" cy="-.70601" r=".049194"/>
  <circle transform="rotate(46.099)" cx="4.5934" cy="-.76252" r=".049194"/>
  <circle transform="rotate(46.099)" cx="5.7811" cy="-.85556" r=".049194"/>
  <circle transform="rotate(46.099)" cx="5.7154" cy="-.53266" r=".049194"/>
  <circle transform="rotate(46.099)" cx="5.9007" cy="-.66867" r=".049194"/>
  <circle transform="rotate(46.099)" cx="6.0858" cy="-.79001" r=".049194"/>
  <circle transform="rotate(46.099)" cx="6.0246" cy="-.47246" r=".049194"/>
 </g>
</svg>
