<?xml version="1.0" encoding="UTF-8"?>
<svg width="32" height="32" version="1.1" viewBox="0 0 8.4667 8.4667" xmlns="http://www.w3.org/2000/svg">
 <g fill="none" stroke="#333" stroke-linecap="round" stroke-linejoin="round" stroke-width=".26458">
  <path d="m1.224 1.6998h6.0126c0.20305 0 0.36652 0.16347 0.36652 0.36652v3.7274l0.69182 0.72266h-7.0709c-0.20305 0-0.36652-0.16347-0.36652-0.36652v-4.0835c0-0.20305 0.16347-0.36652 0.36652-0.36652z"/>
  <path transform="translate(-.40397)" d="m3.3341 4.0377-0.82291 0.0041504 0.40786 0.71473-0.41505-0.71058-0.41505 0.71058 0.40786-0.71473-0.82291-0.0041504 0.82291-0.0041505-0.40786-0.71473 0.41505 0.71058 0.41505-0.71058-0.40786 0.71473z"/>
  <path transform="translate(1.7199 .0041505)" d="m3.3341 4.0377-0.82291 0.0041504 0.40786 0.71473-0.41505-0.71058-0.41505 0.71058 0.40786-0.71473-0.82291-0.0041504 0.82291-0.0041505-0.40786-0.71473 0.41505 0.71058 0.41505-0.71058-0.40786 0.71473z"/>
  <path transform="translate(3.8366 .008301)" d="m3.3341 4.0377-0.82291 0.0041504 0.40786 0.71473-0.41505-0.71058-0.41505 0.71058 0.40786-0.71473-0.82291-0.0041504 0.82291-0.0041505-0.40786-0.71473 0.41505 0.71058 0.41505-0.71058-0.40786 0.71473z"/>
 </g>
</svg>
