<?xml version="1.0" encoding="UTF-8"?>
<svg width="32" height="32" version="1.1" viewBox="0 0 8.4667 8.4667" xmlns="http://www.w3.org/2000/svg">
 <path d="m4.177 1.1444c-0.11755 8.644e-4 -0.23496 0.0084638-0.35164 0.022773l-0.37643 0.6276a2.5432 2.5432 0 0 0-0.46819 0.19022l-0.70931-0.1775c-0.18419 0.14525-0.35117 0.3111-0.49766 0.49431l0.17281 0.68922a2.5432 2.5432 0 0 0-0.21768 0.51105l-0.60483 0.36169c-0.014512 0.11846-0.022115 0.23766-0.022773 0.357 9.71e-4 0.11261 0.00813 0.22508 0.021434 0.33691l0.5921 0.35566a2.5432 2.5432 0 0 0 0.22438 0.55057l-0.16812 0.67181c0.14268 0.17891 0.30488 0.34133 0.48359 0.48426l0.66913-0.16745a2.5432 2.5432 0 0 0 0.55727 0.22974l0.35499 0.59277c0.11316 0.013455 0.22697 0.020612 0.34093 0.021433 0.11507-6.985e-4 0.23001-0.00785 0.34428-0.021433l0.36169-0.60349a2.5432 2.5432 0 0 0 0.52981-0.22438l0.68855 0.17281c0.17913-0.14394 0.34156-0.30749 0.48426-0.48761l-0.17683-0.70797a2.5432 2.5432 0 0 0 0.19759-0.48828l0.62626-0.37576c0.012728-0.11275 0.019219-0.22612 0.019424-0.33959 2.31e-4 -0.11929-0.00648-0.23849-0.020094-0.357l-0.63965-0.38379a2.5432 2.5432 0 0 0-0.19089-0.4501l0.18151-0.72539c-0.14662-0.18372-0.31382-0.35002-0.49833-0.49565l-0.7274 0.18151a2.5432 2.5432 0 0 0-0.44207-0.18553l-0.38379-0.63899c-0.1176-0.013959-0.2359-0.021116-0.35432-0.021434zm0 1.7555c0.7295-4.52e-5 1.3209 0.59134 1.3208 1.3208-3.245e-4 0.72923-0.5916 1.3202-1.3208 1.3202-0.72923 4.54e-5 -1.3205-0.59093-1.3208-1.3202-4.52e-5 -0.7295 0.59134-1.3209 1.3208-1.3208z" fill="#fff" stroke-linecap="round" stroke-linejoin="round" stroke-width=".34294"/>
</svg>
