<?xml version="1.0" encoding="UTF-8"?>
<svg width="32" height="32" version="1.1" viewBox="0 0 8.4667 8.4667" xml:space="preserve" xmlns="http://www.w3.org/2000/svg"><path d="m7.6983 0.058395-1.5875 1.5875-1.0868-1.0868-0.20257 3.0598 3.0598-0.20257-1.0868-1.0868 1.5875-1.5875-0.68368-0.68368zm-6.8875 0.054777-0.68368 0.68368 1.5761 1.5761-1.0986 1.0981 3.0598 0.20257-0.20257-3.0598-1.0749 1.0749-1.5761-1.5756zm2.7988 4.7176-3.0598 0.20257 1.0868 1.0868-1.5875 1.5875 0.68368 0.68368 1.5875-1.5875 1.0868 1.0868 0.20257-3.0598zm1.2666 0.054777 0.20257 3.0598 1.0868-1.0868 1.5875 1.5875 0.68368-0.68368-1.5875-1.5875 1.0868-1.0868-3.0598-0.20257z" color="#000000" fill="#fff"/></svg>
