<?xml version="1.0" encoding="UTF-8"?>
<svg width="32" height="32" version="1.1" viewBox="0 0 8.4667 8.4667" xml:space="preserve" xmlns="http://www.w3.org/2000/svg"><g fill="none" stroke="#fff" stroke-width=".39688"><path d="m2.6489 5.9373s-0.65076 0.61528-0.13798 1.1271c0.51278 0.51177 1.2001-0.082571 1.2001-0.082571l2.3474-1.4838s0.18121-0.1472 0.18124-0.47894-0.16694-0.54252-0.16694-0.54252"/><path d="m3.5664 7.0756s0.2019-0.11098 0.18601-0.48154c-0.01589-0.37056-0.26755-0.63961-0.26755-0.63961l-1.9116-2.436s-0.12823-0.22013-0.11602-0.54708c0.012213-0.32695 0.29209-0.48747 0.29209-0.48747l2.352-1.1946s0.50517-0.25505 0.84795 0.33342c0.29161 0.50064-0.17487 0.84244-0.17487 0.84244l-2.2374 1.2801s0.57381-0.2949 0.23763-0.92785c-0.32363-0.60931-0.9784-0.35721-0.9784-0.35721"/><path d="m3.2788 4.653 1.4035-0.83944"/><path d="m3.7436 5.268 0.72057-0.45945"/><path d="m4.9791 4.7559s0.14933-0.32677 0.27843-0.60907c0.1291-0.2823 0.72932-1.006 0.72932-1.006"/></g><path d="m5.4844 2.6336s-0.84726 0.93036-0.171 1.3931c0.67626 0.46278 1.3538-0.51652 1.3538-0.51652l-0.41073-0.080596 0.57058-0.14564 0.32173-0.57202-0.3523-0.032061 0.47936-0.17804s0.1925-0.3389 0.23304-0.47293c0.040548-0.13403 0.09929-0.45602 0.09929-0.45602s-0.22419 0.00385-0.54949 0.086681c-0.32531 0.082828-0.52447 0.2252-0.52447 0.2252l-0.14577 0.44903-0.06975-0.33753-0.58231 0.42166-0.10637 0.58238z" fill="#fff"/></svg>
