<?xml version="1.0" encoding="UTF-8"?>
<svg width="24" height="24" version="1.1" viewBox="0 0 8.4667 4.2334" xmlns="http://www.w3.org/2000/svg">
 <path d="m3.0585-0.57262c-0.21051 4.2141e-4 -0.51145 0.001802-0.72933 0.004045-0.87149 0.009008-1.4067 1.1004-1.4067 1.1004l0.53165 1.5423h-0.52693l0.43179 2.5807h5.7125l0.43045-2.5826h-0.52894l0.022939-0.014838 0.50939-1.5255s-0.53522-1.0914-1.4067-1.1004c-0.87149-0.009008-1.881 0-1.881 0s-0.52758-0.005306-1.1591-0.004045zm2.891 1.7616c0.16689 1.518e-4 0.31898 0.095859 0.39132 0.24626 0.013676-0.00133 0.027413-2e-3 0.041156-0.00203 0.23992 9.45e-5 0.43439 0.19457 0.43449 0.43449 7.98e-5 0.068748-0.01402 0.1337-0.039807 0.19161h-5.1411c-0.029552-0.058266-0.046525-0.12385-0.046553-0.19431 9.45e-5 -0.24018 0.19498-0.43477 0.43516-0.43449 0.085187 7.37e-5 0.16848 0.025178 0.23951 0.072191 0.06088-0.17447 0.22541-0.29138 0.4102-0.29146 0.18437 2.679e-4 0.34851 0.11682 0.40953 0.29079 0.074034-0.053478 0.16303-0.082277 0.25435-0.082311 0.087447 1.987e-4 0.1728 0.026768 0.24492 0.07624 0.057377-0.18042 0.22494-0.30294 0.41425-0.30293 0.12696 2.024e-4 0.24749 0.055908 0.32992 0.15248 0.082562-0.094354 0.20184-0.14846 0.32722-0.14843 0.17678-1.19e-4 0.33603 0.10685 0.40278 0.27055 0.06835-0.042182 0.14705-0.064601 0.22738-0.06477 0.091022-2.03e-5 0.17975 0.028534 0.25368 0.081636 0.059658-0.17654 0.22521-0.29541 0.41156-0.29551zm-2.5948 1.315h1.7259v1.7374h-1.7259z" fill="#fff" stroke-width="1.6378"/>
 <path d="m4.2156 2.7103a0.43148 0.43148 0 0 0-0.43112 0.43112 0.43148 0.43148 0 0 0 0.21657 0.37445v0.51276h0.42707v-0.5114a0.43148 0.43148 0 0 0 0.21927-0.37579 0.43148 0.43148 0 0 0-0.43179-0.43112z" fill="#fff" stroke-width="1.6378"/>
</svg>
