<?xml version="1.0" encoding="UTF-8"?>
<svg width="32" height="32" version="1.1" viewBox="0 0 8.4667 8.4667" xml:space="preserve" xmlns="http://www.w3.org/2000/svg"><path d="m2.8791 0.39411c-0.20595-0.002762-0.42007 0.11107-0.037541 0.24856 0.40803 0.14666 0.52459 0.66635 0.56505 1.7642 0.04046 1.0979-0.20583 1.1426-0.20583 1.1426s-0.03307-0.35957-0.51974-0.37c-0.48667-0.010432-1.0427 0.31444-1.0919 0.99271-0.049237 0.67826 0.41199 1.321 0.69838 1.6552 0.28639 0.3342 0.76083 0.71485 0.96699 0.85628s0.33981 0.20981 0.33981 0.20981-0.00957 0.033613 0.027832 0.06718c0.037399 0.033567 0.11455 0.163-0.049191 0.25683-0.16374 0.093833-0.72099 0.21064-0.72686 0.44184-0.00587 0.2312 0.1922 0.29648 0.45955 0.37362 0.26735 0.077147 0.88868 0.090951 0.88868 0.090951s0.62133-0.013804 0.88868-0.090951c0.26735-0.077147 0.46542-0.14243 0.45955-0.37362-0.005869-0.2312-0.56312-0.348-0.72686-0.44184-0.16374-0.093833-0.086589-0.22327-0.049191-0.25683 0.037396-0.033567 0.027832-0.06718 0.027832-0.06718s0.13365-0.068379 0.33981-0.20981c0.20616-0.14143 0.6806-0.52156 0.96699-0.85576 0.28639-0.3342 0.74762-0.97746 0.69838-1.6557-0.049236-0.67826-0.60524-1.0031-1.0919-0.99271-0.48667 0.010432-0.51974 0.37-0.51974 0.37s-0.24629-0.04468-0.20583-1.1426c0.040461-1.0979 0.15702-1.6176 0.56505-1.7642 0.40803-0.14666 0.1374-0.26649-0.078317-0.2465-0.21571 0.019994-1.2744 0.022738-1.2744 0.022738s-1.0587-0.002743-1.2744-0.022738c-0.013482-0.00125-0.027046-0.001883-0.040777-0.002067zm-0.33657 3.0727c0.00617-6.73e-5 0.0125-7.95e-5 0.01877 0 0.40094 0.00509 0.37133 0.34389 0.087379 0.56224-0.28395 0.21835-0.4743 0.49325-0.53528 0.65474-0.060975 0.16149-0.074434 0.41135-0.074434 0.41135s-0.1637-0.31793-0.13074-0.82734c0.032446-0.50145 0.24523-0.79675 0.63431-0.80099zm3.2848 0c0.40093-0.00509 0.62012 0.29158 0.65308 0.80099 0.03296 0.50941-0.13074 0.82734-0.13074 0.82734 4e-7 0-0.013458-0.24985-0.074434-0.41135-0.060976-0.16149-0.25133-0.43639-0.53528-0.65474-0.28395-0.21835-0.31356-0.55715 0.087379-0.56224z" fill="#fff"/></svg>
