<?xml version="1.0" encoding="UTF-8"?>
<svg width="24" height="24" version="1.1" viewBox="0 0 8.4667 4.2334" xmlns="http://www.w3.org/2000/svg">
 <g transform="matrix(.27811 0 0 .27811 -2.6715 -.77838)" fill="#eaeaea">
  <path transform="matrix(1.6782,0,0,1.6782,1.1203,-1.2238)" d="m21.802 16.277c-0.21322-1.2666-1.6484-1.7514-1.6484-1.7514s0.33409-2.0068 0.3418-2.4727c0.0077-0.46576-0.98242-0.82226-0.98242-0.82226s0.05404-0.3906 0.19531-0.76367c0.14128-0.37306 0.20898 0.14648 0.20898 0.14648s0.08243-0.52159 0.19336-0.80664c0.11093-0.28504 0.60547-1.041 0.60547-1.041s0.02799 0.41453-0.17774 1.0469c-0.20572 0.63234-0.55273 1.0137-0.55273 1.0137s0.23832-0.15128 0.53516-0.69336c0.29683-0.54206 0.46094-1.0566 0.46094-1.0566s3.72e-4 0.083227 0.14062 0.39258c0.14021 0.30935 0.35156 0.67383 0.35156 0.67383s-0.13752-0.35443-0.1875-0.77734-0.06055-0.70508-0.06055-0.70508 0.32665-0.20737 0.37109-0.68164c0.04445-0.47426-0.06055-2.6328-0.06055-2.6328s0.24781 0.13629 0.48047 1.2734c0.23267 1.1372-0.0625 1.5449-0.0625 1.5449s0.42004-0.45484 0.28906-1.4609c-0.13098-1.0061-0.63086-2.3184-0.63086-2.3184s0.10814 0.03961 0.47656 0.50781c0.36841 0.4682 0.13086 1.082 0.13086 1.082s0.40827-0.20823 0.11719-0.91211c-0.29108-0.70384-0.82617-1-0.82617-1s-0.02569-0.26623-0.22266-0.56836-0.80078-0.96094-0.80078-0.96094-0.1808-0.58231-0.42773-1.125c-0.12346-0.27132-0.78033-0.36223-1.6191-0.36133l-0.0023-8e-5c-0.83892 8.998e-4 -1.8587 0.095077-2.709 0.19336-1.7005 0.19656-1.9883-0.00977-1.9883-0.00977 1e-6 -2e-7 -0.11955 0.21114 0.2168 0.29883 0.33634 0.087688 0.7793 0.058594 0.7793 0.058594s-2.0373 1.0312-2.0898 1.9688c-0.05248 0.93766-0.4145 2.3421-0.9043 2.9414-0.48982 0.59926-0.92188 0.45703-0.92188 0.45703s0.27004 0.13939 0.63281 0.035156c0.36278-0.10424 0.91016-0.61133 0.91016-0.61133s-0.06643 0.22578-0.19336 0.43359c-0.12693 0.2078-0.1609 0.761-0.1875 1.0879-0.02661 0.32693-0.20117 0.66406-0.20117 0.66406s0.25374-0.2275 0.32617-0.66211c0.07242-0.43459 0.32031-0.89258 0.32031-0.89258s0.05328 0.90272-0.23828 1.375c-0.29157 0.47228-0.57031 0.70703-0.57031 0.70703s0.36159-0.095915 0.63867-0.48633c0.27706-0.39042 0.03711 0.37305 0.03711 0.37305s0.12868-0.20474 0.22266-0.74414c0.05313-0.30498 0.70946 1.0823 0.68359 1.7852-0.01988 0.54016-0.71875 0.41211-0.71875 0.41211l-0.45508 0.29102s-0.12757 0.64133-0.21094 1.3457c-0.03691 0.31186-0.15428 0.51147-0.27344 0.64062l-0.41406-1.7383s-0.34123-2.7236-1.3574-2.5449c-1.0162 0.1787-0.82617 0.86133-0.82617 0.86133l1.1777 4.8105c-0.0609 0.06292-0.11994 0.12645-0.17969 0.1875l-1.9141-1.9707s-1.4007-1.774-1.9609-1.209c-0.56025 0.56503-0.14453 0.96289-0.14453 0.96289l3.1602 3.2188c-0.13107 0.29786-0.32154 1.0043-0.32154 1.0043" fill="#fff"/>
 </g>
</svg>
