<?xml version="1.0" encoding="UTF-8"?>
<svg width="32" height="32" version="1.1" viewBox="0 0 8.4667 8.4667" xmlns="http://www.w3.org/2000/svg">
 <g transform="translate(0 -288.53)">
  <path d="m4.2052 290.16-3.6649 2.018 3.853 0.86255 3.6432-2.0081zm0.31151 0.73472 1.3789 0.3109-0.81726 0.46603-1.3795-0.3109zm3.5538 0.46399-3.5761 1.989c-0.033576 0.0187-0.072824 0.0247-0.11046 0.0168l-3.9329-0.87417c-0.085527 0.094-0.19853 0.25898-0.20292 0.47843-0.00532 0.26584 0.087461 0.43815 0.18306 0.54484l1.856 0.39946c0.085469 0.0195 0.13906 0.10435 0.11977 0.18989-0.019442 0.0845-0.10316 0.1379-0.18803 0.11972l-1.7933-0.3858c-0.084567 0.10543-0.1632 0.26428-0.1632 0.49332 0 0.25135 0.10178 0.41878 0.2023 0.52313l3.9429 0.89589 3.7182-2.1206c-0.042624-0.0927-0.082013-0.23006-0.098047-0.43314-0.016306-0.20654 0.019797-0.36562 0.070121-0.48402l-3.5383 2.0058c-0.034787 0.0198-0.07579 0.0258-0.1148 0.0167l-0.85139-0.2066c-0.085669-0.0205-0.13829-0.10687-0.11728-0.19237 0.020514-0.0856 0.10682-0.13829 0.19237-0.11732l0.79058 0.19237 3.699-2.0958c-0.077975-0.0947-0.16146-0.25138-0.17251-0.49457-0.0089-0.1957 0.033203-0.34864 0.085015-0.46107zm-5.4396 2.2342 0.64537 0.0993-0.00682 1.4465-0.33323-0.3686-0.31213 0.19175z" fill="#fff"/>
 </g>
</svg>
