<?xml version="1.0" encoding="UTF-8"?>
<svg width="200" height="250" version="1.1" viewBox="0 0 52.917 66.146" xmlns="http://www.w3.org/2000/svg">
 <g transform="translate(0 -288.53)">
  <g>
   <path d="m11.411 328.85s0.68439-5.4468 1.5821-8.8014c0.89769-3.3545 2.5041-7.2288 2.5041-7.2288s1.4619-2.8072 2.2178-4.2246 1.5619-3.9019 1.5619-3.9019 1.3229-5.2444 2.8348-6.4256c1.5119-1.1812 2.2679-3.0711 5.1972-3.3073 2.9293-0.23624 3.8743 1.1339 5.1499 2.0316 1.2757 0.89769 1.7009 1.8426 2.4096 4.1577 0.7087 2.3151 2.3624 5.0554 3.5908 8.6462 1.2284 3.5908 2.1646 7.3538 3.6947 10.876s1.8474 6.9217 1.8474 6.9217-0.41642-1.5544-1.196-2.334c-0.77958-0.77957-0.99219 1.1812-0.99219 1.1812l-0.59531-2.5513s0.14174 1.8426-0.33073 4.016c-0.47247 2.1734-0.85925 2.7356-0.85925 2.7356s0.66146-5.1027-1.0394-3.4018c-1.7009 1.7009-1.7009 3.0238-1.7009 3.0238l-9.9313-6.813-12.068 4.7773s-0.51585-2.7827-1.846-2.4406c-0.85404 0.21964-2.0316 3.063-2.0316 3.063z" fill="#2b2b2b"/>
   <path d="m23.353 317.03 0.90203-0.23386 0.16704-0.7684s0.13364-0.4009 0.30068-1.47c0.16704-1.0691 0.26727-1.2695-0.50113-1.7707s-2.0379-2.3386-2.3052-3.7752c-0.26727-1.4366-0.23386-3.5079-0.23386-3.5079s0.7684-1.2027 1.3698-2.0379c0.60136-0.83521 0.80181-1.7707 0.80181-1.7707l-0.16704 1.4032s0.50113-1.8041 1.2361-2.5056c0.73499-0.70159 2.1716-0.66818 2.4722 0 0.30068 0.66817-0.06682 1.8709-0.06682 1.8709s0.33409-0.60135 0.60136-1.1025 0-1.0357 0-1.0357 1.4032 0.60135 2.4722 1.9043 2.3052 3.107 2.205 5.7463c-0.10023 2.6393-1.2361 3.9756-1.7373 4.3765-0.50113 0.4009-0.60136 3.8754-0.60136 3.8754l0.26727 1.3363 1.1359-0.23386s0.13363 0.23386 2.8731 0.86863c2.7395 0.63476 3.9422 0.93544 4.9445 2.6727 1.0023 1.7372 0.73499 6.214 0.73499 6.214l-2.1382 3.0736-18.375-1.7038-5.5458-1.5702s-0.46772-5.5792 0.93544-7.7508c1.4032-2.1716 4.577-1.8375 5.7797-1.9711 1.2027-0.13364 2.4722-0.13364 2.4722-0.13364z" fill="#b94646"/>
   <path d="m14.165 326.89s0.50113-0.60136 1.7373-1.2361c1.2361-0.63477 3.9971-0.73685 3.9971-0.73685s-1.0008 1.8426-1.3315 6.0004-1.5592 9.8274-2.0316 11.15c-0.47247 1.3229-3.0711 6.4256-4.2995 9.5911-1.2284 3.1656-2.3624 6.9453-2.3624 6.9453h-3.4963s0.8032-4.4412 2.0316-9.5439c1.2284-5.1027 2.2679-8.1265 3.638-11.056 1.3702-2.9293 2.1173-11.114 2.1173-11.114z" fill="#fff"/>
   <path d="m40.224 327.09s-1.1693 0.63476-1.8709 0.86862c-0.70158 0.23386-0.90203 0.23386-0.90203 0.23386s0.03341-1.1359-0.16704-1.7038c-0.20045-0.56794-2.1382-1.1359-4.2763-1.0691-2.1382 0.0668-3.3743 0.7684-3.8086 1.1025-0.43431 0.33409-1.0023 1.0023-1.0023 1.0023s-1.0023-2.5391-4.3431-2.5056c-3.3409 0.0334-4.9111 2.1716-5.0113 3.4077-0.10023 1.2361 0.43431 2.9734 1.0023 3.9088 0.56795 0.93545 1.8889 5.9523 1.7944 6.9445-0.09449 0.99219-3.1975 4.4479-3.1975 4.4479l-0.60136 2.4722-1.8041 0.66817s-2.1382 4.0759-3.2741 8.0849c-1.1359 4.009-1.3363 4.8777-1.3363 4.8777h32.707s-0.72433-3.1167-1.6163-5.6208c-0.9038-2.5373-1.9786-4.583-1.9786-4.583l-2.9293-0.99219 0.7087-2.1734s-2.9293-4.2995-3.1183-6.0004c-0.18899-1.7009-0.04725-2.8348 0.04725-4.4885 0.09449-1.6536 0.61421-3.1656 0.61421-3.1656s0.04725 2.6931 0.66146 4.4885c0.61421 1.7954 1.1339 4.4412 1.7481 5.6696 0.61421 1.2284 3.6853 5.0554 5.6224 9.7801 1.9371 4.7247 2.1734 6.1421 2.1734 6.1421h3.0711s-1.6536-2.9293-2.9766-8.6934c-1.3229-5.7641-1.6064-8.221-3.0711-10.489-1.4647-2.2679-2.8652-12.615-2.8652-12.615z" fill="#fff"/>
  </g>
  <path d="m28.489 350.71s-1.3383 1.1876-1.8808 3.7361c-0.82705 3.8854-2.5209 7.2992-2.5209 7.2992" fill="none" stroke="#fff" stroke-width="1.8521"/>
  <path d="m18.442 343.72s3.5413 5.8799 10.29 5.6127c6.7486-0.26727 9.5859-2.879 9.5859-2.879s0.53807 0.48736 1.1694 1.4056c0.64965 0.94494 1.0512 1.76 1.0512 1.76s-3.2538 1.5843-11.272 0.98295c-8.0181-0.60136-13.23-3.7418-13.23-3.7418s0.33314-0.68285 1.0649-1.6962c0.72326-1.0016 1.3405-1.4442 1.3405-1.4442z" fill="#c79f26"/>
  <path d="m24.422 316.03s1.5034 1.2361 3.3075 1.2361c1.8041 0 2.5391-1.0357 2.5391-1.0357s0.40091 0.0835 0.7517 0.38419c0.35079 0.30068 0.65147 0.71829 0.65147 0.71829s-0.90203 1.3364-4.0424 1.2361c-3.1404-0.10022-4.2763-1.5368-4.2763-1.5368s0.05727-0.24843 0.4529-0.62735c0.39563-0.37892 0.61617-0.37491 0.61617-0.37491z" fill="#ab8921"/>
  <path d="m27.812 352.31s-0.37615 3.7855 0.1804 5.8375c0.55656 2.052-0.14475 4.3314-0.14475 4.3314" fill="none" stroke="#fff" stroke-width="1.0583"/>
  <g>
   <path d="m27.38 350.62s-0.21261-2.2915 2.1497-2.3387c2.3624-0.0472 2.2442 2.2206 2.2442 2.2206s0.30711 3.5672-2.1261 3.6616c-2.4332 0.0945-2.2679-3.5435-2.2679-3.5435z" fill="#dfbd58"/>
   <path d="m28.489 350.71s-0.1019-1.4489 1.0303-1.4814c1.1322-0.0325 1.0756 1.4 1.0756 1.4s0.159 2.3514-1.0072 2.4165c-1.1662 0.0651-1.0987-2.3351-1.0987-2.3351z" fill="#3f8c92"/>
   <path d="m27.982 317c-0.54334 0.0709-0.77958 0.36617-0.64965 1.5355 0.16796 1.5116 0.4016 1.6536 1.0867 1.5828 0.68508-0.0709 0.75596-0.54335 0.56696-1.7245-0.18899-1.1812-0.46066-1.4647-1.004-1.3938z" fill="#d4aa29"/>
  </g>
  <path d="m23.104 305.68s0.43263-0.51314 1.3013-0.56325c0.86863-0.0501 1.6203 0.7851 1.6203 0.7851" fill="none" stroke="#29211b" stroke-linecap="round" stroke-width=".26458"/>
  <path d="m31.957 306.04s-0.33242-0.48011-1.0806-0.59292c-0.74821-0.1128-1.4681 0.55249-1.4681 0.55249" fill="none" stroke="#29211b" stroke-linecap="round" stroke-width=".26458"/>
  <path d="m23.954 305.22s-0.16704 1.2027 0.73499 1.2695c0.90204 0.0668 0.83522-1.0524 0.83522-1.0524l-0.96885-0.35079z" fill="#29211b"/>
  <path d="m29.817 305.74s-0.16704 0.96885 0.70158 0.93544c0.86863-0.0334 0.65147-1.0858 0.65147-1.0858l-0.88533-0.0835z" fill="#29211b"/>
  <g fill="none">
   <path d="m25.457 311.49s0.23386 0.10023 0.7851-0.0668c0.55124-0.16704 0.66818 0.0334 1.019 0.0668 0.35079 0.0334 0.4009-0.11693 0.88533 0.0501 0.48442 0.16705 1.1192-0.0501 1.1192-0.0501" stroke="#7f3434" stroke-linecap="round" stroke-width=".26458px"/>
   <path d="m37.885 342.02s1.1359-0.36749 2.6393-0.86862c1.5034-0.50113 2.7061-1.2361 2.7061-1.2361" stroke="#c79f26" stroke-width=".79375"/>
   <path d="m31.512 300.57s0.41832-0.0156 1.442-0.25508c1.0237-0.23953 1.3459-0.59637 1.3459-0.59637" stroke="#000" stroke-linecap="round" stroke-width=".26458"/>
  </g>
  <path d="m33.809 301.44c-0.65134 0.59809-0.47172-0.53585-0.68928-0.5173-0.21758 0.0186 0.38432 1.0403-0.51713 0.62022-0.90144-0.42012 0.12966-0.6919-0.01224-0.90139-0.14189-0.20952-0.66445 0.74238-0.77456-0.26031-0.11012-1.0026 0.60137-0.15603 0.67704-0.38409 0.07568-0.22806-0.9346-0.32037-0.25744-0.88048 0.67716-0.56013 0.47171 0.53586 0.68928 0.5173 0.21758-0.0186-0.24013-1.0044 0.51713-0.62022s-0.12966 0.6919 0.01223 0.9014c0.1419 0.20951 0.62119-0.77753 0.77456 0.26031 0.15337 1.0378-0.60138 0.15605-0.67705 0.3841-0.07567 0.22807 0.9088 0.28235 0.25745 0.88048z" fill="#fff" stroke-linecap="round" stroke-linejoin="round" stroke-width=".81373" style="paint-order:markers fill stroke"/>
  <ellipse transform="matrix(.93514 .35429 -.20309 .97916 0 0)" cx="94.486" cy="272.49" rx=".42582" ry=".45314" fill="#010101" style="paint-order:markers fill stroke"/>
 </g>
</svg>
