<?xml version="1.0" encoding="UTF-8"?>
<svg width="200" height="250" version="1.1" viewBox="0 0 52.917 66.146" xml:space="preserve" xmlns="http://www.w3.org/2000/svg"><g transform="matrix(1.283 0 0 1.283 -10.451 2.7583)"><path d="m18.582 18.296s-1.6111 0.27535-3.3956 5.6484c-1.7845 5.373-2.3048 10.139-3.4673 13.255s-2.5955 8.4611-3.5708 12.341c-0.97524 3.8796-1.7871 5.96-1.7871 5.96l1.1314 5.7999 3.1549 4.6364-0.10877 1.4633 30.809-0.14148-0.41577-6.1052s0.9963-1.0818 2.4725-0.84916c1.4762 0.23267 4.4637 0.32704 4.4637 0.32704l2.2655-2.7911s-1.0153-6.0795-0.83403-10.05-0.62193-7.7725-2.6492-12.717c-2.0273-4.9442-3.7632-6.6697-3.7632-6.6697s-2.0112-3.3076-2.7759-5.3975c-0.76466-2.0899-1.1252-4.2387-3.3043-3.8349-2.1791 0.40386-18.225-0.875-18.225-0.875z" fill="#960000"/><path d="m38.398 0.72864c-0.55876 0.009278-1.031 0.10912-0.88315 0.29456 0.33795 0.42385-0.0601 1.7726-0.92656 3.3564s-1.7482 3.0081-1.7482 3.0081-0.84299 0.13288-1.8841 0.70435c-1.0411 0.57147-1.0573 1.2821-1.0573 1.2821s0.69022-0.55639 1.572-0.73329 1.2661-0.071314 1.2661-0.071314l-0.80771 2.0588s-0.43327 0.09248-0.89917 0.9586c-0.44563 0.82844-0.99368 1.3536-1.0418 1.3989 0.08196-0.07697 0.44605-0.3928 1.0258-0.51677 0.66255-0.14167 0.88677-0.64751 0.88677-0.64751s0.09407 0.52021 0.08527 1.5694c-0.0088 1.0492-0.863 2.5513-0.863 2.5513l1.1777 0.59221s0.25799-1.2907 0.68265-1.5389c0.42466-0.24827 1.0904 1.8934 1.0904 1.8934l-1.6805-0.0026s0.64141 4.6388 1.9239 3.0897c1.2825-1.549 1.753-1.4445 3.4639-1.294 1.7109 0.15056 3.2515-0.24598 3.2515-0.24598s-0.5367 0.05774-2.8314-1.1188c-2.2947-1.1765-3.5561-3.4996-3.867-5.0075-0.31088-1.5079-0.67128-1.5183-0.67128-1.5183s-0.18312-0.90691 0.48628-2.4572c0.66939-1.5503 3.4645-6.6549 3.6975-7.1831 0.13104-0.29709-0.73009-0.43464-1.4485-0.42271zm-3.2401 11.323a0.95473 0.40992 82.48 0 1 0.50436 0.89401 0.95473 0.40992 82.48 0 1-0.28164 1.0005 0.95473 0.40992 82.48 0 1-0.53124-0.89297 0.95473 0.40992 82.48 0 1 0.28164-1.0005 0.95473 0.40992 82.48 0 1 0.02687-1e-3z" fill="#7b7b7b"/><path d="m20.961 14.217s0.39152-0.67945 0.83983-1.156 0.99105-0.75115 0.99105-0.75115l8.3591 0.70788s0.50524 0.24535 1.0284 0.74372c0.52321 0.49838 0.80701 1.5591 0.80701 1.5591l0.04791 5.7756-10.341 1.627z" fill="#960000"/><path d="m18.05 16.911s0.21594-0.832 1.1884-1.6584c0.97249-0.82641 1.7225-1.0364 1.7225-1.0364s3.7635 7.0516 5.9585 7.1877c2.195 0.13617 6.067-6.0842 6.067-6.0842s0.53419 0.07503 1.6745 1.0554c1.1404 0.98035 2.4073 2.6045 2.4073 2.6045l-8.4081 10.421z" fill="#3c3c3c"/><path d="m30.179 32.921-0.15389 3.0934 0.8465 3.9969-1.1437 1.6619s-0.03561 2.3907-0.0537 6.3844c-0.0181 3.9938 0.18801 14.622 1.0052 19.207 0.81717 4.5851 4.8007-0.52172 4.8007-0.52172s-0.4712-9.8794-1.4063-13.757c-0.93508-3.8781-2.2502-12.467-2.2502-12.467l0.43682-4.1985 0.13834-0.79309z" fill="#b1a200"/><path d="m36.313 17.734s-1.2812 0.57813-2.58 3.1529c-1.2988 2.5747-5.4643 7.9899-5.4643 7.9899l1.0207 1.4287s1.5156-1.7336 3.5082-4.3092 3.925-5.487 4.3482-6.0434c0.42318-0.55645 0.72869-0.76786 0.72869-0.76786z" fill="#0c0c0c"/><path d="m21.756 28.29s-0.04509 0.77826-0.06114 3.2601c-0.01605 2.4818 0.85495 8.3881-0.05937 10.884-0.91432 2.4964-2.1988 7.8713-2.5475 10.051-0.34871 2.18-0.41351 11.943-0.18031 14.782s6.7307 1.5343 6.7307 1.5343 0.18155-5.4656 0.01902-10.175c-0.16253-4.7096 0.10824-8.6845 0.18281-11.07 0.07457-2.3856 0.0922-5.1095 0.0922-5.1095s0.11707-6.8199-0.23656-9.0867c-0.35362-2.2668-0.25084-7.0324-0.25084-7.0324l-3.5793-2.945z" fill="#b1a200"/><path d="m18.059 16.68s1.9731 1.1173 2.8571 1.9187c1.668 1.512 3.1178 3.7921 4.0494 4.739 0.96701 0.98287 2.465 2.7438 3.3019 4.6579 0.83694 1.9141 1.8922 2.8406 2.8336 3.7476s1.5162 1.358 1.5162 1.358l-0.21856 2.426s-3.9652-3.5428-5.0009-5.3875-2.7075-4.0144-4.5225-5.5514c-1.9008-1.6096-4.3357-4.3688-4.3357-4.3688l-1.036-1.2203s0.1025-0.69912 0.18574-1.0976c0.08324-0.39846 0.36966-1.2216 0.36966-1.2216z" fill="#0c0c0c"/><path d="m30.617 13.39s0.48201-0.07122 0.53394-0.37302c0.05193-0.30181-0.29505-1.3307-0.48405-1.9225-0.189-0.59177-0.27936-1.8215-0.82962-2.2059-0.55026-0.38443 0.77973 4.5014 0.77973 4.5014z" fill="#171717"/><path d="m23.609 13.423s1.0127 1.9992 1.6695 2.4392c0.6568 0.44005 1.0954 1.1963 1.9945 1.235 0.89906 0.03865 1.2335-0.82294 1.8735-1.3731 0.64469-0.55414 0.89295-1.4218 1.3383-2.0643 0.44531-0.64245 0.098-1.9292 0.098-1.9292l-0.13588-0.59618s-0.16042-0.18148-0.30398-1.3269c-0.15042-1.2001-0.37425-3.4346-3.3151-3.23-2.9408 0.20459-3.3566 2.0679-3.4268 3.4071-0.07017 1.3392-0.77182 1.1187-0.77182 1.1187l-0.04305 1.1315z" fill="#fffbc8"/><path d="m6.361 55.5s-0.82788 1.3465-1.4769 2.6514c-0.64899 1.3049-0.38073 3.7515-0.79589 4.502s-0.26496 1.4408-0.26496 1.4408-0.94494 1.5248 0.35839 1.0213c1.3033-0.50349 2.8028 0.19489 4.0086 0.42761s2.457 0.39319 2.457 0.39319-0.20063-1.5036 0.20684-3.1605c0.40748-1.6569-0.13133-3.5011-0.07139-4.3056 0.05994-0.80455 0.23123-1.384 0.23123-1.384s-1.4495 0.32912-2.6902 0.03469c-1.2407-0.29444-1.9627-1.6208-1.9627-1.6208z" fill="#1b0000"/><path d="m45.204 55.78s1.1032 2.1297 2.4499 2.7926c1.3467 0.66291 2.4795-0.73264 2.4795-0.73264s-0.02019 3.1493-0.55674 3.8809c-0.53654 0.73161-2.4068 2.7972-3.4779 2.2474-1.071-0.54972-0.64501-0.56061-0.96872-2.1909-0.32371-1.6303-0.48363-3.2158-0.46266-4.024 0.02098-0.80823 0.5366-1.9734 0.5366-1.9734z" fill="#1b0000"/><path d="m30.025 36.014s0.01688-0.35478 1.0867-0.2883c1.0698 0.06648 1.1486 0.59413 1.1486 0.59413s0.10189 0.48374 0.09657 1.5319c-0.0053 1.0482-0.32418 1.5885-0.32418 1.5885s0.68828 0.51406 0.71147 1.6285c0.0232 1.1144-0.56499 1.339-1.9311 1.2524-1.3661-0.08667-1.3161-1.0894-1.3115-1.8084 0.0046-0.71898 0.65184-1.0092 0.65184-1.0092s-0.44059-0.39816-0.3982-1.6877c0.04239-1.2896 0.26986-1.8018 0.26986-1.8018z" fill="#7b7b7b"/></g><g transform="matrix(1.283 0 0 1.283 -10.451 2.7583)" fill="#171717"><path d="m23.334 13.649c-0.1947 0.05417-0.37115 0.50624-0.37115 0.50624s0.01382-0.56572-0.5263-0.6432c-0.54011-0.07748-0.50134-1.1047 0.28016-3.1248 0.25988-0.69928 0.79089-1.2762 0.79089-1.2762s0.04628 0.89621 0.13193 1.3935c0.08375 0.48626-0.15931 1.0417-0.15931 1.0417s-0.14588-0.12213-0.28969-0.2546c-0.18806-0.17323-0.35702-0.57195-0.25922 0.32922 0.07397 0.68153 0.32599 0.90606 0.49813 0.9476 0.17213 0.04153 0.46263 1.5226 0.46263 1.5226s-0.36338-0.49616-0.55808-0.44199z"/><path d="m25.885 10.162s-0.19226-0.03275-0.73266-0.16286c-0.5404-0.1301-0.86747-0.54194-0.37657-0.39737s1.6063 0.63016 1.1092 0.56022z"/><path d="m28.483 10.145s0.23118-0.03248 0.88111-0.15614c0.64992-0.12366 1.0444-0.48204 0.45395-0.34725-0.59048 0.1348-1.9327 0.5748-1.3351 0.50339z"/></g><path d="m23.217 16.806s-0.17162-0.38839-0.95197-0.43203c-0.78035-0.04364-1.1381 0.48086-1.1381 0.48086" fill="none" stroke="#455158" stroke-linecap="round" stroke-width=".33939"/><path d="m25.788 16.743s0.22172-0.39546 1.0258-0.43498c0.80409-0.03952 1.2228 0.47305 1.2228 0.47305" fill="none" stroke="#455158" stroke-linecap="round" stroke-width=".33946"/><path d="m22.265 16.374s-0.48584 0.49333 0.07575 0.72248c0.56157 0.22915 0.78245-0.52334 0.35336-0.62291l-0.4291-0.09957z" fill="#455158" stroke-width="1.283"/><path d="m26.855 16.343s-0.48584 0.49333 0.07574 0.72248c0.56157 0.22915 0.78246-0.52334 0.35337-0.62291l-0.42911-0.09957z" fill="#455158" stroke-width="1.283"/><g transform="matrix(1.283 0 0 1.283 -10.451 2.7583)" fill="none" stroke-linecap="round"><path d="m26.818 14.594s0.43023 0.04466 0.57069-0.11024c0.14047-0.1549 0.32355-0.23469 0.45827-0.06438 0.13472 0.17032 0.51236 0.13342 0.51236 0.13342" stroke="#455158" stroke-width=".26458"/><g stroke="#680000" stroke-width=".39688"><path d="m33.774 26.854s0.26248 0.41681 1.1845 1.2494c0.92206 0.83258 2.3422 2.996 3.0521 5.2377s0.97284 4.1354 0.97284 4.1354"/><path d="m10.782 57.286s1.5565-4.2288 2.0439-6.2623c0.48734-2.0335 1.4167-4.2766 1.4167-4.2766"/><path d="m38.971 38.362s0.35741 3.4395 0.46236 6.997c0.10496 3.5575 0.85326 8.6229 1.3468 10.858 0.49354 2.2354 0.15184 4.9358 0.15184 4.9358"/></g></g><path d="m33.573 50.702s2.7979-0.1697 4.9238-0.29164 2.5678-0.39681 2.5678-0.39681l0.31947 2.1279s-0.31064 0.18214-3.2361 0.48387c-2.9255 0.30174-4.5717 0.34567-4.5717 0.34567z" fill="#7b7b7b" stroke-width="1.283"/><ellipse transform="rotate(-18.147)" cx="22.24" cy="61.325" rx=".55133" ry=".59954" fill="#5f5f5f" stroke-width="1.283"/></svg>
