<?xml version="1.0" encoding="UTF-8"?>
<svg width="200" height="250" version="1.1" viewBox="0 0 52.917 66.146" xmlns="http://www.w3.org/2000/svg">
 <g transform="matrix(.92964 0 0 .95907 1.6932 2.0264)" stroke-width=".86087">
  <path d="m17.036 33.291s1.1216-2.2721 1.438-5.4069c0.31637-3.1348 0.34512-8.5994 0.34512-8.5994s0.05752-5.4645 2.0995-7.9379c2.042-2.4734 5.7808-3.2499 8.4844-2.4446 2.7035 0.80529 4.7454 2.4446 5.2919 6.2123 0.54644 3.7676 0.25884 8.1104 1.1792 12.136 0.92035 4.0264 2.0132 6.1259 2.0132 6.1259z" fill="#197a09"/>
  <path d="m20.085 29.176 6.8331 4.5554 6.6298-4.1893 0.39881 0.52801 9.0167 37.363-30.81 0.2237 7.2546-36.911z" fill="#891111"/>
  <path d="m22.643 28.858 0.16626 4.5845 1.1388 12.284 6.1417 0.08135 1.2101-16.662s-0.2136-0.66519-0.15258-1.499c0.06101-0.8338 0.2237-1.627 0.2237-1.627s0.11582-0.1959 0.23087-0.42598 0.21571-0.60397 0.21571-0.60397-0.41703-0.27322-1.0354-2.646c-0.61834-2.3727-0.40264-3.2787-0.6471-4.2709-0.24447-0.99224-0.40264-2.761-0.40264-2.761s-0.61834-0.33074-1.4811-0.30199c-0.86285 0.02875-1.5243 0.44579-1.5243 0.44579s-0.71901-0.44579-1.8263-0.34512c-1.1072 0.10066-1.4236 0.47454-1.4236 0.47454s-0.0719 1.6825-0.24446 3.2212-0.20132 3.6957-0.51769 4.5585c-0.31637 0.86285-0.53207 1.136-0.53207 1.136s0.21571-0.74777 0.30198-1.51c0.08628-0.76219-0.20132-3.7964-0.20132-3.7964s0.04314 1.9557 0 3.1205-0.43141 2.5597-0.43141 2.5597 0.20132 0.5033 0.40264 0.90598c0.20132 0.40267 0.44579 0.81967 0.44579 0.81967s0.10066 1.0066 0.10785 1.474c0.0072 0.46736-0.16537 0.78372-0.16537 0.78372z" fill="#f8f4e9"/>
 </g>
 <path d="m23.287 21.187c-0.03244 4.37e-4 -0.06175 0.0023-0.09264 0.0034-0.0053 0.07319-0.01054 0.14608-0.01571 0.21973 0.03664-0.0015 0.07203-0.0033 0.11125-0.0038 0.48258-0.0066 1.0538 0.28112 1.4975 0.57897 0.44366 0.29785 0.75805 0.59647 0.75805 0.59647 0.04309 0.04122 0.11048 0.03835 0.15012-0.0064 0.03884-0.04423 0.03608-0.11243-0.0062-0.15316 0 0-0.32653-0.3105-0.78618-0.61908-0.45965-0.30857-1.0527-0.62382-1.6162-0.61608zm6.5206 0.06698c-0.1049-1.26e-4 -0.21466 0.0075-0.32959 0.02347-1.4534 0.2023-2.0301 1.1784-2.0301 1.1784-0.03014 0.05204-0.01344 0.11945 0.03722 0.15018 0.04976 0.03017 0.11377 0.01366 0.14392-0.03712 0 0 0.50594-0.88279 1.8788-1.0739 0.15371-0.0214 0.29678-0.02566 0.42861-0.0175-9e-3 -0.07612-0.01709-0.14944-0.0244-0.221-0.03375-0.0017-0.06954-0.0025-0.10438-0.0026zm-7.3258 0.04523c-0.0207 0.0066-0.04125 0.01355-0.06038 0.02048 8.69e-4 0.08259 0.0018 0.14201 0.0025 0.23125 0.02304-0.0098 0.04781-0.01952 0.07486-0.02901-6e-3 -0.07781-0.01122-0.15013-0.01696-0.22271z" fill="#725d24" stroke-width=".21507"/>
 <path d="m23.289 21.297c-0.05165 0.06975-0.09137 0.1481-0.11745 0.23166-0.0078 0.11004-0.01538 0.22008-0.02316 0.32981 0.04981 0.37963 0.36234 0.66388 0.73364 0.66728 0.40546-1.99e-4 0.73674-0.33403 0.74647-0.7522-0.24971-0.13862-0.54111-0.27207-0.86848-0.37417-0.17267-0.05385-0.32877-0.0859-0.47104-0.10239zm6.5466 0.06998c-0.25034-8.25e-4 -0.56556 0.03691-0.93428 0.16127-0.10373 0.03497-0.2002 0.07377-0.29072 0.11477-0.01487 0.06012-0.02264 0.12186-0.02316 0.18388 0.0021 0.32999 0.27571 0.65022 0.51116 0.72616 0.23546 0.07594 0.26197 0.05351 0.45698 6e-3 0.19501-0.04753 0.38968-0.2388 0.47121-0.45651-0.04477-0.26803-0.07512-0.51117-0.09959-0.73215-0.02888-0.0017-0.06075-0.0034-0.09164-0.0034z" fill="#725d24" stroke-width=".21507"/>
 <g transform="matrix(.92964 0 0 .95907 1.6932 2.0264)" stroke-width=".86087">
  <path d="m20.125 32.103s1.0226-0.68267 1.5979-1.3442 0.92035-1.8982 0.92035-1.8982 0.28761 1.2655 1.1792 2.2721c0.8916 1.0066 2.4158 2.7035 2.3583 4.2566-0.05752 1.5531-0.5752 4.9756-0.08628 6.9888 0.48893 2.0132 2.1282 0.69024 1.8982-2.8186-0.23008-3.5088-0.77653-4.918 1.1792-6.96 1.9557-2.042 2.1282-3.4512 2.1282-3.4512s0.37616 1.1245 0.86422 1.6938c0.48808 0.56943 0.89478 0.85414 0.89478 0.85414l1.3626 3.5386-4.3317 10.575-6.1417-0.08135z" fill="#6bc0d7"/>
  <path d="m25.23 37.432 0.85414 0.2237 0.97614-1.3423 0.79313 1.3015 0.79313-0.26437 0.79313 0.79312s-0.95582 0.29489-1.1897 0.62027c-0.23387 0.32539 0.30505 0.35589 0.5796 0.5491 0.27455 0.1932 0.35589 0.35589 0.35589 0.35589s-0.17286 0.33556-0.51859 0.45758c-0.34572 0.12202-0.86431-0.21354-0.86431-0.21354s0.33556 0.37622 0.1627 0.67111-0.56943 0.18304-0.56943 0.18304 0.44741 0.6101-0.31522 0.62026c-0.76262 0.01016-0.35589-0.63043-0.35589-0.63043s-0.30505 0.21353-0.52875-0.06103c-0.2237-0.27454-0.01017-0.72195-0.01017-0.72195s-0.40673 0.34572-0.84398 0.2542c-0.43723-0.09151-0.6101-0.49824-0.6101-0.49824s0.1627-0.35589 0.62027-0.50842c0.45758-0.15253 0.71178-0.14235 0.30505-0.49825-0.40673-0.35589-1.1388-0.47791-1.1388-0.47791z" fill="#d4b96f"/>
  <path d="m20.125 32.103s0.9355 2.359 2.8878 6.345c1.9524 3.986 4.4334 5.6536 4.4334 5.6536s2.5217-2.9285 3.7419-5.7756 1.871-6.6298 1.871-6.6298 1.0575 0.89478 1.9116 1.0982c0.85414 0.20337 3.9046 16.92 3.9046 16.92s-1.0575 4.9621-1.0575 7.5653 0.66094 9.0739 0.66094 9.0739l-21.933-0.14235s1.2405-6.6131 0.97614-9.7857c-0.26438-3.1726-1.5659-6.0603-1.5659-6.0603l3.466-17.881z" fill="#404040"/>
  <path d="m27.08 37.105s0.68128 0.69144 0.70162 1.7489c0.02034 1.0575-0.67112 1.9421-0.67112 1.9421s-0.95582-0.81347-0.89478-1.9116c0.06104-1.0982 0.86431-1.7794 0.86431-1.7794z" fill="#f41f1f"/>
  <path d="m20.085 29.176s-1.0575 2.359-2.5625 3.7013c-1.5049 1.3423-6.345 2.8471-6.345 2.8471l-2.7449 5.8163s-0.31283 2.1043-0.25532 3.1972c0.05752 1.0929 0.92715 3.7261 0.57521 5.2344-0.40264 1.7256-0.23936 2.9573-0.93762 8.1729s-0.60761 9.228-0.60761 9.228l7.7001-0.15632s0-7.8111 0.74778-10.86c0.74778-3.0486 2.9911-10.124 3.5663-13.978 0.5752-3.8539 0.66149-6.7299 0.43141-9.0598-0.23008-2.3296 0.43222-4.144 0.43222-4.144z" fill="#fff"/>
  <path d="m33.947 30.063s1.4956 2.8186 4.3716 3.8539c2.876 1.0354 6.0397 5.7521 6.0397 5.7521s1.5531 3.3362 1.3805 4.3716c-0.17256 1.0354-0.11505 3.6238 0.28761 4.7167 0.40264 1.0929 0.50341 4.2572 0.63008 6.443 0.12756 2.201 0.40529 7.9255 0.57785 9.9388 0.17256 2.0132 0.11505 2.8186 0.11505 2.8186l-7.4202-0.34513s-0.19457-7.3356-0.82732-11.105c-0.63274-3.7698-3.1992-11.776-4.177-16.723-0.97786-4.9468-0.97786-9.7209-0.97786-9.7209z" fill="#fff"/>
  <path d="m13.17 34.342c-2.2777 0.56943-2.9691 0.56943-2.9691 0.56943s-1.3423 3.4979-1.871 4.6368c-0.52875 1.1388-0.44741 2.0642-0.44741 2.0642l0.65077-0.59993 0.29071 0.44726 0.50331-0.70464 0.31637 0.53207 0.71901-1.1072 0.43141 0.60397 0.50331-1.51 0.60397 1.1504 0.33074-1.2655 0.44578 0.73339 0.30198-1.2799 0.34512 0.67587 0.30198-1.2511 0.34512 0.77654 0.28761-0.96348 0.34512 0.63273 0.38827-0.79091 0.33074-1.5675 0.84844 0.48893 0.61835 1.0641 0.23008-1.5531 0.46017 0.64711 0.01438-1.2655 0.54645 0.51768-0.01439-1.0354s-0.02876-0.96348-0.1438-1.4236c-0.11505-0.46017-0.11751-1.2488-0.11751-1.2488s-2.3182 1.4564-4.596 2.0259z" fill="#c92b2b"/>
  <path d="m39.21 33.429c3.3937 0.74778 4.6879 1.1792 4.6879 1.1792s0.37388 1.3805 1.0641 2.8761c0.69025 1.4955 1.1134 2.6472 1.1134 2.6472l-0.1627 0.71178-0.6101-0.69145-0.2237 0.65078-0.65077-1.1999-0.21354 1.0575-0.89478-1.4744-0.46774 0.94566-0.51859-1.6777-0.96598 1.2202-0.23387-1.1999-0.48808 0.74229-0.2237-1.3727-0.44741 0.65078-0.23387-1.3524-0.49825 0.97614-0.2237-1.0778-0.49825 0.9355-0.6406-1.8506-1.0575-0.63044-0.45758 1.6676-0.26437-1.3626-0.24404 0.48808-0.18303-0.86431-0.2542 0.32539-0.26438-1.2304s-0.06101-0.49825 0.06101-1.3423c0.12202-0.84398-0.20466-1.6272-0.20466-1.6272s0.80529 1.1321 4.199 1.8799z" fill="#c92b2b"/>
  <path d="m15.347 33.403s0.04068-0.71179 0.87447-1.0169c0.8338-0.30505 0.97614 0.26437 0.97614 0.26437l-1.1592 0.63044s0.52875 0.18304 0.51859 0.64061c-0.01017 0.45757-0.55926 0.9863-0.55926 0.9863l0.17544 1.7021s0.41433 1.6738 4.7664 3.6668c4.352 1.993 9.0641 2.8769 12.835-0.22989 3.7711-3.1069 3.048-4.5492 3.048-4.5492l0.17321-1.3467s-0.53207-0.47455-0.27322-0.90598c0.25884-0.43142 0.40264-0.40265 0.40264-0.40265l-0.80529-0.36001s0.17975-0.44528 0.63273-0.28709c0.45298 0.15818 0.51049 0.76215 0.51049 0.76215s0.46736 0.35951 0.49612 0.86285c0.02876 0.50331-0.20132 0.76934-0.20132 0.76934l0.12215 1.5385-0.08135 0.37622s0.31522 0.44741 0.4169 0.91519-0.01016 1.0778-0.01016 1.0778 0.31522 0.25421 0.50842 0.69144c0.1932 0.43724 0.06101 0.88463 0.06101 0.88463s0.42707 0.08135 0.44741 0.6406c0.02034 0.55926-0.04068 0.8033-0.04068 0.8033s0.34572 0.08135 0.65077 0.59993c0.30505 0.51859 0.29488 0.81347 0.29488 0.81347s0.4169 0.01016 0.68128 0.4169c0.26437 0.40673 0.35589 0.79313 0.35589 0.79313s0.49825 0.03047 0.8033 0.45758c0.30505 0.42707 0.39657 0.84398 0.39657 0.84398s0.37622-0.09152 0.72195 0.03047c0.34572 0.12202 0.55926 0.51859 0.55926 0.51859s0.65077-0.2237 1.0473 0.1932c0.39656 0.4169 0.49825 0.74229 0.49825 0.74229s0.34572-0.11185 0.70162 0.20337c0.35589 0.31522 0.21354 0.48808-0.1932 0.52875-0.40673 0.04063-0.40673-0.14236-0.40673-0.14236s-0.3864 0.10168-0.85414-0.03048c-0.46774-0.13219-0.81347-0.53893-0.81347-0.53893s-0.45758 0.03048-0.89478-0.2237c-0.43723-0.25421-0.6406-0.68128-0.6406-0.68128s-0.3864-0.17286-0.81347-0.5796c-0.42707-0.40673-0.40673-0.74229-0.40673-0.74229s-0.31522-0.1627-0.68128-0.65077c-0.36607-0.48809-0.42707-0.95582-0.42707-0.95582s-0.36606-0.09151-0.62027-0.55925c-0.2542-0.46774-0.1627-0.83381-0.1627-0.83381s-0.44741-0.2542-0.66095-0.70162-0.06101-0.71178-0.06101-0.71178-0.15253-0.14236-0.3864-0.78297c-0.23387-0.6406 0.03051-1.0676 0.03051-1.0676s-0.43724-0.20337-0.51859-0.77279c-0.08135-0.56943-0.14235-1.149-0.14235-1.149s0.31522 2.2574-1.9218 4.5961c-2.237 2.3387-4.6978 3.4979-10.311 3.0098-5.6129-0.48808-9.2535-6.7213-9.2535-6.7213s0.11185 0.50842-0.04068 1.0067c-0.15253 0.49825-0.49825 0.88463-0.49825 0.88463s0.21354 0.69145-0.03051 1.3015c-0.24404 0.6101-0.44741 0.62027-0.44741 0.62027s0.18303 0.37622-0.10169 0.9355c-0.28471 0.55928-0.5491 0.68128-0.5491 0.68128s0.11185 0.38639-0.23387 0.90494c-0.34572 0.51859-0.58976 0.5491-0.58976 0.5491s0.09152 0.52875-0.34572 1.088c-0.43724 0.55926-0.76262 0.5491-0.76262 0.5491s0.08135 0.44741-0.33556 0.88463c-0.4169 0.43724-0.71178 0.39657-0.71178 0.39657s-0.01017 0.42708-0.31522 0.68128-1.0473 0.29488-1.0473 0.29488-0.17286 0.4169-0.6101 0.62027c-0.43724 0.20336-1.0676 0.18303-0.72195-0.43724 0.34572-0.62026 0.68128-1.1796 0.95582-1.2711 0.27455-0.09151 0.3864 0.1627 0.3864 0.1627s0.20337-0.33556 0.53892-0.58976c0.33556-0.25421 0.50842-0.08135 0.50842-0.08135s0.2237-0.63043 0.5491-0.96598c0.32539-0.33556 0.5796-0.03047 0.5796-0.03047s0.08135-0.43723 0.3864-0.90494 0.74229-0.6101 0.74229-0.6101 0-0.31522 0.20337-0.79312c0.20337-0.47792 0.53892-0.70162 0.53892-0.70162s-0.11185-0.05088 0.08134-0.75246c0.1932-0.70162 0.4169-0.74228 0.4169-0.74228s-0.10168-0.27455 0.06101-0.87447c0.1627-0.59993 0.5796-0.88463 0.5796-0.88463s-0.05376-0.84866 0-1.2507 0.56943-1.2812 0.56943-1.2812l-0.08134-2.0947s-0.11185-0.15252 0.0305-0.65077 0.2542-0.65077 0.2542-0.65077l-0.37623 0.16777z" fill="#ede2c4"/>
  <path d="m37.545 36.941-1.5162-1.5034 1.1287-1.9421 1.8506 1.7693z" fill="#d4b96f"/>
  <path d="m15.682 37.665-1.3626-1.8404 1.6574-1.8913 1.3423 2.0845z" fill="#d4b96f"/>
  <path d="m17.909 17.804s0.78296 0.40673 1.4642 0.95582c0.68128 0.54909 1.6574 1.5049 1.6574 1.5049s-0.02033-0.26438-0.02033-0.5796 0.04068-0.7728 0.04068-0.7728 0.31522 1.3219 0.17286 2.8573c-0.14235 1.5354-0.43724 1.9625-0.43724 1.9625s-0.52875-0.27455-1.0473-1.1592c-0.51859-0.88463-0.6406-1.81-1.0067-2.654-0.36606-0.84398-0.82363-2.115-0.82363-2.115z" fill="#f8f4e9"/>
  <path d="m31.982 20.025s0.12407 0.71282 0.08093 1.5038c-0.04314 0.79091 0.20132 1.8982 0.20132 1.8982s0.77653 0.2157 1.2942-0.79091c0.51769-1.0066 1.0008-1.8806 1.3198-2.7372 0.36372-0.9764 0.9077-2.0086 0.9077-2.0086s-0.9417 0.38303-1.922 1.1666c-0.95031 0.75952-1.5667 1.3953-1.6989 1.2427-0.13218-0.15252-0.18303-0.27454-0.18303-0.27454z" fill="#f8f4e9"/>
  <path d="m14.986 35.831 0.74655 0.9962 0.9355-0.87447-0.73295-1.2147z" fill="#f41f1f"/>
  <path d="m36.588 35.366 0.92535 0.87447 0.90494-0.94566-1.149-1.1185z" fill="#f41f1f"/>
 </g>
 <g transform="matrix(.8003 0 0 .82564 5.3914 -232.13)" fill="#727272">
  <circle cx="25.75" cy="340.69" r=".8032" style="paint-order:markers fill stroke"/>
  <circle cx="25.702" cy="346.98" r=".8032" style="paint-order:markers fill stroke"/>
  <circle cx="25.561" cy="352.6" r=".8032" style="paint-order:markers fill stroke"/>
  <circle cx="25.541" cy="358.39" r=".69145" stroke-width=".86087" style="paint-order:markers fill stroke"/>
 </g>
 <path d="m24.909 27.416s1.1497 0.331 1.8181 0.27583c0.66842-0.05515 1.738-0.38616 1.738-0.38616" fill="none" stroke="#725d24" stroke-linecap="round" stroke-width=".21507"/>
 <path d="m23.105 20.357s0.37431 0.01379 0.82886 0.1793c0.45453 0.1655 1.3769 0.35858 1.5775 0.46892 0.20052 0.11033 0.32084 0.17929 0.32084 0.17929s-0.09358-0.30341-0.52137-0.48271c-0.42779-0.17929-1.4304-0.52408-1.6978-0.662-0.26737-0.13792-0.68179-0.24825-0.68179-0.24825z" fill="#197a09" stroke-width=".81287"/>
 <path d="m27.931 20.2c0.30747-0.19309 1.9918-0.77234 1.9918-0.77234l0.01336 0.45513s-0.5481 0.04137-1.0026 0.23446c-0.45453 0.19308-1.0293 0.28274-1.1831 0.39996-0.15373 0.11722-0.2941 0.17929-0.2941 0.17929s0.16711-0.30341 0.47459-0.49649z" fill="#197a09" stroke-width=".81287"/>
</svg>
