<?xml version="1.0" encoding="UTF-8"?>
<svg width="200" height="250" version="1.1" viewBox="0 0 52.917 66.146" xmlns="http://www.w3.org/2000/svg">
 <g transform="translate(0 -288.53)">
  <g>
   <path d="m47.036 347.37s0.12993 4.2168-0.22442 8.4218c-0.35435 4.205-7.4414-0.59059-7.4414-0.59059l-0.1063-1.7954 0.5079-3.0002 6.0315-4.1732z" fill="#861f9a"/>
   <path d="m17.365 319.1 16.666-0.23659 0.96431-0.14784 9.9734 3.7386 0.26639 1.2059s0.86862 1.9878 0.7684 7.233c-0.10023 5.2452-0.33409 5.9802 0.23386 8.5526 0.56795 2.5725-0.43431 6.782-0.43431 6.782l-6.3142 4.577s-0.46772-3.2406-0.56795-3.6416c-0.10022-0.4009 0.10023-0.80181 0.10023-0.80181s-0.50113-1.7038-0.80181-3.0068 0.10023-1.5702 0.10023-1.5702l-0.53454-1.0357s-0.70158 2.5725-0.66817 6.5815c0.03341 4.009 1.3698 8.586 1.3698 8.586l-24.088-0.40091s0.93544-2.9066 1.3363-5.3454c0.4009-2.4388-0.03341-6.4145-0.03341-6.4145s-0.70158 2.372-0.90204 4.1093c-0.20045 1.7372-0.03341 3.842-0.43431 5.3454-0.4009 1.5034-0.73499 2.5056-0.73499 2.5056l-5.479-6.782 0.13363-0.63476s0.10023-4.1093 0.066817-4.5102c-0.033409-0.4009 0.16704-0.93544 0.16704-0.93544s-0.23386-2.9734 0-4.2429c0.23386-1.2695 0.20045-4.4768-0.10023-5.7797-0.30068-1.303-1.6704-3.7752 0.16704-7.9179 1.8375-4.1427 8.7789-5.8129 8.7789-5.8129z" fill="#1f419a"/>
   <path d="m15.009 308.75c1.2194-1.1442 1.5702-1.4282 1.5702-1.4282l5.0026-9.3583 8.7171 2.4096 2.1497 7.0398s0.89336 0.38492 2.213 1.0197c1.3196 0.63476 3.4578 1.5869 2.205 1.6871-1.2528 0.10023-2.1716 0.15034-2.9817 0.1754-0.81016 0.0251-1.2779-0.0585-1.2779-0.0585l-1.1269 4.0034 1.1535 4.8505-8.3823 12.135-4.8146-8.0112-2.0599-13.669s-0.47838 0.37797-1.7659 0.7028c-1.2875 0.32482-2.9133 0.54631-2.65 0.31821 0 0 0.82863-0.67168 2.048-1.8159z" fill="#eeedd9"/>
   <path d="m17.365 319.1 0.74262-2.3388 1.8709 0.26727 0.02051 0.97307-0.24803 0.4485s0.46066 2.6104 1.6418 5.6106c1.1812 3.0002 2.8584 4.583 2.8584 4.583s0.77958-1.4646 2.6695-4.1577c1.8899-2.6931 3.498-4.484 4.0994-5.2524 0.60136-0.7684 0.86158-1.3504 0.86158-1.3504l-0.24352-0.18642 0.2258-0.65812 0.96266-0.37207 1.2993 1.9135-0.09449 0.28348s-0.67271 1.105-1.8253 3.2097c-1.1526 2.1047-1.4366 3.0402-2.5057 4.6605s-2.2384 2.9901-3.3743 4.7273c-1.1359 1.7372-2.3553 4.1928-2.3553 4.1928s-0.36923-0.59645-1.0071-1.6004-0.89769-1.3584-0.89769-1.3584l0.09449-0.22442s-1.0128-1.2768-2.6331-5.2525c-1.6203-3.9756-2.1625-8.1181-2.1625-8.1181z" fill="#fff"/>
   <path d="m8.9904 304.95s0.73233 0.8032 1.7245 0.68508c0.99219-0.11812-0.14174-0.47247-0.14174-0.47247s-0.35435-0.0945-0.66146-1.0867c-0.30711-0.99219 0.094494-1.9135 1.1576-2.3387 1.0631-0.42522 3.1419-0.87407 6.024-0.96856 2.8821-0.0945-0.54334 4.205-0.54334 4.205s-0.62602-0.0591-1.1694-0.0354c-0.54334 0.0236-1.193 0.0945-1.193 0.0945s0.15355 1.1576-1.9017 1.3938c-2.0552 0.23624-3.1656-0.96561-3.2955-1.2284-0.12993-0.26281 0-0.24805 0-0.24805z" fill="#b51818"/>
  </g>
  <path d="m19.219 307.75s0.67327-0.54334 1.7954-0.0591c1.1221 0.48428 1.2639 0.9095 1.2639 0.9095" fill="none" stroke="#47462c" stroke-linecap="round" stroke-width=".26458"/>
  <g>
   <path d="m16.538 312.46s-0.29529-1.4292-0.30711-4.205c-0.01181-2.7758 1.0512-8.6226 1.4174-9.0832s2.2088-1.6536 2.2088-1.6536l-0.67327 0.3071s0.67327-0.6024 3.2719-1.382c2.5986-0.77958 5.8114-0.54334 7.3233 1.4292s1.7245 2.6222 1.7245 2.6222 0.76776 4.5593 0.86226 5.5988c0.09449 1.0394 0.08268 1.3111 0.08268 1.3111l-2.386-1.2048s-0.02812 0.47053-0.08659 0.95496c-0.05847 0.48442-0.05847 0.66817-0.05847 0.66817s-0.09187-0.84357-0.1921-1.4867c-0.10023-0.64312-0.22551-0.92709-0.22551-0.92709l0.27562-8e-3 -0.42596-0.42596s-0.16704-0.48443-0.35079-1.0858c-0.18375-0.60135-0.35914-1.0607-0.35914-1.0607l0.3675-8e-3s-0.50948-0.45937-1.0106-0.82687c-0.50113-0.36749-0.43431-0.65147-0.91039-0.75169-0.47607-0.10023-0.56795-0.30068-0.56795-0.30068l-0.95215-0.27562-0.80181 8e-3 0.44267-0.65982s-0.3842 0.0501-0.87698 0.24221c-0.49278 0.1921-0.89368 0.44266-0.89368 0.44266s0.0531-0.17427 0.11216-0.32192c0.05906-0.14765 0.15946-0.3012 0.15946-0.3012l-0.38388 0.34254s-0.11812-0.24805-0.64965-0.25395c-0.53153-6e-3 -1.0158 0.56696-1.0158 0.56696s-0.64374 1.3229-0.99809 2.5395c-0.35435 1.2166-0.89769 5.1854-0.96856 6.0594s-0.05906 1.9135-0.05906 1.9135-0.08867-0.75615-0.12208-1.1905c-0.03341-0.43431-0.03341-1.47-0.03341-1.47s-0.12799 1.0658-0.22248 1.9281c-0.09449 0.86226-0.14174 1.4765-0.14174 1.4765s0.25986 1.063 0.75595 2.067 0.85045 1.5355 0.85045 1.5355l0.02362 1.0394-0.74414 1.3702-0.23624-0.33073-0.68508 0.47247s0.03544 0.76777 0.14174 1.7718c0.10631 1.004 0.25986 1.7836 0.25986 1.7836s-0.3071-0.61421-0.63784-1.5119c-0.33073-0.8977-0.56696-1.6891-0.56696-1.6891l-0.9095 0.60241-0.45475-0.86226-0.98628 0.47247s0.39628-1.5478 0.66355-3.7194c0.26727-2.1716 0.31738-4.744 0.31738-5.195s-0.08352-1.6704-0.08352-1.6704-0.08352 1.5702-0.15034 2.6226c-0.06682 1.0524-0.13286 1.7138-0.13286 1.7138z" fill="#4a61af"/>
   <path d="m30.299 300.37s2.9293 0.33073 5.3862 0.56696c2.4568 0.23624 4.1105 0.37798 4.205 1.6536 0.09449 1.2757-0.35435 2.0552-0.35435 2.0552s0.85554 0.0753 1.5404-0.0584c0.68488-0.13364 1.2695-0.71829 1.2695-0.71829s-0.39255 1.161-2.2217 2.0463c-1.8291 0.88533-3.6165 0.45102-4.1093 0.10858-0.49278-0.34244-0.39255-0.7684-0.39255-0.7684s-1.0774-0.0668-2.0964-0.0919c-1.019-0.0251-2.3136-0.0585-2.3136-0.0585s-0.08352-1.0524-0.35914-2.4806c-0.27562-1.4282-0.55415-2.2547-0.55415-2.2547z" fill="#b51818"/>
   <path d="m32.607 310.23s-0.16704 1.2361 0.53454 4.009c0.70158 2.7729 1.8542 4.4768 1.8542 4.4768l-0.13364 0.56795s-0.93544-0.50113-1.637-0.96885c-0.70158-0.46772-1.1192-1.0524-1.1192-1.0524l-0.46772 0.43432s-0.37585-0.30068-0.61806-0.52619c-0.24221-0.22551-0.7684-0.79346-0.87698-1.7957-0.10858-1.0023-0.0214-2.3817-0.0214-2.7479 0-0.36616-0.08268-1.1576-0.08268-1.1576l0.11812-1.4647s0.17718 0.18899 0.48428 0.17718c0.3071-0.0118 0.34254-0.17718 0.34254-0.17718z" fill="#4a61af"/>
  </g>
  <path d="m24.511 308.21s0.27167-0.42523 1.4765-0.73233c1.2048-0.30711 2.5041 0.0118 2.5041 0.0118" fill="none" stroke="#47462c" stroke-linecap="round" stroke-width=".26458"/>
  <g>
   <path d="m20.802 307.68s-0.23624 0.56696 0.34254 0.63783c0.57878 0.0709 0.64965-0.23623 0.64965-0.23623z" fill="#47462c"/>
   <path d="m26.247 307.51s-0.12993 0.6969 0.54334 0.59059 0.29529-0.79139 0.29529-0.79139z" fill="#47462c"/>
   <path d="m7.4501 321.51s1.8709-0.3675 4.744-1.3364c2.8731-0.96885 4.744-1.9711 4.744-1.9711l0.42668 0.90226-0.92781 0.55102s0.44354 2.9449-0.54864 7.7641c-0.99219 4.8192-5.4334 5.9531-5.4334 5.9531z" fill="#861f9a"/>
   <path d="m35.163 318.3s1.5201 1.1526 4.6605 1.8876c3.1404 0.735 5.6795 1.0357 5.6795 1.0357s0.23386-0.0835 0.03341 1.0357c-0.20045 1.1192-0.30068 1.4032-0.30068 1.4032s-0.10023-0.21716-0.22551-0.39255c-0.12528-0.1754-0.26727-0.28398-0.26727-0.28398s-1.1438 2.5181-2.1832 5.1875c-1.0394 2.6695-2.2442 5.7169-2.2442 5.7169s-4.5344-2.2599-5.7037-5.7344c-1.1693-3.4745 0.55124-9.8556 0.55124-9.8556z" fill="#861f9a"/>
   <path d="m15.038 340.41s3.0711 3.5435 5.4334 5.7641c2.3624 2.2206 3.7325 3.0711 3.7325 3.0711s4.3467-2.8821 7.465-5.7641c3.1183-2.8821 5.6696-6.9926 5.6696-6.9926l0.37798 0.7087s-2.9293 4.1577-6.0476 7.2288c-3.1183 3.071-7.465 5.5279-7.465 5.5279s-3.1564-2.4882-5.4616-4.8268-3.6668-3.9384-3.7043-4.7171z" fill="#dfdb82"/>
   <path d="m7.1495 349.4s-0.45058 1.401-0.92305 5.7241c-0.47247 4.3231 6.591 0.54334 6.591 0.54334l-4.6657-6.7351z" fill="#861f9a"/>
  </g>
  <g fill="#dfdb82">
   <path d="m7.8176 347.43s2.1382 1.1359 3.7084 3.107c1.5702 1.9711 2.6727 4.3097 2.6727 4.3097l-2.5391 0.0668s-0.50113-1.2027-1.9377-3.0736c-1.4366-1.8709-2.5725-2.4388-2.5725-2.4388z"/>
   <path d="m15.385 351.84-0.13363 0.56795s0.60136 0.58465 1.1526 1.3196c0.55124 0.73499 0.90204 1.186 0.90204 1.186l0.66817-0.10023s-0.71829-1.0357-1.4199-1.9043c-0.70158-0.86863-1.1693-1.0691-1.1693-1.0691z"/>
   <path d="m46.977 345.35s-2.1734-0.44884-4.7719 1.7482c-2.5986 2.197-3.2128 3.6498-3.2128 3.6498l0.27167 2.6576s0.85044-2.7167 3.5199-4.3467c2.6695-1.63 4.2522-1.6891 4.2522-1.6891z"/>
   <path d="m37.445 351.48s-0.95675 0.9095-1.9844 1.8544c-1.0276 0.94494-2.1025 1.7127-2.1025 1.7127l1.5237-0.14174s0.41341-0.37798 1.4292-1.4056c1.0158-1.0276 1.2402-1.2993 1.2402-1.2993z"/>
  </g>
  <g>
   <path d="m19.177 328.02c0.03341 0.73499-1.0023-0.23386-0.86863 1.0357s1.5034 1.3364 1.5034 1.3364 0.0222 0.94471 0.04583 1.5589c0.02362 0.61422 0.16536 1.2757 0.16536 1.2757s0.75595-0.66145 1.4528 0.0236c0.69689 0.68508 0.72052 2.4214 0.72052 2.4214l1.2166 0.57878s-0.47247 1.0867-0.49609 1.76c-0.02362 0.67327 0.46066 0.95675 0.46066 0.95675s-0.62602-0.0118-0.72052-0.66146c-0.09449-0.64965 0.18899-1.2757 0.18899-1.2757l-0.86226-0.46066s-0.28348-2.5159-1.0512-3.0356c-0.76776-0.51971-1.1812 0.85045-1.1812 0.85045s-0.16536-0.43704-0.18899-1.5473c-0.02362-1.1103-0.05906-1.7718-1.0749-2.4214-1.0158-0.64965-0.93313-1.2639-0.8032-2.1497s0.66146-0.44885 0.74414-0.86226c0.08268-0.41341 0.07843-0.65328 0.07843-0.65328s0.63679 0.5349 0.6702 1.2699z" fill="#fff"/>
   <path d="m24.428 336.18 1.2757-0.48428s0.38979-2.008 1.2402-2.5513c0.85045-0.54334 1.1457 0.36617 1.1457 0.36617s0.28348-0.82683 0.37798-1.4528c0.0945-0.62602 0.22442-1.5119 0.22442-1.5119s1.1339-0.12992 1.5355-0.82682c0.4016-0.69689 0.16536-1.1694-0.2008-1.1221-0.36616 0.0472-0.46066-0.10631-0.14174-0.88589 0.31892-0.77957 0.94494-1.1812 0.94494-1.1812s-0.4016 1.0749-0.18899 1.1339c0.21261 0.0591 0.62602 0.0945 0.43704 1.571-0.18899 1.4765-1.7481 1.8308-1.7481 1.8308s-0.37798 0.56697-0.63783 1.7009-0.47247 1.9962-0.47247 1.9962-0.23623-1.4292-0.96856-1.063c-0.73233 0.36616-1.5237 3.0474-1.5237 3.0474l-0.83864 0.3071s0.2008 0.99219-0.03543 1.5001c-0.23624 0.5079-0.69689 0.48428-0.69689 0.48428s0.49609-0.16537 0.51972-0.92132c0.02362-0.75595-0.24805-1.9371-0.24805-1.9371z" fill="#fff"/>
   <path d="m23.519 325.57-0.02362 0.43703 0.61421 0.0236v-0.51972l0.87407-1.2402 0.21261-0.28348s0.29529-0.18899 0.36616-0.37798c0.07087-0.18899 0.09449-0.38979 0.09449-0.38979s0.25986-0.16536 0.27167-0.54334c0.01181-0.37797-0.03543-0.38979-0.03543-0.38979s-0.13489 0.14765-0.19753 0.31887c-0.06264 0.17122-0.07935 0.26727-0.07935 0.26727l-0.09187-0.21716s-0.14199 0.1921-0.18375 0.28398c-0.04176 0.0919-0.09187 0.28815-0.09187 0.28815l-0.09187-0.21716s-0.1921 0.14616-0.28815 0.37585c-0.09605 0.22968-0.10023 0.58883-0.10023 0.58883l-1.7874-0.0919s-0.02088-0.31738-0.12111-0.66817-0.23386-0.44684-0.23386-0.44684l-0.03758 0.12528s-0.03758-0.23804-0.09187-0.39673-0.13781-0.20045-0.13781-0.20045l-0.01253 0.0626s-0.04176-0.11693-0.07935-0.17957c-0.03758-0.0626-0.0877-0.10023-0.0877-0.10023s-0.1044 0.22134-0.09605 0.53454c0.0084 0.31321 0.16287 0.45102 0.16287 0.45102s0.0084 0.096 0.09605 0.27562c0.0877 0.17957 0.15452 0.22133 0.15452 0.22133s0.0042 0.49696 0.35914 0.88116c0.35497 0.38419 0.6631 1.1273 0.6631 1.1273z" fill="#b9b9b9"/>
   <ellipse cx="23.85" cy="337.69" rx=".21261" ry=".49019" fill="#fff" style="paint-order:markers fill stroke"/>
   <ellipse cx="23.861" cy="324.51" rx="1.0985" ry="1.1635" fill="#b9b9b9" style="paint-order:markers fill stroke"/>
   <ellipse cx="23.855" cy="324.47" rx=".85635" ry=".907" fill="#2da4ff" style="paint-order:markers fill stroke"/>
  </g>
  <path d="m30.619 316.68s-0.25057 1.186-2.0045 3.107c-1.754 1.921-2.8042 2.9176-2.8042 2.9176" fill="none" stroke="#b9b9b9" stroke-linecap="round" stroke-width=".26458"/>
  <path d="m20.2 317.66s0.49609 2.0671 1.0867 3.2364c0.59059 1.1694 0.9095 1.441 0.9095 1.441" fill="none" stroke="#b9b9b9" stroke-linecap="round" stroke-width=".26458"/>
  <g>
   <path d="m21.716 313.89s0.3842 0.0334 1.5869 0.0501 1.8542-0.0835 1.8542-0.0835-0.60136 0.50113-1.921 0.51783c-1.3196 0.0167-1.5201-0.48442-1.5201-0.48442z" fill="#47462c"/>
   <path d="m23.72 306.79 0.08352-0.68488 3.4411-1.0691 1.2194 0.68488-1.1359-0.36749z" fill="#4a61af"/>
   <path d="m21.866 306.79-2.1215-1.0524 0.28397-0.43432 1.637 0.85192z" fill="#4a61af"/>
   <ellipse cx="23.635" cy="324.26" rx=".24805" ry=".29529" fill="#94d1ff" style="paint-order:markers fill stroke"/>
  </g>
 </g>
</svg>
