<?xml version="1.0" encoding="UTF-8"?>
<svg width="200" height="250" version="1.1" viewBox="0 0 52.917 66.146" xmlns="http://www.w3.org/2000/svg">
 <g transform="translate(0 -288.53)">
  <g>
   <path d="m7.0783 350.44s0.068587 3.2297-0.34962 5.8783c-0.41821 2.6487-0.74348 3.578-0.74348 3.578l3.1133 0.60408 1.394-0.78996s-0.1394-1.5334-0.04647-3.9498c0.09295-2.4163 1.3011-5.0185 1.3011-5.0185l-3.0669-1.4405z" fill="#2a617e"/>
   <path d="m7.3792 347.16s-0.49807 0.12144-0.59665 0.45007c-0.098578 0.32857 0.55858 0.52572 0.49286 0.98573-0.065714 0.46-0.19715 1.84-0.19715 1.84s0.32858 0.0328 2.0043 0.39428c1.6757 0.36145 3.0229 1.0843 3.0229 1.0843l2.2343-0.55857-1.7098-3.22-3.4489-1.9058z" fill="#181818"/>
   <path d="m11.608 315.7s-0.04646 7.5742-0.37174 10.595c-0.32528 3.0204-0.60954 8.4083-1.3476 10.873-0.73349 2.45-1.4343 4.5011-1.7595 6.4063-0.32527 1.9052-0.74972 3.5842-0.74972 3.5842s0.51115 0.46469 2.4163 0.7435c1.9052 0.2788 2.8345 0.23235 2.8345 0.23235s0.25922-3.8731 1.1695-6.9022c0.93559-3.1133 2.6827-8.5872 2.6827-8.5872l-0.41353-14.064-3.4851-3.8568z" fill="#3a84ac"/>
   <path d="m19.104 311.33s-1.4786 0.75575-4.3701 1.84c-2.8915 1.0843-3.3515 2.0372-3.2201 2.4643 0.13143 0.42715 0.82144 0.78859 1.2814 2.0372 0.46001 1.2486 1.1821 2.6714 1.5539 4.9018 0.37174 2.2304 0.74348 7.2954 0.97582 10.223 0.23234 2.9275-0.04647 5.5761-0.27881 6.6449-0.23234 1.0688-0.5704 2.0662-0.5704 2.0662l0.42242 8.4304 17.152-2.6943 1.7086-5.5201s-0.78858-2.3-0.59144-6.1772c0.19715-3.8772 2.1029-8.6744 2.1029-8.6744l3.2858-7.0316 0.8543-4.9944s0.54288-0.65981-0.47941-0.89218c-1.0223-0.23233-3.4964-1.4736-3.4964-1.4736z" fill="#2a607e"/>
   <path d="m12.441 349.44s-0.59347 2.3317-0.52776 5.256c0.06571 2.9243-1.1417 10.45-1.1417 10.45h28.717s-1.3268-5.1456-2.5754-8.8914c-1.2486-3.7458-1.0514-6.1772-1.7086-7.8201-0.65716-1.6429-22.764 1.0054-22.764 1.0054z" fill="#263b47"/>
   <path d="m42.039 348.4s0.88715 2.07 1.4129 4.4358c0.52572 2.3658 0.59144 4.5343 0.59144 4.5343s0.78858 0.32859 2.0043 0.26287c1.2157-0.0658 1.9715-0.32858 1.9715-0.32858s-0.55858-1.0843-0.88716-3.91c-0.32858-2.8258-0.23-6.473-0.23-6.473l-3.2858-1.5772z" fill="#2a617e"/>
   <path d="m39.907 344.79s-0.59499 3.477 0.09502 3.1813c0.69001-0.29571 1.4786-0.46 1.7086-0.13143 0.23001 0.32858 0.32858 0.55859 0.32858 0.55859s0.39429-0.55859 2.07-1.1172c1.6757-0.55858 2.7929-0.36145 2.7929-0.36145l-0.12736-1.7086 0.3275-0.0328s-0.18899-0.62431 0.43531-1.1829c0.6243-0.55858-0.08698-1.0178-0.08698-1.0178l-5.3785-0.46079z" fill="#181818"/>
   <path d="m39.41 314.85s-1.0835 0.75743-2.9422 3.0344c-1.8587 2.2769-2.2305 3.5316-2.0446 4.8791 0.18587 1.3476 0.69701 4.275 1.1617 4.8791 0.46468 0.60408 0.88289 2.3234 0.83642 3.3457-0.04646 1.0223-0.37175 1.3011 0 1.7193 0.37174 0.41821 0.1394 1.5799 0.51115 1.9981 0.37174 0.41821 1.394 1.7658 1.9516 4.9256 0.55761 3.1598 1.0223 5.1579 1.0223 5.1579s1.6728-0.23235 4.6468-0.74349c2.9739-0.51113 2.8968-1.0688 2.8968-1.0688s-2.618-5.6691-4.1515-10.13-1.7193-6.0873-1.7193-6.0873l0.23234-0.41821-0.37174-0.51114s-0.55761-1.3011-0.97582-4.8791c-0.41821-3.578-1.054-6.1012-1.054-6.1012z" fill="#3a84ac"/>
   <path d="m18.888 300.71c-0.44424-0.5165-2.0533-0.93807-1.4465-0.59014 0.60674 0.34792 0.30569 2.3652 0.84645 3.0417 0.54076 0.67645 0.76672 0.697 0.76672 0.697s0.59211 0.9657 0.83854 1.4586c0.24643 0.49286 0.42715 1.0843 0.03286 1.265-0.39429 0.18072-0.50929 1.3636 0.16429 1.84s1.61 0.36144 1.61 0.36144l0.03781 1.3829-3.671 5.762 3.3921 3.2527 9.433-3.671-1.6496-7.5278 3.5635-5.0969-2.3-6.6373-2.8258-3.1215h-5.5201l-2.1029 1.4786-1.2157 3.7458z" fill="#c55340"/>
   <path d="m24.986 291.95c-0.26286 0-0.46001 0.18114-0.46001 0.18114s-1.7745-0.13154-2.6781 0.21347c-0.90358 0.34501-1.2489 0.93643-1.3146 1.15-0.06571 0.21357-0.08194 0.42693-0.08194 0.42693s-1.1007 0.90339-1.61 2.612c-0.5093 1.7086 0.13153 5.5043 0.13153 5.5043s0.16429-0.72279 0-1.2485c-0.16429-0.52573-2.06e-4 -1.6432 0.19694-2.6946 0.19715-1.0514 0.65757-2.0375 0.98614-2.6946 0.32858-0.65715 0.59082-1.0508 0.59082-1.0508s0.55858 0.36101 1.15 0.62386c0.59144 0.26286 1.38 0.36155 1.38 0.36155l-0.44348-0.80502s0.36195 0.4105 1.1177 0.54194c0.75573 0.13145 0.93583 0.0819 0.93583 0.0819l-0.14735-0.44347s0.59092 0.59144 1.2974 1.035c0.70644 0.44357 0.93655 0.75614 0.93655 0.75614s0.03287-0.31215-0.57501-0.80503c-0.60787-0.49284-0.92002-1.2485-0.92002-1.2485l1.0516 0.70582s0.01674-0.50897-0.18041-0.87041c-0.19715-0.36144-0.37807-0.78848-0.37807-0.78848s1.61-0.0331 2.07 1.2154c0.46001 1.2486 0.86532 2.808 0.97752 3.8612 0.10144 0.95209 0.22199 2.2508 0.20556 3.4666-0.01641 1.2157-0.08265 2.0205-0.08265 2.0205s-0.19684 0.54193-0.41041 0.88693c-0.21358 0.34502 0.09878 0.65768 0.14806 1.2327 0.04928 0.575 0.0654 2.2504 0.0654 2.2504l0.57531 0.52573s-0.14806-0.95257 0.36123-1.1661c0.50929-0.21359 1.035 0.5088 2.07 0.0323 1.035-0.47643 1.1004-1.035 1.1004-1.035s-0.47602-0.0323-0.85389-0.26235c-0.37786-0.22998-0.41113-0.36154-0.41113-0.36154s0.57532-0.5096 0.85461-1.0846c0.27929-0.57503 0.26307-1.1666 0.26307-1.1666l0.54195-0.36082s-0.01675-0.57511-0.1646-1.3966c-0.14786-0.82143-0.62388-1.2485-0.62388-1.2485l0.95308-0.0662s-0.37838-0.75584-0.77267-1.0515c-0.39429-0.29573-0.67348-0.54195-0.67348-0.54195s0.08236-0.87053-1.117-2.842c-1.1993-1.9715-1.8075-3.1876-3.3846-3.7462-1.5772-0.55859-2.4145-0.70656-2.6774-0.70656zm6.7614 7.9603c0.01-2.5e-4 0.01508 0 0.01508 0s-0.3369 0.50067-0.53404 0.91139c-0.19715 0.41072-0.37765 1.1664-0.42695 1.9385-0.04929 0.77215-0.91981 1.1996-1.232 1.1996-0.31215 0-0.32888-1.1175-0.0496-1.4296 0.27929-0.31214-1.03e-4 -1.0349 0.44348-1.8235 0.41585-0.73917 1.6334-0.79257 1.784-0.79638z" fill="#362612"/>
   <path d="m21.738 310.17s0.0697 1.2314 0.37174 1.7658c0.30204 0.5344-0.62732 4.4609 1.3243 4.4144 1.9516-0.0465 3.0901-2.3234 3.973-3.9265 0.88289-1.6031 1.0782-2.1416 1.2918-2.8152 0.21357-0.67356 0.24633-1.183 0.24633-1.183s1.0351 0.96939 2.9409 2.218c1.9057 1.2486 3.5486 1.84 3.5486 1.84s-1.6757 4.1401-8.8716 6.3744c-7.1958 2.2343-9.1392-0.79178-8.4961-2.9259 0.6431-2.1342 1.0374-4.5985 1.0374-4.5985s0.70644-0.47642 1.3472-0.93644c0.64072-0.46 1.2864-0.22708 1.2864-0.22708z" fill="#edddc9"/>
   <path d="m14.117 344.65s-0.27945 1.0138-0.67378 1.9284c-0.39433 0.91457-1.0024 2.8578-1.0024 2.8578s3.2555 2.3178 10.878 1.9892c7.623-0.32859 11.885-2.9946 11.885-2.9946s-0.38603-1.318-0.75777-2.5494c-0.37174-1.2314-0.72025-1.8355-0.72025-1.8355l-12.651 1.9534z" fill="#181818"/>
   <ellipse transform="matrix(.98459 .17487 .19771 .98026 0 0)" cx="-54.773" cy="360.28" rx="1.283" ry="2.1384" fill="#b82222" style="paint-order:markers fill stroke"/>
   <path d="m14.476 341.51s1.918 3.6029 7.7729 3.7888c5.8549 0.18588 11.51-3.5728 11.51-3.5728s0.03913 0.48761 0.02752 1.1697c-0.01195 0.70308-0.0598 1.1484-0.0598 1.1484s-3.7174 2.9275-10.455 3.3457c-6.7378 0.41819-9.1541-2.7416-9.1541-2.7416s-0.11617-0.53438 0.02325-1.8355c0.1394-1.3011 0.33572-1.3028 0.33572-1.3028z" fill="#be932e"/>
  </g>
  <path d="m19.499 300.98s0.23-0.47643 1.0843-0.47643c0.8543 0 1.1829 0.75573 1.1829 0.75573" fill="none" stroke="#2b1718" stroke-linecap="round" stroke-width=".26458"/>
  <path d="m24.772 301.17s0.19715-0.52572 0.87073-0.67357c0.67358-0.14788 1.265 0.4107 1.265 0.4107" fill="none" stroke="#2b1718" stroke-linecap="round" stroke-width=".26458"/>
  <path d="m20.583 300.55s-0.42715 0.24643-0.24643 0.60787c0.18072 0.36144 0.57501 0.36144 0.77216 0.14786 0.19715-0.21357-0.03285-0.67358-0.03285-0.67358z" fill="#2b1718"/>
  <path d="m25.791 300.47s-0.47644 0.49288-0.06571 0.83788c0.41072 0.34501 0.75573-0.0165 0.75573-0.27929 0-0.26284-0.13142-0.55859-0.13142-0.55859z" fill="#2b1718"/>
  <path d="m22.04 305.69s0.41588 0.29186 1.188 0.30828c0.77216 0.0165 0.90359-0.34498 1.3143-0.46 0.41072-0.11503 0.7393-0.11503 0.7393-0.11503" fill="none" stroke="#2b1718" stroke-linecap="round" stroke-width=".26458"/>
  <g>
   <path d="m19.461 299.27s0.59623-0.1136 1.2862 0.18214c0.69001 0.29573 2.2836 0.65717 1.3307 0.0657-0.95287-0.59144-1.4129-0.75574-2.0865-0.62431-0.67358 0.13143-0.91318 0.45713-0.53052 0.37643z" fill="#362612"/>
   <path d="m23.918 300.06s0.54215 0.0328 1.1172-0.14786c0.57501-0.18072 0.72287-0.44358 1.5936-0.49287 0.87073-0.0492 1.6429-0.37785 0.06571-0.36143-1.5772 0.0165-2.0207 0.11503-2.6122 0.49287-0.59144 0.37787-0.16429 0.50929-0.16429 0.50929z" fill="#362612"/>
   <ellipse transform="rotate(-9.5333)" cx="-15.276" cy="325.11" rx="1.7774" ry="2.3118" fill="#181818" style="paint-order:markers fill stroke"/>
  </g>
  <path d="m34.492 322.84s1.0419 0.64765 3.2946 0.70398c2.2527 0.0562 3.013-0.4224 3.013-0.4224" fill="none" stroke="#181818" stroke-linecap="round" stroke-width=".31538"/>
  <path d="m18.065 311.82s-0.12748 0.82185-0.3681 1.8038c-0.11236 0.45857-0.48265 1.3342-0.67578 2.2754s-0.21517 1.9969 0.44141 2.8184c0.72719 0.9098 1.5572 1.4205 2.5156 1.668 0.95839 0.24745 2.0619 0.33901 3.3439 0.27418 3.1754-0.16055 6.9937-1.9968 8.7305-3.0625 1.884-1.1561 3.0864-2.819 3.3924-3.1687 0.19713-0.22528 0.41347-0.5822 0.5957-0.89648 0.18223-0.31428 0.32644-0.60096 0.32644-0.60096l-0.47293-0.22521s-0.13624 0.25656-0.3125 0.56054c-0.17626 0.30398-0.40155 0.65981-0.53516 0.8125-0.35544 0.40622-1.5029 1.8742-3.293 2.9727-1.6698 1.0246-5.4928 2.8352-8.4824 2.9863-1.267 0.0641-2.2972 0.0587-3.1602-0.16406-0.86296-0.22281-1.4966-0.67558-2.1635-1.51-0.51373-0.64274-0.51685-1.5108-0.33789-2.3828 0.17896-0.87207 0.46447-1.675 0.601-2.2322 0.2538-1.0358 0.33452-2.1501 0.33452-2.1501z" color="#000000" fill="#be932e"/>
 </g>
</svg>
