<?xml version="1.0" encoding="UTF-8"?>
<svg width="200" height="250" version="1.1" viewBox="0 0 52.917 66.146" xmlns="http://www.w3.org/2000/svg">
 <g transform="translate(0 -288.53)">
  <path d="m30.37 298.31-10.005 6.5552s-0.2252-0.29087-0.44235-0.65836c-0.21716-0.3675-0.40928-0.92708-0.40928-0.92708s-0.09191 0.65163 0.15865 1.2196c0.25057 0.56795 0.30076 1.0439 0.30076 1.0439l0.2005 1.2108-0.03307 2.1136 1.1188 3.9837-1.002 5.7464-1.9353 1.0206s-1.9736 0.54924-3.7109 0.91674c-1.7373 0.36749-3.608 2.105-4.0757 4.7108-0.46772 2.6059-0.13382 4.4102-0.03359 6.0472 0.10022 1.637-0.03344 4.5767-0.10025 6.7148-0.06682 2.1382 0.4678 4.176-0.36742 5.7128-0.83522 1.5368-0.87798 5.0488-0.87798 5.0488l-0.47232 1.772s-0.023625 1.7718-0.16536 2.9766c-0.14174 1.2048-0.44907 2.4097-0.44907 2.4097h28.458s-0.66815-1.1818-1.2361-2.8856c-0.56795-1.7038-0.30076-3.2076-0.30076-3.2076s-0.132-0.82874 0.24598-2.128c0.37798-1.2993 0.59066-2.3384 0.59066-2.3384l0.47284-0.87436 0.09405-2.882 0.8506 0.16537s0.07072 1.0984 0.22427 1.7244 0.29559 1.1457 0.29559 1.1457-0.33095 1.878-0.44907 3.2954c-0.11812 1.4174-0.14159 1.8903-0.14159 1.8903s-0.14533 2.1067 0.0217 3.5099c0.16704 1.4032 0 2.6727 0 2.6727h4.7108s0.43414-1.604 0.63459-2.6396-0.24081-3.5429-0.24081-3.5429l0.68523-2.2211s0.04696-1.181-0.04754-2.126 1.51e-4 -2.4334 0.02376-4.1579c0.02363-1.7245 0.56696-6.5435 0.66146-7.8192 0.09449-1.2757-0.3545-4.2757-0.3545-4.2757l-0.23616-2.1265s-0.16514-0.89747-0.21239-2.3621c-0.04725-1.4646 0.09442-3.4253-1.2521-4.9372-1.3465-1.5119-4.1341-1.6304-4.1341-1.6304l-3.4489-4.0628 0.94464-8.7411s0.18921-0.4253 0.36638-0.92139c0.17718-0.4961 0.15348-0.89762 0.15348-0.89762l-0.61443 1.0041zm-13.725 41.766-0.37776 2.1497s0.09807 1.0434 0.31523 2.6303c0.21716 1.5869 0.0336 3.024-0.58446 3.8091-0.61806 0.78511-0.68471 1.1689-0.68471 1.1689s-0.13375 0.50143-0.45114 1.1028c-0.31738 0.60136-1.1529 1.1023-1.1529 1.1023s0.30082-0.91864 0.55139-1.5534c0.25056-0.63478 0.42375-1.7167 0.42375-1.7167s0.29515-0.94479 0.38964-2.374c0.09449-1.4292-0.17725-1.2992 0.0708-2.9647 0.24805-1.6655 0.41341-3.1419 0.41341-3.1419z" fill="#6c8297"/>
  <path d="m19.957 319.07s0.17269-0.19704 0.45026-0.32697 0.46066-0.13584 0.46066-0.13584 0.07464-0.23877 0.29179-0.339c0.21716-0.10022 0.46772-0.0501 0.46772-0.0501s0.13364-0.23386 0.33409-0.26727c0.20045-0.0334 0.53454-0.0668 0.53454-0.0668s0.43431 1.5535 2.0379 3.4244c1.6036 1.8709 2.205 2.2384 2.205 2.2384s2.1716-1.0691 4.0425-2.7729c1.8709-1.7038 4.4768 5.6127 4.4768 5.6127l2.3052 7.4501s-0.12947 1.9212-0.22396 3.0551c-0.09449 1.1339 0.18899 2.2679 0.11812 3.1419-0.07087 0.87407-0.21262 1.7481-0.21262 1.7481l-0.3163 1.0918s0 0.43431-0.08352 0.81851-0.23386 0.56795-0.23386 0.56795 0.07517 0.36749-0.15034 0.71828c-0.22551 0.35079-0.63338 0.39419-0.63338 0.39419l0.21577-1.0624s-0.80181-1.6036-2.4555-2.7228c-1.6537-1.1192-3.5914-2.2885-4.5603-3.1738-0.96885-0.88533-2.6894-2.8063-2.6894-2.8063s-1.7707 1.0357-3.2908 2.088c-1.5201 1.0524-3.4411 2.0546-4.293 2.5056s-2.487 2.0297-2.487 2.0297l0.12993 1.1516s-0.56106-0.20671-0.47247-0.85635c0.08859-0.64965 0.11812-1.5473-0.01181-1.8072-0.12993-0.25986-0.35436-0.42523-0.35436-0.42523l-0.25986-0.42522s-0.16536-0.0827-0.5079-0.47247c-0.34254-0.38979-0.47247-1.193-0.47247-1.193s-0.55515-0.69689-0.66146-2.0434 0.16536-1.7718 0.16536-1.7718 0.05906-1.0394 0.08268-1.5592c0.02362-0.51972 0.34254-0.6969 0.34254-0.6969s0.07087-0.35435 0.35435-1.0158c0.28348-0.66146 1.8473-2.3907 3.5511-3.2594 1.7038-0.86863 3.3409-1.6036 3.3409-1.6036s-0.65147-1.8542-1.1526-3.8253c-0.50113-1.9711-0.3842-3.3576-0.3842-3.3576z" fill="#e1be9c"/>
  <path d="m10.432 331.29s2.9293-2.4568 5.2917-4.9609 6.7722-8.4481 6.7722-8.4481 0.55113 6.6999 0.97635 10.196c0.42522 3.4963 2.1734 9.0242 2.1734 9.0242s1.3702-1.8426 2.1261-5.8114c0.75595-3.9688 2.5513-11.623 2.5513-11.623l5.2917 5.0554s-6.8508 4.7247-8.9769 4.4885c-2.1261-0.23624-6.681-4.9324-7.6832-6.5694-1.0023-1.637-0.63225-3.0217-0.63225-3.0217" fill="none" stroke="#e2e2e2" stroke-linecap="round" stroke-linejoin="round" stroke-width=".79375"/>
  <path d="m20.174 306.76s-0.2572 0.92243-0.23358 1.7492c0.02362 0.82682 0.24805 1.9844 0.24805 1.9844s-0.33058 0.48458-0.63769 1.3705-0.28319 1.2046-0.28319 1.2046-0.60247 0.67335-1.0041 1.9136c-0.4016 1.2402-0.14189 2.3862 0.47232 3.0949 0.61421 0.70871 0.4191 1.4619 0.4191 1.4619l0.80202-0.46767s0.04999-0.15023 0.21704-0.21704c0.16704-0.0668 0.30059 0.28366 0.31729 0.8015 0.0167 0.51783 0.81855 1.4702 0.81855 1.4702s-0.03339 0.61798 0.05013 0.98547c0.08352 0.3675 0.55139 1.1023 0.55139 1.1023l0.11679-0.61805 0.45114 0.80201v-0.81855c0-0.30068-0.2005-0.76843-0.2005-0.76843s0.10007-0.13339 0.06666-0.38395c-0.03341-0.25058-0.23358-0.56793-0.23358-0.56793s0.05031-0.30089 0.08372-0.80202-0.1173-2.0712-0.1173-2.0712 0.07507-0.19208 0.26717-0.2589c0.1921-0.0668 0.29249 0.0165 0.29249 0.0165s0.19681-0.45785 0.26768-2.0288c0.07087-1.571-0.10645-2.0552-0.10645-2.0552s-0.21291-0.44884-0.37827-1.1576c-0.16536-0.7087-0.18862-1.4056-0.18862-1.4056s-0.59066-0.18877-0.92139-0.79117-0.41348-0.77972-0.59066-1.512c-0.17718-0.73233-0.20961-0.70738-0.37776-1.3699zm-0.75292 8.4703s0.08238 0.33066-0.13022 0.81494c-0.21261 0.48428-0.11782 1.2402-0.11782 1.2402s-0.49609-0.23609-0.49609-0.72037c0-0.48429 0.74414-1.3348 0.74414-1.3348z" fill="#fff"/>
  <path d="m36.671 324.86c-0.10288 0.0205-0.19347 0.0809-0.25195 0.16797-0.12238 0.18177-0.0743 0.42832 0.10742 0.55078 0 0 1.9375 1.3006 3.5469 2.7129 0.81898 0.7187 1.3312 1.1778 1.8086 1.4316 0.23871 0.12689 0.48821 0.20333 0.74219 0.18555 0.25398-0.0178 0.4807-0.12635 0.68359-0.27344 0.26278-0.19052 0.39865-0.47761 0.44922-0.74414 0.05057-0.26653 0.05347-0.51826-0.10613-1.0688-0.1596-0.55054-0.61858-0.70741-0.61858-0.70741s0.0959 0.79997 0.0901 0.9449c-0.0084 0.21089 0.0052 0.49055-0.06537 0.64111-0.07052 0.15056-0.14281 0.24007-0.21411 0.29176-0.1312 0.0951-0.20886 0.12034-0.27539 0.125-0.06653 5e-3 -0.15448-0.01-0.3125-0.0937-0.31604-0.168-0.84016-0.61025-1.6582-1.3281-1.6647-1.4609-3.627-2.7774-3.627-2.7774-0.08786-0.0585-0.19539-0.0796-0.29883-0.0586z" color="#000000" fill="#e2e2e2"/>
  <path d="m34.93 305.38s-0.22293 0.51239-0.35657 0.94671c-0.13364 0.43431 0.15046 0.90184-0.21704 1.8707-0.3675 0.96886-0.15029 1.0693-0.46767 1.6206-0.31738 0.55124-0.90227 1.0356-0.90227 1.0356-2e-6 0-0.01659 0.41765-0.21704 0.81856-0.20045 0.4009-0.31749 0.95217-0.40101 1.3865-0.08352 0.43431-0.56792 1.2862-0.56792 1.2862s-0.11661 0.38438-0.0832 0.70177c0.03341 0.31738 0.18345 0.73484 0.18345 0.73484s-0.13339 0.0499-0.38396 0.38395c-0.25057 0.33408-0.38447 0.78549-0.38447 0.78549s-0.31713 0.66816-1.002 1.9544c-0.68488 1.2862 0.0832 1.8872 0.0832 1.8872s-0.11647 0.11693-0.19999 0.66818c-0.08352 0.55124 0.4007 1.0524 0.48421 1.587 0.08352 0.53454-0.28393 0.85184 0.15038 1.6536 0.43431 0.80183 1.0521 0.88573 1.0521 0.88573s-0.23364 0.63448 0.18397 0.90176c0.4176 0.26726 0.35088 0.63458 0.35088 0.63458s-0.41787 0.25102-0.33435 1.0862c0.08352 0.83522 0.83561 1.0687 0.83561 1.0687s-0.33376-0.46353-0.40462-0.95963c-0.07087-0.49609 0.10594-0.98031 0.10594-0.98031s0.30718 0.0587 0.83871 0.51935c0.53153 0.46066-0.23608 1.1697-0.22428 1.8784 0.0118 0.7087 0.67334 1.063 0.67334 1.063s-0.57878 0.70863-0.57878 1.5591c0 0.85045 0.5195 1.205 1.2046 1.6893 0.68508 0.48428-0.38964 1.3462-0.38964 1.3462s0.72051-0.47247 0.74414-1.0749-1.0393-1.0865-1.2165-1.7834c-0.17718-0.69688 0.77928-1.6536 0.77928-1.6536s0.27196 0.0705 0.62632 0.0351c0.35435-0.0354 0.51935-0.10594 0.51935-0.10594s0.44892 0.5316 0.09457 0.75603c-0.35435 0.22442-1.1694 0.99173-0.4253 2.0784 0.74414 1.0867 1.0103 1.1369 1.0103 1.1369s-0.3509 0.50952-0.09199 0.81855c0.25892 0.30899 0.49919 0.24185 0.49919 0.24185s-0.09457-0.16552-0.09457-0.43719 0.2129-0.4842 0.2129-0.4842 0.62573 0.0708 0.77928 0.81493c0.15355 0.74414-0.53124 1.2284-0.53124 1.2284s0.23631-0.10594 0.4253-0.2713c0.18899-0.16537 0.35398-0.3545 0.35398-0.3545s-0.08258 0.41319 0.01188 0.95653c0.07889 0.45361 0.46936 0.83242 0.60203 0.95085-0.08395-0.0882-0.24159-0.31051-0.36587-0.83251-0.17718-0.74414 0.41356-1.1931 1.3467-2.1616 0.93313-0.96856 0.47262-2.4216-0.22428-3.4964s-0.51986-1.7244-0.51986-1.7244 0.50812-0.31898 0.53175-0.8387c0.02363-0.51971-0.4019-1.3938-1.2051-1.819-0.8032-0.42522-0.43718-1.2284-0.43718-1.2284s0.24827 0.27155 0.69712 0.30695 0.79943-0.14676 0.79943-0.14676-1.1027-0.40127-1.3699-1.4035-0.14986-1.9456-0.14986-1.9456l0.51935-0.60254s0.11524 0.20944 0.11524 0.8108c0 0.60135-0.35088 1.0692-0.35088 1.0692s0.63466-0.46735 0.93534-1.1689c0.30068-0.70158-0.0615-1.5498-0.0615-1.5498s0.56682-0.70877 0.30696-1.4175c-0.25986-0.70869-1.7601-3.2362-2.5042-4.2638-0.74414-1.0276-0.41341-2.2086-0.41341-2.2086s0.29567 0.43666 0.39016 1.0154c0.09448 0.57878 0.077 1.0408 0.077 1.0408s0.51796-0.55143 0.45114-1.37c-0.06682-0.81851-1.0356-3.6246-1.0356-3.6246s0.65161-1.2864-0.11679-2.7564c-0.76841-1.47-0.74621-2.5502-0.74621-2.5502zm2.1497 13.206s0.29529 0.11768 0.9095 0.75551c0.61421 0.63784 0.34261 1.2051 0.34261 1.2051s-0.2479-0.40145-0.55501-0.63768-0.709-0.47284-0.709-0.47284zm0.02376 8.6579s0.2304 0.12373 0.50798 0.40721 0.14728 0.65577 0.14728 0.65577l-0.72605-0.50798zm0.81494 3.8504s0.33051 0.56696 0.79116 0.99219c0.46066 0.42522 0.92154 1.2287 0.53175 1.8666-0.38979 0.63784-1.063 1.3462-1.063 1.3462s0.60218-1.0862 0.46044-1.8304c-0.14174-0.74414-0.48413-0.93327-0.72037-1.512-0.23624-0.57877 0-0.86248 0-0.86248zm-1.7601 1.3705s0.34269 0.31855 0.51986 0.76739c0.17718 0.44885-0.23616 0.93328-0.23616 0.93328s-0.47269-0.24775-0.53175-0.77928c-0.05906-0.53153 0.24805-0.92139 0.24805-0.92139zm1.5947 0.75602s0.4253 0.2713 0.4253 0.7674c0 0.49609-0.33073 1.1457-0.33073 1.1457l-0.41341-0.42477s0.28326-0.0356 0.33642-0.40773c0.05315-0.37207-0.41341-0.64958-0.41341-0.64958z" fill="#fff"/>
  <path d="m21.811 305.34s1.8542 0.0668 4.3264 0.16704c2.4722 0.10023 7.5504-0.13363 7.5504-0.13363" fill="none" stroke="#e2e2e2" stroke-linecap="round" stroke-linejoin="round" stroke-width=".79375"/>
  <path d="m28.188 296.43c-0.93692 0.0137-1.1136 0.35605-1.1136 0.35605s-0.92139-0.0237-2.4924 0.55501c-1.571 0.57878-2.2443 1.5002-2.2443 1.5002s-1.228 0.59088-1.417 0.79168c-0.18899 0.2008-0.64972 1.7007-0.67334 2.7874-0.02362 1.0867 0.36587 1.819 0.36587 1.819l-0.24805 0.6258s0.98045 0.76805 1.2521 1.2878 0.17725 1.0868 0.17725 1.0868-0.46022 0.41664-0.63562 0.86765c-0.1754 0.45102-0.49248 1.0273-0.49248 1.0273l0.06511 0.46716s-0.02355-0.92117 0.92139-1.6299c0.94494-0.70871 2.1139-2.1851 2.421-2.4686 0.30711-0.28348 1.1813-0.61451 1.7601-0.95705 0.57878-0.34254 1.0632-0.43711 2.5869-0.83871s1.5828-1.1338 1.5828-1.1338 0.26728-0.17089 0.35915-0.23771c0.09187-0.0668 0.19224-0.15916 0.19224-0.15916s0.65974 0.51791 1.3446 0.96893c0.68488 0.45102 1.203 0.66818 1.203 0.66818s0.11695 1.5367 0.05013 2.4221c-0.06682 0.88533 0.21704 2.8732 0.21704 2.8732s0.16709-0.90212 0.2005-1.6872c0.03341-0.7851 0.3005-1.286 0.63459-1.7704 0.33409-0.48442 0.62942-1.0935 0.62942-1.0935s-0.03529-0.35414-0.1416-0.70849c-0.1063-0.35436-0.22428-0.56689-0.22428-0.56689s-0.02387-0.34283-0.03565-0.54363c-0.0118-0.2008-0.16536-0.41341-0.16536-0.41341s0.15348-0.5553-0.09457-1.016c-0.24805-0.46066-0.38964-0.55501-0.38964-0.55501s-0.22435-0.23616-0.15348-0.73225c0.07087-0.4961 0.43718-0.29507 0.43718-0.29507s-0.40175-0.43719-0.8506-0.76792c-0.44884-0.33073-0.82682-0.4842-0.82682-0.4842s0.08261-0.37798-0.92139-1.0749c-1.004-0.6969-1.6774-0.46096-1.6774-0.46096s-0.2953-0.47254-1.4056-0.50798c-0.06939-2e-3 -0.13494-2e-3 -0.1974-2e-3zm-2.5735 7.63c0.16901 4.2e-4 0.25528 0.0139 0.25528 0.0139s-0.69712 0.23601-1.2759 0.70848c-0.57878 0.47247-1.1338 1.134-1.6299 1.4175-0.49609 0.28348-0.88573 0.72088-0.88573 0.72088s0.02318-0.23652 0.01137-0.62631c-0.0043-0.14245-0.0087-0.55511-0.0087-0.55511s-0.19693-0.0129-0.19638-0.36033c5.55e-4 -0.34746 0.19367-0.34857 0.19367-0.34857l0.59059-0.0587s0.27138-0.37834 1.4289-0.68545c0.72347-0.19194 1.235-0.22704 1.5167-0.22634z" fill="#fff"/>
  <path d="m25.646 337.1s-0.11812 0.73233-0.56696 1.0867c-0.44885 0.35435-0.92132 0.8977-0.66146 1.5355 0.25986 0.63784 0.66146 0.99219 0.66146 1.7245s0.59059 1.0394 0.59059 1.0394-0.30711-0.37798-0.09449-0.82682c0.21261-0.44885 1.0276-1.0985 1.0749-2.2679 0.04725-1.1694-0.55515-1.1103-0.77958-1.7009s-0.22442-0.59059-0.22442-0.59059z" fill="#d7cb64"/>
  <g fill="none" stroke="#3f4c59" stroke-linecap="round" stroke-width=".26458">
   <path d="m25.803 314.34s0.50113-0.25056 0.83522-0.10022 0.88533 0.30068 1.1025 0.30068c0.21716 0 0.80181-0.33409 1.019-0.26727 0.21716 0.0668 0.71829 0.11693 0.71829 0.11693"/>
   <path d="m23.916 308.26s0.46772-0.51783 1.4366-0.4009 1.2027 0.90203 1.2027 0.90203"/>
   <path d="m29.161 308.7s0.28397-0.65146 1.1693-0.65146c0.88533 0 1.5702 0.4009 1.5702 0.4009"/>
  </g>
  <path d="m24.851 307.89s-0.30068 0.4176 0.20045 0.65147c0.50113 0.23386 0.7684-0.0501 0.3842-0.20046-0.3842-0.15034 0.03341-0.46772 0.03341-0.46772z" fill="#3f4c59"/>
  <path d="m29.925 308.13s-0.30068 0.4176 0.20045 0.65147c0.50113 0.23386 0.7684-0.0501 0.3842-0.20046-0.3842-0.15034 0.03341-0.46772 0.03341-0.46772z" fill="#3f4c59"/>
  <g fill="#e2e2e2">
   <path d="m26.591 329.19s-1.252 2.6931-0.16536 2.764c1.0867 0.0709 0.16536-2.764 0.16536-2.764z"/>
   <path d="m42.558 329.26s-0.67428 2.8923 0.4039 2.7393c1.0782-0.15303-0.4039-2.7393-0.4039-2.7393z"/>
   <path d="m10.382 331.53s-1.0568 2.1963 0.03499 2.2541c1.0918 0.0578-0.03499-2.2541-0.03499-2.2541z"/>
   <path d="m27.83 305.46s-1.252 2.1074-0.16536 2.1629c1.0867 0.0555 0.16536-2.1629 0.16536-2.1629z"/>
  </g>
  <path d="m38.399 351.76s-0.98556 0.55124-1.3029 1.353c-0.31738 0.80181-0.18375 1.9377-0.18375 1.9377" fill="none" stroke="#e2e2e2" stroke-linecap="round" stroke-width=".79375"/>
  <path d="m42.985 347.62s-0.35449-0.56674-1.2994-0.59036c-0.94494-0.0236-1.1812 0.49609-1.1812 0.49609s-0.49609-0.21261-1.0867 0.28348c-0.59059 0.4961-0.59059 1.0631-0.59059 1.0631s-0.28348 0.0945-0.54334 0.61421c-0.25986 0.51972-0.02363 1.1103-0.02363 1.1103s-0.37798 0.30711-0.4016 0.80321c-0.02363 0.49609 0.23623 0.80319 0.23623 0.80319s1.1812-0.0236 1.6064 0.87407c0.42522 0.8977 0.11812 1.8663 0.11812 1.8663s0.42522 0.18899 1.2284 0.0473c0.8032-0.14174 0.94494-0.54334 0.94494-0.54334s-0.02363-0.37798 0.16536-0.89769c0.18899-0.51972 0.54334-1.3229 0.54334-1.3229s0.49609-0.87407 0.63783-2.1734c0.14174-1.2993-0.35421-2.4334-0.35421-2.4334z" fill="#d7cb64"/>
  <path d="m9.9343 348.7s0.86863 1.1526 1.6871 2.5224c0.81851 1.3698 1.8876 3.9756 1.8876 3.9756" fill="none" stroke="#e2e2e2" stroke-linecap="round" stroke-width=".79375"/>
  <path d="m9.9833 343.74s-0.82682 1.2757-1.2284 2.5986c-0.4016 1.3229-0.14174 2.4805-0.023625 2.9293 0.11812 0.44885-0.047026 1.2757-0.047026 1.2757l0.49587 0.0709s-0.023625-0.47247 0.49609-1.2284c0.51972-0.75596 1.4883-1.6064 1.4883-1.6064s0.11812-0.10631 0.09449-0.33073c-0.02363-0.22442-0.2008-0.34254-0.2008-0.34254s0.35435-0.48429 0.34254-1.0985c-0.01181-0.61421-0.31892-0.68508-0.31892-0.68508s0.34254-0.36616 0.05906-0.83863c-0.28348-0.47247-0.50791-0.37798-0.50791-0.37798s0.01181-0.22442-0.18899-0.37798c-0.2008-0.15355-0.46066 0.0118-0.46066 0.0118z" fill="#d7cb64"/>
  <path d="m24.346 353.69s-0.27167-0.23624-0.15355-0.64965c0.11812-0.41341 0.61421-0.23624 0.61421-0.23624" fill="none" stroke="#3f4c59" stroke-linecap="round" stroke-width=".26458px"/>
 </g>
</svg>
