<?xml version="1.0" encoding="UTF-8"?>
<svg width="100" height="100" version="1.1" viewBox="0 0 26.458 26.458" xmlns="http://www.w3.org/2000/svg">
 <rect width="26.458" height="26.458" fill="#5074b8"/>
 <path d="m13.878 21.374 0.19763 1e-3 0.07491 0.21577-0.13337 0.08593z" fill="#9da128"/>
 <path d="m23.868 3.7373 0.88304 0.053984 0.48418-0.65204-0.89725-0.8439-1.1442 0.45689z" fill="#415f95"/>
 <path d="m18.253 24.453 1.8632-1.7422 0.16097 0.19439 0.09035-0.42938 0.33203-1.8346 1.3668-0.9721 0.50609-1.7629 0.91255-0.34345 0.23712 0.28182 0.15489-0.42936 0.52054-0.19591 1.1898 0.46588 2.634-0.39955 0.41552 8.9725-10.715 0.14403z" fill="#333976"/>
 <path d="m18.253 25.511 1.0414-0.97372 0.15625-0.43472 0.16692 0.13255 0.75-0.70126 0.33203-1.8346 0.55662-0.39589 0.17798-0.64443 0.22709 0.35632 0.40507-0.2881 0.50609-1.7629 0.15443-0.54231 0.26626 0.38397 1.4044-0.52856 0.59489 0.23294 0.16176-0.46591 0.20652 0.61011 0.22661 0.08873 2.634-0.39955 0.41552 8.9725-10.715 0.14403z" fill="#202a3f"/>
 <path d="m19.288 27.382s0.7135-4.1743 3.0948-6.4926 5.328-1.9418 5.328-1.9418l0.49052 7.8323z" opacity=".24627"/>
 <path d="m19.724 27.919s0.7135-4.1743 3.0948-6.4926 5.328-1.9418 5.328-1.9418l0.49052 7.8323z"/>
 <path d="m7.3464 5.8801 7.9468-0.10478 1.4505 0.12984 1.9764 0.66442 0.7214 6.7774-2.5687 2.2005-4.8272 2.6466-8.8936 2.2373-4.3598-1.6681 0.16974-11.552z" fill="#415f95"/>
 <g fill="#397b66">
  <ellipse cx="16.694" cy="9.1466" rx=".41767" ry=".1453"/>
  <ellipse cx="14.002" cy="10.586" rx=".41767" ry=".1453"/>
  <ellipse cx="15.043" cy="12.026" rx=".41767" ry=".1453"/>
  <ellipse cx="15.891" cy="11.081" rx=".41767" ry=".1453"/>
  <ellipse cx="14.458" cy="9.796" rx=".17911" ry=".062309"/>
  <ellipse cx="15.658" cy="9.682" rx=".17911" ry=".062309"/>
  <ellipse cx="16.282" cy="8.635" rx=".17911" ry=".062309"/>
  <ellipse cx="13.941" cy="8.5056" rx=".17911" ry=".062309"/>
  <ellipse cx="12.835" cy="8.9409" rx=".17911" ry=".062309"/>
  <ellipse cx="15.472" cy="11.535" rx=".17911" ry=".062309"/>
  <ellipse cx="15.958" cy="12.038" rx=".17911" ry=".062309"/>
  <ellipse cx="15.451" cy="10.974" rx=".17911" ry=".062309"/>
  <ellipse cx="15.697" cy="10.242" rx=".17911" ry=".062309"/>
  <ellipse cx="17.223" cy="8.6232" rx=".17911" ry=".062309"/>
  <ellipse cx="5.0547" cy="14.759" rx=".17911" ry=".062309"/>
  <ellipse cx="4.3956" cy="14.577" rx=".28688" ry=".099799"/>
  <ellipse cx="3.4231" cy="15.89" rx=".28688" ry=".099799"/>
  <ellipse cx="4.0456" cy="16.71" rx=".17911" ry=".062309"/>
  <ellipse cx="5.2456" cy="16.596" rx=".17911" ry=".062309"/>
  <ellipse cx="3.9747" cy="15.356" rx=".17911" ry=".062309"/>
  <ellipse cx="3.5286" cy="15.419" rx=".17911" ry=".062309"/>
  <ellipse cx="2.4226" cy="15.855" rx=".17911" ry=".062309"/>
  <ellipse cx="1.4676" cy="15.456" rx=".17911" ry=".062309"/>
  <ellipse cx="5.9801" cy="15.741" rx=".17911" ry=".062309"/>
 </g>
 <path d="m17.321 12.85 0.63547-3.8e-4" fill="none" stroke="#624f28" stroke-width=".13229"/>
 <g fill="#397b66">
  <ellipse cx="15.494" cy="8.3056" rx=".17911" ry=".062309"/>
  <ellipse cx="13.458" cy="8.6468" rx=".28688" ry=".099799"/>
  <ellipse cx="15.529" cy="9.1644" rx=".28688" ry=".099799"/>
  <ellipse cx="14.447" cy="8.9762" rx=".28688" ry=".099799"/>
 </g>
 <path d="m18.587 5.4041-0.02834-0.13364s0.11169 0.12655 0.23651 0.10508 0.05011-0.12633-0.03988-0.11174c-0.08998 0.01459-0.16829 0.14031-0.16829 0.14031z" fill="#b2b2b2"/>
 <path d="m17.517 4.9217 0.0411 0.19384s-0.162-0.18355-0.34304-0.15241c-0.18105 0.031143-0.07268 0.18323 0.05784 0.16208 0.13052-0.021157 0.2441-0.20351 0.2441-0.20351z" fill="#ce6728"/>
 <path d="m19.365 5.8256 0.75652-0.62992 0.09468-1.2384 0.46375 0.051291 0.06803 1.644 0.74675 1.1028-0.34508 1.6693 0.31059 2.2267-0.48151 1.4947 0.75017 0.59879 1.5714 0.1886-0.03612 0.6157-1.7414 0.51588-1.2656-0.75056-1.82-1.9793z" fill="#cfcd5a"/>
 <path d="m17.442 4.6477-0.14107 0.042374-0.064078 0.85523-0.401 0.12247-0.0925 0.23719 0.2067 0.46663 1.3312 0.94205 0.040307 0.79529-0.032039 0.27388-0.069762 0.23202-0.28732 0.02067-0.087849 0.15916-0.34209 0.022737-0.31006 0.108-0.22427-0.066662-0.13436-0.25631-0.098701 0.12971-0.015503 0.43718-0.073896 0.28163-0.45216 0.081648-0.10594-0.1788-0.15503 0.080614-0.027905 0.41031-0.1881 0.13332-0.042891 0.34571-5.17e-4 5.16e-4 -0.13539 0.17776 0.20102 0.18913 0.010335 0.31522 0.20722 0.068728 0.18448 0.48885-0.061494 0.11265 0.094567 0.18913 0.1266 0.12144 0.063562 0.16743-0.03669 0.24598 0.047542 0.10387 0.16846-0.095601-0.01757-0.18448 0.15554-0.056844 0.25734 0.1049-0.074413 0.1633 0.048575 0.15709 0.23151 0.066662 0.14986-0.034623 0.21135 0.052193 0.19998-0.067179 0.20205 0.23978 0.054777 0.22479 0.23978 0.040308 0.15606 0.20464 0.001034 0.088365-0.21962 0.032039-0.13332 0.27233 0.029972 0.19482-0.15451 0.11265-0.28577 0.072347-0.23822-0.16123-0.009302-0.11575-0.21084-0.18396-0.20774 0.010335-0.18707-0.12661-0.064595-0.10904 0.01912-0.293-0.20102-0.13849-0.19688 0.036173-0.25786-0.13539-0.19637 0.032039-0.33744-0.22841 0.007751-0.15658-0.23306-0.062011-0.26148-0.38705 0.033589-0.22376 0.07183-0.14883-0.17518-0.14366-0.36845-0.13281v0.001033l-0.1881 0.26355-0.19844 0.003617-0.15451 0.26665-0.23874 0.022221-0.05581 0.1602 0.028939 0.19223-0.019121 0.24959h5.17e-4v5.16e-4l0.85678 1.8391-0.8728 1.2257-1.7079-0.15968-1.9177 0.60874 0.35243 2.0185 3.1533 0.15658 1.3627-0.64956 1.8025-0.47542 0.92551-1.6671 1.8004-0.73121 0.74361-1.4345 0.041341-1.5771 0.54931-1.387-0.46922-1.6686-0.99011-1.3927-0.020671-1.3151 0.070796 0.002067 0.01912-0.26148-0.51314-0.09405-0.080615-0.1633-0.34054-0.2868-0.29145-0.043408-0.10128 0.23616-0.36483-0.15141-0.24649 0.079064-0.076481-0.64336zm-1.1079 7.0145 0.40514 0.22789 0.002584 0.16588-0.26975 0.005684-0.23254-0.35036 0.094567-0.049092z" fill="#ce5acd"/>
 <path d="m19.367 5.9743-0.08514-0.93281 0.18187-0.70793 0.44813 0.12504-0.17148 1.6055z" fill="#cfcd5a"/>
 <path d="m0.40447 17.604s-0.098092-0.13656 0.019584-0.16294c0.11768-0.02638 0.1241-0.19321 0.23026-0.1391s0.086499 0.21937 0.086499 0.21937z" fill="#84846c"/>
 <path d="m0.542 17.591s0.040482-0.17552-0.042152-0.26492c-0.082635-0.08939 0.076271-0.1356 0.072066-0.23395-0.004205-0.09834 0.065179-0.18461 0.09666-0.0692s0.12161 0.24948 0.16895 0.21193c0.047332-0.03756 0.12149-0.01993 0.1299 0.10971 0.00841 0.12963-0.42542 0.24643-0.42542 0.24643z" fill="#a3a385"/>
 <g fill="#fff" fill-opacity=".3">
  <ellipse cx="3.0802" cy="17.731" rx=".056109" ry=".05218"/>
  <ellipse cx="3.1166" cy="17.568" rx=".032378" ry=".03011"/>
  <ellipse cx="3.1088" cy="17.072" rx=".032378" ry=".03011"/>
  <ellipse cx="2.519" cy="17.643" rx=".032378" ry=".03011"/>
  <ellipse cx="2.6135" cy="17.506" rx=".032378" ry=".03011"/>
  <ellipse cx="9.1186" cy="15.354" rx=".048989" ry=".045558"/>
  <ellipse cx="9.1993" cy="15.215" rx=".032378" ry=".03011"/>
  <ellipse cx="6.8911" cy="15.774" rx=".032378" ry=".03011"/>
  <ellipse cx="7.0811" cy="15.218" rx=".032378" ry=".03011"/>
  <ellipse cx="6.853" cy="15.101" rx=".032378" ry=".03011"/>
 </g>
 <ellipse cx="19.654" cy="4.659" rx=".15417" ry=".15301" fill="#4d4c22"/>
 <g transform="matrix(.90103 -.10554 .10554 .90103 13.618 12.568)">
  <path d="m8.3792 8.3934-0.030489 0.082683c-0.030281-0.00971-0.064914-0.014886-0.10025-0.014986-0.054381 1.581e-4 -0.10621 0.01232-0.14314 0.03359-0.036401 0.014964-0.09876 0.038509-0.15451 0.048576-0.084957 0.015341-0.10749-0.00827-0.10749-0.00827l-0.039274 0.097669s0.088827-0.023567 0.20412 0.00103c0.032698 0.00698 0.059846 0.012263 0.082683 0.016536l-0.017053 0.056844-0.01912 0.03359 0.014986 0.00568 0.03669-0.082166 0.00879 0.080616 0.011886-0.00103-0.00723-0.088367c0.037764 0.00658 0.056328 0.00878 0.056328 0.00878l-0.035657 0.058395 0.0031 0.044959 0.012919-0.0062-0.00207-0.03514 0.037724-0.059945c0.00392 7.57e-4 0.00788 0.00145 0.011886 0.00207l0.00207 0.050126-0.01757 0.049093 0.016536 0.00465 0.024288-0.044442-0.00723-0.057878c0.00873 6.581e-4 0.017537 1e-3 0.026355 0.00103 0.00744-1.188e-4 0.014857-4.627e-4 0.022221-0.00103l0.011886 0.065113-0.00413 0.03669h0.014986l0.011369-0.041858-0.00827-0.045475 0.034623 0.078549 0.013436-0.00413-0.034623-0.093535c0.018548-0.00308 0.036137-0.00761 0.052193-0.013436l0.062529 0.069247 0.092501-0.00413-0.055294-0.031523 0.03669-0.01757-0.072881-0.014988-0.026872-0.019637c0.029836-0.018785 0.046302-0.04257 0.046509-0.06718l0.087958 0.00362-0.026355-0.023255 0.024805-0.020154-0.096744 0.00723c-0.00926-0.01552-0.025184-0.029676-0.046509-0.041341l0.051677-0.055811-0.012919-0.010335-0.053744 0.059428c-4e-3 -0.00181-0.00814-0.00354-0.012402-0.00517l0.035657-0.083199z" fill="#d03535"/>
  <circle cx="8.3903" cy="8.3869" r=".019914"/>
  <circle cx="8.4441" cy="8.4308" r=".019914"/>
 </g>
 <path d="m-0.5024 17.858 1.6223-0.58854 1.4969 0.70654 1.5113-0.1647 0.20783 0.70734 0.55193 0.03166 0.47685-1.4044 1.5177-0.37891 0.66845-1.4632 1.9628 0.23665 1.2062 1.1144 1.9311 0.07984 0.97114 1.538-0.2359 1.9364 0.72596 1.5843-0.25676 1.9552 2.0199 0.52147 2.3329-0.38635 2.7883 1.2889 0.54876 1.6015h-22.499z" fill="#493b2c"/>
 <path d="m4.3359 18.518-0.35133 1.4094-0.403 0.24386-0.080093 0.32028-0.13809-0.18825-0.11694 0.070762-0.13478 0.36118-0.13173-0.1999-0.077474 0.65187-0.1749-0.49915-0.40809 0.24695-0.49317 2.0414 1.3421 1.3679 2.3329-0.19223 1.9169 0.96646 2.6-0.24537 2.1842-1.348 2.663 0.48351-0.7532-2.216-1.7381 0.63762-0.65078-0.21107-0.1267 0.33414-0.17197-0.43101-0.86096-0.27924-0.70533-0.54328-0.11066 0.15054-0.14246-0.3455-0.38327-0.29522-0.13537 0.50503-0.13731-0.71506-0.34532-1.6881-0.73641-0.16754-0.098749 0.15771-0.13899-0.2118-0.089881 0.31454-0.1444-0.36817-0.96607-0.25342-0.13914 0.051339-0.1501 0.30118-0.15793-0.18753-0.35531 0.1311-0.11555 0.79456-0.22078-0.67047-0.40279-0.25341z" fill="#5e4c39"/>
 <ellipse cx="19.524" cy="5.1447" rx=".10434" ry=".10356" fill="#4d4c22"/>
 <path d="m3.1834 17.425s0.067411-0.05206 0.012248-0.2471c-0.055162-0.19503 0.022514-0.70959 0.022514-0.70959s-0.017235 0.60916 0.064965 0.69161c0.082198 0.08244 0.051944 0.21323 0.051944 0.21323l-0.029609 0.23108z" fill="#fff" fill-opacity=".29681"/>
 <path d="m3.5761 17.66s0.03853-0.0475 0.043705-0.08582c0.00518-0.03832 0.056075-0.03721 0.067137 0.10038s-0.11084-0.01456-0.11084-0.01456z" fill="#798eb4"/>
 <path d="m21.383 4.1692s0.61782-0.33632 1.6053-0.10571c0.98751 0.23061 1.3034-0.7476 1.3034-0.7476" fill="none" stroke="#f00" stroke-dasharray="0.066145, 0.198435" stroke-linecap="round" stroke-width=".066145"/>
 <g fill="none" stroke="#f00" stroke-dasharray="0.0661461, 0.198438" stroke-linecap="round" stroke-width=".066146">
  <path d="m3.1631-1.0972s0.019563 3.3549 1.9571 3.7407c1.9375 0.38577 2.8974 0.6986 4.3384 0.88449s2.9968 0.38976 4.1984 0.73154c1.0924 0.31072 4.8318-1.0328 4.1988-0.5189-1.0344 0.83977-1.9234 2.2814-1.6265 3.4864 0.30422 1.2346-0.31879 1.3835-0.73349 2.0428-0.69324 1.1022-1.6298 1.4184-2.5247 2.164-1.375 1.1456 0.12533 2.0568-0.9876 3.3599-1.4461 1.6932-3.3484-1.1212-5.4503-0.19128-2.5384 1.1231-2.8807 6.3009-0.022346 4.9836 3.1863-1.4684 1.2462 4.1246 3.3083 4.3658 1.7968 0.21017 3.3643-2.2514 5.2781-1.3035 1.9139 0.94786 4.6293-0.76062 4.3275-3.6559-0.1693-1.6237 0.5583-3.5979 2.9904-4.0569 1.843-0.34779 1.2436-2.2201 1.0563-3.0027-0.37208-1.5548-2.0896-2.2587-1.6644-3.8898 0.21737-0.83377 1.7493-1.3317 2.3756-2.3585 0.49512-0.81164 0.13386-2.2723 0.13386-2.2723"/>
  <path d="m7.7602 3.2852s-1.4861 0.58123-2.0487 1.1495c-0.64928 0.65579-1.813 0.96078-2.3621 1.5667-0.78694 0.86827-0.94058-0.33678-0.94058-0.33678"/>
  <path d="m6.5742 7.3311s1.5217-0.64801 2.2577-0.12544c0.9855 0.69972 1.9067 1.8868 2.854 1.534 2.3156-0.86221 3.3514 1.0475 3.3514 1.0475s0.04727 1.735 0.82126 2.5228c0.77399 0.78782 1.3071 0.93607 1.3071 0.93607"/>
  <path d="m6.7819 11.714s0.83385 0.3187 1.5317 1.3045c0.69787 0.98583 0.98907 1.8237 0.98907 1.8237"/>
 </g>
 <g transform="matrix(-1 0 0 1 23.765 11.202)">
  <path d="m5.7342 4.0799s-0.03151 0.12081 0.025853 0.19268c0.05736 0.071863-0.028103 0.23591-0.028103 0.23591" fill="none" stroke="#257239" stroke-linecap="round" stroke-width=".13229"/>
  <circle cx="5.8098" cy="4.0935" r=".068029" fill="#9b9d45"/>
  <circle cx="5.6819" cy="4.2961" r=".068029" fill="#9b9d45"/>
 </g>
 <g transform="translate(21.71 12.684)">
  <path d="m2.2715 3.5217s-0.03151 0.12081 0.025853 0.19268c0.05736 0.071863-0.028103 0.23591-0.028103 0.23591" fill="none" stroke="#257239" stroke-linecap="round" stroke-width=".13229"/>
  <circle cx="2.1929" cy="3.4698" r=".068029" fill="#9b9d45"/>
  <circle cx="2.3559" cy="3.6987" r=".068029" fill="#9b9d45"/>
 </g>
 <g transform="translate(10.427 16.065)">
  <path d="m3.4633 4.0917s-0.043564-0.13354 0.032976-0.26347-0.061145-0.2316-0.061646-0.39113c-5.018e-4 -0.15953 0.04287-0.31876 0.04287-0.31876" fill="none" stroke="#257239" stroke-linecap="round" stroke-width=".13229"/>
  <g fill="#9b9d45">
   <circle cx="3.5025" cy="3.1846" r=".068029"/>
   <circle cx="3.3844" cy="3.396" r=".068029"/>
   <circle cx="3.5823" cy="3.691" r=".068029"/>
  </g>
 </g>
 <g transform="translate(8.8996 13.452)">
  <path d="m5.7342 4.0799s-0.03151 0.12081 0.025853 0.19268c0.05736 0.071863-0.028103 0.23591-0.028103 0.23591" fill="none" stroke="#257239" stroke-linecap="round" stroke-width=".13229"/>
  <circle cx="5.8098" cy="4.0935" r=".068029" fill="#9b9d45"/>
  <circle cx="5.6819" cy="4.2961" r=".068029" fill="#9b9d45"/>
 </g>
 <g transform="matrix(-1 0 0 1 18.993 14.691)">
  <path d="m2.824 3.5184s0.043564-0.13354-0.032976-0.26347 0.061145-0.2316 0.061646-0.39113c5.018e-4 -0.15953-0.04287-0.31876-0.04287-0.31876" fill="none" stroke="#257239" stroke-linecap="round" stroke-width=".13229"/>
  <g fill="#9b9d45">
   <circle cx="2.912" cy="3.0034" r=".068029"/>
   <circle cx="2.7867" cy="2.8177" r=".068029"/>
   <circle cx="2.9109" cy="2.7168" r=".068029"/>
   <circle cx="2.764" cy="2.5025" r=".068029"/>
  </g>
 </g>
 <g transform="matrix(-1 0 0 1 16.356 14.473)">
  <path d="m2.2715 3.5217s-0.03151 0.12081 0.025853 0.19268c0.05736 0.071863-0.028103 0.23591-0.028103 0.23591" fill="none" stroke="#257239" stroke-linecap="round" stroke-width=".13229"/>
  <circle cx="2.1929" cy="3.4698" r=".068029" fill="#9b9d45"/>
  <circle cx="2.3559" cy="3.6987" r=".068029" fill="#9b9d45"/>
 </g>
 <g transform="translate(15.913 13.806)">
  <path d="m2.2715 3.5217s-0.03151 0.12081 0.025853 0.19268c0.05736 0.071863-0.028103 0.23591-0.028103 0.23591" fill="none" stroke="#257239" stroke-linecap="round" stroke-width=".13229"/>
  <circle cx="2.1929" cy="3.4698" r=".068029" fill="#9b9d45"/>
  <circle cx="2.3559" cy="3.6987" r=".068029" fill="#9b9d45"/>
 </g>
 <g transform="translate(12.421 15.189)">
  <path d="m2.2715 3.5217s-0.03151 0.12081 0.025853 0.19268c0.05736 0.071863-0.028103 0.23591-0.028103 0.23591" fill="none" stroke="#257239" stroke-linecap="round" stroke-width=".13229"/>
  <circle cx="2.1929" cy="3.4698" r=".068029" fill="#9b9d45"/>
  <circle cx="2.3559" cy="3.6987" r=".068029" fill="#9b9d45"/>
 </g>
 <g transform="matrix(-1 0 0 1 22.203 15.483)">
  <path d="m4.6477 3.6579s-0.03151 0.17744 0.025853 0.28299c0.05736 0.10555-0.028103 0.34649-0.028103 0.34649" fill="none" stroke="#257239" stroke-linecap="round" stroke-width=".13229"/>
  <circle cx="4.5798" cy="3.6755" r=".068029" fill="#9b9d45"/>
  <circle cx="4.7117" cy="3.8967" r=".068029" fill="#9b9d45"/>
 </g>
 <path d="m5.7311 11.779-0.094886 6.25e-4 -0.00998 0.06933 0.10101-0.0043z" fill="#c6c6c6"/>
 <g fill="#397b66">
  <ellipse cx="13.901" cy="9.506" rx=".41767" ry=".1453"/>
  <ellipse cx="14.874" cy="8.7407" rx=".68846" ry=".2395"/>
  <ellipse cx="2.4343" cy="15.166" rx=".28688" ry=".099799"/>
 </g>
 <g fill="#f00">
  <circle cx="7.8315" cy="3.2465" r=".23128"/>
  <circle cx="14.641" cy="4.2945" r=".23128"/>
  <circle cx="16.177" cy="6.5544" r=".23128"/>
  <circle cx="15.075" cy="9.8885" r=".23128"/>
  <circle cx="6.5104" cy="7.3386" r=".23128"/>
  <circle cx="10.673" cy="8.6063" r=".23128"/>
  <circle cx="17.465" cy="13.324" r=".23128"/>
  <circle cx="12.379" cy="13.373" r=".23128"/>
  <circle cx="9.2673" cy="14.879" r=".23128"/>
  <circle cx="6.6948" cy="11.658" r=".23128"/>
  <circle cx="5.2993" cy="15.692" r=".23128"/>
  <circle cx="8.2967" cy="20.004" r=".23128"/>
  <circle cx="14.298" cy="22.442" r=".23128"/>
  <circle cx="18.261" cy="22.151" r=".23128"/>
  <circle cx="19.452" cy="17.976" r=".23128"/>
  <circle transform="rotate(38.332)" cx="5.5348" cy="3.0785" r=".23128"/>
 </g>
 <g transform="translate(-.16905 -3.6578)">
  <circle cx="4.2636" cy="5.7007" r=".23128" fill="#f00"/>
  <path d="m4.2633 5.4929 0.049791 0.14324 0.15162 0.0031-0.12085 0.091622 0.043911 0.14515-0.12448-0.086621-0.12447 0.086621 0.043911-0.14515-0.12085-0.091622 0.15162-0.0031z" fill="#fff" stroke-width=".36111"/>
 </g>
 <g transform="translate(6.9602 -1.9572)">
  <circle cx="4.2636" cy="5.7007" r=".23128" fill="#f00"/>
  <path d="m4.2633 5.4929 0.049791 0.14324 0.15162 0.0031-0.12085 0.091622 0.043911 0.14515-0.12448-0.086621-0.12447 0.086621 0.043911-0.14515-0.12085-0.091622 0.15162-0.0031z" fill="#fff" stroke-width=".36111"/>
 </g>
 <g transform="translate(20.028 -2.4181)">
  <circle cx="4.2636" cy="5.7007" r=".23128" fill="#f00"/>
  <path d="m4.2633 5.4929 0.049791 0.14324 0.15162 0.0031-0.12085 0.091622 0.043911 0.14515-0.12448-0.086621-0.12447 0.086621 0.043911-0.14515-0.12085-0.091622 0.15162-0.0031z" fill="#fff" stroke-width=".36111"/>
 </g>
 <g transform="translate(17.028 -1.55)">
  <circle cx="4.2636" cy="5.7007" r=".23128" fill="#f00"/>
  <path d="m4.2633 5.4929 0.049791 0.14324 0.15162 0.0031-0.12085 0.091622 0.043911 0.14515-0.12448-0.086621-0.12447 0.086621 0.043911-0.14515-0.12085-0.091622 0.15162-0.0031z" fill="#fff" stroke-width=".36111"/>
 </g>
 <g transform="translate(17.499 2.5775)">
  <circle cx="4.2636" cy="5.7007" r=".23128" fill="#f00"/>
  <path d="m4.2633 5.4929 0.049791 0.14324 0.15162 0.0031-0.12085 0.091622 0.043911 0.14515-0.12448-0.086621-0.12447 0.086621 0.043911-0.14515-0.12085-0.091622 0.15162-0.0031z" fill="#fff" stroke-width=".36111"/>
 </g>
 <g transform="translate(13.692 -2.001)">
  <circle cx="4.2636" cy="5.7007" r=".23128" fill="#f00"/>
  <path d="m4.2633 5.4929 0.049791 0.14324 0.15162 0.0031-0.12085 0.091622 0.043911 0.14515-0.12448-0.086621-0.12447 0.086621 0.043911-0.14515-0.12085-0.091622 0.15162-0.0031z" fill="#fff" stroke-width=".36111"/>
 </g>
 <g transform="translate(.32896 13.243)">
  <circle cx="4.2636" cy="5.7007" r=".23128" fill="#f00"/>
  <path d="m4.2633 5.4929 0.049791 0.14324 0.15162 0.0031-0.12085 0.091622 0.043911 0.14515-0.12448-0.086621-0.12447 0.086621 0.043911-0.14515-0.12085-0.091622 0.15162-0.0031z" fill="#fff" stroke-width=".36111"/>
 </g>
 <g transform="translate(5.8562 18.255)">
  <circle cx="4.2636" cy="5.7007" r=".23128" fill="#f00"/>
  <path d="m4.2633 5.4929 0.049791 0.14324 0.15162 0.0031-0.12085 0.091622 0.043911 0.14515-0.12448-0.086621-0.12447 0.086621 0.043911-0.14515-0.12085-0.091622 0.15162-0.0031z" fill="#fff" stroke-width=".36111"/>
 </g>
 <g transform="rotate(-18.018 3.8763 17.132)">
  <path d="m8.3792 8.3934-0.030489 0.082683c-0.030281-0.00971-0.064914-0.014886-0.10025-0.014986-0.054381 1.581e-4 -0.10621 0.01232-0.14314 0.03359-0.036401 0.014964-0.09876 0.038509-0.15451 0.048576-0.084957 0.015341-0.10749-0.00827-0.10749-0.00827l-0.039274 0.097669s0.088827-0.023567 0.20412 0.00103c0.032698 0.00698 0.059846 0.012263 0.082683 0.016536l-0.017053 0.056844-0.01912 0.03359 0.014986 0.00568 0.03669-0.082166 0.00879 0.080616 0.011886-0.00103-0.00723-0.088367c0.037764 0.00658 0.056328 0.00878 0.056328 0.00878l-0.035657 0.058395 0.0031 0.044959 0.012919-0.0062-0.00207-0.03514 0.037724-0.059945c0.00392 7.57e-4 0.00788 0.00145 0.011886 0.00207l0.00207 0.050126-0.01757 0.049093 0.016536 0.00465 0.024288-0.044442-0.00723-0.057878c0.00873 6.581e-4 0.017537 1e-3 0.026355 0.00103 0.00744-1.188e-4 0.014857-4.627e-4 0.022221-0.00103l0.011886 0.065113-0.00413 0.03669h0.014986l0.011369-0.041858-0.00827-0.045475 0.034623 0.078549 0.013436-0.00413-0.034623-0.093535c0.018548-0.00308 0.036137-0.00761 0.052193-0.013436l0.062529 0.069247 0.092501-0.00413-0.055294-0.031523 0.03669-0.01757-0.072881-0.014988-0.026872-0.019637c0.029836-0.018785 0.046302-0.04257 0.046509-0.06718l0.087958 0.00362-0.026355-0.023255 0.024805-0.020154-0.096744 0.00723c-0.00926-0.01552-0.025184-0.029676-0.046509-0.041341l0.051677-0.055811-0.012919-0.010335-0.053744 0.059428c-4e-3 -0.00181-0.00814-0.00354-0.012402-0.00517l0.035657-0.083199z" fill="#d03535"/>
  <circle cx="8.3903" cy="8.3869" r=".019914"/>
  <circle cx="8.4441" cy="8.4308" r=".019914"/>
 </g>
 <path d="m7.1505 4.0628-0.68627 1.0444-1.3346 0.062503-1.9754 1.3759-2.0225 0.12137-1.9057-0.56906-0.21458 7.137 2.4769 1.3317 2.4086-0.48576 2.0293-0.37 0.56586-0.8444-1.0687-1.4361 0.41806-1.5131 1.6418-0.18449 1.3565 0.99891-0.053744 1.7642 0.82941 1.7725 1.3865 0.53485 0.87644-0.93431-0.08682-1.4015 1.078-1.6263 1.2227-0.82941-0.38292-0.72089-1.2702-0.23823-0.58508 0.28766-0.19997 0.024568-0.16648 0.095688-0.20846 0.03623-0.15729 0.11265-0.16154 0.01971-0.14086 0.00655-0.16416-0.063268-0.1454-0.088687-0.21289-0.049394-0.2205-0.14461-0.31359-0.13494-0.30838-0.045126-0.89218-0.34383-2.1658 0.026355-1.2862-0.92243 0.70177-1.2273 2.3751-0.39791 1.5804 0.6842 0.164 0.1262 0.32826 0.098383 0.15689 0.1738 0.3041 0.13414 0.11339 0.21128 0.3222 0.18557 0.13845 0.26713 0.2166 0.14813 0.22428-0.010368 1.5952-0.23561 1.8226 0.72098 0.61553-0.73114-0.4425-1.0228-0.03346-1.2191-0.25012-0.35243-0.41445 0.0031-0.23772-0.31781-0.45579-0.00413-0.03927-0.30489-0.12351-0.030489-0.09043 0.33021-0.1974 0.13074-0.416-0.085266-0.1881 0.1943-2.372 0.37621-1.5973-1.6087z" fill="#ce5acd"/>
 <ellipse cx="3.7869" cy="14.794" rx=".68846" ry=".2395" fill="#397b66"/>
 <path d="m-0.1645 15.61 1.2029-0.45852 1.3803-0.009196 1.5962-0.62824-0.23537-0.8672-1.8003-0.13688-1.0333-0.91581-1.5269-0.20772z" fill="#493b2c"/>
 <path d="m4.1435 21.449 1.2542-0.70725 1.1749 0.63046 1.233 0.11259 0.46031 1.6855-1.0656 0.21858-0.1469 0.57303-0.16324-0.50941-0.65791 0.13495-0.093063 0.27812-0.14162-0.3018-0.93587-0.094427-0.0718 0.33969-0.099334-0.35696-0.10391 0.16228-0.12031-0.1849-0.64239-0.064815z" fill="#493b2c"/>
 <path d="m20.218 2.4506 0.55697-0.069807-0.0013-1.9364 1.7919-0.72435 4.1266-0.31781 0.03988 1.6997 0.40109 11.269-1.8211 0.46933-0.04355 0.61819 2.1222 0.21712-0.0916-15.081-7.0357 0.27843-0.63857 1.9422z" fill="#cfcd5a"/>
 <path d="m25.133 10.137 0.26552-1.369-0.072061-1.1592 0.56688-0.056236 0.31012 2.6452z" fill="#cfcd5a"/>
 <g fill="#4d4c22">
  <ellipse cx="25.592" cy="7.9543" rx=".15417" ry=".15301"/>
  <ellipse cx="25.779" cy="8.8359" rx=".11816" ry=".11728"/>
  <ellipse cx="25.517" cy="9.587" rx=".15417" ry=".15301"/>
  <ellipse cx="25.901" cy="9.921" rx=".20661" ry=".20507"/>
 </g>
 <g fill="#54b44f">
  <path d="m25.127 8.3605-2.6e-4 0.19815s-0.12012-0.21332-0.30368-0.22065-0.10932 0.16403 0.02274 0.17058 0.2812-0.14808 0.2812-0.14808z"/>
  <path d="m24.505 8.7746-0.0411 0.19384s0.162-0.18355 0.34304-0.15241c0.18105 0.031143 0.07268 0.18323-0.05784 0.16208-0.13052-0.021157-0.2441-0.20351-0.2441-0.20351z"/>
  <path d="m24.772 9.2881-0.0298-0.19589s0.15108 0.19263 0.33363 0.17204c0.18255-0.020597 0.08318-0.17871-0.04835-0.16516-0.13152 0.013556-0.25548 0.18902-0.25548 0.18902z"/>
  <path d="m2.9414 0.88075-2.6e-4 0.19815s-0.12012-0.21332-0.30368-0.22065-0.10932 0.16403 0.02274 0.17058 0.2812-0.14808 0.2812-0.14808z"/>
  <path d="m2.3192 1.2949-0.0411 0.19384s0.162-0.18355 0.34304-0.15241c0.18105 0.031143 0.07268 0.18323-0.05784 0.16208-0.13052-0.021157-0.2441-0.20351-0.2441-0.20351z"/>
  <path d="m2.5865 1.8084-0.0298-0.19589s0.15108 0.19263 0.33363 0.17204c0.18255-0.020597 0.08318-0.17871-0.04835-0.16516-0.13152 0.013556-0.25548 0.18902-0.25548 0.18902z"/>
  <path d="m15.484 0.19258-2.6e-4 0.19815s-0.12012-0.21332-0.30368-0.22065-0.10932 0.16403 0.02274 0.17058 0.2812-0.14808 0.2812-0.14808z"/>
  <path d="m15.732 0.70655-0.0298-0.19589s0.15108 0.19263 0.33363 0.17204c0.18255-0.020597 0.08318-0.17871-0.04835-0.16516-0.13152 0.013556-0.25548 0.18902-0.25548 0.18902z"/>
  <path d="m14.756 0.58965-0.0298-0.19589s0.15108 0.19263 0.33363 0.17204c0.18255-0.020597 0.08318-0.17871-0.04835-0.16516-0.13152 0.013556-0.25548 0.18902-0.25548 0.18902z"/>
  <path d="m16.893 19.368-2.6e-4 0.19815s-0.12012-0.21332-0.30368-0.22065c-0.18356-0.0073-0.10932 0.16403 0.02274 0.17058 0.13206 0.0065 0.2812-0.14808 0.2812-0.14808z"/>
  <path d="m16.508 18.606-2.6e-4 0.19815s-0.12012-0.21332-0.30368-0.22065c-0.18356-0.0073-0.10932 0.16403 0.02274 0.17058 0.13206 0.0065 0.2812-0.14808 0.2812-0.14808z"/>
  <path d="m15.953 19.188-0.0298-0.19589s0.15108 0.19263 0.33363 0.17204c0.18255-0.0206 0.08318-0.17871-0.04835-0.16516-0.13152 0.01356-0.25548 0.18902-0.25548 0.18902z"/>
  <path d="m15.533 18.887-0.0298-0.19589s0.15108 0.19263 0.33363 0.17204c0.18255-0.0206 0.08318-0.17871-0.04835-0.16516-0.13152 0.01356-0.25548 0.18902-0.25548 0.18902z"/>
  <path d="m11.067 1.0948-2.6e-4 0.19815s-0.12012-0.21332-0.30368-0.22065-0.10932 0.16403 0.02274 0.17058 0.2812-0.14808 0.2812-0.14808z"/>
  <path d="m10.111 1.5518-0.0298-0.19589s0.15108 0.19263 0.33363 0.17204c0.18255-0.020597 0.08318-0.17871-0.04835-0.16516-0.13152 0.013556-0.25548 0.18902-0.25548 0.18902z"/>
 </g>
 <g fill="#ce6728">
  <path d="m16.964 5.265 2.6e-4 0.19815s0.12012-0.21332 0.30368-0.22065 0.10932 0.16403-0.02274 0.17058-0.2812-0.14808-0.2812-0.14808z"/>
  <path d="m14.555 11.169 0.0411 0.19384s-0.162-0.18355-0.34304-0.15241-0.07268 0.18324 0.05784 0.16208 0.2441-0.20351 0.2441-0.20351z"/>
  <path d="m14.492 10.881-0.02413 0.25374s0.18014-0.25831 0.41608-0.24503 0.11972 0.22353-0.05017 0.21561c-0.1699-0.0079-0.34176-0.22432-0.34176-0.22432z"/>
  <path d="m14.775 11.366 2.6e-4 0.19815s0.12012-0.21332 0.30368-0.22065c0.18356-0.0073 0.10932 0.16403-0.02274 0.17058-0.13206 0.0066-0.2812-0.14808-0.2812-0.14808z"/>
 </g>
 <path d="m16.666 4.9826 0.0298-0.19589s-0.15108 0.19263-0.33363 0.17204c-0.18255-0.020597-0.08318-0.17871 0.04835-0.16516 0.13152 0.013556 0.25548 0.18902 0.25548 0.18902z" fill="#54b44f"/>
 <path d="m24.186 14.961 2.6e-4 0.19815s0.12012-0.21332 0.30368-0.22065c0.18356-0.0073 0.10932 0.16403-0.02274 0.17058-0.13206 0.0066-0.2812-0.14808-0.2812-0.14808z" fill="#6ab85f"/>
 <path d="m24.847 14.636 0.0411 0.19384s-0.162-0.18355-0.34304-0.15241c-0.18105 0.03114-0.07268 0.18323 0.05784 0.16208 0.13052-0.02116 0.2441-0.20351 0.2441-0.20351z" fill="#6ab85f"/>
 <g fill="#b2b2b2">
  <path d="m13.71 15.38 0.02834 0.13364s-0.11169-0.12655-0.23651-0.10508-0.05011 0.12633 0.03988 0.11174c0.08998-0.01459 0.16829-0.14031 0.16829-0.14031z"/>
  <path d="m13.677 14.816-0.02399 0.13449s0.10754-0.1301 0.23298-0.11268c0.12544 0.01747 0.05417 0.12464-0.03624 0.11298-0.09043-0.01158-0.17275-0.13478-0.17275-0.13478z"/>
  <path d="m14.122 14.593 0.02834 0.13364s-0.11169-0.12655-0.23651-0.10508-0.05011 0.12633 0.03988 0.11174c0.08998-0.01459 0.16829-0.14031 0.16829-0.14031z"/>
  <path d="m13.453 14.984-1.79e-4 0.13661s-0.08282-0.14707-0.20937-0.15213c-0.12655-5e-3 -0.07537 0.11309 0.01568 0.11761 0.09105 0.0046 0.19387-0.10209 0.19387-0.10209z"/>
  <path d="m12.566 15.236-0.02834-0.13364s0.11169 0.12655 0.23651 0.10508 0.05011-0.12633-0.03988-0.11174c-0.08998 0.01459-0.16829 0.14031-0.16829 0.14031z"/>
 </g>
 <path d="m2.824 3.5184s0.043564-0.13354-0.032976-0.26347 0.061145-0.2316 0.061646-0.39113c5.018e-4 -0.15953-0.04287-0.31876-0.04287-0.31876" fill="none" stroke="#257239" stroke-linecap="round" stroke-width=".13229"/>
 <g fill="#9b9d45">
  <circle cx="2.912" cy="3.0034" r=".068029"/>
  <circle cx="2.7867" cy="2.8177" r=".068029"/>
  <circle cx="2.9109" cy="2.7168" r=".068029"/>
  <circle cx="2.764" cy="2.5025" r=".068029"/>
 </g>
 <path d="m3.4633 4.0917s-0.043564-0.13354 0.032976-0.26347-0.061145-0.2316-0.061646-0.39113c-5.018e-4 -0.15953 0.04287-0.31876 0.04287-0.31876" fill="none" stroke="#257239" stroke-linecap="round" stroke-width=".13229"/>
 <g fill="#9b9d45">
  <circle cx="3.5025" cy="3.1846" r=".068029"/>
  <circle cx="3.3844" cy="3.396" r=".068029"/>
  <circle cx="3.5823" cy="3.691" r=".068029"/>
 </g>
 <g transform="matrix(-1 0 0 1 4.4715 1.8335)">
  <path d="m3.4633 4.0917s-0.043564-0.13354 0.032976-0.26347-0.061145-0.2316-0.061646-0.39113c-5.018e-4 -0.15953 0.04287-0.31876 0.04287-0.31876" fill="none" stroke="#257239" stroke-linecap="round" stroke-width=".13229"/>
  <g fill="#9b9d45">
   <circle cx="3.5025" cy="3.1846" r=".068029"/>
   <circle cx="3.3844" cy="3.396" r=".068029"/>
   <circle cx="3.5823" cy="3.691" r=".068029"/>
  </g>
 </g>
 <g transform="translate(9.0501 -1.8113)">
  <path d="m3.4633 4.0917s-0.043564-0.13354 0.032976-0.26347-0.061145-0.2316-0.061646-0.39113c-5.018e-4 -0.15953 0.04287-0.31876 0.04287-0.31876" fill="none" stroke="#257239" stroke-linecap="round" stroke-width=".13229"/>
  <g fill="#9b9d45">
   <circle cx="3.5025" cy="3.1846" r=".068029"/>
   <circle cx="3.3844" cy="3.396" r=".068029"/>
   <circle cx="3.5823" cy="3.691" r=".068029"/>
  </g>
 </g>
 <path d="m4.0723 3.8973s-0.03151-0.25131 0.025853-0.4008c0.05736-0.14949-0.028103-0.49073-0.028103-0.49073" fill="none" stroke="#257239" stroke-linecap="round" stroke-width=".13229"/>
 <g fill="#9b9d45">
  <circle cx="4.0325" cy="3.167" r=".068029"/>
  <circle cx="4.0985" cy="2.9264" r=".068029"/>
  <circle cx="4.1839" cy="3.1593" r=".068029"/>
  <circle cx="4.1063" cy="3.3417" r=".068029"/>
 </g>
 <g transform="translate(-4.3779 -.77714)">
  <path d="m4.6477 3.6579s-0.03151 0.17744 0.025853 0.28299c0.05736 0.10555-0.028103 0.34649-0.028103 0.34649" fill="none" stroke="#257239" stroke-linecap="round" stroke-width=".13229"/>
  <circle cx="4.5798" cy="3.6755" r=".068029" fill="#9b9d45"/>
  <circle cx="4.7117" cy="3.8967" r=".068029" fill="#9b9d45"/>
 </g>
 <path d="m2.2715 3.5217s-0.03151 0.12081 0.025853 0.19268c0.05736 0.071863-0.028103 0.23591-0.028103 0.23591" fill="none" stroke="#257239" stroke-linecap="round" stroke-width=".13229"/>
 <circle cx="2.1929" cy="3.4698" r=".068029" fill="#9b9d45"/>
 <circle cx="2.3559" cy="3.6987" r=".068029" fill="#9b9d45"/>
 <g transform="translate(.17336 .31703)">
  <path d="m2.6735 4.2145s0.03151 0.12081-0.025853 0.19268c-0.05736 0.071863 0.028103 0.23591 0.028103 0.23591" fill="none" stroke="#257239" stroke-linecap="round" stroke-width=".13229"/>
 </g>
 <g transform="translate(.94275 -.38537)">
  <path d="m5.7342 4.0799s-0.03151 0.12081 0.025853 0.19268c0.05736 0.071863-0.028103 0.23591-0.028103 0.23591" fill="none" stroke="#257239" stroke-linecap="round" stroke-width=".13229"/>
  <circle cx="5.8098" cy="4.0935" r=".068029" fill="#9b9d45"/>
  <circle cx="5.6819" cy="4.2961" r=".068029" fill="#9b9d45"/>
 </g>
 <g transform="translate(.40319 -3.797)">
  <path d="m5.7342 4.0799s-0.03151 0.12081 0.025853 0.19268c0.05736 0.071863-0.028103 0.23591-0.028103 0.23591" fill="none" stroke="#257239" stroke-linecap="round" stroke-width=".13229"/>
  <circle cx="5.8098" cy="4.0935" r=".068029" fill="#9b9d45"/>
  <circle cx="5.6819" cy="4.2961" r=".068029" fill="#9b9d45"/>
 </g>
 <g transform="translate(4.7227 -2.0943)">
  <path d="m5.7342 4.0799s-0.03151 0.12081 0.025853 0.19268c0.05736 0.071863-0.028103 0.23591-0.028103 0.23591" fill="none" stroke="#257239" stroke-linecap="round" stroke-width=".13229"/>
  <circle cx="5.8098" cy="4.0935" r=".068029" fill="#9b9d45"/>
  <circle cx="5.6819" cy="4.2961" r=".068029" fill="#9b9d45"/>
 </g>
 <g transform="translate(-5.5558 -2.8029)">
  <path d="m5.7342 4.0799s-0.03151 0.12081 0.025853 0.19268c0.05736 0.071863-0.028103 0.23591-0.028103 0.23591" fill="none" stroke="#257239" stroke-linecap="round" stroke-width=".13229"/>
  <circle cx="5.8098" cy="4.0935" r=".068029" fill="#9b9d45"/>
  <circle cx="5.6819" cy="4.2961" r=".068029" fill="#9b9d45"/>
 </g>
 <g transform="translate(-4.1669 -.010565)">
  <path d="m5.7342 4.0799s-0.03151 0.12081 0.025853 0.19268c0.05736 0.071863-0.028103 0.23591-0.028103 0.23591" fill="none" stroke="#257239" stroke-linecap="round" stroke-width=".13229"/>
  <circle cx="5.8098" cy="4.0935" r=".068029" fill="#9b9d45"/>
  <circle cx="5.6819" cy="4.2961" r=".068029" fill="#9b9d45"/>
 </g>
 <g transform="translate(.27218 .078695)">
  <path d="m5.2021 3.4099s0.03151 0.17744-0.025853 0.28299c-0.05736 0.10555 0.028103 0.34649 0.028103 0.34649" fill="none" stroke="#257239" stroke-linecap="round" stroke-width=".13229"/>
  <g fill="#9b9d45">
   <circle cx="5.1309" cy="3.6134" r=".068029"/>
   <circle cx="5.3072" cy="3.4995" r=".068029"/>
   <circle cx="5.1425" cy="3.3456" r=".068029"/>
  </g>
 </g>
 <g transform="matrix(-1 0 0 1 14.816 -.85554)">
  <path d="m2.824 3.5184s0.043564-0.13354-0.032976-0.26347 0.061145-0.2316 0.061646-0.39113c5.018e-4 -0.15953-0.04287-0.31876-0.04287-0.31876" fill="none" stroke="#257239" stroke-linecap="round" stroke-width=".13229"/>
  <g fill="#9b9d45">
   <circle cx="2.912" cy="3.0034" r=".068029"/>
   <circle cx="2.7867" cy="2.8177" r=".068029"/>
   <circle cx="2.9109" cy="2.7168" r=".068029"/>
   <circle cx="2.764" cy="2.5025" r=".068029"/>
  </g>
 </g>
 <g transform="matrix(-1 0 0 1 11.323 -3.1046)">
  <path d="m4.0723 3.8973s-0.03151-0.25131 0.025853-0.4008c0.05736-0.14949-0.028103-0.49073-0.028103-0.49073" fill="none" stroke="#257239" stroke-linecap="round" stroke-width=".13229"/>
  <g fill="#9b9d45">
   <circle cx="4.0325" cy="3.167" r=".068029"/>
   <circle cx="4.0985" cy="2.9264" r=".068029"/>
   <circle cx="4.1839" cy="3.1593" r=".068029"/>
   <circle cx="4.1063" cy="3.3417" r=".068029"/>
  </g>
 </g>
 <g transform="matrix(-1 0 0 1 14.513 1.5164)">
  <path d="m4.0723 3.8973s-0.03151-0.25131 0.025853-0.4008c0.05736-0.14949-0.028103-0.49073-0.028103-0.49073" fill="none" stroke="#257239" stroke-linecap="round" stroke-width=".13229"/>
  <g fill="#9b9d45">
   <circle cx="4.0325" cy="3.167" r=".068029"/>
   <circle cx="4.0985" cy="2.9264" r=".068029"/>
   <circle cx="4.1839" cy="3.1593" r=".068029"/>
   <circle cx="4.1063" cy="3.3417" r=".068029"/>
  </g>
 </g>
 <g transform="matrix(-1 0 0 1 11.108 -2.6658)">
  <path d="m4.6477 3.6579s-0.03151 0.17744 0.025853 0.28299c0.05736 0.10555-0.028103 0.34649-0.028103 0.34649" fill="none" stroke="#257239" stroke-linecap="round" stroke-width=".13229"/>
  <circle cx="4.5798" cy="3.6755" r=".068029" fill="#9b9d45"/>
  <circle cx="4.7117" cy="3.8967" r=".068029" fill="#9b9d45"/>
 </g>
 <g transform="matrix(-1 0 0 1 12.179 -1.0729)">
  <path d="m2.2715 3.5217s-0.03151 0.12081 0.025853 0.19268c0.05736 0.071863-0.028103 0.23591-0.028103 0.23591" fill="none" stroke="#257239" stroke-linecap="round" stroke-width=".13229"/>
  <circle cx="2.1929" cy="3.4698" r=".068029" fill="#9b9d45"/>
  <circle cx="2.3559" cy="3.6987" r=".068029" fill="#9b9d45"/>
 </g>
 <g transform="translate(11.388 -2.7076)">
  <path d="m2.824 3.5184s0.043564-0.13354-0.032976-0.26347 0.061145-0.2316 0.061646-0.39113c5.018e-4 -0.15953-0.04287-0.31876-0.04287-0.31876" fill="none" stroke="#257239" stroke-linecap="round" stroke-width=".13229"/>
  <g fill="#9b9d45">
   <circle cx="2.912" cy="3.0034" r=".068029"/>
   <circle cx="2.7867" cy="2.8177" r=".068029"/>
   <circle cx="2.9109" cy="2.7168" r=".068029"/>
   <circle cx="2.764" cy="2.5025" r=".068029"/>
  </g>
 </g>
 <g transform="translate(10.758 -.4363)">
  <path d="m2.2715 3.5217s-0.03151 0.12081 0.025853 0.19268c0.05736 0.071863-0.028103 0.23591-0.028103 0.23591" fill="none" stroke="#257239" stroke-linecap="round" stroke-width=".13229"/>
  <circle cx="2.1929" cy="3.4698" r=".068029" fill="#9b9d45"/>
  <circle cx="2.3559" cy="3.6987" r=".068029" fill="#9b9d45"/>
 </g>
 <g transform="matrix(-1 0 0 1 10.892 -2.3443)">
  <path d="m5.7342 4.0799s-0.03151 0.12081 0.025853 0.19268c0.05736 0.071863-0.028103 0.23591-0.028103 0.23591" fill="none" stroke="#257239" stroke-linecap="round" stroke-width=".13229"/>
  <circle cx="5.8098" cy="4.0935" r=".068029" fill="#9b9d45"/>
  <circle cx="5.6819" cy="4.2961" r=".068029" fill="#9b9d45"/>
 </g>
 <g transform="matrix(-1 0 0 1 10.892 -2.3443)">
  <path d="m5.2021 3.4099s0.03151 0.17744-0.025853 0.28299c-0.05736 0.10555 0.028103 0.34649 0.028103 0.34649" fill="none" stroke="#257239" stroke-linecap="round" stroke-width=".13229"/>
  <g fill="#9b9d45">
   <circle cx="5.1309" cy="3.6134" r=".068029"/>
   <circle cx="5.3072" cy="3.4995" r=".068029"/>
   <circle cx="5.1425" cy="3.3456" r=".068029"/>
  </g>
 </g>
 <g transform="translate(-1.9073 -2.8549)">
  <path d="m2.824 3.5184s0.043564-0.13354-0.032976-0.26347 0.061145-0.2316 0.061646-0.39113c5.018e-4 -0.15953-0.04287-0.31876-0.04287-0.31876" fill="none" stroke="#257239" stroke-linecap="round" stroke-width=".13229"/>
  <g fill="#9b9d45">
   <circle cx="2.912" cy="3.0034" r=".068029"/>
   <circle cx="2.7867" cy="2.8177" r=".068029"/>
   <circle cx="2.9109" cy="2.7168" r=".068029"/>
   <circle cx="2.764" cy="2.5025" r=".068029"/>
  </g>
 </g>
 <g transform="translate(-2.4211 -.13818)">
  <path d="m3.4633 4.0917s-0.043564-0.13354 0.032976-0.26347-0.061145-0.2316-0.061646-0.39113c-5.018e-4 -0.15953 0.04287-0.31876 0.04287-0.31876" fill="none" stroke="#257239" stroke-linecap="round" stroke-width=".13229"/>
  <g fill="#9b9d45">
   <circle cx="3.5025" cy="3.1846" r=".068029"/>
   <circle cx="3.3844" cy="3.396" r=".068029"/>
   <circle cx="3.5823" cy="3.691" r=".068029"/>
  </g>
 </g>
 <g transform="matrix(-1 0 0 1 5.5172 -2.6754)">
  <path d="m4.0723 3.8973s-0.03151-0.25131 0.025853-0.4008c0.05736-0.14949-0.028103-0.49073-0.028103-0.49073" fill="none" stroke="#257239" stroke-linecap="round" stroke-width=".13229"/>
  <g fill="#9b9d45">
   <circle cx="4.0325" cy="3.167" r=".068029"/>
   <circle cx="4.0985" cy="2.9264" r=".068029"/>
   <circle cx="4.1839" cy="3.1593" r=".068029"/>
   <circle cx="4.1063" cy="3.3417" r=".068029"/>
  </g>
 </g>
 <g transform="translate(-2.4217 -1.6325)">
  <path d="m4.6477 3.6579s-0.03151 0.17744 0.025853 0.28299c0.05736 0.10555-0.028103 0.34649-0.028103 0.34649" fill="none" stroke="#257239" stroke-linecap="round" stroke-width=".13229"/>
  <circle cx="4.5798" cy="3.6755" r=".068029" fill="#9b9d45"/>
  <circle cx="4.7117" cy="3.8967" r=".068029" fill="#9b9d45"/>
 </g>
 <g transform="translate(4.5203 -1.6854)">
  <path d="m4.6477 3.6579s-0.03151 0.17744 0.025853 0.28299c0.05736 0.10555-0.028103 0.34649-0.028103 0.34649" fill="none" stroke="#257239" stroke-linecap="round" stroke-width=".13229"/>
  <circle cx="4.5798" cy="3.6755" r=".068029" fill="#9b9d45"/>
  <circle cx="4.7117" cy="3.8967" r=".068029" fill="#9b9d45"/>
 </g>
 <g transform="matrix(-1 0 0 1 15.287 -.09583)">
  <path d="m5.7342 4.0799s-0.03151 0.12081 0.025853 0.19268c0.05736 0.071863-0.028103 0.23591-0.028103 0.23591" fill="none" stroke="#257239" stroke-linecap="round" stroke-width=".13229"/>
  <circle cx="5.8098" cy="4.0935" r=".068029" fill="#9b9d45"/>
  <circle cx="5.6819" cy="4.2961" r=".068029" fill="#9b9d45"/>
 </g>
 <g transform="translate(9.5958 1.0204)">
  <path d="m2.2715 3.5217s-0.03151 0.12081 0.025853 0.19268c0.05736 0.071863-0.028103 0.23591-0.028103 0.23591" fill="none" stroke="#257239" stroke-linecap="round" stroke-width=".13229"/>
  <circle cx="2.1929" cy="3.4698" r=".068029" fill="#9b9d45"/>
  <circle cx="2.3559" cy="3.6987" r=".068029" fill="#9b9d45"/>
 </g>
 <g transform="matrix(-1 0 0 1 17.043 .13864)">
  <path d="m4.6477 3.6579s-0.03151 0.17744 0.025853 0.28299c0.05736 0.10555-0.028103 0.34649-0.028103 0.34649" fill="none" stroke="#257239" stroke-linecap="round" stroke-width=".13229"/>
  <circle cx="4.5798" cy="3.6755" r=".068029" fill="#9b9d45"/>
  <circle cx="4.7117" cy="3.8967" r=".068029" fill="#9b9d45"/>
 </g>
 <g transform="translate(.92765 -3.9727)">
  <path d="m4.6477 3.6579s-0.03151 0.17744 0.025853 0.28299c0.05736 0.10555-0.028103 0.34649-0.028103 0.34649" fill="none" stroke="#257239" stroke-linecap="round" stroke-width=".13229"/>
  <circle cx="4.5798" cy="3.6755" r=".068029" fill="#9b9d45"/>
  <circle cx="4.7117" cy="3.8967" r=".068029" fill="#9b9d45"/>
 </g>
 <g transform="translate(3.708 -2.0142)">
  <path d="m4.6477 3.6579s-0.03151 0.17744 0.025853 0.28299c0.05736 0.10555-0.028103 0.34649-0.028103 0.34649" fill="none" stroke="#257239" stroke-linecap="round" stroke-width=".13229"/>
  <circle cx="4.5798" cy="3.6755" r=".068029" fill="#9b9d45"/>
  <circle cx="4.7117" cy="3.8967" r=".068029" fill="#9b9d45"/>
 </g>
 <g transform="translate(1.3448 .54772)">
  <path d="m4.6477 3.6579s-0.03151 0.17744 0.025853 0.28299c0.05736 0.10555-0.028103 0.34649-0.028103 0.34649" fill="none" stroke="#257239" stroke-linecap="round" stroke-width=".13229"/>
  <circle cx="4.5798" cy="3.6755" r=".068029" fill="#9b9d45"/>
  <circle cx="4.7117" cy="3.8967" r=".068029" fill="#9b9d45"/>
 </g>
 <g transform="matrix(-1 0 0 1 2.9297 .93446)">
  <path d="m2.2715 3.5217s-0.03151 0.12081 0.025853 0.19268c0.05736 0.071863-0.028103 0.23591-0.028103 0.23591" fill="none" stroke="#257239" stroke-linecap="round" stroke-width=".13229"/>
  <circle cx="2.1929" cy="3.4698" r=".068029" fill="#9b9d45"/>
  <circle cx="2.3559" cy="3.6987" r=".068029" fill="#9b9d45"/>
 </g>
 <g transform="translate(-.96437 -1.025)">
  <path d="m2.6735 4.2145s0.03151 0.12081-0.025853 0.19268c-0.05736 0.071863 0.028103 0.23591 0.028103 0.23591" fill="none" stroke="#257239" stroke-linecap="round" stroke-width=".13229"/>
  <circle cx="2.5965" cy="4.3702" r=".068029" fill="#9b9d45"/>
 </g>
 <g transform="translate(-2.0554 -1.6369)">
  <path d="m5.7342 4.0799s-0.03151 0.12081 0.025853 0.19268c0.05736 0.071863-0.028103 0.23591-0.028103 0.23591" fill="none" stroke="#257239" stroke-linecap="round" stroke-width=".13229"/>
  <circle cx="5.8098" cy="4.0935" r=".068029" fill="#9b9d45"/>
  <circle cx="5.6819" cy="4.2961" r=".068029" fill="#9b9d45"/>
 </g>
 <g transform="translate(-3.1347 -3.1917)">
  <path d="m5.2021 3.4099s0.03151 0.17744-0.025853 0.28299c-0.05736 0.10555 0.028103 0.34649 0.028103 0.34649" fill="none" stroke="#257239" stroke-linecap="round" stroke-width=".13229"/>
  <g fill="#9b9d45">
   <circle cx="5.1309" cy="3.6134" r=".068029"/>
   <circle cx="5.3072" cy="3.4995" r=".068029"/>
   <circle cx="5.1425" cy="3.3456" r=".068029"/>
  </g>
 </g>
 <g transform="translate(19.179 14.959)">
  <path d="m2.824 3.5184s0.043564-0.13354-0.032976-0.26347 0.061145-0.2316 0.061646-0.39113c5.018e-4 -0.15953-0.04287-0.31876-0.04287-0.31876" fill="none" stroke="#257239" stroke-linecap="round" stroke-width=".13229"/>
  <g fill="#9b9d45">
   <circle cx="2.912" cy="3.0034" r=".068029"/>
   <circle cx="2.7867" cy="2.8177" r=".068029"/>
   <circle cx="2.9109" cy="2.7168" r=".068029"/>
   <circle cx="2.764" cy="2.5025" r=".068029"/>
  </g>
 </g>
 <g transform="translate(19.179 14.959)">
  <path d="m2.2715 3.5217s-0.03151 0.12081 0.025853 0.19268c0.05736 0.071863-0.028103 0.23591-0.028103 0.23591" fill="none" stroke="#257239" stroke-linecap="round" stroke-width=".13229"/>
  <circle cx="2.1929" cy="3.4698" r=".068029" fill="#9b9d45"/>
  <circle cx="2.3559" cy="3.6987" r=".068029" fill="#9b9d45"/>
 </g>
 <g transform="translate(19.179 14.959)">
  <path d="m2.6735 4.2145s0.03151 0.12081-0.025853 0.19268c-0.05736 0.071863 0.028103 0.23591 0.028103 0.23591" fill="none" stroke="#257239" stroke-linecap="round" stroke-width=".13229"/>
  <circle cx="2.5965" cy="4.3702" r=".068029" fill="#9b9d45"/>
 </g>
 <g transform="translate(11.452 13.155)">
  <path d="m5.7342 4.0799s-0.03151 0.12081 0.025853 0.19268c0.05736 0.071863-0.028103 0.23591-0.028103 0.23591" fill="none" stroke="#257239" stroke-linecap="round" stroke-width=".13229"/>
  <circle cx="5.8098" cy="4.0935" r=".068029" fill="#9b9d45"/>
  <circle cx="5.6819" cy="4.2961" r=".068029" fill="#9b9d45"/>
 </g>
 <g transform="translate(15.012 14.948)">
  <path d="m5.7342 4.0799s-0.03151 0.12081 0.025853 0.19268c0.05736 0.071863-0.028103 0.23591-0.028103 0.23591" fill="none" stroke="#257239" stroke-linecap="round" stroke-width=".13229"/>
  <circle cx="5.8098" cy="4.0935" r=".068029" fill="#9b9d45"/>
  <circle cx="5.6819" cy="4.2961" r=".068029" fill="#9b9d45"/>
 </g>
 <g transform="translate(16.817 12.389)">
  <path d="m2.824 3.5184s0.043564-0.13354-0.032976-0.26347 0.061145-0.2316 0.061646-0.39113c5.018e-4 -0.15953-0.04287-0.31876-0.04287-0.31876" fill="none" stroke="#257239" stroke-linecap="round" stroke-width=".13229"/>
  <g fill="#9b9d45">
   <circle cx="2.912" cy="3.0034" r=".068029"/>
   <circle cx="2.7867" cy="2.8177" r=".068029"/>
   <circle cx="2.9109" cy="2.7168" r=".068029"/>
   <circle cx="2.764" cy="2.5025" r=".068029"/>
  </g>
 </g>
 <g transform="matrix(-1 0 0 1 20.238 17.835)">
  <path d="m2.824 3.5184s0.043564-0.13354-0.032976-0.26347 0.061145-0.2316 0.061646-0.39113c5.018e-4 -0.15953-0.04287-0.31876-0.04287-0.31876" fill="none" stroke="#257239" stroke-linecap="round" stroke-width=".13229"/>
  <g fill="#9b9d45">
   <circle cx="2.912" cy="3.0034" r=".068029"/>
   <circle cx="2.7867" cy="2.8177" r=".068029"/>
   <circle cx="2.9109" cy="2.7168" r=".068029"/>
   <circle cx="2.764" cy="2.5025" r=".068029"/>
  </g>
 </g>
 <g transform="matrix(-1 0 0 1 21.426 18.429)">
  <path d="m2.2715 3.5217s-0.03151 0.12081 0.025853 0.19268c0.05736 0.071863-0.028103 0.23591-0.028103 0.23591" fill="none" stroke="#257239" stroke-linecap="round" stroke-width=".13229"/>
  <circle cx="2.1929" cy="3.4698" r=".068029" fill="#9b9d45"/>
  <circle cx="2.3559" cy="3.6987" r=".068029" fill="#9b9d45"/>
 </g>
 <g transform="translate(14.116 18.528)">
  <path d="m2.6735 4.2145s0.03151 0.12081-0.025853 0.19268c-0.05736 0.071863 0.028103 0.23591 0.028103 0.23591" fill="none" stroke="#257239" stroke-linecap="round" stroke-width=".13229"/>
  <circle cx="2.5965" cy="4.3702" r=".068029" fill="#9b9d45"/>
 </g>
 <g transform="matrix(-1 0 0 1 24.496 16.012)">
  <path d="m5.7342 4.0799s-0.03151 0.12081 0.025853 0.19268c0.05736 0.071863-0.028103 0.23591-0.028103 0.23591" fill="none" stroke="#257239" stroke-linecap="round" stroke-width=".13229"/>
  <circle cx="5.8098" cy="4.0935" r=".068029" fill="#9b9d45"/>
  <circle cx="5.6819" cy="4.2961" r=".068029" fill="#9b9d45"/>
 </g>
 <g transform="matrix(-1 0 0 1 23.594 18.899)">
  <path d="m5.7342 4.0799s-0.03151 0.12081 0.025853 0.19268c0.05736 0.071863-0.028103 0.23591-0.028103 0.23591" fill="none" stroke="#257239" stroke-linecap="round" stroke-width=".13229"/>
  <circle cx="5.8098" cy="4.0935" r=".068029" fill="#9b9d45"/>
  <circle cx="5.6819" cy="4.2961" r=".068029" fill="#9b9d45"/>
 </g>
 <g transform="matrix(-1 0 0 1 20.527 13.92)">
  <path d="m2.824 3.5184s0.043564-0.13354-0.032976-0.26347 0.061145-0.2316 0.061646-0.39113c5.018e-4 -0.15953-0.04287-0.31876-0.04287-0.31876" fill="none" stroke="#257239" stroke-linecap="round" stroke-width=".13229"/>
  <g fill="#9b9d45">
   <circle cx="2.912" cy="3.0034" r=".068029"/>
   <circle cx="2.7867" cy="2.8177" r=".068029"/>
   <circle cx="2.9109" cy="2.7168" r=".068029"/>
   <circle cx="2.764" cy="2.5025" r=".068029"/>
  </g>
 </g>
 <g transform="matrix(-1 0 0 1 23.739 17.424)">
  <path d="m3.4633 4.0917s-0.043564-0.13354 0.032976-0.26347-0.061145-0.2316-0.061646-0.39113c-5.018e-4 -0.15953 0.04287-0.31876 0.04287-0.31876" fill="none" stroke="#257239" stroke-linecap="round" stroke-width=".13229"/>
  <g fill="#9b9d45">
   <circle cx="3.5025" cy="3.1846" r=".068029"/>
   <circle cx="3.3844" cy="3.396" r=".068029"/>
   <circle cx="3.5823" cy="3.691" r=".068029"/>
  </g>
 </g>
 <g transform="translate(11.603 15.349)">
  <path d="m4.0723 3.8973s-0.03151-0.25131 0.025853-0.4008c0.05736-0.14949-0.028103-0.49073-0.028103-0.49073" fill="none" stroke="#257239" stroke-linecap="round" stroke-width=".13229"/>
  <g fill="#9b9d45">
   <circle cx="4.0325" cy="3.167" r=".068029"/>
   <circle cx="4.0985" cy="2.9264" r=".068029"/>
   <circle cx="4.1839" cy="3.1593" r=".068029"/>
   <circle cx="4.1063" cy="3.3417" r=".068029"/>
  </g>
 </g>
 <g transform="matrix(-1 0 0 1 22.634 16.37)">
  <path d="m4.6477 3.6579s-0.03151 0.17744 0.025853 0.28299c0.05736 0.10555-0.028103 0.34649-0.028103 0.34649" fill="none" stroke="#257239" stroke-linecap="round" stroke-width=".13229"/>
  <circle cx="4.5798" cy="3.6755" r=".068029" fill="#9b9d45"/>
  <circle cx="4.7117" cy="3.8967" r=".068029" fill="#9b9d45"/>
 </g>
 <g transform="translate(11.999 16.553)">
  <path d="m2.2715 3.5217s-0.03151 0.12081 0.025853 0.19268c0.05736 0.071863-0.028103 0.23591-0.028103 0.23591" fill="none" stroke="#257239" stroke-linecap="round" stroke-width=".13229"/>
  <circle cx="2.1929" cy="3.4698" r=".068029" fill="#9b9d45"/>
  <circle cx="2.3559" cy="3.6987" r=".068029" fill="#9b9d45"/>
 </g>
 <g transform="matrix(-1 0 0 1 19.904 17.79)">
  <path d="m2.6735 4.2145s0.03151 0.12081-0.025853 0.19268c-0.05736 0.071863 0.028103 0.23591 0.028103 0.23591" fill="none" stroke="#257239" stroke-linecap="round" stroke-width=".13229"/>
  <circle cx="2.5965" cy="4.3702" r=".068029" fill="#9b9d45"/>
 </g>
 <g transform="matrix(-1 0 0 1 21.967 14.982)">
  <path d="m5.2021 3.4099s0.03151 0.17744-0.025853 0.28299c-0.05736 0.10555 0.028103 0.34649 0.028103 0.34649" fill="none" stroke="#257239" stroke-linecap="round" stroke-width=".13229"/>
  <g fill="#9b9d45">
   <circle cx="5.1309" cy="3.6134" r=".068029"/>
   <circle cx="5.3072" cy="3.4995" r=".068029"/>
   <circle cx="5.1425" cy="3.3456" r=".068029"/>
  </g>
 </g>
 <g transform="translate(16.758 14.821)">
  <path d="m3.4633 4.0917s-0.043564-0.13354 0.032976-0.26347-0.061145-0.2316-0.061646-0.39113c-5.018e-4 -0.15953 0.04287-0.31876 0.04287-0.31876" fill="none" stroke="#257239" stroke-linecap="round" stroke-width=".13229"/>
  <g fill="#9b9d45">
   <circle cx="3.5025" cy="3.1846" r=".068029"/>
   <circle cx="3.3844" cy="3.396" r=".068029"/>
   <circle cx="3.5823" cy="3.691" r=".068029"/>
  </g>
 </g>
 <g transform="matrix(-1 0 0 1 24.552 12.48)">
  <path d="m4.0723 3.8973s-0.03151-0.25131 0.025853-0.4008c0.05736-0.14949-0.028103-0.49073-0.028103-0.49073" fill="none" stroke="#257239" stroke-linecap="round" stroke-width=".13229"/>
  <g fill="#9b9d45">
   <circle cx="4.0325" cy="3.167" r=".068029"/>
   <circle cx="4.0985" cy="2.9264" r=".068029"/>
   <circle cx="4.1839" cy="3.1593" r=".068029"/>
   <circle cx="4.1063" cy="3.3417" r=".068029"/>
  </g>
 </g>
 <g transform="translate(16.757 13.327)">
  <path d="m4.6477 3.6579s-0.03151 0.17744 0.025853 0.28299c0.05736 0.10555-0.028103 0.34649-0.028103 0.34649" fill="none" stroke="#257239" stroke-linecap="round" stroke-width=".13229"/>
  <circle cx="4.5798" cy="3.6755" r=".068029" fill="#9b9d45"/>
  <circle cx="4.7117" cy="3.8967" r=".068029" fill="#9b9d45"/>
 </g>
 <g transform="matrix(-1 0 0 1 22.109 15.893)">
  <path d="m2.2715 3.5217s-0.03151 0.12081 0.025853 0.19268c0.05736 0.071863-0.028103 0.23591-0.028103 0.23591" fill="none" stroke="#257239" stroke-linecap="round" stroke-width=".13229"/>
  <circle cx="2.1929" cy="3.4698" r=".068029" fill="#9b9d45"/>
  <circle cx="2.3559" cy="3.6987" r=".068029" fill="#9b9d45"/>
 </g>
 <g transform="translate(15.586 9.6253)">
  <path d="m5.7342 4.0799s-0.03151 0.12081 0.025853 0.19268c0.05736 0.071863-0.028103 0.23591-0.028103 0.23591" fill="none" stroke="#257239" stroke-linecap="round" stroke-width=".13229"/>
  <circle cx="5.8098" cy="4.0935" r=".068029" fill="#9b9d45"/>
  <circle cx="5.6819" cy="4.2961" r=".068029" fill="#9b9d45"/>
 </g>
 <g transform="matrix(-1 0 0 1 22.682 10.57)">
  <path d="m2.2715 3.5217s-0.03151 0.12081 0.025853 0.19268c0.05736 0.071863-0.028103 0.23591-0.028103 0.23591" fill="none" stroke="#257239" stroke-linecap="round" stroke-width=".13229"/>
  <circle cx="2.1929" cy="3.4698" r=".068029" fill="#9b9d45"/>
  <circle cx="2.3559" cy="3.6987" r=".068029" fill="#9b9d45"/>
 </g>
 <g transform="translate(18.215 13.934)">
  <path d="m2.6735 4.2145s0.03151 0.12081-0.025853 0.19268c-0.05736 0.071863 0.028103 0.23591 0.028103 0.23591" fill="none" stroke="#257239" stroke-linecap="round" stroke-width=".13229"/>
  <circle cx="2.5965" cy="4.3702" r=".068029" fill="#9b9d45"/>
 </g>
 <g transform="translate(16.044 11.767)">
  <path d="m5.2021 3.4099s0.03151 0.17744-0.025853 0.28299c-0.05736 0.10555 0.028103 0.34649 0.028103 0.34649" fill="none" stroke="#257239" stroke-linecap="round" stroke-width=".13229"/>
  <g fill="#9b9d45">
   <circle cx="5.1309" cy="3.6134" r=".068029"/>
   <circle cx="5.3072" cy="3.4995" r=".068029"/>
   <circle cx="5.1425" cy="3.3456" r=".068029"/>
  </g>
 </g>
 <g transform="matrix(.83193 0 0 .83158 -10.15 3.8061)" stroke-width="1.2023">
  <path d="m13.991 2.206h0.78317l0.3578-0.36118 0.40158 0.35113h0.71638s0.55332-0.11666 0.93067-0.35393c0.37735-0.23726 0.67387-1.2243 0.67387-1.2243l-4.095 1.2876z" fill="#624f28"/>
  <g fill="none" stroke="#624f28">
   <path d="m15.704 1.5188-1.1208-0.76934" stroke-width=".15905"/>
   <path d="m16.403 1.2165 0.31651-0.43817" stroke-width=".15905"/>
   <g stroke-width=".079526">
    <path d="m13.935 1.9886-0.10481-0.18716 1.9655-0.6365 0.07723 0.22657"/>
    <path d="m14.019 1.7543 0.05314 0.11952"/>
    <path d="m14.231 1.6854 0.05314 0.11952"/>
    <path d="m14.453 1.6166 0.05314 0.11952"/>
    <path d="m14.701 1.5267 0.05314 0.11952"/>
    <path d="m15.188 1.3839 0.05314 0.11952"/>
    <path d="m15.595 1.2147 0.05314 0.11952"/>
    <path d="m13.563 2.212 0.13058 0.00764"/>
    <path d="m15.464 2.553 0.25783 0.00764"/>
    <path d="m15.612 2.4735 0.23637 0.10328"/>
   </g>
  </g>
  <path d="m16.812 1.3706 0.29471-0.09559 0.01746 0.059522-0.12984 0.045665-0.0043 0.081496 0.03749 0.032871-0.13739 0.093177-0.16583-0.022376 0.15752-0.053003-0.02319-0.046674-0.1002 0.034577z" fill="#3f3319"/>
 </g>
 <g transform="translate(-.90672 1.6281)">
  <path d="m4.6477 3.6579s-0.03151 0.17744 0.025853 0.28299c0.05736 0.10555-0.028103 0.34649-0.028103 0.34649" fill="none" stroke="#257239" stroke-linecap="round" stroke-width=".13229"/>
  <circle cx="4.5798" cy="3.6755" r=".068029" fill="#9b9d45"/>
  <circle cx="4.7117" cy="3.8967" r=".068029" fill="#9b9d45"/>
 </g>
 <g transform="matrix(-1 0 0 1 13.475 -2.9826)">
  <path d="m2.6735 4.2145s0.03151 0.12081-0.025853 0.19268c-0.05736 0.071863 0.028103 0.23591 0.028103 0.23591" fill="none" stroke="#257239" stroke-linecap="round" stroke-width=".13229"/>
  <circle cx="2.5965" cy="4.3702" r=".068029" fill="#9b9d45"/>
 </g>
 <g transform="matrix(-1 0 0 1 11.358 -4.1861)">
  <path d="m2.6735 4.2145s0.03151 0.12081-0.025853 0.19268c-0.05736 0.071863 0.028103 0.23591 0.028103 0.23591" fill="none" stroke="#257239" stroke-linecap="round" stroke-width=".13229"/>
  <circle cx="2.5965" cy="4.3702" r=".068029" fill="#9b9d45"/>
 </g>
 <g transform="matrix(-1 0 0 1 14.923 -2.555)">
  <path d="m3.4633 4.0917s-0.043564-0.13354 0.032976-0.26347-0.061145-0.2316-0.061646-0.39113c-5.018e-4 -0.15953 0.04287-0.31876 0.04287-0.31876" fill="none" stroke="#257239" stroke-linecap="round" stroke-width=".13229"/>
  <g fill="#9b9d45">
   <circle cx="3.5025" cy="3.1846" r=".068029"/>
   <circle cx="3.3844" cy="3.396" r=".068029"/>
   <circle cx="3.5823" cy="3.691" r=".068029"/>
  </g>
 </g>
 <path d="m24.544 15.686 0.1681-0.7207 0.78949 0.02842 0.13096 0.6693z" fill="#cfcd5a"/>
 <path d="m22.669 12.924-0.1033-0.73281-0.78889-0.04195-0.19 0.65499z" fill="#cfcd5a"/>
 <g fill="#4d4c22">
  <ellipse cx="25.301" cy="15.146" rx=".11816" ry=".11728"/>
  <ellipse cx="22.937" cy="13.146" rx=".11816" ry=".11728"/>
  <ellipse cx="24.901" cy="15.492" rx=".15417" ry=".15301"/>
  <ellipse cx="21.982" cy="12.505" rx=".19542" ry=".19396"/>
 </g>
 <path d="m3.1299 18.142 0.053484-0.71664 0.15167-0.05185 0.18131 0.7627" fill="#493b2c"/>
 <path d="m3.3101 17.103s-0.034522-0.08638-0.039154-0.14453c-0.00463-0.05814 0.055362-0.1339 0.055362-0.1339s-0.029196 0.09423-0.011366 0.15806c0.017834 0.06383-0.00484 0.12037-0.00484 0.12037z" fill="#fff" fill-opacity=".29681"/>
 <path d="m7.5572 20.885s0.05024-0.06534 0.00974-0.26394c-0.040503-0.19859 0.055947-0.46039 0.055947-0.46039s-0.018111 0.28234 0.032445 0.38721c0.051001 0.10579 0.056978 0.29669 0.056978 0.29669l-0.046715 0.22824z" fill="#fff" fill-opacity=".29681"/>
 <path d="m7.4505 21.596 0.10664-0.71068 0.15511-0.04043 0.12408 0.77407" fill="#493b2c"/>
 <path d="m10.23 15.641s-0.06954-0.14823-0.04105-0.3489-0.04541-0.4907-0.04541-0.4907 0.0073 0.42575-0.03249 0.53516c-0.04298 0.11823-0.03829 0.27341-0.03829 0.27341l0.06035 0.22502z" fill="#fff" fill-opacity=".29681"/>
 <path d="m10.379 16.344-0.14917-0.70298-0.15726-0.03103-0.07732 0.78013" fill="#493b2c"/>
 <path d="m4.5489 20.956s-0.06954-0.09504-0.04105-0.2237-0.04541-0.31461-0.04541-0.31461 0.0073 0.27297-0.03249 0.34312c-0.04298 0.0758-0.03829 0.1753-0.03829 0.1753l0.06035 0.14427z" fill="#fff" fill-opacity=".29681" stroke-width=".80072"/>
 <path d="m4.6979 21.407-0.14917-0.45072-0.15726-0.01989-0.07732 0.50018" fill="#493b2c" stroke-width=".80072"/>
 <path d="m4.4721 21.581-0.16605-0.42649-0.086095-0.0031 0.057315 0.49859" fill="#493b2c" stroke-width=".58459"/>
 <path d="m2.3782 17.572s-0.018338-0.03017-0.016092-0.13114c0.00225-0.10098-0.13378-0.21448-0.13378-0.21448s0.095122 0.04619 0.097786 0.12856c0.00483 0.14932-0.05683 0.19186-0.05683 0.19186l0.055624 0.11279z" fill="#798eb4"/>
 <path d="m11.92 16.628s-0.02403-0.03519-0.02178-0.13616c0.0023-0.10098-0.11649-0.16461-0.11649-0.16461s0.03123 0.09009 0.03369 0.19511c0.0016 0.06737-0.03685 0.11216-0.03685 0.11216l0.05562 0.11279z" fill="#fff" fill-opacity=".3"/>
 <path d="m2.1931 17.975 0.076167-0.42821 0.10892 0.0252 0.023948 0.49853z" fill="#493b2c"/>
 <path d="m3.5417 18.094 0.034435-0.43357 0.11084 0.01456 0.072006 0.49388z" fill="#493b2c"/>
 <path d="m3.6256 17.507s-0.014766-0.02976-0.018092-0.06081c-0.00333-0.03105 0.026528-0.12278 0.026528-0.12278s0.015949 0.07954 0.012502 0.11953c-0.00344 0.04 0.014431 0.08004 6.915e-4 0.08107-0.015115 0.0011-0.021631-0.01702-0.021631-0.01702z" fill="#798eb4"/>
 <path d="m9.5136 15.54-0.01143-0.18851-0.12824-0.0065-0.066823 0.31957z" fill="#493b2c"/>
 <path d="m10.347 16.438 0.0648-0.28349 0.12789 0.01379-0.02512 0.49647z" fill="#493b2c"/>
 <path d="m6.9612 16.217s-0.00926-0.16086-0.051403-0.24828c-0.04214-0.08742-0.12259-0.17554-0.12259-0.17554s0.070616 0.10326 0.064315 0.29353c-0.0063 0.19028-0.00151 0.30257-0.00151 0.30257l0.097316 0.10823 0.10542-0.08122-0.00251-0.73426s-0.049443-0.12118-0.053313-0.3114 0.011663-0.23366-0.00698-0.34776c-0.01864-0.1141-0.050203-0.22714-0.050203-0.22714s0.048819 0.26677 0.020995 0.37c-0.027826 0.10323-0.052055 0.19179-0.028919 0.32791 0.023138 0.13612 0.010583 0.22669 0.010583 0.22669l0.073203 0.29899z" fill="#798eb4"/>
 <path d="m6.98 16.714-0.037596-0.99333 0.10784-0.0383 0.18413 0.89789z" fill="#493b2c"/>
 <path d="m7.0098 16.362-0.15974 0.02717-0.00705 0.55691 0.27278-0.09332z" fill="#493b2c"/>
 <path d="m15.008 23.794s-0.02062-0.16067 0.02991-0.25292c0.05061-0.09226 0.16493-0.19033 0.16493-0.19033s-0.09453 0.11176-0.04129 0.29949 0.07046 0.29966 0.07046 0.29966l-0.13792 0.12026-0.19398-0.06641-0.16076-0.72802s0.05521-0.1267 0.01892-0.31573c-0.03623-0.18904-0.07193-0.23001-0.06644-0.34558 0.0054-0.11557 0.03267-0.23181 0.03267-0.23181s-0.02146 0.2709 0.04811 0.3695c0.06959 0.09859 0.12986 0.18312 0.12187 0.32111-0.0081 0.13799 0.03329 0.22608 0.03329 0.22608l-0.05487 0.30608z" fill="#798eb4"/>
 <path d="m15.088 24.289-0.16044-0.98945-0.18837-0.02356-0.10526 0.91444z" fill="#493b2c"/>
 <path d="m14.96 23.944 0.27239 0.0056 0.13677 0.55098-0.4757-0.05606z" fill="#493b2c"/>
 <path d="m0.56895 12.26s0.070202-0.18535 0.11479-0.06702c0.044592 0.11833 0.10922 0.22292 0.10922 0.22292l-0.13792 0.12026-0.19398-0.06641-0.16076-0.72802s0.05521-0.1267 0.01892-0.31573c-0.03623-0.18904 0.007412-0.23001 0.012902-0.34558 0.0054-0.11557 0.03267-0.23181 0.03267-0.23181s-0.010412 0.23848 0.026121 0.3695 0.065057 0.20678 0.057067 0.34478c-0.0081 0.13799 0.040741 0.20242 0.040741 0.20242l-0.05487 0.30608z" fill="#fff" fill-opacity=".3"/>
 <path d="m0.64895 12.755-0.16044-0.98945-0.18837-0.02356-0.10526 0.91444z" fill="#493b2c"/>
 <path d="m0.52095 12.41 0.27239 0.0056 0.13677 0.55098-0.4757-0.05606z" fill="#493b2c"/>
 <path d="m6.846 15.7s-0.03594-0.07321-0.049058-0.1418 0.045982-0.16123 0.045982-0.16123-0.016531 0.07379-0.00488 0.15051c0.011647 0.07673 0.00796 0.15251 0.00796 0.15251z" fill="#798eb4"/>
 <g fill="#493b2c">
  <path d="m9.1996 15.517 0.00132-0.13297-0.13989-0.02182-0.045378 0.16348z"/>
  <path d="m11.451 16.756 0.03186-0.18615 0.12818 0.0075 0.03167 0.32494z"/>
  <path d="m12.004 16.712 0.03186-0.18615 0.12818 0.0075 0.03167 0.32494z"/>
  <path d="m5.8643 21.063 0.04036-0.11948 0.16238 0.0048 0.04012 0.20856z" stroke-width=".90172"/>
  <path d="m2.37 13.589 0.060718-0.18615 0.24428 0.0075 0.060356 0.32494z" stroke-width="1.3805"/>
  <path d="m2.5826 13.644 0.060718-0.18615 0.24428 0.0075 0.060356 0.32494z" stroke-width="1.3805"/>
  <path d="m1.4464 13.145 0.03236-0.18615 0.13019 0.0075 0.032167 0.32494z" stroke-width="1.0078"/>
  <path d="m11.765 16.767 0.01317-0.13232 0.14144-0.0065 0.02733 0.16744z"/>
  <path d="m2.449 17.909 0.034483-0.18568 0.12806 0.0093 0.027092 0.32535z"/>
  <path d="m14.07 23.896 0.03448-0.18568 0.12806 0.0093 0.02709 0.32535z"/>
  <path d="m16.264 24.3-0.07634-0.18568-0.28354 0.0093-0.05998 0.32535z"/>
  <path d="m3.0165 17.96 0.015011-0.13212 0.14151-0.0045 0.024969 0.16781z"/>
 </g>
 <g fill="#fff" fill-opacity=".3">
  <ellipse cx="11.567" cy="16.453" rx=".061374" ry=".061856"/>
  <ellipse cx=".72259" cy="12.025" rx=".061374" ry=".061856"/>
  <ellipse cx="1.5533" cy="12.839" rx=".061374" ry=".061856"/>
  <ellipse cx="11.491" cy="16.222" rx=".032378" ry=".03011"/>
  <ellipse cx="5.975" cy="20.841" rx=".061374" ry=".061856"/>
  <ellipse cx="6.0234" cy="20.695" rx=".032378" ry=".03011"/>
  <ellipse cx="4.254" cy="21.072" rx=".032378" ry=".03011"/>
  <ellipse cx="4.2765" cy="20.933" rx=".027214" ry=".025308" stroke-width=".84052"/>
  <ellipse cx="4.2065" cy="20.84" rx=".021754" ry=".02023" stroke-width=".67187"/>
  <ellipse cx=".5651" cy="11.422" rx=".032378" ry=".03011"/>
  <ellipse cx="2.4272" cy="13.285" rx=".032378" ry=".03011"/>
  <ellipse cx="1.5416" cy="12.566" rx=".032378" ry=".03011"/>
  <ellipse cx="2.6217" cy="13.118" rx=".032378" ry=".03011"/>
  <path d="m3.1498 24.224s0.02403-0.03519 0.02178-0.13616c-0.0023-0.10098 0.11649-0.16461 0.11649-0.16461s-0.03123 0.09009-0.03369 0.19511c-0.0016 0.06737 0.03685 0.11216 0.03685 0.11216l-0.05562 0.11279z"/>
 </g>
 <g fill="#493b2c">
  <path d="m3.6797 24.357-0.03186-0.18615-0.12818 0.0075-0.03167 0.32494z"/>
  <path d="m2.925 24.17 0.064415-0.17753 0.12481 0.03015-0.026544 0.3254z"/>
  <path d="m3.3044 24.363-0.01317-0.13232-0.14144-0.0065-0.02733 0.16744z"/>
 </g>
 <g fill="#fff" fill-opacity=".3">
  <ellipse transform="scale(-1,1)" cx="-3.5635" cy="24.054" rx=".061374" ry=".061856"/>
  <ellipse transform="scale(-1,1)" cx="-3.6392" cy="23.823" rx=".032378" ry=".03011"/>
  <ellipse cx="10.249" cy="15.414" rx=".032378" ry=".03011"/>
  <ellipse cx="10.072" cy="14.6" rx=".032378" ry=".03011"/>
 </g>
 <path d="m12.592 15.691 0.2178-0.33966 0.41096-0.12345 0.06771-0.18472 0.42251-0.04315 0.04993 0.16148 0.47348 0.16015-0.03848 0.14821-0.57574-0.13943-0.641 0.14182-0.07881 0.21253" fill="#ce5acd"/>
 <g fill="#b2b2b2">
  <path d="m12.734 15.254-0.02255 0.13474s0.10613-0.13124 0.23176-0.11518c0.12562 0.01612 0.05551 0.12405-0.03503 0.11336-0.09055-0.01061-0.17418-0.13292-0.17418-0.13292z"/>
  <path d="m18.83 3.9178-0.02834-0.13364s0.11169 0.12655 0.23651 0.10508 0.05011-0.12633-0.03988-0.11174c-0.08998 0.01459-0.16829 0.14031-0.16829 0.14031z"/>
  <path d="m19.136 5.2289 0.02399-0.13449s-0.10754 0.1301-0.23298 0.11268c-0.12544-0.01747-0.05417-0.12464 0.03624-0.11298 0.09043 0.01158 0.17275 0.13478 0.17275 0.13478z"/>
  <path d="m19.088 4.3143 1.79e-4 -0.13661s0.08282 0.14707 0.20937 0.15213c0.12655 5e-3 0.07537-0.11309-0.01568-0.11761-0.09105-0.0046-0.19387 0.10209-0.19387 0.10209z"/>
  <path d="m19.975 4.0623 0.02834 0.13364s-0.11169-0.12655-0.23651-0.10508-0.05011 0.12633 0.03988 0.11174c0.08998-0.01459 0.16829-0.14031 0.16829-0.14031z"/>
  <path d="m19.807 4.0438 0.02255-0.13474s-0.10613 0.13124-0.23176 0.11518c-0.12562-0.01612-0.05551-0.12405 0.03503-0.11336 0.09055 0.01061 0.17418 0.13292 0.17418 0.13292z"/>
 </g>
 <path d="m13.889 15.226 0.20304-0.29316 0.31648-0.0131" fill="none" stroke="#ce5acd" stroke-width=".13229"/>
 <path d="m8.3792 8.3934-0.030489 0.082683c-0.030281-0.00971-0.064914-0.014886-0.10025-0.014986-0.054381 1.581e-4 -0.10621 0.01232-0.14314 0.03359-0.036401 0.014964-0.09876 0.038509-0.15451 0.048576-0.084957 0.015341-0.10749-0.00827-0.10749-0.00827l-0.039274 0.097669s0.088827-0.023567 0.20412 0.00103c0.032698 0.00698 0.059846 0.012263 0.082683 0.016536l-0.017053 0.056844-0.01912 0.03359 0.014986 0.00568 0.03669-0.082166 0.00879 0.080616 0.011886-0.00103-0.00723-0.088367c0.037764 0.00658 0.056328 0.00878 0.056328 0.00878l-0.035657 0.058395 0.0031 0.044959 0.012919-0.0062-0.00207-0.03514 0.037724-0.059945c0.00392 7.57e-4 0.00788 0.00145 0.011886 0.00207l0.00207 0.050126-0.01757 0.049093 0.016536 0.00465 0.024288-0.044442-0.00723-0.057878c0.00873 6.581e-4 0.017537 1e-3 0.026355 0.00103 0.00744-1.188e-4 0.014857-4.627e-4 0.022221-0.00103l0.011886 0.065113-0.00413 0.03669h0.014986l0.011369-0.041858-0.00827-0.045475 0.034623 0.078549 0.013436-0.00413-0.034623-0.093535c0.018548-0.00308 0.036137-0.00761 0.052193-0.013436l0.062529 0.069247 0.092501-0.00413-0.055294-0.031523 0.03669-0.01757-0.072881-0.014988-0.026872-0.019637c0.029836-0.018785 0.046302-0.04257 0.046509-0.06718l0.087958 0.00362-0.026355-0.023255 0.024805-0.020154-0.096744 0.00723c-0.00926-0.01552-0.025184-0.029676-0.046509-0.041341l0.051677-0.055811-0.012919-0.010335-0.053744 0.059428c-4e-3 -0.00181-0.00814-0.00354-0.012402-0.00517l0.035657-0.083199z" fill="#d03535"/>
 <circle cx="8.3903" cy="8.3869" r=".019914"/>
 <circle cx="8.4441" cy="8.4308" r=".019914"/>
 <path d="m5.5719 8.6033 0.5155-0.48341 1.1198 0.28883 0.2384 0.18165 0.54887-0.014846 0.092236 0.33791" fill="none" stroke="#ce5acd" stroke-width=".26458"/>
 <path d="m5.9571 8.574 0.39055-0.36729 0.9932 0.24114 0.078984 0.61282" fill="none" stroke="#ce5acd" stroke-width=".26458px"/>
 <g transform="matrix(-.95096 -.30932 -.30932 .95096 17.689 2.4934)">
  <path d="m8.3792 8.3934-0.030489 0.082683c-0.030281-0.00971-0.064914-0.014886-0.10025-0.014986-0.054381 1.581e-4 -0.10621 0.01232-0.14314 0.03359-0.036401 0.014964-0.09876 0.038509-0.15451 0.048576-0.084957 0.015341-0.10749-0.00827-0.10749-0.00827l-0.039274 0.097669s0.088827-0.023567 0.20412 0.00103c0.032698 0.00698 0.059846 0.012263 0.082683 0.016536l-0.017053 0.056844-0.01912 0.03359 0.014986 0.00568 0.03669-0.082166 0.00879 0.080616 0.011886-0.00103-0.00723-0.088367c0.037764 0.00658 0.056328 0.00878 0.056328 0.00878l-0.035657 0.058395 0.0031 0.044959 0.012919-0.0062-0.00207-0.03514 0.037724-0.059945c0.00392 7.57e-4 0.00788 0.00145 0.011886 0.00207l0.00207 0.050126-0.01757 0.049093 0.016536 0.00465 0.024288-0.044442-0.00723-0.057878c0.00873 6.581e-4 0.017537 1e-3 0.026355 0.00103 0.00744-1.188e-4 0.014857-4.627e-4 0.022221-0.00103l0.011886 0.065113-0.00413 0.03669h0.014986l0.011369-0.041858-0.00827-0.045475 0.034623 0.078549 0.013436-0.00413-0.034623-0.093535c0.018548-0.00308 0.036137-0.00761 0.052193-0.013436l0.062529 0.069247 0.092501-0.00413-0.055294-0.031523 0.03669-0.01757-0.072881-0.014988-0.026872-0.019637c0.029836-0.018785 0.046302-0.04257 0.046509-0.06718l0.087958 0.00362-0.026355-0.023255 0.024805-0.020154-0.096744 0.00723c-0.00926-0.01552-0.025184-0.029676-0.046509-0.041341l0.051677-0.055811-0.012919-0.010335-0.053744 0.059428c-4e-3 -0.00181-0.00814-0.00354-0.012402-0.00517l0.035657-0.083199z" fill="#d03535"/>
  <circle cx="8.3903" cy="8.3869" r=".019914"/>
  <circle cx="8.4441" cy="8.4308" r=".019914"/>
 </g>
 <path d="m6.8443 8.3273-0.16759 0.64667 0.74317 0.086724-0.078984-0.61282z" fill="#ce5acd"/>
 <path d="m5.1991 7.1129 0.25782 0.69248 0.50986 0.43506" fill="none" stroke="#ce5acd" stroke-width=".13229"/>
 <path d="m5.5126 7.8518-0.31454 0.27743" fill="none" stroke="#ce5acd" stroke-width=".26458px"/>
 <g transform="matrix(-.66027 -.17991 -.17991 .66027 4.6537 6.1129)">
  <path d="m0.79238 16.008s-0.028306 0.04786-0.01331 0.17571c0.014996 0.12786 0.13164 0.10352 0.04987 0.23486-0.081767 0.13135-0.037458 0.19361-0.037458 0.19361" fill="none" stroke="#a3a385" stroke-linecap="round" stroke-width=".052917"/>
  <path d="m0.8735 15.975s0.17502 0.08029 0.10305 0.19687c-0.071969 0.11658-0.10202 0.23045-0.062692 0.31326 0.039331 0.08282-0.027468 0.15885-0.027468 0.15885" fill="none" stroke="#a3a385" stroke-linecap="round" stroke-width=".052917"/>
  <path d="m0.7028 15.987s-0.079319 0.07419 0.077311 0.0777c0.15663 0.0035 0.26945 0.0042 0.33173-0.01461 0.062277-0.01878 0.00894-0.07767 0.00894-0.07767" fill="#84846c"/>
  <path d="m1.047 16.603s-0.028306-0.04786-0.01331-0.17571c0.014996-0.12786 0.13164-0.10352 0.04987-0.23486-0.081766-0.13135-0.037458-0.19361-0.037458-0.19361" fill="none" stroke="#a3a385" stroke-linecap="round" stroke-width=".052917"/>
  <path d="m0.92202 15.994s-0.10582 0.12463-0.071081 0.16925c0.03474 0.04463 0.21919 0.05889 0.16749 0.14938s0.057319 0.18399 0.057319 0.18399" fill="none" stroke="#a3a385" stroke-linecap="round" stroke-width=".052917"/>
  <path d="m0.63823 15.976s0.028763-0.18401 0.27733-0.17088c0.24856 0.01313 0.26311 0.16342 0.26311 0.16342s-0.02234 0.04747-0.22611 0.06272c-0.20377 0.01524-0.31432-0.05526-0.31432-0.05526z" fill="#a3a385"/>
 </g>
 <g transform="matrix(.67034 .1377 -.1377 .67034 20.256 12.174)">
  <path d="m0.79238 16.008s-0.028306 0.04786-0.01331 0.17571c0.014996 0.12786 0.13164 0.10352 0.04987 0.23486-0.081767 0.13135-0.037458 0.19361-0.037458 0.19361" fill="none" stroke="#a3a385" stroke-linecap="round" stroke-width=".052917"/>
  <path d="m0.8735 15.975s0.17502 0.08029 0.10305 0.19687c-0.071969 0.11658-0.10202 0.23045-0.062692 0.31326 0.039331 0.08282-0.027468 0.15885-0.027468 0.15885" fill="none" stroke="#a3a385" stroke-linecap="round" stroke-width=".052917"/>
  <path d="m0.7028 15.987s-0.079319 0.07419 0.077311 0.0777c0.15663 0.0035 0.26945 0.0042 0.33173-0.01461 0.062277-0.01878 0.00894-0.07767 0.00894-0.07767" fill="#84846c"/>
  <path d="m1.047 16.603s-0.028306-0.04786-0.01331-0.17571c0.014996-0.12786 0.13164-0.10352 0.04987-0.23486-0.081766-0.13135-0.037458-0.19361-0.037458-0.19361" fill="none" stroke="#a3a385" stroke-linecap="round" stroke-width=".052917"/>
  <path d="m0.92202 15.994s-0.10582 0.12463-0.071081 0.16925c0.03474 0.04463 0.21919 0.05889 0.16749 0.14938s0.057319 0.18399 0.057319 0.18399" fill="none" stroke="#a3a385" stroke-linecap="round" stroke-width=".052917"/>
  <path d="m0.63823 15.976s0.028763-0.18401 0.27733-0.17088c0.24856 0.01313 0.26311 0.16342 0.26311 0.16342s-0.02234 0.04747-0.22611 0.06272c-0.20377 0.01524-0.31432-0.05526-0.31432-0.05526z" fill="#a3a385"/>
 </g>
 <g transform="matrix(-1.0196 -.025449 -.025449 1.0196 20.634 7.0682)">
  <path d="m0.79238 16.008s-0.028306 0.04786-0.01331 0.17571c0.014996 0.12786 0.13164 0.10352 0.04987 0.23486-0.081767 0.13135-0.037458 0.19361-0.037458 0.19361" fill="none" stroke="#a3a385" stroke-linecap="round" stroke-width=".052917"/>
  <path d="m0.8735 15.975s0.17502 0.08029 0.10305 0.19687c-0.071969 0.11658-0.10202 0.23045-0.062692 0.31326 0.039331 0.08282-0.027468 0.15885-0.027468 0.15885" fill="none" stroke="#a3a385" stroke-linecap="round" stroke-width=".052917"/>
  <path d="m0.7028 15.987s-0.079319 0.07419 0.077311 0.0777c0.15663 0.0035 0.26945 0.0042 0.33173-0.01461 0.062277-0.01878 0.00894-0.07767 0.00894-0.07767" fill="#84846c"/>
  <path d="m1.047 16.603s-0.028306-0.04786-0.01331-0.17571c0.014996-0.12786 0.13164-0.10352 0.04987-0.23486-0.081766-0.13135-0.037458-0.19361-0.037458-0.19361" fill="none" stroke="#a3a385" stroke-linecap="round" stroke-width=".052917"/>
  <path d="m0.92202 15.994s-0.10582 0.12463-0.071081 0.16925c0.03474 0.04463 0.21919 0.05889 0.16749 0.14938s0.057319 0.18399 0.057319 0.18399" fill="none" stroke="#a3a385" stroke-linecap="round" stroke-width=".052917"/>
  <path d="m0.63823 15.976s0.028763-0.18401 0.27733-0.17088c0.24856 0.01313 0.26311 0.16342 0.26311 0.16342s-0.02234 0.04747-0.22611 0.06272c-0.20377 0.01524-0.31432-0.05526-0.31432-0.05526z" fill="#a3a385"/>
 </g>
 <g transform="matrix(.66584 -.15806 .15806 .66584 -2.4046 5.1417)">
  <path d="m0.79238 16.008s-0.028306 0.04786-0.01331 0.17571c0.014996 0.12786 0.13164 0.10352 0.04987 0.23486-0.081767 0.13135-0.037458 0.19361-0.037458 0.19361" fill="none" stroke="#a3a385" stroke-linecap="round" stroke-width=".052917"/>
  <path d="m0.8735 15.975s0.17502 0.08029 0.10305 0.19687c-0.071969 0.11658-0.10202 0.23045-0.062692 0.31326 0.039331 0.08282-0.027468 0.15885-0.027468 0.15885" fill="none" stroke="#a3a385" stroke-linecap="round" stroke-width=".052917"/>
  <path d="m0.7028 15.987s-0.079319 0.07419 0.077311 0.0777c0.15663 0.0035 0.26945 0.0042 0.33173-0.01461 0.062277-0.01878 0.00894-0.07767 0.00894-0.07767" fill="#84846c"/>
  <path d="m1.047 16.603s-0.028306-0.04786-0.01331-0.17571c0.014996-0.12786 0.13164-0.10352 0.04987-0.23486-0.081766-0.13135-0.037458-0.19361-0.037458-0.19361" fill="none" stroke="#a3a385" stroke-linecap="round" stroke-width=".052917"/>
  <path d="m0.92202 15.994s-0.10582 0.12463-0.071081 0.16925c0.03474 0.04463 0.21919 0.05889 0.16749 0.14938s0.057319 0.18399 0.057319 0.18399" fill="none" stroke="#a3a385" stroke-linecap="round" stroke-width=".052917"/>
  <path d="m0.63823 15.976s0.028763-0.18401 0.27733-0.17088c0.24856 0.01313 0.26311 0.16342 0.26311 0.16342s-0.02234 0.04747-0.22611 0.06272c-0.20377 0.01524-0.31432-0.05526-0.31432-0.05526z" fill="#a3a385"/>
 </g>
 <g fill="#fff400">
  <ellipse cx="22.602" cy="24.814" rx=".092877" ry=".089649"/>
  <ellipse cx="22.881" cy="24.817" rx=".074964" ry=".072359"/>
  <ellipse cx="23.14" cy="25.022" rx=".06284" ry=".060656"/>
  <ellipse cx="23.398" cy="24.902" rx=".050491" ry=".048736"/>
  <ellipse cx="23.737" cy="25.106" rx=".0376" ry=".036293"/>
 </g>
 <g fill="#bebebe">
  <ellipse cx="25.797" cy="23.604" rx=".039093" ry=".037735"/>
  <ellipse cx="25.96" cy="23.491" rx=".039093" ry=".037735"/>
  <ellipse cx="26.135" cy="23.622" rx=".039093" ry=".037735"/>
  <ellipse cx="26.267" cy="23.336" rx=".039093" ry=".037735"/>
  <ellipse cx="25.997" cy="23.187" rx=".039093" ry=".037735"/>
  <ellipse cx="25.69" cy="23.16" rx=".039093" ry=".037735"/>
  <ellipse cx="25.467" cy="23.602" rx=".039093" ry=".037735"/>
  <ellipse cx="25.238" cy="23.622" rx=".039093" ry=".037735"/>
  <ellipse cx="25.201" cy="23.076" rx=".039093" ry=".037735"/>
  <ellipse cx="25.639" cy="22.668" rx=".039093" ry=".037735"/>
  <ellipse cx="25.977" cy="22.901" rx=".039093" ry=".037735"/>
  <ellipse cx="25.933" cy="23.177" rx=".039093" ry=".037735"/>
  <ellipse cx="25.747" cy="23.504" rx=".039093" ry=".037735"/>
  <ellipse cx="25.471" cy="23.386" rx=".039093" ry=".037735"/>
  <ellipse cx="25.724" cy="22.961" rx=".039093" ry=".037735"/>
  <ellipse cx="25.879" cy="22.644" rx=".039093" ry=".037735"/>
  <ellipse cx="26.169" cy="22.371" rx=".039093" ry=".037735"/>
  <ellipse cx="26.371" cy="22.435" rx=".039093" ry=".037735"/>
  <ellipse cx="26.26" cy="22.968" rx=".039093" ry=".037735"/>
  <ellipse cx="26.459" cy="23.069" rx=".039093" ry=".037735"/>
 </g>
 <ellipse cx="25.347" cy="20.554" rx=".06284" ry=".060656" fill="#f00"/>
 <ellipse cx="25.563" cy="20.364" rx=".06284" ry=".060656" fill="#f00"/>
 <g fill="#bebebe">
  <ellipse cx="25.815" cy="25.459" rx=".039093" ry=".037735"/>
  <ellipse cx="25.652" cy="25.964" rx=".039093" ry=".037735"/>
  <ellipse cx="25.177" cy="26.023" rx=".039093" ry=".037735"/>
  <ellipse cx="25.029" cy="26.468" rx=".039093" ry=".037735"/>
  <ellipse cx="25.919" cy="26.082" rx=".039093" ry=".037735"/>
  <ellipse cx="26.023" cy="26.127" rx=".039093" ry=".037735"/>
  <ellipse cx="26.246" cy="26.305" rx=".039093" ry=".037735"/>
  <ellipse cx="26.438" cy="25.83" rx=".039093" ry=".037735"/>
  <ellipse cx="26.691" cy="25.875" rx=".039093" ry=".037735"/>
  <ellipse cx="26.527" cy="26.602" rx=".039093" ry=".037735"/>
  <ellipse cx="22.373" cy="26.068" rx=".039093" ry=".037735"/>
  <ellipse cx="21.795" cy="26.216" rx=".039093" ry=".037735"/>
  <ellipse cx="21.498" cy="26.409" rx=".039093" ry=".037735"/>
  <ellipse cx="21.409" cy="26.468" rx=".039093" ry=".037735"/>
  <ellipse cx="22.581" cy="26.34" rx=".039093" ry=".037735"/>
  <ellipse cx="23.16" cy="25.904" rx=".039093" ry=".037735"/>
  <ellipse cx="22.329" cy="25.875" rx=".039093" ry=".037735"/>
  <ellipse cx="22.225" cy="26.127" rx=".039093" ry=".037735"/>
  <ellipse cx="22.21" cy="26.335" rx=".039093" ry=".037735"/>
  <ellipse cx="22.21" cy="26.438" rx=".039093" ry=".037735"/>
  <ellipse cx="22.744" cy="26.349" rx=".039093" ry=".037735"/>
  <ellipse cx="23.1" cy="26.216" rx=".039093" ry=".037735"/>
  <ellipse cx="23.189" cy="26.424" rx=".039093" ry=".037735"/>
  <ellipse cx="23.041" cy="26.325" rx=".039093" ry=".037735"/>
  <ellipse cx="22.091" cy="26.251" rx=".039093" ry=".037735"/>
 </g>
 <path d="m22.064 3.7642 0.15571-1.5401-0.15897-1.2828 0.60138-0.10713 0.21699 1.3783 0.41162-0.051401 0.02175-0.44326 1.8176-0.060621 0.02958 0.31435 0.67632-0.090172 0.01375-1.2182 0.77749 0.024324 0.1481 1.7189 0.31009 1.3614-2.3337 0.023432-0.06515-1.0789h-0.83398l0.01608 1.0249z" fill="#cfcd5a"/>
 <g fill="#4d4c22">
  <ellipse cx="26.371" cy="1.7276" rx=".15417" ry=".15301"/>
  <ellipse cx="26.123" cy="1.009" rx=".15417" ry=".15301"/>
  <ellipse cx="22.484" cy="1.6455" rx=".11213" ry=".1113"/>
  <ellipse cx="25.783" cy="3.3513" rx=".11213" ry=".1113"/>
  <ellipse cx="26.47" cy="3.279" rx=".11213" ry=".1113"/>
  <ellipse cx="22.373" cy="3.3172" rx=".11213" ry=".1113"/>
  <ellipse cx="22.925" cy="3.3702" rx=".11213" ry=".1113"/>
  <ellipse cx="22.316" cy="1.172" rx=".15417" ry=".15301"/>
 </g>
 <path d="m23.857 1.3015-0.0047 0.73122" fill="none" stroke="#cfcd5a" stroke-width=".26458px"/>
 <ellipse cx="22.971" cy="2.6614" rx=".24696" ry=".24511" fill="#4d4c22"/>
 <path d="m24.686 1.2549 2.65e-4 0.72055" fill="none" stroke="#cfcd5a" stroke-width=".26458px"/>
 <ellipse cx="25.655" cy="2.6361" rx=".24696" ry=".24511" fill="#4d4c22"/>
 <path d="m24.471 2.3727h-0.39848l-0.0094 0.093634s-0.19218 0.06276-0.1688 0.30886 0.72437 0.24892 0.73608-0.0282c0.01171-0.27713-0.15738-0.29492-0.15738-0.29492z" fill="#ffe6e6"/>
 <g fill="none" stroke="#ce5acd" stroke-width=".26458px">
  <path d="m23.49 2.7357 0.01031 1.097"/>
  <path d="m24.992 2.7157 0.05179 1.1777"/>
  <path d="m22.387 3.5152 0.01031 1.097"/>
  <path d="m26.074 3.3736 0.05179 1.1777"/>
  <path d="m23.317 4.4891 0.01031 1.097"/>
  <path d="m25.055 4.5041 0.05179 1.1777"/>
 </g>
 <g transform="translate(19.388 8.1541)">
  <circle cx="4.2636" cy="5.7007" r=".23128" fill="#f00"/>
  <path d="m4.2633 5.4929 0.049791 0.14324 0.15162 0.0031-0.12085 0.091622 0.043911 0.14515-0.12448-0.086621-0.12447 0.086621 0.043911-0.14515-0.12085-0.091622 0.15162-0.0031z" fill="#fff" stroke-width=".36111"/>
 </g>
 <g fill="none" stroke="#808548" stroke-linecap="round" stroke-width=".079374">
  <path d="m12.823 13.293s0.39382 0.04338 0.19289-0.14355c-0.20093-0.18694 0.39779-0.15852 0.39779-0.15852"/>
  <path d="m11.547 12.679s0.22759 0.02154 0.26007 0.19746c0.03249 0.17592 0.35577 0.05282 0.35577 0.05282"/>
  <path d="m12.169 13.896s0.24349 0.06888 0.38258 0.19769 0.36606-0.10814 0.36606-0.10814"/>
 </g>
 <path d="m23.898 17.093s0.22078 0.02339 0.23901 0.22382c0.01823 0.20044 0.04355 0.77307 0.1426 0.81554s0.23026 0.01838 0.23026 0.01838" fill="none" stroke="#87527f" stroke-width=".066145"/>
 <path d="m24.495 18.062s0.11556-0.0056 0.28954 0.04723c0.17398 0.05284 0.23703 0.12258 0.23703 0.12258s-0.13809 0.13674-0.29765 0.15547-0.22683 0.0208-0.22683 0.0208-0.03865-0.04882-0.05405-0.15948 0.05195-0.1866 0.05195-0.1866z" fill="#87527f"/>
 <g fill="none" stroke="#87527f" stroke-width=".066145">
  <path d="m24.514 18.335s-0.2072-0.03041-0.26281 0.03862-0.20783 0.21412-0.28455 0.10873 0.0957-0.27938 0.04041-0.42789c-0.0553-0.14851-0.20858-0.26682-0.20858-0.26682"/>
  <path d="m24.521 18.28s-0.22711-0.03689-0.35784 0.03241c-0.13072 0.0693-0.25318 0.16718-0.33586 0.27646-0.08268 0.10929-0.2883 0.02837-0.2883 0.02837"/>
  <path d="m24.51 18.198s-0.28218-0.04167-0.4405 0.02667c-0.15831 0.06833-0.39414 0.0359-0.22845-0.0673s0.30684-0.13589 0.23064-0.26818-0.07328-0.2048-0.07328-0.2048"/>
 </g>
 <circle cx="24.745" cy="18.115" r=".052115" fill="#2f2f2f"/>
 <circle cx="24.715" cy="18.291" r=".052115" fill="#2f2f2f"/>
 <g fill="#18202f">
  <path d="m23.046 19.818 0.10648-0.36658 0.15888 0.35418z"/>
  <path d="m23.697 19.549 0.10648-0.36658 0.15888 0.35418z"/>
  <path d="m23.447 19.456 0.13993-0.48175 0.2088 0.46545z"/>
  <path d="m20.841 22.328 0.12565-0.43258 0.18749 0.41794z"/>
  <path d="m25.998 19.087 0.15867-0.54626 0.23676 0.52778z"/>
 </g>
 <g fill="#c6c6c6">
  <path d="m5.9643 11.555s-0.027155-0.03745-0.046664-0.18897c-0.01951-0.15152 0.057232-0.27187 0.057232-0.27187s-0.014491 0.1417 0.00667 0.25134c0.021164 0.10964 0.081647 0.21525 0.081647 0.21525z"/>
  <path d="m6.1962 11.462s-0.027155-0.03283-0.046664-0.16564c-0.01951-0.13282 0.057232-0.23831 0.057232-0.23831s-0.014491 0.1242 0.00667 0.22031c0.021164 0.0961 0.081647 0.18868 0.081647 0.18868z"/>
  <path d="m6.4228 11.415s-0.024599-0.02966-0.042272-0.14967c-0.017674-0.12001 0.051846-0.21534 0.051846-0.21534s-0.013127 0.11223 0.00604 0.19907c0.019172 0.08683 0.073963 0.17049 0.073963 0.17049z"/>
  <path d="m6.6984 11.396s-0.024599-0.02966-0.042272-0.14967c-0.017674-0.12001 0.051846-0.21534 0.051846-0.21534s-0.013127 0.11223 0.00604 0.19907c0.019172 0.08683 0.073963 0.17049 0.073963 0.17049z"/>
  <path d="m6.2386 12.067s-0.027155-0.03745-0.046664-0.18897c-0.01951-0.15152 0.057232-0.27187 0.057232-0.27187s-0.014491 0.1417 0.00667 0.25134c0.021164 0.10964 0.081647 0.21525 0.081647 0.21525z"/>
  <path d="m6.5373 12.078s-0.027155-0.03283-0.046664-0.16564c-0.01951-0.13282 0.057232-0.23831 0.057232-0.23831s-0.014491 0.1242 0.00667 0.22031c0.021164 0.0961 0.081647 0.18868 0.081647 0.18868z"/>
  <path d="m6.7928 12.051s-0.024599-0.02966-0.042272-0.14967c-0.017674-0.12001 0.051846-0.21534 0.051846-0.21534s-0.013127 0.11223 0.00604 0.19907c0.019172 0.08683 0.073963 0.17049 0.073963 0.17049z"/>
  <path d="m7.0223 11.998s-0.024599-0.02966-0.042272-0.14967c-0.017674-0.12001 0.051846-0.21534 0.051846-0.21534s-0.013127 0.11223 0.00604 0.19907c0.019172 0.08683 0.073963 0.17049 0.073963 0.17049z"/>
  <path d="m7.0154 11.431 0.032533-0.09457 0.035358 0.0953z"/>
  <path d="m7.3134 11.885 0.032533-0.09457 0.035358 0.0953z"/>
  <path d="m7.4231 11.58 0.09239-0.02163 0.025953 0.06506-0.099214 0.01946z"/>
  <path d="m7.5756 11.531 0.10296-0.04904 0.046979 0.07467-0.055763 0.02398-0.071166-6.76e-4z"/>
  <path d="m5.2595 11.802s-0.054879-0.08785-0.22987-0.07496c-0.17499 0.01289-0.20975 0.10292-0.20975 0.10292s0.039994 0.02124 0.23085 0.0163c0.19085-0.0049 0.20878-0.04426 0.20878-0.04426z"/>
  <path d="m5.5154 12.11 0.034298-0.06404 0.028437 0.06736z"/>
  <path d="m4.8614 11.932 0.034298-0.06404 0.028437 0.06736z"/>
  <path d="m5.2103 12.003 0.034298-0.02771 0.028437 0.02915z"/>
  <path d="m6.0231 11.696 0.034298-0.02771 0.028437 0.02915z"/>
  <path d="m7.1352 11.631 0.034298-0.02771 0.028437 0.02915z"/>
  <path d="m7.7238 11.838 0.034298-0.02771 0.028437 0.02915z"/>
  <path d="m6.9666 12.199 0.034298-0.02771 0.028437 0.02915z"/>
  <path d="m8.064 11.324 0.034298-0.02771 0.028437 0.02915z"/>
  <path d="m8.2858 11.111 0.034298-0.02771 0.028437 0.02915z"/>
  <path d="m8.3834 11.201 0.034298-0.05644 0.028437 0.05937z"/>
 </g>
 <g fill="none" stroke="#ce5acd" stroke-linecap="round">
  <g stroke-width=".066145">
   <path d="m9.6767 9.3511s0.12621-0.062345 0.13638-0.19786c0.010171-0.13552-0.011893-0.15874 0.045363-0.24361 0.057257-0.084865 0.012639-0.20348 0.012639-0.20348"/>
   <path d="m9.7334 8.8805s-0.087173 0.11053-0.038123 0.23727 0.078951 0.13823 0.063724 0.23946"/>
   <path d="m10.04 8.7941s0.029 0.13775-0.07124 0.22951c-0.10024 0.091756-0.13214 0.088771-0.16347 0.18623-0.031321 0.097467-0.15214 0.13571-0.15214 0.13571"/>
   <path d="m10.115 9.4219c0.01684-0.13485 0.04306-0.15325 0.0037-0.24777-0.03934-0.094516 0.02787-0.20196 0.02787-0.20196"/>
   <path d="m10.19 9.6132c0.0053-0.1358-0.01763-0.15821 0.03654-0.24509 0.05415-0.086882 0.0053-0.20381 0.0053-0.20381"/>
   <path d="m9.8767 9.3656c0.08931-0.05005 0.10282-0.17604 0.10282-0.17604"/>
   <path d="m11.752 9.4851c0.04912-0.089825-0.0063-0.20378-0.0063-0.20378"/>
   <path d="m10.403 9.172s-0.03637 0.078209-0.02591 0.1881c0.01046 0.10989-0.05738 0.20443-0.05738 0.20443"/>
   <path d="m9.5879 8.9239s0.00437 0.086141-0.046547 0.18409c-0.050922 0.097945-0.023502 0.21103-0.023502 0.21103"/>
   <path d="m10.492 9.3596s0.03637 0.078209 0.02591 0.1881c-0.01046 0.10989 0.05738 0.20443 0.05738 0.20443"/>
   <path d="m11.136 9.3009s-0.08127 0.11494-0.02567 0.23894c0.05561 0.124 0.08607 0.13391 0.07616 0.2358"/>
   <path d="m11.492 9.5423s-0.08717-0.11053-0.03812-0.23727 0.07895-0.13823 0.06372-0.23946"/>
   <path d="m11.502 9.6904s0.029-0.13775-0.07124-0.22951-0.13214-0.08877-0.16347-0.18623c-0.03132-0.09747-0.15214-0.13571-0.15214-0.13571"/>
   <path d="m10.967 9.2586c0.01684 0.13485 0.04306 0.15325 0.0037 0.24777-0.03934 0.09452 0.02787 0.20196 0.02787 0.20196"/>
   <path d="m10.825 9.3369c0.0053 0.1358-0.01763 0.15821 0.03654 0.24509 0.05415 0.08688 0.0053 0.2038 0.0053 0.2038"/>
   <path d="m11.2 9.4257c0.08931 0.05005 0.10282 0.17604 0.10282 0.17604"/>
   <path d="m10.795 9.7073s-0.03637-0.07821-0.02591-0.1881c0.01046-0.1099-0.05738-0.20443-0.05738-0.20443"/>
   <path d="m11.569 9.6043s0.03637-0.07821 0.02591-0.1881c-0.01046-0.1099 0.05738-0.20443 0.05738-0.20443"/>
   <path d="m10.59 9.8537s0.03637-0.07821 0.02591-0.1881c-0.01046-0.1099 0.05738-0.20443 0.05738-0.20443"/>
   <path d="m13.019 9.5712c0.0053-0.1358-0.01763-0.15821 0.03654-0.24509 0.05415-0.086882 0.0053-0.20381 0.0053-0.20381"/>
   <path d="m13.239 8.9908s-0.03637 0.078209-0.02591 0.1881c0.01046 0.10989-0.05738 0.20443-0.05738 0.20443"/>
   <path d="m13.23 9.5335s0.03637-0.07821 0.02591-0.1881c-0.01046-0.1099 0.05738-0.20443 0.05738-0.20443"/>
   <path d="m8.9069 8.7557s0.08127 0.11494 0.02567 0.23894c-0.05561 0.124-0.08607 0.13391-0.07616 0.2358"/>
   <path d="m9.097 9.283s-0.075494-0.11881-0.013827-0.23991c0.06167-0.1211 0.092586-0.12949 0.087721-0.23175-0.00488-0.10226 0.094849-0.18047 0.094849-0.18047"/>
   <path d="m9.0761 8.7134c-0.01684 0.13485-0.04306 0.15325-0.0037 0.24777 0.03934 0.09452-0.02787 0.20196-0.02787 0.20196"/>
   <path d="m8.8431 8.8354c-0.08931 0.05005-0.10282 0.17604-0.10282 0.17604"/>
   <path d="m9.2486 9.1621s0.03637-0.07821 0.02591-0.1881c-0.01046-0.1099 0.05738-0.20443 0.05738-0.20443"/>
   <path d="m9.4435 9.2774s-0.030087-0.080835-0.010991-0.18956c0.019096-0.10873-0.041074-0.20832-0.041074-0.20832"/>
   <path d="m10.79 7.4018s-0.14021 0.012527-0.19866 0.13521c-0.05845 0.12269-0.04628 0.15231-0.13032 0.21076-0.08406 0.05844-0.08531 0.18516-0.08531 0.18516"/>
   <path d="m10.567 7.786s0.12122-0.071563 0.12128-0.20746c6e-5 -0.1359-0.02367-0.15742 0.02711-0.24631"/>
   <path d="m10.25 7.7898s0.02273-0.13892 0.14936-0.18826c0.12663-0.049334 0.15529-0.035025 0.21971-0.11458 0.06442-0.079564 0.1909-0.07156 0.1909-0.07156"/>
   <path d="m10.406 7.1773c-0.06443 0.11965-0.09553 0.12734-0.09298 0.22969 0.0025 0.10234-0.09896 0.17824-0.09896 0.17824"/>
   <path d="m10.282 6.9582c-0.05401 0.12471-0.04073 0.15389-0.12263 0.21532-0.08189 0.061445-0.07859 0.18812-0.07859 0.18812"/>
   <path d="m9.915 6.9485c-0.10136 0.014397-0.15949 0.127-0.15949 0.127"/>
   <path d="m10.454 7.4335s0.06217-0.059783 0.09213-0.16603c0.02996-0.10625 0.12737-0.16989 0.12737-0.16989"/>
   <path d="m10.718 7.8322s0.02705-0.0819 0.10992-0.15483c0.08287-0.072927 0.09817-0.18828 0.09817-0.18828"/>
   <path d="m13.294 8.1s0.02705-0.0819 0.10992-0.15483"/>
   <path d="m10.172 7.4525s-0.0057-0.086067 0.04381-0.18476c0.04946-0.09869 0.02037-0.21135 0.02037-0.21135"/>
   <path d="m10.228 6.79s-0.06217 0.059783-0.09213 0.16603c-0.02996 0.10625-0.12737 0.16989-0.12737 0.16989"/>
   <path d="m11.502 8.0683c-0.02996 0.10625-0.12737 0.16989-0.12737 0.16989"/>
   <path d="m11.293 8.2351s-0.03425-0.13654 0.0624-0.23207"/>
   <path d="m12.882 8.1624c-0.03584-0.10441 8e-3 -0.21218 8e-3 -0.21218"/>
   <path d="m13.125 7.9661s0.10588 0.092769 0.08079 0.22632"/>
   <path d="m11.232 7.9034c-0.10126 0.090635-0.13312 0.087289-0.16554 0.18439-0.0324 0.097116-0.15365 0.134-0.15365 0.134"/>
   <path d="m11.1 8.2142c0.06443-0.11965 0.09553-0.12734 0.09298-0.22969-0.0025-0.10235 0.09896-0.17824 0.09896-0.17824"/>
   <path d="m11.631 8.3516c0.03118-0.097516-0.04488-0.19887-0.04488-0.19887"/>
   <path d="m11.121 7.7327s-0.06217 0.059783-0.09213 0.16603c-0.02996 0.10625-0.12737 0.16989-0.12737 0.16989"/>
   <path d="m10.981 7.5548s-0.0012 0.086245-0.05825 0.18073c-0.05709 0.094481-0.03698 0.20909-0.03698 0.20909"/>
  </g>
  <g stroke-width=".052916">
   <path d="m15.652 12.448s0.04207 0.13434-0.0489 0.23529c-0.09098 0.10095-0.12302 0.10103-0.14486 0.20104"/>
   <path d="m15.671 13.008s-0.03538-0.13624 0.06047-0.23258c0.09586-0.09633 0.12786-0.09482 0.15462-0.19364 0.02672-0.09883 0.14566-0.14265 0.14566-0.14265"/>
   <path d="m15.826 12.46c-0.05741 0.12317-0.08802 0.13264-0.07957 0.23468 0.0084 0.10203-0.08851 0.18366-0.08851 0.18366"/>
   <path d="m15.567 12.504c-0.10036 0.02022-0.15189 0.13598-0.15189 0.13598"/>
   <path d="m15.852 12.94s0.05862-0.06327 0.08239-0.17107c0.02378-0.10781 0.11736-0.17695 0.11736-0.17695"/>
   <path d="m16.003 13.109s-0.0038-0.08617 0.04772-0.18378c0.05155-0.09762 0.02485-0.21087 0.02485-0.21087"/>
  </g>
 </g>
 <path d="m13.688 21.966-0.29823 0.11507 0.02049-0.23854-0.13428-0.20209 0.35819 0.1946z" fill="#9da128"/>
 <path d="m13.591 21.427-0.12467-0.08512 0.08812-0.15436z" fill="#9da128"/>
 <path d="m17.593 12.859 0.44733-0.42467" fill="none" stroke="#624f28" stroke-width=".13229"/>
 <g fill="#624f28">
  <path d="m17.574 13.7 0.1906-0.15856 0.10238 0.16302z"/>
  <path d="m17.137 13.025 0.27952-0.23254 0.15014 0.23908z"/>
  <path d="m17.176 12.695-0.15187-0.17107-0.1559 0.17588z"/>
 </g>
 <path d="m22.188 8.5756 0.15616-1.0349 0.88227 0.01427 0.09832-1.1696 0.57711 0.034001 0.31478 1.6118-0.0033 0.64766z" fill="#cfcd5a"/>
 <g fill="#4d4c22">
  <ellipse cx="23.707" cy="7.2443" rx=".15417" ry=".15301"/>
  <ellipse cx="23.526" cy="6.6223" rx=".11816" ry=".11728"/>
  <ellipse cx="23.708" cy="8.3568" rx=".11816" ry=".11728"/>
  <ellipse cx="23.989" cy="8.09" rx=".11816" ry=".11728"/>
  <ellipse cx="23.47" cy="8.0282" rx=".15417" ry=".15301"/>
  <ellipse cx="22.629" cy="8.2223" rx=".20661" ry=".20507"/>
 </g>
</svg>
