<?xml version="1.0" encoding="UTF-8"?>
<svg width="32" height="32" version="1.1" viewBox="0 0 8.4667 8.4667" xmlns="http://www.w3.org/2000/svg">
 <rect width="8.4667" height="8.4667" fill="#5074b8"/>
 <path d="m0.98609 5.0994s-0.17717-0.37764-0.10458-0.88889c0.072583-0.51124-0.11569-1.2501-0.11569-1.2501s0.018598 1.0847-0.082774 1.3634c-0.1095 0.30122-0.097551 0.69655-0.097551 0.69655l0.15375 0.57327z" fill="#fff" fill-opacity=".29681"/>
 <path d="m1.3661 6.8903-0.38004-1.791-0.40064-0.079055-0.19699 1.9875" fill="#493b2c"/>
 <path d="m0.44951 6.2609s-0.061221-0.089653-0.055489-0.3469c0.00586-0.25725-0.29679-0.41936-0.29679-0.41936s0.079564 0.22952 0.085832 0.49708c0.00408 0.17164-0.093882 0.28575-0.093882 0.28575l0.1417 0.28734z" fill="#fff" fill-opacity=".3"/>
 <g fill="#493b2c">
  <path d="m1.3121 6.8819 0.081169-0.47426 0.32657 0.019108 0.080685 0.82784z"/>
  <path d="m1.9571 7.2795 0.081169-0.47426 0.32657 0.019108 0.080685 0.82784z"/>
  <path d="m0.055636 6.6146 0.033553-0.33711 0.36033-0.01656 0.069628 0.42659z"/>
 </g>
 <g fill="#fff" fill-opacity=".3">
  <ellipse cx="1.6081" cy="6.109" rx=".15636" ry=".15759"/>
  <ellipse cx="1.4153" cy="5.5208" rx=".082488" ry=".076712"/>
  <ellipse cx="1.0342" cy="4.5206" rx=".082488" ry=".076712"/>
  <ellipse cx=".58533" cy="2.4484" rx=".082488" ry=".076712"/>
 </g>
 <g>
  <path d="m7.0359 7.4173 0.18515-0.26389s-0.35953 0.17139-0.61063 0.00931c-0.2511-0.16209 0.00809-0.3206 0.18995-0.20569 0.18185 0.11491 0.23553 0.46028 0.23553 0.46028z" fill="#b3b3b3"/>
  <path d="m5.194 8.1404 0.15461-1.0163 0.82833-0.71345-0.033988-0.50008 0.93847-0.53855 0.28365 0.32401 1.2679-0.11832 0.064142 0.38479-1.4844 0.27257-1.3446 0.99474 0.036997 0.57631" fill="#ce5acd"/>
  <path d="m2.5749 7.8533 0.49429-0.33082 0.54163-0.057292 0.17275-0.37268 0.34469-0.1501 0.18673 0.50317 0.30865 0.20029 1.2631-0.12789 1.5837-0.60336 0.8175-1.0755 1.2031 0.016187-0.14836 3.0851-7.1033-0.0036015z" fill="#ce5acd"/>
 </g>
 <path d="m7.732 5.7145 0.16847-0.89275 0.72289-0.35867" fill="none" stroke="#ce5acd" stroke-width=".33704"/>
 <path d="m7.2456 5.4286-0.048482-0.3187s0.2458 0.3134 0.54279 0.27989c0.29699-0.03351 0.13533-0.29075-0.078661-0.2687-0.21398 0.022054-0.41565 0.30752-0.41565 0.30752z" fill="#b3b3b3"/>
 <path d="m-0.76266 6.3878 1.6475 0.1574 1.8255 0.78729 0.37469 0.78232 0.14986 1.5739-2.6515 0.16036-0.95214-1.2423z" fill="#493b2c"/>
 <g fill="#54b44f">
  <path d="m3.5973 1.0511-4.915e-4 0.37455s-0.22706-0.40323-0.57403-0.41709c-0.34698-0.013856-0.20665 0.31006 0.042985 0.32245 0.24963 0.012381 0.53154-0.27991 0.53154-0.27991z"/>
  <path d="m2.4211 1.8339-0.077691 0.36641s0.30622-0.34696 0.64844-0.2881c0.34223 0.058869 0.13739 0.34636-0.10933 0.30638-0.24671-0.039993-0.46141-0.38469-0.46141-0.38469z"/>
  <path d="m2.9265 2.8047-0.05633-0.37029s0.28559 0.36413 0.63065 0.3252c0.34506-0.038934 0.15723-0.33782-0.091395-0.3122-0.24862 0.025625-0.48293 0.3573-0.48293 0.3573z"/>
 </g>
 <g transform="matrix(1.8903 0 0 1.8903 2.1352 -3.7283)">
  <path d="m2.824 3.5184s0.043564-0.13354-0.032976-0.26347 0.061145-0.2316 0.061646-0.39113c5.018e-4 -0.15953-0.04287-0.31876-0.04287-0.31876" fill="none" stroke="#257239" stroke-linecap="round" stroke-width=".13229"/>
  <g fill="#9b9d45">
   <circle cx="2.912" cy="3.0034" r=".068029"/>
   <circle cx="2.7867" cy="2.8177" r=".068029"/>
   <circle cx="2.9109" cy="2.7168" r=".068029"/>
   <circle cx="2.764" cy="2.5025" r=".068029"/>
  </g>
 </g>
 <g transform="matrix(1.8903 0 0 1.8903 -10.16 -8.3131)">
  <path d="m5.7342 4.0799s-0.03151 0.12081 0.025853 0.19268c0.05736 0.071863-0.028103 0.23591-0.028103 0.23591" fill="none" stroke="#257239" stroke-linecap="round" stroke-width=".13229"/>
  <circle cx="5.8098" cy="4.0935" r=".068029" fill="#9b9d45"/>
  <circle cx="5.6819" cy="4.2961" r=".068029" fill="#9b9d45"/>
 </g>
 <g transform="matrix(-1.8903 0 0 1.8903 7.2083 -4.8147)">
  <path d="m2.824 3.5184s0.043564-0.13354-0.032976-0.26347 0.061145-0.2316 0.061646-0.39113c5.018e-4 -0.15953-0.04287-0.31876-0.04287-0.31876" fill="none" stroke="#257239" stroke-linecap="round" stroke-width=".13229"/>
  <g fill="#9b9d45">
   <circle cx="2.912" cy="3.0034" r=".068029"/>
   <circle cx="2.7867" cy="2.8177" r=".068029"/>
   <circle cx="2.9109" cy="2.7168" r=".068029"/>
   <circle cx="2.764" cy="2.5025" r=".068029"/>
  </g>
 </g>
 <g transform="matrix(-1.8903 0 0 1.8903 14.159 -5.3801)">
  <path d="m4.0723 3.8973s-0.03151-0.25131 0.025853-0.4008c0.05736-0.14949-0.028103-0.49073-0.028103-0.49073" fill="none" stroke="#257239" stroke-linecap="round" stroke-width=".13229"/>
  <g fill="#9b9d45">
   <circle cx="4.0325" cy="3.167" r=".068029"/>
   <circle cx="4.0985" cy="2.9264" r=".068029"/>
   <circle cx="4.1839" cy="3.1593" r=".068029"/>
   <circle cx="4.1063" cy="3.3417" r=".068029"/>
  </g>
 </g>
 <g transform="matrix(1.8903 0 0 1.8903 -.69498 -4.2853)">
  <path d="m4.6477 3.6579s-0.03151 0.17744 0.025853 0.28299c0.05736 0.10555-0.028103 0.34649-0.028103 0.34649" fill="none" stroke="#257239" stroke-linecap="round" stroke-width=".13229"/>
  <circle cx="4.5798" cy="3.6755" r=".068029" fill="#9b9d45"/>
  <circle cx="4.7117" cy="3.8967" r=".068029" fill="#9b9d45"/>
 </g>
 <g transform="matrix(1.8903 0 0 1.8903 1.533 -4.6988)">
  <path d="m2.6735 4.2145s0.03151 0.12081-0.025853 0.19268c-0.05736 0.071863 0.028103 0.23591 0.028103 0.23591" fill="none" stroke="#257239" stroke-linecap="round" stroke-width=".13229"/>
  <circle cx="2.5965" cy="4.3702" r=".068029" fill="#9b9d45"/>
 </g>
 <g transform="matrix(1.8903 0 0 1.8903 -7.2408 -7.1081)">
  <path d="m5.2021 3.4099s0.03151 0.17744-0.025853 0.28299c-0.05736 0.10555 0.028103 0.34649 0.028103 0.34649" fill="none" stroke="#257239" stroke-linecap="round" stroke-width=".13229"/>
  <g fill="#9b9d45">
   <circle cx="5.1309" cy="3.6134" r=".068029"/>
   <circle cx="5.3072" cy="3.4995" r=".068029"/>
   <circle cx="5.1425" cy="3.3456" r=".068029"/>
  </g>
 </g>
 <g transform="matrix(1.7927 0 0 1.7927 -4.5383 -5.5175)">
  <path d="m5.7342 4.0799s-0.03151 0.12081 0.025853 0.19268c0.05736 0.071863-0.028103 0.23591-0.028103 0.23591" fill="none" stroke="#257239" stroke-linecap="round" stroke-width=".13229"/>
  <circle cx="5.8098" cy="4.0935" r=".068029" fill="#9b9d45"/>
  <circle cx="5.6819" cy="4.2961" r=".068029" fill="#9b9d45"/>
 </g>
 <g transform="matrix(-1.7927 0 0 1.7927 12.195 -5.985)">
  <path d="m2.2715 3.5217s-0.03151 0.12081 0.025853 0.19268c0.05736 0.071863-0.028103 0.23591-0.028103 0.23591" fill="none" stroke="#257239" stroke-linecap="round" stroke-width=".13229"/>
  <circle cx="2.1929" cy="3.4698" r=".068029" fill="#9b9d45"/>
  <circle cx="2.3559" cy="3.6987" r=".068029" fill="#9b9d45"/>
 </g>
 <g transform="matrix(1.7927 0 0 1.7927 -1.399 -6.8875)">
  <path d="m4.6477 3.6579s-0.03151 0.17744 0.025853 0.28299c0.05736 0.10555-0.028103 0.34649-0.028103 0.34649" fill="none" stroke="#257239" stroke-linecap="round" stroke-width=".13229"/>
  <circle cx="4.5798" cy="3.6755" r=".068029" fill="#9b9d45"/>
  <circle cx="4.7117" cy="3.8967" r=".068029" fill="#9b9d45"/>
 </g>
 <g transform="matrix(-1.7927 0 0 1.7927 8.1439 -7.9506)">
  <path d="m2.6735 4.2145s0.03151 0.12081-0.025853 0.19268c-0.05736 0.071863 0.028103 0.23591 0.028103 0.23591" fill="none" stroke="#257239" stroke-linecap="round" stroke-width=".13229"/>
  <circle cx="2.5965" cy="4.3702" r=".068029" fill="#9b9d45"/>
 </g>
 <g>
  <path d="m7.7725 3.7476 0.081746 0.38554s-0.3222-0.36508-0.6823-0.30314c-0.36009 0.061942-0.14456 0.36445 0.11504 0.32237 0.25959-0.04208 0.4855-0.40477 0.4855-0.40477z" fill="#ce6728"/>
  <path d="m6.4243 4.5914 5.172e-4 0.39411s0.23891-0.42429 0.604-0.43887c0.36509-0.014579 0.21744 0.32625-0.045229 0.33928-0.26266 0.013028-0.55929-0.29452-0.55929-0.29452z" fill="#ce6728"/>
  <path d="m8.4549 5.0647 0.048482-0.3187s-0.2458 0.3134-0.54279 0.27989c-0.29699-0.03351-0.13533-0.29075 0.078661-0.2687 0.21398 0.022054 0.41565 0.30752 0.41565 0.30752z" fill="#b3b3b3"/>
  <path d="m7.1523 6.6749 0.048482-0.3187s-0.2458 0.3134-0.54279 0.27989c-0.29699-0.03351-0.13533-0.29075 0.078661-0.2687 0.21398 0.022054 0.41565 0.30752 0.41565 0.30752z" fill="#b3b3b3"/>
 </g>
 <g transform="matrix(-2.4225 -.57508 -.57508 2.4225 15.184 -33.366)">
  <path d="m0.79238 16.008s-0.028306 0.04786-0.01331 0.17571c0.014996 0.12786 0.13164 0.10352 0.04987 0.23486-0.081767 0.13135-0.037458 0.19361-0.037458 0.19361" fill="none" stroke="#a3a385" stroke-linecap="round" stroke-width=".052917"/>
  <path d="m0.8735 15.975s0.17502 0.08029 0.10305 0.19687c-0.071969 0.11658-0.10202 0.23045-0.062692 0.31326 0.039331 0.08282-0.027468 0.15885-0.027468 0.15885" fill="none" stroke="#a3a385" stroke-linecap="round" stroke-width=".052917"/>
  <path d="m0.7028 15.987s-0.079319 0.07419 0.077311 0.0777c0.15663 0.0035 0.26945 0.0042 0.33173-0.01461 0.062277-0.01878 0.00894-0.07767 0.00894-0.07767" fill="#84846c"/>
  <path d="m1.047 16.603s-0.028306-0.04786-0.01331-0.17571c0.014996-0.12786 0.13164-0.10352 0.04987-0.23486-0.081766-0.13135-0.037458-0.19361-0.037458-0.19361" fill="none" stroke="#a3a385" stroke-linecap="round" stroke-width=".052917"/>
  <path d="m0.92202 15.994s-0.10582 0.12463-0.071081 0.16925c0.03474 0.04463 0.21919 0.05889 0.16749 0.14938s0.057319 0.18399 0.057319 0.18399" fill="none" stroke="#a3a385" stroke-linecap="round" stroke-width=".052917"/>
  <path d="m0.63823 15.976s0.028763-0.18401 0.27733-0.17088c0.24856 0.01313 0.26311 0.16342 0.26311 0.16342s-0.02234 0.04747-0.22611 0.06272c-0.20377 0.01524-0.31432-0.05526-0.31432-0.05526z" fill="#a3a385"/>
 </g>
</svg>
