<?xml version="1.0" encoding="UTF-8"?>
<svg width="32" height="32" version="1.1" viewBox="0 0 8.4667 8.4667" xmlns="http://www.w3.org/2000/svg">
 <path d="m0.75861 0.032556c-0.29225 6.8e-7 -0.52917 0.23692-0.52917 0.52917 6.8e-7 0.29225 0.23692 0.52917 0.52917 0.52917 0.18909 3.48e-5 0.36383-0.10083 0.45837-0.26458h0.2744v4.9713s0.019212 0.057856 0.097152 0.16743v0.79479h0.24495v-0.50953c0.08945 0.090654 0.20185 0.19383 0.3421 0.30954v0.74518h0.2434v-0.55397c0.09353 0.070106 0.19556 0.1436 0.30851 0.22066 0.02603 0.017762 0.051648 0.034697 0.076998 0.051677v0.75913h0.2434v-0.601c0.1436 0.090059 0.27463 0.16647 0.39274 0.23099v0.76171h0.24495v-0.63511c0.23911 0.11568 0.40591 0.17259 0.50798 0.20051v0.72347h0.24495v-0.72554c0.09736-0.0274 0.25188-0.079671 0.46664-0.1788v0.61547h0.24546v-0.73691c0.12819-0.067207 0.27072-0.14799 0.4284-0.24495v0.59015h0.2434v-0.74518c0.04857-0.032028 0.097919-0.064859 0.14883-0.099736 0.08795-0.06025 0.16856-0.1181 0.24391-0.17363v0.54105h0.2434v-0.72812c0.14434-0.11682 0.25886-0.22089 0.34933-0.31161v0.49455h0.2434v-0.77773c0.08518-0.12249 0.097152-0.18449 0.097152-0.18449v-4.9713h0.29611c0.094452 0.1636 0.26895 0.26443 0.45786 0.26458 0.29225-7e-7 0.52917-0.23692 0.52917-0.52917-6e-7 -0.29225-0.23692-0.52917-0.52917-0.52917-0.1889 1.4971e-4 -0.3634 0.10099-0.45786 0.26458h-0.29611v-0.1788h-0.97927v0.1788h-1.3384v-0.1788h-0.97927v0.1788h-1.3803v-0.1788h-0.97979v0.1788h-0.2744c-0.094544-0.16376-0.26928-0.26462-0.45837-0.26458zm1.7126 0.79375h1.3803v0.35192h-1.3803zm2.3596 0h1.3384v0.35192h-1.3384zm-0.92811 1.48h0.85421v1.1787h1.1787v0.85473h-1.1787v1.1782h-0.85421v-1.1782h-1.1787v-0.85473h1.1787z" fill="#333"/>
</svg>
