<?xml version="1.0" encoding="UTF-8"?>
<svg width="32" height="32" version="1.1" viewBox="0 0 8.4667 8.4667" xmlns="http://www.w3.org/2000/svg">
 <g>
  <path d="m4.7217 2.7823v0.68161h0.14883v0.6811h-0.085266v0.68058h-0.1912v0.14521h1.6299v1.0118h-0.19172v0.68058h-0.085266v0.20567h2.0903v-0.6811h0.14883v-0.6811h-0.25528v-0.6811h0.19172v-0.68058h0.085266v-0.6811h-0.14934v-0.68161z" color="#000000"/>
  <path d="m5.9307 7.8604v-0.68152h-0.14894v-0.68085h0.085106v-0.68085h0.19149v-0.68085h-3.3371v0.68085h-0.19149v0.68085h-0.085107v0.68085h0.14894v0.68152z" color="#000000"/>
  <path d="m2.8368 4.1889 2.1731-2.7119h-1.1746zm-0.41082-0.0016246-0.99772-2.7103h-1.1738zm0.20623-0.045653 0.97978-2.6647h-1.9604zm-2.4601-2.7682v-0.00326l-0.00163 0.00163zm4.8378-0.10597-0.55918-0.69775h-0.83388l0.22008 0.69775zm-1.3922 0-0.21112-0.67819 0.062765-0.019562h-1.6751l0.062765 0.019562-0.21112 0.67819zm-2.1911 0 0.22008-0.69775h-0.83388l-0.55836 0.69775z"/>
 </g>
</svg>
