<?xml version="1.0" encoding="UTF-8"?>
<svg width="32" height="32" version="1.1" viewBox="0 0 8.4667 8.4667" xmlns="http://www.w3.org/2000/svg">
 <g transform="matrix(.79541 0 0 .79541 .060475 1.25)" fill="#333">
  <circle cx="4.2772" cy="2.4986" r="2.2882"/>
  <path d="m4.2773 5.1015a4.048 4.048 0 0 0-3.9817 3.3326h7.9654a4.048 4.048 0 0 0-3.9838-3.3326z"/>
 </g>
 <path d="m8.2142 0.040246s-0.22263 0.36654-0.34696 0.37792c-0.056618-0.001945-0.12815-0.00484-0.21578-0.007663-0.7401-0.035484-0.82118-0.040765-0.99858-0.040765-0.02193 0-0.043641 6.4057e-4 -0.065285 0.001228-0.035906-6.8802e-4 -0.069579-0.001228-0.10697-0.001228-0.88713 0-1.546 0.48185-1.546 1.1307 0 0.16728 0.035342 0.3041 0.12658 0.48152-0.00442 5.22e-4 0.17225 0 0.17225 0l0.38007-0.24858c-0.096317-0.24332-0.11647-0.32426-0.11647-0.46619 0-0.28894 0.13168-0.50193 0.38007-0.61851 0.11896-0.054903 0.27129-0.080664 0.50849-0.085208 0.063624 0.001768 0.14343 0.007302 0.36382 0.02452l-0.41072 1.6524c-0.18249 0.7452-0.27868 0.87195-0.70955 0.89223l-0.17747 0.19769s0.22154-7.058e-4 0.21578 0c1.1778-2.867e-4 1.2593-0.012934 1.6647-0.23816l0.010115-0.040765h-0.17225c-0.1949 0.025987-0.45246 0.044793-0.69727 0.049654-0.046001-0.001803-0.10988-0.0053202-0.18482-0.0088885 0.39033-0.3295 0.51702-0.51219 0.6032-0.89745l0.39171-1.5724c0.46674 0.039322 0.50722 0.041684 0.60196 0.041684 0.024539 0 0.046572-9.4307e-4 0.067123-0.00245 0.042906 0.00223 0.068725 0.00245 0.10513 0.00245 0.23825 0 0.27373-0.050639 0.39539-0.54741l-0.065896-0.076317z" fill="#333" stroke-width=".26458"/>
</svg>
