<?xml version="1.0" encoding="UTF-8"?>
<svg width="32" height="32" version="1.1" viewBox="0 0 8.4667 8.4667" xmlns="http://www.w3.org/2000/svg">
 <path d="m4.1719 2.5229-1.8903 1.8903-1.8629-1.8629v4.3109h7.5065v-4.3109l-1.8629 1.8629-1.8903-1.8903zm-2.3709 2.7843a0.38788 0.38788 0 0 1 0.38809 0.38809 0.38788 0.38788 0 0 1-0.38809 0.38809 0.38788 0.38788 0 0 1-0.38809-0.38809 0.38788 0.38788 0 0 1 0.38809-0.38809zm2.3709 0a0.38788 0.38788 0 0 1 0.38809 0.38809 0.38788 0.38788 0 0 1-0.38809 0.38809 0.38788 0.38788 0 0 1-0.38757-0.38809 0.38788 0.38788 0 0 1 0.38757-0.38809zm2.3709 0a0.38788 0.38788 0 0 1 0.38809 0.38809 0.38788 0.38788 0 0 1-0.38809 0.38809 0.38788 0.38788 0 0 1-0.38757-0.38809 0.38788 0.38788 0 0 1 0.38757-0.38809z" fill="#333"/>
 <circle cx="4.1719" cy="2.065" r=".92416" fill="#333"/>
</svg>
