<?xml version="1.0" encoding="UTF-8"?>
<svg width="32" height="32" version="1.1" viewBox="0 0 8.4667 8.4667" xmlns="http://www.w3.org/2000/svg">
 <path d="m5.6866 1.7715s-0.37536 0.61798-0.58498 0.63717c-0.095458-0.00328-0.21606-0.00816-0.3638-0.012919-1.2478-0.059826-1.3845-0.06873-1.6836-0.06873-0.036974 0-0.073578 0.00108-0.11007 0.00207-0.060538-0.00116-0.11731-0.00207-0.18035-0.00207-1.4957 0-2.6066 0.81239-2.6066 1.9064 0 0.28204 0.059586 0.51271 0.21342 0.81184-0.007456 8.801e-4 0.29042 0 0.29042 0l0.64079-0.4191c-0.16239-0.41024-0.19637-0.5467-0.19637-0.786 0-0.48716 0.22201-0.84626 0.64079-1.0428 0.20056-0.092566 0.45739-0.136 0.85732-0.14366 0.10727 0.00298 0.24182 0.012311 0.6134 0.041341l-0.69247 2.7859c-0.30768 1.2564-0.46985 1.4701-1.1963 1.5043l-0.29921 0.33331s0.37352-0.00119 0.3638 0c1.9857-4.835e-4 2.1231-0.021806 2.8066-0.40153l0.017053-0.06873h-0.29042c-0.3286 0.043814-0.76285 0.075521-1.1756 0.083716-0.077557-0.0030354-0.18525-0.0089715-0.31161-0.014986 0.65809-0.55553 0.8717-0.86355 1.017-1.5131l0.66043-2.651c0.78692 0.066296 0.85518 0.07028 1.0149 0.07028 0.041372 0 0.078521-0.00159 0.11317-0.00413 0.072339 0.00376 0.11587 0.00413 0.17725 0.00413 0.40169 0 0.46151-0.085378 0.66663-0.92294l-0.1111-0.12867z" fill="#333" stroke-width=".26458"/>
 <path d="m8.2972 2.314s-1.544 0.2946-2.6546 1.5049c-0.11796 0.12855-0.22117 0.25118-0.31082 0.36819-0.039764 0.051899 0.59879 0.56531 0.56427 0.61502-0.051951 0.074818-0.77362-0.31557-0.81425-0.24557-0.44443 0.76588-0.23052 1.2479 0.20459 1.5535-0.44163 0.6202-0.52518 1.0856-0.52518 1.0856s0.28031-0.29397 0.73483-0.97249c0.52189 0.19987 1.1543-0.15547 1.9778-1.4176 0.21124-0.32378 0.36926-0.62832 0.48704-0.90569 0.02872-0.067627-0.35578-0.36506-0.33163-0.42935 0.026681-0.071031 0.46134 0.091581 0.48294 0.024904 0.23428-0.72324 0.18504-1.1815 0.18504-1.1815z" fill="#333"/>
</svg>
