<?xml version="1.0" encoding="UTF-8"?>
<svg width="100" height="100" version="1.1" viewBox="0 0 26.458 26.458" xml:space="preserve" xmlns="http://www.w3.org/2000/svg"><rect width="26.458" height="26.458" fill="#60c2ff"/><g fill="#fff"><path d="m27.179-0.69867-6.6709 5.8219-0.04134-2.8546-5.0984 0.2713-0.46561 2.3616-3.0096-1.5549-12.414 5.3718 0.23461 6.5748 1.3839-0.52865 1.0216 0.01705 0.40825 0.12661 0.4408 0.74931 0.98702 0.58808 0.68782-0.0036 0.58446-0.37879 0.4532 0.1571 0.5209-0.05943 0.17415-0.30077-0.57206-0.72916-0.053227-0.59015-0.22169-0.46044 0.30799-0.55139 0.64906-0.19224 0.91726-0.03256 0.44649-0.5855 0.55707-0.54984-0.00672-0.83148 0.17208-0.47852-0.00878-0.68885 0.49299-0.68678-0.26252-0.96377-0.082166-0.91778 0.98031-0.53847 0.59738 0.2372 0.63356-0.12196 0.3607-0.69918 0.77773-0.28319 0.34468-0.54726 1.5343-0.03669 0.77722 0.42685 1.8897 0.25692 1.1407-0.073938 0.86446-0.055225 1.3661 0.65515 0.66069 0.45992 0.50339 0.8785 0.57755 0.53427 0.22387 0.57561 0.52971 0.76392-0.08165 0.96687-0.36225 1.0738-0.06718 0.77567-0.56276 0.7152-0.75293 0.05994-1.324-0.15968-0.47439 0.4377-0.71159 0.28577 0.26562 0.84595 0.42943 0.12351 0.81184 0.42685 0.91778 0.46819 1.0185-0.22428 0.11937-0.84956-0.2899-0.96584 0.74828-0.6134 0.75448-0.13022 1.1178 0.49196 0.80512 0.06976 0.89504 0.66301 1.3457 0.11369z"/><path d="m15.356 19.138-0.54416 0.16123-0.66404-0.0098-0.73536 0.46147-0.94155 0.21704-0.83406-0.28939-1.1255 0.84646-1.0346 0.36019-0.31781 1.095-0.38189 0.12351-0.75913 0.57154-0.055294 0.416-0.82062 0.25218-0.21756 0.37879 0.080099 0.5271 0.70074 0.83509 0.44855 0.3576 0.44339 0.14263 0.80616 0.41393 1.2118-0.10387 0.99632 0.38499 0.27905-0.12092 0.30024-0.75913 0.74001-0.44028 0.56328 0.06821 0.80564-0.04186 0.45114 0.6656 0.38034 0.0036 1.0749 0.3669 0.65836-0.39894 0.73898 0.12351 0.52658-0.1049 0.9338 0.28319 0.34572-0.3452 0.51056-0.25477 0.44545-0.56017-0.36225-0.22583-0.46354-0.45992-0.71159 0.10749-0.54726-0.16795-0.75861 0.22841-0.73071 0.01964-0.19379-0.2837 0.1602-0.21911 0.46251 0.11627 0.79272-0.20154 0.02532-0.2465-0.61909-0.03876-0.18397-0.39998 0.37156-0.32298 0.25166-0.33176 0.95964 0.02274 0.1757-0.24805 0.57258-0.28164 0.69505 0.22841 0.34778-0.09147-0.2465-0.38137-0.34313-0.78445 0.27699-0.40153-0.09922-0.35398-0.28577-0.10387-0.29094 0.25063-0.02377 0.2837-0.60823 0.32711-0.66198-0.02946-0.84233 0.11731-0.78135-0.3266-0.12609-0.99581-0.46457-0.0987zm-1.896 1.5849h2.8045v1.7363h-2.8045z"/><path d="m2.9841 22.167 1.208 0.19322 1.1466-0.75642 0.49868 0.18358 0.50048 0.96026-0.16033 0.4312 0.052768 0.41239-0.40419 0.44743-0.92203 0.03724-1.088 0.31733-0.76987-0.57629-0.57187-0.29141z"/><path d="m6.2209 14.545-0.21912-0.71927 0.40971-0.27236 0.52117 0.0483-0.13092 0.98888z"/><path d="m21.775 14.058 0.30272-0.3451 0.19819 0.44552-0.16467 0.38387-0.27552-0.03536z"/></g><g fill="#3c9e3c"><path d="m27.024-0.31161-7.305 0.070797-0.83251 0.002584h-19.243l0.33176 15.259 1.1023-0.51522 1.093-0.02119 0.54312 0.31884 0.38034 0.75293 1.5038 0.51832 1.0516-0.9648-0.6196-1.0537 0.65216-0.93948 1.7885-0.40876 0.72709-1.3229-0.027905-1.2971 0.66249-0.7152-0.24288-0.91519-0.017053-1.139 1.1198-0.75034 1.0123 0.054777 0.61857-0.73277 0.94465-0.59997 1.8521-0.027389 0.63304 0.30024 1.6795 0.12919 0.77308 0.074931 0.9493-0.29301 0.50568 0.57114 0.65808 0.11719 1.5105 0.6873 1.7782 2.2986 0.108 1.2966-0.37982 1.2924 0.77205 1.203 1.4242 0.27802 1.1689 0.7736 1.3234 0.05064z"/><path d="m19.509 13.447 0.99364 0.12837 0.89437 0.80387-0.0274 1.0579-0.79258 0.22663-0.81637-0.60059-0.99811-0.33631-0.0796-0.6512z"/><path d="m15.174 19.416-1.5431 0.4253-0.51315 0.60565-1.4635-0.45527-0.89814 0.66973-1.1157 0.51263-0.35295 1.1043-1.0682 0.56431v0.9648l-0.82114 0.28629 0.70487 1.1136 1.2831 0.57309 1.124-0.13436 1.0992 0.4067 0.53537-0.7953 1.1627-0.67025 1.0232 0.20619 0.54932 0.65371 1.3193 0.3576 0.96687-0.49403 1.7844 0.32505 1.0537-0.73846-0.57258-0.6656-0.51056 0.42736-0.68937-0.46406-1.2547 0.29611-1.0408-0.48214 1.1772-1.1054 0.2744-0.77205 1.2718 0.03617 0.4253-0.66301 1.2444 0.34003-0.43977-0.86817-0.91829-0.05374-1.324 0.1819-1.0227-0.29301-0.36535-1.0609zm-0.53589 1.6237 0.59428 0.02739 0.45889 0.74931-1.0837 0.154-0.63149-0.47232z"/><path d="m5.0185 23.864-1.0321 0.24575-1.2514-0.65085 0.40399-1.0871 1.1265 0.18648 1.0752-0.76325 0.77053 0.88371z"/></g><path d="m18.418 6.4518 0.80773-1.161 0.079292-1.1879 0.11584-1.3196-0.18166-2.1372 0.47949-0.88694" fill="none" stroke="#60c2ff" stroke-linecap="round" stroke-width=".26458"/><g fill="#328432"><path d="m-0.72317 7.3571 1.5761 0.29943 1.1328-0.63286 1.1022 0.19298 0.98383-0.25443 0.74405-0.96573 0.87076 0.036023 0.93984 0.47759 0.91057 0.084177 0.73471-0.46393 0.45533-0.99122 1.2911-0.77428 1.6579 0.037906 0.98969 0.4582 1.2205-0.055137 1.3685 0.46844 1.2647-0.13267 1.2339-0.85497-0.29109-0.74365-0.64203-0.070678-0.47473-0.81395 0.22491-0.65484 0.9968-0.51566 0.40638-0.935 0.91279-0.79104h-19.243z"/><path d="m20.741-0.38186-0.51589 1.1817 0.57794 0.9378 1.1534 0.58994 0.40028 0.83381 1.1238 0.23098 0.80168 1.071-0.23171 0.99718 0.38871 0.75558 0.3618 1.315-0.26266 1.0576-0.73086 0.82115-0.59196 0.23559-0.11888 1.3636 0.05618 1.2285 0.99359 0.51331 1.277 0.08641 1.5991 0.40707 0.0013-13.556z"/><path d="m15.279 20.656-0.25086-0.86139-1.1723 0.35771-0.7103 0.77302-1.2833 0.11774-1.0489-0.0607-0.91766 0.54233-0.13616 1.0214-0.39829 0.82076 0.3424 1.0679 0.64457 0.74369 1.3012-0.0085 0.99953-0.55509 0.26533-0.79828 0.93064-0.44357 0.67476-0.78121-1.0597-1.0006 0.82627-0.75589z"/><path d="m4.3842 23.789-1.0489-0.32343-0.06306-0.72064 0.98527 0.06625 0.45446-0.18612 0.50587 0.63488z"/></g><g fill="none" stroke-dasharray="0.0661461, 0.198438" stroke-linecap="round" stroke-width=".066146"><path d="m-0.90801 14.871s1.2723-0.82586 2.2332-0.7768c0.79898 0.0408 1.5112 0.22461 1.6629 0.6124 0.33424 0.85413 1.128 0.95819 1.4803 0.46511 0.35232-0.49309-0.078393-1.2616 0.2941-1.7795 0.37249-0.51792 1.1409-1.3238 1.8156-1.498 0.67466-0.17421 1.1851-1.7216 1.0458-2.0926-0.13929-0.37093-0.31055-1.2698 0.025863-2.068 0.33641-0.79818 1.4987-1.64 2.0416-1.8031 0.54284-0.16316 1.4862-0.44933 1.5999-0.84885 0.11365-0.39952 0.75461-1.5552-0.11215-2.0621-0.86676-0.50697-0.88522-0.68387-0.5421-1.2914 0.34313-0.60749 1.78-0.88486 3.0386-0.49425 1.1698 0.36305 1.0929 2.1513 0.81253 2.5334-0.58976 0.80379-2.0543-0.058829-1.7228-0.80413 0.50557-1.1369 1.6763 0.15745 2.5124-0.33057 1.3443-0.78463 1.6086 0.042217 2.0266 0.050139 1.3666 0.025904 2.6551-0.48402 3.4558-0.028627 0.80077 0.4554 1.2326 1.0398 2.0713 1.3175 0.83863 0.27772 1.1021 1.3067 0.79773 2.0214-0.30436 0.71475-1.4033 1.1807-1.0437 2.0339 0.1374 0.32602 0.17332 1.3728 0.2319 1.8181 0.10816 0.82224-0.04392 1.5091-0.14288 1.9482-0.16016 0.71051-0.45482 1.0938-1.2972 1.7615-0.84234 0.66768-1.1687 1.5512-1.254 2.5585-0.08534 1.0074 0.42111 4.6861-1.0147 5.0789s-2.0891 0.11044-2.9256 0.84145c-0.83654 0.73101-2.2777-0.21233-3.2099-0.04028-0.93219 0.17205-3.316 1.3875-4.2621 1.5092-0.94612 0.12172-2.401 0.3737-3.3042 0.10292-0.90318-0.27078-1.108-0.31032-1.108-0.31032" stroke="#f00"/><path d="m14.793 22.351s0.43735 0.21849 0.64886 1.4214c0.20926 1.1901 1.6481 1.1259 2.253 1.2787 0.6049 0.15282 1.4857-0.07893 1.4857-0.07893" stroke="#fc0000"/><path d="m9.5111 5.8832s-0.44555-0.74896-0.77228-0.1274-0.93012 1.2392-1.9063 1.1923c-0.97619-0.046929-2.0356-0.85127-2.0356-0.85127" stroke="#f00"/></g><g transform="matrix(.14285 0 0 .14285 8.5937 5.4443)"><g transform="matrix(3.1256 0 0 3.1256 -11.821 -9.7028)" fill="#f1dabb"><circle cx="7.5373" cy="2.8014" r=".077961"/><rect x="7.4589" y="2.7997" width=".15672" height=".19197"/></g><g transform="matrix(3.1256 0 0 3.1256 -11.821 -9.7028)" fill="none" stroke="#b7a58e"><path d="m7.3765 2.9524v-0.061658h0.31192l-5.901e-4 0.061658" stroke-width=".026458"/><path d="m7.4516 2.9516v-0.060316m0.16186 0-3.063e-4 0.060316" stroke-width=".027601"/><path d="m7.5356 2.9471v-0.060268" stroke-width=".028243"/></g><rect x="11.196" y="-.52888" width="1.0565" height="1.1993" fill="#dcc7ab"/><path d="m10.654 0.2091 0.1725 0.1725 0.89588 1.6539 0.89588-1.6539 0.1725-0.1725z" fill="#b7a58e"/><rect x="10.827" y=".3816" width="1.7918" height="1.5447" fill="#dcc7ab"/><path d="m10.199 1.7093 0.1725 0.1725 1.3606 1.6539 1.3749-1.6539 0.1725-0.1725z" fill="#b7a58e"/><rect x="10.372" y="1.8818" width="2.7355" height="4.5792" fill="#dcc7ab"/><path d="m10.398 5.9732 2.6627-0.73172" fill="none" stroke="#b7a58e" stroke-linecap="round" stroke-width=".1654"/><path d="m10.398 3.465 2.6627-0.73172" fill="none" stroke="#b7a58e" stroke-linecap="round" stroke-width=".1654"/><g fill="#7b6f60"><rect x="11.137" y="3.5202" width=".34726" height=".41318"/><rect x="11.983" y="3.5202" width=".34726" height=".41318"/><rect x="11.137" y="2.258" width=".34726" height=".41318"/><rect x="11.983" y="2.258" width=".34726" height=".41318"/><rect x="11.137" y="4.8138" width=".34726" height=".41318"/><rect x="11.983" y="4.8138" width=".34726" height=".41318"/><rect x="11.137" y="6.0289" width=".34726" height=".41318"/><rect x="11.983" y="6.0289" width=".34726" height=".41318"/></g><rect x="13.53" y="5.9527" width=".84382" height=".85829" fill="#dcc7ab"/><rect x="8.7527" y="6.3627" width="5.9825" height=".86361" fill="#b7a58e"/><path d="m10.398 4.7133 2.6627-0.73172" fill="none" stroke="#b7a58e" stroke-linecap="round" stroke-width=".1654"/><rect x="11.544" y=".80997" width=".34726" height=".41318" fill="#7b6f60"/></g><g fill="#f00"><circle cx="1.4672" cy="14.112" r=".23128"/><circle cx="4.3122" cy="15.248" r=".23128"/><circle cx="5.938" cy="12.177" r=".23128"/><circle cx="7.4735" cy="9.2968" r=".23128"/><circle cx="9.567" cy="5.9748" r=".23128"/><circle cx="4.7721" cy="6.0843" r=".23128"/><circle cx="11.543" cy="3.4138" r=".23128"/><circle cx="13.202" cy="1.1344" r=".23128"/><circle cx="15.967" cy="2.3542" r=".23128"/><circle cx="19.815" cy="2.475" r=".23128"/><circle cx="23.655" cy="5.9552" r=".23128"/><circle cx="22.084" cy="3.6335" r=".23128"/><circle cx="22.672" cy="8.4857" r=".23128"/><circle cx="22.746" cy="11.614" r=".23128"/><circle cx="17.246" cy="21.521" r=".23128"/><circle cx="16.158" cy="24.69" r=".23128"/><circle cx="11.492" cy="22.507" r=".23128"/><circle cx="13.093" cy="3.8055" r=".23128"/><circle cx="20.273" cy="15.265" r=".23128"/><circle cx="20.682" cy="14.296" r=".23128"/><circle cx="19.525" cy="20.951" r=".23128"/><circle cx="14.785" cy="22.259" r=".23128"/><circle cx="19.479" cy="24.844" r=".23128"/><circle cx="8.7295" cy="23.486" r=".23128"/><circle cx="4.0797" cy="23.19" r=".23128"/></g><g fill="#fff"><path transform="matrix(.3611 0 0 .3611 .93779 9.0148)" d="m1.4757 13.542 0.13789 0.39668 0.41987 0.0086-0.33466 0.25372 0.12161 0.40197-0.34471-0.23987-0.34471 0.23987 0.12161-0.40197-0.33466-0.25372 0.41987-0.0086z"/><path transform="matrix(.3611 0 0 .3611 9.0315 .87825)" d="m1.4757 13.542 0.13789 0.39668 0.41987 0.0086-0.33466 0.25372 0.12161 0.40197-0.34471-0.23987-0.34471 0.23987 0.12161-0.40197-0.33466-0.25372 0.41987-0.0086z"/><path transform="matrix(.3611 0 0 .3611 11.009 -1.6874)" d="m1.4757 13.542 0.13789 0.39668 0.41987 0.0086-0.33466 0.25372 0.12161 0.40197-0.34471-0.23987-0.34471 0.23987 0.12161-0.40197-0.33466-0.25372 0.41987-0.0086z"/><path transform="matrix(.3611 0 0 .3611 19.282 -2.628)" d="m1.4757 13.542 0.13789 0.39668 0.41987 0.0086-0.33466 0.25372 0.12161 0.40197-0.34471-0.23987-0.34471 0.23987 0.12161-0.40197-0.33466-0.25372 0.41987-0.0086z"/><path transform="matrix(.3611 0 0 .3611 19.742 10.167)" d="m1.4757 13.542 0.13789 0.39668 0.41987 0.0086-0.33466 0.25372 0.12161 0.40197-0.34471-0.23987-0.34471 0.23987 0.12161-0.40197-0.33466-0.25372 0.41987-0.0086z"/><path d="m14.789 22.053 0.04979 0.14324 0.15162 0.0031-0.12084 0.09162 0.04391 0.14515-0.12448-0.08662-0.12448 0.08662 0.04391-0.14515-0.12085-0.09162 0.15162-0.0031z" stroke-width=".3611"/><path transform="matrix(.3611 0 0 .3611 8.1964 18.388)" d="m1.4757 13.542 0.13789 0.39668 0.41987 0.0086-0.33466 0.25372 0.12161 0.40197-0.34471-0.23987-0.34471 0.23987 0.12161-0.40197-0.33466-0.25372 0.41987-0.0086z"/><path transform="matrix(.3611 0 0 .3611 3.5445 18.09)" d="m1.4757 13.542 0.13789 0.39668 0.41987 0.0086-0.33466 0.25372 0.12161 0.40197-0.34471-0.23987-0.34471 0.23987 0.12161-0.40197-0.33466-0.25372 0.41987-0.0086z"/></g><path d="m18.172 3.0273 1.2486-0.24395 0.62724 0.29768 1.1014 0.14636 0.50609 0.80824-0.32161 0.66586-1.1599 0.088361-1.0882-0.80067-0.85038-0.22311z" fill="#60c2ff"/></svg>
