<?xml version="1.0" encoding="UTF-8"?>
<svg width="32" height="32" version="1.1" viewBox="0 0 8.4667 8.4667" xml:space="preserve" xmlns="http://www.w3.org/2000/svg"><g><rect y="4.4409e-16" width="8.4667" height="8.4667" fill="#60c2ff"/><g stroke-width=".59973"><path d="m5.171 3.386-0.32635 0.096694-0.39824-0.0058773-0.44102 0.27676-0.56468 0.13017-0.50021-0.17356-0.675 0.50765-0.62048 0.21602-0.1906 0.6567-0.22903 0.074073-0.45527 0.34277-0.033161 0.24949-0.49215 0.15124-0.13048 0.22717 0.048037 0.31612 0.42025 0.50083 0.26901 0.21446 0.26591 0.08554 0.48348 0.24825 0.72675-0.062295 0.59752 0.23089 0.16735-0.072519 0.18006-0.45527 0.44381-0.26405 0.33782 0.040907 0.48317-0.025105 0.27056 0.39918 0.2281 0.00216 0.64465 0.22004 0.39484-0.23926 0.44319 0.074072 0.31581-0.062911 0.56003 0.16984 0.20734-0.20703 0.3062-0.15279 0.26715-0.33595-0.21725-0.13544-0.278-0.27583-0.42676 0.064465-0.32821-0.10072-0.45496 0.13698-0.43823 0.011779-0.11622-0.17014 0.096077-0.13141 0.27738 0.06973 0.47542-0.12087 0.015185-0.14783-0.37129-0.023246-0.11033-0.23988 0.22284-0.1937 0.15093-0.19897 0.57552 0.013638 0.10537-0.14876 0.34339-0.16891 0.41684 0.13698 0.20857-0.054857-0.14783-0.22872-0.20579-0.47046 0.16612-0.24081-0.059506-0.21229-0.17138-0.062294-0.17449 0.15031-0.014255 0.17014-0.36477 0.19618-0.39701-0.017668-0.50517 0.070354-0.4686-0.19587-0.07562-0.59722-0.27862-0.059193zm-1.1371 0.95051h1.6819v1.0413h-1.6819z" fill="#fff"/><path d="m5.0618 3.5527-0.92544 0.25506-0.30775 0.36323-0.8777-0.27304-0.53864 0.40166-0.66912 0.30744-0.21167 0.66228-0.64063 0.33843v0.57862l-0.49246 0.1717 0.42273 0.66786 0.76951 0.3437 0.6741-0.08058 0.65922 0.24391 0.32108-0.47696 0.69731-0.40197 0.61364 0.12366 0.32944 0.39205 0.79122 0.21446 0.57986-0.29628 1.0702 0.19494 0.63194-0.44288-0.34339-0.39918-0.3062 0.2563-0.41344-0.27831-0.75248 0.17759-0.6242-0.28915 0.706-0.66294 0.16457-0.46302 0.76274 0.021692 0.25506-0.39763 0.7463 0.20393-0.26374-0.52067-0.55073-0.032229-0.79404 0.10909-0.61334-0.17573-0.21911-0.63625zm-0.32139 0.97378 0.35641 0.016427 0.27521 0.44938-0.64993 0.092358-0.37872-0.28326z" fill="#3c9e3c"/><path d="m5.1248 4.2964-0.15045-0.5166-0.70306 0.21453-0.42599 0.4636-0.76963 0.070612-0.62906-0.036404-0.55035 0.32525-0.081659 0.61256-0.23887 0.49223 0.20535 0.64045 0.38657 0.44601 0.78037-0.0050976 0.59945-0.3329 0.15913-0.47875 0.55813-0.26602 0.40467-0.46851-0.63553-0.60009 0.49554-0.45333z" fill="#328432"/></g></g><g transform="matrix(.44168 0 0 .44168 3.8043 -128.72)"><path d="m8.4605 295.45-4.0292 0.0165s0.034217 0.31903 0.45372 0.56275c0.21345-6e-3 0.62487-0.0151 1.0118-3e-3 0.48614 0.0147 1.3746-0.022 1.7611-3e-3 0.57064-0.24859 0.80254-0.57361 0.80253-0.57361z" fill="#957a30"/><g fill="none" stroke="#957a30" stroke-width=".17648"><path d="m6.2391 295.54v-2.3804"/><path d="m7.2246 295.6v-2.0713"/><path d="m5.2702 295.59v-2.0713"/></g><g fill="#313131"><path d="m4.6856 294.14 1.186-0.7871 0.016703 1.5117-1.2194 0.80141z"/><path d="m5.627 294.14 1.186-0.7871 0.016703 1.5117-1.2194 0.80141z"/><path d="m6.6352 294.14 1.186-0.7871 0.016703 1.5117-1.2194 0.80141z"/></g><g fill="none"><path d="m5.9635 293.56h0.5596" stroke="#957a30" stroke-width=".13229"/><g stroke="#5f4e1f" stroke-width=".19844"><path d="m4.8777 295.77h0.22551"/><path d="m5.3078 295.77h0.22551"/><path d="m5.7505 295.77h0.22551"/><path d="m6.1931 295.77h0.22551"/><path d="m6.6525 295.77h0.22551"/><path d="m7.1035 295.77h0.22551"/><path d="m7.5462 295.77h0.22551"/></g></g></g><g fill="none" stroke="#f00" stroke-linecap="round"><path d="m3.7733 5.5111s0.68312 0.11995 1.4071 0.17129c0.72395 0.051341 1.4989-1.2344 1.3742-1.947s-1.5702-1.2042-1.9481-2.0734c-0.37792-0.86919-0.16889-2.024-0.16889-2.024" stroke-dasharray="0.26458436,0.74083622" stroke-width=".26458"/><path d="m2.4078 5.0067 0.88208 0.88208" stroke-width=".26458"/><path d="m3.2898 5.0067-0.88208 0.88208" stroke-width=".26458"/></g></svg>
