<?xml version="1.0" encoding="UTF-8"?>
<svg width="200" height="250" version="1.1" viewBox="0 0 52.917 66.146" xmlns="http://www.w3.org/2000/svg">
 <g transform="translate(0 2.1167)" fill="#888">
  <path d="m32.064 0.53373c-1.4079 0.00151-3.1207 0.15803-4.5476 0.32297-2.8538 0.32988-3.3382-0.013951-3.3382-0.013951 1e-6 -2e-7 -0.19963 0.35202 0.36483 0.49918s1.3095 0.098183 1.3095 0.098183-3.4213 1.7316-3.5094 3.3051c-0.08808 1.5736-0.69362 3.9298-1.5156 4.9355-0.82202 1.0057-1.5487 0.76739-1.5487 0.76739s0.45209 0.23487 1.0609 0.05994c0.60882-0.17493 1.5291-1.0278 1.5291-1.0278s-0.11306 0.38041-0.32607 0.72916c-0.21302 0.34874-0.26799 1.2755-0.31263 1.8241-0.04465 0.54866-0.33795 1.1172-0.33795 1.1172s0.42621-0.38322 0.54776-1.1126c0.12154-0.72934 0.53588-1.4991 0.53588-1.4991s0.0914 1.5168-0.3979 2.3094c-0.48932 0.7926-0.95704 1.187-0.95704 1.187s0.60679-0.16127 1.0718-0.81647c0.46497-0.65521 0.06046 0.62425 0.06046 0.62425s0.21746-0.34327 0.37518-1.2485c0.08917-0.51183 1.1911 1.8183 1.1477 2.9978-0.03336 0.90651-1.2068 0.68952-1.2068 0.68952l-0.76326 0.48834s-0.21544 1.0783-0.35535 2.2604c-0.13991 1.1823-0.96736 1.4304-0.96736 1.4304s-2.2743 2.4495-3.2101 3.3073c-0.93579 0.85777-1.2851 4.6205-1.4563 7.7107-0.23603 4.26-0.80424 10.062-0.80424 10.062l12.524 10.133 11.472-10.134s-0.44468-13.631-0.80252-15.757c-0.35784-2.1256-2.7662-2.6293-2.7662-2.6293s0.56221-3.3673 0.57514-4.1491c0.01294-0.78165-1.651-1.3823-1.651-1.3823s0.0921-0.656 0.32919-1.2821c0.23709-0.62608 0.34985 0.24856 0.34985 0.24856s0.1394-0.87812 0.32556-1.3565c0.18616-0.47836 1.0159-1.7441 1.0159-1.7441s0.0476 0.69579-0.29765 1.757c-0.34525 1.0612-0.92912 1.7012-0.92912 1.7012s0.39946-0.25456 0.89761-1.1643c0.49815-0.9097 0.77564-1.773 0.77564-1.773s2.65e-4 0.1392 0.23564 0.65836c0.23531 0.51916 0.59065 1.1317 0.59065 1.1317s-0.2334-0.59716-0.31728-1.3069-0.09922-1.1839-0.09922-1.1839 0.54604-0.34716 0.62062-1.1431c0.07459-0.79591-0.10025-4.4188-0.10025-4.4188s0.41722 0.22991 0.80768 2.1383c0.39047 1.9084-0.10594 2.5936-0.10594 2.5936s0.70608-0.76564 0.48627-2.4541-1.0594-3.8896-1.0594-3.8896 0.18114 0.067941 0.79943 0.85369c0.61827 0.78575 0.21859 1.8159 0.21859 1.8159s0.68487-0.35094 0.19637-1.5322c-0.48849-1.1812-1.387-1.6779-1.387-1.6779s-0.04099-0.44587-0.37155-0.95291-1.3456-1.6123-1.3456-1.6123-0.30337-0.97805-0.71778-1.8888c-0.2072-0.45534-1.3103-0.60869-2.718-0.60718z" stroke-width=".26458"/>
  <path d="m20.805 28.955-9.743-9.926s-0.6985-0.66846 0.24172-1.6167c0.94025-0.94828 3.2907 2.0288 3.2907 2.0288l8.3967 8.6471"/>
  <path d="m20.177 30.902-4.0436-16.541s-0.31968-1.1429 1.3858-1.4428c1.7054-0.29993 2.279 4.2697 2.279 4.2697l3.421 14.347"/>
 </g>
</svg>
