<?xml version="1.0" encoding="UTF-8"?>
<svg width="200" height="250" version="1.1" viewBox="0 0 52.917 66.146" xmlns="http://www.w3.org/2000/svg">
 <g transform="translate(0 -288.53)">
  <g>
   <path d="m38.601 349.72s1.8986 3.5636 2.7403 5.0554 1.1812 3.2128 1.1812 3.2128l2.5986 1.4174-1.8426-7.5123-4.0632-7.087-3.6853 2.5041z" fill="#761414"/>
   <path d="m38.955 339.92s-0.26733 1.0373 1.1973 4.4864c1.4647 3.449 2.7923 4.4446 3.7845 6.7597 0.99219 2.3151 3.9721 6.1617 3.9721 6.1617s-3.7798 5.1499-3.9688 5.0082-1.4174-4.3467-1.4174-4.3467l1.8426-0.8977s-1.6536-2.1734-2.8348-4.1105c-1.1812-1.9371-3.449-5.7641-3.449-5.7641l-1.7009-7.5595z" fill="#a5861c"/>
   <path d="m24.616 344.99s-0.04725 1.9135-1.2284 4.8664c-1.4632 3.6579-6.0004 11.528-6.0004 11.528h24.19s0.23624-4.583-1.4647-8.4572c-1.7009-3.8742-1.9371-9.0714-1.9371-9.0714l-8.6935-0.85045z" fill="#1a1a1a"/>
   <path d="m22.835 351.11s5.4661 1.1131 10.144 1.1604c4.6775 0.0473 6.3812-1.441 6.3812-1.441s0.34705 0.61997 0.76838 1.8995 0.65714 2.0693 0.65714 2.0693-1.8064 1.9608-7.3815 1.7245c-5.5751-0.23624-12.106-2.5513-12.106-2.5513s0.08457-0.44902 0.65955-1.5119c0.57498-1.0629 0.87786-1.3493 0.87786-1.3493z" fill="#bababa"/>
   <path d="m20.487 331.69s0.12454 6.3416 1.3888 8.3432c1.1986 1.8978 2.8112 2.764 2.8112 2.764s3.5672 0.4016 6.9689-0.63784c3.4018-1.0394-7.276-13.229-7.276-13.229z"/>
   <path d="m14.107 326.6s-0.63784 1.3465-1.0631 2.7167c-0.42522 1.3702-0.89769 2.8821-0.89769 2.8821l7.1922 2.7417 0.772-1.5892 1.1879-2.4549" fill="#7f5c38"/>
   <path d="m11.812 332.09s2.1734-0.33073 4.8664 0.42522c2.6931 0.75595 3.7282 1.5085 3.7282 1.5085s-1.3186 2.224-3.303 5.4368c-1.9844 3.2128-3.9215 4.7247-3.9215 4.7247l-3.9079 0.42217 1.5455-7.273s0.56696-1.5592 0.85045-2.8821 0.14174-2.3624 0.14174-2.3624z" fill="#761414"/>
   <path d="m13.418 345.23s1.5592 0.42522 3.26 2.5041 3.9215 4.5357 5.1499 5.2917c1.2284 0.75595 0.61421 3.071 0.61421 3.071l-2.6458 0.56697s-3.5435-3.0238-5.6696-4.4885-4.6775-3.2128-4.6775-3.2128z" fill="#761414"/>
   <path d="m10.82 337.34s0.89769 0.47247 2.7876 0.66145c1.8899 0.18899 3.2128 0 3.2128 0l-1.8899 2.5513s-1.1812-0.80319-1.7481 0.8032c-0.56696 1.6064-2.9293 2.2679-2.9293 2.2679s1.8899-0.14175 2.9293 0.56696c1.0394 0.70871 1.8899 2.8821 0.47247 4.583-1.4174 1.7009-1.6536 1.9371-1.6536 1.9371s-6.6146-3.449-6.4256-4.2995c0.18899-0.85045 2.3624-3.3545 3.5435-5.1972 1.1812-1.8426 1.7009-3.8742 1.7009-3.8742z" fill="#a5861c"/>
   <path d="m24.687 342.8s3.8979-2.0553 7.6304-2.1025c3.7325-0.0472 6.0949 0.8032 6.0949 0.8032l-0.23623 2.3624s-2.4568 1.9371-6.4256 2.0789c-3.9688 0.14175-7.1343-0.94494-7.1343-0.94494z" fill="#761414"/>
   <path d="m35.955 324.96s4.0686 1.7935 3.8014 4.8002c-0.26727 3.0068-1.47 6.8154-1.47 6.8154l-8.0849-7.4836z" fill="#7f5c38"/>
   <path d="m29.082 320.34-1.9625 2.1878 1.0867 1.7245 4.3467-2.1497s0.2008-0.10631 0.6024 0.30711c0.4016 0.41341 0.44885 0.66145 0.44885 0.66145s0.6024-0.36616 0.82682-0.82682c0.22442-0.46066 0.0118-1.0867 0.0118-1.0867l2.1025 0.55515s-0.21725-0.96463-0.99219-1.9371l-0.77494-0.97249-4.009-0.0333z" fill="#2e8b2c"/>
   <path d="m21.923 317.4 2.6328 1.6857s0.30068 2.2551-0.48443 2.9734c-0.7851 0.71829 0.11694 2.823 0.11694 2.823l5.8465-1.0023s-0.96885-1.7707-1.0357-2.3553c-0.06682-0.58465 0.08352-1.1861 0.08352-1.1861l3.3325-1.1108 4.0675-8.1434-14.366-2.1382s-0.22082 8.6223-0.19393 8.4538z" fill="#7f5c38"/>
   <path d="m23.936 321.32s0.31702 0.49591 2.8915 0.91796c2.0379 0.33408 2.1549-1.186 2.1549-1.186l1.5368 0.0835 1.3531 1.47s1.1065 0.41207 2.1932 1.0735c1.0867 0.66145 1.8899 1.2757 1.8899 1.2757s-0.04725 2.8348 1.5592 5.2444c1.6064 2.4096 3.449 3.6853 2.9293 6.9453-0.51972 3.26-2.0789 4.6774-2.0789 4.6774s-0.8032 0.66146-2.7403-0.18899c-1.9371-0.85044-3.3073-0.94494-3.3073-0.94494s-2.2206 1.0394-4.5357 0.14175c-2.3151-0.8977-4.1105-2.7403-4.8664-5.1027-0.75595-2.3624-1.3702-2.5513-1.3702-2.5513l-0.97123 0.17891s-1.8163-1.8326-3.5172-3.7697c-1.7009-1.9371-3.827-3.449-3.827-3.449s2.8821-1.9371 4.9609-2.6931 5.348-1.0089 5.348-1.0089z" fill="#1a1a1a"/>
  </g>
  <path d="m21.348 322.58s1.3698 1.2027 4.3431 2.372c2.9734 1.1693 5.5793 4.5436 6.9824 6.6149 1.4032 2.0714 1.637 5.0113 1.637 5.0113" fill="none" stroke="#ceab71" stroke-linecap="round" stroke-width=".52917"/>
  <g>
   <path d="m17.446 323.74s2.8699 0.41254 6.3662 3.9561c3.4963 3.5435 5.8114 6.4728 8.221 8.1737l2.4096 1.7009s2.7876-3.449 2.2206-5.6696-1.5592-3.2128-2.4096-5.4334c-0.85045-2.2206-0.99505-3.2348-0.99505-3.2348s-0.10114-0.10606-0.63264-0.33747-0.75451-0.28888-0.75451-0.28888 0.44508 2.1602 1.7207 4.4753c1.2757 2.3151 2.7876 3.4018 2.1734 5.6224-0.61421 2.2206-1.4647 3.1183-1.4647 3.1183s-2.8821-1.0867-5.4807-4.205c-2.5986-3.1183-5.3862-5.6224-6.7563-7.1343-1.3702-1.5119-1.6088-1.6542-1.6088-1.6542s-0.31802-6e-3 -1.5538 0.37466c-1.2358 0.38076-1.4554 0.53623-1.4554 0.53623z" fill="#761414"/>
   <path d="m19.702 356.83s-0.65118-0.24707 0.75595-2.2915c0.94504-1.373 1.5119-1.5592 1.5119-1.5592s0.42522-0.33073 1.6064 0.23624c1.1812 0.56696 4.016 2.3624 3.4018 3.3545-0.61421 0.99219-1.3702-0.56696-1.2284 0.56697s-0.7087 0.0945-0.7087 0.94494c0 0.85045-0.89769 0.37797-0.89769 0.8032 0 0.42522-4.4412-2.0552-4.4412-2.0552z" fill="#7f5c38"/>
   <ellipse transform="rotate(-4.7541)" cx="6.2163" cy="356.51" rx="1.3938" ry=".99219" fill="#761414" style="paint-order:markers fill stroke"/>
   <path d="m34.538 305.73s0.87407 0.18899 1.8426-0.11812c0.96856-0.30711 1.252-2.0316 1.4647-1.4647 0.21261 0.56697 1.1576 2.7876 0.25986 5.3625s-1.9844 2.6458-1.9844 2.6458z" fill="#7f5c38"/>
   <path d="m18.742 323.18s0-1.0023 0.03341-1.637c0.03341-0.63477 0.53454-1.1359 0.53454-1.1359s-0.10023 0.86863 0.50113 2.0713c0.60136 1.2027 1.2361 1.3698 1.2361 1.3698s0.78065-0.82405 1.0641-1.1548 0.61421-0.82682 0.61421-0.82682 1.1339 0.0236 1.5119-0.61422c0.37798-0.63783 0.09449-1.8662 0.09449-1.8662s0.47247 1.252 0.75595 0.92131c0.28348-0.33073-0.44885-2.6222-0.44885-2.6222s-1.1339-1.441-1.3702-2.5513c-0.23624-1.1103-0.25986-1.6773 0.25986-2.2442 0.51972-0.56696 1.5119-1.0631 3.26-1.3465s2.5041-0.33073 2.5041-0.33073-0.49609 0.35435-1.0158 0.82682c-0.51972 0.47247-0.61421 0.63784-0.61421 0.63784s0.77958 0.16536 2.008-0.0473c1.2284-0.21261 2.9057-1.3229 2.9057-1.3229s-0.90951 0.85044-1.5473 1.2993c-0.63784 0.44885-1.63 0.75595-1.63 0.75595s0.7087-0.1063 1.7363-0.34254c1.0276-0.23623 1.3702-0.41341 1.3702-0.41341s-0.37798 0.51972-0.86226 0.82682c-0.48428 0.30711-0.67327 0.54334-0.67327 0.54334s0.31892-0.17717 1.1812-0.59058c0.86226-0.41342 1.4056-1.252 1.4056-1.252l0.74414 0.0236s-0.05743 1.2841-0.45834 2.4701-0.41761 0.73499-0.60136 2.1048c-0.18375 1.3698-0.80181 2.2885-1.9544 2.7395-1.1526 0.45102-2.205 0.86863-2.205 0.86863l5.6962-1.5368s0.41761 0.11693 1.3029-0.13364 0.98556-0.41761 0.98556-0.41761-0.73499-0.16704-1.3196-0.31738c-0.58465-0.15034-0.98555-0.48443-0.98555-0.48443l1.2862-0.0167-0.73499-0.70158s1.0858-0.96886 1.7874-2.4221c0.70158-1.4533 0.68488-2.9734 0.68488-2.9734l0.15034 1.4199s0.48443-2.1214-0.61806-4.1594-3.1738-3.5246-3.558-4.3097c-0.3842-0.78511 0.58465-1.754 0.58465-1.754s-0.86862 0.78511-2.6059-0.11693c-1.7373-0.90203-3.0068-0.45102-3.0068-0.45102s-3.3075-0.46772-6.4479 2.8732-2.6288 4.5311-3.621 5.7595c-0.99219 1.2284-2.1616 1.193-2.1616 1.193s0.28348 0.22442 0.8032 0.33073c0.51972 0.1063 0.94494 0.0709 0.94494 0.0709s-0.77958 0.41341-1.2166 0.92131c-0.43704 0.50791-0.57878 1.0158-0.57878 1.0158s0.61421-0.24804 1.0512-0.49609 0.87407-0.48428 0.87407-0.48428-0.35435 0.89769-0.77958 1.8781c-0.42522 0.98037-0.69689 1.7481-0.69689 1.7481s0.41341 0.0354 0.88588-0.10631c0.47247-0.14174 0.75595-0.29529 0.75595-0.29529s-1.004 1.6418-1.0749 3.4963c-0.07087 1.8544 1.2727 3.3096 1.2727 3.3096z" fill="#2e8b2c"/>
  </g>
  <path d="m24.522 312.5s1.3029-0.16705 2.3386 0.23386c1.0357 0.4009 1.2695 1.019 1.2695 1.019" fill="none" stroke="#212121" stroke-linecap="round" stroke-width=".26458"/>
  <path d="m30.87 314.41s0.68488-0.3842 1.5034-0.33408c0.81851 0.0501 1.2862 0.51783 1.2862 0.51783" fill="none" stroke="#212121" stroke-linecap="round" stroke-width=".26458"/>
  <ellipse transform="rotate(5.8093)" cx="58.283" cy="309.05" rx=".37585" ry=".60971" fill="#212121" style="paint-order:markers fill stroke"/>
  <ellipse transform="rotate(15.703)" cx="115.72" cy="294.19" rx=".32842" ry=".53277" fill="#212121" style="paint-order:markers fill stroke"/>
  <path d="m27.111 318.05s0.22125 0.30671 0.85909 0.56657c0.63783 0.25986 1.193 0.22443 1.441 0.4016 0.24805 0.17718 0.35435-0.0236 0.35435-0.0236" fill="none" stroke="#212121" stroke-linecap="round" stroke-width=".26458"/>
  <g>
   <path d="m30.061 317.01s0.94494 0.12992 0.57878 0.59058-0.7087 0.54334-1.0394 0.42522c-0.33073-0.11811-0.75595-1.0158-0.4016-1.063 0.35435-0.0473 0.86226 0.0473 0.86226 0.0473z" fill="#212121"/>
   <path d="m20.151 310.71s0.51972-0.47247 1.3938-1.4174 2.1025-1.9608 3.1183-2.7876c1.0158-0.82682 2.1025-1.4883 2.1025-1.4883s-0.49609-0.42522-2.5513-1.6773c-2.0552-1.252-3.7798-2.5513-4.4648-3.2128-0.68508-0.66145-0.56696 0.30711-0.70871 2.197s-0.25986 5.268 0.0945 6.3784c0.35435 1.1103 1.0158 2.008 1.0158 2.008z" fill="#7f5c38"/>
   <path d="m19.945 301.43c1e-6 0 0.18348 0.55155 0.2837 1.8211 0.10022 1.2695-0.0332 1.7703 0.13384 3.9419 0.11618 1.5103 0.67655 2.0829 1.0072 2.2918 0.05788-0.0618 0.11322-0.12013 0.17467-0.18656 0.53038-0.57338 1.1916-1.1729 1.8562-1.7405-0.52161-0.33042-1.7687-1.2864-2.3032-3.1378-0.68488-2.372-1.1524-2.99-1.1524-2.99z" fill="#e9e6cd"/>
  </g>
  <path d="m23.739 322.56s2.8878 1.5903 4.6919 0.93883c1.9606-0.70799 2.0408-2.1191 2.0408-2.1191" fill="none" stroke="#ceab71" stroke-linecap="round" stroke-width=".52917"/>
  <path d="m34.311 338.28s-0.33409 0.46772-1.4366 0.83522c-1.1025 0.36749-1.3363 1.637-0.63476 2.8063 0.70158 1.1693 1.9377 0.10022 1.9377 0.10022s1.3698 1.3364 2.0379-0.20045c0.66817-1.5368-0.20045-2.0713-0.96885-2.6727-0.7684-0.60136-0.93544-0.86863-0.93544-0.86863z" fill="#bababa"/>
 </g>
</svg>
