<?xml version="1.0" encoding="UTF-8"?>
<svg width="200" height="250" version="1.1" viewBox="0 0 52.917 66.146" xmlns="http://www.w3.org/2000/svg">
 <g transform="translate(0 -288.53)">
  <g>
   <path d="m3.658 340.62s-0.88632 0.93557-0.88632 1.7234c0 0.78784 0.68936 1.6742-0.83708 2.9052-1.5264 1.231-0.8266 3.065-1.2258 4.5773-0.35274 1.3365-0.67516 6.5651-0.67516 6.5651l6.3817 1.1676s-0.68936-2.3635 0.9848-4.2346c1.6742-1.8711 1.9696-2.8559 1.9696-2.8559s1.6742-1.2802 1.3787-2.5605c-0.29544-1.2802 1.5757-2.9544 1.5757-2.9544l-3.4468-5.4164z" fill="#232323"/>
   <path d="m24.413 300.95s-0.44316 0.33237-0.8617-0.65243c-0.41854-0.98479 0.52933-1.7726 0.77553-1.9204s0.52933-0.33237 0.97249 0.29544c0.44316 0.62781 0.70167 1.1325 0.70167 1.1325z" fill="#704f18"/>
   <path d="m31.589 299.37s0.7386-0.77553 1.2064-0.97249 0.81246 0.0493 1.1448 0.60319c0.33237 0.55394 0.3693 1.5264-0.19696 2.0188-0.56626 0.4924-1.1818 0.50472-1.1818 0.50472s-0.94787-2.1419-0.97249-2.1542z" fill="#704f18"/>
   <path d="m32.032 299.78s0.56626-0.87402 1.0217-0.60319c0.45547 0.27082 0.83708 1.1325 0.32006 1.1818-0.51702 0.0493-0.97249 0.18466-0.97249 0.18466z" fill="#f4d9ac"/>
   <path d="m24.843 300.22s-0.87401-0.0493-0.6155-0.65243c0.25851-0.60319 0.4924-0.7386 0.72629-0.2462 0.23389 0.49239 0.32006 0.66474 0.32006 0.66474z" fill="#f4d9ac"/>
   <path d="m23.634 307.64s0.33551-0.53 0.28627-1.244c-0.04924-0.71399-0.64012-1.9942-0.51702-2.6097 0.1231-0.61549 0.29544-0.9848 0.29544-0.9848l-0.2462-0.0492s0.34468-1.1571 1.1079-2.3635c0.76322-1.2064 0.91094-2.1912 3.8407-2.2897 2.9298-0.0985 3.4222 1.1818 4.013 2.1666s1.6249 2.4866 1.6249 2.4866l-0.09849 0.24619s0.46778 0.83708-0.02463 2.3881c-0.4924 1.551-0.39392 1.6988-0.46778 2.8559-0.07386 1.1571 0.6155 1.9942 0.6155 1.9942l-3.2252 3.6438-8.3954-1.8219z" fill="#a56f16"/>
   <path d="m42.916 345.67s0.57962 2.1305 1.0671 3.3143c0.29361 0.71306 1.5231 1.0057 1.3925 1.8519-0.07791 0.5048 1.43 2.1269 1.4518 3.1605 0.03663 1.7357 0.7962 4.1044 0.7962 4.1044l5.561 0.31214s-0.36706-3.0304-0.62672-5.2923c-0.2705-2.3563-1.0445-4.1781-1.0445-5.362s-0.06847-2.4617-0.73321-2.8802c-0.66474-0.41853-0.14772-1.1818-0.68936-2.5112-0.54164-1.3295-1.3049-1.9696-1.3049-1.9696z" fill="#232323"/>
   <path d="m44.207 327.94s0.8617 2.3389 1.6988 5.1456c0.83708 2.8067 1.9696 4.924 2.7082 5.5149 0.7386 0.59087 0.4924 0.59087 0.7386 1.3787 0.2462 0.78783 0.68936 1.6742 0.68936 1.6742s-1.3787-0.39392-3.5945 1.3787c-2.2158 1.7726-3.4209 3.5453-3.4209 3.5453l-0.77434-0.76838s0.13927-1.532-1.0097-4.1781c-1.149-2.6462-1.5668-3.3077-1.2534-4.387 0.31336-1.0794-1.9846-3.1336-1.9846-3.1336l0.31336-5.7798z" fill="#a5a5a5"/>
   <path d="m37.781 313.39s1.5757 0.34468 3.9884 3.5945c2.4128 3.2498 2.3635 5.4656 2.4128 7.189 0.04924 1.7234 0.4924 4.4316 0.4924 4.4316s-1.0833 1.1325-5.0225 2.0681c-3.9392 0.93556-4.3331-2.1173-4.3331-2.1173l-0.39392-12.704z" fill="#eaeaea"/>
   <path d="m17.396 311.81s1.5264-0.59087 3.4468-1.6742c1.9204-1.0833 9.9957 3.7447 9.9957 3.7447l4.8255-2.1691 2.1173 1.6742s-0.44316 2.2158-0.19696 5.2194c0.2462 3.0036 1.7726 5.7611 1.428 11.325-0.34468 5.5641 0.87922 13.441 0.87922 13.441l-2.2579 3.3994-19.991-2.7082-0.19696-4.0869s0.83708-4.3331-1.5264-8.3708c-2.3635-4.0377-1.9204-12.31-1.9204-12.31z" fill="#232323"/>
   <path d="m27.441 323.78s-3.2243 1.5568-5.7312 3.9244c-2.5069 2.3676-3.2032 3.6907-3.2032 3.6907s1.0445-3.6211 4.0389-6.685c2.9943-3.064 5.2923-3.8996 5.2923-3.8996s-2.9943-0.76599-5.3619-2.298c-2.3676-1.532-4.1781-3.621-4.1781-3.621s7.3814 4.1781 11.002 3.8996c3.6211-0.27855 7.7992-3.6211 7.7992-3.6211s-1.1057 3.0217-2.9655 4.1036c-1.7237 1.0026-3.3017 1.6762-3.3017 1.6762s5.349 2.6579 6.7277 4.7998c1.3787 2.1419 1.5018 3.3483 1.5018 3.3483s-2.462-3.1021-5.2687-4.4316c-2.8067-1.3295-6.3519-0.88632-6.3519-0.88632z" fill="#a5a5a5"/>
   <path d="m23.634 307.64s-0.87101 1.413-2.7914 2.4962c-0.05158 0.0291-0.09927 0.054-0.15026 0.0824 0.54157 1.0041 3.5773 6.2182 8.4716 6.6631 5.4164 0.4924 7.3454-4.4474 7.3454-4.4474l0.01401-0.043-0.85954-0.67967c-1.2063-0.95379-1.934-2.4585-1.934-2.4585s-1.562 2.6062-4.8611 2.1138c-3.2991-0.4924-5.2348-3.7268-5.2348-3.7268z" fill="#606060"/>
   <path d="m8.27 328.4s-0.69636 1.1838-1.2883 2.9247c-0.5919 1.7409-0.52227 3.6907-0.52227 3.6907l4.8745 2.8202 3.3425-1.0794s0.73118-0.9749 1.4624-3.2729c0.73118-2.298 0.31336-4.596 0.31336-4.596z" fill="#a5a5a5"/>
   <path d="m17.396 311.81s3.8407 6.4504 3.5453 8.3215c-0.29544 1.8711-4.6285 4.924-4.6285 4.924s-0.09848 2.3143 0.2462 3.1021c0.34468 0.78785 0 1.6249 0 1.6249s-3.0529 0.0985-6.0565-0.4924c-3.0036-0.59088-4.3823-1.2802-4.3823-1.2802s1.428-2.0681 2.265-3.6438c0.83708-1.5757 0.88632-2.8067 0.88632-2.8067l-0.83708-0.98479 1.0833-1.034-0.34468-0.29545 1.1818-1.034s-0.04924-2.0681-0.44316-3.2498c-0.39392-1.1818-0.64012-1.6742 0.7386-1.8711 1.3787-0.19696 4.8255-1.5264 4.8255-1.5264s0.21064 0.43303 0.87217 0.38081c0.66154-0.0522 1.0482-0.13462 1.0482-0.13462z" fill="#eaeaea"/>
   <path d="m6.4595 333.17s1.1142 1.5668 4.213 2.5765c3.0988 1.0097 4.0041 1.0097 4.0041 1.0097l0.10972 2.1642-0.91094 0.93555s0.46778 1.3541 0.17234 1.6988c-0.29544 0.34467-0.7386 0.54163-0.7386 0.54163s0.10838 5.567-1.3688 3.6959c-1.4772-1.8711-0.84698-1.2339-3.6536-3.105-2.8067-1.8711-5.5641-1.5264-5.5641-1.5264s-0.54556-0.50502-0.26702-1.3755c0.27854-0.87045 2.0891-1.4624 2.0891-1.4624s0.52227-1.3927 1.0445-3.0291c0.52227-1.6364 0.87045-2.1239 0.87045-2.1239z" fill="#eaeaea"/>
   <path d="m35.319 345.39-8.8139 1.3295s-2.1173-1.034-3.8407-4.4316c-1.7234-3.3976 0.78784-6.7459 3.0529-5.5641 2.265 1.1818 3.9884 3.3483 3.9884 3.3483s-0.14772-1.0833-0.14772-2.3635c0-1.2802-0.09849-0.78784-0.59088-1.1818-0.4924-0.39393-1.231-1.1325-0.39392-2.265 0.83708-1.1325 0.68936-2.0681 0.39392-5.7118-0.29544-3.6438-1.5264-4.7763-1.5264-4.7763l5.0717-0.83708s-1.0833-0.24619-1.231 4.2839c-0.14772 4.5301 0.34468 5.2687 1.231 6.2535 0.88632 0.9848 0.88632 2.4128 0.09848 2.9052-0.78784 0.4924-0.9848 0.44315-1.034 1.3295-0.04924 0.88632-0.09848 2.8067-0.09848 2.8067s2.3635-3.8407 4.5793-3.7422c2.2158 0.0985 2.2158 1.9696 1.5264 4.2839s-2.265 4.3331-2.265 4.3331z" fill="#2d532a"/>
   <path d="m32.513 322.94c1.8219-2.3635-0.29544-5.9088-2.3143-6.2042-2.0188-0.29544-4.1361 1.034-4.4808 4.0377-0.34468 3.0036 2.0681 3.693 2.659 3.8407 0.59088 0.14772 0.9848 0.14775 0.9848 0.14775s1.3295 0.54161 3.1514-1.8219z" fill="#711d1d"/>
  </g>
  <path d="m25.313 304.83s0.45263-0.29595 0.41782 0.69636c-0.03482 0.99231 1.1316 1.7409 1.619 1.5146 0.48745-0.22632 0.94008-0.5745 1.5668-0.50487 0.62672 0.0696 1.3927 0.50487 2.0543 0.43523 0.66154-0.0696 0.85304-1.236 0.87045-1.6538 0.0174-0.41782 0.26114-0.50486 0.26114-0.50486" fill="none" stroke="#3f2c0d" stroke-linecap="round" stroke-width=".27574"/>
  <path d="m28.969 305.66s-0.88786-0.31337-1.5842-1.236c-0.69636-0.92267-0.0174-0.9923 0.60931-0.78339 0.62672 0.2089 1.0794 0.33076 1.7583 0.15668 0.67895-0.1741 1.2709-0.1741 0.87045 0.55708-0.4004 0.73117-1.6538 1.3057-1.6538 1.3057z" fill="#3f2c0d"/>
  <path d="m25.801 301.45s0.15668-0.13057 0.93138-0.12186c0.7747 8e-3 0.86174 0.17408 0.86174 0.17408" fill="none" stroke="#3f2c0d" stroke-width=".27574px"/>
  <path d="m31.769 301.6s-0.14262-0.1458-0.9142-0.21578c-0.77154-0.0703-0.87496 0.0857-0.87496 0.0857" fill="none" stroke="#3f2c0d" stroke-width=".27574px"/>
  <g>
   <path d="m15.402 347.22s-1.4549 2.9161-2.9386 7.0423c-1.5792 4.392-2.9547 9.7938-2.9547 9.7938h38.036s-2.094-7.1626-3.626-10.366c-1.532-3.2032-2.9729-6.8563-2.9729-6.8563z" fill="#232323"/>
   <path d="m17.445 339.98s-0.8617-0.78784-1.1571 1.2556c-0.29544 2.0435-1.6988 6.2781-1.6988 6.2781s2.3143-0.14772 5.0717 0.98481c2.7574 1.1325 9.4541 3.7915 9.4541 3.7915s3.7422-1.1325 7.0413-2.1666c3.2991-1.034 5.6626-1.7726 5.6626-1.7726s-0.49764-1.4262-0.89156-3.2973c-0.39392-1.8711-0.07386-3.4714-1.231-2.7574-1.1571 0.71398-3.0969 2.6572-9.1041 2.411-6.0073-0.24619-13.147-4.727-13.147-4.727z" fill="#443023"/>
   <path d="m26.721 301.38s-0.16003 0.18465-0.04924 0.34468c0.11079 0.16002 0.3139 0.0554 0.3139-0.10464 0-0.16003-0.05539-0.27082-0.05539-0.27082z" fill="#3f2c0d"/>
   <path d="m30.469 301.45s-0.15388 0.30159 0.11695 0.41239c0.27082 0.11078 0.3139-0.14157 0.29544-0.31391-0.01848-0.17234-0.41238-0.0985-0.41238-0.0985z" fill="#3f2c0d"/>
   <path d="m26.407 348.74s0 5.5641-0.34468 10.39c-0.34468 4.8255-0.88632 10.734-0.88632 10.734h10.094s-1.231-8.7154-1.5264-12.999c-0.29544-4.2839-0.54164-8.8632-0.54164-8.8632z" fill="#ac1f1f"/>
  </g>
  <path d="m15.084 346.21s1.8542-0.28398 5.1616 1.0524c3.3075 1.3364 7.0158 1.8041 7.0158 1.8041l0.13364-3.3075s-5.6795-1.47-7.6506-2.1382c-1.9711-0.66817-3.5747-1.4366-3.5747-1.4366" fill="none" stroke="#232323" stroke-linecap="round" stroke-width=".26458"/>
  <path d="m40.708 344.08s-1.4199 0.7851-3.7585 1.5869-5.0447 0.80181-5.0447 0.80181l0.13364 2.6727s3.2741-0.50113 5.2118-1.0357c1.9377-0.53454 4.0248-1.3679 4.0248-1.3679" fill="none" stroke="#232323" stroke-linecap="round" stroke-width=".26458"/>
  <path d="m26.407 350.12s-1.7726-0.54164-1.5757-2.8067c0.19696-2.265 1.6249-3.1021 5.3671-2.8067 3.7422 0.29544 3.7422 1.8711 3.7915 3.1514 0.04924 1.2802 0.14772 2.265-3.0036 2.6097-3.1514 0.34468-4.5793-0.14772-4.5793-0.14772z" fill="#a38854"/>
  <g>
   <ellipse cx="24.522" cy="331.76" rx="1.4366" ry="2.372" style="paint-order:markers fill stroke"/>
   <ellipse transform="rotate(-3.9075)" cx="12.861" cy="333.35" rx=".99666" ry="2.1326" style="paint-order:markers fill stroke"/>
   <ellipse cx="24.388" cy="327.97" rx=".70158" ry=".71829" style="paint-order:markers fill stroke"/>
   <ellipse cx="23.246" cy="321.23" rx=".70158" ry=".71829" style="paint-order:markers fill stroke"/>
   <ellipse cx="35.034" cy="320.92" rx=".53622" ry=".54898" style="paint-order:markers fill stroke"/>
   <ellipse cx="24.555" cy="335.52" rx=".70158" ry=".71829" style="paint-order:markers fill stroke"/>
   <ellipse cx="35.814" cy="335.36" rx=".46772" ry=".68488" style="paint-order:markers fill stroke"/>
   <ellipse cx="35.129" cy="327.82" rx=".55124" ry=".66817" style="paint-order:markers fill stroke"/>
  </g>
  <g fill="none" stroke-linecap="round">
   <path d="m22.501 309.05s2.7896 4.1761 6.5982 4.41c3.8086 0.23386 5.7964-2.3887 5.7964-2.3887" stroke="#ae9657" stroke-width=".39688"/>
   <circle cx="29.848" cy="313.89" r=".38979" stroke="#ae9657" stroke-linejoin="round" stroke-width=".39688" style="paint-order:markers fill stroke"/>
   <path d="m26.898 346.74s1.4116-1.5033 1.6924-0.52465c0.28082 0.97868-0.03611 3.1234 1.1847 2.823s1.0152-3.7519 1.7878-2.9388c0.77266 0.81319 1.3058 1.4327 1.3058 1.4327" stroke="#b19867" stroke-width=".79375"/>
   <path d="m27.938 349.14s-0.09467-1.2102 1.5493-1.3374c1.644-0.12712 2.5514 1.3442 2.5514 1.3442" stroke="#b19867" stroke-width=".79375"/>
  </g>
 </g>
</svg>
