<?xml version="1.0" encoding="UTF-8" standalone="no"?>
<!-- Created with Inkscape (http://www.inkscape.org/) -->

<svg
   width="200"
   height="250"
   version="1.1"
   viewBox="0 0 52.916875 66.146094"
   id="svg2"
   inkscape:version="1.1.2 (1:1.1+202202050950+0a00cf5339)"
   sodipodi:docname="knight-errant.svg"
   xmlns:inkscape="http://www.inkscape.org/namespaces/inkscape"
   xmlns:sodipodi="http://sodipodi.sourceforge.net/DTD/sodipodi-0.dtd"
   xmlns="http://www.w3.org/2000/svg"
   xmlns:svg="http://www.w3.org/2000/svg">
  <defs
     id="defs6" />
  <sodipodi:namedview
     id="namedview4"
     pagecolor="#ffffff"
     bordercolor="#666666"
     borderopacity="1.0"
     inkscape:pageshadow="2"
     inkscape:pageopacity="0.0"
     inkscape:pagecheckerboard="0"
     showgrid="false"
     inkscape:zoom="1.7864664"
     inkscape:cx="159.81269"
     inkscape:cy="154.21505"
     inkscape:window-width="1920"
     inkscape:window-height="1009"
     inkscape:window-x="0"
     inkscape:window-y="0"
     inkscape:window-maximized="1"
     inkscape:current-layer="svg2" />
  <path
     style="fill:#c7ab69;fill-opacity:1;stroke:none;stroke-width:0.264584px;stroke-linecap:butt;stroke-linejoin:miter;stroke-opacity:1"
     d="m 39.207794,61.500951 c 0,0 -0.403384,4.012508 0.03111,5.407542 0.434501,1.395037 -6.517052,0.987023 -6.517052,0.987023 l 4.008679,-10.531287 z"
     id="path6862" />
  <path
     style="fill:#a1a1a1;fill-opacity:1;stroke:none;stroke-width:0.264584px;stroke-linecap:butt;stroke-linejoin:miter;stroke-opacity:1"
     d="m 39.541387,53.656739 -0.186655,8.144882 -8.970665,-6.237194 z"
     id="path5019" />
  <path
     style="fill:#f3f3f3;fill-opacity:1;stroke:none;stroke-width:0.264584px;stroke-linecap:butt;stroke-linejoin:miter;stroke-opacity:1"
     d="m 36.114635,61.386695 -1.377465,-6.572384 -15.232144,4.252665 0.881911,7.707319 15.188241,-0.153849 c 0,0 0.275746,-1.351937 0.40324,-2.82916 0.127489,-1.477226 0.136217,-2.404591 0.136217,-2.404591 z"
     id="path2615"
     sodipodi:nodetypes="cccccsc" />
  <path
     style="fill:none;stroke:#6e3030;stroke-width:1.05834;stroke-linecap:butt;stroke-linejoin:miter;stroke-miterlimit:4;stroke-dasharray:none;stroke-opacity:1"
     d="M 13.079098,42.079437 32.49277,50.207346"
     id="path28646"
     sodipodi:nodetypes="cc" />
  <path
     style="fill:#a88662;fill-opacity:1;stroke:none;stroke-width:0.264584px;stroke-linecap:butt;stroke-linejoin:miter;stroke-opacity:1"
     d="m 35.185677,42.682541 3.544415,4.44703 -2.482163,8.612685 c 0,0 0.772462,2.199858 0.593105,3.424955 -0.179356,1.225097 -0.726399,2.219484 -0.726399,2.219484 0,0 -0.929057,-1.584803 -1.938359,-2.528963 -1.009302,-0.944158 -2.097985,-1.687123 -2.097985,-1.687123 0,0 -2.871177,3.390031 -4.405075,4.312108 -1.533902,0.922076 -4.350375,1.684984 -4.350375,1.684984 L 19.546713,61.930919 19.12441,45.500118 Z"
     id="path2168"
     sodipodi:nodetypes="cccscscscccc" />
  <path
     style="fill:#c7ab69;fill-opacity:1;stroke:none;stroke-width:0.264584px;stroke-linecap:butt;stroke-linejoin:miter;stroke-opacity:1"
     d="m 16.038892,60.41523 c 0,0 -0.300894,3.745097 -0.111669,4.809118 0.189225,1.064025 0.926778,4.390066 0.926778,4.390066 l 4.231521,-0.483555 c 0,0 -0.489588,-2.641802 -0.698949,-4.573344 -0.20936,-1.931543 0.01984,-6.533789 0.01984,-6.533789 z"
     id="path5598"
     sodipodi:nodetypes="cscczcc" />
  <path
     style="fill:#888888;fill-opacity:1;stroke:none;stroke-width:0.264584px;stroke-linecap:butt;stroke-linejoin:miter;stroke-opacity:1"
     d="m 35.778423,50.523543 -1.818718,3.225855 1.767879,2.375278 1.629118,-1.709081 3.853936,0.490369 -1.344251,-6.435804 z"
     id="path2833" />
  <path
     style="fill:#a74949;fill-opacity:1;stroke:none;stroke-width:0.264584px;stroke-linecap:butt;stroke-linejoin:miter;stroke-opacity:1"
     d="m 18.218712,45.819399 -3.485656,-4.172346 -4.274124,1.298895 -0.5401272,2.94394 5.5751032,7.297939 z"
     id="path2927" />
  <path
     style="fill:#747474;fill-opacity:1;stroke:none;stroke-width:0.264584px;stroke-linecap:butt;stroke-linejoin:miter;stroke-opacity:1"
     d="m 35.919822,43.502947 -0.141399,7.020596 1.324945,0.830193 1.81092,-0.06274 1.386884,-3.118142 z"
     id="path2831" />
  <path
     style="fill:#3e70ad;fill-opacity:1;stroke:none;stroke-width:0.264584px;stroke-linecap:butt;stroke-linejoin:miter;stroke-opacity:1"
     d="m 21.326184,42.596329 -3.107471,3.22307 5.551447,2.447225 c 0,0 5.090911,1.885307 5.891702,1.885307 0.800787,0 6.445149,-3.556515 6.878497,-3.908155 0.433347,-0.351638 0.572484,-0.657865 0.572484,-0.657865 l -1.199286,-0.658732 1.03587,-0.983078 -1.804395,-1.074524 z"
     id="path1081"
     sodipodi:nodetypes="cccssccccc" />
  <path
     style="fill:#c7ab69;fill-opacity:1;stroke:none;stroke-width:0.264584px;stroke-linecap:butt;stroke-linejoin:miter;stroke-opacity:1"
     d="m 39.124504,40.059904 c 0,0 -3.37567,2.705673 -4.941796,3.954308 C 32.616582,45.262846 30.131297,45.780273 28.7037,45.76185 27.276099,45.74343 23.217182,44.29304 21.336465,42.715784 19.455747,41.138527 18.141354,39.866261 17.452053,39.326833 16.762749,38.787404 15.7265,38.588416 15.7265,38.588416 l 2.341008,-2.147934 -1.866634,-0.930146 c 0,0 1.768972,-0.985044 2.104649,-1.831286 0.335677,-0.84624 1.179448,-2.843258 1.179448,-2.843258 0,0 -1.499121,-1.402464 -1.616122,-2.300577 -0.117005,-0.898111 1.038975,-4.226281 1.357484,-5.28698 0.318511,-1.060696 0.479782,-1.77762 0.479782,-1.77762 0,0 2.029673,1.135777 3.293,2.736845 1.263327,1.601068 1.380557,2.410579 1.380557,2.410579 0,0 2.285895,-0.363 4.502952,0.07175 2.217058,0.434744 3.900602,1.829561 3.900602,1.829561 0,0 0.581869,-1.052286 2.252983,-2.969439 1.67111,-1.917156 3.13683,-2.214816 3.13683,-2.214816 0,0 1.396266,4.579564 1.002532,6.393071 -0.393736,1.813505 -2.671651,3.847507 -2.671651,3.847507 0,0 0.248073,1.874174 0.933277,2.474672 0.6852,0.600495 2.024147,1.736398 2.024147,1.736398 l -1.268978,0.95664 z"
     id="path868"
     sodipodi:nodetypes="csssscccscsscscscscscsccc" />
  <path
     style="fill:#1b160a;fill-opacity:1;stroke:none;stroke-width:0.264584px;stroke-linecap:butt;stroke-linejoin:miter;stroke-opacity:1"
     d="m 31.326792,40.04454 c 0,0 1.618194,-0.776382 1.518215,-1.720651 -0.09998,-0.94427 -0.980383,-0.521506 -0.980383,-0.521506 0,0 -0.726986,-0.635461 -1.321361,-0.126293 -0.594373,0.509168 0.783529,2.36845 0.783529,2.36845 z"
     id="path960" />
  <path
     style="fill:none;stroke:#a88662;stroke-width:0.264584;stroke-linecap:round;stroke-linejoin:miter;stroke-miterlimit:4;stroke-dasharray:none;stroke-opacity:1"
     d="m 33.510516,40.560885 c 0,0 -0.828428,0.860454 -1.322107,0.898767 -0.493676,0.03832 -1.100162,-0.459043 -1.100162,-0.459043 0,0 -0.819024,0.475726 -1.67235,0.236234 -0.853326,-0.239491 -1.725448,-1.887177 -2.052212,-2.321035 -0.326762,-0.433859 -0.749242,-0.433859 -0.749242,-0.433859"
     id="path962" />
  <path
     style="fill:#483a1b;fill-opacity:1;stroke:none;stroke-width:0.264584px;stroke-linecap:butt;stroke-linejoin:miter;stroke-opacity:1"
     d="m 27.623267,35.502613 c 0,0 -0.03214,-1.617228 -1.343634,-1.637185 -1.3115,-0.01996 -2.025046,1.527762 -0.999445,1.696175 1.025599,0.168416 2.343079,-0.05899 2.343079,-0.05898 z"
     id="path964" />
  <path
     style="fill:#483a1b;fill-opacity:1;stroke:none;stroke-width:0.264584px;stroke-linecap:butt;stroke-linejoin:miter;stroke-opacity:1"
     d="m 32.736821,36.071012 c 0,0 0.251006,-1.739376 1.288383,-1.365334 1.037377,0.374042 1.078867,2.105206 0.385735,1.913648 -0.693131,-0.191559 -1.674118,-0.548314 -1.674118,-0.548314 z"
     id="path966" />
  <path
     style="fill:#a1a1a1;fill-opacity:1;stroke:none;stroke-width:0.264584px;stroke-linecap:butt;stroke-linejoin:miter;stroke-opacity:1"
     d="m 23.075362,55.656435 -0.683618,2.403207 -1.172854,0.537519 -0.314372,2.058113 -5.18412,-0.05049 0.551295,-5.413923 z"
     id="path5200"
     sodipodi:nodetypes="ccccccc" />
  <path
     style="fill:#888888;fill-opacity:1;stroke:none;stroke-width:0.264584px;stroke-linecap:butt;stroke-linejoin:miter;stroke-opacity:1"
     d="m 25.668305,51.397759 1.185727,1.945344 -1.286615,2.415924 -2.492055,-0.102592 -3.116361,0.663604 -3.305515,0.07493 -1.253147,0.290281 -2.023047,-0.807543 0.68665,-8.425409 5.060468,-1.95218 z"
     id="path2835" />
  <path
     style="fill:none;stroke:#585858;stroke-width:0.264584;stroke-linecap:butt;stroke-linejoin:miter;stroke-miterlimit:4;stroke-dasharray:none;stroke-opacity:1"
     d="m 24.525988,53.673794 c 0,0 5.858079,1.890633 6.873858,1.804545 1.078966,-0.09144 4.536627,-1.797761 4.536627,-1.797761"
     id="path10285"
     sodipodi:nodetypes="csc" />
  <path
     style="fill:#747474;fill-opacity:1;stroke:none;stroke-width:0.264584px;stroke-linecap:butt;stroke-linejoin:miter;stroke-opacity:1"
     d="m 25.668305,51.397759 -3.169174,-5.893071 -3.294693,-2.386133 -5.140496,4.333743 3.639767,-0.172686 3.170156,2.296838 2.126168,2.379421 z"
     id="path2829"
     sodipodi:nodetypes="cccccccc" />
  <path
     style="fill:#f3f3f3;fill-opacity:1;stroke:none;stroke-width:0.264584px;stroke-linecap:butt;stroke-linejoin:miter;stroke-opacity:1"
     d="m 12.874256,41.835795 c 0,0 -2.425962,-2.508159 -5.0069162,-5.530434 C 5.2863862,33.283084 3.6769314,30.035839 3.6769314,30.035839 l -1.9701929,1.695995 c 0,0 1.3283136,2.220162 3.9235193,5.861381 2.5952038,3.641218 4.9228622,6.619028 4.9228622,6.619028 z"
     id="path3044" />
  <path
     style="fill:#888888;fill-opacity:1;stroke:none;stroke-width:0.264584px;stroke-linecap:butt;stroke-linejoin:miter;stroke-opacity:1"
     d="m 15.743777,40.536297 -1.446668,-1.43639 -7.1146403,6.166498 1.2135069,1.340208 1.5228292,-0.716725 1.7214702,-1.643975 0.624793,0.718742 0.932187,-0.01753 0.471716,-1.005414 -0.67703,-0.767121 1.741115,-1.527545 z"
     id="path3042" />
  <ellipse
     style="fill:#888888;fill-opacity:1;stroke:none;stroke-width:1.32292;stroke-linecap:round;stroke-linejoin:round;stroke-opacity:1"
     id="path3068"
     cx="-2.3297091"
     cy="30.352173"
     rx="2.3297091"
     ry="2.249824"
     transform="scale(-1,1)" />
  <circle
     style="fill:#717171;fill-opacity:1;stroke:none;stroke-width:1.32292;stroke-linecap:round;stroke-linejoin:round;stroke-opacity:1"
     id="path8763"
     cx="24.489428"
     cy="53.509857"
     r="1.02827" />
  <circle
     style="fill:#717171;fill-opacity:1;stroke:none;stroke-width:1.32292;stroke-linecap:round;stroke-linejoin:round;stroke-opacity:1"
     id="path8763-3"
     cx="35.940346"
     cy="53.597897"
     r="1.02827" />
  <path
     style="fill:none;stroke:#6e3030;stroke-width:1.32292;stroke-linecap:butt;stroke-linejoin:miter;stroke-miterlimit:4;stroke-dasharray:none;stroke-opacity:1"
     d="m 10.456108,45.381242 c 0,0 7.421223,8.918806 13.596704,11.93035 6.175481,3.011546 12.061823,4.075103 12.061823,4.075103"
     id="path35855"
     sodipodi:nodetypes="czc" />
</svg>
