<?xml version="1.0" encoding="UTF-8"?>
<svg width="200" height="250" version="1.1" viewBox="0 0 52.917 66.146" xmlns="http://www.w3.org/2000/svg">
 <g transform="translate(0 -293.57)">
  <path d="m18.701 309.56-0.59072-0.13127s0.34459-0.1805 0.08204-0.34459c-0.26254-0.16409-0.93531 0.24614-0.93531 0.24614l0.3774-0.39382-0.90249 0.14768s0.32818-0.27895 0.72199-0.41022c0.39382-0.13127 0.83686-0.44305 0.83686-0.44305s-0.32818-0.0492-0.60713-0.18049c-0.27895-0.13127-0.44304-0.63995-0.44304-0.63995s0.26254 0.0985 0.60713 0.0985 0.54149-0.11486 0.54149-0.11486l-0.57431-0.31177h0.34459s-0.20511-0.12306-0.51688-0.3692c-0.31177-0.24613-0.38561-0.52509-0.38561-0.52509s0.35279 0.10666 0.49227 0.10666 0.38561-0.0656 0.38561-0.0656l-0.27895-0.43483 0.28716 0.13127s-0.16409-0.30357-0.29536-0.65635c-0.13127-0.35279-0.11486-0.85327-0.11486-0.85327l0.361 0.22972s-0.30356-0.47585-0.44304-0.70557c-0.13948-0.22973-0.22972-0.42664-0.22972-0.42664s0.21332 0.13948 0.61533 0.23793c0.40202 0.0985 0.82865 0.11487 0.82865 0.11487s-0.28716-0.13128-0.60713-0.80404c-0.31997-0.67277-0.29536-1.042-0.29536-1.042l0.5497 0.46765s-0.22152-0.45124-0.34459-0.78763c-0.12307-0.33637-0.09845-0.67276-0.09845-0.67276l0.30356 0.31177s-0.28716-0.49227-0.31997-1.0666c-0.03282-0.57432 0.0083-0.72199 0.0083-0.72199l0.56611 0.45945 4.7668 4.0366 6.0513-6.8867 0.33648-0.73098-0.02321 0.87022s0.17404-0.34809 0.31328-0.74258c0.13924-0.3945 0.34809-0.68458 0.34809-0.68458s-0.08122 0.82381 0.09282 1.4736c0.17404 0.64975 0.51053 0.89342 0.51053 0.89342s0.27847-0.3829 0.58014-0.64977c0.30168-0.26686 0.58014-0.29006 0.58014-0.29006l0.64976-0.48733s-0.26686 0.51053-0.4293 1.0327c-0.16244 0.52213-0.16244 0.98624-0.16244 0.98624s0.22045-0.18565 0.49892-0.33648 0.64976-0.24366 0.64976-0.24366-0.31328 0.49892-0.44091 0.96304c-0.12763 0.46411 0.01162 0.8354 0.01162 0.8354s0.23739-0.0882 0.48353-0.0882 0.41022 0.0411 0.41022 0.0411-0.41022 0.22152-0.56611 0.41843c-0.15588 0.19691-0.25434 0.28715-0.25434 0.28715s0.25434-0.0164 0.52508-0.0656c0.27075-0.0492 0.51688-0.11486 0.51688-0.11486s-0.7302 0.25434-0.60713 0.361 0.74661 0 0.74661 0l-0.40202 0.21332s0.25434 0.0985 0.58252 0.0985 0.58252 0.13128 0.58252 0.13128l-0.79583 0.51687 0.72199-0.10665s-0.1805 0.17229-0.3692 0.31997-0.63174 0.31997-0.63174 0.31997 0.20511 0.12307 0.54149 0.1641c0.33638 0.0411 0.5579 0.12306 0.5579 0.12306s-0.23793 0.13948-0.41022 0.1887c-0.17229 0.0492-0.3692 0.0903-0.3692 0.0903l-0.39382 0.25434 0.59482 0.22152-0.44304 0.0656s0.31177 0.16408 0.62764 0.25844c0.31587 0.0944 0.64405 0.17639 0.64405 0.17639s-0.43894 0.0123-0.63584 0.0123c-0.19691 0-0.43894 0.082-0.43894 0.082s0.15999 0.29947 0.43073 0.66046c0.27075 0.361 0.69738 0.61534 0.69738 0.61534s-0.42567 6e-3 -0.58811-6e-3c-0.16244-0.0116-0.34228-0.0697-0.34228-0.0697s0.16244 0.15084 0.33648 0.23786c0.17404 0.087 0.44091 0.20305 0.44091 0.20305s-0.22046 0.0581-0.4119 0.11023c-0.19145 0.0522-0.4177 0.0522-0.4177 0.0522s0.25526 0.26107 0.4177 0.44672c0.16244 0.18564 0.35389 0.4525 0.35389 0.4525z" fill="#783c1a"/>
  <path d="m20.662 308s-0.26686-0.4351-0.45831-0.71938c-0.19145-0.28427-0.45251-0.4351-0.45251-0.4351l0.25526-0.0116-0.02901-0.31909s-0.15664-0.0812-0.28717-0.17403c-0.13053-0.0928-0.17114-0.18565-0.17114-0.18565l0.38289 0.0348s-0.19992-0.12615-0.3353-0.42972-0.21742-0.7466-0.21742-0.7466l0.28305 0.21742-0.15588-0.38152 0.15178 0.082-0.05333-0.1887s0.08615 0.0739 0.1805 0.0739 0.17229-0.0697 0.17229-0.0697-0.19691-0.1846-0.27075-0.45125c-0.07384-0.26663-0.23383-0.41842-0.23383-0.41842l0.10256-0.0369s-0.02871-0.21332 0.22152-0.53329c0.25024-0.31997 0.16409-0.41022 0.16409-0.41022s-0.1928 0-0.15999-0.0656c0.03282-0.0656 0.11486-0.13127 0.11486-0.13127l-0.25434-0.10665s0.14768-0.0123 0.13948-0.0985c-0.0083-0.0862-0.25844-0.80814-0.25844-0.80814l-0.84096-1.5014-0.1887-0.0205s-0.27075-0.0411-0.07384-0.52098c0.19691-0.47996 0.38151-0.38561 0.63174-0.31998 0.25024 0.0656 0.86967 0.1764 0.86967 0.1764l8.139-2.4069 0.31328 0.31327 0.58014-0.38289h0.14504c0.09282 0 0.14504-0.15084 0.14504-0.15084s0.04061 0.20305 0.31328 0.19145 0.64106 0.0725 0.49602 0.16533c-0.14503 0.0928-0.26392 0.0725-0.26392 0.0725s0.12514 0.13872 0.33436 0.17974c0.20922 0.0411 0.53739-0.0656 0.53739-0.0656s-0.47176 0.38562-0.42663 0.46356c0.04513 0.078 0.43073 0.20101 0.43073 0.20101l-0.28716 0.0697s0.3395 0.57293 0.3395 1.1415c0 0.56855-0.17404 1.3343-0.17404 1.3343l1.8913 3.1908 0.63816 0.29007-0.46992 0.17985s0.31908 0.71937 0.62075 1.1023c0.30168 0.38289 0.74839 0.4467 0.74839 0.4467s-0.17489 8e-3 -0.27539 2e-3 -0.17229-0.0287-0.17229-0.0287 0.17502 0.46753 0.5173 0.60676c0.34229 0.13923 1.0849 0.30754 1.0849 0.30754l-0.24371 0.058 0.25526 0.22626 0.58595 0.0406s-0.24366 0.0928-0.56274 0.17985c-0.31908 0.087-0.65556 0.0406-0.65556 0.0406l0.38289 0.46411 0.25526 0.0725-0.21756 0.0667 0.24366 0.26106-0.36259-0.0319s0.28396 0.2144 0.8993 0.37849c0.61533 0.16408 1.4686 0 1.4686 0s-0.21556 0.26257-0.42442 0.45401c-0.20885 0.19146-0.45831 0.3713-0.45831 0.3713l0.48732-0.24946-0.41683 0.41688 0.26254 0.361 1.0994 0.43484 4.5837 7.5358-2.9346 32.682-24.154-1.7722 1.2143-7.0722 0.63995-0.5579s0.30356-0.84506 0.10666-0.95172-0.51688 0.21332-0.51688 0.21332 0.26254-0.51688 0.61534-1.3291c0.35279-0.81225 0.74661-1.3455 0.74661-1.3455s-0.7216-0.59471-1.3598-1.1748c-0.63816-0.58015-0.97464-1.1719-0.97464-1.1719s-0.02901 0.21465-0.11023 0.39449-0.25526 0.3597-0.25526 0.3597-0.06962-0.53373-0.37129-1.5896c-0.30167-1.0559-0.78492-1.7405-0.78492-1.7405l-7.691-15.594-0.73501-0.43737s0.31997-0.0328 0.5579-0.11486c0.23793-0.082 0.47586-0.32818 0.47586-0.32818l-0.31997-0.10665s0.16916-0.0108 0.14596-0.0659c-0.023207-0.0551-0.28717-0.22917-0.28717-0.22917s0.21465 0.0899 0.54824-0.0348c0.33358-0.12474 0.62075-0.42061 0.62075-0.42061s-0.3887 0.13634-0.76869-0.13343-0.42641-0.53664-0.42641-0.53664 0.38289 0.26978 1.0936 0.26107c0.71068-9e-3 1.5258-0.36839 1.5258-0.36839s-0.3916-0.0754-0.91373-0.25236c-0.52213-0.17694-0.818-0.31328-0.818-0.31328s0.60625 0.10733 1.1429 0.11023c0.53663 3e-3 0.95434-0.0523 0.95434-0.0523s-0.30167-0.13924-0.49022-0.30458-0.26977-0.40029-0.26977-0.40029l0.19725 0.0899-0.017404-0.24366s0.53373 0.34228 1.7172 0.4467c1.1835 0.10443 1.608 0.0517 1.7557-0.17804 0.14768-0.22973 0.45945-0.58251 0.59893-0.70559 0.13948-0.12306 0.32818-0.22152 0.32818-0.22152s-0.14179 0.0261-0.29843 0.0957-0.34518 0.18854-0.34518 0.18854 0.08122-0.14213 0.25236-0.32198c0.17114-0.17984 0.3916-0.30167 0.3916-0.30167l-0.46121-0.12182s0.32488-0.10154 0.70197-0.17115c0.37709-0.0697 0.64976-0.0957 0.64976-0.0957l-0.789 9e-3s0.43511-0.18274 0.61785-0.24946c0.18274-0.0667 0.32778-0.11022 0.32778-0.11022s0.14794-0.11893 0.23496-0.17114c0.08702-0.0523 0.23206-0.12184 0.23206-0.12184s-0.11313-0.0493-0.29007-0.20015c-0.17694-0.15083-0.25236-0.33648-0.25236-0.33648s0.25526 0.19435 0.55404 0.24946c0.29877 0.0551 0.52793 0.0493 0.52793 0.0493s0.11313-0.029 0.16824-0.0406c0.05512-0.0116 0.16244-0.0203 0.16244-0.0203s0.34809-0.14214 0.67877-0.29008c0.33068-0.14793 0.55114-0.25525 0.55114-0.25525l-0.62075-0.15955s0.22336-0.0174 0.37129-0.0551 0.28137-0.0523 0.28137-0.0523-0.20015-0.12183-0.43801-0.3974-0.34809-0.52793-0.34809-0.52793 0.26545 0.30707 0.99975 0.44655c0.7343 0.13947 1.3866-0.10666 1.3866-0.10666s0.17229-0.0533 0.51278-0.29536c0.34048-0.24203 0.56728-0.69429 0.6543-0.96696 0.08702-0.27266 0.37129-0.38869 0.37129-0.38869z" fill="#cb8e5f"/>
  <path d="m6.4483 317.15s-0.48067 0.51464-0.79244 1.6469c-0.31177 1.1322-0.1805 1.9198-0.45945 2.3137-0.27895 0.39381-0.44304 0.50868-0.44304 0.50868l-1.1158 0.1969s0.27552 0.15519 0.44376 0.18419 0.31328 0.0464 0.31328 0.0464-0.30748 0.3771-0.89922 0.89342c-0.59175 0.51633-1.3981 0.84121-1.3981 0.84121s0.32488 0.11022 0.64976 0.0986c0.32488-0.0116 0.62075-0.16824 0.62075-0.16824s-0.51053 0.52793-0.8122 1.0036c-0.30167 0.47572-0.44091 1.0326-0.44091 1.0326l0.70197-0.73677s-0.31328 0.4235-0.53953 0.75998c-0.22626 0.33649-0.37709 0.58014-0.37709 0.58014l0.67877-0.4177s-0.30748 0.99784-0.64396 2.0421c-0.33648 1.0443-0.47572 1.52-0.47572 1.52s-0.62655 0.46411-1.0211 1.694c-0.3945 1.2299-0.24366 1.9841-0.069617 2.483 0.17404 0.49893 0.43862 2.0171 0.43862 2.0171l-0.1805-0.0903s0.27075 0.50048 0.3692 1.1322c0.098453 0.63175 0.56611 2.3137 0.56611 2.3137l-1.0584-0.79578 0.41843 0.71379-0.54149-0.33638s0.57431 0.57431 1.083 0.9189c0.50868 0.34459 2.85 4.1053 5.1242 6.0082s3.0632 2.8311 3.0632 2.8311l5.3418-6.944-0.06564-0.52508-0.49227-2.2808-5.2945-8.0256 1.5316-6.9153-3.3416-6.7993z" fill="#cb8e5f"/>
  <path d="m39.442 315.14s-0.76078-0.54-1.7122-0.35436c-0.95143 0.18565-1.5548 0.46411-1.5548 0.46411l0.23206-0.4409s-0.23206-0.0232-0.75418 0.4061c-0.52213 0.42931-1.1371 0.60335-1.1371 0.60335s0.11603-0.13924 0.16244-0.3945c0.04641-0.25527-0.06962-0.58015-0.06962-0.58015s-0.53373 0.99786-1.0443 1.2299c-0.51052 0.23205-1.9145 0.24366-1.9145 0.24366s0.8006 0.0812-0.05802 0.4061c-0.85861 0.32488-1.2763 0.61495-1.2763 0.61495s-0.44091-0.30167-0.8238-0.4177-0.69617-0.16244-0.69617-0.16244 1.0211 0.46411-0.19725 0.0696c-1.2183-0.3945-2.2277-0.37128-2.7267-0.56853-0.49892-0.19725-0.77739-0.56855-0.77739-0.56855s0.48219 0.72103 0.0063 0.46669c-0.47586-0.25434-0.68917-0.61533-0.68917-0.61533s-0.0083 0.25434-0.0164 0.38561c-0.0083 0.13127 0.04102 0.361 0.04102 0.361s-1.7722-0.24614-2.6993-0.72199c-0.9271-0.47587-1.1568-0.86147-1.1568-0.86147s0.04142 0.22551 0.08784 0.38795c0.04641 0.16244 0.11603 0.28426 0.11603 0.28426s-1.5026-0.24365-1.6882-0.31327c-0.18564-0.0696-0.0348-0.33648-0.61495-0.058-0.58014 0.27847-0.96304 0.4293-1.2299 0.45251-0.26687 0.0232-0.37129 0.3945-1.0094 0.45251-0.63816 0.058-1.7636-0.0812-1.7636-0.0812s2.1349 0.45251 1.7404 0.84701-1.9841 0.16243-1.9841 0.16243 0.37709 0.14504 0.70778 0.22627c0.33068 0.0812 0.69037 0.11023 0.69037 0.11023s-0.37709 0.33648-0.66136 0.66136-0.4003 0.56853-0.4003 0.56853-0.18564 0.0116-0.49892-0.0812-0.91662-0.0232-0.91662-0.0232 0.91662 0.0348 0.73098 0.30168c-0.18565 0.26687-0.73098 0.34808-0.73098 0.34808s0.69617 0.0465 0.44091 0.27847c-0.25526 0.23206-0.85861 0.18565-0.85861 0.18565s0.46411 0.0812-0.13343 0.4003c-0.59755 0.31908-1.0443 0.29587-1.0443 0.29587l0.4119 0.17404s-0.0116 0.63816-0.59175 0.89343c-0.58014 0.25526-1.4155 0.53373-1.4155 0.53373s0.43511-0.0812 0.33648 0.087c-0.09863 0.16824-0.23206 0.19144-0.23206 0.19144s0.28427-6e-3 0.49892-0.0464c0.21465-0.0406 0.48152-0.13344 0.48152-0.13344s-0.78319 0.33069-1.2125 1.0849c-0.42931 0.75418-0.3945 1.0559-0.3945 1.0559s-0.23206 0.11603-0.26687 0.33648c-0.034808 0.22045-0.034808 0.33648-0.034808 0.33648s-1.1871 0.26204-1.8926 1.6732c-0.70558 1.4112-0.70558 2.1332-0.70558 2.1332s-0.11486 0.73841-0.47586 1.165c-0.361 0.42663-0.72199 0.65635-0.72199 0.65635s-0.032818 0.5415 0.082045 1.0666c0.11486 0.52507 0.24613 0.9353 0.24613 0.9353l-0.45941-0.98456s0.11486 0.62354 0.19691 1.0502c0.082045 0.42663 0.57431 1.3127 0.21332 1.2471-0.361-0.0656-0.85326-0.67277-0.85326-0.67277s0.00771 0.54859 0.29779 1.0939c0.29007 0.54533 1.2647 1.2879 0.51053 1.0675-0.75419-0.22045-1.752-0.96304-1.752-0.96304s0.26687 0.63816 0.98624 1.3343c0.71938 0.69617 1.3343 1.1255 1.3343 1.1255l-0.38289-0.12764s0.32488 0.34809 0.59175 0.51052c0.26687 0.16245 0.59175 0.32488 0.64976 0.48733 0.058014 0.16243 0.12763 0.31328 0.12763 0.31328s0.11465-0.34561 0.34438 0.13025c0.22972 0.47587 0.42663 1.0502 0.42663 1.0502s0.62354-0.27896 1.4276-0.0328c0.80404 0.24613 3.61 1.9198 4.4796 1.9362 0.86967 0.0164 0.78763-0.45945 0.78763-0.45945l0.32818 0.5579s0.06564-1.5588-0.32818-3.7084-2.0019-3.5279-2.0019-3.5279 0.31997-0.14768 0.54149-0.24614c0.22152-0.0984 0.41843-0.21331 0.41843-0.21331s0.04922 0.27895 0.13127 0.45945c0.08204 0.1805 0.23793 0.3856 0.23793 0.3856s-0.0083-0.13126-0.03282-0.51687c-0.02462-0.38562 0.02462-0.62354 0.02462-0.62354s0.32818-0.16409 0.60713-0.64815c0.27895-0.48407 0.361-0.9025 0.361-0.9025l0.08204 0.87788s0.09845-0.50047 0.12307-0.34459c0.02462 0.15589 0.03282 0.24614 0.03282 0.24614s0.16409-0.61533 0.1887-1.1076c0.02462-0.49226 0-0.9353 0-0.9353l0.09845 0.0411s-0.08615-0.53329 0.08204-0.34049c0.16819 0.19281 0.26665 0.3487 0.26665 0.3487l-0.01231-0.32408s0.10666 0.082 0.26254 0.12717c0.15588 0.0451 0.23793 0.0533 0.23793 0.0533s-0.38561-0.42253-0.64815-1.5383c-0.26254-1.1158-0.09845-2.0675-0.09845-2.0675s0.63995 1.2635 2.0675 1.7558 2.3465 0.44304 2.3465 0.44304 2.1041 5e-3 0.53774 0.41063c-1.5664 0.4061-1.2183 0.8354-1.2183 0.8354s-0.19725-0.27847-0.46411-0.48732c-0.26687-0.20885-1.1951-0.32488-1.1951-0.32488s1.2647 1.7636 0.46412 1.3923c-0.8006-0.37129-1.0443-0.8354-1.0443-0.8354s-0.07472 0.50244 0.34371 1.1916c0.41843 0.68917 0.87788 1.3455 0.87788 1.3455s-0.24614 8e-3 -0.70558-0.15589c-0.45945-0.16408-0.77942-0.66455-0.77942-0.66455l0.69738 1.0748s0.27895-0.0164 0.53329 0.32818-0.11486 0.31997-0.11486 0.31997 0.27075 0.0164 0.52508 0.22152c0.25434 0.20511 0.62982 0.82914 0.96631 1.3861 0.33648 0.55694 0.76579 0.74259 0.76579 0.74259s-0.43579-0.0324-0.6286-0.0652-0.38971-0.13947-0.38971-0.13947 0.09845 0.39792 0.47586 0.99683c0.3774 0.59893 1.0666 1.1979 1.0666 1.1979s-0.25434 8e-3 -0.56611-0.11486c-0.31177-0.12307-0.78763-0.38561-0.78763-0.38561s0.34459 0.45124 0.75481 0.66456c0.41022 0.21331 0.99142 1.3848 1.7688 1.6865 0.77739 0.30168 1.1951 1.3923 1.1951 1.3923l-0.85861-0.45251s0.8122 0.71938 1.2763 1.3575c0.46411 0.63816 0.58014 1.0791 0.58014 1.0791l-0.8354-0.1161s1.1139 0.8354 1.2647 1.2415 0.56444 3.3206 0.56444 3.3206l-0.88608 1.8706 9.7316 4.4276 5.3373-11.232z" fill="#f6e1d5"/>
  <path d="m36.595 309.83s0.03282-0.14738 0.29536-0.1638c0.26255-0.0164 0.41843 0.10666 0.41843 0.10666s0.06564-0.1969 0.76302 0.3528c0.69738 0.54969 1.8542 1.6491 1.9445 1.9362 0.09025 0.28715 0.11486 0.75481 0.11486 0.75481s0.03282-0.27896 0.19691-0.22972c0.16409 0.0492 0.14768 0.29536 0.14768 0.29536s-0.12373-0.44191 2.8466 1.1361c2.9703 1.578 4.2699 2.2742 4.1538 2.5526-0.11603 0.27846-0.15084 0.29007-0.15084 0.29007s0.17343 0.0168 0.38675 0.87005c0.21332 0.85327 0.63995 2.7239 0.63995 2.7239s0.57431-0.082 0.60713 0.86967c0.03282 0.95172 0.03119 1.3262 0.03119 1.3262s0.51031 0.31468 0.47749 0.82335-0.46008 3.841 0.23609 7.1362 0.8354 10.071 0.74258 11.788c-0.09282 1.7172-0.18564 2.4598-0.18564 2.4598l1.8565 12.113s-0.63118 0.69829-2.2064 1.8141c-1.5753 1.1158-4.8481 2.3629-4.8481 2.3629l-10.489-12.299s1.3923-3.945 2.5062-12.717 2.1349-14.248 2.0421-18.704c-0.09282-4.4555-2.5271-7.5997-2.5271-7.5997z" fill="#55629e"/>
  <path d="m48.822 338.96 1.7172-1.3691 0.60335 0.30166 1.5316 2.2974-1.81 1.4156-2.3902-0.3945z" fill="#ccb05c"/>
  <path d="m50.748 345 0.8354 2.599-0.02321 0.4177-1.5548 0.58014-1.9493-1.7636 1.1603-1.1371z" fill="#ccb05c"/>
  <path d="m38.565 346.81 10.257-7.8435 0.69617 0.0928 1.3459 2.5526-10.675 7.9596 9.027-3.8754-0.11603 0.55694 0.90502 2.3438-10.071 3.7825z" fill="#764926"/>
  <path d="m30.267 349.29c3.1072-0.69313 10.108-4.0599 10.108-4.0599s1.9029 1.9493 4.9196 8.7718 3.5273 11.881 3.5273 11.881h-43.255s0.87152-6.7761 2.96-13.088c2.0885-6.312 5.8022-7.3539 5.8022-7.3539s1.0601 1.2129 5.2311 2.6994c4.1711 1.4865 7.6 1.8425 10.707 1.1493z" fill="#624635"/>
  <path d="m7.0981 356.74s-0.046411-3.156 1.9957-6.6832c2.0421-3.5273 3.8986-5.4301 4.966-6.544 1.0675-1.1139 2.9839-2.4321 2.9839-2.4321s-0.19918 0.90053 0.79866 1.4111c0.99784 0.51052 1.7868 0.85861 1.81 1.6476s-5.7086 8.5397-5.7086 8.5397-1.3691 0-3.1096 0.88181c-1.7404 0.88183-3.8289 4.734-3.7825 4.061 0.046411-0.67297 0.046411-0.88182 0.046412-0.88182z" fill="#55629e"/>
  <path d="m19.284 298.89c0.28716 0.23793 0.45945 0.46766 0.45945 0.46766l-0.45125 0.15588s0.22152 0.082 0.361 0.12307c0.13948 0.0411 0.32818 0.0656 0.32818 0.0656l0.40202 0.45944-0.63995-0.0411 0.82045 0.59893-0.28716 0.0985 0.45945 0.1887-0.31997 0.13128s0.61533 0.27074 0.7384 0.27895c0.12307 8e-3 0.1805-8e-3 0.1805-8e-3s-0.05783-0.13693-0.09553-0.29357c-0.03771-0.15664 0.02611-0.29008 0.02611-0.29008s0.13053 0.24947 0.28427 0.40321 0.34808 0.17114 0.34808 0.17114l-0.15084-0.25526s0.16824 0.0377 0.31618 0.12763c0.14794 0.0899 0.24946 0.18274 0.24946 0.18274s-0.0058-0.10152 0.0029-0.25526c0.0087-0.15373 0.07251-0.29007 0.07251-0.29007s0.05802 0.36549 0.26686 0.59175c0.20885 0.22625 0.44961 0.33648 0.44961 0.33648s0.11603-0.32198 0.25816-0.51053 0.24366-0.41189 0.24366-0.41189l0.09573 0.24655s0.08992-0.20595 0.19435-0.37709 0.29297-0.30748 0.29297-0.30748l-0.23206 0.59175s0.21175-0.21466 0.36839-0.34229 0.48732-0.8267 0.48732-0.8267 0.0087 0.14794 0.0087 0.28717c0 0.13924-0.0087 0.24076-0.0087 0.24076s0.12183-0.0581 0.4061-0.26976c0.28427-0.21176 0.52503-0.53954 0.52503-0.53954s-0.01741 0.18565-0.06091 0.31328c-0.04351 0.12763-0.14794 0.28427-0.14794 0.28427l0.53373-0.34518-0.18275 0.36838s0.26397-0.0523 0.56564-0.16534c0.30168-0.11312 0.4148-0.15664 0.44961-0.22626 0.03481-0.0696 0.15664-0.62365 0.15664-0.62365s0.0058-0.15954 0.01159-0.4061c0.0058-0.24656 0.09283-0.50762 0.09283-0.50762l0.12183 0.31037s0.03481-0.22045 0.09862-0.47281c0.06382-0.25236 0.27267-0.47282 0.27267-0.47282l-0.01159 0.52794s0.11313-0.14504 0.22916-0.42932c0.11603-0.28427 0.17694-0.54243 0.17694-0.54243s0.05129 0.12257 0.06769 0.23744c0.0164 0.11486 0.01846 0.17023 0.01846 0.17023s0.1846-0.18049 0.38971-0.25433c0.20511-0.0739 0.39724-0.36802 0.39724-0.36802s-0.01164-0.14066 0.04579-0.25142 0.10666-0.25023 0.10666-0.25023-0.14358 0.2051-0.3651 0.39791c-0.22152 0.1928-0.37741 0.27075-0.37741 0.27075l0.64815-0.89429-0.12307 0.0575 0.02871-0.0656s-0.47996-0.0205-1.0215 0.23383-0.82455 0.70148-0.82455 0.70148l0.02051-0.93942s-0.14768 0.16819-0.21332 0.37331c-0.06564 0.20511-0.05333 0.39381-0.05333 0.39381s-0.16819-0.31177-0.25434-0.65635c-0.08615-0.34459 0.20101-0.89429 0.20101-0.89429s-0.52098 0.35689-0.87788 0.84096c-0.3569 0.48406-0.49637 1.0584-0.49637 1.0584s-0.3733-0.33638-0.61944-0.80403c-0.24613-0.46766-0.1928-1.2266-0.1928-1.2266s-0.24613 0.42252-0.35279 0.7466-0.09024 0.50868-0.09024 0.50868-0.20921-0.22563-0.35689-0.45125-0.27485-0.7466-0.27485-0.7466-0.11076 0.29536-0.13127 0.59892c-0.02051 0.30357 0.02051 0.52098 0.02051 0.52098s-0.31177-0.14768-0.51278-0.49226c-0.20101-0.34459-0.13948-0.7384-0.13948-0.7384s-0.3692 0.3733-0.39792 1.0584c-0.02871 0.68506 0.14768 1.0461 0.14768 1.0461s-0.30356-0.35279-1.1117-0.63174-1.6245 0-1.6245 0 1.2512 0.21332 1.0215 0.26254c-0.22972 0.0492-0.63995-0.0492-0.97633-0.12307-0.33638-0.0739-0.7384-0.0985-0.7384-0.0985s0.50457 0.37331 0.80404 0.7384c0.29946 0.3651 0.44304 0.7343 0.44304 0.7343l-0.15178-0.0943 0.3733 0.53329s-0.29536-0.17639-0.80404-0.31587-1.1286-0.056-1.1286-0.056 0.42299 0.28945 0.71015 0.52738z" fill="#783c1a"/>
  <path d="m30.547 300.44s-0.19725 0.19144-0.59174 0.29587c-0.3945 0.10442-0.92823 0.0697-0.92823 0.0697s0.1916 0.12157 0.35569 0.15439c0.16409 0.0328 0.25844 0.0287 0.25844 0.0287s-0.23383 0.0451-0.31997 0.12307c-0.08615 0.0779-0.24203 0.16408-0.24203 0.16408l0.22972-0.0164-0.10256 0.14357s0.1764 0.0205 0.33638 8e-3c0.15999-0.0123 0.30357-0.0411 0.30357-0.0411s-0.04922 0.21332-0.40202 0.40612c-0.35279 0.19281-0.47996 0.55791-0.47996 0.55791l0.20101-0.0985s-0.11076 0.28305-0.22972 0.42663c-0.11896 0.14357-0.28716 0.25843-0.28716 0.25843s0.13127-0.0246 0.24613-0.0615 0.24613-0.11486 0.24613-0.11486l-0.17229 0.25023s0.09435-0.0247 0.24203-0.0369c0.14768-0.0123 0.23383-4e-3 0.23383-4e-3l-0.40612 0.31998 0.80814-0.10666s-0.08615 0.1887-0.40202 0.32407c-0.31587 0.13538-0.69328 0.22562-0.69328 0.22562l0.45124 0.0903s-0.14768 0.0739-0.33638 0.13537c-0.1887 0.0615-0.41843 0.11076-0.41843 0.11076s0.64405-0.0205 0.58662 0.0451c-0.05744 0.0656-0.28305 0.12307-0.28305 0.12307l1.0215 0.0164s-0.13948 0.11896-0.29126 0.1846c-0.15178 0.0656-0.30356 0.0903-0.30356 0.0903s0.15178 0.0697 0.25024 0.1723c0.09845 0.10256 0.15999 0.16819 0.15999 0.16819s-0.10666-0.0123-0.30356 0.0247c-0.19691 0.0369-0.34869 0.0287-0.34869 0.0287s0.29536 0.1764 0.42253 0.29537c0.12717 0.11895 0.58252 0.1887 0.58252 0.1887l-0.31997 0.16408s0.06564 0.0739 0.15178 0.10256c0.08615 0.0287 0.15588 0.0287 0.15588 0.0287l-0.26254 0.0451 0.27485 0.34459-0.03282 1.0584s0.17229 0.0903 0.33638 0.27075c0.16409 0.1805 0.04102 0.41022 0.58252-0.0411 0.5415-0.45125 1.5588-0.79584 1.5588-0.79584l0.68097-0.0615s-0.04922-0.082-0.29536-0.1846c-0.24613-0.10255-0.42253-0.12306-0.42253-0.12306s0.1805-0.0205 0.39792-0.10666c0.21742-0.0862 0.38151-0.25023 0.38151-0.25023s-0.04102-0.0697-0.39381-0.22563c-0.35279-0.15589-0.59893-0.1928-0.59893-0.1928s0.24203-0.0492 0.45124-0.13948c0.20921-0.0903 0.361-0.10666 0.361-0.10666l-0.11486-0.10255s0.14768-0.0656 0.25434-0.1723c0.10666-0.10666 0.11896-0.23793 0.11896-0.23793s-0.13127 0.082-0.34048 0.12717c-0.20921 0.0451-0.31177 0.0369-0.31177 0.0369s-0.04102-0.0615-0.15999-0.16819c-0.11896-0.10666-0.1887-0.13947-0.1887-0.13947s-0.07794-0.1723-0.0083-0.31178c0.06973-0.13947 0.20661-0.39247 0.20661-0.39247l-1.1371-3.4054z" fill="#783c1a"/>
  <path d="m20.755 306.35s-0.55694 0.80059-0.09283 1.6476c0.46412 0.84701 1.2531 1.3691 1.2531 1.3691s0.0268 0.53026-0.11268 0.84202c-0.13948 0.31177-0.15588 0.89428-0.09845 1.2553 0.05744 0.361 0.3692 0.76302 0.3692 0.76302l-0.02462-0.50868s0.08204 0.15589 0.20101 0.29126c0.11896 0.13537 0.21332 0.13537 0.21332 0.13537s0.10666 0.13948 0.23793 0.26255c0.13127 0.12306 0.21742 0.32407 0.21742 0.32407l-0.0083-0.32407s0.3336 0.31822 0.85573 0.39944c0.52213 0.0812 1.2647-0.0406 1.2647-0.0406l-0.24366 0.19724s0.26106-0.14503 0.51053-0.24366c0.24946-0.0986 0.50472-0.12763 0.50472-0.12763s-0.07791 0.11263-0.13739 0.22133c-0.05948 0.10872-0.11281 0.32408-0.11281 0.32408l0.1764-0.17229 0.01436 0.082s0.22188-0.32172 0.60188-0.57409c0.37999-0.25236 0.76869-0.28136 0.76869-0.28136l-0.22626 0.58304s0.21755-0.21755 0.53663-0.48442c0.31908-0.26686 0.33068-0.35679 0.33068-0.35679l0.34229-0.22046-0.07542 0.59465s0.19725-0.29297 0.29587-0.46701c0.09863-0.17405 0.20305-0.45252 0.20305-0.36839 0 0.0841-0.0203 0.23205-0.0203 0.23205s0.27266-0.36258 0.38579-0.55693 0.16824-0.43221 0.16824-0.43221l0.16534 0.56274 0.07542-0.4032 0.10733 0.36839s0.03771-0.96884 0.06381-1.0268c0.02611-0.058 0.20595-0.60336 0.24656-0.81221s0.06381-0.53662 0.06381-0.53662l0.15084 0.438s0.02611-0.25236 0.03191-0.4264c0.0058-0.17405 0-0.36549 0-0.36549s0.04351 0.0639 0.11603 0.14213c0.07252 0.0783 0.15374 0.10443 0.15374 0.10443s-0.18559-0.41482-0.18559-1.024c0-0.60914 0.0348-0.71937 0.11893-0.71647 0.08412 3e-3 0.11603 0.0174 0.11603 0.0174l-0.04061-0.11893s0.05801 0.0261 0.13053 0.0348c0.07251 9e-3 0.14214-0.0116 0.14214-0.0116s-0.07832-0.0783-0.15084-0.17694c-0.07251-0.0986-0.11313-0.18565-0.11313-0.18565l0.19435 0.11603s-0.0348-0.0639-0.08122-0.13344c-0.04641-0.0696-0.11313-0.0957-0.11313-0.0957s0.07251-3e-3 0.14794-0.0435c0.07542-0.0406 0.07542-0.12472 0.07542-0.12472s-0.0232 0.0377-0.14214 0.0406c-0.11893 3e-3 -0.24076-0.0928-0.24076-0.0928s-0.28464-0.24571-0.43232-0.14725c-0.14768 0.0985-0.02871 0.20101-0.02871 0.20101s-0.12717-0.0615-0.10256 0.10255c0.02462 0.16409 0.1764 0.87378-0.05743 0.66046s-0.27895-0.64815-0.80814-1.3701c-0.52919-0.72199-1.8501-0.3692-1.8501-0.3692s0.09435-0.0697 0.31587-0.16409c0.22152-0.0944 0.47586-0.15179 0.47586-0.15179s-0.30767 0.0205-0.51278 0.082-0.50458 0.1969-0.50458 0.1969 0.06973-0.11075 0.22562-0.2051c0.15588-0.0943 0.22152-0.25844 0.22152-0.25844s-0.13127 0.11486-0.51278 0.14357c-0.38151 0.0287-0.68918 0.22973-0.68918 0.22973v-0.27895s-0.56611 0.16409-1.0461 0.3897c-0.47996 0.22563-0.88608 0.52509-0.88608 0.52509z" fill="#f6e1d5"/>
  <path d="m20.418 304s0.33392 0.0656 0.76055 0.041c0.42663-0.0247 0.76302-0.0739 0.76302-0.0739l0.1887 0.35278" fill="none" stroke="#000" stroke-width=".26458px"/>
  <path d="m25.438 303.81 0.04839-0.51683s0.5163-0.16547 1.066-0.35417c0.5497-0.1887 1.059-0.3104 1.059-0.3104" fill="none" stroke="#000" stroke-width=".26458px"/>
  <path d="m26.454 303.01s-0.21332 0.59892 0.22152 0.45124-0.04102-0.57431-0.04102-0.57431"/>
  <path d="m21.458 304.04s-0.22152 0.41021 0.11486 0.3774c0.33638-0.0328 0.1805-0.41843 0.1805-0.41843"/>
  <path d="m23.386 305.45c-0.45124 0.17229-1.5671 0.5579-1.887 0.57431-0.31997 0.0164-0.50047-0.16409-0.64815 0.0903-0.14768 0.25434-0.20511 0.24614 0.15588 0.49227 0.361 0.24614 1.2225 0.88609 1.3619 0.83686 0.13948-0.0492 0.41022-0.51688 0.71379-0.77122 0.30356-0.25434 0.9271-0.6974 0.9271-0.6974s0.28716-0.13125 0.08204-0.3856c-0.20511-0.25435-0.25434-0.31179-0.70558-0.13949z"/>
  <path d="m22.565 309.36 0.1887 0.11486 0.22152-0.1969 0.45124 0.28716 0.27075-0.38561 0.70558 0.18049 0.48406-0.50867 1.0338 0.50047 0.34459-0.77122 0.45945 0.13947 0.09025-0.31177" fill="none" stroke="#000" stroke-width=".26458px"/>
  <path d="m29.416 297.69s-0.28716 0.0985-0.47586 1.001c-0.1887 0.90249 0.0083 1.2471 0.0083 1.2471s-0.20511 0.26254 0.0083 0.31997c0.21332 0.0575 0.32818-0.16409 0.32818-0.16409s-0.07384 0.11487 0.0164 0.14768c0.09025 0.0328 0.14768-0.0656 0.14768-0.0656s0.13127 0.14768 0.03282 0.26254c-0.09846 0.11486-0.11486 0.1805-0.11486 0.1805s0.16409 0.0247 0.29536 0.0247 0.32259-0.1402 0.32259-0.1402-0.16244 6e-3 -0.16244-0.11023c0-0.11603 0.24366-0.28427 0.30168-0.77739s0.01742-0.64396 0.01742-0.64396l-0.06962 0.16245 0.0058-0.30168-0.08702 0.17984-0.01159-0.39449-0.17984 0.22625s-0.0348-0.21465-0.0348-0.33648 0.07542-0.31908 0.07542-0.31908l-0.18565 0.0812 0.05221-0.13923s-0.06464 0.0353-0.15693 0.0988c-0.0923 0.0636-0.14563 0.1087-0.14563 0.1087s0.01926-0.1104 0.06398-0.23877c0.04472-0.12838 0.18625-0.53244-0.05167-0.40938z" fill="#f6e1d5"/>
  <path d="m18.201 300.65 0.25434-0.0247-0.07795-0.0862s0.24203 0.10666 0.1805-0.0164c-0.06153-0.12308-0.14358-0.20923-0.14358-0.20923s0.1885 0.10412 0.18415 0.0388c-0.0043-0.0652-0.10588-0.2306-0.10588-0.2306s0.02838 0.04 0.10222-0.0339-0.0083-0.25024-0.0083-0.25024 0.06564 0.0328 0.11076-0.0123c0.04513-0.0451 0.05333-0.33228 0.1928-0.11897 0.13948 0.21332 0.38561 0.7097 0.38561 0.7097s-0.16409-0.0123-0.02051 0.27894c0.14358 0.29126 0.20921 0.26665 0.38971 0.59073 0.1805 0.32407 0.35279 0.71379 0.41432 0.77942 0.06153 0.0656 0.15588 0.12307 0 0.22972-0.15588 0.10666-0.41022-0.10665-0.52098-0.10665s-0.3774-0.28716-0.61123-0.60713c-0.23382-0.31998-0.42253-0.45535-0.42253-0.45535h0.10666s-0.06153-0.18461-0.1928-0.33228c-0.13127-0.14768-0.21742-0.14358-0.21742-0.14358z" fill="#f6e1d5"/>
  <path d="m32.88 347.69-0.69617-0.13925s0.04641-0.2204-0.05802-0.26686c-0.10443-0.0464-0.47572-0.0116-0.54534 0.0465s-0.49892 0.17409-0.66136 0.0581c-0.16244-0.11603-0.30168 0.0348-0.33648 0.16243-0.0348 0.1276-0.25526 0.19725-0.3945 0.19725s-0.30168 0.19725-0.30168 0.19725-2.8079 0.83541-4.9196 0.83541-4.7559-1.9072-4.7559-1.9072l-0.5579 1.8706s1.7065 1.7722 3.7084 1.9363c2.0019 0.16408 3.4459 0 3.4459 0s-1.5424 1.9691-2.4285 4.1022c-0.88608 2.1332-0.29536 4.5289-1.2799 6.0057s-1.9034 2.9208-2.166 4.5945c-0.26254 1.6737-0.03282 2.4613-0.03282 2.4613s0.26254-0.62353 1.5096-1.0502c1.2471-0.42663 1.3127-0.42663 1.3127-0.42663s0.98454-3.5115 1.8378-5.8744 1.7393-6.0057 2.1988-7.1215c0.45945-1.1158 2.0347-2.3957 2.0347-2.3957l0.09845 0.59072 1.2799-0.65635v-0.361l1.1158-0.39381s0.722 0.88608 0.78763 2.9536c0.06564 2.0675-1.4768 7.9091-1.2143 8.2701 0.26254 0.361 1.9363 2.4942 2.3629 3.9053 0.42663 1.4112-0.62354 3.0849-0.62354 3.0849s0.72199-0.13128 1.5096 0.361c0.78763 0.49226 1.2471 0.85326 1.2471 0.85326s1.1158-2.8223 0.78763-3.5443c-0.32818-0.72199-2.8552-5.7103-2.888-6.1698-0.03282-0.45945 0.55791-5.6119 0.62354-7.4168 0.06564-1.805 0-2.6911 0-2.6911s2.0141-0.70233 3.9169-1.4217 3.0399-1.2299 3.0399-1.2299-0.34809-0.76579-0.73098-1.2647c-0.38289-0.49893-0.68457-0.74259-0.68457-0.74259s-1.8657 0.72077-3.9004 1.4428c-2.0347 0.722-3.6414 1.1446-3.6414 1.1446z" fill="#3b2a20"/>
  <path d="m14.993 341.44 0.3774 1.0338-0.1805 0.21332 0.34459 0.57431s0.5579-0.13127 2.0183 0.13128c1.4604 0.26254 3.5771 0.1969 3.5771 0.1969s0.54149 0.67277 1.0994 1.0009c0.5579 0.32818 1.2963 0.5415 1.2963 0.5415s0.3774 0.62353 0.86967 1.0174c0.49227 0.39381 0.93531 0.82044 0.93531 0.82044l0.19691 0.52509s-0.24613 1.1158-1.1568 1.2471-1.9363-0.59072-2.5762-0.82865c-0.63995-0.23793-0.96813-0.22973-0.96813-0.22973s-0.61534 0.65636-0.5497 1.0174c0.06564 0.361 0.52483 0.73893 0.8149 1.5627 0.29007 0.82381 0.29007 1.0327 0.45251 1.1835 0.16244 0.15085 0.89342 0.68458 1.4155 1.3807 0.52213 0.69618 2.0305 1.1603 2.4134 1.7752 0.3829 0.61495 0.52213 1.4156 0.3945 1.8449s-0.56854 0.60334-0.92823 0.64976c-0.35969 0.0465-0.38289 0-0.95143-0.4061s-1.752-0.85861-2.1001-1.0095c-0.34809-0.15083-1.4736-1.1371-1.4736-1.1371s0.51053 0.66136 0.8122 1.1139c0.30167 0.45252 0.64976 1.0907 0.64976 1.0907s0.76579 0.39449 1.462 1.0907c0.69617 0.69618 1.0327 1.7868 0.26687 2.1929s-1.1487-0.0232-1.7752-0.47572c-0.62656-0.45251-0.85861-0.53373-0.85861-0.53373s1.2647 0.91663 0.95144 1.6708c-0.31328 0.75419-0.97157 0.22274-1.9889-0.30235-1.0174-0.52508-1.8706-0.93531-1.8706-0.93531s-0.19691-0.24612-0.90249-1.0338-1.2471-1.0502-1.2471-1.0502-0.90249-1.3291-2.1332-2.609c-1.2307-1.2799-1.9034-3.3638-2.3793-3.7576-0.47586-0.39381-0.44304-0.31177-0.67277-1.0174-0.22972-0.70558-0.59072-1.4768-2.3793-3.0685-1.7886-1.5917 6.7441-5.4806 6.7441-5.4806z" fill="#cb8e5f"/>
  <ellipse transform="rotate(7.9132)" cx="63.328" cy="319.06" rx="1.3127" ry=".80404" fill="#cb8e5f" style="paint-order:markers fill stroke"/>
  <g fill="#f0dfd2">
   <path d="m24.362 346.31 0.26254 0.75481s0.30709 0.11486 0.73639 0.31792c0.42931 0.20304 0.61495 0.35968 0.61495 0.35968s-0.04061-0.4119-0.4119-0.93983c-0.37129-0.52792-1.202-0.49258-1.202-0.49258z"/>
   <path d="m24.452 356.94c-0.1887-0.0903-0.66456-0.70557-0.57431-0.89428 0.09024-0.1887 0.82865-0.48406 1.083 0.0575 0.25434 0.54149 0.71379 0.94349 0.71379 0.94349s-1.0338-0.0164-1.2225-0.10668z"/>
   <path d="m23.64 360.2s-0.22973 0.0247-0.69738-0.10666c-0.46765-0.13126-0.79583-0.3692-0.9271-0.67277-0.13127-0.30356-0.20511-0.36099 0.35279-0.3856 0.5579-0.0247 0.69738 0.2051 0.86967 0.61533 0.17229 0.41022 0.40202 0.5497 0.40202 0.5497z"/>
  </g>
  <path d="m48.589 339.94-0.25416 3.1406-2.9689-0.76825-0.26553 3.1524-2.9739-0.68287-0.27334 1.5267 1.4442 0.39684 0.37023-3.0968 2.9972 0.61701 0.3318-3.3478 3.0604 0.5839" fill="none" stroke="#a06334" stroke-linejoin="bevel" stroke-width=".79375"/>
  <path d="m49.326 348.49-2.3387-1.3702-1.0158 2.575-2.3387-1.1576-0.49609 1.4174 1.252 0.37798 0.92132-2.5277 2.2206 1.3465 1.0218-2.6993" fill="none" stroke="#a06334" stroke-linejoin="bevel" stroke-width=".66146"/>
  <path d="m37.167 346.26s0.66817-0.43432 0.98556 0.55124c0.31738 0.98556 2.5915 9.7617 2.5915 9.7617l5.8135-0.41858s-4.0451-8.8253-4.7133-10.195c-0.66817-1.3698-1.8375-1.9043-1.8375-1.9043z" fill="#55629e"/>
 </g>
</svg>
