<?xml version="1.0" encoding="UTF-8"?>
<svg width="200" height="250" version="1.1" viewBox="0 0 52.917 66.146" xmlns="http://www.w3.org/2000/svg">
 <g transform="translate(0 -288.53)">
  <g>
   <path d="m10.468 337.81s-0.27522 0.71862-0.42811 1.2079c-0.1529 0.48928-0.71862 0.96326-0.81036 1.3455-0.091738 0.38225-0.36695 0.79507-0.79507 1.1773-0.42811 0.38223-0.41282 1.0397-0.41282 1.0397s-0.82565-0.24464-1.0397 0.38224c-0.21406 0.62688 0.65746 0.99383 0.045869 1.4678-0.61159 0.47398-1.8195 1.8042-1.8195 1.8042s0.42811 0.55044 0.61159 2.9051c0.18348 2.3546 0.58101 3.4249 0.58101 4.0059 0 0.58102 0.061159 1.3455 2.0182 5.0456s3.9753 5.2291 3.9753 5.2291l2.5993-3.5472s-1.3455-2.2629-1.4067-2.9051c-0.06116-0.64217-0.39753-2.1712-0.39753-2.1712s0.06116-0.22934 0-0.55043c-0.06116-0.32108-0.25993-0.42811-0.25993-0.42811s0.68804-0.44341 0.39753-1.2232c-0.29051-0.77978-0.58101-1.2844-0.61159-2.003-0.03058-0.71863-0.16819-1.8042-0.16819-1.8042s0.9021-0.4587 0.77978-1.1314-0.56572-0.96325-0.56572-0.96325l0.79507-0.84094s0.68804 0 1.2232-0.39753c0.53514-0.39754 0.38224-1.2232 0.38224-1.2232s0.58101-0.56572 1.162-1.162 2.2018-1.7202 2.2018-1.7202l-0.3823-6.2152z" fill="#3d3d3d"/>
   <path d="m9.7336 337.55s1.5696 0.72899 3.6454 1.9399c2.0758 1.2109 5.1463 1.8596 5.1463 1.8596s-1.6217 1.4487-1.492 1.9028c0.12974 0.45408 0.58382 0.82167 0.58382 0.82167s-0.23785 0.86492-0.10811 1.4055c0.12974 0.54057 0.45408 0.82167 0.25948 1.7731-0.19461 0.95141 0.80005 1.4055 0.80005 1.4055s-0.4867 0.26758-0.51728 1.185c-0.03058 0.91739-0.79507 2.0794-0.97854 2.4464-0.18348 0.36696 0.12232 0.67275 0.12232 0.67275l-0.60876 0.53454s1.1898 0.62748 0.8534 0.93328c-0.33638 0.3058-0.24464 2.0182-0.24464 2.0182l23.528 1.095s1.674-0.75486 1.6308-1.3171c-0.04325-0.5622-0.25948-0.73518-0.25948-0.73518s0.30272-0.73517 0.60544-1.3406 0.0865-1.4704 0.0865-1.4704 1.4271-1.4271 1.2109-3.5894c-0.21623-2.1623-0.90817-2.2056-0.90817-2.2056l0.82167-0.60544s-0.21623-1.5569-0.4757-2.8975c-0.25948-1.3406-1.4704-4.3246-1.4704-4.3246l0.43246-0.1946s-1.3406-2.9624-2.0758-4.476c-0.73518-1.5136-2.2488-3.7192-2.2488-3.7192s0.38921-0.21622 0.90816-0.82167l0.77843-0.90817s-0.82168-0.25946-2.2055-0.77842-1.9513-1.2899-3.0278-1.7779c-0.59078-0.26782-2.255-0.74071-2.255-0.74071l-0.35271-0.73827s-0.09904-0.1587-0.29989-0.14705c-0.20085 0.0116-0.45804 0.18394-0.45804 0.18394l-7.421 0.0423s-0.91739-0.30579-0.88681 0.12233c0.03058 0.42811 0.27522 0.8868 0.27522 0.8868s-1.743 0.67275-3.3637 1.0091c-1.6207 0.33637-2.691 0.42811-3.1497 0.51984-0.45869 0.0917-0.76449 0.27522-0.21406 0.51986 0.55043 0.24464 1.2538 0.73391 0.61159 1.1009-0.64217 0.36696-0.85623 0.85623-0.85623 0.85623s-0.3058 0.0917-0.85623 0.76448c-0.55043 0.67275-1.3149 0.79508-2.5075 2.4158-1.1926 1.6207-1.4372 2.5993-2.2629 3.4555-0.82565 0.85623-0.79507 0.91738-0.79507 0.91738z" fill="#805027"/>
   <path d="m40.723 357.54s1.674-0.75486 1.6308-1.3171c-0.04325-0.5622-0.25948-0.73518-0.25948-0.73518s0.30272-0.73517 0.60544-1.3406 0.0865-1.4704 0.0865-1.4704 1.4271-1.4271 1.2109-3.5894c-0.21623-2.1623-0.90817-2.2056-0.90817-2.2056l0.82167-0.60544s-0.21623-1.5569-0.4757-2.8975c-0.25948-1.3406-1.4704-4.3246-1.4704-4.3246s-1.5826 0.53695-2.8566 0.80005c-1.2741 0.2631-1.0272 0.10837-1.0272 0.10837l0.23129 1.2638s0.43698 1.8335 0.48817 2.2423c0.05232 0.41771 0.56939 0.71236 0.16712 1.2984-0.73843 1.0756 0.03206 1.4391 0.03206 1.4391s-0.03711 0.9241 0.6167 2.8184c0.65381 1.8943 0.22129 1.1474 0.3513 1.7729 0.14329 0.68944 0.58203 1.4069 0.73695 2.1064 0.10999 0.49657-0.68675 0.94078-0.58149 1.4026 0.12822 0.56261 0.44673 0.52503 0.66155 1.5872 0.20936 1.0352-0.06145 1.6462-0.06145 1.6462z" fill="#3d3d3d"/>
  </g>
  <g fill="#e98c22">
   <circle cx="32.332" cy="332.93" r=".24866" style="paint-order:markers fill stroke"/>
   <circle cx="33.78" cy="332.25" r=".24866" style="paint-order:markers fill stroke"/>
   <circle cx="34.937" cy="331.33" r=".24866" style="paint-order:markers fill stroke"/>
   <circle cx="36.299" cy="330.68" r=".24866" style="paint-order:markers fill stroke"/>
   <circle cx="37.716" cy="330.14" r=".24866" style="paint-order:markers fill stroke"/>
   <circle cx="38.775" cy="329.23" r=".24866" style="paint-order:markers fill stroke"/>
  </g>
  <g>
   <path d="m20.788 305.68c-0.31074 0.0136-0.4482 0.66743-0.657 1.7004-0.29051 1.4372-0.06101 2.4766-0.06101 2.4766l0.9479 0.48956 0.13575 1.8343-0.48767 0.0232s0.03055 0.35939 0.19109 0.60403c0.16054 0.24464 0.37462 0.42807 0.37462 0.42807s-0.25964 0.10711-0.12204 0.36705c0.13761 0.25992 0.59456 1.1035 0.59456 1.1035s-0.15143 1.4706-0.23792 1.7733c-0.08649 0.30272-1.0378 1.2539-1.0378 1.2539l0.86465-0.15136s-0.69194 0.82174-1.2109 1.6002c-0.51896 0.77842-0.47537 1.4923-0.47537 1.4923s0.5403-0.34613 1.4701-0.0218c0.92979 0.32434 1.4488 0.64849 1.4488 0.64849l-0.79985-0.0866s0.64855 0.32468 1.1891 0.4328c0.54058 0.10811 1.0812 0.50814 1.2974 0.98385 0.21623 0.4757 0.15373 0.63429 0.15373 0.63429s0.07658 1.1469-0.1069 1.3457c-0.18348 0.19876-0.51983 0.36705-0.51983 0.36705s-1.34e-4 1.5289 2.5074 2.8744c2.5075 1.3455 5.1373 0.73362 5.1373 0.73362s0.38909-0.74971 0.44354-1.5586c0.05445-0.80891-0.62387-1.659-0.71112-2.3054-0.08725-0.6464-0.10978-1.795 0.7108-2.7259 0.90974-1.032 2.202-1.59 2.7524-2.5533 0.55043-0.96326 0.95547-1.2691 0.95547-1.2691s-0.32115-0.16836-0.55814-0.31361c-0.23699-0.14523-0.59125-0.22419-0.59125-0.22419s0.19481 0.0105 0.41104-0.0435c0.21623-0.0541 0.43232-0.15137 0.43232-0.15137l-1.3622-0.63761s-0.15129-0.53017-0.14048-1.2005c0.0108-0.67032-0.22704-1.5566-0.22704-1.5566s0.27022-0.2484 0.36752-0.48625c0.0973-0.23785 0.69221-1.1136 0.27056-3.5679-0.42165-2.4542-2.3139-4.1194-2.3139-4.1194s0.01066 0.19448-0.02175 0.35664c-0.03244 0.16218-0.23765 1.0378-0.64849 1.8055-0.41084 0.76761-1.2435 1.8598-1.2435 1.8598l-0.15136-0.0326s0.05406-0.0969 0.22704-0.54017c0.17298-0.44328-0.11852-0.36793-0.61585-0.28143s-0.60544 0.24879-0.60544 0.24879 0.08649-0.39988 0.07568-0.73505c-0.0108-0.33515-0.35705 0.11859-0.4976 0.24833-0.14055 0.1296-0.38313 0.13623-0.38313 0.13623l-0.18353 1.1924-1.7582-0.59598s-0.53508-0.45883-1.5595-1.1163c-1.0245-0.65746-2.538-1.7125-3.2108-2.4464-0.18921-0.20641-0.33769-0.29905-0.45929-0.29373z" fill="#ddd1d1"/>
   <path d="m27.564 312.87c0.64869 1.7731 0.43246 2.2055 0.67031 2.7245 0.23785 0.51895 0.49733 0.80005 0.49733 0.80005s-0.23785 1.2109-1.2541 2.1623c-1.0163 0.95141-1.5785 1.5568-2.4218 2.0326-0.8433 0.4757-0.64869 1.2974-0.44327 1.719 0.20542 0.42164 0.89735 0.76761 2.5407 1.6325 1.6433 0.86492 2.8542 0.41084 3.3516 0.15137 0.49733-0.25949 0.30272-0.9298 0.92979-2.0109 0.62706-1.0812 0.88654-1.665 0.02162-2.7245-0.86492-1.0595-1.9244-2.8759-1.9244-2.8759s0.77843-1.492 0.86492-3.3948c0.08649-1.9028-0.72437-2.8326-1.0703-3.1786-0.34597-0.34597-0.70275-0.38922-0.70275-0.38922l0.14077-0.22704s-0.27365-0.0829-0.47624-0.1785c-0.20259-0.0956-0.32881-0.17199-0.32881-0.17199s-0.25984-0.0383-0.93259 0.17581c-0.67275 0.21405-1.0091 0.42064-1.0091 0.42064s0.89775 1.5596 1.5464 3.3326z" fill="#fcfbfb"/>
   <path d="m20.452 307.92c0.16819-0.87152 0.41282-1.9112 0.41282-1.9112s0.25993 0.65746 1.2385 1.8654 1.9265 3.165 1.9265 3.165-0.42811-0.12996-0.81036-0.0994c-0.38224 0.0306-0.81036-0.0535-0.81036-0.0535s0.0688 0.22935 0.26757 0.50457c0.19877 0.27522 0.35931 0.45105 0.35931 0.45105s-0.33637-0.10703-0.65746-0.16055c-0.32109-0.0535-0.79507-0.36695-0.38989 0.36695 0.40518 0.73391 0.38224 1.3455 0.35166 1.3455s-0.13761-0.0611-0.54279-0.23699c-0.40518-0.17584-1.1314-0.94797-1.1314-0.94797s-0.4434-0.3746-0.6651-1.4067c-0.2217-1.0321 0.0688-0.9403 0.0688-0.9403s0.21406-1.0703 0.38224-1.9418z" fill="#fcfbfb"/>
  </g>
  <path d="m26.751 321.13s0.24464 0.7339 1.4678 0.84093c1.2232 0.10704 1.9724-0.18348 1.9724-0.18348s0.3058 0.22171 0.55808 0.32874c0.25228 0.10703 0.61924 0.0917 0.61924 0.0917" fill="none" stroke="#2a2a2a" stroke-linecap="round" stroke-width=".24218"/>
  <path d="m30.467 320.46s-0.33638-0.0535-0.49692-0.24463c-0.16054-0.19112-1.1544-0.5963-0.32108-0.82565 0.83329-0.22934 2.1711-0.15289 1.873 0.2217-0.29815 0.3746-0.48163 0.35932-0.6651 0.58866-0.18348 0.22935-0.38989 0.25992-0.38989 0.25992z" fill="#2a2a2a"/>
  <path d="m23.861 316.88s0.58101-1.1467 1.9112-1.2996c1.3302-0.15289 1.9571 1.2843 1.9571 1.2843" fill="none" stroke="#2a2a2a" stroke-linecap="round" stroke-width=".24218"/>
  <path d="m30.558 316.85s0.22935-0.91738 1.1162-1.1162c0.88681-0.19876 1.2996 0.58101 1.2996 0.58101" fill="none" stroke="#2a2a2a" stroke-linecap="round" stroke-width=".24218"/>
  <g>
   <path d="m25.314 315.69s-0.35166 1.5443 0.36695 1.4678c0.71862-0.0764 0.1529-1.6054 0.1529-1.6054" fill="#2a2a2a"/>
   <path d="m31.081 316.06s-0.36804 1.1251 0.25992 1.1314c0.62797 6e-3 0.24464-1.4602 0.24464-1.4602" fill="#2a2a2a"/>
   <path d="m28.708 329.11s1.0856 1.9265 1.3914 3.272c0.30579 1.3455 1.0091 2.9356 1.0091 2.9356s0.48927-0.6116 0.48927-1.9571c0-1.3455-0.21405-4.7706-0.21405-4.7706s-0.9044 0.12992-1.4065 0.13054c-0.50208 6.1e-4 -1.5903-0.12268-1.5903-0.12268z" fill="#e98c22"/>
  </g>
  <g fill="none" stroke="#e98c22" stroke-linecap="round" stroke-width=".24218">
   <path d="m23.127 325.99s0.76448 1.2538 2.6145 2.3088c1.8501 1.055 2.9662 0.81036 2.9662 0.81036"/>
   <path d="m31.384 328.59s0.94683-0.56787 1.0792-1.2695c0.13239-0.70165-0.19246-1.6797-0.19246-1.6797"/>
   <path d="m16.103 327.81s1.9028 0.34597 3.3732 0.34597 2.3785 1.2541 3.1137 2.0326c0.73518 0.77843 6.7031 3.7192 6.7031 3.7192"/>
  </g>
  <g transform="matrix(.91532 0 0 .91532 2.3945 37.551)" fill="none" stroke="#4a2e17" stroke-linecap="round" stroke-width=".26458">
   <path d="m19.277 338.57s1.4174-1.7009 3.5908-2.1734c2.1734-0.47248 3.477-1.6236 3.477-1.6236"/>
   <path d="m27.844 334.72 2.1584-2.9573s0.18899 0.56696 1.7481 1.1339c1.5592 0.56697 2.9766 1.4647 2.9766 1.4647l0.94494 2.5041"/>
   <path d="m31.041 332s-0.04725-0.89769 1.0867-2.6458 1.1812-2.4568 1.1812-2.4568"/>
   <path d="m24.143 330.77s1.4812 2.4119 2.9512 3.9988c1.47 1.5869 2.0097 2.1433 3.1436 3.0883 1.1339 0.94494 2.0789 1.9844 2.0789 1.9844"/>
   <path d="m27.545 341.36s0.8032-0.85044 1.4647-1.1812 1.3702-0.8032 1.3702-0.8032"/>
   <path d="m18.143 342.44s1.9371 0.28349 2.9293 1.2284c0.99219 0.94494 1.9371 2.5986 2.3624 2.9293 0.42522 0.33073 1.1812 0.8032 1.1812 0.8032"/>
   <path d="m20.269 341.69 1.1339 2.2206"/>
   <path d="m18.474 333.09 2.5041 2.5041"/>
   <path d="m23.576 336.87s1.1339 0.70871 1.7009 1.8899c0.56696 1.1812 1.1339 2.0316 1.1339 2.0316"/>
   <path d="m36.238 342.44 1.1812 2.0789"/>
   <path d="m21.545 338.76s0.28348 2.3624 1.4174 3.071c1.1339 0.70871 3.4963 1.0394 3.4963 1.0394"/>
   <path d="m21.875 342.91 0.67549-1.3952"/>
   <path d="m25.655 345.28s1.2757 0.0472 3.0711 0c1.7954-0.0472 2.4568-0.21262 2.4568-0.21262"/>
   <path d="m32.364 342.3s0.07563 1.257 0.07563 2.2259c0 0.96885-0.06682 1.6704-0.06682 1.6704"/>
   <path d="m33.876 328.02s1.8041 0.96885 2.7729 1.4032c0.96885 0.43431 1.637 0.43431 1.637 0.43431"/>
   <path d="m34.543 330.71s1.1025 1.0023 1.7038 1.1359c0.60136 0.13363 1.8375-0.26727 1.8375-0.26727"/>
   <path d="m40.425 327.45 0.33409 1.1025"/>
   <path d="m39.857 326.82 0.80181-0.70158"/>
   <path d="m38.387 326.35s0.3675-1.0023 0.93544-1.8375c0.56795-0.83522 1.1025-1.2695 1.1025-1.2695"/>
   <path d="m30.836 340.38s1.5368 0 2.5725 0.83521c1.0357 0.83522 2.6393-0.23386 2.6393-0.23386"/>
   <path d="m18.442 324.28s-0.23386 0.60136-1.2361 0.83522c-1.0023 0.23386-1.9377 1.3698-1.9377 1.3698"/>
   <path d="m19.076 327.96s-0.10668-0.65607-0.27205-1.3648c-0.16536-0.70871-0.47247-1.2048-0.47247-1.2048"/>
   <path d="m13.938 327.09 0.68508-1.2993"/>
   <path d="m10.512 327.44s-0.14174-0.73232 1.0158-1.6773c1.1576-0.94495 1.3702-2.1261 1.3702-2.1261"/>
   <path d="m17.623 331.91s1.0631-1.1103 2.0316-2.6222c0.96856-1.5119 1.7954-2.5041 2.1734-3.0711s0.47247-1.0867 0.47247-1.0867"/>
   <path d="m22.253 321.98s0.59059 2.197 0.49609 4.2759c-0.09449 2.0789-0.85045 3.6616-0.85045 3.6616"/>
   <path d="m26.861 325.52s0.05012-1.1025 0.53454-0.75169c0.48443 0.35079 0.46772 2.2551 0.43431 2.6894-0.03341 0.43431 0.03341 1.0023 0.03341 1.0023"/>
   <path d="m18.709 321.94s0.11693 0.30068 0.50113 0.98556c0.3842 0.68487 0.56795 1.2528 0.56795 1.2528"/>
   <path d="m15.435 329.59s0.60136-0.0501 0.66817-0.91874c0.06682-0.86862 0.26727-1.2695 0.26727-1.2695"/>
   <path d="m32.482 338.33s0.59059-0.99218 1.0867-1.0394c0.49609-0.0473 0.44885-0.75595 0.44885-0.75595"/>
   <path d="m31.656 334.2 0.23624 1.63"/>
   <path d="m38.908 346.17s0.25986-0.37798 0.61421-0.75595c0.35435-0.37798 0.54334-0.70871 0.54334-0.70871"/>
   <path d="m36.569 339.04s0.07087-0.28348-0.02363-1.1339c-0.09449-0.85045 0.04725-0.85045 0.7087-1.0867 0.66146-0.23624 1.2284-0.4961 1.2284-0.4961"/>
   <path d="m22.618 332.8 0.23386 1.8041"/>
   <path d="m25.624 336.58s0.45102 0.60135 0.51783 0.93544c0.06682 0.33409 0.06682 0.68488 0.06682 0.68488"/>
   <path d="m24.589 329.46s1.1359 0 2.4388-0.20046c1.3029-0.20045 1.9377 0.23387 1.9377 0.23387"/>
   <path d="m35.781 326.35 0.83522-1.9711"/>
   <path d="m36.75 327.49s-0.3675-0.73499 0.10022-1.9043c0.46772-1.1693 0.45102-2.0713 0.45102-2.0713"/>
  </g>
  <path d="m39.759 328.94s-0.83441 1.1502-1.717 1.6983c-0.94483 0.58676-1.949 0.50737-2.8887 1.4478-0.93973 0.94046-3.0921 1.6974-3.0921 1.6974" fill="none" stroke="#e98c22" stroke-linecap="round" stroke-width=".24218"/>
  <g fill="#e98c22">
   <circle cx="18.428" cy="327.58" r=".24866" style="paint-order:markers fill stroke"/>
   <circle cx="19.715" cy="327.61" r=".24866" style="paint-order:markers fill stroke"/>
   <circle cx="20.947" cy="327.91" r=".24866" style="paint-order:markers fill stroke"/>
   <circle cx="21.942" cy="328.55" r=".24866" style="paint-order:markers fill stroke"/>
   <circle cx="23.845" cy="330.27" r=".24866" style="paint-order:markers fill stroke"/>
   <circle cx="22.828" cy="329.44" r=".24866" style="paint-order:markers fill stroke"/>
   <circle cx="24.947" cy="330.95" r=".24866" style="paint-order:markers fill stroke"/>
   <circle cx="26.007" cy="331.58" r=".24866" style="paint-order:markers fill stroke"/>
   <circle cx="27.088" cy="332.11" r=".24866" style="paint-order:markers fill stroke"/>
   <circle cx="28.18" cy="332.61" r=".24866" style="paint-order:markers fill stroke"/>
   <circle cx="29.434" cy="333.21" r=".24866" style="paint-order:markers fill stroke"/>
  </g>
 </g>
</svg>
