<?xml version="1.0" encoding="UTF-8"?>
<svg width="200" height="250" version="1.1" viewBox="0 0 52.917 66.146" xmlns="http://www.w3.org/2000/svg">
 <path d="m13.82 41.309s-1.0799-0.25051-5.0035-0.03815-6.4514 0.10207-6.821-0.16918c-0.36956-0.27125-1.8108-0.82493-1.8875-0.23276-0.0767 0.59216 0.24423 1.579 0.48601 1.7973 0.24178 0.21827 0.77325 0.90039 2.6663 2.4613 1.893 1.561 5.8356 4.0897 6.9557 5.8725s1.2821 2.4633 1.2821 2.4633 0.21224-0.75293 0.27955-1.2996c0.0673-0.54671-0.07149-1.2541-0.07149-1.2541s0.58684 0.62954 2.3224 0.67181c1.7356 0.04227 2.5111 0.28979 2.5111 0.28979s-0.28227-0.61578-0.629-0.9941-0.89371-0.77297-0.89371-0.77297 0.70702 0.1105 1.3102-0.11093c0.60322-0.22143 1.1818-0.29851 1.1818-0.29851l-0.80236-0.74524s0.36025-0.18697 2.6875 0.24038 2.7602 0.89249 2.7602 0.89249 0.38748 1.3241 0.5697 3.3239c0.18221 1.9998-0.0299 3.3686-0.0299 3.3686s-1.5059 2.7718-3.6694 5.5719-3.9824 4.8099-3.9824 4.8099h21.097s-1.5837-1.9469-2.8835-4.0156-1.2642-3.9976-1.2642-3.9976 1.7638-2.6911 2.4399-2.9063c0.67612-0.21526 1.6751-1.5078 1.6751-1.5078l-0.0054 2.2842s0.41851-1.1633 0.91428-1.8479c0.49578-0.68461 0.28949-1.8968 0.28949-1.8968s0.75804 0.98524 1.5305 0.95043c0.77251-0.03481 0.07691-11.099 0.07691-11.099l-23.33-2.3162z" fill="#796a42"/>
 <path d="m49.732 42.635s-0.03735-0.30775-0.28777-0.26355c-0.25042 0.04421 0.14736 1.7402-0.05087 2.0524-0.19823 0.31222-2.8658 4.7519-4.347 5.8952-1.4811 1.1433-3.5699 0.41745-3.5699 0.41745l-2.5204 4.1639s0.73582 1.1685 1.8172 2.9695c1.0813 1.801 2.0754 2.0533 2.0754 2.0533s-0.61517-0.14434-1.5115-0.03312c-0.89635 0.11121-1.162 0.11121-1.162 0.11121s0.89282 0.42849 1.7188 1.3763c0.826 0.94777 1.8792 0.48498 1.8792 0.48498s-0.42076 0.66346-0.71083 1.4116c-0.29007 0.74813-0.28066 1.3093-0.28066 1.3093s1.0261-1.0986 2.5312-1.7644c1.5051-0.66579 2.0731-2.6799 2.0731-2.6799s0.01513 0.9083 0.27752 1.6686c0.26239 0.76032 0.62882 1.237 0.62882 1.237s-0.41092-4.2831 1.1349-8.0545c1.5458-3.7715 2.0546-7.5628 2.3594-8.8132 0.30476-1.2504 0.62397-2.2323 0.23132-2.8923-0.39265-0.66007-1.5837-1.605-1.8808-1.4597-0.29713 0.1453-0.405 0.81008-0.405 0.81008z" fill="#796a42"/>
 <path d="m25.496 34.764s-11.935-4.4464-19.489-4.2857c-7.5538 0.16072-8.51 9.2914 0.56239 6.8625 9.0724-2.4289 14.047-1.9052 22.388-0.8314 8.3413 1.0738-3.4612-1.7455-3.4612-1.7455z" fill="#277f29"/>
 <path d="m12.967 31.91-0.12695 1.3164s6.3331 1.9242 14.957 3.8995c5.7113 1.3081 19.78 5.8959 23.905 7.3413 0.79142 0.27736 1.0523 0.05658 1.0523 0.05658l0.14369-0.19359s-1.2378-1.0713-3.1506-1.7381c-5.3885-1.8786-16.501-5.7114-22.825-7.6001-8.575-2.5609-13.955-3.082-13.955-3.082z" color="#000000" fill="#277f29"/>
 <path d="m2.3147 34.889s4.6872-2.4528 14.499-1.2196c0.70362 0.08843 1.4336 0.19582 2.1901 0.32443" fill="none" stroke="#33a736" stroke-width=".26458px"/>
 <path d="m27.714 36.721s-10.589 4.0229-7.2273 0.36699c3.3622-3.6559 7.2273-0.36699 7.2273-0.36699z" fill="#277f29"/>
 <path d="m21.63 37.619s2.2348-1.6703 5.3804-1.9731" fill="none" stroke="#33a736" stroke-width=".26458px"/>
 <path d="m33.074 34.264s-2.5088-0.71563-6.0169-0.32174-3.4335 1.1973-0.12956 3.9413c3.304 2.744 9.9264 3.446 9.9264 3.446s0.02998-1.2894 1.9299-2.4824c1.8999-1.193 3.0923-0.26986 3.0923-0.26986s-0.08705-1.4464-4.6874-3.283c-4.6004-1.8366-4.1148-1.0303-4.1148-1.0303z" fill="#833f3f"/>
 <path d="m45.092 28.974s-0.40769-0.10807-1.247-0.95296c-0.83932-0.8449-1.6471-2.3864-2.2092-2.8623-0.56206-0.47595-1.8853-0.65118-1.8853-0.65118s0.5833 0.0074 1.2361-0.50838c0.65283-0.51571 0.82434-1.3687 0.82434-1.3687s-0.84577 0.48451-2.181 0.01041c-1.3352-0.4741-2.5062 0.56895-2.5062 0.56895s0.26173-0.68609-0.08636-1.508c-0.34808-0.8219-1.1009-1.5441-1.1009-1.5441s0.21843 0.63339 0.26507 1.2416c0.04664 0.60818-0.06127 0.83249-0.06127 0.83249s-0.46425-0.29259-4.1694-0.70027c-3.7051-0.40768-6.4947-2.24-7.4819-2.5754-0.98722-0.33535-1.5627-0.52716-1.5627-0.52716s0.60418 0.68137 1.0201 2.4726c0.41596 1.7912 1.2245 2.7254 1.2245 2.7254s-0.65729-0.16173-0.96091-0.15822c-0.30363 0.0035-0.62945 0.0647-0.62945 0.0647s0.76278 0.46587 1.2587 0.76605c0.49595 0.30018 0.81351 0.6818 0.81351 0.6818s-1.3245 0.40285-3.0727 0.69494-3.271 0.40406-3.271 0.40406-0.77877-0.20286-2.8296 0.18306c-2.0508 0.38592-2.6332 0.91268-2.6332 0.91268s2.8197-0.322 5.1745 1.8352 3.5821 2.2467 3.5821 2.2467-0.89114 0.11116-1.3325 0.28935c-0.4414 0.17819-0.71128 0.44494-0.71128 0.44494s1.8629 0.06064 3.4753 0.81352 3.408-0.1789 3.408-0.1789-0.49421 0.63246-0.5916 1.1101c-0.0974 0.4776-0.06307 1.1723-0.06307 1.1723s0.49829-0.7728 1.3095-1.4139c0.8112-0.64112 1.482-0.67283 1.482-0.67283s0.24575 0.71092 0.62187 1.5782c0.37612 0.86727 0.10894 1.5154 0.10894 1.5154l-0.31853-0.05447 0.70094 0.65893s0.58034 0.02341 1.8506 0.80075c1.2703 0.77732 1.5294 1.4531 1.5294 1.4531l-0.45417 0.27229-1.0354 1.9891 5.5765 1.2821-1.4246-2.3905s0.19965-0.0239 0.4544-0.24313c0.25475-0.21925 0.28904-0.58145 0.28904-0.58145s-0.31989 0.40198-0.73127 0.22948-0.34564-1.1644-0.34564-1.1644l0.21457 0.19552s-0.016-0.14562-0.05906-0.32435-0.14654-0.37237-0.14654-0.37237l0.67398 0.27334s-1.156-0.76306-0.32496-1.916c0.83106-1.153 4.4168-1.3117 4.6876-1.6273 0.27078-0.31561 1.0106-1.4614 1.0106-1.4614s0.99493-0.06299 1.9318-0.88175 0.70257-3.0794 0.70257-3.0794z" fill="#796a42"/>
 <path d="m45.092 28.974-1.3502 0.04027 0.2348 1.034s0.03157-0.71708 0.52237-0.15246 0.52119 0.90367 0.52119 0.90367 0.19383-0.40675 0.2521-1.1292c0.05826-0.72247-0.1803-0.69624-0.1803-0.69624z"/>
 <path d="m21.097 40.168c-1.0906-0.08128-1.7783-0.4272-1.7783-0.4272l-0.35532 0.75559-0.65567-0.15496-0.22137-0.14223s-2.8688 0.0302-3.3953 0.28605c-0.52644 0.25585-0.87148 0.82361-0.87148 0.82361s0.81886-0.62326 3.3207 2.3197c2.5018 2.9429 4.2287 5.9034 6.1694 7.8332s4.4796 3.1662 4.4796 3.1662 0.82328-2.6569 2.2532-5.479c1.4299-2.8221 3.0595-3.9075 4.1635-4.73s1.646-0.89659 1.646-0.89659l0.99327 2.5645s0.70698 1.655 1.3538 4.3822c0.64685 2.7271 0.56463 4.7685 0.56463 4.7685s0.81415-1.3483 2.0497-2.1308c1.2355-0.78251 2.2725-1.0934 2.2725-1.0934s0.35654-0.49199 0.97745-0.89827 0.98314-0.7958 0.98314-0.7958l-0.86723-1.253-0.47135 0.32686s0.05548-0.91356-0.20527-0.96281c-0.26075-0.04926-0.6092-0.8157-1.6211-3.1277s-2.7671-5.5247-2.9897-5.5932c-0.22258-0.0685-1.1717-0.05314-1.1717-0.05314l-1.4041 1.7203-2.0792-1.6988s-0.94248-1.0596-2.4023-1.4903c-1.4486-0.42745-2.5112-0.14115-3.9438 0.42494s-5.7032 1.637-6.7938 1.5557z" fill="#2b475d"/>
 <ellipse transform="matrix(-.9811 .19349 .19349 .9811 0 0)" cx="-27.636" cy="47.834" rx="1.054" ry="1.2198" fill="#f7a42b"/>
 <path d="m40.124 28.754s-0.52846-1.2625-2.242-1.62c-1.7135-0.35756-2.4016 1.6819-2.4016 1.6819" fill="none" stroke="#2b2617" stroke-linecap="round" stroke-width=".27517"/>
 <path d="m38.839 27.474s0.64836 0.71735 0.22254 1.2038c-0.42582 0.4864-0.88831-0.09603-0.9855-0.28495-0.09718-0.18892-0.02337-0.4122-0.02337-0.4122s0.24354-0.01766 0.78632-0.50661z" fill="#2b2617"/>
 <path d="m42.457 32.935s-0.4865 0.04523-1.2865-0.35596-0.8948-0.95851-0.8948-0.95851" fill="none" stroke="#2b2617" stroke-width=".27517"/>
 <g fill="#ffcdb5">
  <ellipse transform="rotate(38.645)" cx="25.948" cy="31.711" rx=".1964" ry=".16338"/>
  <path transform="rotate(128.64)" d="m32.139-26.745c0 0.15837-0.16908 0.42329-0.35946 0.42329-0.19037 0-0.32994-0.26492-0.32994-0.42329 0-0.15837 0.15433-0.28675 0.3447-0.28675s0.3447 0.12838 0.3447 0.28675z" stroke-linecap="round" stroke-linejoin="round" stroke-width=".36238"/>
  <ellipse transform="rotate(38.645)" cx="26.368" cy="31.324" rx=".1964" ry=".16338"/>
  <ellipse transform="rotate(38.645)" cx="26.292" cy="32.203" rx=".1964" ry=".16338"/>
 </g>
</svg>
