<?xml version="1.0" encoding="UTF-8"?>
<svg width="32" height="32" version="1.1" viewBox="0 0 8.4667 8.4667" xmlns="http://www.w3.org/2000/svg">
 <path d="m4.9941 0.052845s-0.72019 0.095822-1.251 0.77451c-0.12983 0.16601-0.21744 0.3408-0.27605 0.51032-0.21143 0.39245-0.23258 0.72371-0.23258 0.72371l0.12363 0.00339c0.00416 0.1642 0.025968 0.26871 0.025968 0.26871s0.66618-0.44669 1.6862 0.41492l-4.8898 5.2415 0.43637 0.43693 4.9513-5.211c0.8726 0.92587 0.48717 1.597 0.48717 1.597s0.098046 0.013413 0.2529 0.00789l0.013549 0.13887s0.35735-0.047421 0.75419-0.31274c0.15442-0.069082 0.311-0.16437 0.45726-0.29579 0.64084-0.57589 0.68701-1.3006 0.68701-1.3006l-0.26193-0.0078948c4e-3 -0.21812-0.025968-0.36298-0.025968-0.36298s-0.60333 0.40365-1.5654-0.30371l0.5425-0.57129-0.51201-0.47871-0.54645 0.58596c-0.84706-0.92554-0.45161-1.6134-0.45161-1.6134s-0.15461-0.020855-0.38105 5.6451e-4z" fill="#494949"/>
</svg>
