<?xml version="1.0" encoding="UTF-8"?>
<svg width="24" height="24" version="1.1" viewBox="0 0 6.35 6.35" xmlns="http://www.w3.org/2000/svg">
 <g transform="matrix(-.7995 0 0 .7995 6.5068 -231.03)" fill="#494949">
  <path transform="matrix(.26458 0 0 .26458 1.1042 289.91)" d="m23.055-0.69141c-0.86124 0.02063-2.372 0.32327-5.0059 1.3887-5.6189 2.2728-4.418 3.3457-4.418 3.3457l0.16797 0.037109c-0.1101-0.00775-0.16797-0.015625-0.16797-0.015625s3.7281 2.8705 4.6973 5.8203c0.19391 0.025652 1.0099 0.079517 3.8105-0.2207 2.7483-0.29458 3.474-0.53712 3.6484-0.61523 0.14177-4.7836-1.6133-9.4043-1.6133-9.4043s-0.0054 0.010434-0.0059 0.011719l0.0059-0.033203s-0.14307-0.33783-1.1191-0.31445zm0.78516 2.2188 0.6875 0.73047-0.0957 0.089844-0.21484 0.18359-0.25 0.19922-0.26562 0.19141-0.5918-0.81055 0.25195-0.17773 0.2207-0.17773 0.17774-0.1543zm-1.5273 1.0781 0.48828 0.87891-0.28906 0.1543-0.48633 0.24414-0.15625 0.066406-0.41211-0.9082 0.14062-0.058594 0.44922-0.22852zm-1.7559 0.82031 0.375 0.92188-0.04297 0.021484-0.6582 0.23633-0.27344 0.095703-0.30859-0.95117 0.25781-0.087891 0.61914-0.23047zm-1.8457 0.63477 0.28711 0.95898-0.94531 0.28125-0.0293 0.00586-0.25781-0.9668 0.02148-0.00781zm-1.8906 0.51562 0.20703 0.97461-0.27344 0.058594-0.39844 0.060547-0.27344 0.021484-0.16992-0.00781-0.06641-0.013672 0.17774-0.98242h0.05078l0.17773-0.015625 0.32422-0.042969zm8.8633 5.9004c-0.16987 0.04026-0.8658 0.17061-3.4883 0.41211-2.7105 0.2496-3.4717 0.21727-3.6445 0.20117 6e-3 0.18624-2e-3 0.37162-0.02734 0.55469 0.13575 0.01549 0.75193 0.05361 3.5078 2e-3 2.6427-0.04963 3.3432-0.22929 3.5254-0.30469 0.05132-0.28701 0.09317-0.57516 0.12695-0.86524zm-7.5215 2.2285c-0.08615 0.15237-0.18248 0.30263-0.30078 0.44922-2.9042 3.5986-5.7454 1.2627-11.049 2.5254-5.2483 1.2496-5.9756 1.6921-5.9902 1.7012-1.5356e-4 9.6e-5 -0.007812 0.0039-0.007813 0.0039l-0.4707 0.16993 0.009766 0.02734-3.0742 1.3184 0.63086 1.5781 3.0273-1.1348c-0.002173 0.1281 0.001781 0.29938 0.027344 0.48438 0.05396 0.3908 0.19641 0.92788 0.70898 1.2246 0.11112 0.06433 0.22146 0.10802 0.33203 0.13867-0.021658 0.10502-0.037391 0.21124-0.044922 0.31836-0.02245 0.31937 0.00932 0.66284 0.22852 0.96875 0.21919 0.30576 0.65724 0.46748 1.0781 0.41211 0.90969-0.11943 1.291 0.55469 1.291 0.55469l0.84961-0.53906s-0.80816-1.1965-2.2734-1.0039c-0.17286 0.02268-0.12251 0.0073-0.13281-0.0078-0.010318-0.01512-0.049786-0.1377-0.037109-0.31836 0.00831-0.11829 0.036436-0.25428 0.076172-0.38477 0.031498-0.0046 0.063141-0.0095 0.09375-0.01367 0.42835-0.05896 0.7703-0.06551 0.87109-0.01563 0.75623 0.37818 1.7207 0.48828 1.7207 0.48828l0.13281-0.9961s-0.91049-0.13774-1.4043-0.38477c-0.29488-0.14754-0.58526-0.17621-0.85938-0.16211-4.4e-6 -0.01947-0.00174-0.03942-0.00391-0.05859-0.026528-0.23547-0.13922-0.37635-0.24218-0.48047-0.20593-0.20863-0.44418-0.33197-0.69531-0.45703-0.22052-0.10979-0.39612-0.18476-0.53906-0.24023 0.69041-0.24233 1.9853-0.59301 4.2539-0.85547 0.11682-0.01352 0.23663-0.02319 0.35742-0.02734-0.17945 0.24587-0.28516 0.54707-0.28516 0.87109 0 0.81067 0.66589 1.4766 1.4766 1.4766 0.81068 0 1.4766-0.6659 1.4766-1.4766 0-0.1767-0.031981-0.34582-0.089844-0.50391 3.6315 0.88838 8.2925 2.8051 13.164-1.2871 1.3988-1.175 2.2604-2.6859 2.7559-4.3242-0.16505 0.02084-0.81939 0.07109-3.3711 0.08008-2.7852 0.01079-3.5384-0.0912-3.6914-0.11914zm-10.27 5.6758c0.00832-4.04e-4 0.016946 0 0.025391 0 0.27025 0 0.48047 0.20847 0.48047 0.47852 0 0.27024-0.21023 0.48047-0.48047 0.48047-0.27025 0-0.48047-0.21042-0.48047-0.48047 0-0.26179 0.19709-0.46597 0.45508-0.47852zm-5.8906 1.5293c0.068 0.03037 0.13741 0.061 0.20312 0.09375 0.13638 0.06803 0.2053 0.12104 0.28711 0.17774-0.010571 0.01434-0.022144 0.02895-0.033203 0.04297-0.14786 7.93e-4 -0.25068-0.0119-0.29102-0.03516-0.055817-0.03222-0.12027-0.1364-0.16602-0.2793z"/>
 </g>
</svg>
