<?xml version="1.0" encoding="UTF-8"?>
<svg width="32" height="32" version="1.1" viewBox="0 0 8.4667 8.4667" xmlns="http://www.w3.org/2000/svg">
 <path d="m3.8345 0.13827s0.3503 0.67903-0.16301 1.0209c-0.51332 0.34191-1.4807 1.5112-1.7762 3.1049-0.2958 1.5955 0.67519 2.2568 1.2807 2.5097-0.016924 0.08726-0.092178 0.39414-0.32662 0.52012-0.27454 0.14729-0.40402 0.10439-0.40402 0.10439l-0.10438 0.41692 2.0547 0.51308 0.10438-0.41692s-0.13486-0.022694-0.30785-0.28204c-0.15498-0.23234-0.061715-0.55673-0.040461-0.62215 0.66668 0.048566 1.7835-0.11523 2.2458-1.619 0.48843-1.5887 0.18443-3.0321-0.10789-3.5752-0.29232-0.54306 0.336-0.9775 0.336-0.9775s-0.56025 0.023148-0.80862 0.64561l-0.22107-0.055147a0.12057 0.12057 0 0 0-0.087371-0.14602 0.12057 0.12057 0 0 0-0.1466 0.087373l-0.24335-0.060934a0.12057 0.12057 0 0 0-0.087958-0.14602 0.12057 0.12057 0 0 0-0.14601 0.08794l-0.24687-0.061615a0.12057 0.12057 0 0 0-0.091476-0.12373 0.12057 0.12057 0 0 0-0.13839 0.066268l-0.1636-0.041077c0.073382-0.66602-0.40988-0.94994-0.40988-0.94994zm0.27325 1.4132 1.612 0.40227c-0.028835 0.77213 0.40522 1.8214 0.13311 2.8352-0.30923 1.152-1.3853 1.0788-1.3921 1.0784l0.1249-0.49959-1.0789-0.26915-0.1249 0.50019-0.0011688-5.901e-4v-5.901e-4s-0.99193-0.44035-0.72242-1.6061c0.23636-1.0224 1.1119-1.745 1.4495-2.4399z" fill="#494949"/>
 <g fill="none" stroke="#494949" stroke-width=".15011">
  <path d="m4.511 1.2063-0.85713 4.2629m0.61516 0.14192 1.1907-4.179"/>
  <path d="m4.984 1.3425-1.0312 4.2053"/>
 </g>
</svg>
