<?xml version="1.0" encoding="UTF-8"?>
<svg width="32" height="32" version="1.1" viewBox="0 0 8.4667 8.4667" xmlns="http://www.w3.org/2000/svg">
 <path d="m8.138 0.13219-1.9824 0.85434-3.9225 4.5517-0.68341-0.58895s-0.162 0.4937 0.079999 0.70225c0.242 0.20855 0.23599 0.54773 0.23599 0.54773l-0.81372 0.94423c-0.20511-0.028632-0.41073 0.048825-0.54596 0.20567-0.21935 0.25511-0.19055 0.63969 0.064345 0.85929 0.25483 0.21967 0.63945 0.19136 0.85937-0.063254 0.14538-0.16861 0.18728-0.40306 0.1093-0.61159l0.79907-0.92724s0.39448-0.053684 0.61481 0.18547c0.22033 0.23915 0.69509-0.034299 0.69509-0.034299l-0.71037-0.61218 1.1515-1.3362z" fill="#494949" style="paint-order:stroke fill markers"/>
</svg>
