<?xml version="1.0" encoding="UTF-8"?>
<svg width="32" height="32" version="1.1" viewBox="0 0 8.4667 8.4667" xmlns="http://www.w3.org/2000/svg">
 <path d="m2.0581 6.2509s-0.5326 0.47892-0.26265 0.61238c0.26995 0.13348 0.63112 0.21084 0.47387 0.49229-0.15725 0.28145-0.65357 0.29292-0.65357 0.29292" fill="none" stroke="#9c9a88" stroke-linecap="round" stroke-width=".088107"/>
 <path d="m1.0729 7.6575s0.085515 0.11555 0.22938 0.23012c0.14386 0.11457 0.34704 0.27829 0.45216 0.067689l-1.06e-5 2.94e-5c0.10512-0.21057-0.1387-0.30679-0.1387-0.30679l-0.19149-0.096313z" fill="#dbc935" stroke="none"/>
 <path d="m1.9915 6.319-0.1373-0.38264 1.5521-1.5987 0.33196 0.18747 0.13 0.33252-1.5002 1.5334z" fill="#d1c038" stroke-width=".77557"/>
 <path d="m2.7896 5.4797-0.47701-0.017845 0.055444 0.92873-0.37659-0.072006-0.13728-0.3824 0.95777 2.855e-4z" fill="#4b88aa" stroke-width=".77557"/>
 <g transform="matrix(.96671 -.32457 -.26509 .99128 1.1595 1.4504)">
  <path d="m2.7429 4.4468 2.3242-2.3123 1.9495-0.96885-0.78451 1.5887-2.3675 2.4799-0.51311-0.12869z" fill="#a6b7b9"/>
  <g fill="#48595b" fill-opacity=".25">
   <path d="m4.4115 3.0478c-0.13143 5e-3 -0.2168 0.0909-0.29102 0.1875-0.14843 0.1932-0.25877 0.48968-0.26367 0.77929-0.00159 0.0939-0.012916 0.0887-0.037109 0.0977-0.024194 9e-3 -0.09779 7e-3 -0.17969-0.0176-0.16379-0.0484-0.36528-0.17452-0.36528-0.17452l-0.18608 0.18703 0.065032 0.0519s0.19603 0.12566 0.41211 0.18946c0.10804 0.0319 0.22583 0.056 0.3457 0.0117 0.11987-0.0443 0.20627-0.18167 0.20898-0.3418 0.0037-0.21836 0.10836-0.48953 0.21094-0.62305 0.046737-0.0608 0.083293-0.0734 0.083984-0.0762 0.00669 8e-3 0.018571 0.0225 0.03125 0.0605 0.047577 0.14266 0.13822 0.24837 0.24219 0.31054 0.10397 0.0622 0.21687 0.0863 0.31836 0.0937 0.095621 7e-3 0.25239-0.011 0.25239-0.011l0.26638-0.2855-0.22224 0.0288s-0.12989 0.0129-0.277 2e-3c-0.073554-5e-3 -0.14518-0.0232-0.20117-0.0566-0.055989-0.0335-0.10003-0.0775-0.12891-0.16406-0.023432-0.0703-0.054046-0.12912-0.10156-0.17579-0.047516-0.0467-0.11788-0.0768-0.18359-0.0742z" color="#000000"/>
   <path d="m4.7509 4.3054c0.00866-0.0479 0.016519-0.0987 0.021902-0.14808 0.010178-0.0935 0.02341-0.17462-0.019531-0.27344-0.010735-0.0247-0.02776-0.0527-0.058594-0.0762-0.030833-0.0234-0.075911-0.0353-0.11328-0.0332l3.1e-6 -8e-5c-0.07474 4e-3 -0.11632 0.0384-0.16016 0.0781-0.1762 0.15968-0.24204 0.40408-0.28125 0.60742-0.039207 0.20335-0.042969 0.375-0.042969 0.375l0.00191 0.14962 0.27213-0.28001s0.014858-0.12196 0.028688-0.19368c0.011137-0.0578 0.076456-0.26634 0.11056-0.31516 0.051817-0.0832-0.017723 0.27038-0.032888 0.39052" color="#000000"/>
   <path d="m3.9704 5.116c-0.012644-0.0481-0.030739-0.1097-0.05495-0.17569-0.05464-0.14892-0.13406-0.32852-0.28125-0.44726-0.073679-0.0594-0.1584-0.09-0.23633-0.0899l8e-7 1.3e-4c-0.077932 1.2e-4 -0.14281 0.0297-0.19141 0.0625-0.097183 0.0657-0.14648 0.1543-0.14648 0.1543l0.23047 0.13281s0.029319-0.0446 0.064453-0.0684c0.017567-0.0119 0.03183-0.0156 0.044922-0.0156 0.013092-2e-5 0.031623 2e-3 0.068359 0.0312 0.073638 0.0594 0.15013 0.20355 0.19727 0.33203 0.024377 0.0664 0.042346 0.12685 0.054015 0.16969l0.14519 0.0324z" color="#000000"/>
   <path d="m5.2461 2.0492s0.080017 0.11366 0.09707 0.1939c0.017053 0.0802 0.023816 0.1512-0.11914 0.24609-0.11139 0.0739-0.18063 0.17065-0.21094 0.26563-0.03031 0.095-0.025403 0.18092-0.021484 0.24804 0.00392 0.0671 0.00216 0.11766 0 0.125-0.00216 7e-3 0.023699-7e-3 -0.019531 2e-3 -0.010505 2e-3 -0.00594 9.9e-4 -0.00781 0-0.00187-1e-3 -0.011886-8e-3 -0.023437-0.0254-0.023102-0.0357-0.04747-0.11184-0.0625-0.19336-0.03006-0.16306-0.027344-0.3418-0.027344-0.3418l-0.011787-0.19862-0.25336 0.23508s-0.00584 0.15546 0.030771 0.35402c0.018303 0.0993 0.046321 0.20061 0.10352 0.28907 0.028597 0.0442 0.065337 0.0867 0.11914 0.11523 0.053803 0.0286 0.12232 0.0385 0.18555 0.0254 0.10422-0.0215 0.19573-0.10265 0.2207-0.1875 0.024974-0.0848 0.0133-0.15234 0.00977-0.21289-0.00353-0.0605-0.00361-0.11238 0.00977-0.1543 0.013377-0.0419 0.036305-0.081 0.10547-0.12695 0.21815-0.14481 0.26498-0.36645 0.23242-0.51953s-0.1211-0.25972-0.1211-0.25972z" color="#000000"/>
   <path d="m5.7595 1.7898c-0.034955 0.15274-0.019133 0.35806 0.12271 0.57638 0.061738 0.0951 0.061716 0.13756 0.060547 0.14258-0.00117 5e-3 -0.00548 0.0166-0.050781 0.0391-0.045305 0.0224-0.11846 0.0437-0.19531 0.0723-0.076848 0.0286-0.16054 0.0641-0.23047 0.13867-0.068564 0.0732-0.095652 0.16736-0.09375 0.25 0.0019 0.0827 0.026376 0.15645 0.054687 0.21875 0.056622 0.1246 0.13955 0.21485 0.13955 0.21485l0.18203-0.18145s-0.043635-0.0597-0.081348-0.14277c-0.018856-0.0415-0.030555-0.0851-0.03125-0.11524-6.947e-4 -0.0302 0.00264-0.0443 0.021484-0.0644 0.017478-0.0187 0.0657-0.0461 0.13086-0.0703 0.06516-0.0242 0.14413-0.0461 0.2207-0.084 0.076573-0.0379 0.16556-0.1039 0.19141-0.21484 0.025849-0.11094-0.014871-0.22317-0.095703-0.34766-0.12359-0.19022-0.10951-0.31559-0.078125-0.40625 0.031385-0.0906 0.086215-0.19487 0.086215-0.19487" color="#000000"/>
   <path d="m6.6244 1.9443c-0.12162-4e-3 -0.13979-0.0301-0.15039-0.0508-0.010605-0.0206-0.014057-0.0785 0.00781-0.15235 0.043733-0.14759 0.1621-0.31638 0.1621-0.31638l0.068002-0.10212-0.4331 0.20826s-0.036898 0.0887-0.050923 0.13605c-0.031474 0.10622-0.051048 0.22932 0.00977 0.34765 0.047937 0.0933 0.14546 0.157 0.27058 0.18284z" color="#000000"/>
  </g>
 </g>
 <path d="m3.1355 5.075c-0.57417-0.48957-0.80723-0.92624-0.80723-0.92624s-0.35781 0.7036 0.37566 1.3606c0.73347 0.65698 1.5134 0.3215 1.5134 0.3215s-0.50764-0.26629-1.0818-0.75586z" fill="#7a7a7a"/>
 <g fill="#7a7a7a">
  <circle cx="1.8947" cy="6.4302" r=".089873"/>
  <circle cx="1.7461" cy="6.6317" r=".089873"/>
  <circle cx="1.7821" cy="6.8621" r=".089873"/>
  <circle cx="2.0161" cy="6.9665" r=".089873"/>
  <circle cx="2.2466" cy="7.0961" r=".089873"/>
  <circle cx="2.2898" cy="7.3337" r=".089873"/>
  <circle cx="2.1124" cy="7.5211" r=".089873"/>
  <circle cx="1.8657" cy="7.6163" r=".089873"/>
 </g>
 <path d="m1.6157 7.6485s0.25694-0.12121 0.14495-0.32817c-0.11199-0.20697-0.34253-0.00265-0.48257 0.11657-0.14004 0.11926-0.2052 0.22056-0.2052 0.22056" fill="#4b88aa" stroke="none" stroke-miterlimit="2" stroke-width=".26458"/>
</svg>
