<?xml version="1.0" encoding="UTF-8"?>
<svg width="32" height="32" version="1.1" viewBox="0 0 8.4667 8.4667" xml:space="preserve" xmlns="http://www.w3.org/2000/svg"><rect width="8.4667" height="8.4667" fill="#4e5742" stroke-linecap="round" stroke-linejoin="round" stroke-width=".31089"/><path d="m7.427-1.0338-9.2617 1.1693 0.51779 2.2121 3.0846 0.12928z" fill="#10130b"/><path d="m6.1956 1.6067s-1.642-0.074067-2.346 0.9552c-0.70399 1.0293-2.9968 0.90591-3.7094 0.78121-0.7126-0.1247-3.0878 0.15146-3.0878 0.15146" fill="none" stroke="#f00" stroke-dasharray="0.264584, 0.740836" stroke-linecap="round" stroke-width=".26458"/><g transform="translate(.69566 .080093)" fill="none" stroke="#f00" stroke-linecap="round" stroke-width=".26458"><path d="m6.0638 1.1891 0.88208 0.88208"/><path d="m6.0638 2.0711 0.88208-0.88208"/></g><g fill="#717e60"><path d="m5.4952 7.8833s-0.031111-0.63996 0.28936-0.63683c0.32047 0.00308 0.30335 0.65619 0.30335 0.65619z"/><path d="m7.8877 8.0647s-0.00767-0.15785 0.023859-0.31637c0.016442-0.08266 0.090479-0.052565 0.13489-0.11331 0.041909-0.057327 0.052297-0.20791 0.13062-0.20715 0.32047 0.00312 0.30335 0.65619 0.30335 0.65619z"/><path d="m7.196 6.2528s0.071773-0.63668-0.24826-0.65396c-0.32002-0.017285-0.34449 0.63556-0.34449 0.63556z"/></g><g fill="none" stroke="#717e60" stroke-width=".15069"><path d="m3.515 7.3357 0.031125 1.0463"/><path d="m3.8519 6.7197 0.031125 1.0463"/><path d="m4.0034 6.1021 0.25142 0.42247 0.015577 0.52313"/><path d="m4.6085 5.319 0.031125 1.0463"/><path d="m4.9435 4.7314 0.031125 1.0463"/><path d="m5.3023 4.032 0.031125 1.0463"/><path d="m5.6213 3.4509 0.031125 1.0463"/><path d="m6.2451 3.4535 0.031125 1.0476"/><path d="m7.0146 3.6257-0.19988 0.42146 0.014976 0.50406"/><path d="m7.3823 3.5163 0.031125 1.0476"/><path d="m7.9726 3.5691 0.031125 1.0476"/><path d="m3.196 7.9168 0.031125 1.0463 2.4253-4.4659 3.0231 0.14618-0.015562-0.52379-3.0231-0.14552-2.4455 4.4778"/></g><g fill="#fff"><circle transform="rotate(5.9681)" cx="1.7257" cy="1.2432" r=".080889"/><circle transform="rotate(5.9681)" cx="3.3075" cy="-.01072" r=".080889"/><circle transform="rotate(5.9681)" cx="4.849" cy="-.08811" r=".080889"/></g><g fill="#7d7d7d"><circle transform="rotate(5.9681)" cx="1.3361" cy="1.04" r=".080889"/><circle transform="rotate(5.9681)" cx=".60319" cy="1.8781" r=".080889"/><circle transform="rotate(5.9681)" cx="2.5844" cy=".058504" r=".080889"/><circle transform="rotate(5.9681)" cx="2.1322" cy="-.068376" r=".080889"/><circle transform="rotate(5.9681)" cx=".64655" cy=".14062" r=".080889"/><circle transform="rotate(5.9681)" cx="2.26" cy=".54202" r=".080889"/><circle transform="rotate(5.9681)" cx="3.595" cy=".33615" r=".080889"/><circle transform="rotate(5.9681)" cx="3.0656" cy="1.0909" r=".080889"/><circle transform="rotate(5.9681)" cx="1.7311" cy="1.9785" r=".080889"/><circle transform="rotate(5.9681)" cx=".73826" cy="1.4725" r=".080889"/><circle transform="rotate(5.9681)" cx="4.2102" cy="-.18886" r=".080889"/><circle transform="rotate(5.9681)" cx="5.1686" cy="-.43563" r=".080889"/></g><path transform="matrix(.57728 0 0 .57728 -29.186 -6.0511)" d="m51.252 11.302 0.13237 0.38081 0.40308 0.0082-0.32127 0.24357 0.11675 0.38589-0.33093-0.23028-0.33093 0.23028 0.11675-0.38589-0.32127-0.24357 0.40308-0.0082z" fill="#fff"/><g fill="none" stroke="#895b86" stroke-linecap="round" stroke-width=".20997"><g><path d="m1.9061 4.7558s0.011547-0.12422 0.065157-0.29879c0.05046-0.16429 0.1426-0.2817 0.1426-0.2817"/><path d="m1.6251 4.7381s-8.921e-4 -0.095945-0.027626-0.21049c-0.030467-0.13059-0.086315-0.21286-0.086315-0.21286"/><path d="m0.60797 6.2785s0.011546-0.12422 0.065156-0.29879c0.050462-0.16429 0.1426-0.2817 0.1426-0.2817"/><path d="m0.29963 5.4647s-8.924e-4 -0.095945-0.027626-0.21049c-0.030467-0.13059-0.086315-0.21286-0.086315-0.21286"/><path d="m2.9545 6.4095s0.020351-0.44854-0.33672-0.8394c-0.43741-0.47879 0.015847-1.1652 0.50743-0.89835 0.34918 0.18957 0.28908 0.63766 0.013286 0.69211-0.2758 0.054455-0.31756-0.21023-0.21603-0.30877"/></g><path d="m2.3379 7.5819s0.051438-0.5924-0.18429-0.88163" stroke-linejoin="round"/></g><g fill="#895b86"><circle transform="scale(-1,1)" cx="-2.0955" cy="5.794" r=".15439"/><circle transform="scale(-1,1)" cx="-1.0782" cy="6.9024" r=".15439"/><circle transform="scale(-1,1)" cx="-4.0109" cy="5.3032" r=".15439"/><circle transform="scale(-1,1)" cx="-.51425" cy="8.0113" r=".15439"/></g></svg>
