<?xml version="1.0" encoding="UTF-8"?>
<svg width="100" height="100" version="1.1" viewBox="0 0 26.458 26.458" xmlns="http://www.w3.org/2000/svg">
 <g>
  <rect x="-.65657" y="-.36378" width="27.784" height="27.414" rx=".20684" ry=".20684" fill="#fefefe"/>
  <path d="m-0.63333 14.498 2.3492-1.3166 3.2332 0.72318 1.9739-1.9943 3.5294-0.87611 8.6928 1.4292 3.7703-2.7851 2.5815 0.43678 2.8124-0.56448-0.6739-11.704-29.823 1.0065z" fill="#1ab315"/>
  <path d="m4.944 18.914 2.6103-5.8999 1.5879-1.1041 0.48678-2.523 1.2215-0.28708 1.4298-4.6832 1.443-0.57068 2.0857-2.3913 2.0704 2.8362 1.5916 4.6805 3.9936 1.9033 1.7756 4.3883 4.3936 4.8722 0.0065 3.0611h-25.107z" fill="#e9e9e9"/>
  <path d="m10.85 9.0998 2.338-3.3656 2.7748-1.6348 1.9161 0.19153-2.0704-2.8362-2.0857 2.3913-1.443 0.57068z" fill="#fefefe"/>
 </g>
 <path d="m2.2403 5.3432s0.86923 0.78987 1.0807 1.9928c0.20926 1.1901 0.041631 3.137 0.64654 3.2898 0.60491 0.15282-0.57089 3.1607-0.57089 3.1607s-0.61767 1.3222-0.77942 2.689c-0.16176 1.3668 0.96744 1.6339 0.68081 2.5614-0.28664 0.92752-1.3321 3.4193-0.60407 3.9008 0.72804 0.48154 4.298 2.215 6.591 1.3846 2.469-0.8942 7.307 0.46307 7.7461-1.0165 0.43909-1.4796 0.08807-0.85005-0.702-2.0832-0.79007-1.2332-0.91332-1.877-2.973-2.0984-2.0596-0.22141-7.9954-0.58828-3.5038-1.8735 4.4916-1.2852 4.707-1.2692 6.5928-0.94318s3.1586 0.4247 3.7094-0.62602c0.55078-1.0507 0.78219-2.3385 2.3437-3.039 1.5615-0.70046 1.2657-0.52463-0.55662-1.2128s-4.1988-1.4543-6.5625-1.6306c-2.3637-0.17632-6.6254-0.48672-4.864-0.60716 1.8958-0.12964 2.9858-2.2363 4.7497-2.8469 1.7639-0.61062 0.87928-1.2846 0.69822-2.2456-0.18106-0.96099-0.1635-1.2681-0.1635-1.2681" fill="none" stroke="#fc0000" stroke-dasharray="0.0661472, 0.198441" stroke-linecap="round" stroke-width=".066147"/>
 <g fill="#f00">
  <circle cx="3.2703" cy="14.091" r=".23128"/>
  <circle cx="2.868" cy="23.054" r=".23128"/>
  <circle cx="3.3375" cy="18.581" r=".23128"/>
  <circle cx="3.4558" cy="8.8829" r=".23128"/>
  <circle cx="11.902" cy="16.651" r=".23128"/>
  <circle cx="2.1725" cy="5.319" r=".23128"/>
  <circle cx="10.298" cy="9.1089" r=".23128"/>
  <circle cx="13.663" cy="7.3182" r=".23128"/>
  <circle cx="16.298" cy="5.6188" r=".23128"/>
  <circle cx="16.485" cy="9.9202" r=".23128"/>
  <circle cx="20.592" cy="10.939" r=".23128"/>
  <circle cx="15.769" cy="2.5323" r=".23128"/>
  <circle cx="23.49" cy="12.094" r=".23128"/>
  <circle cx="20.993" cy="13.963" r=".23128"/>
  <circle cx="15.233" cy="19.743" r=".23128"/>
  <circle cx="11.927" cy="18.976" r=".23128"/>
  <circle cx="16.563" cy="23.818" r=".23128"/>
  <circle cx="13.58" cy="9.691" r=".23128"/>
  <circle cx="15.802" cy="16.208" r=".23128"/>
  <circle cx="21.34" cy="18.555" r=".23128"/>
  <circle cx="19.462" cy="16.35" r=".23128"/>
  <circle cx="17.2" cy="22.469" r=".23128"/>
  <circle cx="8.6107" cy="17.695" r=".23128"/>
  <circle cx="11.56" cy="23.998" r=".23128"/>
  <circle cx="6.8432" cy="24.447" r=".23128"/>
 </g>
 <path d="m19.536 16.373s1.2557-0.24835 1.1544 1.0079 0.74669 1.1279 0.74669 1.1279" fill="none" stroke="#f00" stroke-dasharray="0.0661461, 0.198438" stroke-linecap="round" stroke-width=".066146"/>
 <path d="m-0.1594 16.528 1.1695 1.5811-0.24439 2.1284-1.2483 0.72559z" fill="#1ab315"/>
 <g fill="#fefefe">
  <path d="m0.73205 12.415 1.374-0.30143 0.40137-0.81102-1.2761-0.34465-0.86943 0.66652z"/>
  <path d="m5.7397 11.567 1.5728-0.38105 0.35083-0.62413-2.0847 0.21881z"/>
  <path d="m25.129 8.9723 2.2821 0.13191 0.12729-1.2449-1.7424-0.10157-1.0407 0.46228z"/>
  <path d="m10.452 11.034-0.58487 2.8129-2.4009 2.2709-0.71402 1.9479 1.4334-1.6042 2.5961-2.2541z"/>
  <path d="m11.522 17.894 2.9404-0.74643 3.251 1.3255 2.035-0.44568-2.3575 1.3958-0.1891 1.6282-1.248-2.2608-1.2813-1.0027z"/>
  <path d="m12.703 11.539 0.86959 3.596 0.37229-1.983z"/>
  <path d="m16.557 11.315 4.432 1.0405-1.7813 2.7117 0.36671-1.9514z"/>
  <path d="m15.851 8.0671 2.8237-1.4359 0.79578 2.3403z"/>
  <path d="m24.208 18.747 3.2286-1.0474-0.04676 1.822z"/>
 </g>
</svg>
