<?xml version="1.0" encoding="UTF-8"?>
<svg width="960" height="200" version="1.1" viewBox="0 0 254 52.917" xmlns="http://www.w3.org/2000/svg" xmlns:xlink="http://www.w3.org/1999/xlink">
 <path d="m13.941 0.4098c-0.70956 0.022251-1.4948 0.25884-2.2481 0.86662-1.5066 1.2156-1.1363 4.0091-1.1363 4.0091 0 0-0.1441-1.1505-1.9368-1.3544-1.7927-0.20396-2.5503 1.2346-2.5503 1.2346 0 0-0.22801-1.3234-1.3633-2.1601-1.1353-0.83674-4.2214-1.75-5.4505 0.95085-1.2291 2.7009 0.10146 4.0396 0.10146 4.0396l-0.030438 50.385h122.87l101.7 0.09715h31.1l-0.32573-23.406s0.35908-1.7228-1.1684-2.1513c-1.5275-0.42852-2.4831 0.96739-2.4831 0.96739l-0.38127-0.16485s0.93764-4.417-2.2246-5.224c-3.1623-0.80698-4.9966 1.3219-4.9966 1.3219s-0.53243-4.6204-5.357-4.4674c-4.8246 0.15293-7.8134 2.2397-7.8134 2.2397s-0.66797-2.127-2.9872-1.6624c-2.3192 0.46461-3.3631 1.9255-3.3631 1.9255s-0.67302-2.6374-3.7508-1.8593c-3.0777 0.77804-3.8255 3.0717-3.8255 3.0717s-0.33392-1.6255-1.5512-2.7993c-1.2174-1.1738-4.6083-2.1079-6.9408 0.1018-2.3325 2.2097-2.0099 5.1951-2.0099 5.1951s-0.26863-0.94714-1.32-1.5152c-1.0514-0.56801-3.9411-1.213-5.8819 1.0325-1.9408 2.2455-1.8519 4.9651-1.8519 4.9651s-0.56494-0.95742-2.0409-0.94103c-1.476 0.01639-1.8839 0.86662-1.8839 0.86662s-0.56471-4.014-3.3513-4.593c-2.7866-0.57902-4.1368 1.4976-4.1368 1.4976 0 5e-6 -1.1305-2.6508-3.8848-3.2928-2.7543-0.64201-4.1598 1.7994-4.1598 1.7994s-0.9172-2.9845-4.4065-3.0164c-3.4893-0.03187-4.2666 3.0314-4.2666 3.0314s-2.05-1.0637-3.7812 0.48111c-1.7312 1.5448-1.1524 3.1673-1.1524 3.1673s-0.98371-0.26872-1.6314-0.12661c-0.64766 0.14214-2.4705 0.90218-2.3896 3.5574 0.081 2.6552 1.2805 5.2002 1.2805 5.2002s-3.3317-2.3288-5.797-2.959c-2.4654-0.63026-3.1554 0.34417-3.1554 0.34417s-0.0136-0.5117-0.53452-1.3023c-0.52095-0.79052-1.8656-0.92463-3.5585 0.10956-1.693 1.0342-1.1321 2.2536-1.1321 2.2536s-1.9589-0.65888-3.4581-0.11576c-1.4992 0.54312-2.0639 1.5028-2.0639 1.5028s0.13459-1.0708 0.10359-1.4557c-0.031-0.38491-0.10289-2.2382-2.333-2.8763-2.2301-0.63808-3.975 0.94052-3.975 0.94052s-1.1168-1.9522-3.7988-2.6593c-2.682-0.7071-2.5877 1.2728-2.5877 1.2728s-2.6684-2.5176-5.0409-1.1777c-2.3725 1.3399-1.4348 3.9295-1.4348 3.9295s-1.3343-3.8451-4.5432-5.7439c-3.2089-1.8988-3.6178 0.99529-3.6178 0.99529s-2.8299-1.6098-4.6142-0.33435-1.1839 2.8551-1.1839 2.8551-1.3983-0.22586-2.3784 0.52865c-0.98012 0.7545-1.0018 1.6366-1.0018 1.6366s-3.8112-0.71744-6.2215 1.4211c-2.4103 2.1386-1.9325 3.6665-1.9325 3.6665l-0.44642-0.02791s-1.647-2.1472-5.1167-2.1756c-3.4697-0.02843-5.0334 2.0857-5.0334 2.0857s-0.4344-1.7415-1.6297-3.0096c-1.1953-1.2682-2.3816-1.7808-2.3816-1.7808s2.2796-1.176 3.8383-5.6648c1.5588-4.4888-2.6374-4.7465-2.6374-4.7465s-1.6836-5.5265-3.8293-8.014c-2.1456-2.4875-6.3556-4.8138-10.084-2.8221s-2.9813 5.2168-2.9813 5.2168-0.97814-2.0099-2.8227-2.96c-1.8445-0.9506-3.7369-0.0016-3.7369-0.0016s0.23577-1.9569-1.4012-2.5327c-1.637-0.5758-2.6331 0.47336-2.6331 0.47336s0.47225-3.5299-0.89123-5.4891c-1.3635-1.9592-3.9925-4.7932-7.2879-4.9873-3.2954-0.19414-3.5318 2.5528-3.5318 2.5528s-1.0367-1.5933-2.6342-1.9312c-1.5975-0.33785-4.1404-0.64828-6.1665 1.6133-2.0261 2.2616-1.2853 4.7858-1.2853 4.7858s-0.36445-0.89745-1.0931-0.99374c-0.72863-0.09629-1.257 0.48989-1.257 0.4899 0-1e-6 0.49284-3.4375-1.1283-4.098-1.6212-0.66049-2.2364 0.23616-2.2364 0.23616s0.38147-2.9593-2.3522-4.2566c-2.7337-1.2973-5.0777-0.098703-5.0777-0.098703s0.68862-0.64476 0.99269-1.3637c0.30407-0.71899 0.99549-3.1276-1.1225-4.5486-2.1179-1.421-3.8303 0.023254-3.8303 0.023254s-0.27269-1.1627-1.1716-1.6588c-0.44944-0.24808-1.083-0.4398-1.7926-0.41755z" fill="#fff"/>
</svg>
