<?xml version="1.0" encoding="UTF-8"?>
<svg width="840" height="520" version="1.1" viewBox="0 0 222.25 137.58" xmlns="http://www.w3.org/2000/svg">
 <g transform="translate(0 -288.53)">
  <path d="m104.21 318.51 3.963 4.3855 0.49818 17.95 0.46564-17.939 2.946-4.2637z" opacity=".1"/>
  <path d="m119.38 318.65-3.3938 5.0969-0.49819 17.096-0.32334-16.99-3.0882-5.2123z" opacity=".1"/>
  <path d="m127.2 318.04-4.4847 5.4764-0.3559 16.907-0.46563-16.895-4.0843-5.4969z" opacity=".1"/>
  <path d="m160.99 319.27 0.80494 10.062-2.3478 5.5004 3.0185-4.8297 7.3786-2.0124z" opacity=".1"/>
  <path d="m164.68 315.24 6.1042 7.7811 0.67078 18.38-0.20124-18.245 3.1527-4.7626 2.6831 4.6955 0.3354 17.977 0.13416-18.178 5.6346-6.1041z" opacity=".1"/>
  <path d="m179.23 334.63 5.9029-6.842 3.3539 9.5252z" opacity=".1"/>
  <path d="m183.19 316.79 5.6346 6.4395 1.744 18.447-1.4087-18.916 5.5005-6.1712z" opacity=".1"/>
  <path d="m195.13 327.99 6.3054 5.7687 0.26832 5.7017 0.46956-5.7688 4.7626-4.4272 4.0918 3.8906 1.1403 6.4395-0.13412-6.4395 5.2321-5.97z" opacity=".1"/>
  <path d="m194.66 316.59 7.1104 6.5066 5.098-5.0309 4.8297 4.1589 7.2445-5.7017z" opacity=".1"/>
  <path d="m160.57 301.92 0.2846 8.6326 6.4507-3.3202 22.482-0.66404-22.198-0.0949z" opacity=".1"/>
  <path d="m166.07 300.3 5.4072 4.7432 0.56918 6.925v-7.1148l2.8459-3.6997 2.9407 3.8894 0.94866 7.1147v-7.3045l5.4072-5.2175z" opacity=".1"/>
  <path d="m160.19 291.1 0.47431 8.0634 7.6839-3.2254 20.87-1.3281-21.249 0.4743z" opacity=".1"/>
  <path d="m140.05 290.15 0.56918 8.6325 4.4586-1.8973 11.478-0.18974-11.289-0.75892z" opacity=".1"/>
  <path d="m141.09 301.82 0.56917 9.012 3.6048-2.8459 10.814-1.1384-10.435-0.75889z" opacity=".1"/>
  <path d="m145.55 300.78 3.5099 3.8894 1.2332 7.0199-0.28458-7.0199 3.0356-3.6048z" opacity=".1"/>
  <path d="m105.61 289.01 6.5456 6.6404 0.0949 17.17 0.94864-17.075 7.2096-6.261z" opacity=".1"/>
  <path d="m54.521 300.87 24.095-0.94863-7.2096 4.7432 0.09487 6.7353-1.0435-7.2096-2.087-1.9921-2.9408 3.9842 0.18972 5.7867-0.75891-6.0713-1.8973-3.1305-2.4664 3.4151-0.28459 5.9764-0.85377-7.0199z" opacity=".1"/>
  <path d="m1.6825 290.06 31.874 0.66404-5.6918 5.6918 0.28459 16.222-1.0435-16.791-2.9408-3.0356-2.3716 3.6997 0.37945 16.032-1.6127-16.506-6.8302-4.838-5.0278 3.4151-0.47432 5.5969-1.1384-6.1661z" opacity=".1"/>
  <path d="m3.6747 300.4 0.47432 11.099 4.6483-3.9843 9.2966-0.94863-9.5812-0.75891z" opacity=".1"/>
  <path d="m34.79 294.23 0.85377 7.2096 5.5021-2.751 4.4586 0.66404 2.2767 2.8459-1.5178-3.2254 0.28459-2.087 3.0356-0.18974 2.5613 3.4151-2.087-4.6483 0.37945-1.9921 1.9921 0.47432 2.1819 2.5613-1.5178-3.2254 0.85377-4.3637-12.901 9.1069z" opacity=".1"/>
  <path d="m35.644 301.44-0.28459 8.2531 4.6483-2.6562 3.3202-0.2846-4.0791-0.94863z" opacity=".1"/>
  <path d="m45.984 303.34 0.85377 6.4507 6.6404-2.1818 29.692-1.0435-30.451 0.18974z" opacity=".1"/>
  <path d="m87.249 295.37 0.47432 9.2966-2.751 4.9329 3.6048-4.9329 7.0199-2.751 6.6404 1.5178 3.3202 4.5534-2.6562-4.838-0.37944-7.1148-7.3045 5.2175z" opacity=".1"/>
  <path d="m70.869 315.58 5.1226 6.1661v19.637l0.66404-19.637 5.8815-5.9764z" opacity=".1"/>
  <path d="m86.711 316.24 12.807 1.0435-6.261 5.0278-0.56918 18.973-0.75891-19.352z" opacity=".1"/>
  <path d="m79.027 321.84 11.004-0.18974-2.8459 3.7945 0.09487 2.751 3.8894-0.66404-3.7945 5.5021 0.37945 8.5377-1.1384-9.012-2.8459-3.8894 3.2254-0.28459-0.37946-3.6997-2.1819-1.7075-1.8024 3.4151 0.18972 14.799-0.85377-14.514z" opacity=".1"/>
  <path d="m28.284 402.61 9.4863-6.1661-1.8973 7.7788 1.8024 5.0278-3.3202-4.5534z" opacity=".1"/>
  <path d="m27.999 414.94 9.6761-5.6918-1.7075 6.925 3.1305 7.1148-4.2688-5.9764z" opacity=".1"/>
  <path d="m38.244 402.51 7.0199-4.6483-1.3281 7.1148 1.8973 4.3637-2.9408-4.4586z" opacity=".1"/>
  <path d="m38.149 414.28 7.6839-4.9329-1.8024 7.3045 2.2767 5.8815-3.3202-5.8815z" opacity=".1"/>
  <path d="m1.4428 398.91 1.6127 23.431 4.174-5.3123 10.435-2.087-9.7709 0.18974-4.5534-3.6048 6.261-3.6997 6.1661-1.8024-7.1148-0.28459z" opacity=".1"/>
  <path d="m91.502 346.88 22.957-0.85378-6.7353 7.0199-0.18972 15.083-0.66404-15.463-4.2688-4.174-3.6048 5.1226 0.66404 14.135-1.4229-14.704z" opacity=".1"/>
  <path d="m118.73 344.7 0.47432 9.7709 7.0199-3.7945 22.672-0.66405-22.672-0.66404z" opacity=".1"/>
  <path d="m126.22 356.84s22.957-1.8973 22.72-1.8973c-0.23715 0-4.9803 6.4033-4.9803 6.4033l0.0949 5.5969-0.66404-5.7392-2.3242-3.6997-3.5574 4.6483-0.18972 5.8341-0.47431-6.261-2.7985-3.842-2.9408 4.0317-0.14229 5.8341-0.37945-6.1661z" opacity=".1"/>
  <path d="m119.53 355.56 8.8223 5.8815 22.245 0.9012-22.151-0.0474-9.012 2.087z" opacity=".1"/>
  <path d="m203.88 342.37 6.4507 6.261 0.47431 20.301 0.85376-20.301 6.7353-6.7353z" opacity=".1"/>
  <path d="m52.055 315.77 6.8302 6.3558 1.2332 19.542-0.37946-19.542 6.5456-5.9764z" opacity=".1"/>
  <path d="m114.32 402.04 3.963 4.3854 0.49819 17.95 0.46564-17.939 2.946-4.2637z" opacity=".1"/>
  <path d="m129.49 402.18-3.3938 5.0969-0.49819 17.096-0.32334-16.99-3.0883-5.2123z" opacity=".1"/>
  <path d="m137.31 401.57-4.4847 5.4764-0.35588 16.907-0.46564-16.895-4.0843-5.4969z" opacity=".1"/>
  <path d="m142.06 420.84 11.202-8.5861 4.2259-8.4519 4.8967 8.3848-8.519 0.2683-3.1527 7.9823 3.9576 4.9638-4.226-4.4943z" opacity=".1"/>
  <path d="m138.58 411.18 12.208 0.067-3.9576-8.7202z" opacity=".1"/>
  <path d="m164.27 402.8 0.80495 10.062-2.3478 5.5005 3.0185-4.8297 7.3786-2.0124z" opacity=".1"/>
  <path d="m167.96 398.77 6.1041 7.7811 0.67079 18.38-0.20124-18.245 3.1527-4.7626 2.6832 4.6955 0.33538 17.977 0.13412-18.178 5.6346-6.1041z" opacity=".1"/>
  <path d="m182.51 418.16 5.9029-6.842 3.3539 9.5252z" opacity=".1"/>
  <path d="m186.47 400.32 5.6346 6.4395 1.744 18.447-1.4086-18.916 5.5004-6.1712z" opacity=".1"/>
  <path d="m198.41 411.52 6.3054 5.7687 0.26833 5.7017 0.46954-5.7688 4.7626-4.4272 4.0918 3.8906 1.1403 6.4395-0.13412-6.4395 5.2321-5.97z" opacity=".1"/>
  <path d="m197.94 400.12 7.1103 6.5066 5.098-5.0309 4.8297 4.1589 7.2445-5.7017z" opacity=".1"/>
  <path d="m191.4 384.91 0.2846 8.6326 6.4507-3.3202 22.483-0.66404-22.198-0.095z" opacity=".1"/>
  <path d="m196.9 383.3 5.4072 4.7432 0.56918 6.925v-7.1148l2.8459-3.6997 2.9407 3.8894 0.94866 7.1147v-7.3045l5.4072-5.2175z" opacity=".1"/>
  <path d="m191.02 374.09 0.47432 8.0634 7.684-3.2254 20.87-1.3281-21.249 0.4743z" opacity=".1"/>
  <path d="m157.15 374.66 5.2175 7.8736-4.9329 0.095 4.3637 4.174 0.47432 8.1582 0.94863-8.4428 5.597-3.6997-5.597-0.2846 6.0713-8.1582z" opacity=".1"/>
  <path d="m122.6 372.96 1.6269 9.1069-0.32539 6.5456 0.5423 4.5534 5.8568-2.1818 7.1583-1.0435-7.5922-0.28459-5.0976-2.751 7.5922-2.3716 3.6876-0.47433-4.013-0.28458-7.4837-1.7075 7.0499-2.751 3.9046-0.94863-4.4468 0.18973z" opacity=".1"/>
  <path d="m137.03 373.15 0.65075 8.6326 5.0976-1.8973 13.124-0.18974-12.907-0.75891z" opacity=".1"/>
  <path d="m138.22 384.81 0.65076 9.012 4.1214-2.8459 12.364-1.1384-11.931-0.7589z" opacity=".1"/>
  <path d="m143.32 383.77 4.013 3.8894 1.41 7.0199-0.32538-7.0199 3.4707-3.6048z" opacity=".1"/>
  <path d="m55.682 383.86 24.095-0.94863-7.2096 4.7432 0.09487 6.7353-1.0435-7.2096-2.087-1.9921-2.9408 3.9842 0.18972 5.7867-0.75891-6.0712-1.8973-3.1305-2.4664 3.4151-0.28459 5.9764-0.85377-7.0199z" opacity=".1"/>
  <path d="m2.8427 373.05 31.874 0.66404-5.6918 5.6918 0.28459 16.222-1.0435-16.791-2.9408-3.0356-2.3716 3.6997 0.37945 16.032-1.6127-16.506-6.8302-4.838-5.0278 3.4151-0.47432 5.5969-1.1384-6.1661z" opacity=".1"/>
  <path d="m4.8348 383.39 0.47432 11.099 4.6483-3.9843 9.2966-0.94863-9.5812-0.75892z" opacity=".1"/>
  <path d="m35.95 377.22 0.85377 7.2096 5.5021-2.751 4.4586 0.66404 2.2767 2.8459-1.5178-3.2254 0.28459-2.087 3.0356-0.18974 2.5613 3.4151-2.087-4.6483 0.37945-1.9921 1.9921 0.47433 2.1819 2.5613-1.5178-3.2253 0.85377-4.3637-12.901 9.1069z" opacity=".1"/>
  <path d="m36.804 384.43-0.28459 8.2531 4.6483-2.6562 3.3202-0.28461-4.0791-0.94863z" opacity=".1"/>
  <path d="m47.144 386.33 0.85377 6.4507 6.6404-2.1818 29.692-1.0435-30.451 0.18973z" opacity=".1"/>
  <path d="m80.979 399.11 5.1226 6.1661v19.637l0.66404-19.637 5.8815-5.9764z" opacity=".1"/>
  <path d="m96.821 399.77 12.807 1.0435-6.261 5.0278-0.56918 18.973-0.75891-19.352z" opacity=".1"/>
  <path d="m89.137 405.37 11.004-0.18973-2.8459 3.7945 0.09486 2.751 3.8894-0.66404-3.7945 5.5021 0.37945 8.5377-1.1384-9.012-2.8459-3.8894 3.2254-0.28459-0.37946-3.6997-2.1819-1.7075-1.8024 3.4151 0.18972 14.799-0.85377-14.514z" opacity=".1"/>
  <path d="m168.22 341.52 6.3558 7.1148 1.423 20.396-0.56917-20.49 7.3993-7.1147z" opacity=".1"/>
  <path d="m192.5 359.36 7.6839-4.9329-1.8024 7.3045 2.2767 5.8815-3.3202-5.8815z" opacity=".1"/>
  <path d="m159.02 343.99 1.6127 23.431 4.174-5.3123 10.435-2.087-9.7709 0.18974-4.5534-3.6048 6.261-3.6997 6.1661-1.8024-7.1147-0.28458z" opacity=".1"/>
  <path d="m0.081976 346.16 22.957-0.85379-6.7353 7.0199-0.18972 15.083-0.66404-15.463-4.2688-4.174-3.6048 5.1226 0.66404 14.135-1.4229-14.704z" opacity=".1"/>
  <path d="m28.918 344.51 0.47432 9.7709 7.0199-3.7945 22.672-0.66405-22.672-0.66404z" opacity=".1"/>
  <path d="m36.412 356.66s22.957-1.8973 22.72-1.8973c-0.23714 0-4.9803 6.4033-4.9803 6.4033l0.09477 5.5969-0.66404-5.7392-2.3242-3.6997-3.5574 4.6483-0.18972 5.8341-0.47432-6.261-2.7985-3.842-2.9408 4.0317-0.14229 5.8341-0.37945-6.1661z" opacity=".1"/>
  <path d="m29.724 355.38 8.8223 5.8815 22.245 0.90121-22.151-0.0474-9.012 2.087z" opacity=".1"/>
  <path d="m51.467 399.11 5.6648 6.261 0.41652 20.301 0.74975-20.301 5.9147-6.7353z" opacity=".1"/>
  <path d="m66.045 399.29 5.998 6.3558 1.083 19.542-0.33322-19.542 5.7481-5.9764z" opacity=".1"/>
  <path d="m206.73 290.53 5.6918 5.9764 0.75891 14.988-0.0948-14.988 8.0634-5.7867z" opacity=".1"/>
  <g opacity=".5">
   <path d="m133.09 335.8 11.202-8.5861 4.226-8.4519 4.8967 8.3848-8.519 0.2683-3.1527 7.9823 3.9576 4.9638-4.2259-4.4943z" opacity=".1"/>
   <path d="m129.6 326.14 12.208 0.067-3.9576-8.7202z" opacity=".1"/>
   <path d="m127.43 289.96 1.423 9.1069-0.2846 6.5456 0.47432 4.5534 5.1226-2.1818 6.261-1.0435-6.6404-0.28459-4.4586-2.751 6.6404-2.3716 3.2254-0.47433-3.5099-0.28458-6.5456-1.7075 6.1661-2.7511 3.4151-0.94862-3.8894 0.18974z" opacity=".1"/>
   <path d="m10.645 396.44 6.3558 7.1148 1.4229 20.396-0.56918-20.49 7.3993-7.1147z" opacity=".1"/>
   <path d="m65.526 345.55 1.6127 9.9606-0.09487 10.435 5.8815-3.5099 14.988-1.6127-15.463 0.37945-5.1226-4.174 3.8894-4.2689 14.894-2.1819-13.945-0.0949z" opacity=".1"/>
   <path d="m35.454 315.58 6.4507 6.261 0.47432 20.301 0.85377-20.301 6.7353-6.7353z" opacity=".1"/>
   <path d="m171.76 373.71 5.6918 5.9764 0.75892 14.988-0.0948-14.988 8.0634-5.7867z" opacity=".1"/>
   <path d="m103.59 372.01 6.5456 6.6404 0.0949 17.17 0.94863-17.075 7.2096-6.261z" opacity=".1"/>
   <path d="m88.409 378.36 0.47432 9.2966-2.751 4.9329 3.6048-4.9329 7.0199-2.751 6.6404 1.5178 3.3202 4.5534-2.6562-4.838-0.37945-7.1148-7.3045 5.2175z" opacity=".1"/>
   <path d="m182.64 347.69 9.4863-6.1661-1.8973 7.7788 1.8024 5.0278-3.3202-4.5534z" opacity=".1"/>
   <path d="m182.35 360.02 9.676-5.6918-1.7075 6.925 3.1305 7.1148-4.2689-5.9764z" opacity=".1"/>
   <path d="m192.6 347.59 7.0199-4.6483-1.3281 7.1148 1.8972 4.3637-2.9408-4.4586z" opacity=".1"/>
   <path d="m2.3624 318.54 1.6127 9.9606-0.094869 10.435 5.8815-3.51 22.426-1.6127-22.9 0.37946-5.1226-4.174 3.8894-4.2689 22.331-2.1818-21.382-0.095z" opacity=".1"/>
   <path d="m191.59 291.48 5.2175 7.8736-4.9329 0.095 4.3637 4.174 0.47433 8.1582 0.94863-8.4428 5.5969-3.6997-5.5969-0.28459 6.0713-8.1582z" opacity=".1"/>
  </g>
 </g>
</svg>
