<?xml version="1.0" encoding="UTF-8"?>
<svg width="300" height="300" version="1.1" viewBox="0 0 79.375 79.375" xmlns="http://www.w3.org/2000/svg">
 <g>
  <path d="m19.905 62.477 3.7017 0.19839 2.9923-2.6453-3.298-0.31798 4.7788-2.0571 10.266-15.808 0.38223-4.5928s-3.1586-2.4692-0.69589-5.1797c2.4627-2.7105 15.08-3.8468 15.08-3.8468v56.434l-38.208-1.3132s1.6671-1.3723 3.3737-7.8273c1.7066-6.455 1.6271-13.044 1.6271-13.044z" fill="#8a8a8a"/>
  <path d="m20.865 32.288 1.4221 3.704 7.7145 0.30767s1.6419 0.15902 3.7451-0.09553c2.1032-0.25454 3.9776-1.6436 3.9776-1.6436s1.1232 0.24306 6.2373-0.37474c5.1141-0.6178 6.9998-1.426 6.9998-1.426l2.1269 14.955-23.228-7.3012s-1.904 1.4921-3.0882 2.1774-1.2732 1.0426-1.8158 2.2871c-0.5426 1.2445-2.6956 4.7346-5.6038 7.1419-2.9082 2.4073-9.1677 6.8413-11.67 7.2835-2.5018 0.4422-5.7544 0.75099-6.5923 0.52364-0.83788-0.22735-0.8337 0.27855-0.81686 0.67902 0.01684 0.40047 0.38715 0.79794 0.38715 0.79794s-0.23341 0.28168-0.08097 0.73649c0.15244 0.45481 0.58038 0.44204 0.58038 0.44204s-0.06227 0.22838 0.10051 0.47106c0.16278 0.24268 0.37388 0.28749 0.37388 0.28749s-0.11011 0.13572 0.06178 0.34529c0.1719 0.20957 0.34987 0.18897 0.34987 0.18897s-0.0089 0.43873 0.28202 0.56651c0.29096 0.12778 0.42758-0.26361 1.4486-0.13313 1.021 0.13048 2.6498 0.60888 3.9255 0.15 1.2756-0.45888 3.051 0.27244 4.3982 0.22518 1.3472-0.04726 1.8244-0.61283 2.0271-1.3566 0.2027-0.74376 0.17963-1.7135 0.76815-2.2486s2.5128-1.9729 5.3923-3.3042c2.8795-1.3313 6.3037-1.8989 6.3037-1.8989s-1.3312 15.125-2.5973 21.677c-1.2661 6.5511-1.2191 10.935-1.2191 10.935l5.0686-4.9375s0.80922-4.6209 1.3473-7.0836c0.53807-2.4628 0.69508-3.2022 1.6088-4.6413 0.91368-1.4392 1.8471-2.6585 1.8471-2.6585h1.3353l5.2352-12.57 14.645-8.7945 9.4039-37.948-9.0873-7.1842-5.1221 2.7776-0.26061 3.5529 0.55846 2.0302s-0.33555 0.69936-0.70707 1.103c-0.37152 0.40368-0.78023 0.73176-0.40262 1.0112 0.37761 0.27939 0.96778 0.45772 1.1272 0.45772 0.15939 0 0.59865 0.14376 0.66556 0.56278 0.06691 0.41902-0.46658 0.75383-0.15987 0.9908 0.30671 0.23697 0.48999 0.41232 0.48999 0.41232s-0.57113 0.24802-0.15562 0.79766c0.4155 0.54963 0.99048 1.4845 1.0976 1.9511 0.1071 0.46658 0.31991 0.93144 0.97575 0.70767 0.65584-0.22376 1.9745-0.71053 1.9745-0.71053l0.70324-0.64797s-0.0021 0.99201 0.0067 1.7136 0.39288 1.2844 0.39288 1.2844-0.08068 1.4449-0.55533 1.619c-0.47465 0.17414-2.0105 0.4499-2.0105 0.4499l-3.574 1.6754s-0.08515 0.5823-0.37696 0.75108c-0.29181 0.16878-2.5527 0.94895-4.3582 1.4818-1.8054 0.53286-7.5578 3.1967-7.5578 3.1967s-2.511-0.0123-4.5225 0.26277c-2.0115 0.27508-3.3663 0.59114-3.3663 0.59114z" fill="#f2e1bb"/>
  <path d="m26.91 41.679c0.96068-1.4998 1.4981-1.5273 2.2579-1.4043 0.7598 0.12295 6.3558 1.4352 7.2446 1.3648 0.88878-0.07033 2.2461-0.31277 4.2721 0.52827 2.026 0.84104 4.8999 0.9403 6.2598 1.932 1.3599 0.99173 2.7749 1.5041 2.7749 1.5041l0.56356-0.29283-0.50345-0.75922s-1.5565-0.11253-1.1171-1.4232c0.43945-1.3107 0.43055-1.3107 0.43055-1.3107s1.6947-2.9347 1.4238-5.6832c-0.27089-2.7485-1.0751-5.45-1.1735-7.621-0.09838-2.1711 0.53022-3.4136 0.53022-3.4136l15.631 4.0442-13.623 30.39s-4.3684-0.97565-6.3643-0.9072c-1.9959 0.06845-3.7576 0.70583-5.1796 0.86231s-2.4106 0.88604-2.7654 3.0705c-0.35478 2.1844-0.93147 6.4437-2.3142 7.8266-1.3827 1.3829-2.0018 0.5899-2.277 0.22651-0.27527-0.36339-0.33424-0.94167-0.33424-0.94167s1.9756-3.3284 2.402-5.6774c0.42643-2.3489 0.43224-2.7884 0.43224-2.7884l0.85338-0.51902s0.7933-2.21 0.61738-5.3528c-0.17593-3.1428-1.8876-4.9279-1.8876-4.9279l0.03664-0.34688 0.52527 0.09427s0.30669-3.2428-2.0055-5.9906-4.3228-2.8133-4.3228-2.8133-2.043 1.5196-2.4475 1.7997c-0.40458 0.28016-0.65515 0.43497-0.65515 0.43497s-0.24553-0.4049 0.71515-1.9047z" fill="#94deea"/>
  <path d="m51.01 22.714 2.6561-0.3012s0.51818 1.5852 2.8625 1.8338c2.3443 0.24866 4.6065-1.9592 4.6065-1.9592l4.1215 4.0009-6.685 4.2563-8.4889-3.5995z" fill="#ead75e"/>
  <path d="m49.151 24.128s0.37244 6.5583 6.2421 7.3687 11.415-4.0303 11.415-4.0303l-1.5928-3.0046-1.3588 1.8608s-3.8374 4.1198-8.3826 2.4946c-4.5452-1.6252-4.4636-6.1037-4.4636-6.1037s-0.7677 0.402-1.3214 0.81061-0.53757 0.60383-0.53757 0.60383z" fill="#e6ce3a"/>
  <path d="m49.78 44.552-0.06011 1.0521s1.4699 0.73685 2.9535 0.93812c1.4836 0.20127 4.3583 0.40211 4.3583 0.40211l0.47251-1.6208s-0.83012 0.67708-3.4043 0.41798c-2.5741-0.2591-4.3199-1.1894-4.3199-1.1894z" fill="#e6ce3a"/>
  <path d="m62.56 25.001s0.47014 0.97924 0.17536 1.3978c-0.29478 0.41853-0.62088 0.27969-0.62088 0.27969s0.29372 0.71769 1.0394 0.29035c0.74572-0.42734 0.48704-1.6952 0.48704-1.6952z" fill="#6c2626"/>
 </g>
 <path d="m51.42 9.8774s0.58841-0.12701 1.4104-0.18259c0.82195-0.05558 1.4361 0.090342 1.4361 0.090342" fill="none" stroke="#000" stroke-linecap="round" stroke-width=".26458px"/>
 <g>
  <path d="m51.751 9.8582s-0.1531 0.24334-0.08997 0.63771c0.06313 0.39436 0.42833 0.44106 0.74598 0.41726 0.31766-0.0238-0.15137-0.4476-0.0069-0.87025 0.14448-0.42265-0.64912-0.18472-0.64912-0.18472z"/>
  <path d="m51.502 21.128s2.4752-1.0663 3.368-5.1062c0.89288-4.0399-0.19883-6.4098-0.19883-6.4098s0.06141 1.229-0.13934 2.6582c-0.20075 1.4292-0.84508 2.3134-0.84508 2.3134s0.51722-2.7398 0.15254-4.7407c-0.36467-2.0009-2.0001-3.7167-2.0001-3.7167s0.57756 1.3704 0.78444 3.2175c0.20688 1.8471-0.85733 3.6568-0.85733 3.6568s0.80557-1.9053 0.35813-3.9578c-0.44744-2.0525-1.4271-3.3781-1.6092-3.5405-0.18217-0.16246-0.20679 0.11671-0.19191 0.35179 0.0149 0.23508-0.25272 1.2805-0.59691 2.0882-0.34418 0.8077-0.54906 1.3963-0.08933 1.8502 0.45973 0.45384 0.47548 0.66978 0.19681 1.0304-0.27867 0.3606-0.47801 0.71247-0.47801 0.71247s-0.65265-0.81103-0.94956-1.8131c-0.29691-1.0021-0.15322-2.3789-0.15322-2.3789s-0.38252 1.1501-0.40629 2.5233c-0.02376 1.3731 0.20852 2.199 0.20852 2.199s-0.41431-0.4665-0.53282-3.6622c-0.1185-3.1957 0.63614-4.4321 1.1204-4.4917 0.48425-0.059511 0.71844 0.37449 0.71844 0.37449s-0.02713-0.55236 0.53887-0.54164c0.566 0.010718 2.2764-1.603 2.2764-1.603s-0.24916-0.14185-0.80548-0.77527c-0.55632-0.63342-0.16752-1.1869-0.16752-1.1869s0.15506 0.86069 1.0162 1.0828c0.86113 0.22214 1.5325 0.41796 1.5325 0.41796s0.49818-1.1292 2.6487-0.33413c2.1505 0.79503 4.5794 1.2276 5.1968 0.94373 0.61741-0.28386 0.7975-0.5764 0.7975-0.5764s-0.01894 0.43779-0.18653 0.71488-0.67771 0.53883-0.67771 0.53883 0.83594 0.07597 1.5511 1.2729c0.71516 1.1969 1.5741 1.5474 2.0275 1.3241 0.45341-0.2234 0.36507-0.50709 0.36507-0.50709s0.14526 0.2081 0.03981 0.84856c-0.10545 0.64046-0.7077 0.57014-0.7077 0.57014s0.57496 0.072234 1.1798 1.2645c0.60482 1.1922 0.42393 3.6854 0.42393 3.6854l-8.7644 5.273s0.40777-1.7246 0.67674-4.1938-0.03964-4.8495-0.03964-4.8495l-1.0886 0.38676s0.6446 3.1944-0.22812 6.7224c-0.87272 3.528-2.6463 5.1497-2.6463 5.1497s0.54351-0.83756 0.88812-1.4864c0.34462-0.64883 0.43913-1.1679 0.43913-1.1679s-0.58449 1.28-1.6833 2.3825c-1.0988 1.1025-2.4622 1.4858-2.4622 1.4858z" fill="#ff0e0e"/>
  <path d="m61.779 24.39s0.57833 0.71832 1.3487 1.2604 0.90508 1.2926 1.4451 1.0375 0.68405-0.39938 0.68405-0.39938 0.41363 0.35771 0.46844 1.116c0.05481 0.7583-0.72502 1.3417-1.3463 1.7634-0.62128 0.42166-1.2758 0.44549-1.2758 0.44549s-2.3986 1.5306-2.9863 3.0179c-0.58767 1.4873-0.84655 5.7755-0.84655 5.7755l-0.34866 3.1582s-0.52246 2.131-3.271 7.1769c-2.7485 5.046-4.0691 7.4063-4.0691 7.4063s-2.0118 0.50777-2.2301 0.7494c-0.21836 0.24164-1.515 2.4453-1.5469 2.8918-0.03192 0.44648-1.1498 1.7899-1.1498 1.7899l2.6219 1.518 21.685-12.796 5.3737-16.972 0.15265-4.0178-5.2513-4.2297 0.58856-7.8443-7.6983-4.2921-6.0842 3.0436 0.2101 3.8937 2.1564 4.1225z" fill="#dbbb73"/>
 </g>
 <ellipse transform="rotate(14.148)" cx="67.698" cy="16.617" rx=".7792" ry=".89483" fill="none" stroke="#ead75e" stroke-linecap="round" stroke-linejoin="round" stroke-width=".52917"/>
 <ellipse transform="rotate(14.148)" cx="75.597" cy="11.455" rx=".7792" ry=".89483" fill="none" stroke="#ead75e" stroke-linecap="round" stroke-linejoin="round" stroke-width=".52917"/>
 <g fill="#e16363">
  <path d="m70.215 29.893s-0.57705 1.8046-2.8014 3.4163c-2.2243 1.6117-4.607 5.1375-4.607 5.1375s-1.1775-0.24958-1.9902-0.96281c-0.81265-0.71323-0.73997-1.8116-0.02249-2.8128 0.71748-1.0012 0.834-1.7953 0.834-1.7953l-0.42654-0.22619s-2.9816 3.8509-3.243 5.4854c-0.26138 1.6345 0.81179 4.3538 1.1521 5.0904 0.34034 0.73661 0.50571 1.1828 0.50571 1.1828s-0.37661 0.96859-0.37661 1.6237c0 0.65509 0.35838 1.1464 0.35838 1.1464s-0.26758 0.63349-0.30488 1.1999c-0.0373 0.56645 0.11691 1.2699 0.11691 1.2699s0.72072-0.90944 2.1356-2.0549c1.4149-1.1454 2.891-1.4303 2.891-1.4303s2.0922-4.6847 2.8916-6.0808c0.79935-1.3961 3.6834-10.156 3.6834-10.156z"/>
  <path d="m44.853 62.105c-1.3728 1.1013-1.3706 1.4376-1.3376 3.0779 0.03299 1.6403 0.54327 2.302 0.54327 2.302s0.17358 1.9164 0.97763 4.3784c0.80405 2.462 2.2631 10.086 2.2631 10.086l9.0143-11.756 10.419-20.778s-1.6688 1.4057-4.4831 3.5592c-2.8143 2.1535-5.2292 3.6463-5.2292 3.6463s-2.5591-0.1633-3.0402 0.41528c-0.4811 0.57858-0.65017 0.99574-0.65017 0.99574s-1.7285 0.5146-3.058 1.2326c-1.3296 0.71801-2.2847 1.7471-2.2847 1.7471s-0.10199-0.32816-0.16108-0.6791c-0.05908-0.35094-0.01939-0.54729-0.01939-0.54729s-1.5808 1.2175-2.9536 2.3188z"/>
  <path d="m61.263 32.308s-0.04081-0.6263 0.07455-1.3105c0.11536-0.68416 0.25283-0.86085 0.25283-0.86085l0.35421 0.0021 0.18649-0.53965 0.48609 0.0569 0.19076-0.32552 0.3268 0.06016 0.27066-0.27472 0.44156 0.1932s-0.57561 0.44406-1.291 1.468c-0.71541 1.0239-0.80231 1.6011-0.80231 1.6011z"/>
 </g>
 <g>
  <path d="m67.888 41.486s-1.9818-0.56084-1.2454-4.9364c0.73638-4.3756 7.7747-5.2825 14.238-3.7496 6.4628 1.5329 7.1009 3.0918 7.1009 3.0918v47.516h-41.636s1.2241-3.494 2.1375-9.5087c0.9134-6.0146 0.72347-7.2942 0.72347-7.2942l3.3786 0.20015 3.0484-2.823-3.0449-0.16702s6.4843-1.282 10.934-8.6818c4.4493-7.3999 4.3662-13.647 4.3662-13.647z" fill="#b5b5b5"/>
  <path d="m21.786 32.214s-1.6523 0.23548-4.1761 1.2075c-2.5238 0.97202-2.8344 1.3502-4.0874 1.7262-1.253 0.37594-1.3115 0.53297-1.9701 1.7854-0.65862 1.2524-1.8168 2.6181-1.9375 3.0811-0.12069 0.46293-0.31875 4.1009-0.14161 4.213 0.17715 0.11205 0.79623 0.41655 1.2128-0.6046 0.41658-1.0212 0.55037-3.1509 0.55037-3.1509l0.63371-0.29502s-0.18741 0.90717-0.08633 1.0735c0.10106 0.16635 1.9662 3.2578 2.27 3.2649 0.30388 0.0071 0.62132-0.02428 0.80761-0.7592 0.18628-0.73492-0.04202-1.0979-0.04202-1.0979s0.30324-0.33425 0.59162-0.89288c0.28838-0.55863 2.1094-0.90139 3.1626-2.0686 1.0532-1.1672 2.3883-2.981 3.3758-3.5109 0.98748-0.5299-0.16351-3.9715-0.16351-3.9715z" fill="#f2e1bb"/>
  <path d="m20.496 32.043s0.18244 1.0205 0.4166 2.5513c0.23416 1.5309 0.69731 2.1382 0.69731 2.1382l9.044 0.11939s-0.75172-1.2094-0.9234-3.1873c-0.17168-1.9779 0.24195-3.6856 0.24195-3.6856z" fill="#e6ce3a"/>
  <path d="m72.053 27.206s-0.58425 1.1242-1.3931 2.8109c-0.80888 1.6867-1.1196 2.1591-0.91684 2.8648 0.20281 0.7057 1.6211 3.3577 1.9769 3.427 0.35582 0.06936 1.3435 0.09848 1.3435 0.09848s0.33111 0.45006 0.89434 0.49229c0.56324 0.04223 0.86192-0.22235 0.86192-0.22235s0.524 0.1815 1.1457 0.22424c0.62167 0.04274 1.2119 0.0021 1.2786-0.21406 0.06675-0.21629-0.01553-0.41251-0.01553-0.41251s1.7213-0.05127 1.3425-0.54095c-0.37886-0.48968-0.84775-0.43287-1.3864-0.56171-0.53865-0.12884-0.6797-0.07855-1.0301-0.39754-0.3504-0.31898-1.3858-2.0805-1.3858-2.0805s0.37263-0.41007 0.39642-0.98544c0.02379-0.57536-0.0042-1.166-0.0042-1.166l6.7011-0.74385s2.5861 0.03182 4.6717-0.49397c2.0856-0.52579 3.2253-1.7226 3.2253-1.7226s1.3735-0.02421 1.3491-0.7002c-0.02439-0.67598 0.15238-1.4232-0.62211-2.1445-0.7745-0.72135-2.5894-1.956-5.7072-2.2921-3.1178-0.33609-5.3826-1.1708-7.7842-2.1877-2.4016-1.0169-4.3245 0.11972-4.3245 0.11972l-1.7289 3.1268z" fill="#f2e1bb"/>
  <path d="m50.753 4.4821s1.7137 0.35105 4.9501 2.8243c3.2364 2.4732 5.4281 6.1768 5.4281 6.1768l1.0312-0.64631s-0.80499-3.4598-3.6437-6.9599c-2.8387-3.5001-7.1172-3.8202-7.1172-3.8202s-0.26206 0.13665-0.93396 0.76063-0.67185 0.88683-0.67185 0.88683 0.39858 0.10936 0.67215 0.36433c0.27357 0.25497 0.28514 0.41354 0.28514 0.41354z" fill="#e6ce3a"/>
  <path d="m59.501 26.849s1.1462 0.29038 0.96451-0.86685c-0.1817-1.1572-1.5816-2.7302-2.8609-5.7199s-0.79894-3.93-0.20818-4.8426c0.59076-0.91258 1.8801-0.77049 1.8801-0.77049l-0.04511-0.40525 0.32495-0.10404s-0.27423-0.15545-0.49257-0.57777c-0.21835-0.42231 0.0069-0.75505 0.0069-0.75505s0.19126 0.42042 0.29017 0.50176c0.09891 0.08133 0.2527 0.19798 0.2527 0.19798s0.35842-0.63315 0.67968-0.87966c0.32126-0.24651-0.39856-1.7529 0.68408-2.4181 1.0826-0.66527 1.9459 0.1041 1.9459 0.1041s0.34168-1.0728 1.7519-1.3603 1.9941 0.67708 1.9941 0.67708 1.0267-0.75469 2.3386 0.093609c1.3119 0.8483 1.012 1.7574 1.012 1.7574s0.89228-0.29858 2.3108 0.84027c1.4186 1.1389 1.9229 2.704 1.862 4.0027-0.06088 1.2987-0.9021 4.2386 0.77264 4.3639 1.6747 0.12532 0.85069-1.3912 0.85069-1.3912s0.97985 0.74846 0.75189 1.8195-1.1912 0.96772-1.1912 0.96772-0.10921 0.35812-0.53667 0.49759c-0.42746 0.13947-0.7343 0.04164-0.7343 0.04164s0.43646 0.76214-0.36497 1.226c-0.80143 0.46381-1.7184 1.0139-0.73181 1.7842 0.98658 0.77022 1.0386 0.7481 1.0386 0.7481l-2.4449 0.81502s-0.51334-0.21422-0.8925-0.69216c-0.37916-0.47793-0.34082-1.1232-0.34082-1.1232s-0.19232 0.69703-0.95944 0.78673c-0.76712 0.08971-0.7445-0.68718-0.7445-0.68718s0.36736 0.50985 0.77327 0.18751c0.40591-0.32234 0.12097-0.99671-0.53424-1.9224-0.65521-0.92572-0.423-2.0074-0.03784-2.1926 0.38517-0.18516 0.63819-0.18516 0.63819-0.18516s0.64536-0.17148 0.71515-1.4159c0.06979-1.2444 0.03875-2.1636-0.76032-2.0851-0.79907 0.07852-0.97914 0.69519-0.97914 0.69519l-0.04012-0.90805-0.39442 0.52976 0.16926-0.94651-0.47756 0.54596 0.17914-0.83912-0.37844 0.29347s0.3246-1.0715-0.09581-1.0863c-0.42041-0.01485-0.67112 0.65272-0.67112 0.65272l0.13288-0.68533-0.57542 0.4698s0.8403-1.4692 0.47508-1.4246c-0.36522 0.04456-0.62866 0.93326-0.62866 0.93326l0.02783-0.84729-0.39998 0.73514s0.15392-1.394-0.24598-1.2374c-0.3999 0.15657-0.44527 1.1377-0.44527 1.1377l-0.30528-0.73869-0.14361 0.61029-0.2592-0.56488-0.21004 0.50331s-0.03891-0.41703-0.40819-0.42815c-0.36928-0.01112-0.44109 0.44208-0.44109 0.44208l-0.2328-0.87296-0.17106 0.90407-0.1759-0.1517-0.21252 0.31576-0.19193-0.78503-0.20935 0.64057s-0.24827 0.11085-0.43368 0.20829c-0.18541 0.09744-0.24468 0.29258-0.24468 0.29258s-1.0581-0.37095-1.8423 0.08756c-0.78424 0.45852-0.61142 2.3678-0.4614 2.9709 0.15003 0.60306 1.4135 2.2197 1.5714 2.5526 0.15782 0.33287-0.04652 1.1017 0.49627 1.81l0.54279 0.70838s0.07434 0.54446-0.0051 0.93628c-0.07939 0.39182-0.24477 0.4477-0.24477 0.4477s0.53177 0.93825-0.45685 1.7405c-0.98862 0.80228-1.5716-0.6657-1.5716-0.6657z" fill="#6c2626"/>
  <path d="m80.177 23.998s1.6137 0.2464 2.7227 2.449c1.109 2.2026-0.25182 3.865-0.25182 3.865l-7.1722 0.50764s0.65127-2.3898-0.98479-3.4483c-1.6361-1.0584-2.438-0.16597-2.438-0.16597l-0.26129-0.29001 0.90542-0.2031z" fill="#e6ce3a"/>
  <path d="m70.407 29.24 0.60142 0.01008s0.2245-0.67069 0.5334-1.2239c0.3089-0.55317 0.51128-0.8201 0.51128-0.8201s-0.17049-0.18644 0.10975-0.29883c0.2803-0.11241 0.53438-0.19428 0.53438-0.19428l-0.53342-0.22872-0.26198 0.24334-0.36034-0.13022s-0.1785 0.69711-0.64208 1.2808c-0.46357 0.58367-0.49242 1.3618-0.49242 1.3618z" fill="#e16363"/>
 </g>
 <g stroke-linecap="round" fill="none" stroke="#000">
  <path d="m60.288 21.481s0.39606 0.16866 0.83919 0.13132c0.44313-0.03734 0.83222-0.36111 0.83222-0.36111" stroke-width=".26458"/>
  <path d="m64.23 20.868s0.55023 0.12983 1.2549-0.02183c0.70465-0.15166 1.0433-0.58894 1.0433-0.58894" stroke-width=".26458"/>
  <path d="m63.166 25.057s0.34956-0.04639 0.862-0.08128c0.51244-0.03488 0.92393-0.34724 0.92393-0.34724" stroke-width=".26458px"/>
  <path d="m50.369 16.073s0.38345-0.01956 0.92874-0.01129c0.54529 0.0083 0.88769-0.08014 0.88769-0.08014" stroke-width=".26458px"/>
  <path d="m-69.317-47.402s-1.1419 0.42126-2.7921 1.5013c-1.6503 1.08-1.8137 1.3973-2.6494 1.8574-0.8357 0.46018-0.85328 0.58108-1.1308 1.575-0.27751 0.9939-0.8938 2.1452-0.90886 2.4937s0.40161 2.9726 0.54509 3.0253c0.14348 0.05272 0.63155 0.17488 0.77196-0.61703s-0.0908-2.3308-0.0908-2.3308l0.40656-0.30751s0.0055 0.6755 0.10307 0.7786c0.09756 0.1031 1.9013 2.0212 2.1191 1.9796 0.21773-0.04157 0.43924-0.11259 0.45936-0.66511 0.02011-0.55253-0.19832-0.77628-0.19832-0.77628s0.16494-0.28481 0.28487-0.7273c0.11994-0.44249 1.3657-0.96611 1.9376-1.9598 0.57188-0.99364 1.2456-2.4916 1.8684-3.0208 0.62276-0.52921-0.72559-2.8064-0.72559-2.8064z" stroke-width=".26458px"/>
 </g>
</svg>
