<?xml version="1.0" encoding="UTF-8"?>
<svg width="32" height="32" version="1.1" viewBox="0 0 8.4667 8.4667" xmlns="http://www.w3.org/2000/svg">
 <g transform="translate(0 -288.53)">
  <path transform="matrix(.27551 0 0 .27551 -.26067 288.62)" d="m16.289 0.37831c2.886-1e-8 3.4151 6.4262 5.7499 8.1226 2.3348 1.6964 8.61 0.21374 9.5018 2.9585 0.89183 2.7448-5.0564 5.2338-5.9482 7.9785-0.89183 2.7448 2.4574 8.2547 0.12253 9.951-2.3348 1.6964-6.5401-3.1916-9.4261-3.1916-2.886 0-7.0913 4.8879-9.4261 3.1916-2.3348-1.6964 1.0144-7.2063 0.12253-9.951-0.89183-2.7448-6.84-5.2338-5.9482-7.9785 0.89183-2.7448 7.167-1.2621 9.5018-2.9585 2.3348-1.6964 2.8639-8.1226 5.7499-8.1226z" fill="#999999" stroke="none"/>
 </g>
</svg>
