<?xml version="1.0" encoding="UTF-8"?>
<svg width="1024" height="1024" version="1.1" viewBox="0 0 270.93 270.93" xmlns="http://www.w3.org/2000/svg">
 <rect y="1.6474e-15" width="270.93" height="270.93" fill="#39c24d" stroke-linecap="round" stroke-linejoin="round" stroke-width="5.2917"/>
 <g>
  <path transform="scale(.26458)" d="m1054.5-32.041-602.13 19.365 16.607 39.859-9.7598 16.734-50.697 9.7734 4.9356 30.703-25.949 22.27 3.9551 25.51 64.615-12.66 80.912 16.738 4.7031 65.506 48.09 28.408 73.686-19.688 34.666 36.186 54.557-6.3984 34.242 18.123 33.379 3.4922-6.8125-41.82 30.432-52.27 32.197-3.1387 32.373-40.93 56.666 4.8223 34.104 30.828 0.86915 46.168 48 27.969 6.3633-265.55zm-445.59 102.72 22.762 28.4-18.365 32.391-31.516-7.916-3.0156-29.408 30.135-23.467z" fill="#32ab44"/>
  <path d="m-3.788 58.337 14.39 2.6306 13.148 0.08302 4.6277 4.215-3.2837 8.1981 3.4826 5.7945 9.0957 4.3927 4.4028 5.4149 8.165 2.1964 6.0484 6.5577 11.803-1.3228 6.6858 6.8536-8.3923 8.1475-1.658 10.263-12.935 10.142-11.984 1.8198-8.6593-6.0584 0.07647-10.298-7.6822-5.9306-13.758 4.6234-5.1267 9.8332 8.6801 9.7806-6.7874 17.977 4.3755 10.835 13.15 1.4678 8.06 8.8834 7.773 3.5273 5.3355 8.9882 1.7693 8.9139-13.182 15.864 0.95048 7.4829-6.2196 7.2081-12.544 0.53417-8.9574-22.177 1.1928-7.9552-11.097-8.0163z" fill="#32ab44"/>
  <path d="m44.192 271.79 7.3022-6.213 13.292-2.448 4.1277-5.4519 8.7763-2.8866 6.3903-10.598 15.25-3.7331 7.7085 4.2087 9.7737-1.3754 6.9909 8.0336 16.362 1.8136 11.173 12.48 2.1372 11.232z" fill="#d2d56f"/>
  <rect x="190.8" y="109.07" width="50.902" height="25.278" fill="#d2d56f"/>
 </g>
 <path transform="scale(.26458)" d="m448.22 137.12-101.54 18.445-100.26-8.3867-74.379 56.621-34.498 10.381-19.576 67.76 37.648 40.838 68.064 2.8398 20.131-49.367 92.264-48.311 61.021 51.447-1.4941 74.154-54.748 88.66-78.482 21.541-70.584 67.684 33.627 78.711-15.23 63.264 32.889 124.94 53.98 21.4 38.953 76.186 50.805-7.1113 16.035-64.5 59.914-85.436 139.56-41.586 70.148 33.225 61.889-35.533 79.562 54.051-35.258 73.236 26.076 49.824-51.188 36.992-87.232 14.943-52.729 63.455 9.1074 64.313 447.55-0.7676-16.02-653.88-172.63 10.461-85.955-34.5-88.482 2.668-63.203-56.586-125.88 16.406-53.311-38.869 54.268-102.74-70.828-56.877zm41.84 249.85 75.953 19.441 29.139 85.664-36.506 79.498 40.086 48.371-28.66 50.91-74.08 11.197-59.104-43.748-6.8438-54.531-41.34-35.91 28.324-54.027 14.551-64.281 58.48-42.584zm305.66 27.354 63.816 33.932 44.646 13.168-4.6523 43.771-82.461-17.586-35.609 15.799-53.191-35.615 5.8457-47.979 61.605-5.4902zm-452.95 114.26 9.7227 35.117 46.514 46.645 3.6856 48.041-45.744 48.701-55.693-8.3535-28.762-43.582 18.826-98.195 51.451-28.373z" fill="#3180a8"/>
 <g fill="none" stroke="#3180a8" stroke-width="1.0583">
  <path d="m58.442 48.072-6.2957-16.274-0.11959-21.31-2.2389-14.67"/>
  <path d="m51.952 18.923 8.5668-5.7152 4.6182-9.6181 8.3372-6.5737"/>
  <path d="m36.297 64.305-12.283-6.8738-13.412 3.5368-14.39-2.6306"/>
  <path d="m16.516 59.42-5.4088-3.2893-0.88487-5.9818-6.7959-4.9745"/>
  <path d="m8.1642 48.691 2.7576-7.1332"/>
  <path d="m-4.4202 73.678 12.077 1.741 9.5271-5.2486 7.1028-0.65315 10.314 2.7047"/>
  <path d="m51.887 24.157-7.6658-6.3936"/>
  <path d="m67.39 198.31-20.377-2.0438-13.182 15.864-8.6393 0.0661"/>
 </g>
 <path d="m20.959 203.03 6.9758 4.1105-0.67546 16.188-8.4896 1.7151-4.2456-10.603z" fill="#3180a8"/>
 <g fill="none" stroke="#3180a8" stroke-width="1.0583">
  <path d="m17.926 219.53-8.8293 7.8743-12.73-1.3921"/>
  <path d="m22.183 208.34 16.545-2.0486"/>
  <path d="m210.52 98.722 5.1724-19.743-5.8302-20.636 10.506-22.152-2.0395-17.859-12.792-9.8233-1.0322-13.259"/>
  <path d="m219.19 27.137 12.542-9.9869 2.3829-21.822"/>
  <path d="m212.9 51.581-7.6244-14.967-9.74-7.4184"/>
  <path d="m261.04 108.73-4.0497-17.329 20.313-29.619-9.9674-30.661 7.728-28.162"/>
 </g>
 <g fill="#777">
  <path d="m59.185 24.592-2.4785-4.6247-2.0348 4.818z"/>
  <path d="m45.546 29.197 2.4785-4.6247 2.0348 4.818z"/>
  <path d="m38.893 26.61 2.4785-4.6247 2.0348 4.818z"/>
  <path d="m52.938 10.101 2.4785-4.6247 2.0348 4.818z"/>
  <path d="m60.946 19.095 2.4785-4.6247 2.0348 4.818z"/>
  <path d="m68.339 23.776 2.4785-4.6247 2.0348 4.818z"/>
  <path d="m74.622 20.211 2.4785-4.6247 2.0348 4.818z"/>
  <path d="m75.617 11.623 3.4181-6.3779 2.8062 6.6445z"/>
  <path d="m95.416 7.2159 3.4181-6.3779 2.8062 6.6445z"/>
  <path d="m98.558 18.677 3.2151-6.4826 3.0144 6.5526z"/>
  <path d="m83.28 16.741 5.8123-12.041 5.699 12.047z"/>
  <path d="m71.373 12.072-2.4785-4.6247-2.0348 4.818z"/>
  <path d="m70.679 5.0494 2.4785-4.6247 2.0348 4.818z"/>
  <path d="m77.209 2.7085 2.4785-4.6247 2.0348 4.818z"/>
  <path d="m90.689 3.8392 2.4785-4.6247 2.0348 4.818z"/>
  <path d="m86.579 6.0716-2.4785-4.6247-2.0348 4.818z"/>
  <path d="m108.95 10.594-2.4785-4.6247-2.0348 4.818z"/>
  <path d="m114.66 7.883 2.4785-4.6247 2.0348 4.818z"/>
  <path d="m108.13 3.2013 2.4785-4.6247 2.0348 4.818z"/>
  <path d="m0.45381 53.961 2.4785-4.6247 2.0348 4.818z"/>
  <path d="m7.308 42.749-2.4785-4.6247-2.0348 4.818z"/>
  <path d="m13.098 39.916-2.4785-4.6247-2.0348 4.818z"/>
  <path d="m-1.7638 34.618 2.4785-4.6247 2.0348 4.818z"/>
  <path d="m154.59 205.97-2.4785-4.6247-2.0348 4.818z"/>
  <path d="m159.4 212.4 2.4785-4.6247 2.0348 4.818z"/>
  <path d="m171.61 210.15 2.4785-4.6247 2.0348 4.818z"/>
  <path d="m188.33 218.18-2.4785-4.6247-2.0348 4.818z"/>
  <path d="m185.11 207.25 2.4785-4.6247 2.0348 4.818z"/>
  <path d="m173.22 222.36 2.4785-4.6247 2.0348 4.818z"/>
  <path d="m165.18 205.33 2.4785-4.6247 2.0348 4.818z"/>
  <path d="m152 216.9 2.4785-4.6247 2.0348 4.818z"/>
  <path d="m163.89 223.65-2.4785-4.6247-2.0348 4.818z"/>
  <path d="m174.18 233.29 2.4785-4.6247 2.0348 4.818z"/>
  <path d="m181.25 229.11 2.4785-4.6247 2.0348 4.818z"/>
  <path d="m194.76 232-2.4785-4.6247-2.0348 4.818z"/>
  <path d="m161.8 230.69 2.4785-4.6247 2.0348 4.818z"/>
  <path d="m152.97 237.46 2.4785-4.6247 2.0348 4.818z"/>
  <path d="m164.54 245.5 2.4785-4.6247 2.0348 4.818z"/>
  <path d="m146.22 227.5 2.4785-4.6247 2.0348 4.818z"/>
  <path d="m137.55 226.86-2.4785-4.6247-2.0348 4.818z"/>
  <path d="m143.01 216.25 2.4785-4.6247 2.0348 4.818z"/>
  <path d="m134.66 249.36-2.4785-4.6247-2.0348 4.818z"/>
  <path d="m115.37 229.43 2.4785-4.6247 2.0348 4.818z"/>
  <path d="m72.644 264.95 2.4785-4.6247 2.0348 4.818z"/>
  <path d="m54.504 259.3 2.4785-4.6247 2.0348 4.818z"/>
  <path d="m43.998 265.15-2.4785-4.6247-2.0348 4.818z"/>
  <path d="m11.564 250.34 2.4785-4.6247 2.0348 4.818z"/>
  <path d="m10.617 235.19 2.4785-4.6247 2.0348 4.818z"/>
  <path d="m21.436 231.92 2.4785-4.6247 2.0348 4.818z"/>
  <path d="m9.4182 231.4-3.439-6.417-2.8234 6.6852z"/>
  <path d="m11.824 222.66-2.4785-4.6247-2.0348 4.818z"/>
  <path d="m2.3464 213.76 2.4785-4.6247 2.0348 4.818z"/>
  <path d="m-0.45154 206.9 2.4785-4.6247 2.0348 4.818z"/>
  <path d="m-1.5346 223.44 2.4785-4.6247 2.0348 4.818z"/>
  <path d="m0.8675 238.15-2.4785-4.6247-2.0348 4.818z"/>
  <path d="m2.7074 243.56 2.4785-4.6247 2.0348 4.818z"/>
  <path d="m-1.3413 250.07 2.4785-4.6247 2.0348 4.818z"/>
  <path d="m153.36 226.9 3.4181-6.3779 2.8062 6.6445z"/>
  <path d="m163.03 218.78 5.0401-10.58 5.0492 10.533z"/>
  <path d="m-2.5274 260.89 2.4785-4.6247 2.0348 4.818z"/>
  <path d="m5.2345 267.93 2.4785-4.6247 2.0348 4.818z"/>
  <path d="m12.816 259.35-2.4785-4.6247-2.0348 4.818z"/>
  <path d="m20.668 265.22 2.4785-4.6247 2.0348 4.818z"/>
  <path d="m28.701 272.98 2.4785-4.6247 2.0348 4.818z"/>
  <path d="m17.239 272.98-2.4785-4.6247-2.0348 4.818z"/>
  <path d="m134.01 209.83 2.4785-4.6247 2.0348 4.818z"/>
 </g>
 <path d="m192.14 221.53 2.8991-11.421-6.6531-11.525 6.2191-7.1031 10.119 3.6907 5.8391 6.9557-7.2533 14.273-6.39 5.2062 3.9653 9.3667-3.1117 6.7653-4.53-1.1306 2.8419-6.633z" fill="#32ab44"/>
 <g fill="none" stroke="#3180a8" stroke-width="1.0583">
  <path d="m170.9 222.06-2.3918 12.731 9.9544 14.149"/>
  <path d="m149.58 219.24 0.14299-9.5069-6.9532-6.1465 0.91851-10.569-4.049-6.7739"/>
  <path d="m138.18 213.41 7.0924-7.495"/>
  <path d="m188.82 211.66 8.6656 5.8326 11.834 0.15779"/>
 </g>
 <path d="m12.413 267.08 3.4181-6.3779 2.8062 6.6445z" fill="#777"/>
 <path d="m1.5555 257.95 3.4181-6.3779 2.8062 6.6445z" fill="#777"/>
 <g fill="#39c24d">
  <path d="m109.63 43.481 6.027-2.4395 3.157 3.444-2.4395 4.1615-5.0225-1.2915z"/>
  <path d="m35.609 62.835 0.95699-3.0872 2.9437 1.2813-2.0842 1.7898z"/>
  <path d="m37.478 65.85 1.2198 1.0763 1.0763-0.93276-1.5068-1.5785z"/>
  <path d="m34.261 71.177 0.39463-1.6503 2.4036-0.39463 0.68163 1.2915-1.3991 1.148z"/>
  <path d="m32.747 73.487 0.25113-1.2556 1.2198 0.60988-0.64576 0.82513z"/>
  <path d="m34.083 68.161 0.44844-1.6144 0.77132 0.55606-0.50226 1.2018z"/>
 </g>
 <path d="m34.352 63.777-1.7938-1.0763 1.3633 2.7983z" fill="#3180a8"/>
 <path d="m32.291 71.26-1.1061-0.30943 0.42251-1.1152 0.89397 0.36062z" fill="#3180a8"/>
 <g>
  <path d="m236.67 229.28 6.2702-5.8458 6.8857 2.6668-2.3969 6.6391 1.3417 5.7822-5.1915 0.15029-4.9574-3.3464z" fill="#39c24d"/>
  <path d="m251.64 229.99 2.9226 0.88115-0.67737 3.1305-3.1187 1.7947-0.52141-2.8636z" fill="#39c24d"/>
  <path d="m136.29 243.1 6.8094 7.5247 7.1189 2.3182 4.722-4.5439-4.4521-8.8363-0.68693-7.8289-6.3981-1.1549-7.1318 2.5588z" fill="#d2d56f"/>
  <path d="m129.77 233.07 0.33104 6.332-5.8372 4.6958-3.8628-3.5713 4.6816-8.2607z" fill="#d2d56f"/>
 </g>
 <g fill="#32ab44">
  <path d="m73.22 91.813 6.2592 6.1759 1.5883 8.0542 9.2828-2.1031 6.0024-9.2084-2.8898-9.8187-11.13-4.01-11.287 3.1058z"/>
  <path d="m16.974 156.09-1.9322-5.5652 7.5022-14.501 7.3279-1.3632 7.3565 4.5669 1.8097 10.077 12.222 4.7914 4.5158 6.0447-2.5696 13.083-10.609 1.2281-9.9138-5.1715-4.7335-9.7913z"/>
  <path d="m79.138 150.65 8.9426-3.9212 1.7587 9.1698 11.431 7.1659 0.83528 8.602-13.853-0.19118-8.2993 6.4559-4.4278-11.02z"/>
  <path d="m109.92 145.42 7.8961 7.1208 1.3226 13.102 10.357 2.4392 14.45-5.3686 0.11245-12.857 3.3922-7.4602-2.8161-15.235-19.341-7.5796-8.9162 8.3871z"/>
  <path d="m40.367 217.48 16.395-4.4108 13.871 3.4779 2.9471 8.6696-9.0832 7.7843-10.113-4.8878-13.91 2.9112-8.4549 5.194-2.0142-2.7647z"/>
  <path d="m53.439 205.15-0.75048-4.8365 5.2206 0.19492 0.95394 5.953-2.3063 0.82267z"/>
  <path d="m203.09 225.39 1.974 5.2526 3.2542-0.43344-2.1743-5.6831z"/>
 </g>
</svg>
