<?xml version="1.0" encoding="UTF-8"?>
<svg width="32" height="28" version="1.1" viewBox="0 0 8.4667 7.4084" xmlns="http://www.w3.org/2000/svg">
 <g stroke-linecap="round">
  <path d="m2.0229 0.028659h5.4098c0.5357 0 0.96698 0.43127 0.96698 0.96698v5.4098c0 0.5357-0.43127 0.96698-0.96698 0.96698h-5.4098l-1.9364-0.0094503 0.96945-0.95753v-5.4098c0-0.5357 0.43127-0.96698 0.96698-0.96698z" fill="#fffeff" stroke="none"/>
  <path d="m4.7294 1.5563v2.7971" fill="none" stroke="#900" stroke-width="1.3228"/>
  <path d="m4.7285 5.2793a0.66142 0.66142 0 0 0-0.66016 0.66211 0.66142 0.66142 0 0 0 0.66016 0.66016 0.66142 0.66142 0 0 0 0.66211-0.66016 0.66142 0.66142 0 0 0-0.66211-0.66211z" fill="#900" stroke="none"/>
 </g>
</svg>
