<?xml version="1.0" encoding="UTF-8"?>
<svg width="1080" height="1080" version="1.1" viewBox="0 0 285.75 285.75" xmlns="http://www.w3.org/2000/svg">
 <rect x="1.5895e-7" y="-1.2207e-6" width="285.75" height="317.5" fill="#29a33f"/>
 <path d="m202.61 10.255 17.765-31.75 18.143 32.506z" fill="#595959"/>
 <g transform="translate(0 -272.65)" fill="#ded284">
  <path d="m166.88 313.95s3.4018 3.3073 7.7485 6.6146 3.6853 9.5439-3.4963 17.765c-7.1816 8.221-4.2522-24.379-4.2522-24.379z"/>
  <path d="m200.04 380s5.9531 6.8036 10.489 8.6934c4.5357 1.8899 8.41 8.5045 5.0082 17.103-3.4018 8.599-4.2522 7.5595-5.0082 13.229-0.75596 5.6696-10.489-39.026-10.489-39.026z"/>
  <path d="m158.66 333.8s-2.5513 9.0714-5.8586 14.08c-3.3073 5.0082-2.4568 15.497 4.9137 20.222 7.3705 4.7247 0.94494-34.301 0.94494-34.301z"/>
  <path d="m225.42 475.81s3.8376 4.472 12.419 6.9107c8.5815 2.4386 21.545 7.7485 31.939 4.3467s20.789-5.1972 20.789-5.1972l-1.6064 14.741-63.689-2.6458-23.435-30.238z"/>
  <path d="m-17.387 568.99s31.75-1.5119 40.065-4.1577c8.3155-2.6458 19.655-3.7798 24.946-3.0238 5.2917 0.75597 22.679-7.9375 39.688-7.1815 17.009 0.75594 29.104-7.9375 48.003-20.789 18.899-12.851 33.64-4.5357 40.254-12.095 6.6146-7.5595 14.741-14.174 25.702-17.387s20.789-6.0476 16.064-12.473c-4.7247-6.4256 5.4806-4.9137 5.4806-4.9137l-2.2679 85.234-238.72 12.998z"/>
 </g>
 <g transform="translate(0 -272.65)">
  <path d="m139.37 268.55s-5.9775 17.021 0.67929 28.536c6.6568 11.515-0.53454 13.898 9.0872 21.916 9.6217 8.0181 12.294 10.156 6.949 25.658s-5.3454 18.709 13.363 33.676c18.709 14.967 29.4 21.916 22.451 34.745s4.2701 27.777-2.1555 47.054 30.616 29.104 29.86 35.53c-0.75595 6.4256-30.616 13.229-36.286 21.923s-5.6696 10.961-22.301 10.961c-16.631 0-34.018 23.435-59.342 29.482-25.324 6.0476-29.482-1.5119-41.577 5.2917s-20.411-1.5119-29.482 3.0238c-9.0714 4.5357-18.899 1.1339-30.238 6.4256s-7.5595 17.69-7.5595 17.69h299.74v-105.38s-4.9137-1.5119-20.411 4.1577c-15.497 5.6696-23.246-1.1339-33.829-5.1027s-15.686-12.662-21.734-14.552c-6.0476-1.8899-6.2366-1.5119-4.3467-20.222s-3.7798-24.19-0.94494-34.963 7.9375-17.765-1.7009-24.568c-9.6384-6.8036-13.229-19.466-26.08-21.545-12.851-2.0789-23.812-15.119-15.875-25.135s11.528-15.497 0.75595-27.403c-6.4529-7.1322-4.9621-9.7495-10.444-24.337-3.7384-9.9473-0.33182-24.102-0.33182-24.102z" fill="#35b6cc"/>
 </g>
 <path d="m-12.437 91.779s10.142-10.153 18.211-6.7794c9.0841 3.7981 16.3-9.6962 24.507 2.7986 3.5151 5.3516 0.71372 18.394 10.098 22.247 9.3844 3.8533 13.529 11.707 8.7088 18.675-7.6171 11.011 4.0368 13.873 16.005 16.31 11.968 2.4366 7.4602 12.7 15.479 17.864 7.7814 5.0102 10.864 23.652 1.5468 32.323-9.3169 8.6711-2.2416 19.96-16.964 22.735-14.722 2.7754 7.8564 16.87-1.9891 32.747-6.1788 9.9641 2.245 19.423-10.534 21.453-11.253 1.7872-6.5401 8.7742-21.885 8.2607-13.438-0.44966-39.338 4.0692-39.338 4.0692z" fill="#185f25"/>
 <path d="m162.79 21.371 13.567-24.247 13.856 24.825z" fill="#595959"/>
 <path d="m172.74 40.825 21.447-36.247 14.294 19.464 14.077-26.481 30.046-0.75595 19.922 40.24-54.051-0.75596 4.1577 4.1577z" fill="#666"/>
 <path d="m203.26 102.23 13.229-23.559 9.8274 17.586 5.2917-6.3045 13.769 21.438-29.533-0.11731 6.6817-9.1505z" fill="#666"/>
 <path d="m252.87 52.915 17.765-31.75 18.143 32.506z" fill="#777"/>
 <path d="m264.02 70.095 22.814-40.774 23.299 41.744z" fill="#777"/>
 <g fill="#666">
  <ellipse cx="191.82" cy="72.195" rx="2.8348" ry="1.8899"/>
  <ellipse cx="270.42" cy="143.73" rx="2.8348" ry="1.8899"/>
  <ellipse cx="264.58" cy="90.335" rx="2.8348" ry="1.8899"/>
  <ellipse cx="280.84" cy="96.005" rx="2.8348" ry="1.8899"/>
  <ellipse cx="225.27" cy="131.54" rx="2.8348" ry="1.8899"/>
  <ellipse cx="263.24" cy="155.45" rx="2.8348" ry="1.8899"/>
 </g>
</svg>
