<?xml version="1.0" encoding="UTF-8"?>
<svg width="200" height="250" version="1.1" viewBox="0 0 52.917 66.146" xmlns="http://www.w3.org/2000/svg">
 <ellipse cx="37.073" cy="13.75" rx="1.0897" ry="1.2126" fill="#fff"/>
 <ellipse cx="27.175" cy="11.398" rx="1.0897" ry="1.2126" fill="#fff"/>
 <path d="m24.065 27.204s-10.818 1.2767-14.585-1.0324c-3.7672-2.3091-3.0121-6.4466 2.389-10.038 5.4012-3.5912 13.7-6.0748 22.823-3.4824 9.1238 2.5925 13.128 10.308 7.1305 11.661-5.997 1.3527-17.757 2.8915-17.757 2.8915z" fill="#ab0000"/>
 <g transform="translate(0 -1.8317)" fill="#fff">
  <ellipse cx="42.071" cy="18.718" rx="1.0897" ry="1.2126"/>
  <ellipse cx="35.701" cy="18.816" rx="1.0897" ry="1.2126"/>
  <ellipse cx="25.705" cy="16.66" rx="1.0897" ry="1.2126"/>
  <ellipse cx="19.629" cy="18.816" rx="1.0897" ry="1.2126"/>
 </g>
 <path d="m31.651 49.038 7.4335-21.157 0.64288-0.24161s-0.07825 0.81892 0.42545 1.6464c0.5037 0.82751 0.46772 1.1873-0.10794 2.9503s-2.5185 8.3831-2.5185 8.3831" fill="#6e5c3f"/>
 <path d="m16.38 42.421s-3.4112 5.8363-3.816 11.527c-0.40482 5.6902 0.86391 8.2567-0.67799 11.43-1.5419 3.1734 8.1293 0.10707 8.1293 0.10707s-0.47079-2.9172-0.62957-5.1348c-0.15878-2.2175 0.48612-5.9916 0.7243-3.3693s-0.04718 9.9222-0.04718 9.9222l19.363-0.32348s-2.4459-3.0923-2.5968-6.538c-0.15094-3.4457 0.20393-7.2423 0.51355-3.2519s0.98496 10.285 4.4003 9.5602c3.4154-0.72457 4.0772 1.8877 1.6298-8.9641-2.4474-10.852-2.5333-13.852-6.3321-15.937-3.7987-2.0844-20.661 0.9714-20.661 0.9714z" fill="#f9f6df"/>
 <path d="m22.352 51.342 1.9339-0.98942" fill="none" stroke="#b2b2b2" stroke-width=".26458px"/>
 <path d="m11.852 24.991c-1.8755-1.9455 4.2845-3.5172 13.342-4.1936 9.0577-0.67641 18.544 1.6876 14.612 2.8274-3.9321 1.1398-8.2237 1.7363-12.903 1.9979-4.6796 0.26156-13.176 1.3139-15.051-0.63164z" fill="#bdb897"/>
 <g>
  <path d="m37.139 33.44 1.6011 3.3479 0.41376-1.7241-1.5651-3.0071z" fill="#473e2d"/>
  <path d="m35.835 35.655 3.1661 1.8709-1.2233 4.5333-3.5979-2.3386z" fill="#525252"/>
  <path d="m35.133 35.349 5.091 2.8963s0.28783-0.01799 0.23386-0.6836c-0.05397-0.66561-6.0265-3.7238-6.0265-3.7238z" fill="#937b54"/>
 </g>
 <path d="m20.441 25.018s-0.20929-1.5181 5.9907-2.0205 6.2238 1.0171 6.2238 1.0171 1.2624 4.8678 1.5853 7.268c0.32283 2.4001 0.6509 3.0131 2.0466 4.5785s5.9258 6.7045 2.3027 7.8272-13.028 2.1284-19.028 0.62741c-6.0001-1.501-4.8937-2.8551-2.4138-5.1694s3.1311-5.2562 3.4265-8.347-0.13341-5.7813-0.13341-5.7813z" fill="#f1ebbf"/>
 <g transform="translate(0 -1.8317)" fill="#fff">
  <ellipse cx="16.299" cy="16.614" rx="1.0897" ry="1.2126"/>
  <ellipse cx="22.471" cy="14.014" rx="1.0897" ry="1.2126"/>
  <ellipse cx="29.821" cy="16.268" rx="1.0897" ry="1.2126"/>
 </g>
 <ellipse cx="32.054" cy="29.571" rx=".66162" ry="1.6094" fill="#585646"/>
 <ellipse cx="25.856" cy="29.607" rx=".66162" ry="1.6094" fill="#585646"/>
 <g transform="translate(0 -1.8317)" fill="none" stroke-linecap="round">
  <path d="m27.064 35.7s0.67225 0.61944 1.4766 0.45258c0.80433-0.16686 0.26813-0.76821 1.3615-0.34998 1.0934 0.41823 1.512-0.22991 1.512-0.22991" stroke="#73705b" stroke-width=".43361"/>
  <path d="m23.917 30.533s0.69-0.70948 1.6722-0.6838c0.98221 0.02567 1.4438 0.55748 1.4438 0.55748" stroke="#585646" stroke-width=".48043"/>
  <path d="m30.194 30.477s0.69-0.70948 1.6722-0.6838c0.98221 0.02567 1.4438 0.55748 1.4438 0.55748" stroke="#585646" stroke-width=".48043"/>
 </g>
 <path d="m22.385 51.48 2.2698-0.57928" fill="none" stroke="#b2b2b2" stroke-width=".26458px"/>
 <path d="m16.838 39.361s-1.727 1.4392-2.2307 3.2381c-0.5037 1.7989-1.5831 6.1884-2.5905 10.506-1.0074 4.3175-0.71958 13.888-0.71958 13.888l12.089-0.21587s0.14392-2.0868-0.28783-8.1312c-0.43174-6.0444-0.21587-10.722-0.21587-10.722z" fill="#474747"/>
 <path d="m17.738 38.641s1.8709 3.2381 2.9862 4.5333c1.1153 1.2952 3.8857 5.8286 5.4328 7.9513 1.5471 2.1227 5.181 5.6127 6.9439 7.0518 1.763 1.4392 3.7418 2.6624 3.7418 2.6624" fill="none" stroke="#fff" stroke-linecap="round" stroke-width=".52917"/>
 <path d="m17.652 38.655s-0.1406 0.01143-0.6055 0.41825c-0.46489 0.40682-0.40022 0.54053-0.40022 0.54053s0.48906 0.77578 1.2056 1.8429c0.71655 1.0671 1.5807 2.2941 2.3125 3.043 0.50293 0.51465 1.2407 2.071 2.5014 4.0475s3.1012 4.3987 5.7291 7.1342c2.6161 2.7231 4.6782 4.4142 6.0977 5.4297 1.4194 1.0155 2.2422 1.375 2.2422 1.375l0.64722 0.26698s0.02963-0.21757-0.14419-0.89558-0.29129-0.9426-0.29129-0.9426-0.71114-0.53921-1.523-1.1201c-1.3471-0.96376-3.5103-2.3594-6.0754-5.0294-2.5532-2.6577-4.2534-5.0767-5.4863-7.0098s-1.9407-3.3535-2.75-4.1816c-0.58037-0.59389-1.4217-1.8532-2.1218-2.8958-0.70006-1.0426-1.3379-2.0231-1.3379-2.0231z" color="#000000" fill="#914d70"/>
 <g fill="#ea25ca">
  <circle cx="21.675" cy="49.78" r=".66146" style="paint-order:markers fill stroke"/>
  <circle cx="18.025" cy="44.254" r=".66146" style="paint-order:markers fill stroke"/>
  <circle cx="16.622" cy="41.879" r=".66146" style="paint-order:markers fill stroke"/>
  <circle cx="20.004" cy="46.844" r=".66146" style="paint-order:markers fill stroke"/>
 </g>
 <path d="m38.102 30.618 1.5471 3.0042 0.41376-1.5471-1.4931-2.7704s-0.43175 1.2952-0.46772 1.3132z" fill="#473e2d"/>
 <path d="m37.182 56.108s0.57151 0.04471 2.9121-0.33691c2.3406-0.38161 2.7936-0.75269 2.7936-0.75269s0.1565 0.50105 0.55739 2.3492c0.4009 1.8482 0.44023 2.3678 0.44023 2.3678s-0.63474 0.60185-2.9499 0.98346c-2.3151 0.38161-3.1814 0.28858-3.1814 0.28858s-0.15986-1.0037-0.35136-2.5945c-0.1915-1.5908-0.22068-2.3049-0.22068-2.3049z" fill="#fff"/>
 <g fill="none" stroke-linecap="round">
  <path d="m37.716 59.381s0.89886 0.08097 2.9867-0.35019c2.0879-0.43117 2.7461-0.79066 2.7461-0.79066" stroke="#00a641" stroke-width=".40374"/>
  <path d="m37.833 60.313s1.0989 0.054 3.2052-0.37693c2.1063-0.43093 2.5535-0.84428 2.5535-0.84428" stroke="#00a641" stroke-width=".4054"/>
  <path d="m24.245 50.354 0.42613 0.55334" stroke="#8b8b8b" stroke-width=".26458px"/>
 </g>
 <circle cx="22.32" cy="51.409" r=".22037" fill="#8b8b8b" style="paint-order:markers fill stroke"/>
</svg>
