<?xml version="1.0" encoding="UTF-8"?>
<svg width="32" height="32" version="1.1" viewBox="0 0 8.4667 8.4667" xmlns="http://www.w3.org/2000/svg">
 <g transform="translate(0 -288.53)">
  <path d="m6.6896 295.24 0.2731 0.34401" fill="none" stroke="#000" stroke-width=".25445px"/>
  <path d="m2.1691 292.98 2.6695-1.5335" fill="none" stroke="#000" stroke-width=".25445px"/>
  <g stroke="#000" stroke-width=".25445">
   <path d="m2.3601 290.85 1.6225 5.2692 0.59439 0.62653-1.8796-5.7994z" stroke-miterlimit="1"/>
   <circle cx="6.2502" cy="294.66" r=".2955" stroke-linecap="square"/>
   <path d="m2.8581 290.56-0.016064 0.40161 3.8394 4.3696 0.080324-0.14459-0.20884-0.62652z" stroke-miterlimit="1"/>
  </g>
  <g fill="none" stroke="#000">
   <path d="m3.3164 291.92 0.31807 0.61342" stroke-width=".25445px"/>
   <ellipse transform="rotate(50.795)" cx="226.65" cy="181.69" rx=".52254" ry=".60205" stroke-linecap="square" stroke-width=".25445"/>
   <path d="m2.7316 290.93-0.50569-0.92188" stroke-width=".25445px"/>
  </g>
  <g>
   <path d="m1.4875 289.07 0.30671-0.17039 0.38622 0.74973 0.045438 0.3635-0.32942-0.27263z" stroke="#000" stroke-width=".25445px"/>
   <circle cx="2.263" cy="292.92" r=".20447" stroke-width=".96171"/>
   <circle cx="4.7848" cy="291.46" r=".20447" stroke-width=".96171"/>
   <circle cx="4.1487" cy="295.91" r=".2955" stroke="#000" stroke-linecap="square" stroke-width=".25445"/>
  </g>
 </g>
</svg>
