<?xml version="1.0" encoding="UTF-8"?>
<svg width="32" height="32" version="1.1" viewBox="0 0 8.4667 8.4667" xmlns="http://www.w3.org/2000/svg">
 <g stroke-linecap="round" stroke-linejoin="round">
  <path transform="matrix(1.2963 0 0 1.2963 1.3763 -1.6587)" d="m3.1509 2.3966 0.14581 0.41948 0.44401 0.00905-0.35389 0.2683 0.1286 0.42507-0.36453-0.25366-0.36453 0.25366 0.1286-0.42507-0.35389-0.2683 0.44401-0.0090481z" stroke-width=".2041"/>
  <g stroke-width=".26458">
   <circle cx="1.5911" cy=".86884" r=".2541"/>
   <circle cx="3.659" cy="5.0348" r=".2541"/>
   <circle cx="5.3431" cy="7.4689" r=".2541"/>
   <circle cx="7.339" cy="1.0157" r=".2541"/>
   <circle cx="8.027" cy="3.1854" r=".2541"/>
   <circle cx=".44779" cy="3.1935" r=".2541"/>
  </g>
 </g>
 <g fill="none" stroke="#000" stroke-width=".26458px">
  <path d="m0.68711 2.7748 0.66242-1.4923"/>
  <path d="m3.4436 4.5866-1.5967-3.303"/>
  <path d="m2.1012 1.0069 2.4165 0.93152"/>
  <path d="m3.9901 4.6764 0.90308-1.6041"/>
  <path d="m6.043 2.4631 1.5451 0.57033"/>
  <path d="m3.9768 5.4399 1.0843 1.6457"/>
  <path d="m5.9069 1.7839 0.99345-0.585"/>
 </g>
</svg>
