<?xml version="1.0" encoding="UTF-8"?>
<svg width="32" height="32" version="1.1" viewBox="0 0 8.4667 8.4667" xmlns="http://www.w3.org/2000/svg">
 <g>
  <path d="m8.2955 3.4772-3.3441 0.0070838-2.4404 1.8601c1.4565 0.37436 3.8162 0.16022 4.4758-0.39551 0.71819-0.60509 1.3087-1.4717 1.3087-1.4717zm-4.3441 0.00945-3.745 0.00826s0.4686 1.0306 1.631 1.6015zm3.7396 0.29575s-0.64456 0.75432-0.97402 0.97107c-0.32946 0.21674-1.0307 0.34769-1.0307 0.34769l-0.00177-1.3182z"/>
  <circle cx="5.9645" cy="4.0746" r=".13577"/>
  <circle cx="5.9578" cy="4.7975" r=".13577"/>
  <circle cx="7.1033" cy="4.0493" r=".13577"/>
  <path d="m5.1743 2.9344-3.582 2.7292s-0.34973-0.37398-0.83857 0.026525c-0.48884 0.40051-0.33672 0.72383-0.24437 0.83547 0.09235 0.11164 0.28494 0.26162 0.7491-0.11702 0.46416-0.37864 0.32762-0.78571 0.32762-0.78571" stroke="#000" stroke-width=".30224px"/>
 </g>
 <g transform="matrix(1.1423 0 0 1.1423 -.65247 -.99556)">
  <path d="m5.1008 3.4403-3.1357 2.3892s-0.30615-0.32739-0.73409 0.02322c-0.42794 0.35061-0.29477 0.63365-0.21393 0.73138 0.080844 0.09773 0.24944 0.22902 0.65577-0.10244 0.40633-0.33147 0.2868-0.68782 0.2868-0.68782" color="#000000" stroke="none"/>
 </g>
</svg>
