<?xml version="1.0" encoding="UTF-8"?>
<svg width="32" height="32" version="1.1" viewBox="0 0 8.4667 8.4667" xmlns="http://www.w3.org/2000/svg">
 <path d="m4.2961 0.65383a3.0236 3.0236 0 0 0-1.1559 0.23079l0.1893 0.95105 1.4807 0.51734-1.4807 0.51734-0.4927 2.4694h3.9851a3.0236 3.0236 0 0 0 0.49789-1.6622 3.0236 3.0236 0 0 0-3.0237-3.0237zm-1.8995 0.67164a3.0236 3.0236 0 0 0-0.62755 0.69368l0.52577-0.18347zm-0.91928 1.259a3.0236 3.0236 0 0 0-0.20486 1.093 3.0236 3.0236 0 0 0 0.49919 1.6622h1.0159l-0.49271-2.4694z"/>
 <path d="m2.8213 4.5462-0.36835-1.8478-1.0547-0.36835 1.0547-0.36835 0.36835-1.8478 0.36835 1.8478 1.0547 0.36835-1.0547 0.36835z" stroke-linecap="round" stroke-linejoin="round" stroke-width=".26458"/>
 <path d="m1.0865 5.5711h6.4542l0.66386 2.2095h-7.7819z" stroke-linecap="round" stroke-linejoin="round" stroke-width=".26458"/>
</svg>
