<?xml version="1.0" encoding="UTF-8"?>
<svg width="32" height="32" version="1.1" viewBox="0 0 8.4667 8.4667" xmlns="http://www.w3.org/2000/svg">
 <circle transform="scale(-1,1)" cx="-2.5546" cy="2.7826" r="5.4503" fill="none" stroke="#020202" stroke-dasharray="0.270619, 0.81186" stroke-linecap="round" stroke-linejoin="round" stroke-width=".27062"/>
 <path d="m0.80703 0.79005-0.59661 0.47201v0.72326h0.087139v1.7864h1.0428v-0.091206h0.68492v-0.46387c0-0.29242 0.23167-0.52889 0.52226-0.5362 0.00461-1.16e-4 0.0093 0 0.013942 0 0.29705 0 0.5362 0.23914 0.5362 0.5362v0.46387h0.69102v0.091206h1.0428v-1.7864h0.11764v-0.72239l0.00378-0.00116-0.65471-0.47172-0.59661 0.47201v0.56728h-2.2436v-0.56641l0.00407-0.00116zm0.29337 0.60417h0.23992v0.43512h-0.23992zm3.4911 0h0.23992v0.43512h-0.23992zm-4.2492 0.00261h0.23992v0.43512h-0.23992zm3.4911 0h0.23992v0.43512h-0.23992zm-3.112 2.904e-4h0.23992v0.43483h-0.23992zm3.4911 0h0.23992v0.43483h-0.23992z" stroke-width=".56208"/>
 <g transform="translate(-.77518 -.039271)">
  <path d="m3.332 6.0176v1.2568" fill="none" stroke="#000" stroke-width=".26458px"/>
  <path d="m3.8833 6.8778-0.55123 0.66454-0.55123-0.66454z" fill="#0b0b0b"/>
 </g>
 <g transform="rotate(-45 3.4428 3.4418)">
  <path d="m3.332 6.0131v1.2612" fill="none" stroke="#000" stroke-width=".26458px"/>
  <path d="m3.8833 6.8778-0.55123 0.66454-0.55123-0.66454z" fill="#0b0b0b"/>
 </g>
 <g transform="rotate(-90 3.0438 3.0644)">
  <path d="m3.332 6.0176v1.2568" fill="none" stroke="#000" stroke-width=".26458px"/>
  <path d="m3.8833 6.8778-0.55123 0.66454-0.55123-0.66454z" fill="#0b0b0b"/>
 </g>
</svg>
