<?xml version="1.0" encoding="UTF-8"?>
<svg width="32" height="32" version="1.1" viewBox="0 0 8.4667 8.4667" xmlns="http://www.w3.org/2000/svg">
 <g>
  <rect x=".282" y="5.5448" width="7.8185" height="1.8978"/>
  <path d="m5.5578 3.97s-0.088437 0.35276-0.36048 0.72469c-0.27205 0.37193-0.79862 0.64122-0.79862 0.64122h-2.1291s0.52657-0.26929 0.79862-0.64122c0.27205-0.37193 0.36048-0.72469 0.36048-0.72469z"/>
  <path d="m3.4286 3.8742h2.1291v-0.40452h-2.134z"/>
  <path d="m5.5578 3.3793-0.33544-0.58101-1.4631-2e-7 -0.33544 0.58101z"/>
 </g>
 <g stroke-linecap="round">
  <path d="m4.4908 2.7982v-1.9201" fill="none" stroke="#000" stroke-width=".79375"/>
  <g stroke-linejoin="round">
   <path d="m1.7115 2.7551 0.15942 0.7338 0.40422 0.16927-0.40422 0.16927-0.15942 0.7338-0.15942-0.7338-0.40422-0.16927 0.40422-0.16927z" stroke-width=".79553"/>
   <path d="m0.83046 3.8523 0.090999 0.41885 0.23073 0.096619-0.23073 0.096619-0.090999 0.41885-0.090999-0.41885-0.23073-0.096619 0.23073-0.096619z" stroke-width=".45409"/>
   <path d="m1.2203 2.0137 0.090999 0.41885 0.23073 0.096619-0.23073 0.096619-0.090999 0.41885-0.090999-0.41885-0.23073-0.096619 0.23073-0.096619z" stroke-width=".45409"/>
  </g>
 </g>
</svg>
