<?xml version="1.0" encoding="UTF-8"?>
<svg width="32" height="32" version="1.1" viewBox="0 0 8.4667 8.4667" xmlns="http://www.w3.org/2000/svg">
 <g>
  <path d="m2.5413 5.1052c-1.9109 0-2.2238-0.49095-2.2238-0.49095l0.40009 3.2386s0.24817 0.47786 1.8237 0.47786c1.5755 0 1.8237-0.47786 1.8237-0.47786l0.40009-3.2386s-0.31287 0.49095-2.2238 0.49095z"/>
  <path d="m2.5413 3.9423c-1.9109-1e-7 -2.2238 0.49095-2.2238 0.49095s0.31287 0.49095 2.2238 0.49095c1.9109 0 2.2238-0.49095 2.2238-0.49095s-0.31287-0.49095-2.2238-0.49095z"/>
  <path d="m2.2298 2.1343-0.23242 0.12891s0.06893 0.11847 0.21875 0.23242c0.14982 0.11395 0.38756 0.23477 0.74023 0.2832 0.69444 0.095361 1.1484-0.10938 1.1484-0.10938l-0.083984 0.00977 4.3477 0.98047 0.058594-0.25781-4.3926-0.99219-0.039063 0.019531s-0.3712 0.17451-1.002 0.087891c-0.30992-0.042563-0.50202-0.14483-0.61719-0.23243-0.11517-0.087597-0.14648-0.15039-0.14648-0.15039z" color="#000000"/>
  <path d="m2.8728 0.65064c-0.11577-8.0339e-4 -0.18965 0.018604-0.18965 0.018604l0.071831 0.25425s0.067971-0.021472 0.21136-0.002067c0.10079 0.01364 0.2329 0.049007 0.38913 0.13436l0.20102-0.18914c-0.21516-0.1306-0.40646-0.18712-0.55501-0.20722-0.046633-0.006311-0.090085-0.0085172-0.12867-0.008785zm1.4376 0.9462-0.19379 0.18294c0.069379 0.11141 0.095602 0.18242 0.095602 0.18242l0.015503 0.043408 3.8086 2.4019 0.14056-0.22428-3.7367-2.3585c-0.021968-0.047048-0.063437-0.12782-0.12971-0.22789z" color="#000000"/>
  <circle transform="rotate(-67.518)" cx="-.44722" cy="6.7198" r=".36066"/>
  <path d="m4.5854 0.071865-2.1606 2.0371c0.017153 0.015709 0.03655 0.032456 0.060462 0.050643 0.11517 0.087596 0.30762 0.18998 0.61754 0.23254 0.055444 0.00761 0.10884 0.012662 0.1602 0.016537l1.8671-1.7606zm-2.3528 2.2185-0.051677 0.048576c0.02241 0.023975 0.054124 0.053179 0.097669 0.0863 0.11517 0.087596 0.3071 0.18998 0.61702 0.23254 0.03118 0.00428 0.06157 0.00779 0.091468 0.010852l0.024805-0.023255c-0.32306-0.052845-0.54424-0.16689-0.68627-0.27492-0.035512-0.027011-0.066436-0.054219-0.093018-0.080099zm-0.24288 0.22893-0.52762 0.49765 0.54519 0.57619 0.73484-0.69298c-0.28927-0.056646-0.49108-0.16265-0.62374-0.26355-0.053018-0.040326-0.095386-0.0813-0.12867-0.11731z" color="#000000"/>
 </g>
</svg>
