<?xml version="1.0" encoding="UTF-8"?>
<svg width="32" height="32" version="1.1" viewBox="0 0 8.4667 8.4667" xmlns="http://www.w3.org/2000/svg">
 <g transform="translate(0 -288.53)" stroke-linecap="round" stroke-linejoin="round" stroke-width="4.9268">
  <path d="m3.999 292.3c-0.013722 0.0107-0.027312 0.0202-0.041524 0.0294-0.12432 0.081-0.28325 0.14241-0.47352 0.1949-0.38054 0.10486-0.88747 0.16677-1.448 0.16677-0.56055 0-1.0675-0.062-1.448-0.16677-0.19027-0.0525-0.3492-0.11392-0.47352-0.1949-0.013956-0.01-0.027427-0.0187-0.040855-0.0287-0.013512 0.0256-0.02045 0.0511-0.020763 0.077 0 0-3.42e-6 0.0913 0 0.28329-5.78e-6 0.30159 0.88827 0.54641 1.9838 0.54641 1.0956 0 1.9838-0.24482 1.9838-0.54653 5.5e-6 -0.30162 0-0.28329 0-0.28329-4.186e-4 -0.026-0.00757-0.052-0.021433-0.0777z" style="paint-order:markers stroke fill"/>
  <path d="m3.999 291.62c-0.013722 0.0107-0.027312 0.0202-0.041524 0.0294-0.12432 0.081-0.28325 0.14242-0.47352 0.19491-0.38054 0.10486-0.88747 0.16676-1.448 0.16676-0.56055 0-1.0675-0.062-1.448-0.16676-0.19027-0.0525-0.3492-0.11393-0.47352-0.19491-0.013956-0.01-0.027427-0.0188-0.040856-0.0287-0.013505 0.0256-0.020443 0.0512-0.020763 0.077 0 0-3.36e-6 0.0913 0 0.2833-5.72e-6 0.30158 0.88827 0.5464 1.9838 0.5464 1.0956 0 1.9838-0.24482 1.9838-0.5465 5.6e-6 -0.30165 0-0.28332 0-0.28332-4.296e-4 -0.0259-0.00759-0.052-0.021432-0.0777z" style="paint-order:markers stroke fill"/>
  <path d="m3.999 292.99c-0.013722 0.0107-0.027312 0.0202-0.041524 0.0294-0.12432 0.0809-0.28325 0.1424-0.47352 0.19489-0.38053 0.10486-0.88747 0.16677-1.448 0.16677-0.56055 0-1.0675-0.062-1.448-0.16677-0.19027-0.0525-0.3492-0.11391-0.47352-0.19489-0.013956-0.01-0.027427-0.0188-0.040855-0.0287-0.013512 0.0256-0.02045 0.0511-0.020762 0.0769 0 0-3.42e-6 0.0913 0 0.28331-5.79e-6 0.30168 0.88827 0.5465 1.9838 0.5465 1.0956 0 1.9838-0.24482 1.9838-0.54653 5.5e-6 -0.30162 0-0.2833 0-0.2833-4.186e-4 -0.026-0.00757-0.052-0.021433-0.0777z" style="paint-order:markers stroke fill"/>
  <path d="m3.999 293.68c-0.013721 0.0107-0.027311 0.0202-0.041524 0.0294-0.12432 0.081-0.28325 0.1424-0.47352 0.1949-0.38053 0.10486-0.88747 0.16676-1.448 0.16676-0.56055 0-1.0675-0.0619-1.448-0.16676-0.19027-0.0525-0.3492-0.11392-0.47352-0.1949-0.013956-0.01-0.027427-0.0187-0.040856-0.0287-0.013512 0.0256-0.020449 0.0511-0.020763 0.0769 0 0-3.37e-6 0.0913 0 0.28331-5.3e-6 0.30169 0.88827 0.54653 1.9838 0.54653 1.0956 0 1.9838-0.24484 1.9838-0.54653 5.3e-6 -0.30164 0-0.28331 0-0.28331-4.186e-4 -0.026-0.00757-0.052-0.021433-0.0777z" style="paint-order:markers stroke fill"/>
  <path d="m2.0366 290.46a1.9837 0.54627 0 0 0-1.9838 0.54586s-3.5e-6 0.0913 0 0.2833c-5.43e-6 0.3017 0.88826 0.54652 1.9838 0.54652 1.0956 0 1.9838-0.24482 1.9838-0.54652 5.5e-6 -0.30163 0-0.2833 0-0.2833a1.9837 0.54627 0 0 0-1.9838-0.54586z" style="paint-order:markers stroke fill"/>
  <path d="m8.4035 294.44c-0.013722 0.0107-0.027312 0.0202-0.041524 0.0294-0.12432 0.081-0.28325 0.14243-0.47352 0.19492-0.38053 0.10486-0.88747 0.16676-1.448 0.16676-0.56055 0-1.0675-0.0619-1.448-0.16676-0.19027-0.0525-0.3492-0.11393-0.47352-0.19492-0.013956-0.01-0.027427-0.0187-0.040856-0.0287-0.013511 0.0256-0.02045 0.0511-0.020763 0.077 0 0-3.6e-6 0.0913 0 0.28331-5.5e-6 0.30169 0.88827 0.54653 1.9838 0.54653 1.0956 0 1.9838-0.24484 1.9838-0.54653 5.5e-6 -0.30163 0-0.28331 0-0.28331-4.187e-4 -0.026-0.00757-0.052-0.021432-0.0777z" style="paint-order:markers stroke fill"/>
  <path d="m8.4035 293.75c-0.013722 0.0107-0.027312 0.0202-0.041524 0.0294-0.12432 0.0809-0.28325 0.14241-0.47352 0.19491-0.38053 0.10486-0.88747 0.16675-1.448 0.16675-0.56055 0-1.0675-0.062-1.448-0.16675-0.19027-0.0525-0.3492-0.11393-0.47352-0.19491-0.013956-0.01-0.027428-0.0188-0.040856-0.0287-0.013505 0.0256-0.020443 0.0511-0.020763 0.0769 0 0-3.4e-6 0.0913 0 0.28332-5.4e-6 0.3017 0.88827 0.54652 1.9838 0.54652s1.9838-0.24482 1.9838-0.54652c5.6e-6 -0.30163 0-0.28332 0-0.28332-4.295e-4 -0.0259-0.00759-0.052-0.021433-0.0777z" style="paint-order:markers stroke fill"/>
  <path d="m6.4411 292.59a1.9837 0.54627 0 0 0-1.9838 0.54585s-3.4e-6 0.0913 0 0.2833c-5.5e-6 0.3017 0.88826 0.54653 1.9838 0.54653s1.9838-0.24483 1.9838-0.54653c5.5e-6 -0.30163 0-0.2833 0-0.2833a1.9837 0.54627 0 0 0-1.9838-0.54585z" style="paint-order:markers stroke fill"/>
 </g>
</svg>
