<?xml version="1.0" encoding="UTF-8"?>
<svg width="32" height="32" version="1.1" viewBox="0 0 8.4667 8.4667" xmlns="http://www.w3.org/2000/svg">
 <path d="m5.7415 0.51087-2.5078 0.92013 0.50474 0.65982 1.5409-0.56391zm0.26906 0.12238-0.46144 1.0145 0.5868 1.5336 0.82903-0.053136zm-0.70668 1.1967-1.5078 0.55368-1.2517 2.7518 0.57444 1.4983 1.5068-0.55159 1.2517-2.7518zm-2.2839-0.1942-1.5491 3.4056 0.81747-0.052711 1.2295-2.7031zm3.9307 1.7892-0.81752 0.051426-1.2286 2.701 0.49775 0.65158zm-2.2685 2.9483-1.5393 0.56462-0.46215 1.016 2.5085-0.92041zm-2.3945-1.0885-0.83065 0.051137 0.95468 2.4957 0.46191-1.0155z"/>
</svg>
