<?xml version="1.0" encoding="UTF-8"?>
<svg width="32" height="32" version="1.1" viewBox="0 0 8.4667 8.4667" xmlns="http://www.w3.org/2000/svg">
 <path d="m2.3405 4.9943 3.2739-4.2397" fill="none" stroke="#000" stroke-width=".60281"/>
 <path d="m2.9581 0.66084s1.2177-0.61845 2.4695 0.33572c1.2518 0.95417 0.99419 2.342 0.99419 2.342s0.073825-0.47043-1.4769-1.6525c-1.5508-1.1821-1.9867-1.0252-1.9867-1.0252z"/>
 <g fill="none" stroke="#000" stroke-linecap="round" stroke-width=".39688">
  <path d="m7.9554 6.191s-0.12615 0.35722-0.92819 0.32133c-0.80204-0.035897-1.0776-0.6731-1.8564-0.64265s-1.0776 0.6731-1.8564 0.64265c-0.77879-0.030448-1.1837-0.63719-1.8564-0.64265-0.67266-0.0054671-0.92819 0.32133-0.92819 0.32133"/>
  <path d="m7.9554 6.9101s-0.12615 0.35722-0.92819 0.32133c-0.80204-0.035897-1.0776-0.6731-1.8564-0.64265-0.77879 0.030448-1.0776 0.6731-1.8564 0.64265-0.77879-0.030448-1.1837-0.63719-1.8564-0.64265-0.67266-0.005467-0.92819 0.32133-0.92819 0.32133"/>
  <path d="m7.9554 7.6292s-0.12615 0.35722-0.92819 0.32133c-0.80204-0.035897-1.0776-0.6731-1.8564-0.64265-0.77879 0.030448-1.0776 0.6731-1.8564 0.64265-0.77879-0.030448-1.1837-0.63719-1.8564-0.64265-0.67266-0.0054671-0.92819 0.32133-0.92819 0.32133"/>
 </g>
</svg>
