<?xml version="1.0" encoding="UTF-8"?>
<svg width="32" height="32" version="1.1" viewBox="0 0 8.4667 8.4667" xmlns="http://www.w3.org/2000/svg">
 <path d="m6.2128 0.46641c-1.7263 0.15712-3.8923 0.32249-5.2178 0.46764-0.58845 0.20435-0.22504 0.98233-0.22504 0.98233l0.90808-0.092395c0.056747 0.3464 0.095202 0.80494 0.13321 1.3967 0.11228 1.7482 0.32038 4.4182 0.78904 4.6436l5.1594-0.46424c-0.46866-0.22534-0.67677-2.8948-0.78904-4.643-0.10877-1.6935-0.17553-2.3071-0.75786-2.2906zm-1.8485 1.3956c0.065156 0.00227 0.1208 0.047712 0.13604 0.1111 0.017759 0.07739-0.02998 0.15468-0.10713 0.17345l-0.06632 0.02154-0.068588 0.02324-0.073122 0.03231-0.03401 0.014738c-0.071568 0.034322-0.15743 0.00477-0.19273-0.06632-0.034322-0.071568-0.00477-0.15743 0.06632-0.19273l0.040812-0.02154 0.085593-0.036278 0.085593-0.030042 0.083325-0.025508h0.0068c0.012246-0.00294 0.024821-0.00427 0.037411-0.00397zm0.83042 0.1094c0.025202-9.186e-4 0.05021 0.00475 0.072555 0.016438l0.00624 0.00453 0.07709 0.047048 0.06462 0.047048 0.049315 0.040812 0.038545 0.036278 0.027775 0.030042c0.054906 0.057084 0.0539 0.14765-0.00227 0.2035-0.057358 0.056413-0.14966 0.0554-0.20576-0.00227l-0.02154-0.02324-0.027775-0.023807-0.038545-0.031743-0.047048-0.036845-0.05555-0.03401c-0.071383-0.037598-0.098387-0.12623-0.060087-0.19725 0.024326-0.045442 0.070931-0.074571 0.12244-0.076523zm-1.7595 0.55664c0.00644-9.55e-5 0.012865 3.696e-4 0.019273 0.00113 0.025779 0.00313 0.050249 0.013106 0.070855 0.028909 0.063924 0.048488 0.076366 0.13965 0.027775 0.2035l-0.012471 0.017005-0.060085 0.090127-0.057818 0.091828-0.015305 0.027775c-0.038995 0.069594-0.12685 0.094659-0.19669 0.056122-0.07055-0.038416-0.096468-0.12684-0.057818-0.19726l0.019273-0.03231 0.064053-0.10487 0.068588-0.1009 0.017005-0.02324c0.022827-0.030282 0.056602-0.050425 0.094095-0.056117 0.00638-9.488e-4 0.012834-0.0016 0.019273-0.0017zm2.6953 0.18592 0.229 0.17572-0.36278 0.47161 0.51923 0.29986-0.14341 0.25054-0.55324-0.3197-0.38942 0.50619-0.229-0.17799 0.36561-0.47444-0.51356-0.29646 0.14341-0.25054 0.54757 0.3163zm-3.1318 0.87577c0.00491-9.85e-5 0.00974 1.593e-4 0.014738 5.669e-4 0.079808 0.00661 0.13917 0.076633 0.13264 0.15645l-0.00624 0.07709v0.08786l0.00397 0.079357 0.00227 0.01077c0.013355 0.078677-0.039307 0.15338-0.1179 0.16722-0.078477 0.013022-0.15281-0.039566-0.16665-0.1179l-0.00453-0.023807-0.0085-0.10713v-0.10713l0.0085-0.089561c0.00592-0.075034 0.068051-0.1323 0.14171-0.13377zm0.55097 0.88087c0.012704-9.143e-4 0.025474-1.552e-4 0.037978 0.00227l0.019273 0.00453 0.049315 0.00624 0.051016 0.0068 0.056117 0.0017h0.081059c0.079923-3.148e-4 0.14505 0.064057 0.14568 0.14398 3.17e-4 0.079704-0.063711 0.14474-0.14341 0.14568h-0.090128l-0.070288-0.00227-0.066887-0.00624-0.064053-0.01077-0.027775-0.0068c-0.077912-0.016718-0.12776-0.093137-0.11167-0.17118 0.013915-0.063729 0.068644-0.11034 0.13377-0.11393zm1.1694 0.077657c0.00625 2.839e-4 0.012533 0.00118 0.018706 0.00227l0.05385 0.0085 0.1094 0.02324 0.10487 0.027775 0.03401 0.01077c0.076649 0.024135 0.11909 0.10597 0.094662 0.18252-0.024376 0.076422-0.10613 0.11857-0.18252 0.094095l-0.027775-0.0085-0.090128-0.023807-0.098063-0.02154-0.047614-0.00624c-0.079416-0.014068-0.13212-0.090196-0.11734-0.16948 0.011432-0.064215 0.064304-0.11291 0.12924-0.11904 0.00625-5.257e-4 0.012457-8.507e-4 0.018706-5.668e-4zm0.83325 0.64223c0.00495-1.07e-4 0.0097 1.604e-4 0.014738 5.668e-4 0.079808 0.00661 0.13917 0.076633 0.13264 0.15645l-0.00397 0.057818-0.013037 0.078791-0.02324 0.07709-0.030042 0.077657-0.019273 0.038545c-0.034462 0.071956-0.12055 0.10259-0.19272 0.068587-0.073258-0.03448-0.10413-0.12224-0.068588-0.19499l0.012471-0.028342 0.023807-0.05555 0.014738-0.051582 0.0085-0.047048 0.00227-0.042513c0.00509-0.075671 0.067514-0.13387 0.14171-0.13547zm-0.58044 0.98687c0.025153-0.00109 0.050157 0.00438 0.072555 0.015871 0.070692 0.036965 0.098288 0.12406 0.061786 0.19499l-0.010203 0.02154-0.02154 0.04308-0.017005 0.040813-0.026075 0.083325-0.0085 0.04478c-0.015669 0.078833-0.09242 0.12992-0.17119 0.11394-0.078033-0.015687-0.12887-0.091304-0.11393-0.16948l0.013037-0.062352 0.034577-0.10713 0.02324-0.057818 0.025508-0.057818 0.015305-0.027775c0.024472-0.045224 0.071049-0.074117 0.12244-0.075956z"/>
</svg>
