<?xml version="1.0" encoding="UTF-8"?>
<svg width="32" height="32" version="1.1" viewBox="0 0 8.4667 8.4667" xmlns="http://www.w3.org/2000/svg">
 <g transform="matrix(1.1814 1.0333 -1.0333 1.1814 7.3067 -3.4947)" fill="none" stroke="#000">
  <path d="m1.8721 7.6736v-3.7461" stroke-linecap="round" stroke-width=".39688"/>
  <path d="m0.77836 2.4723s0.016732 1.1321 0.26134 1.2628c0.2446 0.13068 0.8324 0.11429 0.8324 0.11429s0.5878 0.016393 0.8324-0.11429c0.2446-0.13068 0.26134-1.2628 0.26134-1.2628" stroke-width=".26458"/>
  <path d="m2.2544 2.4723s-0.00585 1.1321-0.091339 1.2628c-0.085491 0.13068-0.29093 0.11429-0.29093 0.11429s-0.20544 0.016393-0.29093-0.11429c-0.085489-0.13068-0.091339-1.2628-0.091339-1.2628" stroke-width=".26458"/>
 </g>
 <g transform="matrix(1.1041 -1.1154 1.1154 1.1041 -6.0942 5.0818)">
  <path d="m4.5872 6.557v-3.7461" fill="none" stroke="#000" stroke-linecap="round" stroke-width=".37042"/>
  <path d="m5.229 1.7769c0.27744 0.50362 0.37216 1.2184 0.37216 1.2184h-2.028s0.094727-0.71479 0.37216-1.2184c0.27744-0.50362 0.64184-0.71237 0.64184-0.71237s0.3644 0.20875 0.64184 0.71237z"/>
  <rect x="3.9171" y="6.4067" width="1.3408" height=".36987"/>
 </g>
</svg>
