<?xml version="1.0" encoding="UTF-8"?>
<svg width="32" height="32" version="1.1" viewBox="0 0 8.4667 8.4667" xmlns="http://www.w3.org/2000/svg">
 <g fill="none" stroke="#020202">
  <g stroke-width=".088107">
   <path d="m2.5701 2.3163 0.020613-0.49833"/>
   <path d="m2.8013 1.8039 1.3888-0.83677 1.3559 0.86258"/>
   <path d="m5.6994 1.8365 0.03217 0.42476"/>
  </g>
  <path d="m4.2025 9.9572-0.0037455-5.2697m-0.0019268-2.7109-0.0012077-1.6992" stroke-width=".26458px"/>
  <path d="m2.4893 1.8114h3.3477" stroke-width=".26458px"/>
 </g>
 <g>
  <path d="m2.2933 4.6607 0.17742 0.20828 0.21776-0.18253-0.16622-0.21308z"/>
  <path d="m2.2933 4.6607 0.055153-2.3998 0.40211 0.018559-0.062085 2.407z"/>
  <path d="m5.3439 1.6764-2.3389 5.167e-4 0.041858 2.5316 0.23926 1.6774 0.42116-1.6981 0.49558 1.7415 0.43977-1.7048 0.4222 1.6438 0.28577-1.5777-0.006718-2.6143zm-0.56534 0.3638-0.054777 0.45941-0.60152 0.97617 0.27337 0.15296-0.10852 0.21291-0.34313-0.20412-0.1819 0.30283-0.16743-0.10077 0.16537-0.30386-0.30644-0.20206 0.10232-0.19224 0.2558 0.14418 0.60513-0.98237 0.36174-0.26303z"/>
  <path d="m5.7125 4.8132 0.25852 0.14511 0.19176-0.22369-0.24243-0.14868z"/>
  <path d="m5.531 2.2351 0.18145 2.5781 0.45028-0.078574-0.22329-2.5513z"/>
  <circle cx="4.2009" cy=".37591" r=".36725"/>
  <circle transform="rotate(-2.0341)" cx="2.4745" cy="2.3863" r=".25226"/>
  <circle cx="3.3026" cy="5.7186" r=".25226"/>
  <circle cx="4.198" cy="5.7593" r=".25226"/>
  <circle cx="5.0629" cy="5.7496" r=".25226"/>
  <circle cx="5.7399" cy="2.2851" r=".25226"/>
 </g>
</svg>
