<?xml version="1.0" encoding="UTF-8"?>
<svg width="32" height="32" version="1.1" viewBox="0 0 8.4667 8.4667" xmlns="http://www.w3.org/2000/svg">
 <g transform="translate(0 -288.53)">
  <path d="m4.0504 289.48c-0.011605-1e-4 -0.023111 1.6e-4 -0.034623 5.1e-4 -0.14325 4e-3 -0.27682 0.04338-0.35295 0.13023-0.17401 0.19844-0.13769 0.33857-0.11937 0.47594 0.018315 0.13738 0.07338 0.19792 0.07338 0.19792s-0.0045113 0.229 0.077515 0.33693c0.082029 0.10793 0.18585 0.1855 0.19017 0.39274 0.00432 0.20723-0.20758 0.58749-0.40618 0.88108-0.1986 0.29357-0.038757 0.84543-0.038757 0.84543s0.0083156 0.24684 0.055811 0.38499c0.047491 0.13816 0.073747 0.51335 0.065112 0.70331-0.00863 0.18996 0.021704 0.3111 0.021704 0.3111s-0.0088752 0.61268-0.043408 1.0315c-0.015551 0.18855-0.025449 0.43083-0.032039 0.64337h1.3395c0.011728-0.28759 0.030006-0.65861 0.060978-1.0015 0.060442-0.66918 0.095085-1.3555 0.095085-1.3555s0.011093-0.01121 0.01757-0.03721c0.0064697-0.0259 0.0082682-0.05168 0.0082682-0.05168s0.060278-0.07561 0.064596-0.21807c0.00432-0.14248-0.027779-0.2286-0.042891-0.26097-0.01511-0.0324-0.041858-0.05942-0.041858-0.05942s6.71e-4 -0.58909-0.15503-0.78445c-0.1557-0.19539-0.2928-0.35988-0.41186-0.6041-0.11906-0.24423-0.17132-0.41824-0.12247-0.59531 0.048844-0.17707 0.13126-0.30541 0.13126-0.30541l0.10077-0.08837s0.11623-0.03653 0.14676-0.22892c0.030528-0.19233 0.011879-0.47302-0.18655-0.6165-0.10464-0.0757-0.28636-0.12618-0.46044-0.12764zm-0.21601 0.61495a0.013677 0.013677 0 0 1 0.013436 0.00568 0.013677 0.013677 0 0 1 5.167e-4 0.00155 0.013677 0.013677 0 0 1 0.0010336 0.00155 0.013677 0.013677 0 0 1 5.167e-4 0.00155 0.013677 0.013677 0 0 1 0 5.2e-4 0.013677 0.013677 0 0 1 0 5.1e-4 0.013677 0.013677 0 0 1 0 5.2e-4 0.013677 0.013677 0 0 1 5.168e-4 0.00155 0.013677 0.013677 0 0 1-5.168e-4 0.00259 0.013677 0.013677 0 0 1-5.167e-4 0.00155 0.013677 0.013677 0 0 1-5.168e-4 0.00155 0.013677 0.013677 0 0 1-5.168e-4 0.00155 0.013677 0.013677 0 0 0-5.167e-4 5.1e-4 0.013677 0.013677 0 0 0-5.168e-4 5.2e-4 0.013677 0.013677 0 0 1-0.0010335 0.00155 0.013677 0.013677 0 0 0-5.168e-4 5.2e-4 0.013677 0.013677 0 0 1-0.0015503 0.00103 0.013677 0.013677 0 0 0-5.168e-4 5.2e-4c-0.0053877 0.00301-0.050695 0.02739-0.099736 0.02739-0.049976 0-0.080098-0.01602-0.080098-0.01602a0.013677 0.013677 0 0 1-0.0036174-0.01757 0.013677 0.013677 0 0 1 0.01757-0.00569s0.021488 0.01137 0.066146 0.01137c0.039682 0 0.080837-0.02017 0.085783-0.02274l5.168e-4 -5.1e-4a0.013677 0.013677 0 0 1 0.0041341-0.00155zm0.43408 0.00155a0.013677 0.013677 0 0 1 0.0051677 0v5.1e-4a0.013677 0.013677 0 0 1 0.0098185 0.0062 0.013677 0.013677 0 0 1 5.168e-4 0.00155 0.013677 0.013677 0 0 0 0 5.2e-4 0.013677 0.013677 0 0 1 5.167e-4 0.00155 0.013677 0.013677 0 0 1 5.168e-4 0.00155 0.013677 0.013677 0 0 1 0 5.2e-4 0.013677 0.013677 0 0 1 0 5.1e-4 0.013677 0.013677 0 0 1 0 5.2e-4 0.013677 0.013677 0 0 1 0 5.2e-4 0.013677 0.013677 0 0 1 0 5.2e-4 0.013677 0.013677 0 0 1 0 5.1e-4 0.013677 0.013677 0 0 0-5.168e-4 5.2e-4 0.013677 0.013677 0 0 1 0 5.2e-4 0.013677 0.013677 0 0 1 0 5.1e-4 0.013677 0.013677 0 0 1 0 5.2e-4 0.013677 0.013677 0 0 1-5.167e-4 0.00155 0.013677 0.013677 0 0 0-5.168e-4 5.2e-4 0.013677 0.013677 0 0 1-5.168e-4 0.00155 0.013677 0.013677 0 0 0-5.167e-4 5.1e-4 0.013677 0.013677 0 0 0-5.168e-4 5.2e-4 0.013677 0.013677 0 0 0-5.168e-4 5.2e-4 0.013677 0.013677 0 0 0-5.167e-4 5.1e-4 0.013677 0.013677 0 0 0-5.168e-4 5.2e-4 0.013677 0.013677 0 0 0-5.168e-4 5.2e-4 0.013677 0.013677 0 0 0-5.167e-4 5.1e-4c-0.0023883 0.00135-0.013607 0.00751-0.029456 0.01189-0.018113 0.0057-0.045162 0.01189-0.081649 0.01137-0.03596-1e-3 -0.06123-0.00582-0.078548-0.00982s-0.027388-0.00827-0.027388-0.00827a0.013677 0.013677 0 0 1-0.0056844-0.01757 0.013677 0.013677 0 0 1 0.01757-0.00775s0.0062043 0.00475 0.021704 0.00775c0.0155 4e-3 0.039644 0.00754 0.073897 0.00827 0.033728 2e-4 0.05688-0.00482 0.072347-0.00982 0.015464-5e-3 0.021704-0.00827 0.021704-0.00827a0.013677 0.013677 0 0 1 0.0046509-0.00206zm-0.46354 0.40359a0.013677 0.013677 0 0 1 0.0056844 0.00103s0.031118 0.00814 0.058394 0.00414c0.01669-3e-3 0.024646-1e-3 0.029456 0 0.004811 1e-3 0.0097058 2e-3 0.031006 0 0.02344-3e-3 0.036418 6e-5 0.047026 0.00206s0.017806 0.00462 0.03514 0.00362c0.039011-3e-3 0.066663 0 0.066663 0a0.013677 0.013677 0 0 1 0.0010335 0 0.013677 0.013677 0 0 1 0.0046509 0.00155 0.013677 0.013677 0 0 1 0.0025838 0.00155 0.013677 0.013677 0 0 0 5.167e-4 5.2e-4 0.013677 0.013677 0 0 1 0.0020671 0.00207 0.013677 0.013677 0 0 1 0.0015503 0.00361 0.013677 0.013677 0 0 1 0.0010335 0.00465 0.013677 0.013677 0 0 1-0.002067 0.00724 0.013677 0.013677 0 0 1-0.0036174 0.00362 0.013677 0.013677 0 0 1-0.0098185 0.00258s-0.025986-3e-3 -0.062528 0c-0.020443 2e-3 -0.032991-0.00162-0.042891-0.00362-0.0099-0.00222-0.018462-0.00407-0.039274-0.00207-0.022952 3e-3 -0.032777 1e-3 -0.038757 0-0.005982-1e-3 -0.0050261-2e-3 -0.019637 0-0.035323 6e-3 -0.07028-0.00413-0.07028-0.00413a0.013677 0.013677 0 0 1-0.0098186-0.01757 0.013677 0.013677 0 0 1 0.011886-0.01085z"/>
  <path d="m3.7352 290.99 0.082029-4e-3 0.00504-0.1666-0.10109 4e-3z"/>
  <path d="m3.7449 290.82-0.026927-0.0861 0.1047-5e-3 -0.023745 0.12412z"/>
  <path d="m3.7423 290.73-0.024828-0.0828 0.090019-0.0121-0.022664 0.14787z"/>
  <path d="m4.4641 290.87-0.082029-4e-3 -0.00504-0.1666 0.10109 4e-3z"/>
  <path d="m4.4544 290.71 0.026927-0.086-0.1047-5e-3 0.023745 0.12412z"/>
  <path d="m4.457 290.62 0.024828-0.0828-0.090019-0.0121 0.022664 0.14787z"/>
  <path d="m3.6624 289.61s-0.00153-0.0749 0.015265-0.10536c0.016789-0.0305 0.048844-0.0549 0.048844-0.0549s-0.051897-0.0916 0.11753-0.11449c0.16943-0.0229 0.67925 0.0749 0.80136 0.18011 0.12211 0.10533 0.00305 0.15876 0.00305 0.15876s0.053425 0.087-0.090058 0.13126c-0.14348 0.0442-0.896-0.19534-0.896-0.19534z"/>
  <path d="m4.2295 288.57-0.068917 0.11647s-0.028143 9e-5 -0.045411 0.0475c-0.017263 0.0476-0.023506 0.0732-0.023506 0.0732s-0.2008-0.15507-0.26124 0.1234c-0.060443 0.27847-0.024041 0.48777-0.024041 0.48777l0.80724 0.16829s0.30002-0.0279 0.37557-0.27835c0.075554-0.2504-0.017272-0.57878-0.26552-0.61331-0.24825-0.0346-0.4899 0.4322-0.4899 0.4322s-0.0044-0.0304 0.00854-0.0972c0.012951-0.067 0.045642-0.14932 0.075862-0.22707 0.030221-0.0777-0.039-0.0903-0.039-0.0903zm0.39854 0.40495c0.071135-7e-3 0.10678 0.10406 0.11326 0.17363 0.00863 0.0929-0.016264 0.24466-0.15226 0.2479-0.136 3e-3 -0.20622-0.0582-0.20622-0.0582s0.034515-0.17223 0.16188-0.31039c0.03184-0.0346 0.059631-0.0505 0.083342-0.0529z"/>
  <rect x="3.003" y="295.99" width="2.2977" height=".8462" style="paint-order:markers stroke fill"/>
  <rect x="2.9585" y="295.85" width="2.3867" height=".0993" style="paint-order:markers stroke fill"/>
  <rect x="2.9585" y="296.88" width="2.3867" height=".0993" style="paint-order:markers stroke fill"/>
  <path d="m3.5068 295.82s-0.14106-0.0134-0.15695-0.0865c-0.015893-0.0733 0.085019-0.0698 0.085019-0.0698s-0.051697-0.041-0.017983-0.0897c0.033716-0.0486 0.11014 0.013 0.11014 0.013z"/>
  <path d="m4.8462 295.82s0.14275-0.0134 0.15864-0.0865c0.015892-0.0733-0.085019-0.0698-0.085019-0.0698s0.051697-0.041 0.017983-0.0897c-0.033716-0.0486-0.11013 0.013-0.11013 0.013z"/>
  <g stroke="#fff" stroke-linecap="round" stroke-linejoin="round" stroke-width=".026458">
   <path transform="matrix(.26458 0 0 .26458 -.72115 287.69)" d="m9.625 6.4917 0.60338 1.5299 1.5299 0.60338-1.5299 0.60338-0.60338 1.5299-0.60338-1.5299-1.5299-0.60338 1.5299-0.60338z" style="paint-order:markers stroke fill"/>
   <path transform="matrix(.17745 0 0 .17745 1.0931 288.96)" d="m9.625 6.4917 0.60338 1.5299 1.5299 0.60338-1.5299 0.60338-0.60338 1.5299-0.60338-1.5299-1.5299-0.60338 1.5299-0.60338z" style="paint-order:markers stroke fill"/>
   <path transform="matrix(.10293 0 0 .10293 1.0497 290.21)" d="m9.625 6.4917 0.60338 1.5299 1.5299 0.60338-1.5299 0.60338-0.60338 1.5299-0.60338-1.5299-1.5299-0.60338 1.5299-0.60338z" style="paint-order:markers stroke fill"/>
  </g>
 </g>
</svg>
