<?xml version="1.0" encoding="UTF-8"?>
<svg width="32" height="32" version="1.1" viewBox="0 0 8.4667 8.4667" xmlns="http://www.w3.org/2000/svg">
 <path d="m4.1274 6.5505s-0.50965-0.50272-1.6965-0.50953c-1.1869-0.00681-1.6108 0.37311-1.6108 0.37311v0.33745h6.8544v-0.33745s-0.42336-0.37992-1.6102-0.37311c-1.1869 0.00681-1.6971 0.50953-1.6971 0.50953z"/>
 <path d="m2.4309 1.4665c-1.1869-0.0068101-1.6108 0.37311-1.6108 0.37311v4.3827s0.42387-0.37992 1.6108-0.37311c1.1869 0.00681 1.6965 0.50901 1.6965 0.50901v-4.3822s-0.1949-0.19184-0.62374-0.34003v3.0872l-0.48679-0.75603-0.48731 0.63149v-3.1301c-0.032496-9.633e-4 -0.065126-0.00187-0.098702-0.00207zm3.6334 0c-1.1869 0.00681-1.6971 0.50953-1.6971 0.50953v4.3822s0.51017-0.5022 1.6971-0.50901c1.1869-0.00681 1.6102 0.37311 1.6102 0.37311v-4.3827s-0.42336-0.37992-1.6102-0.37311zm-3.8628 0.5886c0.036735-0.00116 0.06737 0.027852 0.068213 0.064596 0.00116 0.036735-0.027852 0.06737-0.064596 0.068213-0.44191 0.014717-0.9493 0.18759-0.9493 0.18759-0.034529 0.011627-0.071959-0.00686-0.083716-0.041341-0.011675-0.03438 0.00655-0.071745 0.040824-0.083716 0 0 0.51602-0.1796 0.98857-0.19534zm3.7812 0.034623c0.68545 0.00167 1.3203 0.19379 1.3203 0.19379 0.035378 0.011095 0.054729 0.049097 0.042892 0.084233-0.011118 0.034304-0.047665 0.053382-0.082166 0.042892 0 0-0.66233-0.19853-1.3457-0.18759-0.68142 0.01091-1.0645 0.25011-1.0645 0.25011-0.031327 0.019818-0.072821 0.010027-0.091984-0.021704-0.018409-0.030889-0.00877-0.070827 0.021704-0.089917 0 0 0.42054-0.2599 1.1328-0.2713 0.022197-3.554e-4 0.044551-5.706e-4 0.066663-5.167e-4zm-3.7812 0.49455c0.036735-0.00116 0.06737 0.027852 0.068213 0.064596 0.00116 0.036735-0.027852 0.06737-0.064596 0.068213-0.44191 0.014717-0.9493 0.18759-0.9493 0.18759-0.03438 0.011675-0.071745-0.00655-0.083716-0.040825-0.012012-0.034535 0.00627-0.072265 0.040824-0.084233 0 0 0.51602-0.1796 0.98857-0.19534zm3.7812 0.034623c0.68545 0.00167 1.3203 0.19379 1.3203 0.19379 0.035378 0.011095 0.054729 0.049097 0.042892 0.084233-0.011118 0.034304-0.047665 0.053382-0.082166 0.042892 0 0-0.66233-0.19853-1.3457-0.18759-0.68142 0.01091-1.0645 0.25011-1.0645 0.25011-0.031327 0.019818-0.072821 0.010027-0.091984-0.021704-0.018066-0.030776-0.00846-0.070334 0.021704-0.089401 0 0 0.42054-0.26042 1.1328-0.27182 0.022197-3.554e-4 0.044551-5.703e-4 0.066662-5.171e-4zm-3.7812 0.49455c0.036735-0.00116 0.06737 0.027852 0.068213 0.064596 0.00116 0.036735-0.027852 0.06737-0.064596 0.068213-0.44191 0.014717-0.9493 0.18759-0.9493 0.18759-0.03438 0.011675-0.071745-0.00655-0.083716-0.040825-0.012012-0.034535 0.00627-0.072265 0.040824-0.084233 0 0 0.51602-0.1796 0.98857-0.19534zm4.4995 0.034107a0.42518 0.37471 46.809 0 1 0.059428 0.0031 0.42518 0.37471 46.809 0 1 0.39946 0.44959 0.42518 0.37471 46.809 0 1-0.39946 0.34882 0.42518 0.37471 46.809 0 1-0.39894-0.4501 0.42518 0.37471 46.809 0 1 0.33952-0.3514zm-0.78497 0.00155c0.035939-2.983e-4 0.065541 0.028156 0.066663 0.064079 0.00145 0.036934-0.027643 0.067892-0.064596 0.06873-0.68142 0.01091-1.0645 0.2496-1.0645 0.2496-0.03119 0.019909-0.072647 0.01036-0.091984-0.021187-0.018409-0.030889-0.00877-0.070827 0.021704-0.089917 0-1e-7 0.42054-0.2599 1.1328-0.2713zm-3.7145 0.49403c0.036538-0.00116 0.067089 0.02754 0.068213 0.064079 0.00145 0.036934-0.027643 0.067892-0.064596 0.06873-0.44191 0.014717-0.9493 0.18707-0.9493 0.18707-0.03438 0.011675-0.071745-0.00655-0.083716-0.040825-0.011675-0.03438 0.00655-0.071745 0.040824-0.083716 0 0 0.51602-0.1796 0.98857-0.19534zm3.7145 0.03514c0.036135-2.922e-4 0.065817 0.028469 0.066663 0.064596 9.9e-6 0.035935-0.028671 0.065304-0.064596 0.066146-0.68142 0.01091-1.0645 0.25218-1.0645 0.25218-0.031327 0.019818-0.072821 0.010027-0.091984-0.021704-0.019459-0.03122-0.00971-0.072319 0.021704-0.091468 0 0 0.42054-0.25835 1.1328-0.26975zm-3.7145 0.49403c0.035959-0.00118 0.066265 0.026603 0.068213 0.062529 0.00116 0.036735-0.027852 0.06737-0.064596 0.068213-0.44191 0.014717-0.9493 0.18965-0.9493 0.18965-0.034529 0.011627-0.071959-0.00686-0.083716-0.041341-0.011675-0.03438 0.00655-0.071745 0.040824-0.083716 0 0 0.51602-0.1796 0.98857-0.19534zm3.7812 0.034107c0.68547 0.00169 1.3203 0.1943 1.3203 0.1943 0.035105 0.011104 0.054386 0.048737 0.042892 0.083716-0.011118 0.034304-0.047665 0.053382-0.082166 0.042892 0 0-0.66233-0.19853-1.3457-0.18759-0.68142 0.01091-1.0645 0.25011-1.0645 0.25011-0.03119 0.019909-0.072647 0.01036-0.091984-0.021187-0.018409-0.030889-0.00877-0.070827 0.021704-0.089917 0 0 0.42054-0.26042 1.1328-0.27182 0.022197-3.554e-4 0.044551-5.714e-4 0.066663-5.167e-4zm-3.4473 0.49454c0.022111-5.38e-5 0.043949 1.613e-4 0.066146 5.168e-4 0.71222 0.011403 1.1328 0.26975 1.1328 0.26975 0.031411 0.019149 0.041164 0.060248 0.021704 0.091468-0.019163 0.031731-0.060659 0.041522-0.091984 0.021704 0 0-0.3826-0.24127-1.064-0.25218-0.68333-0.010941-1.3462 0.18965-1.3462 0.18965-0.034946 0.00999-0.071407-0.010085-0.081649-0.044959-0.01049-0.034501 0.00859-0.071048 0.042892-0.082166 1e-7 0 0.63489-0.19212 1.3203-0.19379zm3.4473 0.03514c0.68545 0.00167 1.3203 0.19379 1.3203 0.19379 0.034304 0.011118 0.053382 0.047664 0.042892 0.082166-0.010236 0.035136-0.047056 0.055282-0.082166 0.044959 0 0-0.66233-0.20059-1.3457-0.18965-0.68142 0.01091-1.0645 0.25218-1.0645 0.25218-0.031327 0.019818-0.072821 0.010027-0.091984-0.021704-0.019459-0.03122-0.00971-0.072319 0.021704-0.091468 0 0 0.42054-0.25835 1.1328-0.26975 0.022197-3.554e-4 0.044551-5.703e-4 0.066662-5.171e-4zm-3.4473 0.49455c0.022111-5.38e-5 0.043949-3.554e-4 0.066146 0 0.71222 0.011404 1.1328 0.26975 1.1328 0.26975 0.031731 0.019163 0.041522 0.060658 0.021704 0.091984-0.019338 0.031548-0.060795 0.041097-0.091984 0.021187 0 0-0.3826-0.24076-1.064-0.25167-0.68333-0.01094-1.3462 0.18914-1.3462 0.18914-0.034946 0.00999-0.071407-0.010085-0.081649-0.044959-0.010163-0.03434 0.00885-0.070531 0.042892-0.081649 1e-7 0 0.63489-0.19212 1.3203-0.19379zm3.4473 0.034623c0.68547 0.00169 1.3203 0.1943 1.3203 0.1943 0.034043 0.011118 0.053055 0.047309 0.042892 0.081649-0.010236 0.035136-0.047056 0.055283-0.082166 0.044959 0 0-0.66233-0.20008-1.3457-0.18914-0.68142 0.01091-1.0645 0.25167-1.0645 0.25167-0.03119 0.019909-0.072647 0.010359-0.091984-0.021187-0.019818-0.031327-0.010027-0.072821 0.021704-0.091984 0 0 0.42054-0.25835 1.1328-0.26975 0.022197-3.554e-4 0.044551-5.714e-4 0.066663-5.168e-4z"/>
</svg>
