<?xml version="1.0" encoding="UTF-8"?>
<svg width="32" height="32" version="1.1" viewBox="0 0 8.4667 8.4667" xmlns="http://www.w3.org/2000/svg">
 <g transform="matrix(-1 0 0 1 3.9955 .017765)">
  <path d="m3.7797 6.118c1e-7 0.94085-0.82484 1.7036-1.8423 1.7036-1.0175 0-1.8423-0.76271-1.8423-1.7036 0-0.71378 0.47473-1.325 1.1482-1.5785 0.21424-0.080638 0.43431 0.15887 0.67988 0.15887 0.18238 0 0.37286-0.25943 0.53923-0.21378 0.76175 0.209 1.3174 0.86121 1.3174 1.6334z" stroke-linecap="round" stroke-linejoin="round" stroke-width=".13229"/>
  <path d="m1.9108 4.3388s-0.010498-0.24056 0.2398-0.61655c0.05764-0.086586 0.16487-0.21283 0.16487-0.21283" fill="none" stroke="#000" stroke-linecap="round" stroke-width=".39688"/>
  <path d="m2.047 4.0479s-0.03217-0.42002-0.40216-0.71647c-0.36999-0.29645-0.78766-0.25075-0.78766-0.25075s-0.09337 0.37872 0.30458 0.74657c0.39795 0.36785 0.88525 0.22065 0.88525 0.22065z"/>
 </g>
 <g transform="rotate(-15.526 2.6601 5.5886)">
  <path d="m4.6595 0.81707c0.58368-0.093775 0.90463 0.27036 0.90463 0.27036l-2.4873 1.7797s-0.19345-0.51157 0.22456-1.1215"/>
  <path d="m4.006 1.3909-0.75424-1.0705" fill="none" stroke="#000" stroke-width=".6818"/>
  <path d="m4.9237 1.5448s0.71473 0.093052 0.75229 1.401c0.037568 1.3079 1.3968 0.72318 1.4158 2.0686 0.019014 1.3454 1.2932 1.6383 1.2932 1.6383s-1.925-0.14404-2.0802-1.126c-0.15527-0.98199-1.4144-0.56708-1.4937-1.7564-0.079246-1.1893-1.2729-1.2891-1.2729-1.2891"/>
 </g>
 <path d="m7.7138 5.8506s-0.79691 1.2498-0.060428 1.3076c0.73648 0.057817 0.060428-1.3076 0.060428-1.3076z"/>
</svg>
