<?xml version="1.0" encoding="UTF-8"?>
<svg width="32" height="32" version="1.1" viewBox="0 0 8.4667 8.4667" xml:space="preserve" xmlns="http://www.w3.org/2000/svg"><g transform="rotate(240 4.3856 4.1162)" stroke-linecap="round"><path d="m2.8383 4.8158-0.62477 1.0728s-0.083592 0.12207-0.00723 0.2341c0.049335 0.072375 0.10336 0.10623 0.13539 0.12144h0.89076c0.11459 0 0.20671-0.09212 0.20671-0.20671v-1.0149c0-0.11459-0.09212-0.20671-0.20671-0.20671z" stroke-width=".13229"/><path transform="rotate(-60)" d="m-1.9402 3.4008c-0.036199-0.059698-0.10164-0.099589-0.17684-0.099589l-1.4637 1.075e-4c-0.046551 0-0.089228 0.015235-0.12372 0.040996-5.664e-4 4.231e-4 -9.698e-4 0.00105-0.00153 0.00148-0.026025 0.017214-0.048548 0.040687-0.064555 0.07009l-0.63851 1.173c-0.054788 0.10064-0.028494 0.2175 0.025425 0.31172l0.080357 0.13918c-0.00324-0.034595-0.00193-0.10006 0.037266-0.18143 0.058837-0.12214 0.20635-0.11078 0.20635-0.11078l1.2416 0.00489 0.70113 0.00723c0.11459 0 0.20663-0.09183 0.20663-0.20642l-9.32e-5 -1.043c0-0.039389-0.010874-0.076217-0.029835-0.10749z" stroke-width=".13229"/><path d="m1.3164 3.0903 1.9329-0.47443 0.44069 1.8911z" stroke="#000" stroke-linejoin="round" stroke-width=".33073"/></g><g transform="rotate(120 4.1867 4.0334)" stroke-linecap="round"><path d="m2.8383 4.8158-0.62477 1.0728s-0.083592 0.12207-0.00723 0.2341c0.049335 0.072375 0.10336 0.10623 0.13539 0.12144h0.89076c0.11459 0 0.20671-0.09212 0.20671-0.20671v-1.0149c0-0.11459-0.09212-0.20671-0.20671-0.20671z" stroke-width=".13229"/><path transform="rotate(-60)" d="m-1.9402 3.4008c-0.036199-0.059698-0.10164-0.099589-0.17684-0.099589l-1.4637 1.075e-4c-0.046551 0-0.089228 0.015235-0.12372 0.040996-5.664e-4 4.231e-4 -9.698e-4 0.00105-0.00153 0.00148-0.026025 0.017214-0.048548 0.040687-0.064555 0.07009l-0.63851 1.173c-0.054788 0.10064-0.028494 0.2175 0.025425 0.31172l0.080357 0.13918c-0.00324-0.034595-0.00193-0.10006 0.037266-0.18143 0.058837-0.12214 0.20635-0.11078 0.20635-0.11078l1.2416 0.00489 0.70113 0.00723c0.11459 0 0.20663-0.09183 0.20663-0.20642l-9.32e-5 -1.043c0-0.039389-0.010874-0.076217-0.029835-0.10749z" stroke-width=".13229"/><path d="m1.3164 3.0903 1.9329-0.47443 0.44069 1.8911z" stroke="#000" stroke-linejoin="round" stroke-width=".33073"/></g><g transform="translate(-.18091 .33388)" stroke-linecap="round"><path d="m2.8383 4.8158-0.62477 1.0728s-0.083592 0.12207-0.00723 0.2341c0.049335 0.072375 0.10336 0.10623 0.13539 0.12144h0.89076c0.11459 0 0.20671-0.09212 0.20671-0.20671v-1.0149c0-0.11459-0.09212-0.20671-0.20671-0.20671z" stroke-width=".13229"/><path transform="rotate(-60)" d="m-1.9402 3.4008c-0.036199-0.059698-0.10164-0.099589-0.17684-0.099589l-1.4637 1.075e-4c-0.046551 0-0.089228 0.015235-0.12372 0.040996-5.664e-4 4.231e-4 -9.698e-4 0.00105-0.00153 0.00148-0.026025 0.017214-0.048548 0.040687-0.064555 0.07009l-0.63851 1.173c-0.054788 0.10064-0.028494 0.2175 0.025425 0.31172l0.080357 0.13918c-0.00324-0.034595-0.00193-0.10006 0.037266-0.18143 0.058837-0.12214 0.20635-0.11078 0.20635-0.11078l1.2416 0.00489 0.70113 0.00723c0.11459 0 0.20663-0.09183 0.20663-0.20642l-9.32e-5 -1.043c0-0.039389-0.010874-0.076217-0.029835-0.10749z" stroke-width=".13229"/><path d="m1.3164 3.0903 1.9329-0.47443 0.44069 1.8911z" stroke="#000" stroke-linejoin="round" stroke-width=".33073"/></g></svg>
