<?xml version="1.0" encoding="UTF-8"?>
<svg width="32" height="32" version="1.1" viewBox="0 0 8.4667 8.4667" xmlns="http://www.w3.org/2000/svg">
 <g stroke="none">
  <path d="m4.1114 8.338s0.083132-1.016-0.072672-1.5045c-0.1558-0.48853 0.066367-1.2336-0.13229-1.6035-0.19865-0.36993-1.0131-0.87745-0.79346-2.0166 0.21961-1.1392 1.6661-0.91848 2.0894-0.36255s0.31229 1.4282-0.12674 1.6803c-0.43903 0.25206-0.49245-0.26092-0.19762-0.48945 0.29482-0.22853 0.11498-1.1861-0.66302-1.13-0.778 0.056089-0.9036 1.0556-0.3374 1.5778 0.54023 0.49826 0.63455 1.0653 0.56466 1.7346-0.069892 0.66932 0.15192 1.0182 0.14268 1.4025-0.00924 0.38426 0.00952 0.71454 0.00952 0.71454z"/>
  <path d="m2.8383 3.0092s-1.162-1.0295-1.3743-0.89897c-0.21227 0.13054-1.4191 0.10759-1.4191 0.10759s1.0883-0.29796 0.96466-0.7733c-0.12356-0.47536-0.87994-1.3942-0.87994-1.3942l0.46807 0.12547 0.74241 0.80502 0.55144-0.95637 0.043282 0.58073-0.38256 0.82579s0.75027 0.82513 1.1559 0.93574c0.4056 0.11062 0.31448-0.83245 0.31448-0.83245l0.30493 0.82516-0.29898 0.3189"/>
  <path d="m5.5993 3.0648s1.1732-1.0166 1.384-0.88384c0.21082 0.13287 1.4178 0.12315 1.4178 0.12315s-1.085-0.30988-0.95611-0.78384c0.12877-0.47398 0.89519-1.3845 0.89519-1.3845l-0.3865 0.047954-0.74399 0.95931-0.63105-1.0525-0.049652 0.58022 0.41019 0.89099s-0.7628 0.70464-1.1696 0.81079c-0.40679 0.10617-0.33852-0.78471-0.33852-0.78471l-0.31397 0.82176 0.29546 0.32216"/>
 </g>
</svg>
