<?xml version="1.0" encoding="UTF-8"?>
<svg width="32" height="32" version="1.1" viewBox="0 0 8.4667 8.4667" xmlns="http://www.w3.org/2000/svg">
 <g>
  <path d="m5.0622 4.8007-4.9873 0.041858 1.8325 2.5368 5.1026-0.03359zm-4.4938 0.34365h4.6483v0.26355h-4.6483zm0.40825 0.51367h4.6483v0.26355h-4.6483zm0.39636 0.5333h4.6483v0.26355h-4.6483zm0.42168 0.55242h4.6488v0.26562h-4.6488z"/>
  <path d="m6.9701 3.8705-0.24081 0.00207a0.15566 0.15566 0 0 1 0.018087 0.073378 0.15566 0.15566 0 0 1-0.15555 0.15555 0.15566 0.15566 0 0 1-0.15555-0.15555 0.15566 0.15566 0 0 1 0.01757-0.070797l-0.18862 0.00155a0.15566 0.15566 0 0 1 0.01602 0.069247 0.15566 0.15566 0 0 1-0.15555 0.15555 0.15566 0.15566 0 0 1-0.15606-0.15555 0.15566 0.15566 0 0 1 0.015503-0.06718l-0.1757 0.00155a0.15566 0.15566 0 0 1 0.019637 0.074414 0.15566 0.15566 0 0 1-0.15606 0.15555 0.15566 0.15566 0 0 1-0.15555-0.15555 0.15566 0.15566 0 0 1 0.018087-0.07183l-0.32815 0.0025839 0.74518 1.0325 2.0769-0.013953-0.21653-0.28267a0.15566 0.15566 0 0 1-0.15503 0.13953 0.15566 0.15566 0 0 1-0.15555-0.15606 0.15566 0.15566 0 0 1 0.15555-0.15555 0.15566 0.15566 0 0 1 0.024805 0.00207l-0.13694-0.1788a0.15566 0.15566 0 0 1 0.00362 0.029972 0.15566 0.15566 0 0 1-0.15555 0.15555 0.15566 0.15566 0 0 1-0.15555-0.15555 0.15566 0.15566 0 0 1 0.15555-0.15555 0.15566 0.15566 0 0 1 0.06873 0.016536l-0.20877-0.27234a0.15566 0.15566 0 0 1 0.0093 0.053227 0.15566 0.15566 0 0 1-0.15554 0.15555 0.15566 0.15566 0 0 1-0.15555-0.15555 0.15566 0.15566 0 0 1 0.018087-0.073898zm-0.60772 0.27492a0.15566 0.15566 0 0 1 0.15555 0.15555 0.15566 0.15566 0 0 1-0.15555 0.15555 0.15566 0.15566 0 0 1-0.15555-0.15555 0.15566 0.15566 0 0 1 0.15555-0.15555zm0.4961 0.011886a0.15566 0.15566 0 0 1 0.15555 0.15555 0.15566 0.15566 0 0 1-0.15555 0.15606 0.15566 0.15566 0 0 1-0.15606-0.15606 0.15566 0.15566 0 0 1 0.15606-0.15555zm-0.98444 0.018603a0.15566 0.15566 0 0 1 0.15555 0.15555 0.15566 0.15566 0 0 1-0.15555 0.15555 0.15566 0.15566 0 0 1-0.15555-0.15555 0.15566 0.15566 0 0 1 0.15555-0.15555zm1.2795 0.29817a0.15566 0.15566 0 0 1 0.15555 0.15606 0.15566 0.15566 0 0 1-0.15555 0.15555 0.15566 0.15566 0 0 1-0.15555-0.15555 0.15566 0.15566 0 0 1 0.15555-0.15606zm-0.52038 0.012402a0.15566 0.15566 0 0 1 0.15606 0.15555 0.15566 0.15566 0 0 1-0.15606 0.15555 0.15566 0.15566 0 0 1-0.15555-0.15555 0.15566 0.15566 0 0 1 0.15555-0.15555zm-0.47026 0.010852a0.15566 0.15566 0 0 1 0.15555 0.15555 0.15566 0.15566 0 0 1-0.15555 0.15555 0.15566 0.15566 0 0 1-0.15555-0.15555 0.15566 0.15566 0 0 1 0.15555-0.15555z"/>
  <path d="m6.4932 0.69807-4.9873 0.041858 1.8319 2.5368 5.1026-0.03359zm-4.5067 0.34675h4.6483v0.26355h-4.6483zm0.40825 0.51367h4.6504v0.26355h-4.6504zm0.39636 0.53279h4.6483v0.26562h-4.6483zm0.42375 0.55501h4.6483v0.26355h-4.6483z"/>
  <g transform="translate(0 .6774)">
   <path d="m0.6418 2.7835s0.13874-0.51476 0.50829-0.50947 0.4525 0.55 0.4525 0.55-0.05821 0.1575-0.47237 0.14512-0.48842-0.18565-0.48842-0.18565z"/>
   <path d="m1.2675 3.0666s0.092001-0.34134 0.33705-0.33784c0.24505 0.00351 0.30006 0.36471 0.30006 0.36471s-0.0386 0.10444-0.31323 0.096234c-0.27463-0.0082092-0.32388-0.12311-0.32388-0.12311z"/>
   <path d="m0.4326 1.6337s0.092001-0.34134 0.33705-0.33784c0.24505 0.00351 0.30006 0.36471 0.30006 0.36471s-0.0386 0.10444-0.31323 0.096234c-0.27463-0.00821-0.32388-0.12311-0.32388-0.12311z"/>
   <path d="m1.0883 1.3539s0.057083-0.21179 0.20913-0.20962c0.15205 0.00218 0.18617 0.22629 0.18617 0.22629s-0.02395 0.064802-0.19435 0.059709c-0.1704-0.00509-0.20095-0.076384-0.20095-0.076384z"/>
   <path d="m0.38279 3.4198s0.057083-0.21179 0.20913-0.20962c0.15205 0.00218 0.18617 0.22629 0.18617 0.22629s-0.02395 0.064802-0.19435 0.059709c-0.1704-0.00509-0.20095-0.076384-0.20095-0.076384z"/>
   <path d="m2.5509 3.01s0.057083-0.21179 0.20913-0.20962c0.15205 0.00218 0.18617 0.22629 0.18617 0.22629s-0.02395 0.064802-0.19435 0.059709c-0.1704-0.00509-0.20095-0.076384-0.20095-0.076384z"/>
   <path d="m3.7801 3.4027s0.057083-0.21179 0.20913-0.20962c0.15205 0.00218 0.18617 0.22629 0.18617 0.22629s-0.02395 0.064802-0.19435 0.059709c-0.1704-0.00509-0.20095-0.076384-0.20095-0.076384z"/>
  </g>
 </g>
</svg>
