<?xml version="1.0" encoding="UTF-8"?>
<svg width="32" height="32" version="1.1" viewBox="0 0 8.4667 8.4667" xmlns="http://www.w3.org/2000/svg">
 <g fill="none" stroke="#000">
  <circle cx="4.1426" cy="16.644" r="10.112" stroke-linecap="round" stroke-width=".26458"/>
  <g stroke-width=".26458px">
   <path d="m1.1707 7.0404-0.89309-2.8043 0.82724-0.31751 0.85001 2.8147"/>
   <path d="m5.3323 6.5825 2.0721-2.4541 0.72436 3.2072"/>
   <path d="m0.41615 4.1946-0.18224-0.60325 0.47863-0.18304 0.19831 0.59349"/>
  </g>
  <path d="m2.3311 6.6674s-0.11561-0.47396 0.1513-0.52264c0.26692-0.048686 1.116-0.14174 1.116-0.14174s-0.042796-0.52231-0.28214-0.48381c-0.23935 0.038508-0.2825-0.10801-0.22975-0.34376 0.052741-0.23575 0.4186-0.1884 0.38778-0.37437-0.030819-0.18597 0.14954 0.25985 0.38152 0.25311 0.23199-0.0067436 0.98946-0.0021854 1.0741 0.27848 0.084553 0.28066 0.119 1.2629 0.119 1.2629" stroke-width=".26458px"/>
  <path d="m3.5984 6.0029 1.3634 0.025581" stroke-width=".26458px"/>
 </g>
 <path d="m4.0721 0a1.3095 1.3095 0 0 0-1.3095 1.3095 1.3095 1.3095 0 0 0 0.30644 0.84078h-0.0010335s1.0041 1.1427 1.0041 2.0562c0-0.83994 0.84667-1.8714 0.98341-2.0324a1.3095 1.3095 0 0 0 0.0067179-0.0077515c0.0016508-0.0019334 0.0027833-0.0030779 0.0041342-0.0046509a1.3095 1.3095 0 0 0 0.0098185-0.011369 1.3095 1.3095 0 0 0 0.30541-0.84078 1.3095 1.3095 0 0 0-1.3095-1.3095zm0 0.6997a0.60989 0.60989 0 0 1 0.60978 0.60978 0.60989 0.60989 0 0 1-0.60978 0.60978 0.60989 0.60989 0 0 1-0.6103-0.60978 0.60989 0.60989 0 0 1 0.6103-0.60978z" style="paint-order:markers stroke fill"/>
 <g fill="none" stroke="#000">
  <path d="m7.4044 4.1285-0.073971 2.9191" stroke-width=".26458px"/>
  <path d="m6.849 4.7863 0.53299 0.22653 0.25284 0.00638" stroke-width=".26458px"/>
  <g>
   <g stroke-width=".39688">
    <path d="m0.54777 5.067 0.6414-0.88482"/>
    <path d="m0.81123 5.9234 0.6414-0.88482"/>
    <path d="m1.0805 6.7969 0.6414-0.88482"/>
   </g>
   <g stroke-linecap="round" stroke-width=".13229">
    <path d="m0.96494 3.4322 0.58217-0.42356"/>
    <path d="m1.377 3.4416 0.65767-0.19617"/>
    <path d="m1.3283 3.7077 0.51203-0.010831"/>
   </g>
  </g>
 </g>
</svg>
