<?xml version="1.0" encoding="UTF-8"?>
<svg width="32" height="32" version="1.1" viewBox="0 0 8.4667 8.4667" xmlns="http://www.w3.org/2000/svg">
 <path d="m2.1321 3.1566-0.7085 0.56054v0.85891h0.10348v2.1214h1.2384v-0.10831h0.81338v-0.55087c0-0.34726 0.27512-0.62808 0.62021-0.63676 0.00547-1.378e-4 0.011044 0 0.016557 0 0.35276 0 0.63676 0.28399 0.63676 0.63676v0.55087h0.82062v0.10831h1.2384v-2.1214h0.1397v-0.85787l0.00449-0.00138-0.7775-0.56019-0.7085 0.56054v0.67367h-2.6644v-0.67264l0.00483-0.00138zm0.34839 0.71748h0.28492v0.51673h-0.28492zm4.1459 0h0.28492v0.51673h-0.28492zm-5.0461 0.0031h0.28492v0.51673h-0.28492zm4.1459 0h0.28492v0.51673h-0.28492zm-3.6957 3.443e-4h0.28492v0.51638h-0.28492zm4.1459 0h0.28492v0.51638h-0.28492z" stroke-width=".56208"/>
 <g stroke-linecap="round">
  <path d="m1.2026 0.83022 0.18654 0.71106 0.44169 0.18654-0.44169 0.18654-0.18654 0.71106-0.18654-0.71106-0.44169-0.18654 0.44169-0.18654z" stroke-width=".092604"/>
  <path d="m7.8146 1.8519 0.18654 0.71106 0.44169 0.18654-0.44169 0.18654-0.18654 0.71106-0.18654-0.71106-0.44169-0.18654 0.44169-0.18654z" stroke-width=".092604"/>
  <g stroke-width=".092604">
   <path d="m3.6258 0.049155 0.1195 0.45554 0.28297 0.1195-0.28297 0.1195-0.1195 0.45554-0.1195-0.45554-0.28297-0.1195 0.28297-0.1195z"/>
   <path d="m2.2877 1.5841 0.1195 0.45554 0.28297 0.1195-0.28297 0.1195-0.1195 0.45554-0.1195-0.45554-0.28297-0.1195 0.28297-0.1195z"/>
   <path d="m0.40247 2.8246 0.1195 0.45554 0.28297 0.1195-0.28297 0.1195-0.1195 0.45554-0.1195-0.45554-0.28297-0.1195 0.28297-0.1195z"/>
   <path d="m6.9146 0.5521 0.1195 0.45554 0.28297 0.1195-0.28297 0.1195-0.1195 0.45554-0.1195-0.45554-0.28297-0.1195 0.28297-0.1195z"/>
  </g>
  <path d="m5.2876 0 0.31634 1.2058 0.74904 0.31634-0.74904 0.31634-0.31634 1.2058-0.31634-1.2058-0.74904-0.31634 0.74904-0.31634z" stroke-width=".092604"/>
 </g>
</svg>
