<?xml version="1.0" encoding="UTF-8"?>
<svg width="32" height="32" version="1.1" viewBox="0 0 8.4667 8.4667" xml:space="preserve" xmlns="http://www.w3.org/2000/svg"><g><g stroke-linecap="round" stroke-linejoin="round"><ellipse transform="matrix(.37629 .9265 -.99121 .1323 0 0)" cx="5.1399" cy=".016977" rx=".16059" ry=".36277" stroke-dasharray="0.164165, 0.492494" stroke-width=".16416"/><ellipse transform="matrix(.84043 .54192 -.89096 .45409 0 0)" cx="5.3576" cy="3.3039" rx=".20684" ry=".30406" stroke-dasharray="0.170571, 0.511711" stroke-width=".17057"/><ellipse transform="matrix(.90248 .43074 -.82363 .56712 0 0)" cx="4.6766" cy="4.0412" rx=".19586" ry=".24754" stroke-dasharray="0.149759, 0.449278" stroke-width=".14976"/><ellipse transform="matrix(-.018884 -.99982 -.99998 .006207 0 0)" cx="-5.1525" cy="-1.6279" rx=".13609" ry=".32883" stroke-dasharray="0.14388, 0.431639" stroke-width=".14388"/></g><path d="m0.46166 5.177c0.025832 0.12089 0.22817 0.24174 0.49126 0.15871 0.26308-0.083024 0.21849-0.23643 0.36636-0.38696 0.14787-0.15053 0.054324-0.25566 0.054324-0.25566s-0.11019-0.099689-0.41148-0.10339c-0.30129-0.0037-0.50888-0.10382-0.76749-0.016303-0.25861 0.087519-0.18022 0.24889-0.011893 0.3232 0.16833 0.074305 0.20276 0.11951 0.20276 0.11951s0.050332 0.040004 0.076164 0.16089z"/><g stroke-linecap="round" stroke-linejoin="round"><ellipse transform="matrix(-.87688 -.48071 -.85769 .51417 0 0)" cx="-7.2308" cy="2.6541" rx=".23573" ry=".3193" stroke-dasharray="0.1866, 0.559802" stroke-width=".1866"/><ellipse transform="matrix(-.48749 -.87313 -.98358 .18047 0 0)" cx="-6.2835" cy="-1.4136" rx=".17559" ry=".37671" stroke-dasharray="0.174929, 0.52479" stroke-width=".17493"/><ellipse transform="matrix(-.27095 -.96259 -.99575 .092113 0 0)" cx="-6.1141" cy="-2.6079" rx=".14513" ry=".33907" stroke-dasharray="0.15088, 0.45264" stroke-width=".15088"/><ellipse transform="matrix(.94455 .32836 -.72669 .68697 0 0)" cx="6.4783" cy="3.8032" rx=".23061" ry=".25184" stroke-dasharray="0.163911, 0.491734" stroke-width=".16391"/></g><path d="m2.5897 5.3804c-0.18066-0.07975-0.2648-0.25295 0.012764-0.34688 0.27756-0.093932 0.50037 0.013526 0.82373 0.017498 0.32336 0.00396 0.44163 0.11096 0.44163 0.11096s0.1004 0.11283-0.058306 0.27439c-0.1587 0.16156-0.11084 0.32621-0.3932 0.41531-0.28236 0.089106-0.49953-0.040598-0.52725-0.17034-0.027724-0.12975-0.081745-0.17268-0.081745-0.17268s-0.036949-0.048516-0.21761-0.12827z"/><g stroke-linecap="round" stroke-linejoin="round"><ellipse transform="matrix(.49666 .86794 -.96466 .26351 0 0)" cx="4.6187" cy="-3.3033" rx=".16059" ry=".36277" stroke-dasharray="0.164165, 0.492494" stroke-width=".16416"/><ellipse transform="matrix(.90528 .42481 -.82232 .56902 0 0)" cx="6.0328" cy=".46712" rx=".20684" ry=".30406" stroke-dasharray="0.170571, 0.511711" stroke-width=".17057"/><ellipse transform="matrix(.95192 .30634 -.74051 .67205 0 0)" cx="5.8255" cy="1.5424" rx=".19586" ry=".24754" stroke-dasharray="0.149759, 0.449278" stroke-width=".14976"/><ellipse transform="matrix(-.15226 -.98834 -.99019 .13972 0 0)" cx="-4.2495" cy="-4.7399" rx=".13609" ry=".32883" stroke-dasharray="0.14388, 0.431639" stroke-width=".14388"/></g><path d="m4.093 3.7417c0.041747 0.11635 0.25842 0.2091 0.50805 0.091677 0.24964-0.11742 0.18495-0.2635 0.31139-0.43243 0.12644-0.16893 0.01969-0.26062 0.01969-0.26062s-0.12252-0.084078-0.4216-0.047503c-0.29908 0.036575-0.51819-0.034921-0.76279 0.086355-0.2446 0.12128-0.14537 0.27073 0.031382 0.32189 0.17675 0.051156 0.2169 0.091357 0.2169 0.091357s0.055224 0.032923 0.096972 0.14928z"/><g stroke-linecap="round" stroke-linejoin="round"><ellipse transform="matrix(-.93323 -.35928 -.78133 .62412 0 0)" cx="-8.158" cy="-.0063976" rx=".23573" ry=".3193" stroke-dasharray="0.1866, 0.559802" stroke-width=".1866"/><ellipse transform="matrix(-.59975 -.80019 -.95066 .31023 0 0)" cx="-5.9154" cy="-4.7426" rx=".17559" ry=".37671" stroke-dasharray="0.174929, 0.52479" stroke-width=".17493"/><ellipse transform="matrix(-.3971 -.91778 -.97452 .22429 0 0)" cx="-5.4702" cy="-5.8912" rx=".14513" ry=".33907" stroke-dasharray="0.15088, 0.45264" stroke-width=".15088"/><ellipse transform="matrix(.97995 .19926 -.62842 .77787 0 0)" cx="8.1189" cy="1.6766" rx=".23061" ry=".25184" stroke-dasharray="0.163911, 0.491734" stroke-width=".16391"/></g><path d="m6.2291 3.6589c-0.1897-0.054905-0.29621-0.21531-0.033682-0.34547 0.26253-0.13016 0.49769-0.053427 0.81869-0.092682 0.32099-0.039266 0.45249 0.050984 0.45249 0.050984s0.11457 0.098411-0.021134 0.27972c-0.1357 0.18131-0.066281 0.33809-0.33421 0.46411-0.26793 0.12602-0.50047 0.026486-0.54528-0.098395-0.044806-0.12488-0.10408-0.16022-0.10408-0.16022s-0.043098-0.043146-0.2328-0.098051z"/></g></svg>
