<?xml version="1.0" encoding="UTF-8"?>
<svg width="32" height="32" version="1.1" viewBox="0 0 8.4667 8.4667" xmlns="http://www.w3.org/2000/svg">
 <g transform="translate(0 -288.53)">
  <g>
   <path d="m4.7106 290.98s-0.31738-0.28397 1.1693-0.88532c1.4867-0.60136 1.6203-0.28397 1.6203-0.28397l-0.28397 1.7205z" fill="#292929"/>
   <path d="m1.3196 294.51s0.18375-0.11693 1.5869-0.45102c1.4032-0.33409 2.1549 0.28397 2.9233-0.66817s-1.1192-2.4054-1.1192-2.4054 0.48443 0.0835 1.5535-0.31737c1.0691-0.40091 1.2361-0.85192 1.2361-0.85192s1.2194 3.2072-0.45102 4.6104-3.249 0.13364-4.2596 0.25057c-1.0106 0.11692-1.3029 0.30067-1.3029 0.30067l-0.3804-0.0608z" fill="#5f5f5f"/>
   <path d="m1.3196 294.51-0.93544 0.4009 0.16704 0.41761 0.93544-0.35079z" fill="#dcb11d"/>
  </g>
  <path d="m5.3203 291.28s0.15034 0.0503 1.0941-0.27563c0.9438-0.32591 1.1944-0.70993 1.1944-0.70993" fill="none" stroke="#dcb11d" stroke-dasharray="0.264583, 0.264583" stroke-width=".26458"/>
  <circle cx="3.1989" cy="294.9" r=".25892" fill="none" stroke="#292929" stroke-linecap="round" stroke-linejoin="round" stroke-width=".26458" style="paint-order:markers fill stroke"/>
  <path d="m5.9877 292.66c0.015597 0.0816 0.023697 0.18293 0.023697 0.18293s0.11698 0.0266 0.9651-0.0515c0.84811-0.0781 0.92649-0.11314 0.92649-0.11314s0.00566-0.0324 0.015601-0.17308c0.00994-0.14073 0.011982-0.20829 0.011982-0.20829s-0.084299 0.0757-0.96866 0.17049c-0.88436 0.0948-1.0121 0.0556-1.0121 0.0556 0 0 0.022345 0.0554 0.037933 0.137z" fill="#dcb11d"/>
  <path d="m5.9124 293.27s0.12246 0.0368 0.97416 0.0335c0.85169-3e-3 0.89564-0.0241 0.89564-0.0241s0.01675-0.0338 0.048319-0.17104 0.041607-0.20643 0.041607-0.20643-0.049285 0.0732-0.93855 0.0899c-0.88927 0.0167-0.92797-2e-3 -0.92797-2e-3 0 0-0.00539 0.0605-0.032104 0.14319-0.026714 0.0827-0.061098 0.13713-0.061098 0.13713z" fill="#dcb11d"/>
  <path d="m1.3196 294.51 0.16704 0.46772s0.55557 0.18795 0.41501 0.29543c-0.14056 0.10749-0.26458 0.60358 0.04961 0.56224 0.31419-0.0413 0.47129 0.20671 0.47129 0.20671" fill="none" stroke="#f90000" stroke-width=".26458px"/>
  <path d="m1.4867 294.98s-0.031479 0.29544 0.12562 0.38639c0.1571 0.091 0.44648-0.0579 0.61185 0.0248s0.41341 0.11576 0.41341 0.11576" fill="none" stroke="#f90000" stroke-width=".26458px"/>
 </g>
</svg>
