<?xml version="1.0" encoding="UTF-8"?>
<svg width="32" height="32" version="1.1" viewBox="0 0 8.4667 8.4667" xmlns="http://www.w3.org/2000/svg">
 <g transform="translate(0 -288.53)">
  <g>
   <path d="m4.7491 295.93c-1.3698 0.51783-2.7279-0.50114-2.778-1.7373s0.53454-2.5558 2.205-3.1738c1.6704-0.61806 2.1549-1.2027 2.1549-1.2027l0.85192 2.2384s-1.4032-0.10023-2.9567 0.33408c-1.5535 0.43432-1.4199 1.5034-1.3029 2.0379 0.11693 0.53454 0.73499 0.81852 1.2111 0.85193" fill="#6e4922"/>
   <path d="m4.1343 295.28c0.47607 0.0334 1.1459-0.3842 1.1208-1.2779-0.025056-0.89368-0.48603-1.2528-0.85353-1.4199-0.3675-0.16704-0.9605-0.13075-0.9605-0.13075l-0.33409-0.30903 0.36749-0.284s1.2078-0.13649 2.0096 0.71543c0.80181 0.85192 0.63476 2.8397-0.73499 3.3576" fill="#8f5f2c"/>
   <path d="m0.8947 291.65s-0.21817 0.0408-0.19311 0.50011c0.025057 0.45935 0.23386 0.52619 0.23386 0.52619l0.14199-0.22551h2.3637s-0.04176-0.14198-0.033409-0.28397c0.00835-0.14199 0.066817-0.30904 0.066817-0.30904h-2.4138z" fill="#b39d37"/>
   <path d="m6.7486 289.31s0.29233 0.26727 0.60136 1.4366c0.30903 1.1693 0.46772 1.4282 0.29233 1.6203-0.1754 0.1921-0.21409 0.6929-0.53859 0.2088-0.39231-0.58525-1.0999-2.0161-1.1318-3.2323-0.00835-0.54289 0.18375-0.24221 0.3675-0.15869 0.18375 0.0835 0.40926 0.12528 0.40926 0.12528z" fill="#8f5f2c"/>
   <path d="m7.7111 292.22s-0.21089-0.11693-0.64521-1.2194-0.31738-1.6871-0.31738-1.6871 0.34244 0.32574 0.69323 1.4449c0.35079 1.1192 0.26936 1.4616 0.26936 1.4616z" fill="#6e4922"/>
   <path d="m2.798 295.81s-0.058465-0.35079 0.09605-0.63059c0.15452-0.27979 0.45102-0.27979 0.48025-0.25056 0.029232 0.0292 0.18792 0.27562 0.52201 0.28815 0.33409 0.0125 0.4886 0 0.4886 0s0.19628-0.096 0.25892-0.17957c0.062641-0.0835 0.13363-0.12737 0.21089-0.13573 0.077257-8e-3 0.10023 0.0272 0.10023 0.0272l-0.12946 0.14407s0.018793 0.2443 0.16078 0.40717c0.14199 0.16287 0.20672 0.15452 0.26101 0.14825 0.054289-6e-3 0.12946-0.13363 0.12946-0.13363s0.098138 0.11693-0.13572 0.34452c-0.23386 0.2276-0.63059 0.50531-1.399 0.50114-0.7684-4e-3 -1.044-0.53037-1.044-0.53037z" fill="#d12c2c"/>
  </g>
  <g fill="none" stroke-linecap="round">
   <path d="m1.0607 291.89s-0.050821 0.11752-0.047868 0.26301c0.00295 0.1455 0.064572 0.27408 0.064572 0.27408" stroke="#94822d" stroke-width=".062606"/>
   <g stroke="#9c2121" stroke-width=".13229">
    <path d="m3.4406 295.08s-0.27907 0.0219-0.39015 0.32601c-0.11108 0.30402-0.083356 0.53074-0.083356 0.53074"/>
    <path d="m3.5888 295.18s-0.20291 0.0134-0.31867 0.37311c-0.11576 0.35967-0.081471 0.55952-0.081471 0.55952"/>
    <path d="m4.363 295.26s-0.10728 0.19243 0.00672 0.48652c0.14469 0.38034 0.29561 0.3993 0.29561 0.3993"/>
    <path d="m4.6194 295.13s-0.10913 0.15085 0.13065 0.48571c0.1857 0.2764 0.29615 0.32246 0.29615 0.32246"/>
    <path d="m3.7539 295.24s-0.16963 0.0777-0.21097 0.50767c-0.041341 0.42995-0.00901 0.49656-0.00901 0.49656"/>
    <path d="m4.0239 295.27s-0.10213 0.10261-0.075866 0.46842c0.024805 0.45062 0.12816 0.5457 0.12816 0.5457"/>
   </g>
  </g>
 </g>
</svg>
