<?xml version="1.0" encoding="UTF-8"?>
<svg width="32" height="32" version="1.1" viewBox="0 0 8.4667 8.4667" xmlns="http://www.w3.org/2000/svg">
 <g transform="translate(0 -288.53)">
  <path d="m6.0635 294.64s0.23971 6e-3 0.22802-0.12867c-0.011692-0.13447-0.030236-0.72804 0.070158-0.87113 0.10039-0.14309 0.19294-0.19294 0.32156-0.19294h0.18709s0.23386-0.27479 0.12278-0.47941c-0.11108-0.20463-0.39172-0.19294-0.49695-0.0234-0.10524 0.16955 0.11693 0.45018-0.029232 0.45603-0.14616 6e-3 -0.22801-0.2631-0.1637-0.46188 0.064312-0.19878 0.23386-0.36248 0.44434-0.3391 0.21047 0.0234 0.19878 0.0585 0.19878 0.0585s0.1637-0.14032 0.40341 0.14616c0.23971 0.28648 0.081851 0.78344 0.081851 0.78344s0.16955 0.21047 0.15786 0.3274c-0.011692 0.11693 0.093545 0.29233 0.18709 0.40926 0.093544 0.11693 0.11343 0.24779 0.084487 0.285-0.028939 0.0372-0.049609 0.0331-0.049609 0.0331s-0.01447 0.0971-0.13849 0.0847c-0.12402-0.0124-0.28112-0.12609-0.28732-0.0496-0.0062 0.0765-0.051677 0.49196-0.051677 0.72347s0.19844 0.26458 0.19844 0.26458 0.012401 0.0538-0.033073 0.11989c-0.045475 0.0661-0.099219 0.062-0.099219 0.062s-0.00414 0.0951-0.074414 0.10749c-0.07028 0.0124-0.16536-0.062-0.19844-0.0455-0.033073 0.0165-0.24934 0.11593-0.69453 0.0868l-0.44519-0.0291-0.19878 0.0701-0.55493-1.1118 0.65432-0.30896z" fill="#6b6442"/>
  <path d="m1.55 291.46s0.6665 1.9527 1.4616 3.1337c0.79513 1.181 1.9527 1.333 2.1983 1.3915 0.24555 0.0585 0.57881 0.0526 0.57881 0.0526l-0.27479-0.44434 0.070158-0.61973 0.30402-0.35664s-1.1633-0.38748-1.5804-1.3406-0.55947-2.2024-0.55947-2.2024l-1.2161-0.3391z" fill="#ebe7d5"/>
  <path d="m2.1697 289.39s1.1342-0.28063 1.7072-0.17539c0.57296 0.10524 0.29817 0.1637 0 0.43265-0.29817 0.26894-0.26894 0.52618-0.26894 0.52618l-1.0758 0.56126-1.3681-0.1637s-0.090803-0.2306-0.34494-0.24555c-0.25414-0.0149-0.56711 0.0468-0.12278-0.3391 0.44434-0.38587 1.4733-0.59635 1.4733-0.59635z" fill="#ebe7d5"/>
  <path d="m1.1641 290.57 0.38587 0.88867s0.24555-0.14031 1.0875-0.28063c0.8419-0.14032 1.1108-0.10524 1.1108-0.10524l-0.14032-0.90036s-0.47941-0.0234-1.2278 0.11693c-0.74835 0.14032-1.2161 0.28063-1.2161 0.28063z" fill="#96601d"/>
  <path d="m5.8881 294.62s-0.25206-0.0967-0.5093-0.24286c-0.25725-0.14617-0.45311-0.30987-0.45311-0.30987s-0.38401 0.25946-0.48323 0.89611c-0.099219 0.63666 0.018084 0.81413 0.018084 0.81413s0.23994 0.11889 0.67816 0.1933c0.43822 0.0744 0.65001 0.07 0.65001 0.07l-0.24487-0.57432 0.11162-0.64492z" fill="#96601d"/>
  <path d="m6.0635 294.64s-0.43218 0.0702-0.43849 0.71328c-0.00585 0.59634 0.36248 0.61388 0.36248 0.61388s-0.15201 0.25143-0.39172-0.0935c-0.25297-0.36402-0.076005-1.0114 0.064311-1.1985 0.14032-0.18709 0.3137-0.12574 0.34678-0.10507 0.033073 0.0207 0.056633 0.07 0.056633 0.07z" fill="#ebe7d5"/>
  <path d="m6.7345 292.79s-0.17777 0.15709-0.11989 0.2191c0.057878 0.062 0.14056 4e-3 0.17363-0.0951 0.033073-0.0992 0.19017-0.16123 0.19017-0.16123z" fill="#6b6442"/>
  <path d="m7.072 293.85s0.073082-0.0672 0.1637-0.038c0.090621 0.0292 0.093545 0.14032 0.093545 0.14032s-0.067235 0.0526-0.15493 6e-3c-0.087698-0.0468-0.10231-0.10816-0.10231-0.10816z"/>
  <path d="m6.7037 293.56s-0.081851-0.11985-0.093545-0.24263c-0.011692-0.12278 0.043849-0.26017 0.073082-0.2514 0.029232 9e-3 0.11108 0.0877 0.12278 0.13155 0.011692 0.0439 0.020463-0.1754 0.067235-0.19586 0.046772-0.0205 0.087698 0.11108 0.11693 0.24263 0.029232 0.13155 0.043849 0.3391 0.043849 0.3391z" fill="#6b6442"/>
 </g>
</svg>
