<?xml version="1.0" encoding="UTF-8"?>
<svg width="32" height="32" version="1.1" viewBox="0 0 8.4667 8.4667" xmlns="http://www.w3.org/2000/svg">
 <g transform="translate(0 -288.53)">
  <path d="m5.9889 296.63-3.1787-7.3858" fill="none" stroke="#ad9241" stroke-linecap="round" stroke-width=".39688"/>
  <g>
   <path d="m3.5978 289.82-0.75369 0.32437-0.18601-0.43221 0.75369-0.32437zm0.52842 1.2278-0.75369 0.32437-0.18601-0.43221 0.75369-0.32437z" fill="#262626"/>
   <path d="m3.0579 289.04s1.3942-0.13655 1.8637 0.95426c0.46946 1.0908-0.32241 2.6269-0.32241 2.6269z" fill="#414141"/>
   <path d="m3.0579 289.04s1.2412-0.0707 1.7107 1.0202c0.46946 1.0908-0.16956 2.5608-0.16956 2.5608s0.95987-1.608 0.4904-2.6988c-0.46946-1.0908-2.0316-0.88207-2.0316-0.88207z" fill="#5a5a5a"/>
   <path d="m2.5949 289.38 0.44497-0.1915-0.069873-0.16236-0.36899-0.26578-0.075995 0.45725z" fill="#262626"/>
  </g>
  <g fill="none" stroke="#8d7735" stroke-linecap="round" stroke-width=".26458">
   <path d="m5.0073 294.08-0.25181-0.078"/>
   <path d="m5.2165 294.56-0.25181-0.078"/>
   <path d="m5.4257 295.05-0.25181-0.078"/>
   <path d="m5.6349 295.54-0.25181-0.078"/>
   <path d="m5.844 296.02-0.25181-0.078"/>
  </g>
 </g>
</svg>
