<?xml version="1.0" encoding="UTF-8"?>
<svg width="200" height="250" version="1.1" viewBox="0 0 52.917 66.146" xmlns="http://www.w3.org/2000/svg">
 <g transform="rotate(180 26.28 33.669)">
  <g fill="none" stroke="#000" stroke-linecap="round" stroke-opacity=".098039" stroke-width="7.5">
   <path transform="matrix(-.20582 -.16626 .16626 -.20582 43.752 89.318)" d="m112.2 96.171c1.3362 2.5763-1.0976 5.2847-3.5232 5.8598-4.2823 1.0154-8.0666-2.6443-8.626-6.7009-0.81646-5.92 4.1999-10.897 9.8785-11.392 7.5451-0.65828 13.746 5.7572 14.158 13.056 0.51785 9.1666-7.3151 16.605-16.234 16.925-10.787 0.38663-19.469-8.8732-19.691-19.412-0.26078-12.406 10.431-22.337 22.589-22.457 14.026-0.13832 25.207 11.99 25.223 25.767 0.0181 15.645-13.548 28.079-28.945 27.989-17.264-0.10042-30.952-15.107-30.756-32.122 0.21783-18.883 16.665-33.826 35.3-33.522 20.501 0.33435 36.7 18.224 36.288 38.477-0.45018 22.12-19.782 39.575-41.655 39.054-23.739-0.56549-42.451-21.341-41.82-44.833 0.68036-25.358 22.899-45.326 48.01-44.587 26.977 0.79489 48.203 24.458 47.353 51.188-0.74632 23.475-18.038 43.735-40.844 48.854"/>
   <path transform="matrix(.26458 0 0 .26458 -12.845 -3.0226)" d="m112.2 96.171c1.3362 2.5763-1.0976 5.2847-3.5232 5.8598-4.2823 1.0154-8.0666-2.6443-8.626-6.7009-0.81646-5.92 4.1999-10.897 9.8785-11.392 7.5451-0.65828 13.746 5.7572 14.158 13.056 0.51785 9.1666-7.3151 16.605-16.234 16.925-10.787 0.38664-19.469-8.8732-19.691-19.412-0.26078-12.406 10.431-22.337 22.589-22.457 14.026-0.13832 25.207 11.99 25.223 25.767 0.0182 15.645-13.548 28.079-28.944 27.989-6.3594-0.037-12.625-2.1413-17.758-5.8862"/>
   <path transform="matrix(.2451 .099645 -.099645 .2451 -8.6283 12.47)" d="m112.2 96.171c1.3362 2.5763-1.0976 5.2847-3.5232 5.8598-4.2823 1.0154-8.0666-2.6443-8.626-6.7009-0.81646-5.92 4.1999-10.897 9.8785-11.392 7.5451-0.65828 13.746 5.7572 14.158 13.056 0.51785 9.1666-7.3151 16.605-16.234 16.925-6.6303 0.23766-12.946-3.2878-16.502-8.8399"/>
   <path transform="matrix(-.26458 0 0 .26458 67.825 -12.876)" d="m112.2 96.171c1.3362 2.5763-1.0976 5.2847-3.5232 5.8598-4.2823 1.0154-8.0666-2.6443-8.626-6.7009-0.81646-5.92 4.1999-10.897 9.8785-11.392 7.5451-0.65828 13.746 5.7572 14.158 13.056 0.51786 9.1666-7.3151 16.605-16.234 16.925-3.1851 0.11417-6.3764-0.6343-9.1969-2.1131"/>
   <path transform="matrix(-.26458 0 0 .26458 46.698 13.726)" d="m112.2 96.171c1.3362 2.5763-1.0976 5.2847-3.5232 5.8598-4.2823 1.0154-8.0665-2.6443-8.626-6.7009-0.81646-5.92 4.1999-10.897 9.8785-11.392 7.5451-0.65828 13.746 5.7572 14.158 13.056 0.51785 9.1666-7.3151 16.605-16.234 16.925-8.3896 0.30071-15.949-5.3749-18.61-13.231"/>
   <path transform="matrix(.18571 .18846 .18846 -.18571 7.3185 23.251)" d="m112.2 96.171c1.3362 2.5763-1.0976 5.2847-3.5232 5.8598-4.2823 1.0154-8.0665-2.6443-8.626-6.7009-0.81646-5.92 4.1999-10.897 9.8785-11.392 7.5451-0.65828 13.746 5.7572 14.158 13.056 0.51785 9.1666-7.3151 16.605-16.234 16.925-10.787 0.38663-19.469-8.8733-19.691-19.412-0.26077-12.406 10.431-22.337 22.589-22.457 4.3721-0.04312 8.7206 1.132 12.498 3.3284"/>
   <path transform="matrix(.19027 .18386 -.18386 .19027 18.066 -32.109)" d="m112.2 96.171c1.3362 2.5763-1.0976 5.2847-3.5232 5.8598-4.2823 1.0154-8.0666-2.6443-8.626-6.7009-0.81646-5.92 4.1999-10.897 9.8785-11.392 7.5451-0.65828 13.746 5.7572 14.158 13.056 0.51785 9.1666-7.3151 16.605-16.234 16.925-3.2112 0.1151-6.4282-0.64675-9.2656-2.1493"/>
   <path transform="matrix(-.24356 -.10336 .10336 -.24356 35.455 95.593)" d="m112.2 96.171c1.3362 2.5763-1.0976 5.2847-3.5232 5.8598-4.2823 1.0154-8.0665-2.6443-8.626-6.7009-0.81646-5.92 4.1999-10.897 9.8785-11.392 7.5451-0.65828 13.746 5.7573 14.158 13.056 0.44269 7.8363-5.3312 14.717-12.831 16.471"/>
  </g>
  <g fill-opacity=".098039">
   <circle cx="8.1606" cy="9.3695" r="1.3601"/>
   <circle cx="29.318" cy="18.437" r="1.3601"/>
   <circle cx="26.598" cy="29.922" r="1.3601"/>
   <circle cx="8.3117" cy="37.025" r="1.3601"/>
   <circle cx="49.568" cy="40.954" r="1.3601"/>
   <circle cx="18.135" cy="50.021" r="1.3601"/>
   <circle cx="11.636" cy="56.369" r="1.3601"/>
   <circle cx="31.887" cy="31.887" r="1.3601"/>
   <circle cx="29.922" cy="26.295" r="1.3601"/>
   <circle cx="2.9921" cy="12.609" r="1.3601"/>
  </g>
 </g>
</svg>
