<?xml version="1.0" encoding="UTF-8"?>
<svg width="200" height="250" version="1.1" viewBox="0 0 52.917 66.146" xmlns="http://www.w3.org/2000/svg">
 <g transform="translate(0 -288.53)">
  <g opacity=".1">
   <rect transform="matrix(.4965 .86804 -.4965 .86804 0 0)" x="176.03" y="159.34" width="10.843" height="10.843"/>
   <rect transform="matrix(.4965 .86804 -.4965 .86804 0 0)" x="212.14" y="168.73" width="10.843" height="10.843"/>
   <rect transform="matrix(.4965 .86804 -.4965 .86804 0 0)" x="233.04" y="160.98" width="5.1908" height="5.1908"/>
   <rect transform="matrix(.4965 .86804 -.4965 .86804 0 0)" x="238.12" y="148.82" width="5.1908" height="5.1908"/>
   <rect transform="matrix(.4965 .86804 -.4965 .86804 0 0)" x="248.89" y="148.83" width="5.1908" height="5.1908"/>
   <rect transform="matrix(.4965 .86804 -.4965 .86804 0 0)" x="192.42" y="162.34" width="5.1908" height="5.1908"/>
   <rect transform="matrix(.4965 .86804 -.4965 .86804 0 0)" x="186.52" y="177.17" width="5.1908" height="5.1908"/>
   <rect transform="matrix(.4965 .86804 -.4965 .86804 0 0)" x="212.56" y="123.27" width="5.1908" height="5.1908"/>
   <rect transform="matrix(.4965 .86804 -.4965 .86804 0 0)" x="202.02" y="191.85" width="5.1908" height="5.1908"/>
   <rect transform="matrix(.4965 .86804 -.4965 .86804 0 0)" x="208.91" y="135.96" width="20.84" height="20.84"/>
  </g>
 </g>
</svg>
