<?xml version="1.0" encoding="UTF-8"?>
<svg width="200" height="250" version="1.1" viewBox="0 0 52.917 66.146" xmlns="http://www.w3.org/2000/svg">
 <g>
  <path d="m36.378 34.881s4.1049 8.2821-3.5924 14.897c-6.9263 5.9521 2.6644 15.247 2.6644 15.247s-3.4046-7.96 4.8848-15.359c8.2894-7.3994-3.9568-14.785-3.9568-14.785z" fill-opacity=".098039"/>
  <g fill-opacity=".098039">
   <path d="m16.625 40.648s0.89881 1.8135-0.78661 3.2618c-1.5166 1.3033 0.58341 3.3386 0.58341 3.3386s-0.74547-1.7429 1.0696-3.3631-0.8664-3.2373-0.8664-3.2373z"/>
   <path d="m19.091 58.698s0.89881 1.8135-0.78661 3.2618c-1.5166 1.3033 0.58341 3.3386 0.58341 3.3386s-0.74547-1.7429 1.0696-3.3631-0.8664-3.2373-0.8664-3.2373z"/>
   <path d="m48.465 24.055s0.89881 1.8135-0.78661 3.2618c-1.5166 1.3033 0.58341 3.3386 0.58341 3.3386s-0.74547-1.7429 1.0696-3.3631-0.8664-3.2373-0.8664-3.2373z"/>
   <path d="m29.406 8.6957s0.89881 1.8135-0.78661 3.2618c-1.5166 1.3033 0.58341 3.3386 0.58341 3.3386s-0.74547-1.7429 1.0696-3.3631-0.8664-3.2373-0.8664-3.2373z"/>
   <path d="m32.655 21.589s2.1812 4.4009-1.9089 7.9158c-3.6805 3.1628 1.4158 8.1021 1.4158 8.1021s-1.8091-4.2298 2.5957-8.1616-2.1026-7.8562-2.1026-7.8562z"/>
   <path d="m6.3681 10.377s1.5095 3.0456-1.321 5.478c-2.547 2.1888 0.9798 5.6069 0.9798 5.6069s-1.252-2.9271 1.7963-5.6481c3.0483-2.721-1.455-5.4368-1.455-5.4368z"/>
   <path d="m12.08 47.15s1.5706 3.1688-1.3745 5.6996c-2.65 2.2773 1.0194 5.8337 1.0194 5.8337s-1.3026-3.0456 1.869-5.8766-1.5139-5.6567-1.5139-5.6567z"/>
   <path d="m15.257 4.4354s4.9293 9.9454-4.3139 17.889c-8.3173 7.1475 3.1996 18.31 3.1996 18.31s-4.0883-9.5586 5.8659-18.444c9.9542-8.8855-4.7515-17.754-4.7515-17.754z"/>
   <path d="m42.46 1.4044s1.6022 3.2326-1.4022 5.8144c-2.7034 2.3232 1.04 5.9512 1.04 5.9512s-1.3288-3.1069 1.9066-5.995c3.2355-2.8881-1.5444-5.7706-1.5444-5.7706z"/>
  </g>
 </g>
</svg>
