<?xml version="1.0" encoding="UTF-8"?>
<svg width="200" height="250" version="1.1" viewBox="0 0 52.917 66.146" xmlns="http://www.w3.org/2000/svg">
 <g fill-opacity=".098039">
  <path transform="matrix(0 .3051 -.3051 0 37.365 45.71)" d="m-68.27 30.23-45.573 12.211-33.361-33.361 12.211-45.573 45.573-12.211 33.361 33.361z"/>
  <path transform="matrix(-.12312 .13138 -.13138 -.12312 13.487 70.742)" d="m-68.27 30.23-45.573 12.211-33.361-33.361 12.211-45.573 45.573-12.211 33.361 33.361z"/>
  <path transform="matrix(-.17806 .026743 -.026743 -.17806 -8.1476 13.745)" d="m-68.27 30.23-45.573 12.211-33.361-33.361 12.211-45.573 45.573-12.211 33.361 33.361z"/>
  <path transform="matrix(-.12727 -.038158 .038158 -.12727 5.3538 22.359)" d="m-68.27 30.23-45.573 12.211-33.361-33.361 12.211-45.573 45.573-12.211 33.361 33.361z"/>
  <path transform="matrix(-.062055 -.11748 .11748 -.062055 34.766 35.518)" d="m-68.27 30.23-45.573 12.211-33.361-33.361 12.211-45.573 45.573-12.211 33.361 33.361z"/>
  <path transform="matrix(-.051347 -.088104 .088104 -.051347 2.9862 34.182)" d="m-68.27 30.23-45.573 12.211-33.361-33.361 12.211-45.573 45.573-12.211 33.361 33.361z"/>
  <path transform="matrix(-.068864 -.075211 .075211 -.068864 41.123 26.377)" d="m-68.27 30.23-45.573 12.211-33.361-33.361 12.211-45.573 45.573-12.211 33.361 33.361z"/>
  <path transform="matrix(-.005987 -.1018 .1018 -.005987 28.134 24.634)" d="m-68.27 30.23-45.573 12.211-33.361-33.361 12.211-45.573 45.573-12.211 33.361 33.361z"/>
  <rect x="19.612" y="41.149" width="3.895" height="3.895"/>
  <rect transform="rotate(42.504)" x="22.55" y="14.011" width="3.895" height="3.895"/>
  <rect transform="rotate(67.621)" x="9.916" y="-22.397" width="3.895" height="3.895"/>
  <rect transform="rotate(107.59)" x="42.194" y="-66.287" width="3.895" height="3.895"/>
  <rect transform="rotate(65.68)" x="52.767" y="13.671" width="3.895" height="3.895"/>
  <rect transform="rotate(65.68)" x="51.976" y="-10.511" width="3.895" height="3.895"/>
  <rect transform="rotate(165.32)" x="-29.914" y="-46.421" width="3.895" height="3.895"/>
 </g>
</svg>
