<?xml version="1.0" encoding="UTF-8"?>
<svg width="200" height="250" version="1.1" viewBox="0 0 52.917 66.146" xmlns="http://www.w3.org/2000/svg">
 <g fill-opacity=".098039">
  <path d="m48.887 2.1434-1.9224 9.3813h3.5032l-9.2969 12.157 1.9224-9.3813h-3.5025z"/>
  <path d="m30.891 44.384-1.9224 9.3813h3.5032l-9.2969 12.157 1.9224-9.3813h-3.5025z"/>
  <path d="m34.046 9.9251-1.9224 9.3813h3.5032l-9.2969 12.157 1.9224-9.3813h-3.5025z"/>
  <path d="m48.031 28.888-1.1813 5.7644h2.1525l-5.7125 7.4702 1.1813-5.7644h-2.1521z"/>
  <path d="m20.716 35.988-1.1813 5.7644h2.1525l-5.7125 7.4702 1.1813-5.7644h-2.1521z"/>
  <path d="m7.459 25.396-1.1813 5.7644h2.1525l-5.7125 7.4702 1.1813-5.7644h-2.1521z"/>
  <path d="m43.505 46.998-1.1813 5.7644h2.1525l-5.7125 7.4702 1.1813-5.7644h-2.1521z"/>
  <path d="m21.581 0.11944-2.7147 13.247h4.9468l-13.128 17.167 2.7147-13.247h-4.9458z"/>
  <circle cx="33.555" cy="36.996" r="1.4206"/>
  <circle cx="18.508" cy="30.075" r="1.4206"/>
  <circle cx="5.5916" cy="47.773" r="1.4206"/>
  <circle cx="13.864" cy="54.272" r="1.4206"/>
  <circle cx="8.8684" cy="56.68" r="1.4206"/>
  <circle cx="39.715" cy="45.209" r="1.4206"/>
  <circle cx="48.198" cy="24.388" r="1.4206"/>
  <circle cx="30.654" cy="6.1692" r="1.4206"/>
  <circle cx="25.834" cy="9.0566" r="1.4206"/>
 </g>
</svg>
