<?xml version="1.0" encoding="UTF-8"?>
<svg width="200" height="250" version="1.1" viewBox="0 0 52.917 66.146" xmlns="http://www.w3.org/2000/svg">
 <g fill-opacity=".098039">
  <rect x="4.6331" y="5.102" width="12.152" height="26.447"/>
  <rect x="26.571" y="28.843" width="8.272" height="18.003"/>
  <rect x="40.751" y="10.907" width="8.272" height="18.003"/>
  <rect x="8.1666" y="48.095" width="5.0772" height="11.05"/>
  <rect x="16.524" y="40.677" width="5.0772" height="11.05"/>
  <rect x="22.022" y="1.7018" width="5.0772" height="11.05"/>
  <rect x="46.665" y="41.862" width="5.0772" height="11.05"/>
  <rect x="24.307" y="53.047" width="5.0772" height="11.05"/>
  <rect x="31.925" y="14.571" width="5.0772" height="11.05"/>
  <rect x="3.5715" y="40.099" width="4.0773" height="4.0773"/>
  <rect x="8.3125" y="33.334" width="4.0773" height="4.0773"/>
  <rect x="20.968" y="19.841" width="4.0773" height="4.0773"/>
  <rect x="39.183" y="38.699" width="4.0773" height="4.0773"/>
  <rect x="33.687" y="49.852" width="4.0773" height="4.0773"/>
  <rect x="41.372" y="56.768" width="4.0773" height="4.0773"/>
 </g>
</svg>
