<?xml version="1.0" encoding="UTF-8"?>
<svg width="200" height="250" version="1.1" viewBox="0 0 52.917 66.146" xmlns="http://www.w3.org/2000/svg">
 <g transform="rotate(180,26.28,33.669)" fill-opacity=".098039">
  <circle cx="8.1606" cy="9.3695" r="1.3601"/>
  <circle cx="29.318" cy="18.437" r="1.3601"/>
  <circle cx="26.598" cy="29.922" r="1.3601"/>
  <circle cx="8.3117" cy="37.025" r="1.3601"/>
  <circle cx="49.568" cy="40.954" r="1.3601"/>
  <circle cx="18.135" cy="50.021" r="1.3601"/>
  <circle cx="11.636" cy="56.369" r="1.3601"/>
  <circle cx="31.887" cy="31.887" r="1.3601"/>
  <circle cx="29.922" cy="26.295" r="1.3601"/>
  <circle cx="2.9921" cy="12.609" r="1.3601"/>
 </g>
 <g fill-opacity=".098039">
  <path d="m44.085 34.835s-4.2882 2.7836-6.6568 3.3978c-2.3686 0.61417-8.0728 1.8398-7.8061 5.72 0.09077 1.3207 0.4489 2.6062 1.0908 3.6621l-2.3478 1.8569 1.6931 2.1314 2.0592-2.4237c1.3285 0.98408 3.2015 1.3347 5.665 0.5605 4.7559-1.4947 6.3026-14.905 6.3026-14.905z"/>
  <path d="m4.0157 1.0699s6.2336 5.2561 9.8601 6.6981c3.6264 1.442 12.41 4.5137 11.218 10.601-0.40575 2.072-1.2276 4.0352-2.4531 5.5788l3.3469 3.4044-3.1023 3.0369-2.7777-4.2442c-2.2976 1.2937-5.3313 1.4768-9.0761-0.2373-7.2296-3.3092-7.0158-24.838-7.0158-24.838z"/>
  <path d="m17.184 45.506s-3.2255-3.1507-4.2126-5.0698c-0.98712-1.9191-3.1463-6.5899-6.4333-5.609-1.1188 0.33384-2.1555 0.89092-2.9398 1.6477l-2.0523-1.6606-1.506 1.8695 2.4842 1.3025c-0.58949 1.3336-0.52847 3.0132 0.61471 4.9829 2.207 3.8027 14.045 2.5368 14.045 2.5368z"/>
  <path d="m7.2157 49.815s3.3375 0.90028 4.9892 0.80342c1.6517-0.09687 5.5767-0.49322 6.2111 2.0589 0.21596 0.86866 0.25257 1.7702 0.05888 2.583l1.8964 0.70706-0.64665 1.7232-1.8285-1.1317c-0.65036 0.90918-1.7828 1.5239-3.5287 1.5375-3.3707 0.02627-7.1518-8.2813-7.1518-8.2813z"/>
  <path d="m28.914 32.279s2.0656-2.7718 2.5834-4.3432c0.51788-1.5714 1.5941-5.3667 4.2005-5.0172 0.88716 0.11894 1.7389 0.41675 2.4234 0.89602l1.3555-1.503 1.3642 1.2355-1.7253 1.2836c0.60597 0.93936 0.76072 2.2185 0.13072 3.8469-1.2163 3.1437-10.332 3.6015-10.332 3.6015z"/>
  <path d="m50.71 23.908s-2.0656-2.7718-2.5834-4.3432c-0.51788-1.5714-1.5941-5.3667-4.2005-5.0172-0.88716 0.11894-1.7389 0.41675-2.4234 0.89602l-1.3555-1.503-1.3642 1.2355 1.7253 1.2836c-0.60597 0.93936-0.76072 2.2185-0.13072 3.8469 1.2163 3.1437 10.332 3.6015 10.332 3.6015z"/>
  <path d="m28.566 2.6172s1.3077 2.1466 1.5762 3.3194c0.2685 1.1727 0.79057 3.9933 2.7013 3.9169 0.65034-0.026017 1.2872-0.18393 1.8151-0.48455l0.87952 1.18 1.0713-0.80208-1.1622-1.0461c0.50233-0.63903 0.70101-1.5546 0.3552-2.7762-0.66762-2.3584-7.2364-3.3072-7.2364-3.3072z"/>
  <path d="m38.423 60.626s-2.4577-0.52699-3.4937-1.1386c-1.036-0.61159-3.4427-2.1724-4.7013-0.73273-0.42837 0.49002-0.75168 1.0609-0.89655 1.651l-1.4615-0.173-0.15448 1.3293 1.5587-0.12424c0.11845 0.80416 0.6465 1.5781 1.7712 2.1671 2.1712 1.1373 7.3776-2.9789 7.3776-2.9789z"/>
 </g>
</svg>
